G75*
G70*
%OFA0B0*%
%FSLAX24Y24*%
%IPPOS*%
%LPD*%
%AMOC8*
5,1,8,0,0,1.08239X$1,22.5*
%
%ADD10C,0.1340*%
%ADD11R,0.0680X0.0680*%
%ADD12OC8,0.0680*%
%ADD13C,0.0680*%
%ADD14OC8,0.0597*%
%ADD15C,0.0597*%
%ADD16C,0.0651*%
%ADD17C,0.0513*%
%ADD18C,0.0474*%
%ADD19R,0.0513X0.0513*%
%ADD20OC8,0.0513*%
%ADD21C,0.0552*%
%ADD22C,0.0671*%
%ADD23OC8,0.0671*%
D10*
X001361Y001495D03*
X018684Y001495D03*
X021952Y001495D03*
X039275Y001495D03*
X039275Y018818D03*
X021952Y018818D03*
X018684Y018818D03*
X001361Y018818D03*
D11*
X010586Y004532D03*
D12*
X009586Y004532D03*
X009586Y005532D03*
X010586Y005532D03*
X010586Y006532D03*
X009586Y006532D03*
X004287Y005748D03*
X003287Y005748D03*
X002287Y005748D03*
X001287Y005748D03*
X001287Y004748D03*
X002287Y004748D03*
X003287Y004748D03*
X004287Y004748D03*
D13*
X001553Y007814D02*
X000953Y007814D01*
X000953Y008814D02*
X001553Y008814D01*
X001553Y009814D02*
X000953Y009814D01*
X000953Y010814D02*
X001553Y010814D01*
X003008Y010762D02*
X003608Y010762D01*
X003608Y011762D02*
X003008Y011762D01*
X001553Y011814D02*
X000953Y011814D01*
X000953Y012814D02*
X001553Y012814D01*
X003008Y012762D02*
X003608Y012762D01*
X007529Y018533D02*
X007529Y019133D01*
X008529Y019133D02*
X008529Y018533D01*
X009529Y018533D02*
X009529Y019133D01*
X010529Y019133D02*
X010529Y018533D01*
X011529Y018533D02*
X011529Y019133D01*
X012529Y019133D02*
X012529Y018533D01*
X015274Y016629D02*
X015874Y016629D01*
X017833Y016629D02*
X018433Y016629D01*
X018433Y015629D02*
X017833Y015629D01*
X015874Y015629D02*
X015274Y015629D01*
X015274Y014629D02*
X015874Y014629D01*
X017833Y014629D02*
X018433Y014629D01*
X028111Y018555D02*
X028111Y019155D01*
X029111Y019155D02*
X029111Y018555D01*
X030111Y018555D02*
X030111Y019155D01*
X031111Y019155D02*
X031111Y018555D01*
X032111Y018555D02*
X032111Y019155D01*
X033111Y019155D02*
X033111Y018555D01*
D14*
X018271Y009797D03*
X017271Y008807D03*
X018271Y007817D03*
D15*
X023805Y006138D02*
X024322Y006138D01*
X024322Y005138D02*
X023805Y005138D01*
X007531Y013952D02*
X007014Y013952D01*
X007014Y014952D02*
X007531Y014952D01*
X007544Y016130D02*
X007028Y016130D01*
X007028Y017130D02*
X007544Y017130D01*
X004028Y017130D02*
X003511Y017130D01*
X003511Y016130D02*
X004028Y016130D01*
X004014Y014952D02*
X003497Y014952D01*
X003497Y013952D02*
X004014Y013952D01*
D16*
X001055Y014358D03*
X001055Y015145D03*
X001055Y015933D03*
X001055Y016720D03*
X024308Y019190D03*
X025095Y019190D03*
X036477Y019177D03*
X037264Y019177D03*
D17*
X017205Y010039D03*
X016605Y010039D03*
X014630Y011264D03*
X015230Y011914D03*
X015830Y011914D03*
X013330Y013214D03*
X013880Y013864D03*
X012380Y012514D03*
X009380Y009514D03*
X012880Y008664D03*
X005150Y013314D03*
X004855Y001439D03*
X010080Y001264D03*
X015155Y001464D03*
D18*
X012040Y004104D03*
X007200Y002814D03*
X006020Y004204D03*
X007280Y008354D03*
X007480Y008834D03*
X007470Y009384D03*
X008900Y009894D03*
X009405Y010689D03*
X010820Y010374D03*
X011380Y009924D03*
X010830Y009544D03*
X006840Y011974D03*
D19*
X013430Y004114D03*
D20*
X016380Y013864D03*
D21*
X022128Y013792D03*
X022128Y015832D03*
X033528Y009472D03*
X034128Y009152D03*
X033528Y008792D03*
X026208Y002592D03*
X030608Y001672D03*
X035008Y000952D03*
D22*
X035448Y006472D03*
X035448Y007392D03*
X035448Y008312D03*
X035448Y009272D03*
X036368Y009432D03*
X037328Y009432D03*
X038288Y009432D03*
X039208Y009272D03*
X039208Y008312D03*
X039208Y007392D03*
X039208Y006472D03*
X026568Y011152D03*
D23*
X020330Y011114D03*
X020330Y010314D03*
X020330Y009514D03*
X020330Y008714D03*
X020330Y007914D03*
X020330Y007114D03*
X020330Y006314D03*
X020330Y005514D03*
X020330Y004714D03*
X020330Y003914D03*
X020330Y003114D03*
X020330Y002314D03*
X020330Y001514D03*
X020330Y000714D03*
X020330Y011914D03*
X020330Y012714D03*
X020330Y013514D03*
X020330Y014314D03*
X020330Y015114D03*
X020330Y015914D03*
X020330Y016714D03*
X020330Y017514D03*
X020330Y018314D03*
X020330Y019164D03*
M02*
