%
M48
M72
T01C0.0197
T02C0.0236
T03C0.0276
T04C0.0315
T05C0.0320
T06C0.0394
T07C0.0400
T08C0.1260
%
T01
X7200Y2814
X6020Y4204
X12040Y4104
X7280Y8354
X7480Y8834
X7470Y9384
X8900Y9894
X9405Y10689
X10820Y10374
X11380Y9924
X10830Y9544
X6840Y11974
T02
X5150Y13314
X9380Y9514
X12880Y8664
X16605Y10039
X17205Y10039
X14630Y11264
X15230Y11914
X15830Y11914
X13330Y13214
X13880Y13864
X12380Y12514
X16380Y13864
X13430Y4114
X15155Y1464
X10080Y1264
X4855Y1439
T03
X26208Y2592
X30608Y1672
X35008Y952
X33528Y8792
X34128Y9152
X33528Y9472
X22128Y13792
X22128Y15832
T04
X24308Y19190
X25095Y19190
X36477Y19177
X37264Y19177
X1055Y16720
X1055Y15933
X1055Y15145
X1055Y14358
T05
X4014Y13952
X4014Y14952
X4028Y16130
X4028Y17130
X7028Y17130
X7028Y16130
X7014Y14952
X7014Y13952
X17271Y8807
X18271Y7817
X18271Y9797
X24063Y6138
X24063Y5138
T06
X20330Y5514
X20330Y4714
X20330Y3914
X20330Y3114
X20330Y2314
X20330Y1514
X20330Y714
X20330Y6314
X20330Y7114
X20330Y7914
X20330Y8714
X20330Y9514
X20330Y10314
X20330Y11114
X20330Y11914
X20330Y12714
X20330Y13514
X20330Y14314
X20330Y15114
X20330Y15914
X20330Y16714
X20330Y17514
X20330Y18314
X20330Y19164
X26568Y11152
X35448Y9272
X36368Y9432
X37328Y9432
X38288Y9432
X39208Y9272
X39208Y8312
X39208Y7392
X39208Y6472
X35448Y6472
X35448Y7392
X35448Y8312
T07
X18133Y14629
X18133Y15629
X18133Y16629
X15574Y16629
X15574Y15629
X15574Y14629
X12529Y18833
X11529Y18833
X10529Y18833
X9529Y18833
X8529Y18833
X7529Y18833
X3308Y12762
X3308Y11762
X3308Y10762
X1253Y10814
X1253Y9814
X1253Y8814
X1253Y7814
X1287Y5748
X2287Y5748
X3287Y5748
X4287Y5748
X4287Y4748
X3287Y4748
X2287Y4748
X1287Y4748
X9586Y4532
X10586Y4532
X10586Y5532
X9586Y5532
X9586Y6532
X10586Y6532
X1253Y11814
X1253Y12814
X28111Y18855
X29111Y18855
X30111Y18855
X31111Y18855
X32111Y18855
X33111Y18855
T08
X1361Y1495
X18684Y1495
X21952Y1495
X39275Y1495
X39275Y18818
X21952Y18818
X18684Y18818
X1361Y18818
M30
