G75*
G70*
%OFA0B0*%
%FSLAX24Y24*%
%IPPOS*%
%LPD*%
%AMOC8*
5,1,8,0,0,1.08239X$1,22.5*
%
%ADD10R,0.0591X0.0512*%
%ADD11R,0.0512X0.0630*%
%ADD12R,0.0472X0.0472*%
%ADD13R,0.0512X0.0591*%
%ADD14C,0.0165*%
%ADD15R,0.0630X0.0512*%
%ADD16R,0.0630X0.0551*%
%ADD17R,0.0787X0.0276*%
%ADD18R,0.2756X0.2146*%
%ADD19R,0.1180X0.0630*%
%ADD20R,0.0394X0.0551*%
%ADD21R,0.0236X0.0591*%
%ADD22R,0.0630X0.0787*%
%ADD23R,0.0551X0.0551*%
%ADD24R,0.0472X0.0472*%
%ADD25R,0.2126X0.2441*%
%ADD26R,0.0394X0.0630*%
%ADD27R,0.0787X0.0591*%
%ADD28R,0.0787X0.1496*%
%ADD29R,0.1000X0.2000*%
%ADD30R,0.2000X0.2000*%
%ADD31R,0.0787X0.0630*%
%ADD32R,0.1024X0.0630*%
%ADD33R,0.0551X0.1181*%
D10*
X025315Y005400D03*
X026288Y005392D03*
X026288Y006061D03*
X025315Y006069D03*
X035385Y004350D03*
X035385Y003681D03*
X016828Y014662D03*
X016828Y015331D03*
X011753Y014534D03*
X010519Y014594D03*
X009567Y014586D03*
X009567Y013916D03*
X010519Y013924D03*
X011753Y013865D03*
X011322Y016443D03*
X011322Y017112D03*
X002602Y017017D03*
X002602Y016348D03*
X002583Y015309D03*
X002583Y014639D03*
X026386Y016837D03*
X026386Y017507D03*
D11*
X032300Y017432D03*
X033088Y017432D03*
X033082Y016449D03*
X032295Y016449D03*
X036488Y017557D03*
X037276Y017557D03*
X033344Y005725D03*
X032557Y005725D03*
G36*
X012741Y008282D02*
X012379Y007920D01*
X011935Y008364D01*
X012297Y008726D01*
X012741Y008282D01*
G37*
G36*
X012185Y007725D02*
X011823Y007363D01*
X011379Y007807D01*
X011741Y008169D01*
X012185Y007725D01*
G37*
G36*
X008755Y012235D02*
X008393Y011873D01*
X007949Y012317D01*
X008311Y012679D01*
X008755Y012235D01*
G37*
G36*
X009311Y012792D02*
X008949Y012430D01*
X008505Y012874D01*
X008867Y013236D01*
X009311Y012792D01*
G37*
X009511Y017250D03*
X010298Y017250D03*
D12*
G36*
X011263Y003666D02*
X011596Y003333D01*
X011263Y003000D01*
X010930Y003333D01*
X011263Y003666D01*
G37*
G36*
X010678Y003081D02*
X011011Y002748D01*
X010678Y002415D01*
X010345Y002748D01*
X010678Y003081D01*
G37*
G36*
X009153Y002751D02*
X009486Y003084D01*
X009819Y002751D01*
X009486Y002418D01*
X009153Y002751D01*
G37*
G36*
X008568Y003336D02*
X008901Y003669D01*
X009234Y003336D01*
X008901Y003003D01*
X008568Y003336D01*
G37*
D13*
G36*
X009826Y001595D02*
X009464Y001233D01*
X009048Y001649D01*
X009410Y002011D01*
X009826Y001595D01*
G37*
G36*
X010756Y002010D02*
X011118Y001648D01*
X010702Y001232D01*
X010340Y001594D01*
X010756Y002010D01*
G37*
G36*
X011229Y001537D02*
X011591Y001175D01*
X011175Y000759D01*
X010813Y001121D01*
X011229Y001537D01*
G37*
G36*
X009353Y001122D02*
X008991Y000760D01*
X008575Y001176D01*
X008937Y001538D01*
X009353Y001122D01*
G37*
X027375Y000967D03*
X028044Y000967D03*
X033437Y000970D03*
X034106Y000970D03*
G36*
X013611Y010587D02*
X013249Y010225D01*
X012833Y010641D01*
X013195Y011003D01*
X013611Y010587D01*
G37*
G36*
X013138Y010113D02*
X012776Y009751D01*
X012360Y010167D01*
X012722Y010529D01*
X013138Y010113D01*
G37*
X010278Y016384D03*
X009609Y016384D03*
X026298Y014738D03*
X026967Y014738D03*
D14*
X011953Y010409D02*
X011913Y010449D01*
X012149Y010685D01*
X012189Y010645D01*
X011953Y010409D01*
X012037Y010573D02*
X012117Y010573D01*
X011730Y010632D02*
X011690Y010672D01*
X011926Y010908D01*
X011966Y010868D01*
X011730Y010632D01*
X011814Y010796D02*
X011894Y010796D01*
X011507Y010854D02*
X011467Y010894D01*
X011703Y011130D01*
X011743Y011090D01*
X011507Y010854D01*
X011591Y011018D02*
X011671Y011018D01*
X011284Y011077D02*
X011244Y011117D01*
X011480Y011353D01*
X011520Y011313D01*
X011284Y011077D01*
X011368Y011241D02*
X011448Y011241D01*
X011062Y011300D02*
X011022Y011340D01*
X011258Y011576D01*
X011298Y011536D01*
X011062Y011300D01*
X011146Y011464D02*
X011226Y011464D01*
X010839Y011523D02*
X010799Y011563D01*
X011035Y011799D01*
X011075Y011759D01*
X010839Y011523D01*
X010923Y011687D02*
X011003Y011687D01*
X010616Y011745D02*
X010576Y011785D01*
X010812Y012021D01*
X010852Y011981D01*
X010616Y011745D01*
X010700Y011909D02*
X010780Y011909D01*
X010394Y011968D02*
X010354Y012008D01*
X010590Y012244D01*
X010630Y012204D01*
X010394Y011968D01*
X010478Y012132D02*
X010558Y012132D01*
X009699Y011968D02*
X009463Y012204D01*
X009503Y012244D01*
X009739Y012008D01*
X009699Y011968D01*
X009615Y012132D02*
X009535Y012132D01*
X009240Y011981D02*
X009476Y011745D01*
X009240Y011981D02*
X009280Y012021D01*
X009516Y011785D01*
X009476Y011745D01*
X009392Y011909D02*
X009312Y011909D01*
X009017Y011759D02*
X009253Y011523D01*
X009017Y011759D02*
X009057Y011799D01*
X009293Y011563D01*
X009253Y011523D01*
X009169Y011687D02*
X009089Y011687D01*
X008795Y011536D02*
X009031Y011300D01*
X008795Y011536D02*
X008835Y011576D01*
X009071Y011340D01*
X009031Y011300D01*
X008947Y011464D02*
X008867Y011464D01*
X008572Y011313D02*
X008808Y011077D01*
X008572Y011313D02*
X008612Y011353D01*
X008848Y011117D01*
X008808Y011077D01*
X008724Y011241D02*
X008644Y011241D01*
X008349Y011090D02*
X008585Y010854D01*
X008349Y011090D02*
X008389Y011130D01*
X008625Y010894D01*
X008585Y010854D01*
X008501Y011018D02*
X008421Y011018D01*
X008126Y010868D02*
X008362Y010632D01*
X008126Y010868D02*
X008166Y010908D01*
X008402Y010672D01*
X008362Y010632D01*
X008278Y010796D02*
X008198Y010796D01*
X007904Y010645D02*
X008140Y010409D01*
X007904Y010645D02*
X007944Y010685D01*
X008180Y010449D01*
X008140Y010409D01*
X008056Y010573D02*
X007976Y010573D01*
X007904Y009558D02*
X007944Y009518D01*
X007904Y009558D02*
X008140Y009794D01*
X008180Y009754D01*
X007944Y009518D01*
X008028Y009682D02*
X008108Y009682D01*
X008126Y009335D02*
X008166Y009295D01*
X008126Y009335D02*
X008362Y009571D01*
X008402Y009531D01*
X008166Y009295D01*
X008250Y009459D02*
X008330Y009459D01*
X008349Y009113D02*
X008389Y009073D01*
X008349Y009113D02*
X008585Y009349D01*
X008625Y009309D01*
X008389Y009073D01*
X008473Y009237D02*
X008553Y009237D01*
X008572Y008890D02*
X008612Y008850D01*
X008572Y008890D02*
X008808Y009126D01*
X008848Y009086D01*
X008612Y008850D01*
X008696Y009014D02*
X008776Y009014D01*
X008795Y008667D02*
X008835Y008627D01*
X008795Y008667D02*
X009031Y008903D01*
X009071Y008863D01*
X008835Y008627D01*
X008919Y008791D02*
X008999Y008791D01*
X009017Y008445D02*
X009057Y008405D01*
X009017Y008445D02*
X009253Y008681D01*
X009293Y008641D01*
X009057Y008405D01*
X009141Y008569D02*
X009221Y008569D01*
X009240Y008222D02*
X009280Y008182D01*
X009240Y008222D02*
X009476Y008458D01*
X009516Y008418D01*
X009280Y008182D01*
X009364Y008346D02*
X009444Y008346D01*
X009463Y007999D02*
X009503Y007959D01*
X009463Y007999D02*
X009699Y008235D01*
X009739Y008195D01*
X009503Y007959D01*
X009587Y008123D02*
X009667Y008123D01*
X010354Y008195D02*
X010590Y007959D01*
X010354Y008195D02*
X010394Y008235D01*
X010630Y007999D01*
X010590Y007959D01*
X010506Y008123D02*
X010426Y008123D01*
X010576Y008418D02*
X010812Y008182D01*
X010576Y008418D02*
X010616Y008458D01*
X010852Y008222D01*
X010812Y008182D01*
X010728Y008346D02*
X010648Y008346D01*
X010799Y008641D02*
X011035Y008405D01*
X010799Y008641D02*
X010839Y008681D01*
X011075Y008445D01*
X011035Y008405D01*
X010951Y008569D02*
X010871Y008569D01*
X011022Y008863D02*
X011258Y008627D01*
X011022Y008863D02*
X011062Y008903D01*
X011298Y008667D01*
X011258Y008627D01*
X011174Y008791D02*
X011094Y008791D01*
X011244Y009086D02*
X011480Y008850D01*
X011244Y009086D02*
X011284Y009126D01*
X011520Y008890D01*
X011480Y008850D01*
X011396Y009014D02*
X011316Y009014D01*
X011467Y009309D02*
X011703Y009073D01*
X011467Y009309D02*
X011507Y009349D01*
X011743Y009113D01*
X011703Y009073D01*
X011619Y009237D02*
X011539Y009237D01*
X011690Y009531D02*
X011926Y009295D01*
X011690Y009531D02*
X011730Y009571D01*
X011966Y009335D01*
X011926Y009295D01*
X011842Y009459D02*
X011762Y009459D01*
X011913Y009754D02*
X012149Y009518D01*
X011913Y009754D02*
X011953Y009794D01*
X012189Y009558D01*
X012149Y009518D01*
X012065Y009682D02*
X011985Y009682D01*
D15*
X012626Y013804D03*
X012626Y014591D03*
X022065Y011530D03*
X022065Y010743D03*
X026198Y004207D03*
X026198Y003419D03*
D16*
X003200Y001039D03*
X003200Y001924D03*
X003200Y002810D03*
X006507Y002810D03*
X006507Y001039D03*
X013486Y001055D03*
X016793Y001055D03*
X016793Y001941D03*
X016793Y002827D03*
X013486Y002827D03*
D17*
G36*
X007361Y010691D02*
X006806Y011246D01*
X007001Y011441D01*
X007556Y010886D01*
X007361Y010691D01*
G37*
G36*
X007640Y010969D02*
X007085Y011524D01*
X007280Y011719D01*
X007835Y011164D01*
X007640Y010969D01*
G37*
G36*
X007918Y011248D02*
X007363Y011803D01*
X007558Y011998D01*
X008113Y011443D01*
X007918Y011248D01*
G37*
D18*
X018214Y012143D03*
D19*
X015545Y011273D03*
X015545Y013033D03*
D20*
X014504Y012131D03*
X013756Y012131D03*
X014130Y012997D03*
D21*
X027189Y004964D03*
X027689Y004964D03*
X028189Y004964D03*
X028689Y004964D03*
X028689Y002798D03*
X028189Y002798D03*
X027689Y002798D03*
X027189Y002798D03*
D22*
X034641Y002418D03*
X035743Y002418D03*
D23*
X031824Y005686D03*
X030403Y005686D03*
X038335Y014521D03*
X038335Y015942D03*
X025378Y017419D03*
X023957Y017419D03*
D24*
X026397Y018890D03*
X027224Y018890D03*
X029367Y000950D03*
X030193Y000950D03*
X031020Y000942D03*
X031847Y000942D03*
D25*
X037340Y007537D03*
D26*
X038237Y004663D03*
X036442Y004663D03*
D27*
X023099Y010234D03*
X023099Y011139D03*
X023099Y012045D03*
D28*
X025579Y011139D03*
D29*
X028135Y007288D03*
X031635Y007288D03*
X034135Y007288D03*
X034135Y015288D03*
X028135Y015288D03*
D30*
X030635Y015288D03*
D31*
X037368Y003423D03*
X037368Y002321D03*
D32*
X024557Y013792D03*
X023140Y013792D03*
X023140Y015832D03*
X024557Y015832D03*
D33*
X036328Y015937D03*
X036328Y014047D03*
M02*
