G75*
%MOIN*%
%OFA0B0*%
%FSLAX26Y26*%
%IPPOS*%
%LPD*%
%AMOC8*
5,1,8,0,0,1.08239X$1,22.5*
%
%ADD10C,0.314961*%
%ADD11R,0.047244X0.047244*%
%ADD12R,0.314961X0.393701*%
%ADD13R,0.051181X0.062992*%
%ADD14C,0.314961*%
%ADD15C,0.015748*%
%ADD16C,0.030000*%
%ADD17C,0.029575*%
%ADD18C,0.048819*%
%ADD19C,0.045276*%
%ADD20C,0.045669*%
D10*
X00511811Y00251969D03*
X00511811Y04110236D03*
X00511811Y07968504D03*
X04527559Y07968504D03*
X08503937Y07968504D03*
X08503937Y04110236D03*
X08503937Y00251969D03*
X04527559Y00251969D03*
X04527559Y04110236D03*
D11*
X-00175197Y08929921D03*
X-00257874Y08929921D03*
D12*
X-00551181Y09133858D03*
X00118110Y09133858D03*
D13*
X-00179134Y09330709D03*
X-00253937Y09330709D03*
D14*
X-00551181Y09133858D02*
X-00551181Y08637795D01*
X-00653543Y08535433D01*
X-00771654Y08535433D01*
X00118110Y08692913D02*
X00118110Y09133858D01*
X00118110Y08692913D02*
X00267717Y08543307D01*
X08685039Y08543307D01*
D15*
X00125984Y09228346D02*
X00118110Y09236220D01*
X-00062992Y09236220D01*
X-00078740Y09251969D01*
X-00078740Y09299213D01*
X-00110236Y09330709D01*
X-00179134Y09330709D01*
X-00253937Y09330709D02*
X-00253937Y09253937D01*
X-00236220Y09236220D01*
X-00149606Y09236220D01*
X-00118110Y09204724D01*
X-00118110Y08944882D01*
X-00133858Y08929134D01*
X-00174409Y08929134D01*
X-00175197Y08929921D01*
X-00257874Y08929921D02*
X-00323622Y08929921D01*
X-00370079Y08976378D01*
X-00448819Y08976378D01*
X-00456693Y08984252D01*
X-00480315Y08984252D01*
X-00488189Y08976378D01*
D16*
X-00779528Y08496063D02*
X-00779528Y04125984D01*
X00330709Y04125984D01*
X00330709Y04086614D02*
X-00818898Y04086614D01*
X-00818898Y08496063D01*
X02007874Y05850394D02*
X02047244Y05850394D01*
X02047244Y04125984D01*
X02086614Y04125984D01*
X02086614Y05937008D01*
X02125984Y05937008D01*
X02125984Y04125984D01*
X02165354Y04125984D01*
X02165354Y06023622D01*
X02204724Y06023622D01*
X02204724Y04125984D01*
X02244094Y04125984D01*
X02244094Y06094488D01*
X02283465Y06094488D01*
X02283465Y04125984D01*
X02322835Y04125984D01*
X02322835Y06157480D01*
X02362205Y06157480D01*
X02362205Y04125984D01*
X02401575Y04125984D01*
X02401575Y06228346D01*
X02440945Y06228346D01*
X02440945Y04125984D01*
X02480315Y04125984D01*
X02480315Y06283465D01*
X02519685Y06283465D01*
X02519685Y04125984D01*
X02559055Y04125984D01*
X02559055Y06338583D01*
X02598425Y06338583D01*
X02598425Y04125984D01*
X02637795Y04125984D01*
X02637795Y06385827D01*
X02677165Y06385827D01*
X02677165Y04125984D01*
X02716535Y04125984D01*
X02716535Y06433071D01*
X02755906Y06433071D01*
X02755906Y04125984D01*
X02795276Y04125984D01*
X02795276Y06480315D01*
X02834646Y06480315D01*
X02834646Y04125984D01*
X02874016Y04125984D01*
X02874016Y06519685D01*
X02913386Y06519685D01*
X02913386Y04125984D01*
X02952756Y04125984D01*
X02952756Y06559055D01*
X02992126Y06559055D01*
X02992126Y04125984D01*
X03031496Y04125984D01*
X03031496Y06590551D01*
X03070866Y06590551D01*
X03070866Y04125984D01*
X03110236Y04125984D01*
X03110236Y06622047D01*
X03149606Y06622047D01*
X03149606Y04125984D01*
X03188976Y04125984D01*
X03188976Y06653543D01*
X03228346Y06653543D01*
X03228346Y04125984D01*
X03267717Y04125984D01*
X03267717Y06677165D01*
X03307087Y06677165D01*
X03307087Y04125984D01*
X03346457Y04125984D01*
X03346457Y06700787D01*
X03385827Y06700787D01*
X03385827Y04125984D01*
X03425197Y04125984D01*
X03425197Y06716535D01*
X03464567Y06716535D01*
X03464567Y04125984D01*
X03503937Y04125984D01*
X03503937Y06732283D01*
X03543307Y06732283D01*
X03543307Y04125984D01*
X03582677Y04125984D01*
X03582677Y06748031D01*
X03622047Y06748031D01*
X03622047Y04125984D01*
X03661417Y04125984D01*
X03661417Y06763780D01*
X03700787Y06763780D01*
X03700787Y04125984D01*
X03740157Y04125984D01*
X03740157Y06771654D01*
X03779528Y06771654D01*
X03779528Y04125984D01*
X03818898Y04125984D01*
X03818898Y06779528D01*
X03858268Y06779528D01*
X03858268Y04125984D01*
X03897638Y04125984D01*
X03897638Y04165354D01*
X03937008Y04165354D01*
X03937008Y04125984D01*
X03976378Y04125984D01*
X03976378Y04165354D01*
X04015748Y04165354D01*
X04015748Y04125984D01*
X04055118Y04125984D01*
X04055118Y04165354D01*
X04094488Y04165354D01*
X04094488Y04125984D01*
X04133858Y04125984D01*
X04133858Y04165354D01*
X04173228Y04165354D01*
X04173228Y04125984D01*
X04212598Y04125984D01*
X04212598Y04165354D01*
X04251969Y04165354D01*
X04251969Y04125984D01*
X04291339Y04125984D01*
X04291339Y04204724D01*
X03897638Y04204724D01*
X03897638Y04244094D01*
X04291339Y04244094D01*
X04291339Y04283465D01*
X03897638Y04283465D01*
X03897638Y04322835D01*
X04291339Y04322835D01*
X04291339Y04362205D01*
X03897638Y04362205D01*
X03897638Y04401575D01*
X04291339Y04401575D01*
X04291339Y04440945D01*
X03897638Y04440945D01*
X03897638Y04480315D01*
X04291339Y04480315D01*
X04291339Y04519685D01*
X03897638Y04519685D01*
X03897638Y04559055D01*
X04291339Y04559055D01*
X04291339Y04598425D01*
X03897638Y04598425D01*
X03897638Y04637795D01*
X04291339Y04637795D01*
X04291339Y04677165D01*
X03897638Y04677165D01*
X03897638Y04716535D01*
X04291339Y04716535D01*
X04291339Y04755906D01*
X03897638Y04755906D01*
X03897638Y04795276D01*
X04007874Y04795276D01*
X03984252Y04834646D01*
X03897638Y04834646D01*
X03897638Y04874016D01*
X03968504Y04874016D01*
X03968504Y04913386D01*
X03897638Y04913386D01*
X03897638Y04952756D01*
X03976378Y04952756D01*
X03984252Y04992126D01*
X03897638Y04992126D01*
X03897638Y06787402D01*
X03937008Y06787402D01*
X03937008Y05031496D01*
X03976378Y05031496D01*
X03976378Y06787402D01*
X04015748Y06787402D01*
X04015748Y05015748D01*
X04055118Y05039370D01*
X04055118Y06795276D01*
X04094488Y06795276D01*
X04094488Y05047244D01*
X04133858Y05047244D01*
X04133858Y06795276D01*
X04173228Y06795276D01*
X04173228Y05039370D01*
X04212598Y05015748D01*
X04212598Y06795276D01*
X04251969Y06795276D01*
X04251969Y05031496D01*
X04291339Y05031496D01*
X04291339Y06787402D01*
X04330709Y06787402D01*
X04330709Y04992126D01*
X04244094Y04992126D01*
X04259843Y04952756D01*
X04330709Y04952756D01*
X04330709Y04913386D01*
X04259843Y04913386D01*
X04259843Y04874016D01*
X04330709Y04874016D01*
X04330709Y04834646D01*
X04244094Y04834646D01*
X04220472Y04795276D01*
X04330709Y04795276D01*
X04330709Y04204724D01*
X04370079Y04204724D01*
X04370079Y06779528D01*
X04409449Y06779528D01*
X04409449Y04251969D01*
X04448819Y04275591D01*
X04448819Y06771654D01*
X04488189Y06771654D01*
X04488189Y04291339D01*
X04527559Y04291339D01*
X04527559Y06763780D01*
X04566929Y06763780D01*
X04566929Y04291339D01*
X04606299Y04275591D01*
X04606299Y06748031D01*
X04645669Y06748031D01*
X04645669Y04251969D01*
X04685039Y04204724D01*
X04685039Y06732283D01*
X04724409Y06732283D01*
X04724409Y04125984D01*
X04763780Y04125984D01*
X04763780Y06708661D01*
X04803150Y06708661D01*
X04803150Y04125984D01*
X04842520Y04125984D01*
X04842520Y06692913D01*
X04881890Y06692913D01*
X04881890Y04125984D01*
X04921260Y04125984D01*
X04921260Y06669291D01*
X04960630Y06669291D01*
X04960630Y04125984D01*
X05000000Y04125984D01*
X05000000Y06645669D01*
X05039370Y06645669D01*
X05039370Y04125984D01*
X05078740Y04125984D01*
X05078740Y06614173D01*
X05118110Y06614173D01*
X05118110Y04125984D01*
X05157480Y04125984D01*
X05157480Y06582677D01*
X05196850Y06582677D01*
X05196850Y04125984D01*
X05236220Y04125984D01*
X05236220Y06551181D01*
X05275591Y06551181D01*
X05275591Y04125984D01*
X05314961Y04125984D01*
X05314961Y06511811D01*
X05354331Y06511811D01*
X05354331Y04125984D01*
X05393701Y04125984D01*
X05393701Y06472441D01*
X05433071Y06472441D01*
X05433071Y04125984D01*
X05472441Y04125984D01*
X05472441Y06433071D01*
X05511811Y06433071D01*
X05511811Y04125984D01*
X05551181Y04125984D01*
X05551181Y06385827D01*
X05590551Y06385827D01*
X05590551Y04125984D01*
X05629921Y04125984D01*
X05629921Y06338583D01*
X05669291Y06338583D01*
X05669291Y04125984D01*
X05708661Y04125984D01*
X05708661Y06283465D01*
X05748031Y06283465D01*
X05748031Y04125984D01*
X05787402Y04125984D01*
X05787402Y06228346D01*
X05826772Y06228346D01*
X05826772Y04125984D01*
X05866142Y04125984D01*
X05866142Y06165354D01*
X05905512Y06165354D01*
X05905512Y04125984D01*
X05944882Y04125984D01*
X05944882Y06094488D01*
X05984252Y06094488D01*
X05984252Y04125984D01*
X06023622Y04125984D01*
X06023622Y06015748D01*
X06062992Y06015748D01*
X06062992Y04125984D01*
X06102362Y04125984D01*
X06102362Y05937008D01*
X06141732Y05937008D01*
X06141732Y04125984D01*
X06181102Y04125984D01*
X06181102Y05858268D01*
X06220472Y05858268D01*
X06220472Y04125984D01*
X06259843Y04125984D01*
X06259843Y05763780D01*
X06299213Y05763780D01*
X06299213Y04125984D01*
X06338583Y04125984D01*
X06338583Y05653543D01*
X06377953Y05653543D01*
X06377953Y04125984D01*
X06417323Y04125984D01*
X06417323Y05543307D01*
X06456693Y05543307D01*
X06456693Y04125984D01*
X06496063Y04125984D01*
X06496063Y05409449D01*
X06535433Y05409449D01*
X06535433Y04125984D01*
X06574803Y04125984D01*
X06574803Y05251969D01*
X06614173Y05251969D01*
X06614173Y04125984D01*
X06653543Y04125984D01*
X06653543Y05078740D01*
X06692913Y05078740D01*
X06692913Y04125984D01*
X06732283Y04125984D01*
X06732283Y04858268D01*
X06771654Y04858268D01*
X06771654Y04125984D01*
X06811024Y04125984D01*
X06811024Y04496063D01*
X06850394Y04496063D01*
X06850394Y04125984D01*
X08322835Y04125984D01*
X08322835Y04086614D02*
X06850394Y04086614D01*
X06850394Y03685039D01*
X06811024Y03685039D01*
X06811024Y04086614D01*
X06771654Y04086614D01*
X06771654Y03354331D01*
X06732283Y03354331D01*
X06732283Y04086614D01*
X06692913Y04086614D01*
X06692913Y03133858D01*
X06653543Y03133858D01*
X06653543Y04086614D01*
X06614173Y04086614D01*
X06614173Y02960630D01*
X06574803Y02960630D01*
X06574803Y04086614D01*
X06535433Y04086614D01*
X06535433Y02811024D01*
X06496063Y02811024D01*
X06496063Y04086614D01*
X06456693Y04086614D01*
X06456693Y02677165D01*
X06417323Y02677165D01*
X06417323Y04086614D01*
X06377953Y04086614D01*
X06377953Y02559055D01*
X06338583Y02559055D01*
X06338583Y04086614D01*
X06299213Y04086614D01*
X06299213Y02456693D01*
X06259843Y02456693D01*
X06259843Y04086614D01*
X06220472Y04086614D01*
X06220472Y02362205D01*
X06181102Y02362205D01*
X06181102Y04086614D01*
X06141732Y04086614D01*
X06141732Y02275591D01*
X06102362Y02275591D01*
X06102362Y04086614D01*
X06062992Y04086614D01*
X06062992Y02188976D01*
X06023622Y02188976D01*
X06023622Y04086614D01*
X05984252Y04086614D01*
X05984252Y02118110D01*
X05944882Y02118110D01*
X05944882Y04086614D01*
X05905512Y04086614D01*
X05905512Y02055118D01*
X05866142Y02055118D01*
X05866142Y04086614D01*
X05826772Y04086614D01*
X05826772Y01984252D01*
X05787402Y01984252D01*
X05787402Y04086614D01*
X05748031Y04086614D01*
X05748031Y01929134D01*
X05708661Y01929134D01*
X05708661Y04086614D01*
X05669291Y04086614D01*
X05669291Y01874016D01*
X05629921Y01874016D01*
X05629921Y04086614D01*
X05590551Y04086614D01*
X05590551Y01826772D01*
X05551181Y01826772D01*
X05551181Y04086614D01*
X05511811Y04086614D01*
X05511811Y01779528D01*
X05472441Y01779528D01*
X05472441Y04086614D01*
X05433071Y04086614D01*
X05433071Y01732283D01*
X05393701Y01732283D01*
X05393701Y04086614D01*
X05354331Y04086614D01*
X05354331Y01692913D01*
X05314961Y01692913D01*
X05314961Y04086614D01*
X05275591Y04086614D01*
X05275591Y01653543D01*
X05236220Y01653543D01*
X05236220Y04086614D01*
X05196850Y04086614D01*
X05196850Y01622047D01*
X05157480Y01622047D01*
X05157480Y04086614D01*
X05118110Y04086614D01*
X05118110Y01590551D01*
X05078740Y01590551D01*
X05078740Y04086614D01*
X05039370Y04086614D01*
X05039370Y01559055D01*
X05000000Y01559055D01*
X05000000Y04086614D01*
X04960630Y04086614D01*
X04960630Y01535433D01*
X04921260Y01535433D01*
X04921260Y04086614D01*
X04881890Y04086614D01*
X04881890Y01511811D01*
X04842520Y01511811D01*
X04842520Y04086614D01*
X04803150Y04086614D01*
X04803150Y01496063D01*
X04763780Y01496063D01*
X04763780Y04086614D01*
X04724409Y04086614D01*
X04724409Y01480315D01*
X04685039Y01480315D01*
X04685039Y04007874D01*
X04645669Y03968504D01*
X04645669Y01464567D01*
X04606299Y01464567D01*
X04606299Y03937008D01*
X04566929Y03929134D01*
X04566929Y01448819D01*
X04527559Y01448819D01*
X04527559Y03929134D01*
X04488189Y03929134D01*
X04488189Y01440945D01*
X04448819Y01440945D01*
X04448819Y03937008D01*
X04409449Y03968504D01*
X04409449Y01433071D01*
X04370079Y01433071D01*
X04370079Y04007874D01*
X04330709Y04007874D01*
X04330709Y03393701D01*
X04228346Y03393701D01*
X04251969Y03354331D01*
X04330709Y03354331D01*
X04330709Y03314961D01*
X04259843Y03314961D01*
X04259843Y03275591D01*
X04330709Y03275591D01*
X04330709Y03236220D01*
X04259843Y03236220D01*
X04244094Y03196850D01*
X04330709Y03196850D01*
X04330709Y01425197D01*
X04291339Y01425197D01*
X04291339Y03157480D01*
X04251969Y03157480D01*
X04251969Y01425197D01*
X04212598Y01425197D01*
X04212598Y03173228D01*
X04173228Y03149606D01*
X04173228Y01417323D01*
X04133858Y01417323D01*
X04133858Y03141732D01*
X04094488Y03141732D01*
X04094488Y01417323D01*
X04055118Y01417323D01*
X04055118Y03149606D01*
X04015748Y03173228D01*
X04015748Y01417323D01*
X03976378Y01417323D01*
X03976378Y03157480D01*
X03937008Y03157480D01*
X03937008Y01425197D01*
X03897638Y01425197D01*
X03897638Y03196850D01*
X03984252Y03196850D01*
X03968504Y03236220D01*
X03897638Y03236220D01*
X03897638Y03275591D01*
X03968504Y03275591D01*
X03968504Y03314961D01*
X03897638Y03314961D01*
X03897638Y03354331D01*
X03976378Y03354331D01*
X04007874Y03393701D01*
X03897638Y03393701D01*
X03897638Y03433071D01*
X04291339Y03433071D01*
X04291339Y03472441D01*
X03897638Y03472441D01*
X03897638Y03511811D01*
X04291339Y03511811D01*
X04291339Y03551181D01*
X03897638Y03551181D01*
X03897638Y03590551D01*
X04291339Y03590551D01*
X04291339Y03629921D01*
X03897638Y03629921D01*
X03897638Y03669291D01*
X04291339Y03669291D01*
X04291339Y03708661D01*
X03897638Y03708661D01*
X03897638Y03748031D01*
X04291339Y03748031D01*
X04291339Y03787402D01*
X03897638Y03787402D01*
X03897638Y03826772D01*
X04291339Y03826772D01*
X04291339Y03866142D01*
X03897638Y03866142D01*
X03897638Y03905512D01*
X04291339Y03905512D01*
X04291339Y03944882D01*
X03897638Y03944882D01*
X03897638Y03984252D01*
X04291339Y03984252D01*
X04291339Y04086614D01*
X04251969Y04086614D01*
X04251969Y04023622D01*
X04212598Y04023622D01*
X04212598Y04086614D01*
X04173228Y04086614D01*
X04173228Y04023622D01*
X04133858Y04023622D01*
X04133858Y04086614D01*
X04094488Y04086614D01*
X04094488Y04023622D01*
X04055118Y04023622D01*
X04055118Y04086614D01*
X04015748Y04086614D01*
X04015748Y04023622D01*
X03976378Y04023622D01*
X03976378Y04086614D01*
X03937008Y04086614D01*
X03937008Y04023622D01*
X03897638Y04023622D01*
X03897638Y04086614D01*
X03858268Y04086614D01*
X03858268Y01433071D01*
X03818898Y01433071D01*
X03818898Y04086614D01*
X03779528Y04086614D01*
X03779528Y01440945D01*
X03740157Y01440945D01*
X03740157Y04086614D01*
X03700787Y04086614D01*
X03700787Y01448819D01*
X03661417Y01448819D01*
X03661417Y04086614D01*
X03622047Y04086614D01*
X03622047Y01464567D01*
X03582677Y01464567D01*
X03582677Y04086614D01*
X03543307Y04086614D01*
X03543307Y01480315D01*
X03503937Y01480315D01*
X03503937Y04086614D01*
X03464567Y04086614D01*
X03464567Y01503937D01*
X03425197Y01503937D01*
X03425197Y04086614D01*
X03385827Y04086614D01*
X03385827Y01519685D01*
X03346457Y01519685D01*
X03346457Y04086614D01*
X03307087Y04086614D01*
X03307087Y01543307D01*
X03267717Y01543307D01*
X03267717Y04086614D01*
X03228346Y04086614D01*
X03228346Y01566929D01*
X03188976Y01566929D01*
X03188976Y04086614D01*
X03149606Y04086614D01*
X03149606Y01598425D01*
X03110236Y01598425D01*
X03110236Y04086614D01*
X03070866Y04086614D01*
X03070866Y01629921D01*
X03031496Y01629921D01*
X03031496Y04086614D01*
X02992126Y04086614D01*
X02992126Y01661417D01*
X02952756Y01661417D01*
X02952756Y04086614D01*
X02913386Y04086614D01*
X02913386Y01700787D01*
X02874016Y01700787D01*
X02874016Y04086614D01*
X02834646Y04086614D01*
X02834646Y01740157D01*
X02795276Y01740157D01*
X02795276Y04086614D01*
X02755906Y04086614D01*
X02755906Y01779528D01*
X02716535Y01779528D01*
X02716535Y04086614D01*
X02677165Y04086614D01*
X02677165Y01826772D01*
X02637795Y01826772D01*
X02637795Y04086614D01*
X02598425Y04086614D01*
X02598425Y01874016D01*
X02559055Y01874016D01*
X02559055Y04086614D01*
X02519685Y04086614D01*
X02519685Y01929134D01*
X02480315Y01929134D01*
X02480315Y04086614D01*
X02440945Y04086614D01*
X02440945Y01984252D01*
X02401575Y01984252D01*
X02401575Y04086614D01*
X02362205Y04086614D01*
X02362205Y02047244D01*
X02322835Y02047244D01*
X02322835Y04086614D01*
X02283465Y04086614D01*
X02283465Y02118110D01*
X02244094Y02118110D01*
X02244094Y04086614D01*
X02204724Y04086614D01*
X02204724Y02196850D01*
X02165354Y02196850D01*
X02165354Y04086614D01*
X02125984Y04086614D01*
X02125984Y02275591D01*
X02086614Y02275591D01*
X02086614Y04086614D01*
X02047244Y04086614D01*
X02047244Y02354331D01*
X02007874Y02354331D01*
X02007874Y04086614D01*
X01968504Y04086614D01*
X01968504Y02448819D01*
X01929134Y02448819D01*
X01929134Y04086614D01*
X01889764Y04086614D01*
X01889764Y02559055D01*
X01850394Y02559055D01*
X01850394Y04086614D01*
X01811024Y04086614D01*
X01811024Y02669291D01*
X01771654Y02669291D01*
X01771654Y04086614D01*
X01732283Y04086614D01*
X01732283Y02803150D01*
X01692913Y02803150D01*
X01692913Y04086614D01*
X01653543Y04086614D01*
X01653543Y02960630D01*
X01614173Y02960630D01*
X01614173Y04086614D01*
X01574803Y04086614D01*
X01574803Y03133858D01*
X01535433Y03133858D01*
X01535433Y04086614D01*
X01496063Y04086614D01*
X01496063Y03354331D01*
X01456693Y03354331D01*
X01456693Y04086614D01*
X01417323Y04086614D01*
X01417323Y03716535D01*
X01377953Y03716535D01*
X01377953Y04086614D01*
X00692913Y04086614D01*
X00692913Y04125984D02*
X01377953Y04125984D01*
X01377953Y04527559D01*
X01417323Y04527559D01*
X01417323Y04125984D01*
X01456693Y04125984D01*
X01456693Y04858268D01*
X01496063Y04858268D01*
X01496063Y04125984D01*
X01535433Y04125984D01*
X01535433Y05078740D01*
X01574803Y05078740D01*
X01574803Y04125984D01*
X01614173Y04125984D01*
X01614173Y05251969D01*
X01653543Y05251969D01*
X01653543Y04125984D01*
X01692913Y04125984D01*
X01692913Y05401575D01*
X01732283Y05401575D01*
X01732283Y04125984D01*
X01771654Y04125984D01*
X01771654Y05535433D01*
X01811024Y05535433D01*
X01811024Y04125984D01*
X01850394Y04125984D01*
X01850394Y05653543D01*
X01889764Y05653543D01*
X01889764Y04125984D01*
X01929134Y04125984D01*
X01929134Y05755906D01*
X01968504Y05755906D01*
X01968504Y04125984D01*
X02007874Y04125984D01*
X02007874Y05850394D01*
X00527559Y04291339D02*
X00496063Y04291339D01*
X00496063Y04291338D02*
X00492067Y04291290D01*
X00488074Y04291145D01*
X00484086Y04290904D01*
X00480104Y04290566D01*
X00476132Y04290132D01*
X00472171Y04289603D01*
X00468224Y04288978D01*
X00464294Y04288257D01*
X00460382Y04287442D01*
X00456491Y04286533D01*
X00452623Y04285530D01*
X00448781Y04284434D01*
X00444966Y04283245D01*
X00441181Y04281964D01*
X00437428Y04280593D01*
X00433709Y04279131D01*
X00430026Y04277579D01*
X00426383Y04275939D01*
X00422780Y04274212D01*
X00419219Y04272398D01*
X00415704Y04270498D01*
X00412235Y04268514D01*
X00408816Y04266447D01*
X00405447Y04264298D01*
X00402131Y04262068D01*
X00398870Y04259758D01*
X00395666Y04257371D01*
X00392521Y04254906D01*
X00389436Y04252367D01*
X00386413Y04249753D01*
X00383454Y04247068D01*
X00380561Y04244311D01*
X00377736Y04241486D01*
X00374979Y04238593D01*
X00372294Y04235634D01*
X00369680Y04232611D01*
X00367141Y04229526D01*
X00364676Y04226381D01*
X00362289Y04223177D01*
X00359979Y04219916D01*
X00357749Y04216600D01*
X00355600Y04213231D01*
X00353533Y04209812D01*
X00351549Y04206343D01*
X00349649Y04202828D01*
X00347835Y04199267D01*
X00346108Y04195664D01*
X00344468Y04192021D01*
X00342916Y04188338D01*
X00341454Y04184619D01*
X00340083Y04180866D01*
X00338802Y04177081D01*
X00337613Y04173266D01*
X00336517Y04169424D01*
X00335514Y04165556D01*
X00334605Y04161665D01*
X00333790Y04157753D01*
X00333069Y04153823D01*
X00332444Y04149876D01*
X00331915Y04145915D01*
X00331481Y04141943D01*
X00331143Y04137961D01*
X00330902Y04133973D01*
X00330757Y04129980D01*
X00330709Y04125984D01*
X00330709Y04086614D02*
X00330755Y04082809D01*
X00330893Y04079006D01*
X00331123Y04075207D01*
X00331444Y04071415D01*
X00331857Y04067632D01*
X00332362Y04063860D01*
X00332957Y04060101D01*
X00333643Y04056358D01*
X00334419Y04052632D01*
X00335285Y04048927D01*
X00336240Y04045243D01*
X00337284Y04041583D01*
X00338417Y04037950D01*
X00339636Y04034345D01*
X00340943Y04030771D01*
X00342335Y04027229D01*
X00343813Y04023722D01*
X00345374Y04020252D01*
X00347020Y04016820D01*
X00348747Y04013429D01*
X00350557Y04010081D01*
X00352446Y04006778D01*
X00354415Y04003521D01*
X00356462Y04000313D01*
X00358586Y03997155D01*
X00360785Y03994050D01*
X00363059Y03990998D01*
X00365406Y03988002D01*
X00367825Y03985064D01*
X00370314Y03982185D01*
X00372871Y03979368D01*
X00375496Y03976612D01*
X00378187Y03973921D01*
X00380943Y03971296D01*
X00383760Y03968739D01*
X00386639Y03966250D01*
X00389577Y03963831D01*
X00392573Y03961484D01*
X00395625Y03959210D01*
X00398730Y03957011D01*
X00401888Y03954887D01*
X00405096Y03952840D01*
X00408353Y03950871D01*
X00411656Y03948982D01*
X00415004Y03947172D01*
X00418395Y03945445D01*
X00421827Y03943799D01*
X00425297Y03942238D01*
X00428804Y03940760D01*
X00432346Y03939368D01*
X00435920Y03938061D01*
X00439525Y03936842D01*
X00443158Y03935709D01*
X00446818Y03934665D01*
X00450502Y03933710D01*
X00454207Y03932844D01*
X00457933Y03932068D01*
X00461676Y03931382D01*
X00465435Y03930787D01*
X00469207Y03930282D01*
X00472990Y03929869D01*
X00476782Y03929548D01*
X00480581Y03929318D01*
X00484384Y03929180D01*
X00488189Y03929134D01*
X00535433Y03929134D01*
X00539238Y03929180D01*
X00543041Y03929318D01*
X00546840Y03929548D01*
X00550632Y03929869D01*
X00554415Y03930282D01*
X00558187Y03930787D01*
X00561946Y03931382D01*
X00565689Y03932068D01*
X00569415Y03932844D01*
X00573120Y03933710D01*
X00576804Y03934665D01*
X00580464Y03935709D01*
X00584097Y03936842D01*
X00587702Y03938061D01*
X00591276Y03939368D01*
X00594818Y03940760D01*
X00598325Y03942238D01*
X00601795Y03943799D01*
X00605227Y03945445D01*
X00608618Y03947172D01*
X00611966Y03948982D01*
X00615269Y03950871D01*
X00618526Y03952840D01*
X00621734Y03954887D01*
X00624892Y03957011D01*
X00627997Y03959210D01*
X00631049Y03961484D01*
X00634045Y03963831D01*
X00636983Y03966250D01*
X00639862Y03968739D01*
X00642679Y03971296D01*
X00645435Y03973921D01*
X00648126Y03976612D01*
X00650751Y03979368D01*
X00653308Y03982185D01*
X00655797Y03985064D01*
X00658216Y03988002D01*
X00660563Y03990998D01*
X00662837Y03994050D01*
X00665036Y03997155D01*
X00667160Y04000313D01*
X00669207Y04003521D01*
X00671176Y04006778D01*
X00673065Y04010081D01*
X00674875Y04013429D01*
X00676602Y04016820D01*
X00678248Y04020252D01*
X00679809Y04023722D01*
X00681287Y04027229D01*
X00682679Y04030771D01*
X00683986Y04034345D01*
X00685205Y04037950D01*
X00686338Y04041583D01*
X00687382Y04045243D01*
X00688337Y04048927D01*
X00689203Y04052632D01*
X00689979Y04056358D01*
X00690665Y04060101D01*
X00691260Y04063860D01*
X00691765Y04067632D01*
X00692178Y04071415D01*
X00692499Y04075207D01*
X00692729Y04079006D01*
X00692867Y04082809D01*
X00692913Y04086614D01*
X00692913Y04125984D02*
X00692865Y04129980D01*
X00692720Y04133973D01*
X00692479Y04137961D01*
X00692141Y04141943D01*
X00691707Y04145915D01*
X00691178Y04149876D01*
X00690553Y04153823D01*
X00689832Y04157753D01*
X00689017Y04161665D01*
X00688108Y04165556D01*
X00687105Y04169424D01*
X00686009Y04173266D01*
X00684820Y04177081D01*
X00683539Y04180866D01*
X00682168Y04184619D01*
X00680706Y04188338D01*
X00679154Y04192021D01*
X00677514Y04195664D01*
X00675787Y04199267D01*
X00673973Y04202828D01*
X00672073Y04206343D01*
X00670089Y04209812D01*
X00668022Y04213231D01*
X00665873Y04216600D01*
X00663643Y04219916D01*
X00661333Y04223177D01*
X00658946Y04226381D01*
X00656481Y04229526D01*
X00653942Y04232611D01*
X00651328Y04235634D01*
X00648643Y04238593D01*
X00645886Y04241486D01*
X00643061Y04244311D01*
X00640168Y04247068D01*
X00637209Y04249753D01*
X00634186Y04252367D01*
X00631101Y04254906D01*
X00627956Y04257371D01*
X00624752Y04259758D01*
X00621491Y04262068D01*
X00618175Y04264298D01*
X00614806Y04266447D01*
X00611387Y04268514D01*
X00607918Y04270498D01*
X00604403Y04272398D01*
X00600842Y04274212D01*
X00597239Y04275939D01*
X00593596Y04277579D01*
X00589913Y04279131D01*
X00586194Y04280593D01*
X00582441Y04281964D01*
X00578656Y04283245D01*
X00574841Y04284434D01*
X00570999Y04285530D01*
X00567131Y04286533D01*
X00563240Y04287442D01*
X00559328Y04288257D01*
X00555398Y04288978D01*
X00551451Y04289603D01*
X00547490Y04290132D01*
X00543518Y04290566D01*
X00539536Y04290904D01*
X00535548Y04291145D01*
X00531555Y04291290D01*
X00527559Y04291338D01*
X08322835Y04086614D02*
X08322881Y04082809D01*
X08323019Y04079006D01*
X08323249Y04075207D01*
X08323570Y04071415D01*
X08323983Y04067632D01*
X08324488Y04063860D01*
X08325083Y04060101D01*
X08325769Y04056358D01*
X08326545Y04052632D01*
X08327411Y04048927D01*
X08328366Y04045243D01*
X08329410Y04041583D01*
X08330543Y04037950D01*
X08331762Y04034345D01*
X08333069Y04030771D01*
X08334461Y04027229D01*
X08335939Y04023722D01*
X08337500Y04020252D01*
X08339146Y04016820D01*
X08340873Y04013429D01*
X08342683Y04010081D01*
X08344572Y04006778D01*
X08346541Y04003521D01*
X08348588Y04000313D01*
X08350712Y03997155D01*
X08352911Y03994050D01*
X08355185Y03990998D01*
X08357532Y03988002D01*
X08359951Y03985064D01*
X08362440Y03982185D01*
X08364997Y03979368D01*
X08367622Y03976612D01*
X08370313Y03973921D01*
X08373069Y03971296D01*
X08375886Y03968739D01*
X08378765Y03966250D01*
X08381703Y03963831D01*
X08384699Y03961484D01*
X08387751Y03959210D01*
X08390856Y03957011D01*
X08394014Y03954887D01*
X08397222Y03952840D01*
X08400479Y03950871D01*
X08403782Y03948982D01*
X08407130Y03947172D01*
X08410521Y03945445D01*
X08413953Y03943799D01*
X08417423Y03942238D01*
X08420930Y03940760D01*
X08424472Y03939368D01*
X08428046Y03938061D01*
X08431651Y03936842D01*
X08435284Y03935709D01*
X08438944Y03934665D01*
X08442628Y03933710D01*
X08446333Y03932844D01*
X08450059Y03932068D01*
X08453802Y03931382D01*
X08457561Y03930787D01*
X08461333Y03930282D01*
X08465116Y03929869D01*
X08468908Y03929548D01*
X08472707Y03929318D01*
X08476510Y03929180D01*
X08480315Y03929134D01*
X08527559Y03929134D01*
X08531364Y03929180D01*
X08535167Y03929318D01*
X08538966Y03929548D01*
X08542758Y03929869D01*
X08546541Y03930282D01*
X08550313Y03930787D01*
X08554072Y03931382D01*
X08557815Y03932068D01*
X08561541Y03932844D01*
X08565246Y03933710D01*
X08568930Y03934665D01*
X08572590Y03935709D01*
X08576223Y03936842D01*
X08579828Y03938061D01*
X08583402Y03939368D01*
X08586944Y03940760D01*
X08590451Y03942238D01*
X08593921Y03943799D01*
X08597353Y03945445D01*
X08600744Y03947172D01*
X08604092Y03948982D01*
X08607395Y03950871D01*
X08610652Y03952840D01*
X08613860Y03954887D01*
X08617018Y03957011D01*
X08620123Y03959210D01*
X08623175Y03961484D01*
X08626171Y03963831D01*
X08629109Y03966250D01*
X08631988Y03968739D01*
X08634805Y03971296D01*
X08637561Y03973921D01*
X08640252Y03976612D01*
X08642877Y03979368D01*
X08645434Y03982185D01*
X08647923Y03985064D01*
X08650342Y03988002D01*
X08652689Y03990998D01*
X08654963Y03994050D01*
X08657162Y03997155D01*
X08659286Y04000313D01*
X08661333Y04003521D01*
X08663302Y04006778D01*
X08665191Y04010081D01*
X08667001Y04013429D01*
X08668728Y04016820D01*
X08670374Y04020252D01*
X08671935Y04023722D01*
X08673413Y04027229D01*
X08674805Y04030771D01*
X08676112Y04034345D01*
X08677331Y04037950D01*
X08678464Y04041583D01*
X08679508Y04045243D01*
X08680463Y04048927D01*
X08681329Y04052632D01*
X08682105Y04056358D01*
X08682791Y04060101D01*
X08683386Y04063860D01*
X08683891Y04067632D01*
X08684304Y04071415D01*
X08684625Y04075207D01*
X08684855Y04079006D01*
X08684993Y04082809D01*
X08685039Y04086614D01*
X08929134Y04086614D01*
X08929134Y08488189D01*
X08850394Y08566929D01*
X08795276Y08566929D01*
X08795276Y08527559D02*
X08834646Y08527559D01*
X08889764Y08472441D01*
X08889764Y04125984D01*
X08685039Y04125984D01*
X08684991Y04129980D01*
X08684846Y04133973D01*
X08684605Y04137961D01*
X08684267Y04141943D01*
X08683833Y04145915D01*
X08683304Y04149876D01*
X08682679Y04153823D01*
X08681958Y04157753D01*
X08681143Y04161665D01*
X08680234Y04165556D01*
X08679231Y04169424D01*
X08678135Y04173266D01*
X08676946Y04177081D01*
X08675665Y04180866D01*
X08674294Y04184619D01*
X08672832Y04188338D01*
X08671280Y04192021D01*
X08669640Y04195664D01*
X08667913Y04199267D01*
X08666099Y04202828D01*
X08664199Y04206343D01*
X08662215Y04209812D01*
X08660148Y04213231D01*
X08657999Y04216600D01*
X08655769Y04219916D01*
X08653459Y04223177D01*
X08651072Y04226381D01*
X08648607Y04229526D01*
X08646068Y04232611D01*
X08643454Y04235634D01*
X08640769Y04238593D01*
X08638012Y04241486D01*
X08635187Y04244311D01*
X08632294Y04247068D01*
X08629335Y04249753D01*
X08626312Y04252367D01*
X08623227Y04254906D01*
X08620082Y04257371D01*
X08616878Y04259758D01*
X08613617Y04262068D01*
X08610301Y04264298D01*
X08606932Y04266447D01*
X08603513Y04268514D01*
X08600044Y04270498D01*
X08596529Y04272398D01*
X08592968Y04274212D01*
X08589365Y04275939D01*
X08585722Y04277579D01*
X08582039Y04279131D01*
X08578320Y04280593D01*
X08574567Y04281964D01*
X08570782Y04283245D01*
X08566967Y04284434D01*
X08563125Y04285530D01*
X08559257Y04286533D01*
X08555366Y04287442D01*
X08551454Y04288257D01*
X08547524Y04288978D01*
X08543577Y04289603D01*
X08539616Y04290132D01*
X08535644Y04290566D01*
X08531662Y04290904D01*
X08527674Y04291145D01*
X08523681Y04291290D01*
X08519685Y04291338D01*
X08519685Y04291339D02*
X08488189Y04291339D01*
X08488189Y04291338D02*
X08484193Y04291290D01*
X08480200Y04291145D01*
X08476212Y04290904D01*
X08472230Y04290566D01*
X08468258Y04290132D01*
X08464297Y04289603D01*
X08460350Y04288978D01*
X08456420Y04288257D01*
X08452508Y04287442D01*
X08448617Y04286533D01*
X08444749Y04285530D01*
X08440907Y04284434D01*
X08437092Y04283245D01*
X08433307Y04281964D01*
X08429554Y04280593D01*
X08425835Y04279131D01*
X08422152Y04277579D01*
X08418509Y04275939D01*
X08414906Y04274212D01*
X08411345Y04272398D01*
X08407830Y04270498D01*
X08404361Y04268514D01*
X08400942Y04266447D01*
X08397573Y04264298D01*
X08394257Y04262068D01*
X08390996Y04259758D01*
X08387792Y04257371D01*
X08384647Y04254906D01*
X08381562Y04252367D01*
X08378539Y04249753D01*
X08375580Y04247068D01*
X08372687Y04244311D01*
X08369862Y04241486D01*
X08367105Y04238593D01*
X08364420Y04235634D01*
X08361806Y04232611D01*
X08359267Y04229526D01*
X08356802Y04226381D01*
X08354415Y04223177D01*
X08352105Y04219916D01*
X08349875Y04216600D01*
X08347726Y04213231D01*
X08345659Y04209812D01*
X08343675Y04206343D01*
X08341775Y04202828D01*
X08339961Y04199267D01*
X08338234Y04195664D01*
X08336594Y04192021D01*
X08335042Y04188338D01*
X08333580Y04184619D01*
X08332209Y04180866D01*
X08330928Y04177081D01*
X08329739Y04173266D01*
X08328643Y04169424D01*
X08327640Y04165556D01*
X08326731Y04161665D01*
X08325916Y04157753D01*
X08325195Y04153823D01*
X08324570Y04149876D01*
X08324041Y04145915D01*
X08323607Y04141943D01*
X08323269Y04137961D01*
X08323028Y04133973D01*
X08322883Y04129980D01*
X08322835Y04125984D01*
D17*
X08283465Y04165354D02*
X07913386Y04165354D01*
X07913386Y04952756D01*
X07874016Y04952756D01*
X07874016Y04165354D01*
X07834646Y04165354D01*
X07834646Y05236220D01*
X07795276Y05236220D01*
X07795276Y04165354D01*
X07755906Y04165354D01*
X07755906Y05236220D01*
X07716535Y05236220D01*
X07716535Y04165354D01*
X07677165Y04165354D01*
X07677165Y05677165D01*
X07637795Y05677165D01*
X07637795Y04165354D01*
X07598425Y04165354D01*
X07598425Y05677165D01*
X07559055Y05677165D01*
X07559055Y04165354D01*
X07519685Y04165354D01*
X07519685Y06094488D01*
X07480315Y06094488D01*
X07480315Y04165354D01*
X07440945Y04165354D01*
X07440945Y06094488D01*
X07401575Y06094488D01*
X07401575Y04165354D01*
X07362205Y04165354D01*
X07362205Y06314961D01*
X07322835Y06314961D01*
X07322835Y04165354D01*
X07283465Y04165354D01*
X07283465Y06440945D01*
X07244094Y06440945D01*
X07244094Y04165354D01*
X07204724Y04165354D01*
X07204724Y06448819D01*
X07165354Y06448819D01*
X07165354Y04165354D01*
X07125984Y04165354D01*
X07125984Y06448819D01*
X07086614Y06448819D01*
X07086614Y04165354D01*
X07047244Y04165354D01*
X07047244Y06669291D01*
X07007874Y06669291D01*
X07007874Y04165354D01*
X06968504Y04165354D01*
X06968504Y06811024D01*
X06929134Y06811024D01*
X06929134Y04165354D01*
X06889764Y04165354D01*
X06889764Y06811024D01*
X06850394Y06811024D01*
X06850394Y04535433D01*
X06811024Y04535433D01*
X06811024Y06811024D01*
X06771654Y06811024D01*
X06771654Y04897638D01*
X06732283Y04897638D01*
X06732283Y07023622D01*
X06692913Y07023622D01*
X06692913Y05118110D01*
X06653543Y05118110D01*
X06653543Y07031496D01*
X06614173Y07031496D01*
X06614173Y05291339D01*
X06574803Y05291339D01*
X06574803Y07102362D01*
X06535433Y07102362D01*
X06535433Y05448819D01*
X06496063Y05448819D01*
X06496063Y07157480D01*
X06456693Y07157480D01*
X06456693Y05582677D01*
X06417323Y05582677D01*
X06417323Y07275591D01*
X06377953Y07275591D01*
X06377953Y05692913D01*
X06338583Y05692913D01*
X06338583Y07275591D01*
X06299213Y07275591D01*
X06299213Y05803150D01*
X06259843Y05803150D01*
X06259843Y07330709D01*
X06220472Y07330709D01*
X06220472Y05897638D01*
X06181102Y05897638D01*
X06181102Y07433071D01*
X06141732Y07433071D01*
X06141732Y05976378D01*
X06102362Y05976378D01*
X06102362Y07433071D01*
X06062992Y07433071D01*
X06062992Y06055118D01*
X06023622Y06055118D01*
X06023622Y07464567D01*
X05984252Y07464567D01*
X05984252Y06133858D01*
X05944882Y06133858D01*
X05944882Y07519685D01*
X05905512Y07519685D01*
X05905512Y06204724D01*
X05866142Y06204724D01*
X05866142Y07598425D01*
X05826772Y07598425D01*
X05826772Y06267717D01*
X05787402Y06267717D01*
X05787402Y07598425D01*
X05748031Y07598425D01*
X05748031Y06322835D01*
X05708661Y06322835D01*
X05708661Y07629921D01*
X05669291Y07629921D01*
X05669291Y06377953D01*
X05629921Y06377953D01*
X05629921Y07692913D01*
X05590551Y07692913D01*
X05590551Y06425197D01*
X05551181Y06425197D01*
X05551181Y07700787D01*
X05511811Y07700787D01*
X05511811Y06472441D01*
X05472441Y06472441D01*
X05472441Y07732283D01*
X05433071Y07732283D01*
X05433071Y06511811D01*
X05393701Y06511811D01*
X05393701Y07763780D01*
X05354331Y07763780D01*
X05354331Y06551181D01*
X05314961Y06551181D01*
X05314961Y07818898D01*
X05275591Y07818898D01*
X05275591Y06590551D01*
X05236220Y06590551D01*
X05236220Y07818898D01*
X05196850Y07818898D01*
X05196850Y06622047D01*
X05157480Y06622047D01*
X05157480Y07842520D01*
X05118110Y07842520D01*
X05118110Y06653543D01*
X05078740Y06653543D01*
X05078740Y07874016D01*
X05039370Y07874016D01*
X05039370Y06685039D01*
X05000000Y06685039D01*
X05000000Y07881890D01*
X04960630Y07881890D01*
X04960630Y06708661D01*
X04921260Y06708661D01*
X04921260Y07905512D01*
X04881890Y07905512D01*
X04881890Y06732283D01*
X04842520Y06732283D01*
X04842520Y07913386D01*
X04803150Y07913386D01*
X04803150Y06748031D01*
X04763780Y06748031D01*
X04763780Y07913386D01*
X04724409Y07913386D01*
X04724409Y06771654D01*
X04685039Y06771654D01*
X04685039Y07850394D01*
X04645669Y07803150D01*
X04645669Y06787402D01*
X04606299Y06787402D01*
X04606299Y07787402D01*
X04566929Y07779528D01*
X04566929Y06803150D01*
X04527559Y06803150D01*
X04527559Y07779528D01*
X04488189Y07779528D01*
X04488189Y06811024D01*
X04448819Y06811024D01*
X04448819Y07795276D01*
X04409449Y07818898D01*
X04409449Y06818898D01*
X04370079Y06818898D01*
X04370079Y07842520D01*
X04330709Y07842520D01*
X04330709Y06826772D01*
X04291339Y06826772D01*
X04291339Y07842520D01*
X04251969Y07842520D01*
X04251969Y06834646D01*
X04212598Y06834646D01*
X04212598Y07881890D01*
X04362205Y07881890D01*
X04346457Y07921260D01*
X04212598Y07921260D01*
X04212598Y07960630D01*
X04346457Y07960630D01*
X04346457Y08000000D01*
X04173228Y08000000D01*
X04173228Y06834646D01*
X04133858Y06834646D01*
X04133858Y08000000D01*
X04094488Y08000000D01*
X04094488Y06834646D01*
X04055118Y06834646D01*
X04055118Y08000000D01*
X04015748Y08000000D01*
X04015748Y06826772D01*
X03976378Y06826772D01*
X03976378Y07992126D01*
X03937008Y07992126D01*
X03937008Y06826772D01*
X03897638Y06826772D01*
X03897638Y07984252D01*
X03858268Y07984252D01*
X03858268Y06818898D01*
X03818898Y06818898D01*
X03818898Y07976378D01*
X03779528Y07976378D01*
X03779528Y06811024D01*
X03740157Y06811024D01*
X03740157Y07976378D01*
X03700787Y07976378D01*
X03700787Y06803150D01*
X03661417Y06803150D01*
X03661417Y07937008D01*
X03622047Y07937008D01*
X03622047Y06787402D01*
X03582677Y06787402D01*
X03582677Y07937008D01*
X03543307Y07937008D01*
X03543307Y06771654D01*
X03503937Y06771654D01*
X03503937Y07937008D01*
X03464567Y07937008D01*
X03464567Y06755906D01*
X03425197Y06755906D01*
X03425197Y07929134D01*
X03385827Y07929134D01*
X03385827Y06740157D01*
X03346457Y06740157D01*
X03346457Y07889764D01*
X03307087Y07889764D01*
X03307087Y06716535D01*
X03267717Y06716535D01*
X03267717Y07889764D01*
X03228346Y07889764D01*
X03228346Y06692913D01*
X03188976Y06692913D01*
X03188976Y07889764D01*
X03149606Y07889764D01*
X03149606Y06661417D01*
X03110236Y06661417D01*
X03110236Y07779528D01*
X03070866Y07779528D01*
X03070866Y06629921D01*
X03031496Y06629921D01*
X03031496Y07779528D01*
X02992126Y07779528D01*
X02992126Y06598425D01*
X02952756Y06598425D01*
X02952756Y07779528D01*
X02913386Y07779528D01*
X02913386Y06559055D01*
X02874016Y06559055D01*
X02874016Y07771654D01*
X02834646Y07771654D01*
X02834646Y06519685D01*
X02795276Y06519685D01*
X02795276Y07700787D01*
X02755906Y07700787D01*
X02755906Y06472441D01*
X02716535Y06472441D01*
X02716535Y07700787D01*
X02677165Y07700787D01*
X02677165Y06425197D01*
X02637795Y06425197D01*
X02637795Y07700787D01*
X02598425Y07700787D01*
X02598425Y06377953D01*
X02559055Y06377953D01*
X02559055Y07551181D01*
X02519685Y07551181D01*
X02519685Y06322835D01*
X02480315Y06322835D01*
X02480315Y07551181D01*
X02440945Y07551181D01*
X02440945Y06267717D01*
X02401575Y06267717D01*
X02401575Y07551181D01*
X02362205Y07551181D01*
X02362205Y06204724D01*
X02322835Y06204724D01*
X02322835Y07551181D01*
X02283465Y07551181D01*
X02283465Y06133858D01*
X02244094Y06133858D01*
X02244094Y07503937D01*
X02204724Y07503937D01*
X02204724Y06062992D01*
X02165354Y06062992D01*
X02165354Y07503937D01*
X02125984Y07503937D01*
X02125984Y05976378D01*
X02086614Y05976378D01*
X02086614Y07503937D01*
X02047244Y07503937D01*
X02047244Y05897638D01*
X02007874Y05897638D01*
X02007874Y07330709D01*
X01968504Y07330709D01*
X01968504Y05803150D01*
X01929134Y05803150D01*
X01929134Y07220472D01*
X01889764Y07220472D01*
X01889764Y05692913D01*
X01850394Y05692913D01*
X01850394Y07212598D01*
X01811024Y07212598D01*
X01811024Y05582677D01*
X01771654Y05582677D01*
X01771654Y07196850D01*
X01732283Y07196850D01*
X01732283Y05448819D01*
X01692913Y05448819D01*
X01692913Y07031496D01*
X01653543Y07031496D01*
X01653543Y05291339D01*
X01614173Y05291339D01*
X01614173Y07031496D01*
X01574803Y07031496D01*
X01574803Y05118110D01*
X01535433Y05118110D01*
X01535433Y07031496D01*
X01496063Y07031496D01*
X01496063Y04897638D01*
X01456693Y04897638D01*
X01456693Y06724409D01*
X01417323Y06724409D01*
X01417323Y04566929D01*
X01377953Y04566929D01*
X01377953Y06724409D01*
X01338583Y06724409D01*
X01338583Y04165354D01*
X01299213Y04165354D01*
X01299213Y06724409D01*
X01259843Y06724409D01*
X01259843Y04165354D01*
X01220472Y04165354D01*
X01220472Y06724409D01*
X01181102Y06724409D01*
X01181102Y04165354D01*
X01141732Y04165354D01*
X01141732Y06338583D01*
X01102362Y06338583D01*
X01102362Y04165354D01*
X01062992Y04165354D01*
X01062992Y06338583D01*
X01023622Y06338583D01*
X01023622Y04165354D01*
X00984252Y04165354D01*
X00984252Y06338583D01*
X00944882Y06338583D01*
X00944882Y04165354D01*
X00905512Y04165354D01*
X00905512Y05960630D01*
X00866142Y05960630D01*
X00866142Y04165354D01*
X00826772Y04165354D01*
X00826772Y05960630D01*
X00787402Y05960630D01*
X00787402Y04165354D01*
X00748031Y04165354D01*
X00748031Y05960630D01*
X00708661Y05960630D01*
X00708661Y04228346D01*
X00669291Y04275591D01*
X00669291Y05960630D01*
X00629921Y05960630D01*
X00629921Y04307087D01*
X00590551Y04322835D01*
X00590551Y05685039D01*
X00551181Y05685039D01*
X00551181Y04330709D01*
X00511811Y04330709D01*
X00511811Y05464567D01*
X00472441Y05464567D01*
X00472441Y04330709D01*
X00433071Y04322835D01*
X00433071Y05464567D01*
X00393701Y05464567D01*
X00393701Y04307087D01*
X00354331Y04275591D01*
X00354331Y04976378D01*
X00314961Y04976378D01*
X00314961Y04212598D01*
X00267717Y04165354D01*
X-00740157Y04165354D01*
X-00740157Y08496063D01*
X-00858268Y08496063D02*
X-00858268Y04047244D01*
X00267717Y04047244D01*
X00314961Y04000000D01*
X00314961Y03236220D01*
X00354331Y03236220D01*
X00354331Y03937008D01*
X00393701Y03905512D01*
X00393701Y02748031D01*
X00433071Y02748031D01*
X00433071Y03897638D01*
X00472441Y03889764D01*
X00472441Y02748031D01*
X00511811Y02748031D01*
X00511811Y03889764D01*
X00551181Y03889764D01*
X00551181Y02527559D01*
X00590551Y02527559D01*
X00590551Y03897638D01*
X00629921Y03913386D01*
X00629921Y02251969D01*
X00669291Y02251969D01*
X00669291Y03937008D01*
X00708661Y03984252D01*
X00708661Y02251969D01*
X00748031Y02251969D01*
X00748031Y04047244D01*
X00787402Y04047244D01*
X00787402Y02251969D01*
X00826772Y02251969D01*
X00826772Y04047244D01*
X00866142Y04047244D01*
X00866142Y02251969D01*
X00905512Y02251969D01*
X00905512Y04047244D01*
X00944882Y04047244D01*
X00944882Y01874016D01*
X00984252Y01874016D01*
X00984252Y04047244D01*
X01023622Y04047244D01*
X01023622Y01874016D01*
X01062992Y01874016D01*
X01062992Y04047244D01*
X01102362Y04047244D01*
X01102362Y01874016D01*
X01141732Y01874016D01*
X01141732Y04047244D01*
X01181102Y04047244D01*
X01181102Y01488189D01*
X01220472Y01488189D01*
X01220472Y04047244D01*
X01259843Y04047244D01*
X01259843Y01488189D01*
X01299213Y01488189D01*
X01299213Y04047244D01*
X01338583Y04047244D01*
X01338583Y01488189D01*
X01377953Y01488189D01*
X01377953Y03677165D01*
X01417323Y03677165D01*
X01417323Y01488189D01*
X01456693Y01488189D01*
X01456693Y03314961D01*
X01496063Y03314961D01*
X01496063Y01181102D01*
X01535433Y01181102D01*
X01535433Y03094488D01*
X01574803Y03094488D01*
X01574803Y01181102D01*
X01614173Y01181102D01*
X01614173Y02921260D01*
X01653543Y02921260D01*
X01653543Y01181102D01*
X01692913Y01181102D01*
X01692913Y02763780D01*
X01732283Y02763780D01*
X01732283Y01015748D01*
X01771654Y01015748D01*
X01771654Y02629921D01*
X01811024Y02629921D01*
X01811024Y01000000D01*
X01850394Y01000000D01*
X01850394Y02519685D01*
X01889764Y02519685D01*
X01889764Y00992126D01*
X01929134Y00992126D01*
X01929134Y02409449D01*
X01968504Y02409449D01*
X01968504Y00881890D01*
X02007874Y00881890D01*
X02007874Y02314961D01*
X02047244Y02314961D01*
X02047244Y00708661D01*
X02086614Y00708661D01*
X02086614Y02236220D01*
X02125984Y02236220D01*
X02125984Y00708661D01*
X02165354Y00708661D01*
X02165354Y02157480D01*
X02204724Y02157480D01*
X02204724Y00708661D01*
X02244094Y00708661D01*
X02244094Y02078740D01*
X02283465Y02078740D01*
X02283465Y00661417D01*
X02322835Y00661417D01*
X02322835Y02007874D01*
X02362205Y02007874D01*
X02362205Y00661417D01*
X02401575Y00661417D01*
X02401575Y01944882D01*
X02440945Y01944882D01*
X02440945Y00661417D01*
X02480315Y00661417D01*
X02480315Y01889764D01*
X02519685Y01889764D01*
X02519685Y00661417D01*
X02559055Y00661417D01*
X02559055Y01834646D01*
X02598425Y01834646D01*
X02598425Y00511811D01*
X02637795Y00511811D01*
X02637795Y01787402D01*
X02677165Y01787402D01*
X02677165Y00511811D01*
X02716535Y00511811D01*
X02716535Y01740157D01*
X02755906Y01740157D01*
X02755906Y00511811D01*
X02795276Y00511811D01*
X02795276Y01700787D01*
X02834646Y01700787D01*
X02834646Y00440945D01*
X02874016Y00440945D01*
X02874016Y01661417D01*
X02913386Y01661417D01*
X02913386Y00433071D01*
X02952756Y00433071D01*
X02952756Y01622047D01*
X02992126Y01622047D01*
X02992126Y00433071D01*
X03031496Y00433071D01*
X03031496Y01590551D01*
X03070866Y01590551D01*
X03070866Y00433071D01*
X03110236Y00433071D01*
X03110236Y01559055D01*
X03149606Y01559055D01*
X03149606Y00322835D01*
X03188976Y00322835D01*
X03188976Y01527559D01*
X03228346Y01527559D01*
X03228346Y00322835D01*
X03267717Y00322835D01*
X03267717Y01503937D01*
X03307087Y01503937D01*
X03307087Y00322835D01*
X03346457Y00322835D01*
X03346457Y01480315D01*
X03385827Y01480315D01*
X03385827Y00283465D01*
X03425197Y00283465D01*
X03425197Y01464567D01*
X03464567Y01464567D01*
X03464567Y00275591D01*
X03503937Y00275591D01*
X03503937Y01440945D01*
X03543307Y01440945D01*
X03543307Y00275591D01*
X03582677Y00275591D01*
X03582677Y01425197D01*
X03622047Y01425197D01*
X03622047Y00275591D01*
X03661417Y00275591D01*
X03661417Y01409449D01*
X03700787Y01409449D01*
X03700787Y00236220D01*
X03740157Y00236220D01*
X03740157Y01401575D01*
X03779528Y01401575D01*
X03779528Y00236220D01*
X03818898Y00236220D01*
X03818898Y01393701D01*
X03858268Y01393701D01*
X03858268Y00228346D01*
X03897638Y00228346D01*
X03897638Y01385827D01*
X03937008Y01385827D01*
X03937008Y00220472D01*
X03976378Y00220472D01*
X03976378Y01377953D01*
X04015748Y01377953D01*
X04015748Y00212598D01*
X04055118Y00212598D01*
X04055118Y01377953D01*
X04094488Y01377953D01*
X04094488Y00212598D01*
X04133858Y00212598D01*
X04133858Y01377953D01*
X04173228Y01377953D01*
X04173228Y00212598D01*
X04346457Y00212598D01*
X04346457Y00251969D01*
X04212598Y00251969D01*
X04212598Y00291339D01*
X04346457Y00291339D01*
X04362205Y00330709D01*
X04212598Y00330709D01*
X04212598Y00346457D01*
X04212598Y01385827D01*
X04251969Y01385827D01*
X04251969Y00370079D01*
X04291339Y00370079D01*
X04291339Y01385827D01*
X04330709Y01385827D01*
X04330709Y00370079D01*
X04370079Y00370079D01*
X04370079Y01393701D01*
X04409449Y01393701D01*
X04409449Y00393701D01*
X04448819Y00417323D01*
X04448819Y01401575D01*
X04488189Y01401575D01*
X04488189Y00433071D01*
X04527559Y00433071D01*
X04527559Y01409449D01*
X04566929Y01409449D01*
X04566929Y00433071D01*
X04606299Y00425197D01*
X04606299Y01425197D01*
X04645669Y01425197D01*
X04645669Y00409449D01*
X04685039Y00362205D01*
X04685039Y01440945D01*
X04724409Y01440945D01*
X04724409Y00299213D01*
X04763780Y00299213D01*
X04763780Y01456693D01*
X04803150Y01456693D01*
X04803150Y00299213D01*
X04842520Y00299213D01*
X04842520Y01472441D01*
X04881890Y01472441D01*
X04881890Y00307087D01*
X04921260Y00307087D01*
X04921260Y01496063D01*
X04960630Y01496063D01*
X04960630Y00330709D01*
X05000000Y00330709D01*
X05000000Y01519685D01*
X05039370Y01519685D01*
X05039370Y00338583D01*
X05078740Y00338583D01*
X05078740Y01551181D01*
X05118110Y01551181D01*
X05118110Y00370079D01*
X05157480Y00370079D01*
X05157480Y01582677D01*
X05196850Y01582677D01*
X05196850Y00393701D01*
X05236220Y00393701D01*
X05236220Y01614173D01*
X05275591Y01614173D01*
X05275591Y00393701D01*
X05314961Y00393701D01*
X05314961Y01653543D01*
X05354331Y01653543D01*
X05354331Y00448819D01*
X05393701Y00448819D01*
X05393701Y01692913D01*
X05433071Y01692913D01*
X05433071Y00480315D01*
X05472441Y00480315D01*
X05472441Y01740157D01*
X05511811Y01740157D01*
X05511811Y00511811D01*
X05551181Y00511811D01*
X05551181Y01787402D01*
X05590551Y01787402D01*
X05590551Y00519685D01*
X05629921Y00519685D01*
X05629921Y01834646D01*
X05669291Y01834646D01*
X05669291Y00582677D01*
X05708661Y00582677D01*
X05708661Y01889764D01*
X05748031Y01889764D01*
X05748031Y00614173D01*
X05787402Y00614173D01*
X05787402Y01944882D01*
X05826772Y01944882D01*
X05826772Y00614173D01*
X05866142Y00614173D01*
X05866142Y02015748D01*
X05905512Y02015748D01*
X05905512Y00692913D01*
X05944882Y00692913D01*
X05944882Y02078740D01*
X05984252Y02078740D01*
X05984252Y00748031D01*
X06023622Y00748031D01*
X06023622Y02149606D01*
X06062992Y02149606D01*
X06062992Y00779528D01*
X06102362Y00779528D01*
X06102362Y02236220D01*
X06141732Y02236220D01*
X06141732Y00779528D01*
X06181102Y00779528D01*
X06181102Y02322835D01*
X06220472Y02322835D01*
X06220472Y00881890D01*
X06259843Y00881890D01*
X06259843Y02417323D01*
X06299213Y02417323D01*
X06299213Y00937008D01*
X06338583Y00937008D01*
X06338583Y02519685D01*
X06377953Y02519685D01*
X06377953Y00937008D01*
X06417323Y00937008D01*
X06417323Y02637795D01*
X06456693Y02637795D01*
X06456693Y01055118D01*
X06496063Y01055118D01*
X06496063Y02771654D01*
X06535433Y02771654D01*
X06535433Y01110236D01*
X06574803Y01110236D01*
X06574803Y02921260D01*
X06614173Y02921260D01*
X06614173Y01181102D01*
X06653543Y01181102D01*
X06653543Y03094488D01*
X06692913Y03094488D01*
X06692913Y01188976D01*
X06732283Y01188976D01*
X06732283Y03314961D01*
X06771654Y03314961D01*
X06771654Y01401575D01*
X06811024Y01401575D01*
X06811024Y03645669D01*
X06850394Y03645669D01*
X06850394Y01401575D01*
X06889764Y01401575D01*
X06889764Y04047244D01*
X06929134Y04047244D01*
X06929134Y01401575D01*
X06968504Y01401575D01*
X06968504Y04047244D01*
X07007874Y04047244D01*
X07007874Y01543307D01*
X07047244Y01543307D01*
X07047244Y04047244D01*
X07086614Y04047244D01*
X07086614Y01763780D01*
X07125984Y01763780D01*
X07125984Y04047244D01*
X07165354Y04047244D01*
X07165354Y01763780D01*
X07204724Y01763780D01*
X07204724Y04047244D01*
X07244094Y04047244D01*
X07244094Y01771654D01*
X07283465Y01771654D01*
X07283465Y04047244D01*
X07322835Y04047244D01*
X07322835Y01897638D01*
X07362205Y01897638D01*
X07362205Y04047244D01*
X07401575Y04047244D01*
X07401575Y02118110D01*
X07440945Y02118110D01*
X07440945Y04047244D01*
X07480315Y04047244D01*
X07480315Y02118110D01*
X07519685Y02118110D01*
X07519685Y04047244D01*
X07559055Y04047244D01*
X07559055Y02535433D01*
X07598425Y02535433D01*
X07598425Y04047244D01*
X07637795Y04047244D01*
X07637795Y02535433D01*
X07677165Y02535433D01*
X07677165Y04047244D01*
X07716535Y04047244D01*
X07716535Y02976378D01*
X07755906Y02976378D01*
X07755906Y04047244D01*
X07795276Y04047244D01*
X07795276Y02976378D01*
X07834646Y02976378D01*
X07834646Y04047244D01*
X07874016Y04047244D01*
X07874016Y03259843D01*
X07913386Y03259843D01*
X07913386Y04047244D01*
X08283465Y04047244D01*
X08283511Y04043439D01*
X08283649Y04039636D01*
X08283879Y04035837D01*
X08284200Y04032045D01*
X08284613Y04028262D01*
X08285118Y04024490D01*
X08285713Y04020731D01*
X08286399Y04016988D01*
X08287175Y04013262D01*
X08288041Y04009557D01*
X08288996Y04005873D01*
X08290040Y04002213D01*
X08291173Y03998580D01*
X08292392Y03994975D01*
X08293699Y03991401D01*
X08295091Y03987859D01*
X08296569Y03984352D01*
X08298130Y03980882D01*
X08299776Y03977450D01*
X08301503Y03974059D01*
X08303313Y03970711D01*
X08305202Y03967408D01*
X08307171Y03964151D01*
X08309218Y03960943D01*
X08311342Y03957785D01*
X08313541Y03954680D01*
X08315815Y03951628D01*
X08318162Y03948632D01*
X08320581Y03945694D01*
X08323070Y03942815D01*
X08325627Y03939998D01*
X08328252Y03937242D01*
X08330943Y03934551D01*
X08333699Y03931926D01*
X08336516Y03929369D01*
X08339395Y03926880D01*
X08342333Y03924461D01*
X08345329Y03922114D01*
X08348381Y03919840D01*
X08351486Y03917641D01*
X08354644Y03915517D01*
X08357852Y03913470D01*
X08361109Y03911501D01*
X08364412Y03909612D01*
X08367760Y03907802D01*
X08371151Y03906075D01*
X08374583Y03904429D01*
X08378053Y03902868D01*
X08381560Y03901390D01*
X08385102Y03899998D01*
X08388676Y03898691D01*
X08392281Y03897472D01*
X08395914Y03896339D01*
X08399574Y03895295D01*
X08403258Y03894340D01*
X08406963Y03893474D01*
X08410689Y03892698D01*
X08414432Y03892012D01*
X08418191Y03891417D01*
X08421963Y03890912D01*
X08425746Y03890499D01*
X08429538Y03890178D01*
X08433337Y03889948D01*
X08437140Y03889810D01*
X08440945Y03889764D01*
X08566929Y03889764D01*
X08570734Y03889810D01*
X08574537Y03889948D01*
X08578336Y03890178D01*
X08582128Y03890499D01*
X08585911Y03890912D01*
X08589683Y03891417D01*
X08593442Y03892012D01*
X08597185Y03892698D01*
X08600911Y03893474D01*
X08604616Y03894340D01*
X08608300Y03895295D01*
X08611960Y03896339D01*
X08615593Y03897472D01*
X08619198Y03898691D01*
X08622772Y03899998D01*
X08626314Y03901390D01*
X08629821Y03902868D01*
X08633291Y03904429D01*
X08636723Y03906075D01*
X08640114Y03907802D01*
X08643462Y03909612D01*
X08646765Y03911501D01*
X08650022Y03913470D01*
X08653230Y03915517D01*
X08656388Y03917641D01*
X08659493Y03919840D01*
X08662545Y03922114D01*
X08665541Y03924461D01*
X08668479Y03926880D01*
X08671358Y03929369D01*
X08674175Y03931926D01*
X08676931Y03934551D01*
X08679622Y03937242D01*
X08682247Y03939998D01*
X08684804Y03942815D01*
X08687293Y03945694D01*
X08689712Y03948632D01*
X08692059Y03951628D01*
X08694333Y03954680D01*
X08696532Y03957785D01*
X08698656Y03960943D01*
X08700703Y03964151D01*
X08702672Y03967408D01*
X08704561Y03970711D01*
X08706371Y03974059D01*
X08708098Y03977450D01*
X08709744Y03980882D01*
X08711305Y03984352D01*
X08712783Y03987859D01*
X08714175Y03991401D01*
X08715482Y03994975D01*
X08716701Y03998580D01*
X08717834Y04002213D01*
X08718878Y04005873D01*
X08719833Y04009557D01*
X08720699Y04013262D01*
X08721475Y04016988D01*
X08722161Y04020731D01*
X08722756Y04024490D01*
X08723261Y04028262D01*
X08723674Y04032045D01*
X08723995Y04035837D01*
X08724225Y04039636D01*
X08724363Y04043439D01*
X08724409Y04047244D01*
X08968504Y04047244D01*
X08968504Y08503937D01*
X08866142Y08606299D01*
X08795276Y08606299D01*
X08795276Y08488189D02*
X08818898Y08488189D01*
X08850394Y08456693D01*
X08850394Y04165354D01*
X08724409Y04165354D01*
X08724457Y04169256D01*
X08724411Y04173157D01*
X08724270Y04177057D01*
X08724035Y04180951D01*
X08723707Y04184839D01*
X08723284Y04188718D01*
X08722768Y04192586D01*
X08722158Y04196440D01*
X08721456Y04200278D01*
X08720661Y04204098D01*
X08719774Y04207898D01*
X08718795Y04211675D01*
X08717725Y04215427D01*
X08716565Y04219153D01*
X08715316Y04222849D01*
X08713977Y04226514D01*
X08712550Y04230146D01*
X08711036Y04233742D01*
X08709435Y04237300D01*
X08707749Y04240819D01*
X08705979Y04244296D01*
X08704124Y04247729D01*
X08702188Y04251117D01*
X08700170Y04254456D01*
X08698072Y04257746D01*
X08695895Y04260984D01*
X08693641Y04264169D01*
X08691310Y04267298D01*
X08688904Y04270370D01*
X08686425Y04273383D01*
X08683874Y04276336D01*
X08681252Y04279225D01*
X08678561Y04282051D01*
X08675802Y04284810D01*
X08672978Y04287503D01*
X08670090Y04290126D01*
X08667139Y04292678D01*
X08664127Y04295159D01*
X08661056Y04297566D01*
X08657927Y04299898D01*
X08654744Y04302154D01*
X08651506Y04304332D01*
X08648218Y04306432D01*
X08644879Y04308451D01*
X08641492Y04310389D01*
X08638060Y04312245D01*
X08634584Y04314017D01*
X08631066Y04315705D01*
X08627508Y04317307D01*
X08623912Y04318822D01*
X08620281Y04320251D01*
X08616617Y04321591D01*
X08612921Y04322842D01*
X08609196Y04324004D01*
X08605444Y04325075D01*
X08601667Y04326056D01*
X08597868Y04326944D01*
X08594048Y04327741D01*
X08590211Y04328445D01*
X08586357Y04329057D01*
X08582490Y04329574D01*
X08578611Y04329999D01*
X08574723Y04330329D01*
X08570828Y04330566D01*
X08566929Y04330708D01*
X08566929Y04330709D02*
X08440945Y04330709D01*
X08440945Y04330708D02*
X08437046Y04330566D01*
X08433151Y04330329D01*
X08429263Y04329999D01*
X08425384Y04329574D01*
X08421517Y04329057D01*
X08417663Y04328445D01*
X08413826Y04327741D01*
X08410006Y04326944D01*
X08406207Y04326056D01*
X08402430Y04325075D01*
X08398678Y04324004D01*
X08394953Y04322842D01*
X08391257Y04321591D01*
X08387593Y04320251D01*
X08383962Y04318822D01*
X08380366Y04317307D01*
X08376808Y04315705D01*
X08373290Y04314017D01*
X08369814Y04312245D01*
X08366382Y04310389D01*
X08362995Y04308451D01*
X08359656Y04306432D01*
X08356368Y04304332D01*
X08353130Y04302154D01*
X08349947Y04299898D01*
X08346818Y04297566D01*
X08343747Y04295159D01*
X08340735Y04292678D01*
X08337784Y04290126D01*
X08334896Y04287503D01*
X08332072Y04284810D01*
X08329313Y04282051D01*
X08326622Y04279225D01*
X08324000Y04276336D01*
X08321449Y04273383D01*
X08318970Y04270370D01*
X08316564Y04267298D01*
X08314233Y04264169D01*
X08311979Y04260984D01*
X08309802Y04257746D01*
X08307704Y04254456D01*
X08305686Y04251117D01*
X08303750Y04247729D01*
X08301895Y04244296D01*
X08300125Y04240819D01*
X08298439Y04237300D01*
X08296838Y04233742D01*
X08295324Y04230146D01*
X08293897Y04226514D01*
X08292558Y04222849D01*
X08291309Y04219153D01*
X08290149Y04215427D01*
X08289079Y04211675D01*
X08288100Y04207898D01*
X08287213Y04204098D01*
X08286418Y04200278D01*
X08285716Y04196440D01*
X08285106Y04192586D01*
X08284590Y04188718D01*
X08284167Y04184839D01*
X08283839Y04180951D01*
X08283604Y04177057D01*
X08283463Y04173157D01*
X08283417Y04169256D01*
X08283465Y04165354D01*
D18*
X00149606Y00062992D02*
X00149606Y00007874D01*
X00236220Y00007874D01*
X00236220Y-00047244D01*
X00149606Y-00047244D01*
X00149606Y-00102362D01*
X00488189Y-00102362D01*
X00488189Y-00047244D01*
X00291339Y-00047244D01*
X00291339Y00007874D01*
X00488189Y00007874D01*
X00488189Y00062992D01*
X00291339Y00062992D01*
X00291339Y00118110D01*
X00362205Y00118110D01*
X00330709Y00173228D01*
X00291339Y00173228D01*
X00291339Y00228346D01*
X00322835Y00228346D01*
X00322835Y00283465D01*
X00291339Y00283465D01*
X00291339Y03188976D01*
X00346457Y03188976D01*
X00346457Y00362205D01*
X00401575Y00409449D01*
X00401575Y02700787D01*
X00503937Y02700787D01*
X00503937Y02645669D01*
X00456693Y02645669D01*
X00456693Y02590551D01*
X00503937Y02590551D01*
X00503937Y02535433D01*
X00456693Y02535433D01*
X00456693Y00440945D01*
X00511811Y00448819D01*
X00511811Y02480315D01*
X00566929Y02480315D01*
X00566929Y00440945D01*
X00622047Y00409449D01*
X00622047Y02204724D01*
X00677165Y02204724D01*
X00677165Y00346457D01*
X00732283Y00346457D01*
X00732283Y02204724D01*
X00787402Y02204724D01*
X00787402Y00291339D01*
X00700787Y00291339D01*
X00700787Y00236220D01*
X00787402Y00236220D01*
X00787402Y00181102D01*
X00692913Y00181102D01*
X00661417Y00125984D01*
X00787402Y00125984D01*
X00787402Y00062992D01*
X00543307Y00062992D01*
X00543307Y00007874D01*
X00787402Y00007874D01*
X00787402Y-00047244D01*
X00543307Y-00047244D01*
X00543307Y-00102362D01*
X00842520Y-00102362D01*
X00842520Y02204724D01*
X00897638Y02204724D01*
X00897638Y-00031496D01*
X00952756Y-00031496D01*
X00952756Y01826772D01*
X01007874Y01826772D01*
X01007874Y-00031496D01*
X01062992Y-00031496D01*
X01062992Y01826772D01*
X01118110Y01826772D01*
X01118110Y-00031496D01*
X01173228Y-00031496D01*
X01173228Y01440945D01*
X01228346Y01440945D01*
X01228346Y-00031496D01*
X01283465Y-00031496D01*
X01283465Y01440945D01*
X01338583Y01440945D01*
X01338583Y-00031496D01*
X01393701Y-00031496D01*
X01393701Y01440945D01*
X01448819Y01440945D01*
X01448819Y-00031496D01*
X01503937Y-00031496D01*
X01503937Y01133858D01*
X01559055Y01133858D01*
X01559055Y-00031496D01*
X01614173Y-00031496D01*
X01614173Y01133858D01*
X01669291Y01133858D01*
X01669291Y-00031496D01*
X01724409Y-00031496D01*
X01724409Y00960630D01*
X01779528Y00960630D01*
X01779528Y-00031496D01*
X01834646Y-00031496D01*
X01834646Y00944882D01*
X01889764Y00944882D01*
X01889764Y-00031496D01*
X01944882Y-00031496D01*
X01944882Y00834646D01*
X02000000Y00834646D01*
X02000000Y-00031496D01*
X02055118Y-00031496D01*
X02055118Y00661417D01*
X02110236Y00661417D01*
X02110236Y-00031496D01*
X02165354Y-00031496D01*
X02165354Y00661417D01*
X02220472Y00661417D01*
X02220472Y-00031496D01*
X02275591Y-00031496D01*
X02275591Y00614173D01*
X02330709Y00614173D01*
X02330709Y-00031496D01*
X02385827Y-00031496D01*
X02385827Y00614173D01*
X02440945Y00614173D01*
X02440945Y-00031496D01*
X02496063Y-00031496D01*
X02496063Y00614173D01*
X02551181Y00614173D01*
X02551181Y-00031496D01*
X02606299Y-00031496D01*
X02606299Y00464567D01*
X02661417Y00464567D01*
X02661417Y-00031496D01*
X02716535Y-00031496D01*
X02716535Y00464567D01*
X02771654Y00464567D01*
X02771654Y-00031496D01*
X02826772Y-00031496D01*
X02826772Y00393701D01*
X02881890Y00393701D01*
X02881890Y-00031496D01*
X02937008Y-00031496D01*
X02937008Y00385827D01*
X02992126Y00385827D01*
X02992126Y-00031496D01*
X03047244Y-00031496D01*
X03047244Y00385827D01*
X03102362Y00385827D01*
X03102362Y-00031496D01*
X03157480Y-00031496D01*
X03157480Y00275591D01*
X03212598Y00275591D01*
X03212598Y-00031496D01*
X03267717Y-00031496D01*
X03267717Y00275591D01*
X03322835Y00275591D01*
X03322835Y-00031496D01*
X03377953Y-00031496D01*
X03377953Y00236220D01*
X03433071Y00236220D01*
X03433071Y-00031496D01*
X03488189Y-00031496D01*
X03488189Y00228346D01*
X03543307Y00228346D01*
X03543307Y-00031496D01*
X03598425Y-00031496D01*
X03598425Y00228346D01*
X03653543Y00228346D01*
X03653543Y-00031496D01*
X03708661Y-00031496D01*
X03708661Y00188976D01*
X03763780Y00188976D01*
X03763780Y-00031496D01*
X03818898Y-00031496D01*
X03818898Y00181102D01*
X03874016Y00181102D01*
X03874016Y-00031496D01*
X03929134Y-00031496D01*
X03929134Y00173228D01*
X03984252Y00173228D01*
X03984252Y-00031496D01*
X04039370Y-00031496D01*
X04039370Y00165354D01*
X04094488Y00165354D01*
X04094488Y-00031496D01*
X04149606Y-00031496D01*
X04149606Y00165354D01*
X04204724Y00165354D01*
X04204724Y-00133858D01*
X04259843Y-00133858D01*
X04259843Y00165354D01*
X04314961Y00165354D01*
X04314961Y-00133858D01*
X04370079Y-00133858D01*
X04370079Y00118110D01*
X04377953Y00118110D01*
X04425197Y00086614D01*
X04425197Y-00133858D01*
X04480315Y-00133858D01*
X04480315Y00062992D01*
X04535433Y00062992D01*
X04535433Y-00133858D01*
X04590551Y-00133858D01*
X04590551Y00062992D01*
X04645669Y00102362D01*
X04645669Y-00133858D01*
X04700787Y-00133858D01*
X04700787Y00165354D01*
X04755906Y00251969D01*
X04755906Y-00133858D01*
X04811024Y-00133858D01*
X04811024Y00251969D01*
X04866142Y00251969D01*
X04866142Y-00031496D01*
X04921260Y-00031496D01*
X04921260Y00259843D01*
X04976378Y00259843D01*
X04976378Y-00031496D01*
X05031496Y-00031496D01*
X05031496Y00291339D01*
X05086614Y00291339D01*
X05086614Y-00031496D01*
X05141732Y-00031496D01*
X05141732Y00322835D01*
X05196850Y00322835D01*
X05196850Y-00031496D01*
X05251969Y-00031496D01*
X05251969Y00346457D01*
X05307087Y00346457D01*
X05307087Y-00031496D01*
X05362205Y-00031496D01*
X05362205Y00401575D01*
X05417323Y00401575D01*
X05417323Y-00031496D01*
X05472441Y-00031496D01*
X05472441Y00433071D01*
X05527559Y00433071D01*
X05527559Y-00031496D01*
X05582677Y-00031496D01*
X05582677Y00472441D01*
X05637795Y00472441D01*
X05637795Y-00031496D01*
X05692913Y-00031496D01*
X05692913Y00535433D01*
X05748031Y00535433D01*
X05748031Y-00031496D01*
X05803150Y-00031496D01*
X05803150Y00566929D01*
X05858268Y00566929D01*
X05858268Y-00031496D01*
X05913386Y-00031496D01*
X05913386Y00645669D01*
X05968504Y00645669D01*
X05968504Y-00031496D01*
X06023622Y-00031496D01*
X06023622Y00700787D01*
X06078740Y00700787D01*
X06078740Y-00031496D01*
X06133858Y-00031496D01*
X06133858Y00732283D01*
X06188976Y00732283D01*
X06188976Y-00031496D01*
X06244094Y-00031496D01*
X06244094Y00834646D01*
X06299213Y00834646D01*
X06299213Y-00031496D01*
X06354331Y-00031496D01*
X06354331Y00889764D01*
X06409449Y00889764D01*
X06409449Y-00031496D01*
X06464567Y-00031496D01*
X06464567Y01007874D01*
X06519685Y01007874D01*
X06519685Y-00031496D01*
X06574803Y-00031496D01*
X06574803Y01062992D01*
X06629921Y01062992D01*
X06629921Y-00031496D01*
X06685039Y-00031496D01*
X06685039Y01141732D01*
X06740157Y01141732D01*
X06740157Y-00031496D01*
X06795276Y-00031496D01*
X06795276Y01354331D01*
X06850394Y01354331D01*
X06850394Y-00031496D01*
X06905512Y-00031496D01*
X06905512Y01354331D01*
X06960630Y01354331D01*
X06960630Y-00031496D01*
X07015748Y-00031496D01*
X07015748Y01496063D01*
X07070866Y01496063D01*
X07070866Y-00031496D01*
X07125984Y-00031496D01*
X07125984Y01551181D01*
X07094488Y01551181D01*
X07094488Y01606299D01*
X07125984Y01606299D01*
X07125984Y01661417D01*
X07094488Y01661417D01*
X07094488Y01716535D01*
X07181102Y01716535D01*
X07181102Y-00031496D01*
X07236220Y-00031496D01*
X07236220Y01724409D01*
X07291339Y01724409D01*
X07291339Y-00031496D01*
X07346457Y-00031496D01*
X07346457Y01850394D01*
X07401575Y01850394D01*
X07401575Y-00031496D01*
X07456693Y-00031496D01*
X07456693Y01905512D01*
X07409449Y01905512D01*
X07409449Y01960630D01*
X07456693Y01960630D01*
X07456693Y02015748D01*
X07409449Y02015748D01*
X07409449Y02070866D01*
X07511811Y02070866D01*
X07511811Y-00031496D01*
X07566929Y-00031496D01*
X07566929Y02488189D01*
X07622047Y02488189D01*
X07622047Y-00031496D01*
X07677165Y-00031496D01*
X07677165Y02488189D01*
X07732283Y02488189D01*
X07732283Y-00031496D01*
X07787402Y-00031496D01*
X07787402Y02543307D01*
X07724409Y02543307D01*
X07724409Y02598425D01*
X07787402Y02598425D01*
X07787402Y02653543D01*
X07724409Y02653543D01*
X07724409Y02708661D01*
X07787402Y02708661D01*
X07787402Y02763780D01*
X07724409Y02763780D01*
X07724409Y02818898D01*
X07787402Y02818898D01*
X07787402Y02874016D01*
X07724409Y02874016D01*
X07724409Y02929134D01*
X07842520Y02929134D01*
X07842520Y-00031496D01*
X07897638Y-00031496D01*
X07897638Y03212598D01*
X07952756Y03212598D01*
X07952756Y-00031496D01*
X08007874Y-00031496D01*
X08007874Y03283465D01*
X07960630Y03283465D01*
X07960630Y03338583D01*
X08007874Y03338583D01*
X08007874Y03393701D01*
X07960630Y03393701D01*
X07960630Y03448819D01*
X08007874Y03448819D01*
X08007874Y03503937D01*
X07960630Y03503937D01*
X07960630Y03559055D01*
X08007874Y03559055D01*
X08007874Y03614173D01*
X07960630Y03614173D01*
X07960630Y03669291D01*
X08007874Y03669291D01*
X08007874Y03724409D01*
X07960630Y03724409D01*
X07960630Y03779528D01*
X08007874Y03779528D01*
X08007874Y03834646D01*
X07960630Y03834646D01*
X07960630Y03889764D01*
X08007874Y03889764D01*
X08007874Y03944882D01*
X07960630Y03944882D01*
X07960630Y04000000D01*
X08062992Y04000000D01*
X08062992Y00110236D01*
X08118110Y00110236D01*
X08118110Y04000000D01*
X08173228Y04000000D01*
X08173228Y00157480D01*
X08322835Y00157480D01*
X08314961Y00212598D01*
X08228346Y00212598D01*
X08228346Y00267717D01*
X08314961Y00267717D01*
X08314961Y00322835D01*
X08228346Y00322835D01*
X08228346Y03976378D01*
X08283465Y03913386D01*
X08283465Y00377953D01*
X08338583Y00377953D01*
X08338583Y03866142D01*
X08393701Y03842520D01*
X08393701Y00409449D01*
X08448819Y00440945D01*
X08448819Y03842520D01*
X08503937Y03842520D01*
X08503937Y00440945D01*
X08559055Y00440945D01*
X08559055Y03842520D01*
X08614173Y03842520D01*
X08614173Y00417323D01*
X08669291Y00362205D01*
X08669291Y03842520D01*
X08724409Y03897638D01*
X08724409Y-00078740D01*
X08669291Y-00078740D01*
X08669291Y00141732D01*
X08614173Y00086614D01*
X08614173Y-00078740D01*
X08559055Y-00078740D01*
X08559055Y00062992D01*
X08503937Y00055118D01*
X08503937Y-00078740D01*
X08448819Y-00078740D01*
X08448819Y00062992D01*
X08393701Y00094488D01*
X08393701Y-00133858D01*
X08779528Y-00133858D01*
X08779528Y04000000D01*
X08834646Y04000000D01*
X08834646Y-00031496D01*
X08889764Y-00031496D01*
X08889764Y04000000D01*
X08944882Y04000000D01*
X08944882Y-00031496D01*
X09000000Y-00031496D01*
X09000000Y04007874D01*
X09015748Y04023622D02*
X09015748Y08527559D01*
X00236220Y04000000D02*
X00236220Y00062992D01*
X00149606Y00062992D01*
X00125984Y00118110D02*
X00125984Y04000000D01*
X00070866Y04000000D01*
X00070866Y00141732D01*
X00015748Y00157480D01*
X00015748Y04000000D01*
X-00039370Y04000000D01*
X-00039370Y00157480D01*
X-00094488Y00125984D01*
X-00094488Y04000000D01*
X-00149606Y04000000D01*
X-00149606Y-00031496D01*
X-00204724Y-00031496D01*
X-00204724Y04000000D01*
X-00259843Y04000000D01*
X-00259843Y-00031496D01*
X-00314961Y-00031496D01*
X-00314961Y04000000D01*
X-00370079Y04000000D01*
X-00370079Y-00031496D01*
X-00425197Y-00031496D01*
X-00425197Y04000000D01*
X-00480315Y04000000D01*
X-00480315Y-00031496D01*
X-00535433Y-00031496D01*
X-00535433Y04000000D01*
X-00590551Y04000000D01*
X-00590551Y-00031496D01*
X-00645669Y-00031496D01*
X-00645669Y04000000D01*
X-00700787Y04000000D01*
X-00700787Y-00031496D01*
X-00755906Y-00031496D01*
X-00755906Y04000000D01*
X-00811024Y04000000D01*
X-00811024Y-00031496D01*
X-00866142Y-00031496D01*
X-00866142Y03984252D01*
X00181102Y04000000D02*
X00181102Y00118110D01*
X00125984Y00118110D01*
X00181102Y04000000D02*
X00236220Y04000000D01*
D19*
X00236220Y04212598D02*
X00181102Y04212598D01*
X00181102Y08094488D01*
X00125984Y08094488D01*
X00125984Y04212598D01*
X00070866Y04212598D01*
X00070866Y08070866D01*
X00015748Y08055118D01*
X00015748Y04212598D01*
X-00039370Y04212598D01*
X-00039370Y08055118D01*
X-00094488Y08086614D01*
X-00094488Y04212598D01*
X-00149606Y04212598D01*
X-00149606Y08291339D01*
X-00204724Y08291339D01*
X-00204724Y04212598D01*
X-00259843Y04212598D01*
X-00259843Y08291339D01*
X-00314961Y08291339D01*
X-00314961Y04212598D01*
X-00370079Y04212598D01*
X-00370079Y08291339D01*
X-00425197Y08291339D01*
X-00425197Y04212598D01*
X-00480315Y04212598D01*
X-00480315Y08291339D01*
X-00535433Y08291339D01*
X-00535433Y04212598D01*
X-00692913Y04212598D01*
X-00692913Y04267717D01*
X-00590551Y04267717D01*
X-00590551Y04322835D01*
X-00692913Y04322835D01*
X-00692913Y04377953D01*
X-00590551Y04377953D01*
X-00590551Y04433071D01*
X-00692913Y04433071D01*
X-00692913Y04488189D01*
X-00590551Y04488189D01*
X-00590551Y04543307D01*
X-00692913Y04543307D01*
X-00692913Y04598425D01*
X-00590551Y04598425D01*
X-00590551Y04653543D01*
X-00692913Y04653543D01*
X-00692913Y04708661D01*
X-00590551Y04708661D01*
X-00590551Y04763780D01*
X-00692913Y04763780D01*
X-00692913Y04818898D01*
X-00590551Y04818898D01*
X-00590551Y04874016D01*
X-00692913Y04874016D01*
X-00692913Y04929134D01*
X-00590551Y04929134D01*
X-00590551Y04984252D01*
X-00692913Y04984252D01*
X-00692913Y05039370D01*
X-00590551Y05039370D01*
X-00590551Y05094488D01*
X-00692913Y05094488D01*
X-00692913Y05149606D01*
X-00590551Y05149606D01*
X-00590551Y05204724D01*
X-00692913Y05204724D01*
X-00692913Y05259843D01*
X-00590551Y05259843D01*
X-00590551Y05314961D01*
X-00692913Y05314961D01*
X-00692913Y05370079D01*
X-00590551Y05370079D01*
X-00590551Y05425197D01*
X-00692913Y05425197D01*
X-00692913Y05480315D01*
X-00590551Y05480315D01*
X-00590551Y05535433D01*
X-00692913Y05535433D01*
X-00692913Y05590551D01*
X-00590551Y05590551D01*
X-00590551Y05645669D01*
X-00692913Y05645669D01*
X-00692913Y05700787D01*
X-00590551Y05700787D01*
X-00590551Y05755906D01*
X-00692913Y05755906D01*
X-00692913Y05811024D01*
X-00590551Y05811024D01*
X-00590551Y05866142D01*
X-00692913Y05866142D01*
X-00692913Y05921260D01*
X-00590551Y05921260D01*
X-00590551Y05976378D01*
X-00692913Y05976378D01*
X-00692913Y06031496D01*
X-00590551Y06031496D01*
X-00590551Y06086614D01*
X-00692913Y06086614D01*
X-00692913Y06141732D01*
X-00590551Y06141732D01*
X-00590551Y06196850D01*
X-00692913Y06196850D01*
X-00692913Y06251969D01*
X-00590551Y06251969D01*
X-00590551Y06307087D01*
X-00692913Y06307087D01*
X-00692913Y06362205D01*
X-00590551Y06362205D01*
X-00590551Y06417323D01*
X-00692913Y06417323D01*
X-00692913Y06472441D01*
X-00590551Y06472441D01*
X-00590551Y06527559D01*
X-00692913Y06527559D01*
X-00692913Y06582677D01*
X-00590551Y06582677D01*
X-00590551Y06637795D01*
X-00692913Y06637795D01*
X-00692913Y06692913D01*
X-00590551Y06692913D01*
X-00590551Y06748031D01*
X-00692913Y06748031D01*
X-00692913Y06803150D01*
X-00590551Y06803150D01*
X-00590551Y06858268D01*
X-00692913Y06858268D01*
X-00692913Y06913386D01*
X-00590551Y06913386D01*
X-00590551Y06968504D01*
X-00692913Y06968504D01*
X-00692913Y07023622D01*
X-00590551Y07023622D01*
X-00590551Y07078740D01*
X-00692913Y07078740D01*
X-00692913Y07133858D01*
X-00590551Y07133858D01*
X-00590551Y07188976D01*
X-00692913Y07188976D01*
X-00692913Y07244094D01*
X-00590551Y07244094D01*
X-00590551Y07299213D01*
X-00692913Y07299213D01*
X-00692913Y07354331D01*
X-00590551Y07354331D01*
X-00590551Y07409449D01*
X-00692913Y07409449D01*
X-00692913Y07464567D01*
X-00590551Y07464567D01*
X-00590551Y07519685D01*
X-00692913Y07519685D01*
X-00692913Y07574803D01*
X-00590551Y07574803D01*
X-00590551Y07629921D01*
X-00692913Y07629921D01*
X-00692913Y07685039D01*
X-00590551Y07685039D01*
X-00590551Y07740157D01*
X-00692913Y07740157D01*
X-00692913Y07795276D01*
X-00590551Y07795276D01*
X-00590551Y07850394D01*
X-00692913Y07850394D01*
X-00692913Y07905512D01*
X-00590551Y07905512D01*
X-00590551Y07960630D01*
X-00692913Y07960630D01*
X-00692913Y08015748D01*
X-00590551Y08015748D01*
X-00590551Y08070866D01*
X-00692913Y08070866D01*
X-00692913Y08125984D01*
X-00590551Y08125984D01*
X-00590551Y08181102D01*
X-00692913Y08181102D01*
X-00692913Y08236220D01*
X-00590551Y08236220D01*
X-00590551Y08291339D01*
X-00692913Y08291339D01*
X-00692913Y08393701D01*
X00149606Y08314961D02*
X00149606Y08259843D01*
X00236220Y08259843D01*
X00236220Y08204724D01*
X00149606Y08204724D01*
X00149606Y08149606D01*
X00236220Y08149606D01*
X00236220Y04212598D01*
X00291339Y05023622D02*
X00346457Y05023622D01*
X00346457Y07850394D01*
X00401575Y07803150D01*
X00401575Y05511811D01*
X00503937Y05511811D01*
X00503937Y05566929D01*
X00456693Y05566929D01*
X00456693Y05622047D01*
X00503937Y05622047D01*
X00503937Y05677165D01*
X00456693Y05677165D01*
X00456693Y07771654D01*
X00511811Y07763780D01*
X00511811Y05732283D01*
X00566929Y05732283D01*
X00566929Y07771654D01*
X00622047Y07803150D01*
X00622047Y06007874D01*
X00677165Y06007874D01*
X00677165Y07866142D01*
X00732283Y07866142D01*
X00732283Y06007874D01*
X00787402Y06007874D01*
X00787402Y07921260D01*
X00700787Y07921260D01*
X00700787Y07976378D01*
X00787402Y07976378D01*
X00787402Y08031496D01*
X00692913Y08031496D01*
X00661417Y08086614D01*
X00787402Y08086614D01*
X00787402Y08149606D01*
X00574803Y08149606D01*
X00543307Y08204724D01*
X00787402Y08204724D01*
X00787402Y08259843D01*
X00543307Y08259843D01*
X00543307Y08314961D01*
X00842520Y08314961D01*
X00842520Y06007874D01*
X00897638Y06007874D01*
X00897638Y08346457D01*
X00952756Y08346457D01*
X00952756Y06385827D01*
X01007874Y06385827D01*
X01007874Y08346457D01*
X01062992Y08346457D01*
X01062992Y06385827D01*
X01118110Y06385827D01*
X01118110Y08346457D01*
X01173228Y08346457D01*
X01173228Y06771654D01*
X01228346Y06771654D01*
X01228346Y08346457D01*
X01283465Y08346457D01*
X01283465Y06771654D01*
X01338583Y06771654D01*
X01338583Y08346457D01*
X01393701Y08346457D01*
X01393701Y06771654D01*
X01448819Y06771654D01*
X01448819Y08346457D01*
X01503937Y08346457D01*
X01503937Y07078740D01*
X01559055Y07078740D01*
X01559055Y08346457D01*
X01614173Y08346457D01*
X01614173Y07078740D01*
X01669291Y07078740D01*
X01669291Y08346457D01*
X01724409Y08346457D01*
X01724409Y07251969D01*
X01779528Y07251969D01*
X01779528Y08346457D01*
X01834646Y08346457D01*
X01834646Y07267717D01*
X01889764Y07267717D01*
X01889764Y08346457D01*
X01944882Y08346457D01*
X01944882Y07377953D01*
X02000000Y07377953D01*
X02000000Y08346457D01*
X02055118Y08346457D01*
X02055118Y07551181D01*
X02110236Y07551181D01*
X02110236Y08346457D01*
X02165354Y08346457D01*
X02165354Y07551181D01*
X02220472Y07551181D01*
X02220472Y08346457D01*
X02275591Y08346457D01*
X02275591Y07598425D01*
X02330709Y07598425D01*
X02330709Y08346457D01*
X02385827Y08346457D01*
X02385827Y07598425D01*
X02440945Y07598425D01*
X02440945Y08346457D01*
X02496063Y08346457D01*
X02496063Y07598425D01*
X02551181Y07598425D01*
X02551181Y08346457D01*
X02606299Y08346457D01*
X02606299Y07748031D01*
X02661417Y07748031D01*
X02661417Y08346457D01*
X02716535Y08346457D01*
X02716535Y07748031D01*
X02771654Y07748031D01*
X02771654Y08346457D01*
X02826772Y08346457D01*
X02826772Y07818898D01*
X02881890Y07818898D01*
X02881890Y08346457D01*
X02937008Y08346457D01*
X02937008Y07826772D01*
X02992126Y07826772D01*
X02992126Y08346457D01*
X03047244Y08346457D01*
X03047244Y07826772D01*
X03102362Y07826772D01*
X03102362Y08346457D01*
X03157480Y08346457D01*
X03157480Y07937008D01*
X03212598Y07937008D01*
X03212598Y08346457D01*
X03267717Y08346457D01*
X03267717Y07937008D01*
X03322835Y07937008D01*
X03322835Y08346457D01*
X03377953Y08346457D01*
X03377953Y07976378D01*
X03433071Y07976378D01*
X03433071Y08346457D01*
X03488189Y08346457D01*
X03488189Y07984252D01*
X03543307Y07984252D01*
X03543307Y08346457D01*
X03598425Y08346457D01*
X03598425Y07984252D01*
X03653543Y07984252D01*
X03653543Y08346457D01*
X03708661Y08346457D01*
X03708661Y08023622D01*
X03763780Y08023622D01*
X03763780Y08346457D01*
X03818898Y08346457D01*
X03818898Y08031496D01*
X03874016Y08031496D01*
X03874016Y08346457D01*
X03929134Y08346457D01*
X03929134Y08039370D01*
X03984252Y08039370D01*
X03984252Y08346457D01*
X04039370Y08346457D01*
X04039370Y08047244D01*
X04094488Y08047244D01*
X04094488Y08346457D01*
X04149606Y08346457D01*
X04149606Y08047244D01*
X04204724Y08047244D01*
X04204724Y08346457D01*
X04259843Y08346457D01*
X04259843Y08047244D01*
X04314961Y08047244D01*
X04314961Y08346457D01*
X04370079Y08346457D01*
X04370079Y08094488D01*
X04377953Y08094488D01*
X04425197Y08125984D01*
X04425197Y08346457D01*
X04480315Y08346457D01*
X04480315Y08157480D01*
X04535433Y08157480D01*
X04535433Y08346457D01*
X04590551Y08346457D01*
X04590551Y08149606D01*
X04645669Y08118110D01*
X04645669Y08346457D01*
X04700787Y08346457D01*
X04700787Y08047244D01*
X04755906Y07960630D01*
X04755906Y08346457D01*
X04811024Y08346457D01*
X04811024Y07960630D01*
X04866142Y07960630D01*
X04866142Y08346457D01*
X04921260Y08346457D01*
X04921260Y07952756D01*
X04976378Y07952756D01*
X04976378Y08346457D01*
X05031496Y08346457D01*
X05031496Y07921260D01*
X05086614Y07921260D01*
X05086614Y08346457D01*
X05141732Y08346457D01*
X05141732Y07889764D01*
X05196850Y07889764D01*
X05196850Y08346457D01*
X05251969Y08346457D01*
X05251969Y07866142D01*
X05307087Y07866142D01*
X05307087Y08346457D01*
X05362205Y08346457D01*
X05362205Y07811024D01*
X05417323Y07811024D01*
X05417323Y08346457D01*
X05472441Y08346457D01*
X05472441Y07779528D01*
X05527559Y07779528D01*
X05527559Y08346457D01*
X05582677Y08346457D01*
X05582677Y07740157D01*
X05637795Y07740157D01*
X05637795Y08346457D01*
X05692913Y08346457D01*
X05692913Y07677165D01*
X05748031Y07677165D01*
X05748031Y08346457D01*
X05803150Y08346457D01*
X05803150Y07645669D01*
X05858268Y07645669D01*
X05858268Y08346457D01*
X05913386Y08346457D01*
X05913386Y07566929D01*
X05968504Y07566929D01*
X05968504Y08346457D01*
X06023622Y08346457D01*
X06023622Y07511811D01*
X06078740Y07511811D01*
X06078740Y08346457D01*
X06133858Y08346457D01*
X06133858Y07480315D01*
X06188976Y07480315D01*
X06188976Y08346457D01*
X06244094Y08346457D01*
X06244094Y07377953D01*
X06299213Y07377953D01*
X06299213Y08346457D01*
X06354331Y08346457D01*
X06354331Y07322835D01*
X06409449Y07322835D01*
X06409449Y08346457D01*
X06464567Y08346457D01*
X06464567Y07204724D01*
X06519685Y07204724D01*
X06519685Y08346457D01*
X06574803Y08346457D01*
X06574803Y07149606D01*
X06629921Y07149606D01*
X06629921Y08346457D01*
X06685039Y08346457D01*
X06685039Y07070866D01*
X06740157Y07070866D01*
X06740157Y08346457D01*
X06795276Y08346457D01*
X06795276Y06858268D01*
X06850394Y06858268D01*
X06850394Y08346457D01*
X06905512Y08346457D01*
X06905512Y06858268D01*
X06960630Y06858268D01*
X06960630Y08346457D01*
X07015748Y08346457D01*
X07015748Y06716535D01*
X07070866Y06716535D01*
X07070866Y08346457D01*
X07125984Y08346457D01*
X07125984Y06661417D01*
X07094488Y06661417D01*
X07094488Y06606299D01*
X07125984Y06606299D01*
X07125984Y06551181D01*
X07094488Y06551181D01*
X07094488Y06496063D01*
X07181102Y06496063D01*
X07181102Y08346457D01*
X07236220Y08346457D01*
X07236220Y06488189D01*
X07291339Y06488189D01*
X07291339Y08346457D01*
X07346457Y08346457D01*
X07346457Y06362205D01*
X07401575Y06362205D01*
X07401575Y08346457D01*
X07456693Y08346457D01*
X07456693Y06307087D01*
X07409449Y06307087D01*
X07409449Y06251969D01*
X07456693Y06251969D01*
X07456693Y06196850D01*
X07409449Y06196850D01*
X07409449Y06141732D01*
X07511811Y06141732D01*
X07511811Y08346457D01*
X07566929Y08346457D01*
X07566929Y05724409D01*
X07622047Y05724409D01*
X07622047Y08346457D01*
X07677165Y08346457D01*
X07677165Y05724409D01*
X07732283Y05724409D01*
X07732283Y08346457D01*
X07787402Y08346457D01*
X07787402Y05669291D01*
X07724409Y05669291D01*
X07724409Y05614173D01*
X07787402Y05614173D01*
X07787402Y05559055D01*
X07724409Y05559055D01*
X07724409Y05503937D01*
X07787402Y05503937D01*
X07787402Y05448819D01*
X07724409Y05448819D01*
X07724409Y05393701D01*
X07787402Y05393701D01*
X07787402Y05338583D01*
X07724409Y05338583D01*
X07724409Y05283465D01*
X07842520Y05283465D01*
X07842520Y08346457D01*
X07897638Y08346457D01*
X07897638Y05000000D01*
X07952756Y05000000D01*
X07952756Y08346457D01*
X08070866Y08346457D01*
X08070866Y08291339D01*
X08007874Y08291339D01*
X08007874Y08236220D01*
X08070866Y08236220D01*
X08070866Y08181102D01*
X08007874Y08181102D01*
X08007874Y04929134D01*
X07960630Y04929134D01*
X07960630Y04874016D01*
X08007874Y04874016D01*
X08007874Y04818898D01*
X07960630Y04818898D01*
X07960630Y04763780D01*
X08007874Y04763780D01*
X08007874Y04708661D01*
X07960630Y04708661D01*
X07960630Y04653543D01*
X08007874Y04653543D01*
X08007874Y04598425D01*
X07960630Y04598425D01*
X07960630Y04543307D01*
X08007874Y04543307D01*
X08007874Y04488189D01*
X07960630Y04488189D01*
X07960630Y04433071D01*
X08007874Y04433071D01*
X08007874Y04377953D01*
X07960630Y04377953D01*
X07960630Y04322835D01*
X08007874Y04322835D01*
X08007874Y04267717D01*
X07960630Y04267717D01*
X07960630Y04212598D01*
X08062992Y04212598D01*
X08062992Y08125984D01*
X08118110Y08118110D01*
X08118110Y04212598D01*
X08173228Y04212598D01*
X08173228Y08055118D01*
X08322835Y08055118D01*
X08314961Y08000000D01*
X08228346Y08000000D01*
X08228346Y07944882D01*
X08314961Y07944882D01*
X08314961Y07889764D01*
X08228346Y07889764D01*
X08228346Y04236220D01*
X08283465Y04307087D01*
X08283465Y07834646D01*
X08338583Y07834646D01*
X08338583Y04354331D01*
X08393701Y04377953D01*
X08393701Y07803150D01*
X08448819Y07771654D01*
X08448819Y04377953D01*
X08503937Y04377953D01*
X08503937Y07771654D01*
X08559055Y07771654D01*
X08559055Y04377953D01*
X08614173Y04377953D01*
X08614173Y07795276D01*
X08669291Y07850394D01*
X08669291Y04370079D01*
X08763780Y04275591D01*
X08803150Y04275591D01*
X08803150Y04370079D01*
X08748031Y04370079D01*
X08724409Y04393701D01*
X08724409Y04425197D01*
X08803150Y04425197D01*
X08803150Y04480315D01*
X08724409Y04480315D01*
X08724409Y04535433D01*
X08803150Y04535433D01*
X08803150Y04590551D01*
X08724409Y04590551D01*
X08724409Y04645669D01*
X08803150Y04645669D01*
X08803150Y04700787D01*
X08724409Y04700787D01*
X08724409Y04755906D01*
X08803150Y04755906D01*
X08803150Y04811024D01*
X08724409Y04811024D01*
X08724409Y04866142D01*
X08803150Y04866142D01*
X08803150Y04921260D01*
X08724409Y04921260D01*
X08724409Y04976378D01*
X08803150Y04976378D01*
X08803150Y05031496D01*
X08724409Y05031496D01*
X08724409Y05086614D01*
X08803150Y05086614D01*
X08803150Y05141732D01*
X08724409Y05141732D01*
X08724409Y05196850D01*
X08803150Y05196850D01*
X08803150Y05251969D01*
X08724409Y05251969D01*
X08724409Y05307087D01*
X08803150Y05307087D01*
X08803150Y05362205D01*
X08724409Y05362205D01*
X08724409Y05417323D01*
X08803150Y05417323D01*
X08803150Y05472441D01*
X08724409Y05472441D01*
X08724409Y05527559D01*
X08803150Y05527559D01*
X08803150Y05582677D01*
X08724409Y05582677D01*
X08724409Y05637795D01*
X08803150Y05637795D01*
X08803150Y05692913D01*
X08724409Y05692913D01*
X08724409Y05748031D01*
X08803150Y05748031D01*
X08803150Y05803150D01*
X08724409Y05803150D01*
X08724409Y05858268D01*
X08803150Y05858268D01*
X08803150Y05913386D01*
X08724409Y05913386D01*
X08724409Y05968504D01*
X08803150Y05968504D01*
X08803150Y06023622D01*
X08724409Y06023622D01*
X08724409Y06078740D01*
X08803150Y06078740D01*
X08803150Y06133858D01*
X08724409Y06133858D01*
X08724409Y06188976D01*
X08803150Y06188976D01*
X08803150Y06244094D01*
X08724409Y06244094D01*
X08724409Y06299213D01*
X08803150Y06299213D01*
X08803150Y06354331D01*
X08724409Y06354331D01*
X08724409Y06409449D01*
X08803150Y06409449D01*
X08803150Y06464567D01*
X08724409Y06464567D01*
X08724409Y06519685D01*
X08803150Y06519685D01*
X08803150Y06574803D01*
X08724409Y06574803D01*
X08724409Y06629921D01*
X08803150Y06629921D01*
X08803150Y06685039D01*
X08724409Y06685039D01*
X08724409Y06740157D01*
X08803150Y06740157D01*
X08803150Y06795276D01*
X08724409Y06795276D01*
X08724409Y06850394D01*
X08803150Y06850394D01*
X08803150Y06905512D01*
X08724409Y06905512D01*
X08724409Y06960630D01*
X08803150Y06960630D01*
X08803150Y07015748D01*
X08724409Y07015748D01*
X08724409Y07070866D01*
X08803150Y07070866D01*
X08803150Y07125984D01*
X08724409Y07125984D01*
X08724409Y07181102D01*
X08803150Y07181102D01*
X08803150Y07236220D01*
X08724409Y07236220D01*
X08724409Y07291339D01*
X08803150Y07291339D01*
X08803150Y07346457D01*
X08724409Y07346457D01*
X08724409Y07401575D01*
X08803150Y07401575D01*
X08803150Y07456693D01*
X08724409Y07456693D01*
X08724409Y07511811D01*
X08803150Y07511811D01*
X08803150Y07566929D01*
X08724409Y07566929D01*
X08724409Y07622047D01*
X08803150Y07622047D01*
X08803150Y07677165D01*
X08724409Y07677165D01*
X08724409Y07732283D01*
X08803150Y07732283D01*
X08803150Y07787402D01*
X08724409Y07787402D01*
X08724409Y07842520D01*
X08803150Y07842520D01*
X08803150Y07897638D01*
X08724409Y07897638D01*
X08724409Y07952756D01*
X08803150Y07952756D01*
X08803150Y08007874D01*
X08724409Y08007874D01*
X08724409Y08062992D01*
X08803150Y08062992D01*
X08803150Y08118110D01*
X08724409Y08118110D01*
X08724409Y08173228D01*
X08803150Y08173228D01*
X08803150Y08228346D01*
X08724409Y08228346D01*
X08724409Y08283465D01*
X08803150Y08283465D01*
X08803150Y08338583D01*
X08669291Y08338583D01*
X08669291Y08070866D01*
X08614173Y08125984D01*
X08614173Y08338583D01*
X08559055Y08338583D01*
X08559055Y08157480D01*
X08503937Y08165354D01*
X08503937Y08338583D01*
X08448819Y08338583D01*
X08448819Y08157480D01*
X08393701Y08125984D01*
X08393701Y08409449D01*
X00488189Y08314961D02*
X00149606Y08314961D01*
X00291339Y08259843D02*
X00291339Y08204724D01*
X00488189Y08204724D01*
X00448819Y08149606D01*
X00291339Y08149606D01*
X00291339Y08094488D01*
X00362205Y08094488D01*
X00330709Y08039370D01*
X00291339Y08039370D01*
X00291339Y07984252D01*
X00322835Y07984252D01*
X00322835Y07929134D01*
X00291339Y07929134D01*
X00291339Y05023622D01*
X00291339Y08259843D02*
X00488189Y08259843D01*
X00488189Y08314961D01*
D20*
X-00905512Y08503937D02*
X-00905512Y04023622D01*
X-00866142Y03984252D01*
X08748031Y08653543D02*
X08889764Y08653543D01*
X09015748Y08527559D01*
X09015748Y04023622D02*
X09000000Y04007874D01*
M02*
