G75*
%MOIN*%
%OFA0B0*%
%FSLAX26Y26*%
%IPPOS*%
%LPD*%
%AMOC8*
5,1,8,0,0,1.08239X$1,22.5*
%
%ADD10C,0.016000*%
%ADD11C,0.012000*%
%ADD12C,0.009000*%
%ADD13C,0.025000*%
%ADD14C,0.011811*%
D10*
X00173228Y00173228D02*
X00173228Y08047244D01*
X08047244Y08047244D01*
X08047244Y00173228D01*
X00173228Y00173228D01*
X00229751Y00226592D02*
X00623452Y00935254D01*
X01017152Y00226592D01*
X00229751Y00226592D01*
X00465971Y00305332D02*
X00780932Y00305332D01*
X00702192Y00344703D02*
X00700782Y00346147D01*
X00699407Y00347625D01*
X00698069Y00349135D01*
X00696768Y00350678D01*
X00695504Y00352251D01*
X00694278Y00353855D01*
X00693092Y00355488D01*
X00691946Y00357149D01*
X00690840Y00358837D01*
X00689775Y00360551D01*
X00688752Y00362291D01*
X00687771Y00364055D01*
X00686833Y00365842D01*
X00685938Y00367651D01*
X00685088Y00369482D01*
X00684282Y00371332D01*
X00683521Y00373201D01*
X00682805Y00375088D01*
X00682135Y00376992D01*
X00681512Y00378911D01*
X00680934Y00380845D01*
X00680404Y00382793D01*
X00679921Y00384752D01*
X00679486Y00386723D01*
X00679098Y00388704D01*
X00678758Y00390693D01*
X00678467Y00392690D01*
X00678223Y00394694D01*
X00678029Y00396702D01*
X00677882Y00398715D01*
X00677785Y00400731D01*
X00677736Y00402749D01*
X00677736Y00404767D01*
X00677785Y00406785D01*
X00677882Y00408801D01*
X00678029Y00410814D01*
X00678223Y00412822D01*
X00678467Y00414826D01*
X00678758Y00416823D01*
X00679098Y00418812D01*
X00679486Y00420793D01*
X00679921Y00422764D01*
X00680404Y00424723D01*
X00680934Y00426671D01*
X00681512Y00428605D01*
X00682135Y00430524D01*
X00682805Y00432428D01*
X00683521Y00434315D01*
X00684282Y00436184D01*
X00685088Y00438034D01*
X00685938Y00439865D01*
X00686833Y00441674D01*
X00687771Y00443461D01*
X00688752Y00445225D01*
X00689775Y00446965D01*
X00690840Y00448679D01*
X00691946Y00450367D01*
X00693092Y00452028D01*
X00694278Y00453661D01*
X00695504Y00455265D01*
X00696768Y00456838D01*
X00698069Y00458381D01*
X00699407Y00459891D01*
X00700782Y00461369D01*
X00702192Y00462813D01*
X00623452Y00462813D02*
X00622042Y00461369D01*
X00620667Y00459891D01*
X00619329Y00458381D01*
X00618028Y00456838D01*
X00616764Y00455265D01*
X00615538Y00453661D01*
X00614352Y00452028D01*
X00613206Y00450367D01*
X00612100Y00448679D01*
X00611035Y00446965D01*
X00610012Y00445225D01*
X00609031Y00443461D01*
X00608093Y00441674D01*
X00607198Y00439865D01*
X00606348Y00438034D01*
X00605542Y00436184D01*
X00604781Y00434315D01*
X00604065Y00432428D01*
X00603395Y00430524D01*
X00602772Y00428605D01*
X00602194Y00426671D01*
X00601664Y00424723D01*
X00601181Y00422764D01*
X00600746Y00420793D01*
X00600358Y00418812D01*
X00600018Y00416823D01*
X00599727Y00414826D01*
X00599483Y00412822D01*
X00599289Y00410814D01*
X00599142Y00408801D01*
X00599045Y00406785D01*
X00598996Y00404767D01*
X00598996Y00402749D01*
X00599045Y00400731D01*
X00599142Y00398715D01*
X00599289Y00396702D01*
X00599483Y00394694D01*
X00599727Y00392690D01*
X00600018Y00390693D01*
X00600358Y00388704D01*
X00600746Y00386723D01*
X00601181Y00384752D01*
X00601664Y00382793D01*
X00602194Y00380845D01*
X00602772Y00378911D01*
X00603395Y00376992D01*
X00604065Y00375088D01*
X00604781Y00373201D01*
X00605542Y00371332D01*
X00606348Y00369482D01*
X00607198Y00367651D01*
X00608093Y00365842D01*
X00609031Y00364055D01*
X00610012Y00362291D01*
X00611035Y00360551D01*
X00612100Y00358837D01*
X00613206Y00357149D01*
X00614352Y00355488D01*
X00615538Y00353855D01*
X00616764Y00352251D01*
X00618028Y00350678D01*
X00619329Y00349135D01*
X00620667Y00347625D01*
X00622042Y00346147D01*
X00623452Y00344703D01*
X00544712Y00344703D02*
X00543302Y00346147D01*
X00541927Y00347625D01*
X00540589Y00349135D01*
X00539288Y00350678D01*
X00538024Y00352251D01*
X00536798Y00353855D01*
X00535612Y00355488D01*
X00534466Y00357149D01*
X00533360Y00358837D01*
X00532295Y00360551D01*
X00531272Y00362291D01*
X00530291Y00364055D01*
X00529353Y00365842D01*
X00528458Y00367651D01*
X00527608Y00369482D01*
X00526802Y00371332D01*
X00526041Y00373201D01*
X00525325Y00375088D01*
X00524655Y00376992D01*
X00524032Y00378911D01*
X00523454Y00380845D01*
X00522924Y00382793D01*
X00522441Y00384752D01*
X00522006Y00386723D01*
X00521618Y00388704D01*
X00521278Y00390693D01*
X00520987Y00392690D01*
X00520743Y00394694D01*
X00520549Y00396702D01*
X00520402Y00398715D01*
X00520305Y00400731D01*
X00520256Y00402749D01*
X00520256Y00404767D01*
X00520305Y00406785D01*
X00520402Y00408801D01*
X00520549Y00410814D01*
X00520743Y00412822D01*
X00520987Y00414826D01*
X00521278Y00416823D01*
X00521618Y00418812D01*
X00522006Y00420793D01*
X00522441Y00422764D01*
X00522924Y00424723D01*
X00523454Y00426671D01*
X00524032Y00428605D01*
X00524655Y00430524D01*
X00525325Y00432428D01*
X00526041Y00434315D01*
X00526802Y00436184D01*
X00527608Y00438034D01*
X00528458Y00439865D01*
X00529353Y00441674D01*
X00530291Y00443461D01*
X00531272Y00445225D01*
X00532295Y00446965D01*
X00533360Y00448679D01*
X00534466Y00450367D01*
X00535612Y00452028D01*
X00536798Y00453661D01*
X00538024Y00455265D01*
X00539288Y00456838D01*
X00540589Y00458381D01*
X00541927Y00459891D01*
X00543302Y00461369D01*
X00544712Y00462813D01*
X00623451Y00462813D02*
X00625331Y00464739D01*
X00627163Y00466709D01*
X00628948Y00468723D01*
X00630683Y00470780D01*
X00632368Y00472878D01*
X00634002Y00475016D01*
X00635583Y00477193D01*
X00637112Y00479408D01*
X00638587Y00481659D01*
X00640007Y00483945D01*
X00641371Y00486264D01*
X00642678Y00488616D01*
X00643929Y00490999D01*
X00645122Y00493411D01*
X00646256Y00495851D01*
X00647330Y00498319D01*
X00648345Y00500811D01*
X00649299Y00503327D01*
X00650192Y00505865D01*
X00651024Y00508425D01*
X00651793Y00511003D01*
X00652500Y00513600D01*
X00653144Y00516212D01*
X00653725Y00518840D01*
X00654242Y00521481D01*
X00654695Y00524133D01*
X00655084Y00526796D01*
X00655408Y00529467D01*
X00655668Y00532146D01*
X00655863Y00534830D01*
X00655993Y00537517D01*
X00656058Y00540208D01*
X00656058Y00542898D01*
X00655993Y00545589D01*
X00655863Y00548276D01*
X00655668Y00550960D01*
X00655408Y00553639D01*
X00655084Y00556310D01*
X00654695Y00558973D01*
X00654242Y00561625D01*
X00653725Y00564266D01*
X00653144Y00566894D01*
X00652500Y00569506D01*
X00651793Y00572103D01*
X00651024Y00574681D01*
X00650192Y00577241D01*
X00649299Y00579779D01*
X00648345Y00582295D01*
X00647330Y00584787D01*
X00646256Y00587255D01*
X00645122Y00589695D01*
X00643929Y00592107D01*
X00642678Y00594490D01*
X00641371Y00596842D01*
X00640007Y00599161D01*
X00638587Y00601447D01*
X00637112Y00603698D01*
X00635583Y00605913D01*
X00634002Y00608090D01*
X00632368Y00610228D01*
X00630683Y00612326D01*
X00628948Y00614383D01*
X00627163Y00616397D01*
X00625331Y00618367D01*
X00623451Y00620293D01*
X00702192Y00620293D02*
X00704072Y00618367D01*
X00705904Y00616397D01*
X00707689Y00614383D01*
X00709424Y00612326D01*
X00711109Y00610228D01*
X00712743Y00608090D01*
X00714324Y00605913D01*
X00715853Y00603698D01*
X00717328Y00601447D01*
X00718748Y00599161D01*
X00720112Y00596842D01*
X00721419Y00594490D01*
X00722670Y00592107D01*
X00723863Y00589695D01*
X00724997Y00587255D01*
X00726071Y00584787D01*
X00727086Y00582295D01*
X00728040Y00579779D01*
X00728933Y00577241D01*
X00729765Y00574681D01*
X00730534Y00572103D01*
X00731241Y00569506D01*
X00731885Y00566894D01*
X00732466Y00564266D01*
X00732983Y00561625D01*
X00733436Y00558973D01*
X00733825Y00556310D01*
X00734149Y00553639D01*
X00734409Y00550960D01*
X00734604Y00548276D01*
X00734734Y00545589D01*
X00734799Y00542898D01*
X00734799Y00540208D01*
X00734734Y00537517D01*
X00734604Y00534830D01*
X00734409Y00532146D01*
X00734149Y00529467D01*
X00733825Y00526796D01*
X00733436Y00524133D01*
X00732983Y00521481D01*
X00732466Y00518840D01*
X00731885Y00516212D01*
X00731241Y00513600D01*
X00730534Y00511003D01*
X00729765Y00508425D01*
X00728933Y00505865D01*
X00728040Y00503327D01*
X00727086Y00500811D01*
X00726071Y00498319D01*
X00724997Y00495851D01*
X00723863Y00493411D01*
X00722670Y00490999D01*
X00721419Y00488616D01*
X00720112Y00486264D01*
X00718748Y00483945D01*
X00717328Y00481659D01*
X00715853Y00479408D01*
X00714324Y00477193D01*
X00712743Y00475016D01*
X00711109Y00472878D01*
X00709424Y00470780D01*
X00707689Y00468723D01*
X00705904Y00466709D01*
X00704072Y00464739D01*
X00702192Y00462813D01*
X00544711Y00462813D02*
X00546591Y00464739D01*
X00548423Y00466709D01*
X00550208Y00468723D01*
X00551943Y00470780D01*
X00553628Y00472878D01*
X00555262Y00475016D01*
X00556843Y00477193D01*
X00558372Y00479408D01*
X00559847Y00481659D01*
X00561267Y00483945D01*
X00562631Y00486264D01*
X00563938Y00488616D01*
X00565189Y00490999D01*
X00566382Y00493411D01*
X00567516Y00495851D01*
X00568590Y00498319D01*
X00569605Y00500811D01*
X00570559Y00503327D01*
X00571452Y00505865D01*
X00572284Y00508425D01*
X00573053Y00511003D01*
X00573760Y00513600D01*
X00574404Y00516212D01*
X00574985Y00518840D01*
X00575502Y00521481D01*
X00575955Y00524133D01*
X00576344Y00526796D01*
X00576668Y00529467D01*
X00576928Y00532146D01*
X00577123Y00534830D01*
X00577253Y00537517D01*
X00577318Y00540208D01*
X00577318Y00542898D01*
X00577253Y00545589D01*
X00577123Y00548276D01*
X00576928Y00550960D01*
X00576668Y00553639D01*
X00576344Y00556310D01*
X00575955Y00558973D01*
X00575502Y00561625D01*
X00574985Y00564266D01*
X00574404Y00566894D01*
X00573760Y00569506D01*
X00573053Y00572103D01*
X00572284Y00574681D01*
X00571452Y00577241D01*
X00570559Y00579779D01*
X00569605Y00582295D01*
X00568590Y00584787D01*
X00567516Y00587255D01*
X00566382Y00589695D01*
X00565189Y00592107D01*
X00563938Y00594490D01*
X00562631Y00596842D01*
X00561267Y00599161D01*
X00559847Y00601447D01*
X00558372Y00603698D01*
X00556843Y00605913D01*
X00555262Y00608090D01*
X00553628Y00610228D01*
X00551943Y00612326D01*
X00550208Y00614383D01*
X00548423Y00616397D01*
X00546591Y00618367D01*
X00544711Y00620293D01*
X02972492Y02207033D02*
X02972492Y02237726D01*
X02972492Y02299112D02*
X02972492Y02421883D01*
X03033878Y02391190D02*
X03033878Y02207033D01*
X03033878Y02299112D02*
X03156650Y02299112D01*
X03218036Y02360498D02*
X03248729Y02391190D01*
X03310114Y02391190D01*
X03340807Y02360498D01*
X03340807Y02237726D01*
X03310114Y02207033D01*
X03248729Y02207033D01*
X03218036Y02237726D01*
X03156650Y02207033D02*
X03156650Y02391190D01*
X03402193Y02391190D02*
X03402193Y02237726D01*
X03432886Y02207033D01*
X03494272Y02207033D01*
X03524965Y02237726D01*
X03524965Y02391190D01*
X03586350Y02360498D02*
X03586350Y02237726D01*
X03617043Y02207033D01*
X03678429Y02207033D01*
X03709122Y02237726D01*
X03709122Y02360498D01*
X03678429Y02391190D01*
X03617043Y02391190D01*
X03586350Y02360498D01*
X03770508Y02391190D02*
X03893279Y02391190D01*
X03831894Y02391190D02*
X03831894Y02207033D01*
X04138822Y02391190D02*
X04261594Y02391190D01*
X04200208Y02391190D02*
X04200208Y02207033D01*
X04322980Y02237726D02*
X04322980Y02360498D01*
X04353673Y02391190D01*
X04415059Y02391190D01*
X04445751Y02360498D01*
X04445751Y02237726D01*
X04415059Y02207033D01*
X04353673Y02207033D01*
X04322980Y02237726D01*
X04507137Y02207033D02*
X04507137Y02391190D01*
X04629909Y02391190D02*
X04507137Y02207033D01*
X04629909Y02207033D02*
X04629909Y02391190D01*
X04875452Y02360498D02*
X04875452Y02237726D01*
X04906145Y02207033D01*
X04967531Y02207033D01*
X04998223Y02237726D01*
X04998223Y02360498D01*
X04967531Y02391190D01*
X04906145Y02391190D01*
X04875452Y02360498D01*
X05059609Y02360498D02*
X05059609Y02237726D01*
X05090302Y02207033D01*
X05182381Y02207033D01*
X05182381Y02391190D01*
X05090302Y02391190D01*
X05059609Y02360498D01*
X04796554Y02679474D02*
X04796554Y02863631D01*
X04796554Y02771553D02*
X04673782Y02771553D01*
X04612397Y02832938D02*
X04612397Y02710167D01*
X04581704Y02679474D01*
X04520318Y02679474D01*
X04489625Y02710167D01*
X04489625Y02832938D01*
X04520318Y02863631D01*
X04581704Y02863631D01*
X04612397Y02832938D01*
X04673782Y02863631D02*
X04673782Y02679474D01*
X04428239Y02863631D02*
X04305468Y02863631D01*
X04366854Y02863631D02*
X04366854Y02679474D01*
X04059925Y02679474D02*
X03937153Y02679474D01*
X03875767Y02710167D02*
X03845074Y02679474D01*
X03783689Y02679474D01*
X03752996Y02710167D01*
X03752996Y02832938D01*
X03783689Y02863631D01*
X03845074Y02863631D01*
X03875767Y02832938D01*
X03875767Y02710167D01*
X03937153Y02832938D02*
X04059925Y02710167D01*
X04059925Y02679474D01*
X04059925Y02863631D02*
X03937153Y02863631D01*
X03937153Y02832938D01*
X03691610Y02863631D02*
X03691610Y02679474D01*
X03568838Y02679474D02*
X03568838Y02863631D01*
X03507453Y02863631D02*
X03507453Y02679474D01*
X03384681Y02679474D01*
X03446067Y02771553D02*
X03507453Y02771553D01*
X03507453Y02863631D02*
X03384681Y02863631D01*
X03568838Y02679474D02*
X03691610Y02863631D01*
X03678429Y05234592D02*
X03617043Y05234592D01*
X03586350Y05265285D01*
X03586350Y05388057D01*
X03617043Y05418750D01*
X03678429Y05418750D01*
X03709122Y05388057D01*
X03709122Y05265285D01*
X03678429Y05234592D01*
X03831894Y05234592D02*
X03831894Y05418750D01*
X03893279Y05418750D02*
X03770508Y05418750D01*
X03524965Y05418750D02*
X03524965Y05265285D01*
X03494272Y05234592D01*
X03432886Y05234592D01*
X03402193Y05265285D01*
X03402193Y05418750D01*
X03340807Y05388057D02*
X03340807Y05265285D01*
X03310114Y05234592D01*
X03248729Y05234592D01*
X03218036Y05265285D01*
X03156650Y05234592D02*
X03156650Y05418750D01*
X03218036Y05388057D02*
X03248729Y05418750D01*
X03310114Y05418750D01*
X03340807Y05388057D01*
X03156650Y05326671D02*
X03033878Y05326671D01*
X02972492Y05326671D02*
X02972492Y05449442D01*
X03033878Y05418750D02*
X03033878Y05234592D01*
X02972492Y05234592D02*
X02972492Y05265285D01*
X03392555Y05834772D02*
X03515327Y05834772D01*
X03515327Y06018929D01*
X03392555Y06018929D01*
X03453941Y05926850D02*
X03515327Y05926850D01*
X03576712Y05834772D02*
X03576712Y06018929D01*
X03699484Y06018929D02*
X03576712Y05834772D01*
X03699484Y05834772D02*
X03699484Y06018929D01*
X03760870Y05988236D02*
X03791563Y06018929D01*
X03852948Y06018929D01*
X03883641Y05988236D01*
X03883641Y05865464D01*
X03852948Y05834772D01*
X03791563Y05834772D01*
X03760870Y05865464D01*
X03760870Y05988236D01*
X03945027Y05988236D02*
X04067799Y05865464D01*
X04067799Y05834772D01*
X03945027Y05834772D01*
X03945027Y05988236D02*
X03945027Y06018929D01*
X04067799Y06018929D01*
X04313342Y06018929D02*
X04436113Y06018929D01*
X04374728Y06018929D02*
X04374728Y05834772D01*
X04497499Y05865464D02*
X04497499Y05988236D01*
X04528192Y06018929D01*
X04589578Y06018929D01*
X04620271Y05988236D01*
X04620271Y05865464D01*
X04589578Y05834772D01*
X04528192Y05834772D01*
X04497499Y05865464D01*
X04681656Y05834772D02*
X04681656Y06018929D01*
X04681656Y05926850D02*
X04804428Y05926850D01*
X04804428Y05834772D02*
X04804428Y06018929D01*
X04906145Y05418750D02*
X04875452Y05388057D01*
X04875452Y05265285D01*
X04906145Y05234592D01*
X04967531Y05234592D01*
X04998223Y05265285D01*
X04998223Y05388057D01*
X04967531Y05418750D01*
X04906145Y05418750D01*
X05059609Y05388057D02*
X05059609Y05265285D01*
X05090302Y05234592D01*
X05182381Y05234592D01*
X05182381Y05418750D01*
X05090302Y05418750D01*
X05059609Y05388057D01*
X04629909Y05418750D02*
X04629909Y05234592D01*
X04507137Y05234592D02*
X04507137Y05418750D01*
X04445751Y05388057D02*
X04445751Y05265285D01*
X04415059Y05234592D01*
X04353673Y05234592D01*
X04322980Y05265285D01*
X04322980Y05388057D01*
X04353673Y05418750D01*
X04415059Y05418750D01*
X04445751Y05388057D01*
X04507137Y05234592D02*
X04629909Y05418750D01*
X04261594Y05418750D02*
X04138822Y05418750D01*
X04200208Y05418750D02*
X04200208Y05234592D01*
X06315264Y02347883D02*
X06315264Y02163726D01*
X06438035Y02347883D01*
X06438035Y02163726D01*
X06499421Y02194419D02*
X06499421Y02317190D01*
X06530114Y02347883D01*
X06591500Y02347883D01*
X06622192Y02317190D01*
X06622192Y02194419D01*
X06591500Y02163726D01*
X06530114Y02163726D01*
X06499421Y02194419D01*
X06683578Y02163726D02*
X06744964Y02163726D01*
X06714271Y02163726D02*
X06714271Y02347883D01*
X06744964Y02347883D02*
X06683578Y02347883D01*
X06806350Y02347883D02*
X06929121Y02347883D01*
X06867736Y02347883D02*
X06867736Y02163726D01*
X06990507Y02194419D02*
X06990507Y02347883D01*
X07113279Y02347883D02*
X07113279Y02194419D01*
X07082586Y02163726D01*
X07021200Y02163726D01*
X06990507Y02194419D01*
X07174664Y02163726D02*
X07174664Y02286498D01*
X07236050Y02347883D01*
X07297436Y02286498D01*
X07297436Y02163726D01*
X07358822Y02194419D02*
X07389515Y02163726D01*
X07450901Y02163726D01*
X07481593Y02194419D01*
X07481593Y02317190D01*
X07450901Y02347883D01*
X07389515Y02347883D01*
X07358822Y02317190D01*
X07297436Y02255805D02*
X07174664Y02255805D01*
X06253878Y02255805D02*
X06253878Y02286498D01*
X06223185Y02286498D01*
X06223185Y02255805D01*
X06253878Y02255805D01*
X06253878Y02194419D02*
X06253878Y02163726D01*
X06223185Y02163726D01*
X06223185Y02194419D01*
X06253878Y02194419D01*
X07599830Y00935254D02*
X07206129Y00226592D01*
X07993530Y00226592D01*
X07599830Y00935254D01*
X07678570Y00620293D02*
X07680450Y00618367D01*
X07682282Y00616397D01*
X07684067Y00614383D01*
X07685802Y00612326D01*
X07687487Y00610228D01*
X07689121Y00608090D01*
X07690702Y00605913D01*
X07692231Y00603698D01*
X07693706Y00601447D01*
X07695126Y00599161D01*
X07696490Y00596842D01*
X07697797Y00594490D01*
X07699048Y00592107D01*
X07700241Y00589695D01*
X07701375Y00587255D01*
X07702449Y00584787D01*
X07703464Y00582295D01*
X07704418Y00579779D01*
X07705311Y00577241D01*
X07706143Y00574681D01*
X07706912Y00572103D01*
X07707619Y00569506D01*
X07708263Y00566894D01*
X07708844Y00564266D01*
X07709361Y00561625D01*
X07709814Y00558973D01*
X07710203Y00556310D01*
X07710527Y00553639D01*
X07710787Y00550960D01*
X07710982Y00548276D01*
X07711112Y00545589D01*
X07711177Y00542898D01*
X07711177Y00540208D01*
X07711112Y00537517D01*
X07710982Y00534830D01*
X07710787Y00532146D01*
X07710527Y00529467D01*
X07710203Y00526796D01*
X07709814Y00524133D01*
X07709361Y00521481D01*
X07708844Y00518840D01*
X07708263Y00516212D01*
X07707619Y00513600D01*
X07706912Y00511003D01*
X07706143Y00508425D01*
X07705311Y00505865D01*
X07704418Y00503327D01*
X07703464Y00500811D01*
X07702449Y00498319D01*
X07701375Y00495851D01*
X07700241Y00493411D01*
X07699048Y00490999D01*
X07697797Y00488616D01*
X07696490Y00486264D01*
X07695126Y00483945D01*
X07693706Y00481659D01*
X07692231Y00479408D01*
X07690702Y00477193D01*
X07689121Y00475016D01*
X07687487Y00472878D01*
X07685802Y00470780D01*
X07684067Y00468723D01*
X07682282Y00466709D01*
X07680450Y00464739D01*
X07678570Y00462813D01*
X07599830Y00462813D02*
X07598420Y00461369D01*
X07597045Y00459891D01*
X07595707Y00458381D01*
X07594406Y00456838D01*
X07593142Y00455265D01*
X07591916Y00453661D01*
X07590730Y00452028D01*
X07589584Y00450367D01*
X07588478Y00448679D01*
X07587413Y00446965D01*
X07586390Y00445225D01*
X07585409Y00443461D01*
X07584471Y00441674D01*
X07583576Y00439865D01*
X07582726Y00438034D01*
X07581920Y00436184D01*
X07581159Y00434315D01*
X07580443Y00432428D01*
X07579773Y00430524D01*
X07579150Y00428605D01*
X07578572Y00426671D01*
X07578042Y00424723D01*
X07577559Y00422764D01*
X07577124Y00420793D01*
X07576736Y00418812D01*
X07576396Y00416823D01*
X07576105Y00414826D01*
X07575861Y00412822D01*
X07575667Y00410814D01*
X07575520Y00408801D01*
X07575423Y00406785D01*
X07575374Y00404767D01*
X07575374Y00402749D01*
X07575423Y00400731D01*
X07575520Y00398715D01*
X07575667Y00396702D01*
X07575861Y00394694D01*
X07576105Y00392690D01*
X07576396Y00390693D01*
X07576736Y00388704D01*
X07577124Y00386723D01*
X07577559Y00384752D01*
X07578042Y00382793D01*
X07578572Y00380845D01*
X07579150Y00378911D01*
X07579773Y00376992D01*
X07580443Y00375088D01*
X07581159Y00373201D01*
X07581920Y00371332D01*
X07582726Y00369482D01*
X07583576Y00367651D01*
X07584471Y00365842D01*
X07585409Y00364055D01*
X07586390Y00362291D01*
X07587413Y00360551D01*
X07588478Y00358837D01*
X07589584Y00357149D01*
X07590730Y00355488D01*
X07591916Y00353855D01*
X07593142Y00352251D01*
X07594406Y00350678D01*
X07595707Y00349135D01*
X07597045Y00347625D01*
X07598420Y00346147D01*
X07599830Y00344703D01*
X07521090Y00344703D02*
X07519680Y00346147D01*
X07518305Y00347625D01*
X07516967Y00349135D01*
X07515666Y00350678D01*
X07514402Y00352251D01*
X07513176Y00353855D01*
X07511990Y00355488D01*
X07510844Y00357149D01*
X07509738Y00358837D01*
X07508673Y00360551D01*
X07507650Y00362291D01*
X07506669Y00364055D01*
X07505731Y00365842D01*
X07504836Y00367651D01*
X07503986Y00369482D01*
X07503180Y00371332D01*
X07502419Y00373201D01*
X07501703Y00375088D01*
X07501033Y00376992D01*
X07500410Y00378911D01*
X07499832Y00380845D01*
X07499302Y00382793D01*
X07498819Y00384752D01*
X07498384Y00386723D01*
X07497996Y00388704D01*
X07497656Y00390693D01*
X07497365Y00392690D01*
X07497121Y00394694D01*
X07496927Y00396702D01*
X07496780Y00398715D01*
X07496683Y00400731D01*
X07496634Y00402749D01*
X07496634Y00404767D01*
X07496683Y00406785D01*
X07496780Y00408801D01*
X07496927Y00410814D01*
X07497121Y00412822D01*
X07497365Y00414826D01*
X07497656Y00416823D01*
X07497996Y00418812D01*
X07498384Y00420793D01*
X07498819Y00422764D01*
X07499302Y00424723D01*
X07499832Y00426671D01*
X07500410Y00428605D01*
X07501033Y00430524D01*
X07501703Y00432428D01*
X07502419Y00434315D01*
X07503180Y00436184D01*
X07503986Y00438034D01*
X07504836Y00439865D01*
X07505731Y00441674D01*
X07506669Y00443461D01*
X07507650Y00445225D01*
X07508673Y00446965D01*
X07509738Y00448679D01*
X07510844Y00450367D01*
X07511990Y00452028D01*
X07513176Y00453661D01*
X07514402Y00455265D01*
X07515666Y00456838D01*
X07516967Y00458381D01*
X07518305Y00459891D01*
X07519680Y00461369D01*
X07521090Y00462813D01*
X07599829Y00462813D02*
X07601709Y00464739D01*
X07603541Y00466709D01*
X07605326Y00468723D01*
X07607061Y00470780D01*
X07608746Y00472878D01*
X07610380Y00475016D01*
X07611961Y00477193D01*
X07613490Y00479408D01*
X07614965Y00481659D01*
X07616385Y00483945D01*
X07617749Y00486264D01*
X07619056Y00488616D01*
X07620307Y00490999D01*
X07621500Y00493411D01*
X07622634Y00495851D01*
X07623708Y00498319D01*
X07624723Y00500811D01*
X07625677Y00503327D01*
X07626570Y00505865D01*
X07627402Y00508425D01*
X07628171Y00511003D01*
X07628878Y00513600D01*
X07629522Y00516212D01*
X07630103Y00518840D01*
X07630620Y00521481D01*
X07631073Y00524133D01*
X07631462Y00526796D01*
X07631786Y00529467D01*
X07632046Y00532146D01*
X07632241Y00534830D01*
X07632371Y00537517D01*
X07632436Y00540208D01*
X07632436Y00542898D01*
X07632371Y00545589D01*
X07632241Y00548276D01*
X07632046Y00550960D01*
X07631786Y00553639D01*
X07631462Y00556310D01*
X07631073Y00558973D01*
X07630620Y00561625D01*
X07630103Y00564266D01*
X07629522Y00566894D01*
X07628878Y00569506D01*
X07628171Y00572103D01*
X07627402Y00574681D01*
X07626570Y00577241D01*
X07625677Y00579779D01*
X07624723Y00582295D01*
X07623708Y00584787D01*
X07622634Y00587255D01*
X07621500Y00589695D01*
X07620307Y00592107D01*
X07619056Y00594490D01*
X07617749Y00596842D01*
X07616385Y00599161D01*
X07614965Y00601447D01*
X07613490Y00603698D01*
X07611961Y00605913D01*
X07610380Y00608090D01*
X07608746Y00610228D01*
X07607061Y00612326D01*
X07605326Y00614383D01*
X07603541Y00616397D01*
X07601709Y00618367D01*
X07599829Y00620293D01*
X07521089Y00620293D02*
X07522969Y00618367D01*
X07524801Y00616397D01*
X07526586Y00614383D01*
X07528321Y00612326D01*
X07530006Y00610228D01*
X07531640Y00608090D01*
X07533221Y00605913D01*
X07534750Y00603698D01*
X07536225Y00601447D01*
X07537645Y00599161D01*
X07539009Y00596842D01*
X07540316Y00594490D01*
X07541567Y00592107D01*
X07542760Y00589695D01*
X07543894Y00587255D01*
X07544968Y00584787D01*
X07545983Y00582295D01*
X07546937Y00579779D01*
X07547830Y00577241D01*
X07548662Y00574681D01*
X07549431Y00572103D01*
X07550138Y00569506D01*
X07550782Y00566894D01*
X07551363Y00564266D01*
X07551880Y00561625D01*
X07552333Y00558973D01*
X07552722Y00556310D01*
X07553046Y00553639D01*
X07553306Y00550960D01*
X07553501Y00548276D01*
X07553631Y00545589D01*
X07553696Y00542898D01*
X07553696Y00540208D01*
X07553631Y00537517D01*
X07553501Y00534830D01*
X07553306Y00532146D01*
X07553046Y00529467D01*
X07552722Y00526796D01*
X07552333Y00524133D01*
X07551880Y00521481D01*
X07551363Y00518840D01*
X07550782Y00516212D01*
X07550138Y00513600D01*
X07549431Y00511003D01*
X07548662Y00508425D01*
X07547830Y00505865D01*
X07546937Y00503327D01*
X07545983Y00500811D01*
X07544968Y00498319D01*
X07543894Y00495851D01*
X07542760Y00493411D01*
X07541567Y00490999D01*
X07540316Y00488616D01*
X07539009Y00486264D01*
X07537645Y00483945D01*
X07536225Y00481659D01*
X07534750Y00479408D01*
X07533221Y00477193D01*
X07531640Y00475016D01*
X07530006Y00472878D01*
X07528321Y00470780D01*
X07526586Y00468723D01*
X07524801Y00466709D01*
X07522969Y00464739D01*
X07521089Y00462813D01*
X07442349Y00305332D02*
X07757310Y00305332D01*
X07678570Y00344703D02*
X07677160Y00346147D01*
X07675785Y00347625D01*
X07674447Y00349135D01*
X07673146Y00350678D01*
X07671882Y00352251D01*
X07670656Y00353855D01*
X07669470Y00355488D01*
X07668324Y00357149D01*
X07667218Y00358837D01*
X07666153Y00360551D01*
X07665130Y00362291D01*
X07664149Y00364055D01*
X07663211Y00365842D01*
X07662316Y00367651D01*
X07661466Y00369482D01*
X07660660Y00371332D01*
X07659899Y00373201D01*
X07659183Y00375088D01*
X07658513Y00376992D01*
X07657890Y00378911D01*
X07657312Y00380845D01*
X07656782Y00382793D01*
X07656299Y00384752D01*
X07655864Y00386723D01*
X07655476Y00388704D01*
X07655136Y00390693D01*
X07654845Y00392690D01*
X07654601Y00394694D01*
X07654407Y00396702D01*
X07654260Y00398715D01*
X07654163Y00400731D01*
X07654114Y00402749D01*
X07654114Y00404767D01*
X07654163Y00406785D01*
X07654260Y00408801D01*
X07654407Y00410814D01*
X07654601Y00412822D01*
X07654845Y00414826D01*
X07655136Y00416823D01*
X07655476Y00418812D01*
X07655864Y00420793D01*
X07656299Y00422764D01*
X07656782Y00424723D01*
X07657312Y00426671D01*
X07657890Y00428605D01*
X07658513Y00430524D01*
X07659183Y00432428D01*
X07659899Y00434315D01*
X07660660Y00436184D01*
X07661466Y00438034D01*
X07662316Y00439865D01*
X07663211Y00441674D01*
X07664149Y00443461D01*
X07665130Y00445225D01*
X07666153Y00446965D01*
X07667218Y00448679D01*
X07668324Y00450367D01*
X07669470Y00452028D01*
X07670656Y00453661D01*
X07671882Y00455265D01*
X07673146Y00456838D01*
X07674447Y00458381D01*
X07675785Y00459891D01*
X07677160Y00461369D01*
X07678570Y00462813D01*
X07985656Y07281710D02*
X07198255Y07281710D01*
X07591956Y07990372D01*
X07985656Y07281710D01*
X07749436Y07360450D02*
X07434475Y07360450D01*
X07513216Y07399821D02*
X07511806Y07401265D01*
X07510431Y07402743D01*
X07509093Y07404253D01*
X07507792Y07405796D01*
X07506528Y07407369D01*
X07505302Y07408973D01*
X07504116Y07410606D01*
X07502970Y07412267D01*
X07501864Y07413955D01*
X07500799Y07415669D01*
X07499776Y07417409D01*
X07498795Y07419173D01*
X07497857Y07420960D01*
X07496962Y07422769D01*
X07496112Y07424600D01*
X07495306Y07426450D01*
X07494545Y07428319D01*
X07493829Y07430206D01*
X07493159Y07432110D01*
X07492536Y07434029D01*
X07491958Y07435963D01*
X07491428Y07437911D01*
X07490945Y07439870D01*
X07490510Y07441841D01*
X07490122Y07443822D01*
X07489782Y07445811D01*
X07489491Y07447808D01*
X07489247Y07449812D01*
X07489053Y07451820D01*
X07488906Y07453833D01*
X07488809Y07455849D01*
X07488760Y07457867D01*
X07488760Y07459885D01*
X07488809Y07461903D01*
X07488906Y07463919D01*
X07489053Y07465932D01*
X07489247Y07467940D01*
X07489491Y07469944D01*
X07489782Y07471941D01*
X07490122Y07473930D01*
X07490510Y07475911D01*
X07490945Y07477882D01*
X07491428Y07479841D01*
X07491958Y07481789D01*
X07492536Y07483723D01*
X07493159Y07485642D01*
X07493829Y07487546D01*
X07494545Y07489433D01*
X07495306Y07491302D01*
X07496112Y07493152D01*
X07496962Y07494983D01*
X07497857Y07496792D01*
X07498795Y07498579D01*
X07499776Y07500343D01*
X07500799Y07502083D01*
X07501864Y07503797D01*
X07502970Y07505485D01*
X07504116Y07507146D01*
X07505302Y07508779D01*
X07506528Y07510383D01*
X07507792Y07511956D01*
X07509093Y07513499D01*
X07510431Y07515009D01*
X07511806Y07516487D01*
X07513216Y07517931D01*
X07591955Y07517931D02*
X07593835Y07519857D01*
X07595667Y07521827D01*
X07597452Y07523841D01*
X07599187Y07525898D01*
X07600872Y07527996D01*
X07602506Y07530134D01*
X07604087Y07532311D01*
X07605616Y07534526D01*
X07607091Y07536777D01*
X07608511Y07539063D01*
X07609875Y07541382D01*
X07611182Y07543734D01*
X07612433Y07546117D01*
X07613626Y07548529D01*
X07614760Y07550969D01*
X07615834Y07553437D01*
X07616849Y07555929D01*
X07617803Y07558445D01*
X07618696Y07560983D01*
X07619528Y07563543D01*
X07620297Y07566121D01*
X07621004Y07568718D01*
X07621648Y07571330D01*
X07622229Y07573958D01*
X07622746Y07576599D01*
X07623199Y07579251D01*
X07623588Y07581914D01*
X07623912Y07584585D01*
X07624172Y07587264D01*
X07624367Y07589948D01*
X07624497Y07592635D01*
X07624562Y07595326D01*
X07624562Y07598016D01*
X07624497Y07600707D01*
X07624367Y07603394D01*
X07624172Y07606078D01*
X07623912Y07608757D01*
X07623588Y07611428D01*
X07623199Y07614091D01*
X07622746Y07616743D01*
X07622229Y07619384D01*
X07621648Y07622012D01*
X07621004Y07624624D01*
X07620297Y07627221D01*
X07619528Y07629799D01*
X07618696Y07632359D01*
X07617803Y07634897D01*
X07616849Y07637413D01*
X07615834Y07639905D01*
X07614760Y07642373D01*
X07613626Y07644813D01*
X07612433Y07647225D01*
X07611182Y07649608D01*
X07609875Y07651960D01*
X07608511Y07654279D01*
X07607091Y07656565D01*
X07605616Y07658816D01*
X07604087Y07661031D01*
X07602506Y07663208D01*
X07600872Y07665346D01*
X07599187Y07667444D01*
X07597452Y07669501D01*
X07595667Y07671515D01*
X07593835Y07673485D01*
X07591955Y07675411D01*
X07670696Y07675411D02*
X07672576Y07673485D01*
X07674408Y07671515D01*
X07676193Y07669501D01*
X07677928Y07667444D01*
X07679613Y07665346D01*
X07681247Y07663208D01*
X07682828Y07661031D01*
X07684357Y07658816D01*
X07685832Y07656565D01*
X07687252Y07654279D01*
X07688616Y07651960D01*
X07689923Y07649608D01*
X07691174Y07647225D01*
X07692367Y07644813D01*
X07693501Y07642373D01*
X07694575Y07639905D01*
X07695590Y07637413D01*
X07696544Y07634897D01*
X07697437Y07632359D01*
X07698269Y07629799D01*
X07699038Y07627221D01*
X07699745Y07624624D01*
X07700389Y07622012D01*
X07700970Y07619384D01*
X07701487Y07616743D01*
X07701940Y07614091D01*
X07702329Y07611428D01*
X07702653Y07608757D01*
X07702913Y07606078D01*
X07703108Y07603394D01*
X07703238Y07600707D01*
X07703303Y07598016D01*
X07703303Y07595326D01*
X07703238Y07592635D01*
X07703108Y07589948D01*
X07702913Y07587264D01*
X07702653Y07584585D01*
X07702329Y07581914D01*
X07701940Y07579251D01*
X07701487Y07576599D01*
X07700970Y07573958D01*
X07700389Y07571330D01*
X07699745Y07568718D01*
X07699038Y07566121D01*
X07698269Y07563543D01*
X07697437Y07560983D01*
X07696544Y07558445D01*
X07695590Y07555929D01*
X07694575Y07553437D01*
X07693501Y07550969D01*
X07692367Y07548529D01*
X07691174Y07546117D01*
X07689923Y07543734D01*
X07688616Y07541382D01*
X07687252Y07539063D01*
X07685832Y07536777D01*
X07684357Y07534526D01*
X07682828Y07532311D01*
X07681247Y07530134D01*
X07679613Y07527996D01*
X07677928Y07525898D01*
X07676193Y07523841D01*
X07674408Y07521827D01*
X07672576Y07519857D01*
X07670696Y07517931D01*
X07591956Y07517931D02*
X07590546Y07516487D01*
X07589171Y07515009D01*
X07587833Y07513499D01*
X07586532Y07511956D01*
X07585268Y07510383D01*
X07584042Y07508779D01*
X07582856Y07507146D01*
X07581710Y07505485D01*
X07580604Y07503797D01*
X07579539Y07502083D01*
X07578516Y07500343D01*
X07577535Y07498579D01*
X07576597Y07496792D01*
X07575702Y07494983D01*
X07574852Y07493152D01*
X07574046Y07491302D01*
X07573285Y07489433D01*
X07572569Y07487546D01*
X07571899Y07485642D01*
X07571276Y07483723D01*
X07570698Y07481789D01*
X07570168Y07479841D01*
X07569685Y07477882D01*
X07569250Y07475911D01*
X07568862Y07473930D01*
X07568522Y07471941D01*
X07568231Y07469944D01*
X07567987Y07467940D01*
X07567793Y07465932D01*
X07567646Y07463919D01*
X07567549Y07461903D01*
X07567500Y07459885D01*
X07567500Y07457867D01*
X07567549Y07455849D01*
X07567646Y07453833D01*
X07567793Y07451820D01*
X07567987Y07449812D01*
X07568231Y07447808D01*
X07568522Y07445811D01*
X07568862Y07443822D01*
X07569250Y07441841D01*
X07569685Y07439870D01*
X07570168Y07437911D01*
X07570698Y07435963D01*
X07571276Y07434029D01*
X07571899Y07432110D01*
X07572569Y07430206D01*
X07573285Y07428319D01*
X07574046Y07426450D01*
X07574852Y07424600D01*
X07575702Y07422769D01*
X07576597Y07420960D01*
X07577535Y07419173D01*
X07578516Y07417409D01*
X07579539Y07415669D01*
X07580604Y07413955D01*
X07581710Y07412267D01*
X07582856Y07410606D01*
X07584042Y07408973D01*
X07585268Y07407369D01*
X07586532Y07405796D01*
X07587833Y07404253D01*
X07589171Y07402743D01*
X07590546Y07401265D01*
X07591956Y07399821D01*
X07670696Y07399821D02*
X07669286Y07401265D01*
X07667911Y07402743D01*
X07666573Y07404253D01*
X07665272Y07405796D01*
X07664008Y07407369D01*
X07662782Y07408973D01*
X07661596Y07410606D01*
X07660450Y07412267D01*
X07659344Y07413955D01*
X07658279Y07415669D01*
X07657256Y07417409D01*
X07656275Y07419173D01*
X07655337Y07420960D01*
X07654442Y07422769D01*
X07653592Y07424600D01*
X07652786Y07426450D01*
X07652025Y07428319D01*
X07651309Y07430206D01*
X07650639Y07432110D01*
X07650016Y07434029D01*
X07649438Y07435963D01*
X07648908Y07437911D01*
X07648425Y07439870D01*
X07647990Y07441841D01*
X07647602Y07443822D01*
X07647262Y07445811D01*
X07646971Y07447808D01*
X07646727Y07449812D01*
X07646533Y07451820D01*
X07646386Y07453833D01*
X07646289Y07455849D01*
X07646240Y07457867D01*
X07646240Y07459885D01*
X07646289Y07461903D01*
X07646386Y07463919D01*
X07646533Y07465932D01*
X07646727Y07467940D01*
X07646971Y07469944D01*
X07647262Y07471941D01*
X07647602Y07473930D01*
X07647990Y07475911D01*
X07648425Y07477882D01*
X07648908Y07479841D01*
X07649438Y07481789D01*
X07650016Y07483723D01*
X07650639Y07485642D01*
X07651309Y07487546D01*
X07652025Y07489433D01*
X07652786Y07491302D01*
X07653592Y07493152D01*
X07654442Y07494983D01*
X07655337Y07496792D01*
X07656275Y07498579D01*
X07657256Y07500343D01*
X07658279Y07502083D01*
X07659344Y07503797D01*
X07660450Y07505485D01*
X07661596Y07507146D01*
X07662782Y07508779D01*
X07664008Y07510383D01*
X07665272Y07511956D01*
X07666573Y07513499D01*
X07667911Y07515009D01*
X07669286Y07516487D01*
X07670696Y07517931D01*
X07513215Y07517931D02*
X07515095Y07519857D01*
X07516927Y07521827D01*
X07518712Y07523841D01*
X07520447Y07525898D01*
X07522132Y07527996D01*
X07523766Y07530134D01*
X07525347Y07532311D01*
X07526876Y07534526D01*
X07528351Y07536777D01*
X07529771Y07539063D01*
X07531135Y07541382D01*
X07532442Y07543734D01*
X07533693Y07546117D01*
X07534886Y07548529D01*
X07536020Y07550969D01*
X07537094Y07553437D01*
X07538109Y07555929D01*
X07539063Y07558445D01*
X07539956Y07560983D01*
X07540788Y07563543D01*
X07541557Y07566121D01*
X07542264Y07568718D01*
X07542908Y07571330D01*
X07543489Y07573958D01*
X07544006Y07576599D01*
X07544459Y07579251D01*
X07544848Y07581914D01*
X07545172Y07584585D01*
X07545432Y07587264D01*
X07545627Y07589948D01*
X07545757Y07592635D01*
X07545822Y07595326D01*
X07545822Y07598016D01*
X07545757Y07600707D01*
X07545627Y07603394D01*
X07545432Y07606078D01*
X07545172Y07608757D01*
X07544848Y07611428D01*
X07544459Y07614091D01*
X07544006Y07616743D01*
X07543489Y07619384D01*
X07542908Y07622012D01*
X07542264Y07624624D01*
X07541557Y07627221D01*
X07540788Y07629799D01*
X07539956Y07632359D01*
X07539063Y07634897D01*
X07538109Y07637413D01*
X07537094Y07639905D01*
X07536020Y07642373D01*
X07534886Y07644813D01*
X07533693Y07647225D01*
X07532442Y07649608D01*
X07531135Y07651960D01*
X07529771Y07654279D01*
X07528351Y07656565D01*
X07526876Y07658816D01*
X07525347Y07661031D01*
X07523766Y07663208D01*
X07522132Y07665346D01*
X07520447Y07667444D01*
X07518712Y07669501D01*
X07516927Y07671515D01*
X07515095Y07673485D01*
X07513215Y07675411D01*
X01017152Y07281710D02*
X00623452Y07990372D01*
X00229751Y07281710D01*
X01017152Y07281710D01*
X00780932Y07360450D02*
X00465971Y07360450D01*
X00544712Y07399821D02*
X00543302Y07401265D01*
X00541927Y07402743D01*
X00540589Y07404253D01*
X00539288Y07405796D01*
X00538024Y07407369D01*
X00536798Y07408973D01*
X00535612Y07410606D01*
X00534466Y07412267D01*
X00533360Y07413955D01*
X00532295Y07415669D01*
X00531272Y07417409D01*
X00530291Y07419173D01*
X00529353Y07420960D01*
X00528458Y07422769D01*
X00527608Y07424600D01*
X00526802Y07426450D01*
X00526041Y07428319D01*
X00525325Y07430206D01*
X00524655Y07432110D01*
X00524032Y07434029D01*
X00523454Y07435963D01*
X00522924Y07437911D01*
X00522441Y07439870D01*
X00522006Y07441841D01*
X00521618Y07443822D01*
X00521278Y07445811D01*
X00520987Y07447808D01*
X00520743Y07449812D01*
X00520549Y07451820D01*
X00520402Y07453833D01*
X00520305Y07455849D01*
X00520256Y07457867D01*
X00520256Y07459885D01*
X00520305Y07461903D01*
X00520402Y07463919D01*
X00520549Y07465932D01*
X00520743Y07467940D01*
X00520987Y07469944D01*
X00521278Y07471941D01*
X00521618Y07473930D01*
X00522006Y07475911D01*
X00522441Y07477882D01*
X00522924Y07479841D01*
X00523454Y07481789D01*
X00524032Y07483723D01*
X00524655Y07485642D01*
X00525325Y07487546D01*
X00526041Y07489433D01*
X00526802Y07491302D01*
X00527608Y07493152D01*
X00528458Y07494983D01*
X00529353Y07496792D01*
X00530291Y07498579D01*
X00531272Y07500343D01*
X00532295Y07502083D01*
X00533360Y07503797D01*
X00534466Y07505485D01*
X00535612Y07507146D01*
X00536798Y07508779D01*
X00538024Y07510383D01*
X00539288Y07511956D01*
X00540589Y07513499D01*
X00541927Y07515009D01*
X00543302Y07516487D01*
X00544712Y07517931D01*
X00623451Y07517931D02*
X00625331Y07519857D01*
X00627163Y07521827D01*
X00628948Y07523841D01*
X00630683Y07525898D01*
X00632368Y07527996D01*
X00634002Y07530134D01*
X00635583Y07532311D01*
X00637112Y07534526D01*
X00638587Y07536777D01*
X00640007Y07539063D01*
X00641371Y07541382D01*
X00642678Y07543734D01*
X00643929Y07546117D01*
X00645122Y07548529D01*
X00646256Y07550969D01*
X00647330Y07553437D01*
X00648345Y07555929D01*
X00649299Y07558445D01*
X00650192Y07560983D01*
X00651024Y07563543D01*
X00651793Y07566121D01*
X00652500Y07568718D01*
X00653144Y07571330D01*
X00653725Y07573958D01*
X00654242Y07576599D01*
X00654695Y07579251D01*
X00655084Y07581914D01*
X00655408Y07584585D01*
X00655668Y07587264D01*
X00655863Y07589948D01*
X00655993Y07592635D01*
X00656058Y07595326D01*
X00656058Y07598016D01*
X00655993Y07600707D01*
X00655863Y07603394D01*
X00655668Y07606078D01*
X00655408Y07608757D01*
X00655084Y07611428D01*
X00654695Y07614091D01*
X00654242Y07616743D01*
X00653725Y07619384D01*
X00653144Y07622012D01*
X00652500Y07624624D01*
X00651793Y07627221D01*
X00651024Y07629799D01*
X00650192Y07632359D01*
X00649299Y07634897D01*
X00648345Y07637413D01*
X00647330Y07639905D01*
X00646256Y07642373D01*
X00645122Y07644813D01*
X00643929Y07647225D01*
X00642678Y07649608D01*
X00641371Y07651960D01*
X00640007Y07654279D01*
X00638587Y07656565D01*
X00637112Y07658816D01*
X00635583Y07661031D01*
X00634002Y07663208D01*
X00632368Y07665346D01*
X00630683Y07667444D01*
X00628948Y07669501D01*
X00627163Y07671515D01*
X00625331Y07673485D01*
X00623451Y07675411D01*
X00702192Y07675411D02*
X00704072Y07673485D01*
X00705904Y07671515D01*
X00707689Y07669501D01*
X00709424Y07667444D01*
X00711109Y07665346D01*
X00712743Y07663208D01*
X00714324Y07661031D01*
X00715853Y07658816D01*
X00717328Y07656565D01*
X00718748Y07654279D01*
X00720112Y07651960D01*
X00721419Y07649608D01*
X00722670Y07647225D01*
X00723863Y07644813D01*
X00724997Y07642373D01*
X00726071Y07639905D01*
X00727086Y07637413D01*
X00728040Y07634897D01*
X00728933Y07632359D01*
X00729765Y07629799D01*
X00730534Y07627221D01*
X00731241Y07624624D01*
X00731885Y07622012D01*
X00732466Y07619384D01*
X00732983Y07616743D01*
X00733436Y07614091D01*
X00733825Y07611428D01*
X00734149Y07608757D01*
X00734409Y07606078D01*
X00734604Y07603394D01*
X00734734Y07600707D01*
X00734799Y07598016D01*
X00734799Y07595326D01*
X00734734Y07592635D01*
X00734604Y07589948D01*
X00734409Y07587264D01*
X00734149Y07584585D01*
X00733825Y07581914D01*
X00733436Y07579251D01*
X00732983Y07576599D01*
X00732466Y07573958D01*
X00731885Y07571330D01*
X00731241Y07568718D01*
X00730534Y07566121D01*
X00729765Y07563543D01*
X00728933Y07560983D01*
X00728040Y07558445D01*
X00727086Y07555929D01*
X00726071Y07553437D01*
X00724997Y07550969D01*
X00723863Y07548529D01*
X00722670Y07546117D01*
X00721419Y07543734D01*
X00720112Y07541382D01*
X00718748Y07539063D01*
X00717328Y07536777D01*
X00715853Y07534526D01*
X00714324Y07532311D01*
X00712743Y07530134D01*
X00711109Y07527996D01*
X00709424Y07525898D01*
X00707689Y07523841D01*
X00705904Y07521827D01*
X00704072Y07519857D01*
X00702192Y07517931D01*
X00623452Y07517931D02*
X00622042Y07516487D01*
X00620667Y07515009D01*
X00619329Y07513499D01*
X00618028Y07511956D01*
X00616764Y07510383D01*
X00615538Y07508779D01*
X00614352Y07507146D01*
X00613206Y07505485D01*
X00612100Y07503797D01*
X00611035Y07502083D01*
X00610012Y07500343D01*
X00609031Y07498579D01*
X00608093Y07496792D01*
X00607198Y07494983D01*
X00606348Y07493152D01*
X00605542Y07491302D01*
X00604781Y07489433D01*
X00604065Y07487546D01*
X00603395Y07485642D01*
X00602772Y07483723D01*
X00602194Y07481789D01*
X00601664Y07479841D01*
X00601181Y07477882D01*
X00600746Y07475911D01*
X00600358Y07473930D01*
X00600018Y07471941D01*
X00599727Y07469944D01*
X00599483Y07467940D01*
X00599289Y07465932D01*
X00599142Y07463919D01*
X00599045Y07461903D01*
X00598996Y07459885D01*
X00598996Y07457867D01*
X00599045Y07455849D01*
X00599142Y07453833D01*
X00599289Y07451820D01*
X00599483Y07449812D01*
X00599727Y07447808D01*
X00600018Y07445811D01*
X00600358Y07443822D01*
X00600746Y07441841D01*
X00601181Y07439870D01*
X00601664Y07437911D01*
X00602194Y07435963D01*
X00602772Y07434029D01*
X00603395Y07432110D01*
X00604065Y07430206D01*
X00604781Y07428319D01*
X00605542Y07426450D01*
X00606348Y07424600D01*
X00607198Y07422769D01*
X00608093Y07420960D01*
X00609031Y07419173D01*
X00610012Y07417409D01*
X00611035Y07415669D01*
X00612100Y07413955D01*
X00613206Y07412267D01*
X00614352Y07410606D01*
X00615538Y07408973D01*
X00616764Y07407369D01*
X00618028Y07405796D01*
X00619329Y07404253D01*
X00620667Y07402743D01*
X00622042Y07401265D01*
X00623452Y07399821D01*
X00702192Y07399821D02*
X00700782Y07401265D01*
X00699407Y07402743D01*
X00698069Y07404253D01*
X00696768Y07405796D01*
X00695504Y07407369D01*
X00694278Y07408973D01*
X00693092Y07410606D01*
X00691946Y07412267D01*
X00690840Y07413955D01*
X00689775Y07415669D01*
X00688752Y07417409D01*
X00687771Y07419173D01*
X00686833Y07420960D01*
X00685938Y07422769D01*
X00685088Y07424600D01*
X00684282Y07426450D01*
X00683521Y07428319D01*
X00682805Y07430206D01*
X00682135Y07432110D01*
X00681512Y07434029D01*
X00680934Y07435963D01*
X00680404Y07437911D01*
X00679921Y07439870D01*
X00679486Y07441841D01*
X00679098Y07443822D01*
X00678758Y07445811D01*
X00678467Y07447808D01*
X00678223Y07449812D01*
X00678029Y07451820D01*
X00677882Y07453833D01*
X00677785Y07455849D01*
X00677736Y07457867D01*
X00677736Y07459885D01*
X00677785Y07461903D01*
X00677882Y07463919D01*
X00678029Y07465932D01*
X00678223Y07467940D01*
X00678467Y07469944D01*
X00678758Y07471941D01*
X00679098Y07473930D01*
X00679486Y07475911D01*
X00679921Y07477882D01*
X00680404Y07479841D01*
X00680934Y07481789D01*
X00681512Y07483723D01*
X00682135Y07485642D01*
X00682805Y07487546D01*
X00683521Y07489433D01*
X00684282Y07491302D01*
X00685088Y07493152D01*
X00685938Y07494983D01*
X00686833Y07496792D01*
X00687771Y07498579D01*
X00688752Y07500343D01*
X00689775Y07502083D01*
X00690840Y07503797D01*
X00691946Y07505485D01*
X00693092Y07507146D01*
X00694278Y07508779D01*
X00695504Y07510383D01*
X00696768Y07511956D01*
X00698069Y07513499D01*
X00699407Y07515009D01*
X00700782Y07516487D01*
X00702192Y07517931D01*
X00544711Y07517931D02*
X00546591Y07519857D01*
X00548423Y07521827D01*
X00550208Y07523841D01*
X00551943Y07525898D01*
X00553628Y07527996D01*
X00555262Y07530134D01*
X00556843Y07532311D01*
X00558372Y07534526D01*
X00559847Y07536777D01*
X00561267Y07539063D01*
X00562631Y07541382D01*
X00563938Y07543734D01*
X00565189Y07546117D01*
X00566382Y07548529D01*
X00567516Y07550969D01*
X00568590Y07553437D01*
X00569605Y07555929D01*
X00570559Y07558445D01*
X00571452Y07560983D01*
X00572284Y07563543D01*
X00573053Y07566121D01*
X00573760Y07568718D01*
X00574404Y07571330D01*
X00574985Y07573958D01*
X00575502Y07576599D01*
X00575955Y07579251D01*
X00576344Y07581914D01*
X00576668Y07584585D01*
X00576928Y07587264D01*
X00577123Y07589948D01*
X00577253Y07592635D01*
X00577318Y07595326D01*
X00577318Y07598016D01*
X00577253Y07600707D01*
X00577123Y07603394D01*
X00576928Y07606078D01*
X00576668Y07608757D01*
X00576344Y07611428D01*
X00575955Y07614091D01*
X00575502Y07616743D01*
X00574985Y07619384D01*
X00574404Y07622012D01*
X00573760Y07624624D01*
X00573053Y07627221D01*
X00572284Y07629799D01*
X00571452Y07632359D01*
X00570559Y07634897D01*
X00569605Y07637413D01*
X00568590Y07639905D01*
X00567516Y07642373D01*
X00566382Y07644813D01*
X00565189Y07647225D01*
X00563938Y07649608D01*
X00562631Y07651960D01*
X00561267Y07654279D01*
X00559847Y07656565D01*
X00558372Y07658816D01*
X00556843Y07661031D01*
X00555262Y07663208D01*
X00553628Y07665346D01*
X00551943Y07667444D01*
X00550208Y07669501D01*
X00548423Y07671515D01*
X00546591Y07673485D01*
X00544711Y07675411D01*
D11*
X01942653Y00433100D02*
X01942653Y00341021D01*
X01942653Y00294982D02*
X01942653Y00271962D01*
X01988692Y00271962D02*
X02011712Y00294982D01*
X02011712Y00387061D01*
X02034732Y00364041D02*
X01988692Y00364041D01*
X02080771Y00364041D02*
X02080771Y00271962D01*
X02149830Y00271962D01*
X02172850Y00294982D01*
X02172850Y00364041D01*
X02218889Y00341021D02*
X02241909Y00364041D01*
X02287948Y00364041D01*
X02310968Y00341021D01*
X02310968Y00294982D01*
X02287948Y00271962D01*
X02241909Y00271962D01*
X02218889Y00294982D01*
X02218889Y00341021D01*
X02495125Y00364041D02*
X02564184Y00364041D01*
X02587204Y00341021D01*
X02564184Y00318001D01*
X02518145Y00318001D01*
X02495125Y00294982D01*
X02518145Y00271962D01*
X02587204Y00271962D01*
X02633243Y00318001D02*
X02725322Y00318001D01*
X02725322Y00294982D02*
X02725322Y00341021D01*
X02702302Y00364041D01*
X02656263Y00364041D01*
X02633243Y00341021D01*
X02633243Y00318001D01*
X02656263Y00271962D02*
X02702302Y00271962D01*
X02725322Y00294982D01*
X02771361Y00294982D02*
X02771361Y00341021D01*
X02794381Y00364041D01*
X02840420Y00364041D01*
X02863440Y00341021D01*
X02863440Y00294982D01*
X02840420Y00271962D01*
X02794381Y00271962D01*
X02771361Y00294982D01*
X02909479Y00271962D02*
X02978538Y00271962D01*
X03001558Y00294982D01*
X03001558Y00341021D01*
X02978538Y00364041D01*
X02909479Y00364041D01*
X02909479Y00248943D01*
X02932499Y00225923D01*
X02955518Y00225923D01*
X03185715Y00294982D02*
X03185715Y00387061D01*
X03208735Y00410080D01*
X03277794Y00410080D01*
X03277794Y00271962D01*
X03208735Y00271962D01*
X03185715Y00294982D01*
X03323833Y00271962D02*
X03415912Y00271962D01*
X03415912Y00410080D01*
X03323833Y00410080D01*
X03369872Y00341021D02*
X03415912Y00341021D01*
X03461951Y00271962D02*
X03554030Y00271962D01*
X03554030Y00410080D01*
X03738187Y00364041D02*
X03761207Y00364041D01*
X03807246Y00318001D01*
X03807246Y00271962D02*
X03807246Y00364041D01*
X03853285Y00341021D02*
X03876305Y00364041D01*
X03922344Y00364041D01*
X03945364Y00341021D01*
X03945364Y00294982D01*
X03922344Y00271962D01*
X03876305Y00271962D01*
X03853285Y00318001D02*
X03945364Y00318001D01*
X03991403Y00271962D02*
X04014423Y00294982D01*
X04014423Y00387061D01*
X04037442Y00364041D02*
X03991403Y00364041D01*
X04083482Y00341021D02*
X04129521Y00341021D01*
X04175560Y00341021D02*
X04175560Y00271962D01*
X04244619Y00271962D01*
X04267639Y00294982D01*
X04244619Y00318001D01*
X04175560Y00318001D01*
X04175560Y00341021D02*
X04198580Y00364041D01*
X04244619Y00364041D01*
X04106501Y00387061D02*
X04106501Y00271962D01*
X04106501Y00387061D02*
X04083482Y00410080D01*
X03853285Y00341021D02*
X03853285Y00318001D01*
X04451796Y00271962D02*
X04474816Y00294982D01*
X04474816Y00387061D01*
X04497836Y00364041D02*
X04451796Y00364041D01*
X04543875Y00341021D02*
X04566895Y00364041D01*
X04612934Y00364041D01*
X04635954Y00341021D01*
X04635954Y00294982D01*
X04612934Y00271962D01*
X04566895Y00271962D01*
X04543875Y00294982D01*
X04543875Y00341021D01*
X04681993Y00341021D02*
X04705013Y00364041D01*
X04751052Y00364041D01*
X04774072Y00341021D01*
X04774072Y00410080D02*
X04774072Y00271962D01*
X04681993Y00271962D02*
X04681993Y00341021D01*
X04958229Y00271962D02*
X05004268Y00271962D01*
X04981249Y00271962D02*
X04981249Y00410080D01*
X05004268Y00410080D01*
X05073327Y00410080D02*
X05073327Y00271962D01*
X05050308Y00271962D02*
X05096347Y00271962D01*
X05142386Y00271962D02*
X05188425Y00271962D01*
X05165406Y00271962D02*
X05165406Y00364041D01*
X05188425Y00364041D01*
X05234465Y00364041D02*
X05280504Y00364041D01*
X05257484Y00387061D02*
X05257484Y00294982D01*
X05234465Y00271962D01*
X05326543Y00294982D02*
X05349563Y00271962D01*
X05395602Y00271962D01*
X05418622Y00294982D01*
X05395602Y00341021D02*
X05349563Y00341021D01*
X05326543Y00318001D01*
X05326543Y00294982D01*
X05395602Y00341021D02*
X05418622Y00364041D01*
X05418622Y00387061D01*
X05395602Y00410080D01*
X05349563Y00410080D01*
X05326543Y00387061D01*
X05165406Y00410080D02*
X05165406Y00433100D01*
X05096347Y00410080D02*
X05073327Y00410080D01*
X05602779Y00364041D02*
X05602779Y00341021D01*
X05625799Y00341021D01*
X05625799Y00364041D01*
X05602779Y00364041D01*
X05602779Y00294982D02*
X05602779Y00271962D01*
X05625799Y00271962D01*
X05625799Y00294982D01*
X05602779Y00294982D01*
X05671838Y00294982D02*
X05671838Y00341021D01*
X05717878Y00341021D01*
X05763917Y00294982D02*
X05740897Y00271962D01*
X05694858Y00271962D01*
X05671838Y00294982D01*
X05671838Y00387061D02*
X05694858Y00410080D01*
X05740897Y00410080D01*
X05763917Y00387061D01*
X05763917Y00294982D01*
X05809956Y00271962D02*
X05809956Y00410080D01*
X05902035Y00410080D02*
X05809956Y00271962D01*
X05902035Y00271962D02*
X05902035Y00410080D01*
X05948074Y00410080D02*
X05994114Y00410080D01*
X05971094Y00410080D02*
X05971094Y00271962D01*
X05994114Y00271962D02*
X05948074Y00271962D01*
X06040153Y00271962D02*
X06040153Y00410080D01*
X06132232Y00410080D02*
X06040153Y00271962D01*
X06132232Y00271962D02*
X06132232Y00410080D01*
X06178271Y00387061D02*
X06178271Y00341021D01*
X06201291Y00318001D01*
X06270350Y00318001D01*
X06270350Y00271962D02*
X06270350Y00410080D01*
X06201291Y00410080D01*
X06178271Y00387061D01*
X06224310Y00318001D02*
X06178271Y00271962D01*
X06316389Y00271962D02*
X06316389Y00364041D01*
X06362428Y00410080D01*
X06408468Y00364041D01*
X06408468Y00271962D01*
X06454507Y00271962D02*
X06454507Y00410080D01*
X06408468Y00341021D02*
X06316389Y00341021D01*
X06454507Y00271962D02*
X06500546Y00318001D01*
X06546586Y00271962D01*
X06546586Y00410080D01*
D12*
X06539288Y00863982D02*
X06521087Y00863982D01*
X06502887Y00882183D01*
X06502887Y00973186D01*
X06575689Y00973186D02*
X06575689Y00918584D01*
X06557488Y00900383D01*
X06502887Y00900383D01*
X06611641Y00900383D02*
X06666243Y00900383D01*
X06684443Y00918584D01*
X06666243Y00936785D01*
X06611641Y00936785D01*
X06611641Y00954985D02*
X06611641Y00900383D01*
X06611641Y00954985D02*
X06629841Y00973186D01*
X06666243Y00973186D01*
X06720395Y00973186D02*
X06720395Y00918584D01*
X06738596Y00900383D01*
X06756796Y00918584D01*
X06774997Y00900383D01*
X06793197Y00918584D01*
X06793197Y00973186D01*
X06829149Y00954985D02*
X06829149Y00900383D01*
X06883751Y00900383D01*
X06901952Y00918584D01*
X06883751Y00936785D01*
X06829149Y00936785D01*
X06829149Y00954985D02*
X06847350Y00973186D01*
X06883751Y00973186D01*
X07046658Y00954985D02*
X07046658Y00918584D01*
X07064859Y00900383D01*
X07119460Y00900383D01*
X07119460Y00863982D02*
X07119460Y00973186D01*
X07064859Y00973186D01*
X07046658Y00954985D01*
X07155412Y00954985D02*
X07173613Y00973186D01*
X07210014Y00973186D01*
X07228215Y00954985D01*
X07228215Y00918584D01*
X07210014Y00900383D01*
X07173613Y00900383D01*
X07155412Y00936785D02*
X07228215Y00936785D01*
X07264167Y00936785D02*
X07336969Y00936785D01*
X07336969Y00954985D02*
X07318768Y00973186D01*
X07282367Y00973186D01*
X07264167Y00954985D01*
X07264167Y00936785D01*
X07282367Y00900383D02*
X07318768Y00900383D01*
X07336969Y00918584D01*
X07336969Y00954985D01*
X07372921Y00900383D02*
X07427523Y00954985D01*
X07445723Y00936785D02*
X07372921Y01009587D01*
X07445723Y01009587D02*
X07445723Y00900383D01*
X07155412Y00936785D02*
X07155412Y00954985D01*
X07119460Y01215344D02*
X07119460Y01288146D01*
X07064859Y01288146D01*
X07046658Y01269946D01*
X07046658Y01215344D01*
X07010706Y01233545D02*
X06992506Y01215344D01*
X06956104Y01215344D01*
X06937904Y01233545D01*
X06937904Y01269946D01*
X06956104Y01288146D01*
X06992506Y01288146D01*
X07010706Y01269946D01*
X07010706Y01233545D01*
X06901952Y01288146D02*
X06865551Y01288146D01*
X06883751Y01306347D02*
X06883751Y01233545D01*
X06865551Y01215344D01*
X06720695Y01215344D02*
X06684294Y01215344D01*
X06702494Y01215344D02*
X06702494Y01324548D01*
X06720695Y01324548D01*
X06648192Y01269946D02*
X06629991Y01288146D01*
X06593590Y01288146D01*
X06575390Y01269946D01*
X06575390Y01251745D01*
X06648192Y01251745D01*
X06648192Y01233545D02*
X06648192Y01269946D01*
X06648192Y01233545D02*
X06629991Y01215344D01*
X06593590Y01215344D01*
X06539438Y01233545D02*
X06521237Y01251745D01*
X06466635Y01251745D01*
X06466635Y01269946D02*
X06466635Y01215344D01*
X06521237Y01215344D01*
X06539438Y01233545D01*
X06521237Y01288146D02*
X06484836Y01288146D01*
X06466635Y01269946D01*
X06430683Y01288146D02*
X06394282Y01215344D01*
X06357881Y01288146D01*
X06321929Y01269946D02*
X06303728Y01288146D01*
X06267327Y01288146D01*
X06249127Y01269946D01*
X06249127Y01251745D01*
X06321929Y01251745D01*
X06321929Y01233545D02*
X06321929Y01269946D01*
X06321929Y01233545D02*
X06303728Y01215344D01*
X06267327Y01215344D01*
X06104420Y01233545D02*
X06104420Y01288146D01*
X06104420Y01233545D02*
X06086220Y01215344D01*
X06031618Y01215344D01*
X06031618Y01288146D01*
X05995666Y01288146D02*
X05941064Y01288146D01*
X05922864Y01269946D01*
X05922864Y01215344D01*
X05886912Y01233545D02*
X05868711Y01251745D01*
X05814109Y01251745D01*
X05814109Y01269946D02*
X05814109Y01215344D01*
X05868711Y01215344D01*
X05886912Y01233545D01*
X05868711Y01288146D02*
X05832310Y01288146D01*
X05814109Y01269946D01*
X05778157Y01288146D02*
X05741756Y01288146D01*
X05759957Y01306347D02*
X05759957Y01233545D01*
X05741756Y01215344D01*
X05687454Y01233545D02*
X05669253Y01215344D01*
X05687454Y01233545D02*
X05687454Y01306347D01*
X05705655Y01288146D02*
X05669253Y01288146D01*
X05633152Y01269946D02*
X05614951Y01288146D01*
X05578550Y01288146D01*
X05560349Y01269946D01*
X05560349Y01251745D01*
X05633152Y01251745D01*
X05633152Y01233545D02*
X05633152Y01269946D01*
X05633152Y01233545D02*
X05614951Y01215344D01*
X05578550Y01215344D01*
X05524397Y01215344D02*
X05524397Y01288146D01*
X05469796Y01288146D01*
X05451595Y01269946D01*
X05451595Y01215344D01*
X05415643Y01233545D02*
X05415643Y01269946D01*
X05397443Y01288146D01*
X05342841Y01288146D01*
X05342841Y01324548D02*
X05342841Y01215344D01*
X05397443Y01215344D01*
X05415643Y01233545D01*
X05306889Y01233545D02*
X05306889Y01269946D01*
X05288688Y01288146D01*
X05252287Y01288146D01*
X05234086Y01269946D01*
X05234086Y01251745D01*
X05306889Y01251745D01*
X05306889Y01233545D02*
X05288688Y01215344D01*
X05252287Y01215344D01*
X05198134Y01233545D02*
X05198134Y01269946D01*
X05179934Y01288146D01*
X05125332Y01288146D01*
X05125332Y01324548D02*
X05125332Y01215344D01*
X05179934Y01215344D01*
X05198134Y01233545D01*
X05089380Y01233545D02*
X05089380Y01215344D01*
X05089380Y01269946D02*
X05089380Y01342748D01*
X05107431Y01530305D02*
X05125632Y01548505D01*
X05125632Y01584906D01*
X05107431Y01603107D01*
X05071030Y01603107D01*
X05052829Y01584906D01*
X05052829Y01548505D01*
X05071030Y01530305D01*
X05107431Y01530305D01*
X05016877Y01584906D02*
X04980476Y01584906D01*
X04944375Y01584906D02*
X04907974Y01584906D01*
X04871872Y01584906D02*
X04871872Y01657709D01*
X04907974Y01639508D02*
X04926174Y01621308D01*
X04926174Y01530305D01*
X04871872Y01530305D02*
X04871872Y01548505D01*
X04998677Y01530305D02*
X04998677Y01621308D01*
X04980476Y01639508D01*
X04998677Y01805895D02*
X04998677Y01896898D01*
X04980476Y01915099D01*
X04980476Y01860497D02*
X05016877Y01860497D01*
X05052829Y01860497D02*
X05071030Y01878698D01*
X05107431Y01878698D01*
X05125632Y01860497D01*
X05125632Y01824096D01*
X05107431Y01805895D01*
X05071030Y01805895D01*
X05052829Y01824096D01*
X05052829Y01860497D01*
X04944375Y01860497D02*
X04907973Y01860497D01*
X04926174Y01896898D02*
X04926174Y01805895D01*
X04926174Y01896898D02*
X04907973Y01915099D01*
X04763117Y01878698D02*
X04726716Y01878698D01*
X04744917Y01896898D02*
X04744917Y01824096D01*
X04726716Y01805895D01*
X04690615Y01805895D02*
X04690615Y01915099D01*
X04672414Y01878698D02*
X04636013Y01878698D01*
X04617812Y01860497D01*
X04617812Y01805895D01*
X04581860Y01824096D02*
X04581860Y01860497D01*
X04563660Y01878698D01*
X04527258Y01878698D01*
X04509058Y01860497D01*
X04509058Y01842296D01*
X04581860Y01842296D01*
X04581860Y01824096D02*
X04563660Y01805895D01*
X04527258Y01805895D01*
X04672414Y01878698D02*
X04690615Y01860497D01*
X04364352Y01860497D02*
X04346151Y01878698D01*
X04309750Y01878698D01*
X04291549Y01860497D01*
X04291549Y01805895D01*
X04255597Y01824096D02*
X04255597Y01860497D01*
X04237397Y01878698D01*
X04200996Y01878698D01*
X04182795Y01860497D01*
X04182795Y01842296D01*
X04255597Y01842296D01*
X04255597Y01824096D02*
X04237397Y01805895D01*
X04200996Y01805895D01*
X04146843Y01824096D02*
X04128642Y01842296D01*
X04074041Y01842296D01*
X04074041Y01860497D02*
X04074041Y01805895D01*
X04128642Y01805895D01*
X04146843Y01824096D01*
X04128642Y01878698D02*
X04092241Y01878698D01*
X04074041Y01860497D01*
X04038089Y01878698D02*
X04001688Y01878698D01*
X04019888Y01896898D02*
X04019888Y01824096D01*
X04001688Y01805895D01*
X03965586Y01805895D02*
X03965586Y01915099D01*
X03965586Y01878698D02*
X03910984Y01878698D01*
X03892784Y01860497D01*
X03892784Y01824096D01*
X03910984Y01805895D01*
X03965586Y01805895D01*
X03856832Y01824096D02*
X03856832Y01860497D01*
X03838631Y01878698D01*
X03802230Y01878698D01*
X03784029Y01860497D01*
X03784029Y01842296D01*
X03856832Y01842296D01*
X03856832Y01824096D02*
X03838631Y01805895D01*
X03802230Y01805895D01*
X03748077Y01824096D02*
X03748077Y01860497D01*
X03729877Y01878698D01*
X03675275Y01878698D01*
X03675275Y01915099D02*
X03675275Y01805895D01*
X03729877Y01805895D01*
X03748077Y01824096D01*
X03530569Y01824096D02*
X03512368Y01842296D01*
X03457766Y01842296D01*
X03457766Y01860497D02*
X03457766Y01805895D01*
X03512368Y01805895D01*
X03530569Y01824096D01*
X03512368Y01878698D02*
X03475967Y01878698D01*
X03457766Y01860497D01*
X03421814Y01878698D02*
X03367213Y01878698D01*
X03349012Y01860497D01*
X03349012Y01805895D01*
X03313060Y01824096D02*
X03313060Y01860497D01*
X03294859Y01878698D01*
X03240258Y01878698D01*
X03240258Y01915099D02*
X03240258Y01805895D01*
X03294859Y01805895D01*
X03313060Y01824096D01*
X03421814Y01805895D02*
X03421814Y01878698D01*
X03095551Y01878698D02*
X03095551Y01824096D01*
X03077351Y01805895D01*
X03059150Y01824096D01*
X03040950Y01805895D01*
X03022749Y01824096D01*
X03022749Y01878698D01*
X02968597Y01878698D02*
X02932195Y01878698D01*
X02913995Y01860497D01*
X02913995Y01805895D01*
X02968597Y01805895D01*
X02986797Y01824096D01*
X02968597Y01842296D01*
X02913995Y01842296D01*
X02878043Y01805895D02*
X02841642Y01805895D01*
X02859842Y01805895D02*
X02859842Y01878698D01*
X02878043Y01878698D01*
X02859842Y01915099D02*
X02859842Y01933299D01*
X02805540Y01878698D02*
X02769139Y01878698D01*
X02787339Y01896898D02*
X02787339Y01824096D01*
X02769139Y01805895D01*
X02624283Y01824096D02*
X02606082Y01842296D01*
X02551481Y01842296D01*
X02551481Y01860497D02*
X02551481Y01805895D01*
X02606082Y01805895D01*
X02624283Y01824096D01*
X02606082Y01878698D02*
X02569681Y01878698D01*
X02551481Y01860497D01*
X02515529Y01878698D02*
X02479127Y01878698D01*
X02497328Y01896898D02*
X02497328Y01824096D01*
X02479127Y01805895D01*
X02334271Y01805895D02*
X02297870Y01805895D01*
X02316071Y01805895D02*
X02316071Y01915099D01*
X02334271Y01915099D01*
X02261769Y01860497D02*
X02243568Y01878698D01*
X02207167Y01878698D01*
X02188966Y01860497D01*
X02188966Y01842296D01*
X02261769Y01842296D01*
X02261769Y01824096D02*
X02261769Y01860497D01*
X02261769Y01824096D02*
X02243568Y01805895D01*
X02207167Y01805895D01*
X02153014Y01824096D02*
X02134814Y01842296D01*
X02080212Y01842296D01*
X02080212Y01860497D02*
X02080212Y01805895D01*
X02134814Y01805895D01*
X02153014Y01824096D01*
X02134814Y01878698D02*
X02098413Y01878698D01*
X02080212Y01860497D01*
X02044260Y01860497D02*
X02026059Y01878698D01*
X01971458Y01878698D01*
X01935506Y01878698D02*
X01899105Y01878698D01*
X01917305Y01896898D02*
X01917305Y01824096D01*
X01899105Y01805895D01*
X01971458Y01824096D02*
X01989658Y01842296D01*
X02026059Y01842296D01*
X02044260Y01860497D01*
X02044260Y01805895D02*
X01989658Y01805895D01*
X01971458Y01824096D01*
X01754249Y01805895D02*
X01681446Y01805895D01*
X01717847Y01805895D02*
X01717847Y01915099D01*
X01754249Y01878698D01*
X01645494Y01896898D02*
X01627294Y01915099D01*
X01590892Y01915099D01*
X01572692Y01896898D01*
X01645494Y01824096D01*
X01627294Y01805895D01*
X01590892Y01805895D01*
X01572692Y01824096D01*
X01572692Y01896898D01*
X01645494Y01896898D02*
X01645494Y01824096D01*
X01427986Y01805895D02*
X01427986Y01878698D01*
X01409785Y01878698D01*
X01391585Y01860497D01*
X01373384Y01878698D01*
X01355183Y01860497D01*
X01355183Y01805895D01*
X01319231Y01805895D02*
X01282830Y01805895D01*
X01301031Y01805895D02*
X01301031Y01878698D01*
X01319231Y01878698D01*
X01301031Y01915099D02*
X01301031Y01933299D01*
X01246728Y01878698D02*
X01192127Y01878698D01*
X01173926Y01860497D01*
X01173926Y01805895D01*
X01137974Y01824096D02*
X01119774Y01805895D01*
X01065172Y01805895D01*
X01065172Y01878698D01*
X01029220Y01878698D02*
X00992819Y01878698D01*
X01011019Y01896898D02*
X01011019Y01824096D01*
X00992819Y01805895D01*
X00956717Y01824096D02*
X00956717Y01860497D01*
X00938516Y01878698D01*
X00902115Y01878698D01*
X00883915Y01860497D01*
X00883915Y01842296D01*
X00956717Y01842296D01*
X00956717Y01824096D02*
X00938516Y01805895D01*
X00902115Y01805895D01*
X00847963Y01805895D02*
X00793361Y01805895D01*
X00775160Y01824096D01*
X00793361Y01842296D01*
X00829762Y01842296D01*
X00847963Y01860497D01*
X00829762Y01878698D01*
X00775160Y01878698D01*
X00739208Y01860497D02*
X00739208Y01933299D01*
X00739208Y01824096D02*
X00739208Y01805895D01*
X01137974Y01824096D02*
X01137974Y01878698D01*
X01246728Y01878698D02*
X01246728Y01805895D01*
X01391585Y01805895D02*
X01391585Y01860497D01*
X04364352Y01915099D02*
X04364352Y01805895D01*
X05089380Y01027788D02*
X05089380Y00954985D01*
X05125332Y00954985D02*
X05125332Y00900383D01*
X05089380Y00900383D02*
X05089380Y00918584D01*
X05125332Y00954985D02*
X05143533Y00973186D01*
X05198134Y00973186D01*
X05198134Y00900383D01*
X05234086Y00936785D02*
X05306889Y00936785D01*
X05306889Y00954985D02*
X05288688Y00973186D01*
X05252287Y00973186D01*
X05234086Y00954985D01*
X05234086Y00936785D01*
X05252287Y00900383D02*
X05288688Y00900383D01*
X05306889Y00918584D01*
X05306889Y00954985D01*
X05342916Y00973186D02*
X05361116Y00973186D01*
X05397517Y00936785D01*
X05397517Y00973186D02*
X05397517Y00900383D01*
X05433469Y00900383D02*
X05488071Y00900383D01*
X05506272Y00918584D01*
X05506272Y00954985D01*
X05488071Y00973186D01*
X05433469Y00973186D01*
X05433469Y01009587D02*
X05433469Y00900383D01*
X05542373Y00900383D02*
X05578774Y00900383D01*
X05560574Y00900383D02*
X05560574Y01009587D01*
X05578774Y01009587D01*
X05633077Y01009587D02*
X05633077Y01027788D01*
X05633077Y00973186D02*
X05633077Y00900383D01*
X05651277Y00900383D02*
X05614876Y00900383D01*
X05687229Y00900383D02*
X05687229Y00954985D01*
X05705430Y00973186D01*
X05741831Y00973186D01*
X05760032Y00954985D01*
X05795984Y00973186D02*
X05850585Y00973186D01*
X05868786Y00954985D01*
X05868786Y00918584D01*
X05850585Y00900383D01*
X05795984Y00900383D01*
X05760032Y00900383D02*
X05760032Y01009587D01*
X05651277Y00973186D02*
X05633077Y00973186D01*
X06013492Y00954985D02*
X06013492Y00900383D01*
X06049893Y00900383D02*
X06049893Y00954985D01*
X06031693Y00973186D01*
X06013492Y00954985D01*
X06049893Y00954985D02*
X06068094Y00973186D01*
X06086295Y00973186D01*
X06086295Y00900383D01*
X06122247Y00918584D02*
X06122247Y00954985D01*
X06140447Y00973186D01*
X06176848Y00973186D01*
X06195049Y00954985D01*
X06195049Y00918584D01*
X06176848Y00900383D01*
X06140447Y00900383D01*
X06122247Y00918584D01*
X06231076Y00973186D02*
X06249276Y00973186D01*
X06285677Y00936785D01*
X06285677Y00973186D02*
X06285677Y00900383D01*
X06339980Y00900383D02*
X06339980Y00991386D01*
X06321779Y01009587D01*
X06321779Y00954985D02*
X06358180Y00954985D01*
X05995666Y01215344D02*
X05995666Y01288146D01*
X05977540Y01493904D02*
X05977540Y01603107D01*
X05922939Y01603107D01*
X05904738Y01584906D01*
X05904738Y01548505D01*
X05922939Y01530305D01*
X05977540Y01530305D01*
X05868786Y01548505D02*
X05868786Y01584906D01*
X05850586Y01603107D01*
X05814184Y01603107D01*
X05795984Y01584906D01*
X05795984Y01548505D01*
X05814184Y01530305D01*
X05850586Y01530305D01*
X05868786Y01548505D01*
X05760032Y01548505D02*
X05760032Y01603107D01*
X05760032Y01548505D02*
X05741831Y01530305D01*
X05723631Y01548505D01*
X05705430Y01530305D01*
X05687230Y01548505D01*
X05687230Y01603107D01*
X05651278Y01584906D02*
X05651278Y01548505D01*
X05633077Y01530305D01*
X05596676Y01530305D01*
X05578475Y01566706D02*
X05651278Y01566706D01*
X05651278Y01584906D02*
X05633077Y01603107D01*
X05596676Y01603107D01*
X05578475Y01584906D01*
X05578475Y01566706D01*
X05542523Y01566706D02*
X05506122Y01603107D01*
X05487922Y01603107D01*
X05451895Y01584906D02*
X05451895Y01548505D01*
X05433694Y01530305D01*
X05397293Y01530305D01*
X05379092Y01566706D02*
X05451895Y01566706D01*
X05451895Y01584906D02*
X05433694Y01603107D01*
X05397293Y01603107D01*
X05379092Y01584906D01*
X05379092Y01566706D01*
X05343140Y01584906D02*
X05324940Y01603107D01*
X05270338Y01603107D01*
X05270338Y01639508D02*
X05270338Y01530305D01*
X05324940Y01530305D01*
X05343140Y01548505D01*
X05343140Y01584906D01*
X05542523Y01603107D02*
X05542523Y01530305D01*
X05760032Y01769494D02*
X05760032Y01878698D01*
X05705430Y01878698D01*
X05687229Y01860497D01*
X05687229Y01824096D01*
X05705430Y01805895D01*
X05760032Y01805895D01*
X05651277Y01824096D02*
X05633077Y01805895D01*
X05596676Y01805895D01*
X05578475Y01824096D01*
X05578475Y01860497D01*
X05596676Y01878698D01*
X05633077Y01878698D01*
X05651277Y01860497D01*
X05651277Y01824096D01*
X05542523Y01824096D02*
X05524323Y01805895D01*
X05506122Y01824096D01*
X05487921Y01805895D01*
X05469721Y01824096D01*
X05469721Y01878698D01*
X05433769Y01860497D02*
X05415568Y01878698D01*
X05379167Y01878698D01*
X05360967Y01860497D01*
X05360967Y01842296D01*
X05433769Y01842296D01*
X05433769Y01824096D02*
X05433769Y01860497D01*
X05433769Y01824096D02*
X05415568Y01805895D01*
X05379167Y01805895D01*
X05325015Y01805895D02*
X05325015Y01878698D01*
X05288613Y01878698D02*
X05270413Y01878698D01*
X05288613Y01878698D02*
X05325015Y01842296D01*
X05542523Y01824096D02*
X05542523Y01878698D01*
X05904888Y01824096D02*
X05923088Y01824096D01*
X05923088Y01805895D01*
X05904888Y01805895D01*
X05904888Y01824096D01*
X05904888Y01805895D02*
X05941289Y01769494D01*
X05977241Y01787695D02*
X05977241Y01878698D01*
X06031843Y01878698D01*
X06050043Y01860497D01*
X06050043Y01824096D01*
X06031843Y01805895D01*
X05977241Y01805895D01*
X05977241Y01787695D02*
X05995441Y01769494D01*
X06013642Y01769494D01*
X06085995Y01805895D02*
X06085995Y01860497D01*
X06104196Y01878698D01*
X06158797Y01878698D01*
X06158797Y01805895D01*
X06194899Y01805895D02*
X06231300Y01805895D01*
X06213100Y01805895D02*
X06213100Y01878698D01*
X06231300Y01878698D01*
X06267252Y01860497D02*
X06267252Y01805895D01*
X06267252Y01860497D02*
X06285453Y01878698D01*
X06321854Y01878698D01*
X06340055Y01860497D01*
X06376007Y01878698D02*
X06430608Y01878698D01*
X06448809Y01860497D01*
X06448809Y01824096D01*
X06430608Y01805895D01*
X06376007Y01805895D01*
X06340055Y01805895D02*
X06340055Y01915099D01*
X06213100Y01915099D02*
X06213100Y01933299D01*
X06484761Y01878698D02*
X06484761Y01805895D01*
X06539363Y01805895D01*
X06557563Y01824096D01*
X06557563Y01878698D01*
X06593515Y01860497D02*
X06611716Y01878698D01*
X06648117Y01878698D01*
X06666318Y01860497D01*
X06666318Y01824096D01*
X06648117Y01805895D01*
X06611716Y01805895D01*
X06593515Y01824096D01*
X06593515Y01860497D01*
X06702419Y01878698D02*
X06738820Y01878698D01*
X06720620Y01896898D02*
X06720620Y01824096D01*
X06702419Y01805895D01*
X06702494Y01621308D02*
X06702494Y01548505D01*
X06684294Y01530305D01*
X06684294Y01603107D02*
X06720695Y01603107D01*
X06756647Y01584906D02*
X06774847Y01603107D01*
X06811249Y01603107D01*
X06829449Y01584906D01*
X06829449Y01548505D01*
X06811249Y01530305D01*
X06774847Y01530305D01*
X06756647Y01548505D01*
X06756647Y01584906D01*
X06865401Y01584906D02*
X06865401Y01530305D01*
X06865401Y01584906D02*
X06883602Y01603107D01*
X06920003Y01603107D01*
X06938203Y01584906D01*
X06938203Y01530305D02*
X06938203Y01639508D01*
X07101260Y01639508D02*
X07101260Y01530305D01*
X07119461Y01530305D02*
X07083059Y01530305D01*
X07155562Y01530305D02*
X07191963Y01530305D01*
X07173763Y01530305D02*
X07173763Y01639508D01*
X07191963Y01639508D01*
X07246266Y01639508D02*
X07246266Y01657709D01*
X07246266Y01603107D02*
X07246266Y01530305D01*
X07264466Y01530305D02*
X07228065Y01530305D01*
X07300568Y01530305D02*
X07318768Y01548505D01*
X07318768Y01621308D01*
X07300568Y01603107D02*
X07336969Y01603107D01*
X07372921Y01621308D02*
X07391122Y01639508D01*
X07427523Y01639508D01*
X07445723Y01621308D01*
X07445723Y01603107D01*
X07427523Y01584906D01*
X07391122Y01584906D01*
X07372921Y01566706D01*
X07372921Y01548505D01*
X07391122Y01530305D01*
X07427523Y01530305D01*
X07445723Y01548505D01*
X07264466Y01603107D02*
X07246266Y01603107D01*
X07119461Y01639508D02*
X07101260Y01639508D01*
X07101110Y01805895D02*
X07082910Y01824096D01*
X07082910Y01860497D01*
X07101110Y01878698D01*
X07137511Y01878698D01*
X07155712Y01860497D01*
X07155712Y01824096D01*
X07137511Y01805895D01*
X07101110Y01805895D01*
X07046958Y01805895D02*
X07046958Y01878698D01*
X07046958Y01842296D02*
X07010556Y01878698D01*
X06992356Y01878698D01*
X06956329Y01860497D02*
X06938128Y01878698D01*
X06901727Y01878698D01*
X06883527Y01860497D01*
X06883527Y01842296D01*
X06956329Y01842296D01*
X06956329Y01824096D02*
X06956329Y01860497D01*
X06956329Y01824096D02*
X06938128Y01805895D01*
X06901727Y01805895D01*
X07191814Y01860497D02*
X07228215Y01860497D01*
X07264167Y01860497D02*
X07264167Y01842296D01*
X07336969Y01842296D01*
X07336969Y01824096D02*
X07336969Y01860497D01*
X07318768Y01878698D01*
X07282367Y01878698D01*
X07264167Y01860497D01*
X07282367Y01805895D02*
X07318768Y01805895D01*
X07336969Y01824096D01*
X07372921Y01824096D02*
X07391122Y01805895D01*
X07445723Y01805895D01*
X07445723Y01915099D01*
X07391122Y01915099D01*
X07372921Y01896898D01*
X07372921Y01878698D01*
X07391122Y01860497D01*
X07445723Y01860497D01*
X07391122Y01860497D02*
X07372921Y01842296D01*
X07372921Y01824096D01*
X07210014Y01805895D02*
X07210014Y01896898D01*
X07191814Y01915099D01*
X07391122Y01324548D02*
X07445723Y01324548D01*
X07445723Y01215344D01*
X07391122Y01215344D01*
X07372921Y01233545D01*
X07372921Y01306347D01*
X07391122Y01324548D01*
X07336969Y01269946D02*
X07336969Y01233545D01*
X07318768Y01215344D01*
X07282367Y01215344D01*
X07264167Y01233545D01*
X07264167Y01269946D01*
X07282367Y01288146D01*
X07318768Y01288146D01*
X07336969Y01269946D01*
X06539438Y01548505D02*
X06521237Y01566706D01*
X06466635Y01566706D01*
X06466635Y01584906D02*
X06466635Y01530305D01*
X06521237Y01530305D01*
X06539438Y01548505D01*
X06521237Y01603107D02*
X06484836Y01603107D01*
X06466635Y01584906D01*
X06430683Y01584906D02*
X06394282Y01584906D01*
X06358180Y01603107D02*
X06321779Y01603107D01*
X06339980Y01621308D02*
X06339980Y01548505D01*
X06321779Y01530305D01*
X06285678Y01548505D02*
X06285678Y01584906D01*
X06267477Y01603107D01*
X06231076Y01603107D01*
X06212875Y01584906D01*
X06212875Y01566706D01*
X06285678Y01566706D01*
X06285678Y01548505D02*
X06267477Y01530305D01*
X06231076Y01530305D01*
X06176923Y01530305D02*
X06176923Y01603107D01*
X06140522Y01603107D02*
X06122322Y01603107D01*
X06140522Y01603107D02*
X06176923Y01566706D01*
X06394282Y01639508D02*
X06412483Y01621308D01*
X06412483Y01530305D01*
X08269925Y01753091D02*
X08269925Y01777859D01*
X08294693Y01802626D01*
X08418532Y01802626D01*
X08418532Y01848561D02*
X08393764Y01848561D01*
X08393764Y01873328D01*
X08418532Y01873328D01*
X08418532Y01848561D01*
X08344228Y01848561D02*
X08319461Y01848561D01*
X08319461Y01873328D01*
X08344228Y01873328D01*
X08344228Y01848561D01*
X08319461Y01802626D02*
X08319461Y01728323D01*
X08344228Y01703555D01*
X08418532Y01703555D01*
X08393764Y01657621D02*
X08418532Y01632853D01*
X08418532Y01558549D01*
X08468068Y01558549D02*
X08319461Y01558549D01*
X08319461Y01632853D01*
X08344228Y01657621D01*
X08393764Y01657621D01*
X08418532Y01367609D02*
X08418532Y01293305D01*
X08393764Y01268538D01*
X08344228Y01268538D01*
X08319461Y01293305D01*
X08319461Y01367609D01*
X08468068Y01367609D01*
X08393764Y01222603D02*
X08368996Y01222603D01*
X08368996Y01123532D01*
X08344228Y01123532D02*
X08393764Y01123532D01*
X08418532Y01148300D01*
X08418532Y01197835D01*
X08393764Y01222603D01*
X08319461Y01197835D02*
X08319461Y01148300D01*
X08344228Y01123532D01*
X08319461Y01077597D02*
X08393764Y01077597D01*
X08418532Y01052830D01*
X08418532Y00978526D01*
X08319461Y00978526D01*
X08319461Y00932592D02*
X08319461Y00858288D01*
X08344228Y00833520D01*
X08393764Y00833520D01*
X08418532Y00858288D01*
X08418532Y00932592D01*
X08294693Y00932592D01*
X08269925Y00907824D01*
X08269925Y00883056D01*
X08319461Y00786385D02*
X08319461Y00736850D01*
X08319461Y00761617D02*
X08418532Y00761617D01*
X08418532Y00736850D01*
X08418532Y00690915D02*
X08418532Y00616612D01*
X08393764Y00591844D01*
X08368996Y00616612D01*
X08368996Y00666148D01*
X08344228Y00690915D01*
X08319461Y00666148D01*
X08319461Y00591844D01*
X08368996Y00545910D02*
X08368996Y00446838D01*
X08344228Y00446838D02*
X08393764Y00446838D01*
X08418532Y00471606D01*
X08418532Y00521142D01*
X08393764Y00545910D01*
X08368996Y00545910D01*
X08319461Y00521142D02*
X08319461Y00471606D01*
X08344228Y00446838D01*
X08344228Y00400904D02*
X08443300Y00400904D01*
X08468068Y00376136D01*
X08468068Y00301832D01*
X08319461Y00301832D01*
X08319461Y00376136D01*
X08344228Y00400904D01*
X08468068Y00761617D02*
X08492836Y00761617D01*
X08468068Y02066069D02*
X08319461Y02066069D01*
X08368996Y02066069D02*
X08368996Y02140373D01*
X08393764Y02165141D01*
X08443300Y02165141D01*
X08468068Y02140373D01*
X08468068Y02066069D01*
X08418532Y02211075D02*
X08319461Y02211075D01*
X08368996Y02211075D02*
X08418532Y02260611D01*
X08418532Y02285379D01*
X08418532Y02331913D02*
X08344228Y02331913D01*
X08319461Y02356681D01*
X08319461Y02430985D01*
X08418532Y02430985D01*
X08393764Y02476919D02*
X08368996Y02501687D01*
X08368996Y02551223D01*
X08344228Y02575990D01*
X08319461Y02551223D01*
X08319461Y02476919D01*
X08393764Y02476919D02*
X08418532Y02501687D01*
X08418532Y02575990D01*
X08418532Y02646693D02*
X08418532Y02696228D01*
X08393764Y02720996D01*
X08319461Y02720996D01*
X08319461Y02646693D01*
X08344228Y02621925D01*
X08368996Y02646693D01*
X08368996Y02720996D01*
X08344228Y02791698D02*
X08319461Y02791698D01*
X08319461Y02816466D01*
X08344228Y02816466D01*
X08344228Y02791698D01*
X08319461Y02816466D02*
X08269925Y02766930D01*
X08319461Y03008607D02*
X08319461Y03082910D01*
X08344228Y03107678D01*
X08368996Y03107678D01*
X08393764Y03082910D01*
X08393764Y03008607D01*
X08319461Y03008607D02*
X08468068Y03008607D01*
X08468068Y03082910D01*
X08443300Y03107678D01*
X08418532Y03107678D01*
X08393764Y03082910D01*
X08418532Y03153613D02*
X08344228Y03153613D01*
X08319461Y03178380D01*
X08319461Y03252684D01*
X08418532Y03252684D01*
X08418532Y03298618D02*
X08418532Y03323386D01*
X08319461Y03323386D01*
X08319461Y03298618D02*
X08319461Y03348154D01*
X08319461Y03395289D02*
X08319461Y03444825D01*
X08319461Y03420057D02*
X08468068Y03420057D01*
X08468068Y03395289D01*
X08468068Y03323386D02*
X08492836Y03323386D01*
X08418532Y03491959D02*
X08418532Y03541495D01*
X08443300Y03516727D02*
X08344228Y03516727D01*
X08319461Y03541495D01*
X08319461Y03733636D02*
X08319461Y03807939D01*
X08344228Y03832707D01*
X08393764Y03832707D01*
X08418532Y03807939D01*
X08418532Y03733636D01*
X08468068Y03733636D02*
X08319461Y03733636D01*
X08344228Y03878641D02*
X08319461Y03903409D01*
X08319461Y03977713D01*
X08294693Y03977713D02*
X08269925Y03952945D01*
X08269925Y03928177D01*
X08294693Y03977713D02*
X08418532Y03977713D01*
X08418532Y04023647D02*
X08393764Y04023647D01*
X08393764Y04048415D01*
X08418532Y04048415D01*
X08418532Y04023647D01*
X08344228Y04023647D02*
X08344228Y04048415D01*
X08319461Y04048415D01*
X08319461Y04023647D01*
X08344228Y04023647D01*
X08344228Y03878641D02*
X08418532Y03878641D01*
X08468068Y04241156D02*
X08319461Y04241156D01*
X08319461Y04315460D01*
X08344228Y04340227D01*
X08443300Y04340227D01*
X08468068Y04315460D01*
X08468068Y04241156D01*
X08468068Y04386162D02*
X08468068Y04435697D01*
X08468068Y04410930D02*
X08319461Y04410930D01*
X08319461Y04435697D02*
X08319461Y04386162D01*
X08319461Y04532368D02*
X08393764Y04532368D01*
X08443300Y04581904D01*
X08468068Y04581904D01*
X08468068Y04627838D02*
X08319461Y04627838D01*
X08319461Y04726909D01*
X08319461Y04772844D02*
X08319461Y04822379D01*
X08319461Y04797612D02*
X08468068Y04797612D01*
X08468068Y04772844D01*
X08468068Y04726909D02*
X08468068Y04627838D01*
X08393764Y04627838D02*
X08393764Y04677374D01*
X08393764Y04532368D02*
X08443300Y04482832D01*
X08468068Y04482832D01*
X08393764Y04869514D02*
X08418532Y04894282D01*
X08418532Y04943818D01*
X08393764Y04968586D01*
X08368996Y04968586D01*
X08368996Y04869514D01*
X08344228Y04869514D02*
X08393764Y04869514D01*
X08344228Y04869514D02*
X08319461Y04894282D01*
X08319461Y04943818D01*
X08344228Y05014520D02*
X08319461Y05039288D01*
X08319461Y05113592D01*
X08344228Y05184294D02*
X08319461Y05209062D01*
X08344228Y05184294D02*
X08443300Y05184294D01*
X08418532Y05159526D02*
X08418532Y05209062D01*
X08418532Y05256196D02*
X08319461Y05256196D01*
X08368996Y05256196D02*
X08418532Y05305732D01*
X08418532Y05330500D01*
X08393764Y05377034D02*
X08344228Y05377034D01*
X08319461Y05401802D01*
X08319461Y05451338D01*
X08344228Y05476106D01*
X08393764Y05476106D01*
X08418532Y05451338D01*
X08418532Y05401802D01*
X08393764Y05377034D01*
X08418532Y05522040D02*
X08319461Y05522040D01*
X08418532Y05522040D02*
X08418532Y05596344D01*
X08393764Y05621112D01*
X08319461Y05621112D01*
X08319461Y05667046D02*
X08319461Y05716582D01*
X08319461Y05691814D02*
X08418532Y05691814D01*
X08418532Y05667046D01*
X08468068Y05691814D02*
X08492836Y05691814D01*
X08418532Y05788484D02*
X08393764Y05763717D01*
X08344228Y05763717D01*
X08319461Y05788484D01*
X08319461Y05862788D01*
X08319461Y05908722D02*
X08319461Y05983026D01*
X08344228Y06007794D01*
X08368996Y05983026D01*
X08368996Y05933490D01*
X08393764Y05908722D01*
X08418532Y05933490D01*
X08418532Y06007794D01*
X08344228Y06053728D02*
X08344228Y06078496D01*
X08319461Y06078496D01*
X08319461Y06053728D01*
X08344228Y06053728D01*
X08344228Y06126231D02*
X08319461Y06150999D01*
X08319461Y06225302D01*
X08344228Y06271237D02*
X08319461Y06296005D01*
X08319461Y06345540D01*
X08344228Y06370308D01*
X08393764Y06370308D01*
X08418532Y06345540D01*
X08418532Y06296005D01*
X08393764Y06271237D01*
X08344228Y06271237D01*
X08418532Y06225302D02*
X08418532Y06150999D01*
X08393764Y06126231D01*
X08344228Y06126231D01*
X08418532Y05862788D02*
X08418532Y05788484D01*
X08344228Y06416242D02*
X08344228Y06441010D01*
X08319461Y06441010D01*
X08319461Y06416242D01*
X08344228Y06416242D01*
X08319461Y06488745D02*
X08319461Y06587817D01*
X08344228Y06633751D02*
X08368996Y06658519D01*
X08368996Y06732823D01*
X08393764Y06732823D02*
X08319461Y06732823D01*
X08319461Y06658519D01*
X08344228Y06633751D01*
X08418532Y06658519D02*
X08418532Y06708055D01*
X08393764Y06732823D01*
X08418532Y06587817D02*
X08319461Y06488745D01*
X08418532Y06488745D02*
X08418532Y06587817D01*
X08418532Y05113592D02*
X08418532Y05039288D01*
X08393764Y05014520D01*
X08344228Y05014520D01*
D13*
X06333957Y06892028D02*
X06333957Y07182236D01*
X06188852Y07182236D01*
X06140484Y07133868D01*
X06140484Y07037132D01*
X06188852Y06988764D01*
X06333957Y06988764D01*
X06043945Y06940396D02*
X05995577Y06892028D01*
X05898841Y06892028D01*
X05850473Y06940396D01*
X05753934Y06892028D02*
X05608829Y06892028D01*
X05560461Y06940396D01*
X05560461Y06988764D01*
X05608829Y07037132D01*
X05753934Y07037132D01*
X05850473Y07133868D02*
X05898841Y07182236D01*
X05995577Y07182236D01*
X06043945Y07133868D01*
X06043945Y06940396D01*
X05753934Y06892028D02*
X05753934Y07182236D01*
X05608829Y07182236D01*
X05560461Y07133868D01*
X05560461Y07085500D01*
X05608829Y07037132D01*
X05173910Y07037132D02*
X04980438Y07037132D01*
X04883899Y07037132D02*
X04883899Y06940396D01*
X04835531Y06892028D01*
X04738795Y06892028D01*
X04690426Y06988764D02*
X04883899Y06988764D01*
X04883899Y07037132D02*
X04835531Y07085500D01*
X04738795Y07085500D01*
X04690426Y07037132D01*
X04690426Y06988764D01*
X04593887Y06940396D02*
X04545519Y06892028D01*
X04400415Y06892028D01*
X04400415Y07037132D01*
X04448783Y07085500D01*
X04545519Y07085500D01*
X04545519Y06988764D02*
X04400415Y06988764D01*
X04303876Y07085500D02*
X04207140Y07085500D01*
X04255508Y07133868D02*
X04255508Y06940396D01*
X04207140Y06892028D01*
X04110535Y06892028D02*
X03965430Y06892028D01*
X03917062Y06940396D01*
X03917062Y06988764D01*
X03965430Y07037132D01*
X04110535Y07037132D01*
X04110535Y07182236D02*
X03965430Y07182236D01*
X03917062Y07133868D01*
X03917062Y07085500D01*
X03965430Y07037132D01*
X03820523Y07037132D02*
X03820523Y06940396D01*
X03772155Y06892028D01*
X03675419Y06892028D01*
X03627051Y06988764D02*
X03820523Y06988764D01*
X03820523Y07037132D02*
X03772155Y07085500D01*
X03675419Y07085500D01*
X03627051Y07037132D01*
X03627051Y06988764D01*
X03530512Y07037132D02*
X03482143Y07085500D01*
X03337039Y07085500D01*
X03337039Y07182236D02*
X03337039Y06892028D01*
X03482143Y06892028D01*
X03530512Y06940396D01*
X03530512Y07037132D01*
X02950488Y06892028D02*
X02950488Y07182236D01*
X02853752Y07085500D01*
X02757016Y07182236D01*
X02757016Y06892028D01*
X02660477Y06892028D02*
X02660477Y07182236D01*
X02612109Y07037132D02*
X02467004Y06892028D01*
X02370465Y07037132D02*
X02176993Y07037132D01*
X02080454Y07133868D02*
X02032086Y07182236D01*
X01935349Y07182236D01*
X01886981Y07133868D01*
X01886981Y07085500D01*
X02080454Y06892028D01*
X01886981Y06892028D01*
X02225361Y06892028D02*
X02225361Y07182236D01*
X02370465Y07037132D01*
X02467004Y07182236D02*
X02660477Y06988764D01*
X04110535Y06892028D02*
X04110535Y07182236D01*
X04545519Y06988764D02*
X04593887Y06940396D01*
X04980438Y06892028D02*
X04980438Y07182236D01*
X05173910Y07182236D02*
X05173910Y06892028D01*
D14*
X03543307Y04110236D02*
X03543267Y04106764D01*
X03543146Y04103293D01*
X03542944Y04099827D01*
X03542663Y04096366D01*
X03542301Y04092912D01*
X03541859Y04089468D01*
X03541337Y04086035D01*
X03540735Y04082616D01*
X03540055Y04079211D01*
X03539295Y04075822D01*
X03538457Y04072452D01*
X03537541Y04069103D01*
X03536548Y04065776D01*
X03535478Y04062472D01*
X03534331Y04059195D01*
X03393701Y03960630D02*
X03390229Y03960670D01*
X03386758Y03960791D01*
X03383292Y03960993D01*
X03379831Y03961274D01*
X03376377Y03961636D01*
X03372933Y03962078D01*
X03369500Y03962600D01*
X03366081Y03963202D01*
X03362676Y03963882D01*
X03359287Y03964642D01*
X03355917Y03965480D01*
X03352568Y03966396D01*
X03349241Y03967389D01*
X03345937Y03968459D01*
X03342660Y03969606D01*
X03393701Y03960630D02*
X03397173Y03960670D01*
X03400644Y03960791D01*
X03404110Y03960993D01*
X03407571Y03961274D01*
X03411025Y03961636D01*
X03414469Y03962078D01*
X03417902Y03962600D01*
X03421321Y03963202D01*
X03424726Y03963882D01*
X03428115Y03964642D01*
X03431485Y03965480D01*
X03434834Y03966396D01*
X03438161Y03967389D01*
X03441465Y03968459D01*
X03444742Y03969606D01*
X03543307Y04110236D02*
X03543267Y04113708D01*
X03543146Y04117179D01*
X03542944Y04120645D01*
X03542663Y04124106D01*
X03542301Y04127560D01*
X03541859Y04131004D01*
X03541337Y04134437D01*
X03540735Y04137856D01*
X03540055Y04141261D01*
X03539295Y04144650D01*
X03538457Y04148020D01*
X03537541Y04151369D01*
X03536548Y04154696D01*
X03535478Y04158000D01*
X03534331Y04161277D01*
X03393701Y04259842D02*
X03390229Y04259802D01*
X03386758Y04259681D01*
X03383292Y04259479D01*
X03379831Y04259198D01*
X03376377Y04258836D01*
X03372933Y04258394D01*
X03369500Y04257872D01*
X03366081Y04257270D01*
X03362676Y04256590D01*
X03359287Y04255830D01*
X03355917Y04254992D01*
X03352568Y04254076D01*
X03349241Y04253083D01*
X03345937Y04252013D01*
X03342660Y04250866D01*
X03244095Y04110236D02*
X03244135Y04106764D01*
X03244256Y04103293D01*
X03244458Y04099827D01*
X03244739Y04096366D01*
X03245101Y04092912D01*
X03245543Y04089468D01*
X03246065Y04086035D01*
X03246667Y04082616D01*
X03247347Y04079211D01*
X03248107Y04075822D01*
X03248945Y04072452D01*
X03249861Y04069103D01*
X03250854Y04065776D01*
X03251924Y04062472D01*
X03253071Y04059195D01*
X03244095Y04110236D02*
X03244135Y04113708D01*
X03244256Y04117179D01*
X03244458Y04120645D01*
X03244739Y04124106D01*
X03245101Y04127560D01*
X03245543Y04131004D01*
X03246065Y04134437D01*
X03246667Y04137856D01*
X03247347Y04141261D01*
X03248107Y04144650D01*
X03248945Y04148020D01*
X03249861Y04151369D01*
X03250854Y04154696D01*
X03251924Y04158000D01*
X03253071Y04161277D01*
X03393701Y04259842D02*
X03397173Y04259802D01*
X03400644Y04259681D01*
X03404110Y04259479D01*
X03407571Y04259198D01*
X03411025Y04258836D01*
X03414469Y04258394D01*
X03417902Y04257872D01*
X03421321Y04257270D01*
X03424726Y04256590D01*
X03428115Y04255830D01*
X03431485Y04254992D01*
X03434834Y04254076D01*
X03438161Y04253083D01*
X03441465Y04252013D01*
X03444742Y04250866D01*
X03307835Y04232747D02*
X03305015Y04230721D01*
X03302242Y04228631D01*
X03299519Y04226476D01*
X03296847Y04224259D01*
X03294227Y04221980D01*
X03291660Y04219642D01*
X03289148Y04217244D01*
X03286693Y04214789D01*
X03284295Y04212277D01*
X03281957Y04209710D01*
X03279678Y04207090D01*
X03277461Y04204418D01*
X03275306Y04201695D01*
X03273216Y04198922D01*
X03271190Y04196102D01*
X03479567Y03987725D02*
X03482387Y03989751D01*
X03485160Y03991841D01*
X03487883Y03993996D01*
X03490555Y03996213D01*
X03493175Y03998492D01*
X03495742Y04000830D01*
X03498254Y04003228D01*
X03500709Y04005683D01*
X03503107Y04008195D01*
X03505445Y04010762D01*
X03507724Y04013382D01*
X03509941Y04016054D01*
X03512096Y04018777D01*
X03514186Y04021550D01*
X03516212Y04024370D01*
X03307835Y03987725D02*
X03305015Y03989751D01*
X03302242Y03991841D01*
X03299519Y03993996D01*
X03296847Y03996213D01*
X03294227Y03998492D01*
X03291660Y04000830D01*
X03289148Y04003228D01*
X03286693Y04005683D01*
X03284295Y04008195D01*
X03281957Y04010762D01*
X03279678Y04013382D01*
X03277461Y04016054D01*
X03275306Y04018777D01*
X03273216Y04021550D01*
X03271190Y04024370D01*
X03479567Y04232747D02*
X03482387Y04230721D01*
X03485160Y04228631D01*
X03487883Y04226476D01*
X03490555Y04224259D01*
X03493175Y04221980D01*
X03495742Y04219642D01*
X03498254Y04217244D01*
X03500709Y04214789D01*
X03503107Y04212277D01*
X03505445Y04209710D01*
X03507724Y04207090D01*
X03509941Y04204418D01*
X03512096Y04201695D01*
X03514186Y04198922D01*
X03516212Y04196102D01*
M02*
