G75*
%MOIN*%
%OFA0B0*%
%FSLAX25Y25*%
%IPPOS*%
%LPD*%
%AMOC8*
5,1,8,0,0,1.08239X$1,22.5*
%
%ADD10C,0.01600*%
%ADD11C,0.01200*%
%ADD12C,0.00900*%
%ADD13C,0.02500*%
%ADD14C,0.01181*%
D10*
X0155115Y0094760D02*
X0155115Y0882161D01*
X0942516Y0882161D01*
X0942516Y0094760D01*
X0155115Y0094760D01*
X0160767Y0100096D02*
X0200137Y0170962D01*
X0239507Y0100096D01*
X0160767Y0100096D01*
X0184389Y0107970D02*
X0215885Y0107970D01*
X0208011Y0111907D02*
X0207870Y0112052D01*
X0207733Y0112199D01*
X0207599Y0112351D01*
X0207469Y0112505D01*
X0207342Y0112662D01*
X0207220Y0112823D01*
X0207101Y0112986D01*
X0206987Y0113152D01*
X0206876Y0113321D01*
X0206770Y0113492D01*
X0206667Y0113666D01*
X0206569Y0113843D01*
X0206475Y0114021D01*
X0206386Y0114202D01*
X0206301Y0114385D01*
X0206220Y0114570D01*
X0206144Y0114757D01*
X0206073Y0114946D01*
X0206006Y0115136D01*
X0205943Y0115328D01*
X0205885Y0115522D01*
X0205832Y0115716D01*
X0205784Y0115912D01*
X0205741Y0116109D01*
X0205702Y0116308D01*
X0205668Y0116506D01*
X0205639Y0116706D01*
X0205614Y0116907D01*
X0205595Y0117107D01*
X0205580Y0117309D01*
X0205570Y0117510D01*
X0205566Y0117712D01*
X0205566Y0117914D01*
X0205570Y0118116D01*
X0205580Y0118317D01*
X0205595Y0118519D01*
X0205614Y0118719D01*
X0205639Y0118920D01*
X0205668Y0119120D01*
X0205702Y0119318D01*
X0205741Y0119517D01*
X0205784Y0119714D01*
X0205832Y0119910D01*
X0205885Y0120104D01*
X0205943Y0120298D01*
X0206006Y0120490D01*
X0206073Y0120680D01*
X0206144Y0120869D01*
X0206220Y0121056D01*
X0206301Y0121241D01*
X0206386Y0121424D01*
X0206475Y0121605D01*
X0206569Y0121783D01*
X0206667Y0121960D01*
X0206770Y0122134D01*
X0206876Y0122305D01*
X0206987Y0122474D01*
X0207101Y0122640D01*
X0207220Y0122803D01*
X0207342Y0122964D01*
X0207469Y0123121D01*
X0207599Y0123275D01*
X0207733Y0123427D01*
X0207870Y0123574D01*
X0208011Y0123719D01*
X0200137Y0123719D02*
X0199996Y0123574D01*
X0199859Y0123427D01*
X0199725Y0123275D01*
X0199595Y0123121D01*
X0199468Y0122964D01*
X0199346Y0122803D01*
X0199227Y0122640D01*
X0199113Y0122474D01*
X0199002Y0122305D01*
X0198896Y0122134D01*
X0198793Y0121960D01*
X0198695Y0121783D01*
X0198601Y0121605D01*
X0198512Y0121424D01*
X0198427Y0121241D01*
X0198346Y0121056D01*
X0198270Y0120869D01*
X0198199Y0120680D01*
X0198132Y0120490D01*
X0198069Y0120298D01*
X0198011Y0120104D01*
X0197958Y0119910D01*
X0197910Y0119714D01*
X0197867Y0119517D01*
X0197828Y0119318D01*
X0197794Y0119120D01*
X0197765Y0118920D01*
X0197740Y0118719D01*
X0197721Y0118519D01*
X0197706Y0118317D01*
X0197696Y0118116D01*
X0197692Y0117914D01*
X0197692Y0117712D01*
X0197696Y0117510D01*
X0197706Y0117309D01*
X0197721Y0117107D01*
X0197740Y0116907D01*
X0197765Y0116706D01*
X0197794Y0116506D01*
X0197828Y0116308D01*
X0197867Y0116109D01*
X0197910Y0115912D01*
X0197958Y0115716D01*
X0198011Y0115522D01*
X0198069Y0115328D01*
X0198132Y0115136D01*
X0198199Y0114946D01*
X0198270Y0114757D01*
X0198346Y0114570D01*
X0198427Y0114385D01*
X0198512Y0114202D01*
X0198601Y0114021D01*
X0198695Y0113843D01*
X0198793Y0113666D01*
X0198896Y0113492D01*
X0199002Y0113321D01*
X0199113Y0113152D01*
X0199227Y0112986D01*
X0199346Y0112823D01*
X0199468Y0112662D01*
X0199595Y0112505D01*
X0199725Y0112351D01*
X0199859Y0112199D01*
X0199996Y0112052D01*
X0200137Y0111907D01*
X0192263Y0111907D02*
X0192122Y0112052D01*
X0191985Y0112199D01*
X0191851Y0112351D01*
X0191721Y0112505D01*
X0191594Y0112662D01*
X0191472Y0112823D01*
X0191353Y0112986D01*
X0191239Y0113152D01*
X0191128Y0113321D01*
X0191022Y0113492D01*
X0190919Y0113666D01*
X0190821Y0113843D01*
X0190727Y0114021D01*
X0190638Y0114202D01*
X0190553Y0114385D01*
X0190472Y0114570D01*
X0190396Y0114757D01*
X0190325Y0114946D01*
X0190258Y0115136D01*
X0190195Y0115328D01*
X0190137Y0115522D01*
X0190084Y0115716D01*
X0190036Y0115912D01*
X0189993Y0116109D01*
X0189954Y0116308D01*
X0189920Y0116506D01*
X0189891Y0116706D01*
X0189866Y0116907D01*
X0189847Y0117107D01*
X0189832Y0117309D01*
X0189822Y0117510D01*
X0189818Y0117712D01*
X0189818Y0117914D01*
X0189822Y0118116D01*
X0189832Y0118317D01*
X0189847Y0118519D01*
X0189866Y0118719D01*
X0189891Y0118920D01*
X0189920Y0119120D01*
X0189954Y0119318D01*
X0189993Y0119517D01*
X0190036Y0119714D01*
X0190084Y0119910D01*
X0190137Y0120104D01*
X0190195Y0120298D01*
X0190258Y0120490D01*
X0190325Y0120680D01*
X0190396Y0120869D01*
X0190472Y0121056D01*
X0190553Y0121241D01*
X0190638Y0121424D01*
X0190727Y0121605D01*
X0190821Y0121783D01*
X0190919Y0121960D01*
X0191022Y0122134D01*
X0191128Y0122305D01*
X0191239Y0122474D01*
X0191353Y0122640D01*
X0191472Y0122803D01*
X0191594Y0122964D01*
X0191721Y0123121D01*
X0191851Y0123275D01*
X0191985Y0123427D01*
X0192122Y0123574D01*
X0192263Y0123719D01*
X0200137Y0123718D02*
X0200325Y0123910D01*
X0200509Y0124107D01*
X0200687Y0124309D01*
X0200861Y0124514D01*
X0201029Y0124724D01*
X0201192Y0124938D01*
X0201351Y0125156D01*
X0201504Y0125377D01*
X0201651Y0125602D01*
X0201793Y0125831D01*
X0201929Y0126063D01*
X0202060Y0126298D01*
X0202185Y0126536D01*
X0202305Y0126778D01*
X0202418Y0127022D01*
X0202525Y0127268D01*
X0202627Y0127518D01*
X0202722Y0127769D01*
X0202812Y0128023D01*
X0202895Y0128279D01*
X0202972Y0128537D01*
X0203042Y0128797D01*
X0203107Y0129058D01*
X0203165Y0129321D01*
X0203217Y0129585D01*
X0203262Y0129850D01*
X0203301Y0130116D01*
X0203333Y0130383D01*
X0203359Y0130651D01*
X0203379Y0130920D01*
X0203392Y0131188D01*
X0203398Y0131457D01*
X0203398Y0131727D01*
X0203392Y0131996D01*
X0203379Y0132264D01*
X0203359Y0132533D01*
X0203333Y0132801D01*
X0203301Y0133068D01*
X0203262Y0133334D01*
X0203217Y0133599D01*
X0203165Y0133863D01*
X0203107Y0134126D01*
X0203042Y0134387D01*
X0202972Y0134647D01*
X0202895Y0134905D01*
X0202812Y0135161D01*
X0202722Y0135415D01*
X0202627Y0135666D01*
X0202525Y0135916D01*
X0202418Y0136162D01*
X0202305Y0136406D01*
X0202185Y0136648D01*
X0202060Y0136886D01*
X0201929Y0137121D01*
X0201793Y0137353D01*
X0201651Y0137582D01*
X0201504Y0137807D01*
X0201351Y0138028D01*
X0201192Y0138246D01*
X0201029Y0138460D01*
X0200861Y0138670D01*
X0200687Y0138875D01*
X0200509Y0139077D01*
X0200325Y0139274D01*
X0200137Y0139466D01*
X0208011Y0139466D02*
X0208199Y0139274D01*
X0208383Y0139077D01*
X0208561Y0138875D01*
X0208735Y0138670D01*
X0208903Y0138460D01*
X0209066Y0138246D01*
X0209225Y0138028D01*
X0209378Y0137807D01*
X0209525Y0137582D01*
X0209667Y0137353D01*
X0209803Y0137121D01*
X0209934Y0136886D01*
X0210059Y0136648D01*
X0210179Y0136406D01*
X0210292Y0136162D01*
X0210399Y0135916D01*
X0210501Y0135666D01*
X0210596Y0135415D01*
X0210686Y0135161D01*
X0210769Y0134905D01*
X0210846Y0134647D01*
X0210916Y0134387D01*
X0210981Y0134126D01*
X0211039Y0133863D01*
X0211091Y0133599D01*
X0211136Y0133334D01*
X0211175Y0133068D01*
X0211207Y0132801D01*
X0211233Y0132533D01*
X0211253Y0132264D01*
X0211266Y0131996D01*
X0211272Y0131727D01*
X0211272Y0131457D01*
X0211266Y0131188D01*
X0211253Y0130920D01*
X0211233Y0130651D01*
X0211207Y0130383D01*
X0211175Y0130116D01*
X0211136Y0129850D01*
X0211091Y0129585D01*
X0211039Y0129321D01*
X0210981Y0129058D01*
X0210916Y0128797D01*
X0210846Y0128537D01*
X0210769Y0128279D01*
X0210686Y0128023D01*
X0210596Y0127769D01*
X0210501Y0127518D01*
X0210399Y0127268D01*
X0210292Y0127022D01*
X0210179Y0126778D01*
X0210059Y0126536D01*
X0209934Y0126298D01*
X0209803Y0126063D01*
X0209667Y0125831D01*
X0209525Y0125602D01*
X0209378Y0125377D01*
X0209225Y0125156D01*
X0209066Y0124938D01*
X0208903Y0124724D01*
X0208735Y0124514D01*
X0208561Y0124309D01*
X0208383Y0124107D01*
X0208199Y0123910D01*
X0208011Y0123718D01*
X0192263Y0123718D02*
X0192451Y0123910D01*
X0192635Y0124107D01*
X0192813Y0124309D01*
X0192987Y0124514D01*
X0193155Y0124724D01*
X0193318Y0124938D01*
X0193477Y0125156D01*
X0193630Y0125377D01*
X0193777Y0125602D01*
X0193919Y0125831D01*
X0194055Y0126063D01*
X0194186Y0126298D01*
X0194311Y0126536D01*
X0194431Y0126778D01*
X0194544Y0127022D01*
X0194651Y0127268D01*
X0194753Y0127518D01*
X0194848Y0127769D01*
X0194938Y0128023D01*
X0195021Y0128279D01*
X0195098Y0128537D01*
X0195168Y0128797D01*
X0195233Y0129058D01*
X0195291Y0129321D01*
X0195343Y0129585D01*
X0195388Y0129850D01*
X0195427Y0130116D01*
X0195459Y0130383D01*
X0195485Y0130651D01*
X0195505Y0130920D01*
X0195518Y0131188D01*
X0195524Y0131457D01*
X0195524Y0131727D01*
X0195518Y0131996D01*
X0195505Y0132264D01*
X0195485Y0132533D01*
X0195459Y0132801D01*
X0195427Y0133068D01*
X0195388Y0133334D01*
X0195343Y0133599D01*
X0195291Y0133863D01*
X0195233Y0134126D01*
X0195168Y0134387D01*
X0195098Y0134647D01*
X0195021Y0134905D01*
X0194938Y0135161D01*
X0194848Y0135415D01*
X0194753Y0135666D01*
X0194651Y0135916D01*
X0194544Y0136162D01*
X0194431Y0136406D01*
X0194311Y0136648D01*
X0194186Y0136886D01*
X0194055Y0137121D01*
X0193919Y0137353D01*
X0193777Y0137582D01*
X0193630Y0137807D01*
X0193477Y0138028D01*
X0193318Y0138246D01*
X0193155Y0138460D01*
X0192987Y0138670D01*
X0192813Y0138875D01*
X0192635Y0139077D01*
X0192451Y0139274D01*
X0192263Y0139466D01*
X0435041Y0298140D02*
X0435041Y0301210D01*
X0435041Y0307348D02*
X0435041Y0319625D01*
X0441180Y0316556D02*
X0441180Y0298140D01*
X0441180Y0307348D02*
X0453457Y0307348D01*
X0459596Y0301210D02*
X0462665Y0298140D01*
X0468803Y0298140D01*
X0471873Y0301210D01*
X0471873Y0313487D01*
X0468803Y0316556D01*
X0462665Y0316556D01*
X0459596Y0313487D01*
X0453457Y0316556D02*
X0453457Y0298140D01*
X0478011Y0301210D02*
X0478011Y0316556D01*
X0490288Y0316556D02*
X0490288Y0301210D01*
X0487219Y0298140D01*
X0481081Y0298140D01*
X0478011Y0301210D01*
X0496427Y0301210D02*
X0496427Y0313487D01*
X0499496Y0316556D01*
X0505635Y0316556D01*
X0508704Y0313487D01*
X0508704Y0301210D01*
X0505635Y0298140D01*
X0499496Y0298140D01*
X0496427Y0301210D01*
X0514843Y0316556D02*
X0527120Y0316556D01*
X0520981Y0316556D02*
X0520981Y0298140D01*
X0551674Y0316556D02*
X0563951Y0316556D01*
X0557813Y0316556D02*
X0557813Y0298140D01*
X0570090Y0301210D02*
X0570090Y0313487D01*
X0573159Y0316556D01*
X0579298Y0316556D01*
X0582367Y0313487D01*
X0582367Y0301210D01*
X0579298Y0298140D01*
X0573159Y0298140D01*
X0570090Y0301210D01*
X0588506Y0298140D02*
X0588506Y0316556D01*
X0600783Y0316556D02*
X0588506Y0298140D01*
X0600783Y0298140D02*
X0600783Y0316556D01*
X0625337Y0313487D02*
X0625337Y0301210D01*
X0628406Y0298140D01*
X0634545Y0298140D01*
X0637614Y0301210D01*
X0637614Y0313487D01*
X0634545Y0316556D01*
X0628406Y0316556D01*
X0625337Y0313487D01*
X0643753Y0313487D02*
X0643753Y0301210D01*
X0646822Y0298140D01*
X0656030Y0298140D01*
X0656030Y0316556D01*
X0646822Y0316556D01*
X0643753Y0313487D01*
X0617447Y0345384D02*
X0617447Y0363800D01*
X0617447Y0354592D02*
X0605170Y0354592D01*
X0599032Y0348454D02*
X0595962Y0345384D01*
X0589824Y0345384D01*
X0586755Y0348454D01*
X0586755Y0360731D01*
X0589824Y0363800D01*
X0595962Y0363800D01*
X0599032Y0360731D01*
X0599032Y0348454D01*
X0605170Y0345384D02*
X0605170Y0363800D01*
X0580616Y0363800D02*
X0568339Y0363800D01*
X0574477Y0363800D02*
X0574477Y0345384D01*
X0543784Y0345384D02*
X0531507Y0345384D01*
X0525369Y0348454D02*
X0522299Y0345384D01*
X0516161Y0345384D01*
X0513092Y0348454D01*
X0513092Y0360731D01*
X0516161Y0363800D01*
X0522299Y0363800D01*
X0525369Y0360731D01*
X0525369Y0348454D01*
X0531507Y0360731D02*
X0543784Y0348454D01*
X0543784Y0345384D01*
X0543784Y0363800D02*
X0531507Y0363800D01*
X0531507Y0360731D01*
X0506953Y0363800D02*
X0506953Y0345384D01*
X0494676Y0345384D02*
X0494676Y0363800D01*
X0488537Y0363800D02*
X0488537Y0345384D01*
X0476260Y0345384D01*
X0482399Y0354592D02*
X0488537Y0354592D01*
X0488537Y0363800D02*
X0476260Y0363800D01*
X0494676Y0345384D02*
X0506953Y0363800D01*
X0505635Y0600896D02*
X0499496Y0600896D01*
X0496427Y0603966D01*
X0496427Y0616243D01*
X0499496Y0619312D01*
X0505635Y0619312D01*
X0508704Y0616243D01*
X0508704Y0603966D01*
X0505635Y0600896D01*
X0520981Y0600896D02*
X0520981Y0619312D01*
X0514843Y0619312D02*
X0527120Y0619312D01*
X0551674Y0619312D02*
X0563951Y0619312D01*
X0557813Y0619312D02*
X0557813Y0600896D01*
X0570090Y0603966D02*
X0570090Y0616243D01*
X0573159Y0619312D01*
X0579298Y0619312D01*
X0582367Y0616243D01*
X0582367Y0603966D01*
X0579298Y0600896D01*
X0573159Y0600896D01*
X0570090Y0603966D01*
X0588506Y0600896D02*
X0588506Y0619312D01*
X0600783Y0619312D02*
X0588506Y0600896D01*
X0600783Y0600896D02*
X0600783Y0619312D01*
X0625337Y0616243D02*
X0625337Y0603966D01*
X0628406Y0600896D01*
X0634545Y0600896D01*
X0637614Y0603966D01*
X0637614Y0616243D01*
X0634545Y0619312D01*
X0628406Y0619312D01*
X0625337Y0616243D01*
X0643753Y0616243D02*
X0643753Y0603966D01*
X0646822Y0600896D01*
X0656030Y0600896D01*
X0656030Y0619312D01*
X0646822Y0619312D01*
X0643753Y0616243D01*
X0618235Y0660914D02*
X0618235Y0679330D01*
X0618235Y0670122D02*
X0605958Y0670122D01*
X0599819Y0663983D02*
X0596750Y0660914D01*
X0590611Y0660914D01*
X0587542Y0663983D01*
X0587542Y0676261D01*
X0590611Y0679330D01*
X0596750Y0679330D01*
X0599819Y0676261D01*
X0599819Y0663983D01*
X0605958Y0660914D02*
X0605958Y0679330D01*
X0581403Y0679330D02*
X0569126Y0679330D01*
X0575265Y0679330D02*
X0575265Y0660914D01*
X0544572Y0660914D02*
X0532295Y0660914D01*
X0526156Y0663983D02*
X0523087Y0660914D01*
X0516948Y0660914D01*
X0513879Y0663983D01*
X0513879Y0676261D01*
X0516948Y0679330D01*
X0523087Y0679330D01*
X0526156Y0676261D01*
X0526156Y0663983D01*
X0532295Y0676261D02*
X0544572Y0663983D01*
X0544572Y0660914D01*
X0544572Y0679330D02*
X0532295Y0679330D01*
X0532295Y0676261D01*
X0507740Y0679330D02*
X0507740Y0660914D01*
X0495463Y0660914D02*
X0495463Y0679330D01*
X0489325Y0679330D02*
X0489325Y0660914D01*
X0477047Y0660914D01*
X0483186Y0670122D02*
X0489325Y0670122D01*
X0489325Y0679330D02*
X0477047Y0679330D01*
X0495463Y0660914D02*
X0507740Y0679330D01*
X0490288Y0619312D02*
X0490288Y0603966D01*
X0487219Y0600896D01*
X0481081Y0600896D01*
X0478011Y0603966D01*
X0478011Y0619312D01*
X0471873Y0616243D02*
X0471873Y0603966D01*
X0468803Y0600896D01*
X0462665Y0600896D01*
X0459596Y0603966D01*
X0453457Y0600896D02*
X0453457Y0619312D01*
X0459596Y0616243D02*
X0462665Y0619312D01*
X0468803Y0619312D01*
X0471873Y0616243D01*
X0453457Y0610104D02*
X0441180Y0610104D01*
X0435041Y0610104D02*
X0435041Y0622381D01*
X0441180Y0619312D02*
X0441180Y0600896D01*
X0435041Y0600896D02*
X0435041Y0603966D01*
X0239507Y0805608D02*
X0200137Y0876474D01*
X0160767Y0805608D01*
X0239507Y0805608D01*
X0215885Y0813482D02*
X0184389Y0813482D01*
X0192263Y0817419D02*
X0192122Y0817564D01*
X0191985Y0817711D01*
X0191851Y0817863D01*
X0191721Y0818017D01*
X0191594Y0818174D01*
X0191472Y0818335D01*
X0191353Y0818498D01*
X0191239Y0818664D01*
X0191128Y0818833D01*
X0191022Y0819004D01*
X0190919Y0819178D01*
X0190821Y0819355D01*
X0190727Y0819533D01*
X0190638Y0819714D01*
X0190553Y0819897D01*
X0190472Y0820082D01*
X0190396Y0820269D01*
X0190325Y0820458D01*
X0190258Y0820648D01*
X0190195Y0820840D01*
X0190137Y0821034D01*
X0190084Y0821228D01*
X0190036Y0821424D01*
X0189993Y0821621D01*
X0189954Y0821820D01*
X0189920Y0822018D01*
X0189891Y0822218D01*
X0189866Y0822419D01*
X0189847Y0822619D01*
X0189832Y0822821D01*
X0189822Y0823022D01*
X0189818Y0823224D01*
X0189818Y0823426D01*
X0189822Y0823628D01*
X0189832Y0823829D01*
X0189847Y0824031D01*
X0189866Y0824231D01*
X0189891Y0824432D01*
X0189920Y0824632D01*
X0189954Y0824830D01*
X0189993Y0825029D01*
X0190036Y0825226D01*
X0190084Y0825422D01*
X0190137Y0825616D01*
X0190195Y0825810D01*
X0190258Y0826002D01*
X0190325Y0826192D01*
X0190396Y0826381D01*
X0190472Y0826568D01*
X0190553Y0826753D01*
X0190638Y0826936D01*
X0190727Y0827117D01*
X0190821Y0827295D01*
X0190919Y0827472D01*
X0191022Y0827646D01*
X0191128Y0827817D01*
X0191239Y0827986D01*
X0191353Y0828152D01*
X0191472Y0828315D01*
X0191594Y0828476D01*
X0191721Y0828633D01*
X0191851Y0828787D01*
X0191985Y0828939D01*
X0192122Y0829086D01*
X0192263Y0829231D01*
X0200137Y0829230D02*
X0200325Y0829422D01*
X0200509Y0829619D01*
X0200687Y0829821D01*
X0200861Y0830026D01*
X0201029Y0830236D01*
X0201192Y0830450D01*
X0201351Y0830668D01*
X0201504Y0830889D01*
X0201651Y0831114D01*
X0201793Y0831343D01*
X0201929Y0831575D01*
X0202060Y0831810D01*
X0202185Y0832048D01*
X0202305Y0832290D01*
X0202418Y0832534D01*
X0202525Y0832780D01*
X0202627Y0833030D01*
X0202722Y0833281D01*
X0202812Y0833535D01*
X0202895Y0833791D01*
X0202972Y0834049D01*
X0203042Y0834309D01*
X0203107Y0834570D01*
X0203165Y0834833D01*
X0203217Y0835097D01*
X0203262Y0835362D01*
X0203301Y0835628D01*
X0203333Y0835895D01*
X0203359Y0836163D01*
X0203379Y0836432D01*
X0203392Y0836700D01*
X0203398Y0836969D01*
X0203398Y0837239D01*
X0203392Y0837508D01*
X0203379Y0837776D01*
X0203359Y0838045D01*
X0203333Y0838313D01*
X0203301Y0838580D01*
X0203262Y0838846D01*
X0203217Y0839111D01*
X0203165Y0839375D01*
X0203107Y0839638D01*
X0203042Y0839899D01*
X0202972Y0840159D01*
X0202895Y0840417D01*
X0202812Y0840673D01*
X0202722Y0840927D01*
X0202627Y0841178D01*
X0202525Y0841428D01*
X0202418Y0841674D01*
X0202305Y0841918D01*
X0202185Y0842160D01*
X0202060Y0842398D01*
X0201929Y0842633D01*
X0201793Y0842865D01*
X0201651Y0843094D01*
X0201504Y0843319D01*
X0201351Y0843540D01*
X0201192Y0843758D01*
X0201029Y0843972D01*
X0200861Y0844182D01*
X0200687Y0844387D01*
X0200509Y0844589D01*
X0200325Y0844786D01*
X0200137Y0844978D01*
X0208011Y0844978D02*
X0208199Y0844786D01*
X0208383Y0844589D01*
X0208561Y0844387D01*
X0208735Y0844182D01*
X0208903Y0843972D01*
X0209066Y0843758D01*
X0209225Y0843540D01*
X0209378Y0843319D01*
X0209525Y0843094D01*
X0209667Y0842865D01*
X0209803Y0842633D01*
X0209934Y0842398D01*
X0210059Y0842160D01*
X0210179Y0841918D01*
X0210292Y0841674D01*
X0210399Y0841428D01*
X0210501Y0841178D01*
X0210596Y0840927D01*
X0210686Y0840673D01*
X0210769Y0840417D01*
X0210846Y0840159D01*
X0210916Y0839899D01*
X0210981Y0839638D01*
X0211039Y0839375D01*
X0211091Y0839111D01*
X0211136Y0838846D01*
X0211175Y0838580D01*
X0211207Y0838313D01*
X0211233Y0838045D01*
X0211253Y0837776D01*
X0211266Y0837508D01*
X0211272Y0837239D01*
X0211272Y0836969D01*
X0211266Y0836700D01*
X0211253Y0836432D01*
X0211233Y0836163D01*
X0211207Y0835895D01*
X0211175Y0835628D01*
X0211136Y0835362D01*
X0211091Y0835097D01*
X0211039Y0834833D01*
X0210981Y0834570D01*
X0210916Y0834309D01*
X0210846Y0834049D01*
X0210769Y0833791D01*
X0210686Y0833535D01*
X0210596Y0833281D01*
X0210501Y0833030D01*
X0210399Y0832780D01*
X0210292Y0832534D01*
X0210179Y0832290D01*
X0210059Y0832048D01*
X0209934Y0831810D01*
X0209803Y0831575D01*
X0209667Y0831343D01*
X0209525Y0831114D01*
X0209378Y0830889D01*
X0209225Y0830668D01*
X0209066Y0830450D01*
X0208903Y0830236D01*
X0208735Y0830026D01*
X0208561Y0829821D01*
X0208383Y0829619D01*
X0208199Y0829422D01*
X0208011Y0829230D01*
X0200137Y0829231D02*
X0199996Y0829086D01*
X0199859Y0828939D01*
X0199725Y0828787D01*
X0199595Y0828633D01*
X0199468Y0828476D01*
X0199346Y0828315D01*
X0199227Y0828152D01*
X0199113Y0827986D01*
X0199002Y0827817D01*
X0198896Y0827646D01*
X0198793Y0827472D01*
X0198695Y0827295D01*
X0198601Y0827117D01*
X0198512Y0826936D01*
X0198427Y0826753D01*
X0198346Y0826568D01*
X0198270Y0826381D01*
X0198199Y0826192D01*
X0198132Y0826002D01*
X0198069Y0825810D01*
X0198011Y0825616D01*
X0197958Y0825422D01*
X0197910Y0825226D01*
X0197867Y0825029D01*
X0197828Y0824830D01*
X0197794Y0824632D01*
X0197765Y0824432D01*
X0197740Y0824231D01*
X0197721Y0824031D01*
X0197706Y0823829D01*
X0197696Y0823628D01*
X0197692Y0823426D01*
X0197692Y0823224D01*
X0197696Y0823022D01*
X0197706Y0822821D01*
X0197721Y0822619D01*
X0197740Y0822419D01*
X0197765Y0822218D01*
X0197794Y0822018D01*
X0197828Y0821820D01*
X0197867Y0821621D01*
X0197910Y0821424D01*
X0197958Y0821228D01*
X0198011Y0821034D01*
X0198069Y0820840D01*
X0198132Y0820648D01*
X0198199Y0820458D01*
X0198270Y0820269D01*
X0198346Y0820082D01*
X0198427Y0819897D01*
X0198512Y0819714D01*
X0198601Y0819533D01*
X0198695Y0819355D01*
X0198793Y0819178D01*
X0198896Y0819004D01*
X0199002Y0818833D01*
X0199113Y0818664D01*
X0199227Y0818498D01*
X0199346Y0818335D01*
X0199468Y0818174D01*
X0199595Y0818017D01*
X0199725Y0817863D01*
X0199859Y0817711D01*
X0199996Y0817564D01*
X0200137Y0817419D01*
X0208011Y0817419D02*
X0207870Y0817564D01*
X0207733Y0817711D01*
X0207599Y0817863D01*
X0207469Y0818017D01*
X0207342Y0818174D01*
X0207220Y0818335D01*
X0207101Y0818498D01*
X0206987Y0818664D01*
X0206876Y0818833D01*
X0206770Y0819004D01*
X0206667Y0819178D01*
X0206569Y0819355D01*
X0206475Y0819533D01*
X0206386Y0819714D01*
X0206301Y0819897D01*
X0206220Y0820082D01*
X0206144Y0820269D01*
X0206073Y0820458D01*
X0206006Y0820648D01*
X0205943Y0820840D01*
X0205885Y0821034D01*
X0205832Y0821228D01*
X0205784Y0821424D01*
X0205741Y0821621D01*
X0205702Y0821820D01*
X0205668Y0822018D01*
X0205639Y0822218D01*
X0205614Y0822419D01*
X0205595Y0822619D01*
X0205580Y0822821D01*
X0205570Y0823022D01*
X0205566Y0823224D01*
X0205566Y0823426D01*
X0205570Y0823628D01*
X0205580Y0823829D01*
X0205595Y0824031D01*
X0205614Y0824231D01*
X0205639Y0824432D01*
X0205668Y0824632D01*
X0205702Y0824830D01*
X0205741Y0825029D01*
X0205784Y0825226D01*
X0205832Y0825422D01*
X0205885Y0825616D01*
X0205943Y0825810D01*
X0206006Y0826002D01*
X0206073Y0826192D01*
X0206144Y0826381D01*
X0206220Y0826568D01*
X0206301Y0826753D01*
X0206386Y0826936D01*
X0206475Y0827117D01*
X0206569Y0827295D01*
X0206667Y0827472D01*
X0206770Y0827646D01*
X0206876Y0827817D01*
X0206987Y0827986D01*
X0207101Y0828152D01*
X0207220Y0828315D01*
X0207342Y0828476D01*
X0207469Y0828633D01*
X0207599Y0828787D01*
X0207733Y0828939D01*
X0207870Y0829086D01*
X0208011Y0829231D01*
X0192263Y0829230D02*
X0192451Y0829422D01*
X0192635Y0829619D01*
X0192813Y0829821D01*
X0192987Y0830026D01*
X0193155Y0830236D01*
X0193318Y0830450D01*
X0193477Y0830668D01*
X0193630Y0830889D01*
X0193777Y0831114D01*
X0193919Y0831343D01*
X0194055Y0831575D01*
X0194186Y0831810D01*
X0194311Y0832048D01*
X0194431Y0832290D01*
X0194544Y0832534D01*
X0194651Y0832780D01*
X0194753Y0833030D01*
X0194848Y0833281D01*
X0194938Y0833535D01*
X0195021Y0833791D01*
X0195098Y0834049D01*
X0195168Y0834309D01*
X0195233Y0834570D01*
X0195291Y0834833D01*
X0195343Y0835097D01*
X0195388Y0835362D01*
X0195427Y0835628D01*
X0195459Y0835895D01*
X0195485Y0836163D01*
X0195505Y0836432D01*
X0195518Y0836700D01*
X0195524Y0836969D01*
X0195524Y0837239D01*
X0195518Y0837508D01*
X0195505Y0837776D01*
X0195485Y0838045D01*
X0195459Y0838313D01*
X0195427Y0838580D01*
X0195388Y0838846D01*
X0195343Y0839111D01*
X0195291Y0839375D01*
X0195233Y0839638D01*
X0195168Y0839899D01*
X0195098Y0840159D01*
X0195021Y0840417D01*
X0194938Y0840673D01*
X0194848Y0840927D01*
X0194753Y0841178D01*
X0194651Y0841428D01*
X0194544Y0841674D01*
X0194431Y0841918D01*
X0194311Y0842160D01*
X0194186Y0842398D01*
X0194055Y0842633D01*
X0193919Y0842865D01*
X0193777Y0843094D01*
X0193630Y0843319D01*
X0193477Y0843540D01*
X0193318Y0843758D01*
X0193155Y0843972D01*
X0192987Y0844182D01*
X0192813Y0844387D01*
X0192635Y0844589D01*
X0192451Y0844786D01*
X0192263Y0844978D01*
X0760110Y0306087D02*
X0760110Y0303017D01*
X0763180Y0303017D01*
X0763180Y0306087D01*
X0760110Y0306087D01*
X0760110Y0296879D02*
X0760110Y0293810D01*
X0763180Y0293810D01*
X0763180Y0296879D01*
X0760110Y0296879D01*
X0769318Y0293810D02*
X0769318Y0312225D01*
X0781595Y0312225D02*
X0769318Y0293810D01*
X0781595Y0293810D02*
X0781595Y0312225D01*
X0787734Y0309156D02*
X0790803Y0312225D01*
X0796942Y0312225D01*
X0800011Y0309156D01*
X0800011Y0296879D01*
X0796942Y0293810D01*
X0790803Y0293810D01*
X0787734Y0296879D01*
X0787734Y0309156D01*
X0806150Y0312225D02*
X0812288Y0312225D01*
X0809219Y0312225D02*
X0809219Y0293810D01*
X0812288Y0293810D02*
X0806150Y0293810D01*
X0824566Y0293810D02*
X0824566Y0312225D01*
X0830704Y0312225D02*
X0818427Y0312225D01*
X0836843Y0312225D02*
X0836843Y0296879D01*
X0839912Y0293810D01*
X0846051Y0293810D01*
X0849120Y0296879D01*
X0849120Y0312225D01*
X0855258Y0306087D02*
X0855258Y0293810D01*
X0855258Y0303017D02*
X0867536Y0303017D01*
X0867536Y0306087D02*
X0861397Y0312225D01*
X0855258Y0306087D01*
X0867536Y0306087D02*
X0867536Y0293810D01*
X0873674Y0296879D02*
X0876743Y0293810D01*
X0882882Y0293810D01*
X0885951Y0296879D01*
X0885951Y0309156D01*
X0882882Y0312225D01*
X0876743Y0312225D01*
X0873674Y0309156D01*
X0897775Y0170962D02*
X0858405Y0100096D01*
X0937145Y0100096D01*
X0897775Y0170962D01*
X0905649Y0139466D02*
X0905837Y0139274D01*
X0906021Y0139077D01*
X0906199Y0138875D01*
X0906373Y0138670D01*
X0906541Y0138460D01*
X0906704Y0138246D01*
X0906863Y0138028D01*
X0907016Y0137807D01*
X0907163Y0137582D01*
X0907305Y0137353D01*
X0907441Y0137121D01*
X0907572Y0136886D01*
X0907697Y0136648D01*
X0907817Y0136406D01*
X0907930Y0136162D01*
X0908037Y0135916D01*
X0908139Y0135666D01*
X0908234Y0135415D01*
X0908324Y0135161D01*
X0908407Y0134905D01*
X0908484Y0134647D01*
X0908554Y0134387D01*
X0908619Y0134126D01*
X0908677Y0133863D01*
X0908729Y0133599D01*
X0908774Y0133334D01*
X0908813Y0133068D01*
X0908845Y0132801D01*
X0908871Y0132533D01*
X0908891Y0132264D01*
X0908904Y0131996D01*
X0908910Y0131727D01*
X0908910Y0131457D01*
X0908904Y0131188D01*
X0908891Y0130920D01*
X0908871Y0130651D01*
X0908845Y0130383D01*
X0908813Y0130116D01*
X0908774Y0129850D01*
X0908729Y0129585D01*
X0908677Y0129321D01*
X0908619Y0129058D01*
X0908554Y0128797D01*
X0908484Y0128537D01*
X0908407Y0128279D01*
X0908324Y0128023D01*
X0908234Y0127769D01*
X0908139Y0127518D01*
X0908037Y0127268D01*
X0907930Y0127022D01*
X0907817Y0126778D01*
X0907697Y0126536D01*
X0907572Y0126298D01*
X0907441Y0126063D01*
X0907305Y0125831D01*
X0907163Y0125602D01*
X0907016Y0125377D01*
X0906863Y0125156D01*
X0906704Y0124938D01*
X0906541Y0124724D01*
X0906373Y0124514D01*
X0906199Y0124309D01*
X0906021Y0124107D01*
X0905837Y0123910D01*
X0905649Y0123718D01*
X0897774Y0123719D02*
X0897633Y0123574D01*
X0897496Y0123427D01*
X0897362Y0123275D01*
X0897232Y0123121D01*
X0897105Y0122964D01*
X0896983Y0122803D01*
X0896864Y0122640D01*
X0896750Y0122474D01*
X0896639Y0122305D01*
X0896533Y0122134D01*
X0896430Y0121960D01*
X0896332Y0121783D01*
X0896238Y0121605D01*
X0896149Y0121424D01*
X0896064Y0121241D01*
X0895983Y0121056D01*
X0895907Y0120869D01*
X0895836Y0120680D01*
X0895769Y0120490D01*
X0895706Y0120298D01*
X0895648Y0120104D01*
X0895595Y0119910D01*
X0895547Y0119714D01*
X0895504Y0119517D01*
X0895465Y0119318D01*
X0895431Y0119120D01*
X0895402Y0118920D01*
X0895377Y0118719D01*
X0895358Y0118519D01*
X0895343Y0118317D01*
X0895333Y0118116D01*
X0895329Y0117914D01*
X0895329Y0117712D01*
X0895333Y0117510D01*
X0895343Y0117309D01*
X0895358Y0117107D01*
X0895377Y0116907D01*
X0895402Y0116706D01*
X0895431Y0116506D01*
X0895465Y0116308D01*
X0895504Y0116109D01*
X0895547Y0115912D01*
X0895595Y0115716D01*
X0895648Y0115522D01*
X0895706Y0115328D01*
X0895769Y0115136D01*
X0895836Y0114946D01*
X0895907Y0114757D01*
X0895983Y0114570D01*
X0896064Y0114385D01*
X0896149Y0114202D01*
X0896238Y0114021D01*
X0896332Y0113843D01*
X0896430Y0113666D01*
X0896533Y0113492D01*
X0896639Y0113321D01*
X0896750Y0113152D01*
X0896864Y0112986D01*
X0896983Y0112823D01*
X0897105Y0112662D01*
X0897232Y0112505D01*
X0897362Y0112351D01*
X0897496Y0112199D01*
X0897633Y0112052D01*
X0897774Y0111907D01*
X0889900Y0111907D02*
X0889759Y0112052D01*
X0889622Y0112199D01*
X0889488Y0112351D01*
X0889358Y0112505D01*
X0889231Y0112662D01*
X0889109Y0112823D01*
X0888990Y0112986D01*
X0888876Y0113152D01*
X0888765Y0113321D01*
X0888659Y0113492D01*
X0888556Y0113666D01*
X0888458Y0113843D01*
X0888364Y0114021D01*
X0888275Y0114202D01*
X0888190Y0114385D01*
X0888109Y0114570D01*
X0888033Y0114757D01*
X0887962Y0114946D01*
X0887895Y0115136D01*
X0887832Y0115328D01*
X0887774Y0115522D01*
X0887721Y0115716D01*
X0887673Y0115912D01*
X0887630Y0116109D01*
X0887591Y0116308D01*
X0887557Y0116506D01*
X0887528Y0116706D01*
X0887503Y0116907D01*
X0887484Y0117107D01*
X0887469Y0117309D01*
X0887459Y0117510D01*
X0887455Y0117712D01*
X0887455Y0117914D01*
X0887459Y0118116D01*
X0887469Y0118317D01*
X0887484Y0118519D01*
X0887503Y0118719D01*
X0887528Y0118920D01*
X0887557Y0119120D01*
X0887591Y0119318D01*
X0887630Y0119517D01*
X0887673Y0119714D01*
X0887721Y0119910D01*
X0887774Y0120104D01*
X0887832Y0120298D01*
X0887895Y0120490D01*
X0887962Y0120680D01*
X0888033Y0120869D01*
X0888109Y0121056D01*
X0888190Y0121241D01*
X0888275Y0121424D01*
X0888364Y0121605D01*
X0888458Y0121783D01*
X0888556Y0121960D01*
X0888659Y0122134D01*
X0888765Y0122305D01*
X0888876Y0122474D01*
X0888990Y0122640D01*
X0889109Y0122803D01*
X0889231Y0122964D01*
X0889358Y0123121D01*
X0889488Y0123275D01*
X0889622Y0123427D01*
X0889759Y0123574D01*
X0889900Y0123719D01*
X0897775Y0123718D02*
X0897963Y0123910D01*
X0898147Y0124107D01*
X0898325Y0124309D01*
X0898499Y0124514D01*
X0898667Y0124724D01*
X0898830Y0124938D01*
X0898989Y0125156D01*
X0899142Y0125377D01*
X0899289Y0125602D01*
X0899431Y0125831D01*
X0899567Y0126063D01*
X0899698Y0126298D01*
X0899823Y0126536D01*
X0899943Y0126778D01*
X0900056Y0127022D01*
X0900163Y0127268D01*
X0900265Y0127518D01*
X0900360Y0127769D01*
X0900450Y0128023D01*
X0900533Y0128279D01*
X0900610Y0128537D01*
X0900680Y0128797D01*
X0900745Y0129058D01*
X0900803Y0129321D01*
X0900855Y0129585D01*
X0900900Y0129850D01*
X0900939Y0130116D01*
X0900971Y0130383D01*
X0900997Y0130651D01*
X0901017Y0130920D01*
X0901030Y0131188D01*
X0901036Y0131457D01*
X0901036Y0131727D01*
X0901030Y0131996D01*
X0901017Y0132264D01*
X0900997Y0132533D01*
X0900971Y0132801D01*
X0900939Y0133068D01*
X0900900Y0133334D01*
X0900855Y0133599D01*
X0900803Y0133863D01*
X0900745Y0134126D01*
X0900680Y0134387D01*
X0900610Y0134647D01*
X0900533Y0134905D01*
X0900450Y0135161D01*
X0900360Y0135415D01*
X0900265Y0135666D01*
X0900163Y0135916D01*
X0900056Y0136162D01*
X0899943Y0136406D01*
X0899823Y0136648D01*
X0899698Y0136886D01*
X0899567Y0137121D01*
X0899431Y0137353D01*
X0899289Y0137582D01*
X0899142Y0137807D01*
X0898989Y0138028D01*
X0898830Y0138246D01*
X0898667Y0138460D01*
X0898499Y0138670D01*
X0898325Y0138875D01*
X0898147Y0139077D01*
X0897963Y0139274D01*
X0897775Y0139466D01*
X0889901Y0139466D02*
X0890089Y0139274D01*
X0890273Y0139077D01*
X0890451Y0138875D01*
X0890625Y0138670D01*
X0890793Y0138460D01*
X0890956Y0138246D01*
X0891115Y0138028D01*
X0891268Y0137807D01*
X0891415Y0137582D01*
X0891557Y0137353D01*
X0891693Y0137121D01*
X0891824Y0136886D01*
X0891949Y0136648D01*
X0892069Y0136406D01*
X0892182Y0136162D01*
X0892289Y0135916D01*
X0892391Y0135666D01*
X0892486Y0135415D01*
X0892576Y0135161D01*
X0892659Y0134905D01*
X0892736Y0134647D01*
X0892806Y0134387D01*
X0892871Y0134126D01*
X0892929Y0133863D01*
X0892981Y0133599D01*
X0893026Y0133334D01*
X0893065Y0133068D01*
X0893097Y0132801D01*
X0893123Y0132533D01*
X0893143Y0132264D01*
X0893156Y0131996D01*
X0893162Y0131727D01*
X0893162Y0131457D01*
X0893156Y0131188D01*
X0893143Y0130920D01*
X0893123Y0130651D01*
X0893097Y0130383D01*
X0893065Y0130116D01*
X0893026Y0129850D01*
X0892981Y0129585D01*
X0892929Y0129321D01*
X0892871Y0129058D01*
X0892806Y0128797D01*
X0892736Y0128537D01*
X0892659Y0128279D01*
X0892576Y0128023D01*
X0892486Y0127769D01*
X0892391Y0127518D01*
X0892289Y0127268D01*
X0892182Y0127022D01*
X0892069Y0126778D01*
X0891949Y0126536D01*
X0891824Y0126298D01*
X0891693Y0126063D01*
X0891557Y0125831D01*
X0891415Y0125602D01*
X0891268Y0125377D01*
X0891115Y0125156D01*
X0890956Y0124938D01*
X0890793Y0124724D01*
X0890625Y0124514D01*
X0890451Y0124309D01*
X0890273Y0124107D01*
X0890089Y0123910D01*
X0889901Y0123718D01*
X0882027Y0107970D02*
X0913523Y0107970D01*
X0905648Y0111907D02*
X0905507Y0112052D01*
X0905370Y0112199D01*
X0905236Y0112351D01*
X0905106Y0112505D01*
X0904979Y0112662D01*
X0904857Y0112823D01*
X0904738Y0112986D01*
X0904624Y0113152D01*
X0904513Y0113321D01*
X0904407Y0113492D01*
X0904304Y0113666D01*
X0904206Y0113843D01*
X0904112Y0114021D01*
X0904023Y0114202D01*
X0903938Y0114385D01*
X0903857Y0114570D01*
X0903781Y0114757D01*
X0903710Y0114946D01*
X0903643Y0115136D01*
X0903580Y0115328D01*
X0903522Y0115522D01*
X0903469Y0115716D01*
X0903421Y0115912D01*
X0903378Y0116109D01*
X0903339Y0116308D01*
X0903305Y0116506D01*
X0903276Y0116706D01*
X0903251Y0116907D01*
X0903232Y0117107D01*
X0903217Y0117309D01*
X0903207Y0117510D01*
X0903203Y0117712D01*
X0903203Y0117914D01*
X0903207Y0118116D01*
X0903217Y0118317D01*
X0903232Y0118519D01*
X0903251Y0118719D01*
X0903276Y0118920D01*
X0903305Y0119120D01*
X0903339Y0119318D01*
X0903378Y0119517D01*
X0903421Y0119714D01*
X0903469Y0119910D01*
X0903522Y0120104D01*
X0903580Y0120298D01*
X0903643Y0120490D01*
X0903710Y0120680D01*
X0903781Y0120869D01*
X0903857Y0121056D01*
X0903938Y0121241D01*
X0904023Y0121424D01*
X0904112Y0121605D01*
X0904206Y0121783D01*
X0904304Y0121960D01*
X0904407Y0122134D01*
X0904513Y0122305D01*
X0904624Y0122474D01*
X0904738Y0122640D01*
X0904857Y0122803D01*
X0904979Y0122964D01*
X0905106Y0123121D01*
X0905236Y0123275D01*
X0905370Y0123427D01*
X0905507Y0123574D01*
X0905648Y0123719D01*
X0936358Y0805608D02*
X0857617Y0805608D01*
X0896988Y0876474D01*
X0936358Y0805608D01*
X0912736Y0813482D02*
X0881240Y0813482D01*
X0889113Y0817419D02*
X0888972Y0817564D01*
X0888835Y0817711D01*
X0888701Y0817863D01*
X0888571Y0818017D01*
X0888444Y0818174D01*
X0888322Y0818335D01*
X0888203Y0818498D01*
X0888089Y0818664D01*
X0887978Y0818833D01*
X0887872Y0819004D01*
X0887769Y0819178D01*
X0887671Y0819355D01*
X0887577Y0819533D01*
X0887488Y0819714D01*
X0887403Y0819897D01*
X0887322Y0820082D01*
X0887246Y0820269D01*
X0887175Y0820458D01*
X0887108Y0820648D01*
X0887045Y0820840D01*
X0886987Y0821034D01*
X0886934Y0821228D01*
X0886886Y0821424D01*
X0886843Y0821621D01*
X0886804Y0821820D01*
X0886770Y0822018D01*
X0886741Y0822218D01*
X0886716Y0822419D01*
X0886697Y0822619D01*
X0886682Y0822821D01*
X0886672Y0823022D01*
X0886668Y0823224D01*
X0886668Y0823426D01*
X0886672Y0823628D01*
X0886682Y0823829D01*
X0886697Y0824031D01*
X0886716Y0824231D01*
X0886741Y0824432D01*
X0886770Y0824632D01*
X0886804Y0824830D01*
X0886843Y0825029D01*
X0886886Y0825226D01*
X0886934Y0825422D01*
X0886987Y0825616D01*
X0887045Y0825810D01*
X0887108Y0826002D01*
X0887175Y0826192D01*
X0887246Y0826381D01*
X0887322Y0826568D01*
X0887403Y0826753D01*
X0887488Y0826936D01*
X0887577Y0827117D01*
X0887671Y0827295D01*
X0887769Y0827472D01*
X0887872Y0827646D01*
X0887978Y0827817D01*
X0888089Y0827986D01*
X0888203Y0828152D01*
X0888322Y0828315D01*
X0888444Y0828476D01*
X0888571Y0828633D01*
X0888701Y0828787D01*
X0888835Y0828939D01*
X0888972Y0829086D01*
X0889113Y0829231D01*
X0896988Y0829230D02*
X0897176Y0829422D01*
X0897360Y0829619D01*
X0897538Y0829821D01*
X0897712Y0830026D01*
X0897880Y0830236D01*
X0898043Y0830450D01*
X0898202Y0830668D01*
X0898355Y0830889D01*
X0898502Y0831114D01*
X0898644Y0831343D01*
X0898780Y0831575D01*
X0898911Y0831810D01*
X0899036Y0832048D01*
X0899156Y0832290D01*
X0899269Y0832534D01*
X0899376Y0832780D01*
X0899478Y0833030D01*
X0899573Y0833281D01*
X0899663Y0833535D01*
X0899746Y0833791D01*
X0899823Y0834049D01*
X0899893Y0834309D01*
X0899958Y0834570D01*
X0900016Y0834833D01*
X0900068Y0835097D01*
X0900113Y0835362D01*
X0900152Y0835628D01*
X0900184Y0835895D01*
X0900210Y0836163D01*
X0900230Y0836432D01*
X0900243Y0836700D01*
X0900249Y0836969D01*
X0900249Y0837239D01*
X0900243Y0837508D01*
X0900230Y0837776D01*
X0900210Y0838045D01*
X0900184Y0838313D01*
X0900152Y0838580D01*
X0900113Y0838846D01*
X0900068Y0839111D01*
X0900016Y0839375D01*
X0899958Y0839638D01*
X0899893Y0839899D01*
X0899823Y0840159D01*
X0899746Y0840417D01*
X0899663Y0840673D01*
X0899573Y0840927D01*
X0899478Y0841178D01*
X0899376Y0841428D01*
X0899269Y0841674D01*
X0899156Y0841918D01*
X0899036Y0842160D01*
X0898911Y0842398D01*
X0898780Y0842633D01*
X0898644Y0842865D01*
X0898502Y0843094D01*
X0898355Y0843319D01*
X0898202Y0843540D01*
X0898043Y0843758D01*
X0897880Y0843972D01*
X0897712Y0844182D01*
X0897538Y0844387D01*
X0897360Y0844589D01*
X0897176Y0844786D01*
X0896988Y0844978D01*
X0904862Y0844978D02*
X0905050Y0844786D01*
X0905234Y0844589D01*
X0905412Y0844387D01*
X0905586Y0844182D01*
X0905754Y0843972D01*
X0905917Y0843758D01*
X0906076Y0843540D01*
X0906229Y0843319D01*
X0906376Y0843094D01*
X0906518Y0842865D01*
X0906654Y0842633D01*
X0906785Y0842398D01*
X0906910Y0842160D01*
X0907030Y0841918D01*
X0907143Y0841674D01*
X0907250Y0841428D01*
X0907352Y0841178D01*
X0907447Y0840927D01*
X0907537Y0840673D01*
X0907620Y0840417D01*
X0907697Y0840159D01*
X0907767Y0839899D01*
X0907832Y0839638D01*
X0907890Y0839375D01*
X0907942Y0839111D01*
X0907987Y0838846D01*
X0908026Y0838580D01*
X0908058Y0838313D01*
X0908084Y0838045D01*
X0908104Y0837776D01*
X0908117Y0837508D01*
X0908123Y0837239D01*
X0908123Y0836969D01*
X0908117Y0836700D01*
X0908104Y0836432D01*
X0908084Y0836163D01*
X0908058Y0835895D01*
X0908026Y0835628D01*
X0907987Y0835362D01*
X0907942Y0835097D01*
X0907890Y0834833D01*
X0907832Y0834570D01*
X0907767Y0834309D01*
X0907697Y0834049D01*
X0907620Y0833791D01*
X0907537Y0833535D01*
X0907447Y0833281D01*
X0907352Y0833030D01*
X0907250Y0832780D01*
X0907143Y0832534D01*
X0907030Y0832290D01*
X0906910Y0832048D01*
X0906785Y0831810D01*
X0906654Y0831575D01*
X0906518Y0831343D01*
X0906376Y0831114D01*
X0906229Y0830889D01*
X0906076Y0830668D01*
X0905917Y0830450D01*
X0905754Y0830236D01*
X0905586Y0830026D01*
X0905412Y0829821D01*
X0905234Y0829619D01*
X0905050Y0829422D01*
X0904862Y0829230D01*
X0896987Y0829231D02*
X0896846Y0829086D01*
X0896709Y0828939D01*
X0896575Y0828787D01*
X0896445Y0828633D01*
X0896318Y0828476D01*
X0896196Y0828315D01*
X0896077Y0828152D01*
X0895963Y0827986D01*
X0895852Y0827817D01*
X0895746Y0827646D01*
X0895643Y0827472D01*
X0895545Y0827295D01*
X0895451Y0827117D01*
X0895362Y0826936D01*
X0895277Y0826753D01*
X0895196Y0826568D01*
X0895120Y0826381D01*
X0895049Y0826192D01*
X0894982Y0826002D01*
X0894919Y0825810D01*
X0894861Y0825616D01*
X0894808Y0825422D01*
X0894760Y0825226D01*
X0894717Y0825029D01*
X0894678Y0824830D01*
X0894644Y0824632D01*
X0894615Y0824432D01*
X0894590Y0824231D01*
X0894571Y0824031D01*
X0894556Y0823829D01*
X0894546Y0823628D01*
X0894542Y0823426D01*
X0894542Y0823224D01*
X0894546Y0823022D01*
X0894556Y0822821D01*
X0894571Y0822619D01*
X0894590Y0822419D01*
X0894615Y0822218D01*
X0894644Y0822018D01*
X0894678Y0821820D01*
X0894717Y0821621D01*
X0894760Y0821424D01*
X0894808Y0821228D01*
X0894861Y0821034D01*
X0894919Y0820840D01*
X0894982Y0820648D01*
X0895049Y0820458D01*
X0895120Y0820269D01*
X0895196Y0820082D01*
X0895277Y0819897D01*
X0895362Y0819714D01*
X0895451Y0819533D01*
X0895545Y0819355D01*
X0895643Y0819178D01*
X0895746Y0819004D01*
X0895852Y0818833D01*
X0895963Y0818664D01*
X0896077Y0818498D01*
X0896196Y0818335D01*
X0896318Y0818174D01*
X0896445Y0818017D01*
X0896575Y0817863D01*
X0896709Y0817711D01*
X0896846Y0817564D01*
X0896987Y0817419D01*
X0904861Y0817419D02*
X0904720Y0817564D01*
X0904583Y0817711D01*
X0904449Y0817863D01*
X0904319Y0818017D01*
X0904192Y0818174D01*
X0904070Y0818335D01*
X0903951Y0818498D01*
X0903837Y0818664D01*
X0903726Y0818833D01*
X0903620Y0819004D01*
X0903517Y0819178D01*
X0903419Y0819355D01*
X0903325Y0819533D01*
X0903236Y0819714D01*
X0903151Y0819897D01*
X0903070Y0820082D01*
X0902994Y0820269D01*
X0902923Y0820458D01*
X0902856Y0820648D01*
X0902793Y0820840D01*
X0902735Y0821034D01*
X0902682Y0821228D01*
X0902634Y0821424D01*
X0902591Y0821621D01*
X0902552Y0821820D01*
X0902518Y0822018D01*
X0902489Y0822218D01*
X0902464Y0822419D01*
X0902445Y0822619D01*
X0902430Y0822821D01*
X0902420Y0823022D01*
X0902416Y0823224D01*
X0902416Y0823426D01*
X0902420Y0823628D01*
X0902430Y0823829D01*
X0902445Y0824031D01*
X0902464Y0824231D01*
X0902489Y0824432D01*
X0902518Y0824632D01*
X0902552Y0824830D01*
X0902591Y0825029D01*
X0902634Y0825226D01*
X0902682Y0825422D01*
X0902735Y0825616D01*
X0902793Y0825810D01*
X0902856Y0826002D01*
X0902923Y0826192D01*
X0902994Y0826381D01*
X0903070Y0826568D01*
X0903151Y0826753D01*
X0903236Y0826936D01*
X0903325Y0827117D01*
X0903419Y0827295D01*
X0903517Y0827472D01*
X0903620Y0827646D01*
X0903726Y0827817D01*
X0903837Y0827986D01*
X0903951Y0828152D01*
X0904070Y0828315D01*
X0904192Y0828476D01*
X0904319Y0828633D01*
X0904449Y0828787D01*
X0904583Y0828939D01*
X0904720Y0829086D01*
X0904861Y0829231D01*
X0889114Y0829230D02*
X0889302Y0829422D01*
X0889486Y0829619D01*
X0889664Y0829821D01*
X0889838Y0830026D01*
X0890006Y0830236D01*
X0890169Y0830450D01*
X0890328Y0830668D01*
X0890481Y0830889D01*
X0890628Y0831114D01*
X0890770Y0831343D01*
X0890906Y0831575D01*
X0891037Y0831810D01*
X0891162Y0832048D01*
X0891282Y0832290D01*
X0891395Y0832534D01*
X0891502Y0832780D01*
X0891604Y0833030D01*
X0891699Y0833281D01*
X0891789Y0833535D01*
X0891872Y0833791D01*
X0891949Y0834049D01*
X0892019Y0834309D01*
X0892084Y0834570D01*
X0892142Y0834833D01*
X0892194Y0835097D01*
X0892239Y0835362D01*
X0892278Y0835628D01*
X0892310Y0835895D01*
X0892336Y0836163D01*
X0892356Y0836432D01*
X0892369Y0836700D01*
X0892375Y0836969D01*
X0892375Y0837239D01*
X0892369Y0837508D01*
X0892356Y0837776D01*
X0892336Y0838045D01*
X0892310Y0838313D01*
X0892278Y0838580D01*
X0892239Y0838846D01*
X0892194Y0839111D01*
X0892142Y0839375D01*
X0892084Y0839638D01*
X0892019Y0839899D01*
X0891949Y0840159D01*
X0891872Y0840417D01*
X0891789Y0840673D01*
X0891699Y0840927D01*
X0891604Y0841178D01*
X0891502Y0841428D01*
X0891395Y0841674D01*
X0891282Y0841918D01*
X0891162Y0842160D01*
X0891037Y0842398D01*
X0890906Y0842633D01*
X0890770Y0842865D01*
X0890628Y0843094D01*
X0890481Y0843319D01*
X0890328Y0843540D01*
X0890169Y0843758D01*
X0890006Y0843972D01*
X0889838Y0844182D01*
X0889664Y0844387D01*
X0889486Y0844589D01*
X0889302Y0844786D01*
X0889114Y0844978D01*
D11*
X0792451Y0118445D02*
X0792451Y0104633D01*
X0787847Y0109237D01*
X0783243Y0104633D01*
X0783243Y0118445D01*
X0778639Y0113841D02*
X0774035Y0118445D01*
X0769431Y0113841D01*
X0769431Y0104633D01*
X0764827Y0104633D02*
X0764827Y0118445D01*
X0757921Y0118445D01*
X0755619Y0116143D01*
X0755619Y0111539D01*
X0757921Y0109237D01*
X0764827Y0109237D01*
X0760223Y0109237D02*
X0755619Y0104633D01*
X0751015Y0104633D02*
X0751015Y0118445D01*
X0741807Y0104633D01*
X0741807Y0118445D01*
X0737203Y0118445D02*
X0732599Y0118445D01*
X0734901Y0118445D02*
X0734901Y0104633D01*
X0737203Y0104633D02*
X0732599Y0104633D01*
X0727995Y0104633D02*
X0727995Y0118445D01*
X0718788Y0104633D01*
X0718788Y0118445D01*
X0714184Y0116143D02*
X0714184Y0106935D01*
X0711882Y0104633D01*
X0707278Y0104633D01*
X0704976Y0106935D01*
X0704976Y0111539D01*
X0709580Y0111539D01*
X0714184Y0116143D02*
X0711882Y0118445D01*
X0707278Y0118445D01*
X0704976Y0116143D01*
X0700372Y0113841D02*
X0700372Y0111539D01*
X0698070Y0111539D01*
X0698070Y0113841D01*
X0700372Y0113841D01*
X0700372Y0106935D02*
X0700372Y0104633D01*
X0698070Y0104633D01*
X0698070Y0106935D01*
X0700372Y0106935D01*
X0679654Y0106935D02*
X0677352Y0104633D01*
X0672748Y0104633D01*
X0670446Y0106935D01*
X0670446Y0109237D01*
X0672748Y0111539D01*
X0677352Y0111539D01*
X0679654Y0113841D01*
X0679654Y0116143D01*
X0677352Y0118445D01*
X0672748Y0118445D01*
X0670446Y0116143D01*
X0665842Y0113841D02*
X0661238Y0113841D01*
X0663540Y0116143D02*
X0663540Y0106935D01*
X0661238Y0104633D01*
X0656635Y0104633D02*
X0652031Y0104633D01*
X0654333Y0104633D02*
X0654333Y0113841D01*
X0656635Y0113841D01*
X0654333Y0118445D02*
X0654333Y0120747D01*
X0647427Y0118445D02*
X0645125Y0118445D01*
X0645125Y0104633D01*
X0647427Y0104633D02*
X0642823Y0104633D01*
X0638219Y0104633D02*
X0633615Y0104633D01*
X0635917Y0104633D02*
X0635917Y0118445D01*
X0638219Y0118445D01*
X0615199Y0118445D02*
X0615199Y0104633D01*
X0615199Y0111539D02*
X0612897Y0113841D01*
X0608293Y0113841D01*
X0605991Y0111539D01*
X0605991Y0104633D01*
X0601387Y0106935D02*
X0599085Y0104633D01*
X0594481Y0104633D01*
X0592179Y0106935D01*
X0592179Y0111539D01*
X0594481Y0113841D01*
X0599085Y0113841D01*
X0601387Y0111539D01*
X0601387Y0106935D01*
X0587576Y0113841D02*
X0582972Y0113841D01*
X0585274Y0116143D02*
X0585274Y0106935D01*
X0582972Y0104633D01*
X0564556Y0106935D02*
X0562254Y0109237D01*
X0555348Y0109237D01*
X0555348Y0111539D02*
X0555348Y0104633D01*
X0562254Y0104633D01*
X0564556Y0106935D01*
X0562254Y0113841D02*
X0557650Y0113841D01*
X0555348Y0111539D01*
X0550744Y0111539D02*
X0546140Y0111539D01*
X0541536Y0113841D02*
X0536932Y0113841D01*
X0539234Y0116143D02*
X0539234Y0106935D01*
X0536932Y0104633D01*
X0532328Y0106935D02*
X0532328Y0111539D01*
X0530026Y0113841D01*
X0525422Y0113841D01*
X0523121Y0111539D01*
X0523121Y0109237D01*
X0532328Y0109237D01*
X0532328Y0106935D02*
X0530026Y0104633D01*
X0525422Y0104633D01*
X0518517Y0104633D02*
X0518517Y0113841D01*
X0518517Y0109237D02*
X0513913Y0113841D01*
X0511611Y0113841D01*
X0493195Y0118445D02*
X0493195Y0104633D01*
X0483987Y0104633D01*
X0479383Y0104633D02*
X0479383Y0118445D01*
X0470175Y0118445D01*
X0465571Y0118445D02*
X0458665Y0118445D01*
X0456363Y0116143D01*
X0456363Y0106935D01*
X0458665Y0104633D01*
X0465571Y0104633D01*
X0465571Y0118445D01*
X0474779Y0111539D02*
X0479383Y0111539D01*
X0479383Y0104633D02*
X0470175Y0104633D01*
X0437948Y0106935D02*
X0435646Y0104633D01*
X0428740Y0104633D01*
X0428740Y0102331D02*
X0428740Y0113841D01*
X0435646Y0113841D01*
X0437948Y0111539D01*
X0437948Y0106935D01*
X0433344Y0100029D02*
X0431042Y0100029D01*
X0428740Y0102331D01*
X0424136Y0106935D02*
X0421834Y0104633D01*
X0417230Y0104633D01*
X0414928Y0106935D01*
X0414928Y0111539D01*
X0417230Y0113841D01*
X0421834Y0113841D01*
X0424136Y0111539D01*
X0424136Y0106935D01*
X0410324Y0106935D02*
X0410324Y0111539D01*
X0408022Y0113841D01*
X0403418Y0113841D01*
X0401116Y0111539D01*
X0401116Y0109237D01*
X0410324Y0109237D01*
X0410324Y0106935D02*
X0408022Y0104633D01*
X0403418Y0104633D01*
X0396512Y0104633D02*
X0389606Y0104633D01*
X0387304Y0106935D01*
X0389606Y0109237D01*
X0394210Y0109237D01*
X0396512Y0111539D01*
X0394210Y0113841D01*
X0387304Y0113841D01*
X0368889Y0111539D02*
X0368889Y0106935D01*
X0366587Y0104633D01*
X0361983Y0104633D01*
X0359681Y0106935D01*
X0359681Y0111539D01*
X0361983Y0113841D01*
X0366587Y0113841D01*
X0368889Y0111539D01*
X0355077Y0113841D02*
X0355077Y0106935D01*
X0352775Y0104633D01*
X0345869Y0104633D01*
X0345869Y0113841D01*
X0341265Y0113841D02*
X0336661Y0113841D01*
X0338963Y0116143D02*
X0338963Y0106935D01*
X0336661Y0104633D01*
X0332057Y0104633D02*
X0332057Y0106935D01*
X0332057Y0111539D02*
X0332057Y0120747D01*
X0546140Y0118445D02*
X0548442Y0116143D01*
X0548442Y0104633D01*
X0769431Y0111539D02*
X0778639Y0111539D01*
X0778639Y0113841D02*
X0778639Y0104633D01*
D12*
X0789901Y0163835D02*
X0788081Y0165655D01*
X0788081Y0174756D01*
X0795361Y0174756D02*
X0795361Y0169295D01*
X0793541Y0167475D01*
X0788081Y0167475D01*
X0789901Y0163835D02*
X0791721Y0163835D01*
X0798956Y0167475D02*
X0804416Y0167475D01*
X0806236Y0169295D01*
X0804416Y0171115D01*
X0798956Y0171115D01*
X0798956Y0172936D02*
X0798956Y0167475D01*
X0798956Y0172936D02*
X0800776Y0174756D01*
X0804416Y0174756D01*
X0809832Y0174756D02*
X0809832Y0169295D01*
X0811652Y0167475D01*
X0813472Y0169295D01*
X0815292Y0167475D01*
X0817112Y0169295D01*
X0817112Y0174756D01*
X0820707Y0172936D02*
X0820707Y0167475D01*
X0826167Y0167475D01*
X0827987Y0169295D01*
X0826167Y0171115D01*
X0820707Y0171115D01*
X0820707Y0172936D02*
X0822527Y0174756D01*
X0826167Y0174756D01*
X0842458Y0172936D02*
X0842458Y0169295D01*
X0844278Y0167475D01*
X0849738Y0167475D01*
X0849738Y0163835D02*
X0849738Y0174756D01*
X0844278Y0174756D01*
X0842458Y0172936D01*
X0853333Y0172936D02*
X0855153Y0174756D01*
X0858793Y0174756D01*
X0860613Y0172936D01*
X0860613Y0169295D01*
X0858793Y0167475D01*
X0855153Y0167475D01*
X0853333Y0171115D02*
X0860613Y0171115D01*
X0864209Y0171115D02*
X0871489Y0171115D01*
X0871489Y0169295D02*
X0871489Y0172936D01*
X0869669Y0174756D01*
X0866029Y0174756D01*
X0864209Y0172936D01*
X0864209Y0171115D01*
X0866029Y0167475D02*
X0869669Y0167475D01*
X0871489Y0169295D01*
X0875084Y0167475D02*
X0880544Y0172936D01*
X0882364Y0171115D02*
X0875084Y0178396D01*
X0882364Y0178396D02*
X0882364Y0167475D01*
X0853333Y0171115D02*
X0853333Y0172936D01*
X0849738Y0198971D02*
X0849738Y0206252D01*
X0844278Y0206252D01*
X0842458Y0204432D01*
X0842458Y0198971D01*
X0838863Y0200791D02*
X0837043Y0198971D01*
X0833402Y0198971D01*
X0831582Y0200791D01*
X0831582Y0204432D01*
X0833402Y0206252D01*
X0837043Y0206252D01*
X0838863Y0204432D01*
X0838863Y0200791D01*
X0827987Y0206252D02*
X0824347Y0206252D01*
X0826167Y0208072D02*
X0826167Y0200791D01*
X0824347Y0198971D01*
X0809861Y0198971D02*
X0806221Y0198971D01*
X0808041Y0198971D02*
X0808041Y0209892D01*
X0809861Y0209892D01*
X0802611Y0204432D02*
X0800791Y0206252D01*
X0797151Y0206252D01*
X0795331Y0204432D01*
X0795331Y0202612D01*
X0802611Y0202612D01*
X0802611Y0204432D02*
X0802611Y0200791D01*
X0800791Y0198971D01*
X0797151Y0198971D01*
X0791736Y0200791D02*
X0789916Y0202612D01*
X0784456Y0202612D01*
X0784456Y0204432D02*
X0784456Y0198971D01*
X0789916Y0198971D01*
X0791736Y0200791D01*
X0789916Y0206252D02*
X0786276Y0206252D01*
X0784456Y0204432D01*
X0780860Y0206252D02*
X0777220Y0198971D01*
X0773580Y0206252D01*
X0769985Y0204432D02*
X0768165Y0206252D01*
X0764525Y0206252D01*
X0762705Y0204432D01*
X0762705Y0202612D01*
X0769985Y0202612D01*
X0769985Y0204432D02*
X0769985Y0200791D01*
X0768165Y0198971D01*
X0764525Y0198971D01*
X0748234Y0200791D02*
X0748234Y0206252D01*
X0748234Y0200791D02*
X0746414Y0198971D01*
X0740954Y0198971D01*
X0740954Y0206252D01*
X0737359Y0206252D02*
X0731898Y0206252D01*
X0730078Y0204432D01*
X0730078Y0198971D01*
X0726483Y0200791D02*
X0724663Y0202612D01*
X0719203Y0202612D01*
X0719203Y0204432D02*
X0719203Y0198971D01*
X0724663Y0198971D01*
X0726483Y0200791D01*
X0724663Y0206252D02*
X0721023Y0206252D01*
X0719203Y0204432D01*
X0715608Y0206252D02*
X0711968Y0206252D01*
X0713788Y0208072D02*
X0713788Y0200791D01*
X0711968Y0198971D01*
X0706537Y0200791D02*
X0704717Y0198971D01*
X0706537Y0200791D02*
X0706537Y0208072D01*
X0708357Y0206252D02*
X0704717Y0206252D01*
X0701107Y0204432D02*
X0699287Y0206252D01*
X0695647Y0206252D01*
X0693827Y0204432D01*
X0693827Y0202612D01*
X0701107Y0202612D01*
X0701107Y0204432D02*
X0701107Y0200791D01*
X0699287Y0198971D01*
X0695647Y0198971D01*
X0690232Y0198971D02*
X0690232Y0206252D01*
X0684772Y0206252D01*
X0682952Y0204432D01*
X0682952Y0198971D01*
X0679356Y0200791D02*
X0679356Y0204432D01*
X0677536Y0206252D01*
X0672076Y0206252D01*
X0672076Y0209892D02*
X0672076Y0198971D01*
X0677536Y0198971D01*
X0679356Y0200791D01*
X0668481Y0200791D02*
X0668481Y0204432D01*
X0666661Y0206252D01*
X0663021Y0206252D01*
X0661201Y0204432D01*
X0661201Y0202612D01*
X0668481Y0202612D01*
X0668481Y0200791D02*
X0666661Y0198971D01*
X0663021Y0198971D01*
X0657605Y0200791D02*
X0657605Y0204432D01*
X0655785Y0206252D01*
X0650325Y0206252D01*
X0650325Y0209892D02*
X0650325Y0198971D01*
X0655785Y0198971D01*
X0657605Y0200791D01*
X0646730Y0200791D02*
X0646730Y0198971D01*
X0646730Y0204432D02*
X0646730Y0211712D01*
X0648535Y0230467D02*
X0650355Y0232288D01*
X0650355Y0235928D01*
X0648535Y0237748D01*
X0644895Y0237748D01*
X0643075Y0235928D01*
X0643075Y0232288D01*
X0644895Y0230467D01*
X0648535Y0230467D01*
X0639480Y0235928D02*
X0635840Y0235928D01*
X0632229Y0235928D02*
X0628589Y0235928D01*
X0624979Y0235928D02*
X0624979Y0243208D01*
X0628589Y0241388D02*
X0630409Y0239568D01*
X0630409Y0230467D01*
X0624979Y0230467D02*
X0624979Y0232288D01*
X0637660Y0230467D02*
X0637660Y0239568D01*
X0635840Y0241388D01*
X0637660Y0258027D02*
X0637660Y0267127D01*
X0635840Y0268947D01*
X0635840Y0263487D02*
X0639480Y0263487D01*
X0643075Y0263487D02*
X0644895Y0265307D01*
X0648535Y0265307D01*
X0650355Y0263487D01*
X0650355Y0259847D01*
X0648535Y0258027D01*
X0644895Y0258027D01*
X0643075Y0259847D01*
X0643075Y0263487D01*
X0632229Y0263487D02*
X0628589Y0263487D01*
X0630409Y0267127D02*
X0630409Y0258027D01*
X0630409Y0267127D02*
X0628589Y0268947D01*
X0614104Y0265307D02*
X0610464Y0265307D01*
X0612284Y0267127D02*
X0612284Y0259847D01*
X0610464Y0258027D01*
X0606853Y0258027D02*
X0606853Y0268947D01*
X0605033Y0265307D02*
X0601393Y0265307D01*
X0599573Y0263487D01*
X0599573Y0258027D01*
X0595978Y0259847D02*
X0595978Y0263487D01*
X0594158Y0265307D01*
X0590518Y0265307D01*
X0588698Y0263487D01*
X0588698Y0261667D01*
X0595978Y0261667D01*
X0595978Y0259847D02*
X0594158Y0258027D01*
X0590518Y0258027D01*
X0605033Y0265307D02*
X0606853Y0263487D01*
X0574227Y0263487D02*
X0572407Y0265307D01*
X0568767Y0265307D01*
X0566947Y0263487D01*
X0566947Y0258027D01*
X0563352Y0259847D02*
X0563352Y0263487D01*
X0561532Y0265307D01*
X0557892Y0265307D01*
X0556071Y0263487D01*
X0556071Y0261667D01*
X0563352Y0261667D01*
X0563352Y0259847D02*
X0561532Y0258027D01*
X0557892Y0258027D01*
X0552476Y0259847D02*
X0550656Y0261667D01*
X0545196Y0261667D01*
X0545196Y0263487D02*
X0545196Y0258027D01*
X0550656Y0258027D01*
X0552476Y0259847D01*
X0550656Y0265307D02*
X0547016Y0265307D01*
X0545196Y0263487D01*
X0541601Y0265307D02*
X0537961Y0265307D01*
X0539781Y0267127D02*
X0539781Y0259847D01*
X0537961Y0258027D01*
X0534351Y0258027D02*
X0534351Y0268947D01*
X0534351Y0265307D02*
X0528890Y0265307D01*
X0527070Y0263487D01*
X0527070Y0259847D01*
X0528890Y0258027D01*
X0534351Y0258027D01*
X0523475Y0259847D02*
X0523475Y0263487D01*
X0521655Y0265307D01*
X0518015Y0265307D01*
X0516195Y0263487D01*
X0516195Y0261667D01*
X0523475Y0261667D01*
X0523475Y0259847D02*
X0521655Y0258027D01*
X0518015Y0258027D01*
X0512600Y0259847D02*
X0512600Y0263487D01*
X0510780Y0265307D01*
X0505319Y0265307D01*
X0505319Y0268947D02*
X0505319Y0258027D01*
X0510780Y0258027D01*
X0512600Y0259847D01*
X0490849Y0259847D02*
X0489029Y0261667D01*
X0483569Y0261667D01*
X0483569Y0263487D02*
X0483569Y0258027D01*
X0489029Y0258027D01*
X0490849Y0259847D01*
X0489029Y0265307D02*
X0485389Y0265307D01*
X0483569Y0263487D01*
X0479973Y0265307D02*
X0474513Y0265307D01*
X0472693Y0263487D01*
X0472693Y0258027D01*
X0469098Y0259847D02*
X0469098Y0263487D01*
X0467278Y0265307D01*
X0461818Y0265307D01*
X0461818Y0268947D02*
X0461818Y0258027D01*
X0467278Y0258027D01*
X0469098Y0259847D01*
X0479973Y0258027D02*
X0479973Y0265307D01*
X0447347Y0265307D02*
X0447347Y0259847D01*
X0445527Y0258027D01*
X0443707Y0259847D01*
X0441887Y0258027D01*
X0440067Y0259847D01*
X0440067Y0265307D01*
X0434652Y0265307D02*
X0431012Y0265307D01*
X0429191Y0263487D01*
X0429191Y0258027D01*
X0434652Y0258027D01*
X0436472Y0259847D01*
X0434652Y0261667D01*
X0429191Y0261667D01*
X0425596Y0265307D02*
X0423776Y0265307D01*
X0423776Y0258027D01*
X0425596Y0258027D02*
X0421956Y0258027D01*
X0416526Y0259847D02*
X0416526Y0267127D01*
X0418346Y0265307D02*
X0414706Y0265307D01*
X0416526Y0259847D02*
X0414706Y0258027D01*
X0423776Y0268947D02*
X0423776Y0270767D01*
X0400220Y0259847D02*
X0398400Y0261667D01*
X0392940Y0261667D01*
X0392940Y0263487D02*
X0392940Y0258027D01*
X0398400Y0258027D01*
X0400220Y0259847D01*
X0398400Y0265307D02*
X0394760Y0265307D01*
X0392940Y0263487D01*
X0389345Y0265307D02*
X0385705Y0265307D01*
X0387525Y0267127D02*
X0387525Y0259847D01*
X0385705Y0258027D01*
X0371219Y0258027D02*
X0367579Y0258027D01*
X0369399Y0258027D02*
X0369399Y0268947D01*
X0371219Y0268947D01*
X0363969Y0263487D02*
X0362149Y0265307D01*
X0358509Y0265307D01*
X0356689Y0263487D01*
X0356689Y0261667D01*
X0363969Y0261667D01*
X0363969Y0259847D02*
X0363969Y0263487D01*
X0363969Y0259847D02*
X0362149Y0258027D01*
X0358509Y0258027D01*
X0353093Y0259847D02*
X0351273Y0261667D01*
X0345813Y0261667D01*
X0345813Y0263487D02*
X0345813Y0258027D01*
X0351273Y0258027D01*
X0353093Y0259847D01*
X0351273Y0265307D02*
X0347633Y0265307D01*
X0345813Y0263487D01*
X0342218Y0263487D02*
X0340398Y0265307D01*
X0334938Y0265307D01*
X0331343Y0265307D02*
X0327702Y0265307D01*
X0329523Y0267127D02*
X0329523Y0259847D01*
X0327702Y0258027D01*
X0334938Y0259847D02*
X0336758Y0261667D01*
X0340398Y0261667D01*
X0342218Y0263487D01*
X0342218Y0258027D02*
X0336758Y0258027D01*
X0334938Y0259847D01*
X0313217Y0258027D02*
X0305937Y0258027D01*
X0309577Y0258027D02*
X0309577Y0268947D01*
X0313217Y0265307D01*
X0302341Y0267127D02*
X0300521Y0268947D01*
X0296881Y0268947D01*
X0295061Y0267127D01*
X0302341Y0259847D01*
X0300521Y0258027D01*
X0296881Y0258027D01*
X0295061Y0259847D01*
X0295061Y0267127D01*
X0302341Y0267127D02*
X0302341Y0259847D01*
X0280591Y0258027D02*
X0280591Y0265307D01*
X0278770Y0265307D01*
X0276950Y0263487D01*
X0275130Y0265307D01*
X0273310Y0263487D01*
X0273310Y0258027D01*
X0269715Y0258027D02*
X0266075Y0258027D01*
X0267895Y0258027D02*
X0267895Y0265307D01*
X0269715Y0265307D01*
X0267895Y0268947D02*
X0267895Y0270767D01*
X0262465Y0265307D02*
X0257005Y0265307D01*
X0255185Y0263487D01*
X0255185Y0258027D01*
X0251589Y0259847D02*
X0249769Y0258027D01*
X0244309Y0258027D01*
X0244309Y0265307D01*
X0240714Y0265307D02*
X0237074Y0265307D01*
X0238894Y0267127D02*
X0238894Y0259847D01*
X0237074Y0258027D01*
X0233464Y0259847D02*
X0233464Y0263487D01*
X0231644Y0265307D01*
X0228004Y0265307D01*
X0226183Y0263487D01*
X0226183Y0261667D01*
X0233464Y0261667D01*
X0233464Y0259847D02*
X0231644Y0258027D01*
X0228004Y0258027D01*
X0222588Y0258027D02*
X0217128Y0258027D01*
X0215308Y0259847D01*
X0217128Y0261667D01*
X0220768Y0261667D01*
X0222588Y0263487D01*
X0220768Y0265307D01*
X0215308Y0265307D01*
X0211713Y0263487D02*
X0211713Y0270767D01*
X0211713Y0259847D02*
X0211713Y0258027D01*
X0251589Y0259847D02*
X0251589Y0265307D01*
X0262465Y0265307D02*
X0262465Y0258027D01*
X0276950Y0258027D02*
X0276950Y0263487D01*
X0574227Y0268947D02*
X0574227Y0258027D01*
X0646730Y0180216D02*
X0646730Y0172936D01*
X0650325Y0172936D02*
X0650325Y0167475D01*
X0646730Y0167475D02*
X0646730Y0169295D01*
X0650325Y0172936D02*
X0652145Y0174756D01*
X0657605Y0174756D01*
X0657605Y0167475D01*
X0661201Y0171115D02*
X0668481Y0171115D01*
X0668481Y0169295D02*
X0668481Y0172936D01*
X0666661Y0174756D01*
X0663021Y0174756D01*
X0661201Y0172936D01*
X0661201Y0171115D01*
X0663021Y0167475D02*
X0666661Y0167475D01*
X0668481Y0169295D01*
X0672084Y0174756D02*
X0673904Y0174756D01*
X0677544Y0171115D01*
X0677544Y0167475D02*
X0677544Y0174756D01*
X0681139Y0174756D02*
X0686599Y0174756D01*
X0688419Y0172936D01*
X0688419Y0169295D01*
X0686599Y0167475D01*
X0681139Y0167475D01*
X0681139Y0178396D01*
X0693849Y0178396D02*
X0693849Y0167475D01*
X0695669Y0167475D02*
X0692029Y0167475D01*
X0699280Y0167475D02*
X0702920Y0167475D01*
X0701100Y0167475D02*
X0701100Y0174756D01*
X0702920Y0174756D01*
X0706515Y0172936D02*
X0706515Y0167475D01*
X0706515Y0172936D02*
X0708335Y0174756D01*
X0711975Y0174756D01*
X0713795Y0172936D01*
X0717390Y0174756D02*
X0722851Y0174756D01*
X0724671Y0172936D01*
X0724671Y0169295D01*
X0722851Y0167475D01*
X0717390Y0167475D01*
X0713795Y0167475D02*
X0713795Y0178396D01*
X0701100Y0178396D02*
X0701100Y0180216D01*
X0695669Y0178396D02*
X0693849Y0178396D01*
X0739141Y0172936D02*
X0739141Y0167475D01*
X0742781Y0167475D02*
X0742781Y0172936D01*
X0740961Y0174756D01*
X0739141Y0172936D01*
X0742781Y0172936D02*
X0744601Y0174756D01*
X0746421Y0174756D01*
X0746421Y0167475D01*
X0750017Y0169295D02*
X0750017Y0172936D01*
X0751837Y0174756D01*
X0755477Y0174756D01*
X0757297Y0172936D01*
X0757297Y0169295D01*
X0755477Y0167475D01*
X0751837Y0167475D01*
X0750017Y0169295D01*
X0760900Y0174756D02*
X0762720Y0174756D01*
X0766360Y0171115D01*
X0766360Y0167475D02*
X0766360Y0174756D01*
X0769970Y0172936D02*
X0773610Y0172936D01*
X0771790Y0176576D02*
X0771790Y0167475D01*
X0771790Y0176576D02*
X0769970Y0178396D01*
X0737359Y0198971D02*
X0737359Y0206252D01*
X0735546Y0226827D02*
X0735546Y0237748D01*
X0730086Y0237748D01*
X0728266Y0235928D01*
X0728266Y0232288D01*
X0730086Y0230467D01*
X0735546Y0230467D01*
X0724671Y0232288D02*
X0724671Y0235928D01*
X0722851Y0237748D01*
X0719210Y0237748D01*
X0717390Y0235928D01*
X0717390Y0232288D01*
X0719210Y0230467D01*
X0722851Y0230467D01*
X0724671Y0232288D01*
X0713795Y0232288D02*
X0713795Y0237748D01*
X0713795Y0232288D02*
X0711975Y0230467D01*
X0710155Y0232288D01*
X0708335Y0230467D01*
X0706515Y0232288D01*
X0706515Y0237748D01*
X0702920Y0235928D02*
X0702920Y0232288D01*
X0701100Y0230467D01*
X0697460Y0230467D01*
X0695640Y0234108D02*
X0702920Y0234108D01*
X0702920Y0235928D02*
X0701100Y0237748D01*
X0697460Y0237748D01*
X0695640Y0235928D01*
X0695640Y0234108D01*
X0692044Y0234108D02*
X0688404Y0237748D01*
X0686584Y0237748D01*
X0682981Y0235928D02*
X0682981Y0232288D01*
X0681161Y0230467D01*
X0677521Y0230467D01*
X0675701Y0234108D02*
X0682981Y0234108D01*
X0682981Y0235928D02*
X0681161Y0237748D01*
X0677521Y0237748D01*
X0675701Y0235928D01*
X0675701Y0234108D01*
X0672106Y0235928D02*
X0670286Y0237748D01*
X0664826Y0237748D01*
X0664826Y0241388D02*
X0664826Y0230467D01*
X0670286Y0230467D01*
X0672106Y0232288D01*
X0672106Y0235928D01*
X0692044Y0237748D02*
X0692044Y0230467D01*
X0713795Y0254386D02*
X0713795Y0265307D01*
X0708335Y0265307D01*
X0706515Y0263487D01*
X0706515Y0259847D01*
X0708335Y0258027D01*
X0713795Y0258027D01*
X0702920Y0259847D02*
X0701100Y0258027D01*
X0697460Y0258027D01*
X0695640Y0259847D01*
X0695640Y0263487D01*
X0697460Y0265307D01*
X0701100Y0265307D01*
X0702920Y0263487D01*
X0702920Y0259847D01*
X0692044Y0259847D02*
X0690224Y0258027D01*
X0688404Y0259847D01*
X0686584Y0258027D01*
X0684764Y0259847D01*
X0684764Y0265307D01*
X0681169Y0263487D02*
X0679349Y0265307D01*
X0675709Y0265307D01*
X0673889Y0263487D01*
X0673889Y0261667D01*
X0681169Y0261667D01*
X0681169Y0259847D02*
X0681169Y0263487D01*
X0681169Y0259847D02*
X0679349Y0258027D01*
X0675709Y0258027D01*
X0670293Y0258027D02*
X0670293Y0265307D01*
X0666653Y0265307D02*
X0664833Y0265307D01*
X0666653Y0265307D02*
X0670293Y0261667D01*
X0692044Y0259847D02*
X0692044Y0265307D01*
X0728281Y0259847D02*
X0730101Y0259847D01*
X0730101Y0258027D01*
X0728281Y0258027D01*
X0728281Y0259847D01*
X0728281Y0258027D02*
X0731921Y0254386D01*
X0735516Y0256206D02*
X0735516Y0265307D01*
X0740976Y0265307D01*
X0742796Y0263487D01*
X0742796Y0259847D01*
X0740976Y0258027D01*
X0735516Y0258027D01*
X0735516Y0256206D02*
X0737336Y0254386D01*
X0739156Y0254386D01*
X0746392Y0258027D02*
X0746392Y0263487D01*
X0748212Y0265307D01*
X0753672Y0265307D01*
X0753672Y0258027D01*
X0757282Y0258027D02*
X0760922Y0258027D01*
X0759102Y0258027D02*
X0759102Y0265307D01*
X0760922Y0265307D01*
X0764517Y0263487D02*
X0764517Y0258027D01*
X0764517Y0263487D02*
X0766337Y0265307D01*
X0769977Y0265307D01*
X0771797Y0263487D01*
X0775393Y0265307D02*
X0780853Y0265307D01*
X0782673Y0263487D01*
X0782673Y0259847D01*
X0780853Y0258027D01*
X0775393Y0258027D01*
X0771797Y0258027D02*
X0771797Y0268947D01*
X0759102Y0268947D02*
X0759102Y0270767D01*
X0786268Y0265307D02*
X0786268Y0258027D01*
X0791728Y0258027D01*
X0793548Y0259847D01*
X0793548Y0265307D01*
X0797144Y0263487D02*
X0798964Y0265307D01*
X0802604Y0265307D01*
X0804424Y0263487D01*
X0804424Y0259847D01*
X0802604Y0258027D01*
X0798964Y0258027D01*
X0797144Y0259847D01*
X0797144Y0263487D01*
X0808034Y0265307D02*
X0811674Y0265307D01*
X0809854Y0267127D02*
X0809854Y0259847D01*
X0808034Y0258027D01*
X0808041Y0239568D02*
X0808041Y0232288D01*
X0806221Y0230467D01*
X0806221Y0237748D02*
X0809861Y0237748D01*
X0813457Y0235928D02*
X0815277Y0237748D01*
X0818917Y0237748D01*
X0820737Y0235928D01*
X0820737Y0232288D01*
X0818917Y0230467D01*
X0815277Y0230467D01*
X0813457Y0232288D01*
X0813457Y0235928D01*
X0824332Y0235928D02*
X0824332Y0230467D01*
X0824332Y0235928D02*
X0826152Y0237748D01*
X0829792Y0237748D01*
X0831612Y0235928D01*
X0831612Y0241388D02*
X0831612Y0230467D01*
X0846098Y0230467D02*
X0849738Y0230467D01*
X0847918Y0230467D02*
X0847918Y0241388D01*
X0849738Y0241388D01*
X0855168Y0241388D02*
X0855168Y0230467D01*
X0856988Y0230467D02*
X0853348Y0230467D01*
X0860598Y0230467D02*
X0864239Y0230467D01*
X0862419Y0230467D02*
X0862419Y0237748D01*
X0864239Y0237748D01*
X0867849Y0237748D02*
X0871489Y0237748D01*
X0869669Y0239568D02*
X0869669Y0232288D01*
X0867849Y0230467D01*
X0875084Y0232288D02*
X0876904Y0230467D01*
X0880544Y0230467D01*
X0882364Y0232288D01*
X0880544Y0235928D02*
X0876904Y0235928D01*
X0875084Y0234108D01*
X0875084Y0232288D01*
X0880544Y0235928D02*
X0882364Y0237748D01*
X0882364Y0239568D01*
X0880544Y0241388D01*
X0876904Y0241388D01*
X0875084Y0239568D01*
X0862419Y0241388D02*
X0862419Y0243208D01*
X0856988Y0241388D02*
X0855168Y0241388D01*
X0851543Y0258027D02*
X0853363Y0259847D01*
X0853363Y0263487D01*
X0851543Y0265307D01*
X0847903Y0265307D01*
X0846083Y0263487D01*
X0846083Y0259847D01*
X0847903Y0258027D01*
X0851543Y0258027D01*
X0858793Y0258027D02*
X0858793Y0267127D01*
X0856973Y0268947D01*
X0856973Y0263487D02*
X0860613Y0263487D01*
X0864209Y0263487D02*
X0864209Y0261667D01*
X0871489Y0261667D01*
X0871489Y0263487D02*
X0869669Y0265307D01*
X0866029Y0265307D01*
X0864209Y0263487D01*
X0866029Y0258027D02*
X0869669Y0258027D01*
X0871489Y0259847D01*
X0871489Y0263487D01*
X0875084Y0265307D02*
X0875084Y0267127D01*
X0876904Y0268947D01*
X0882364Y0268947D01*
X0882364Y0258027D01*
X0876904Y0258027D01*
X0875084Y0259847D01*
X0875084Y0261667D01*
X0876904Y0263487D01*
X0882364Y0263487D01*
X0876904Y0263487D02*
X0875084Y0265307D01*
X0842488Y0265307D02*
X0842488Y0258027D01*
X0842488Y0261667D02*
X0838848Y0265307D01*
X0837028Y0265307D01*
X0833425Y0263487D02*
X0831605Y0265307D01*
X0827965Y0265307D01*
X0826145Y0263487D01*
X0826145Y0261667D01*
X0833425Y0261667D01*
X0833425Y0259847D02*
X0833425Y0263487D01*
X0833425Y0259847D02*
X0831605Y0258027D01*
X0827965Y0258027D01*
X0789916Y0237748D02*
X0786276Y0237748D01*
X0784456Y0235928D01*
X0784456Y0230467D01*
X0789916Y0230467D01*
X0791736Y0232288D01*
X0789916Y0234108D01*
X0784456Y0234108D01*
X0780860Y0235928D02*
X0777220Y0235928D01*
X0773610Y0237748D02*
X0769970Y0237748D01*
X0771790Y0239568D02*
X0771790Y0232288D01*
X0769970Y0230467D01*
X0766360Y0232288D02*
X0766360Y0235928D01*
X0764540Y0237748D01*
X0760900Y0237748D01*
X0759080Y0235928D01*
X0759080Y0234108D01*
X0766360Y0234108D01*
X0766360Y0232288D02*
X0764540Y0230467D01*
X0760900Y0230467D01*
X0755484Y0230467D02*
X0755484Y0237748D01*
X0751844Y0237748D02*
X0750024Y0237748D01*
X0751844Y0237748D02*
X0755484Y0234108D01*
X0777220Y0241388D02*
X0779040Y0239568D01*
X0779040Y0230467D01*
X0864209Y0204432D02*
X0866029Y0206252D01*
X0869669Y0206252D01*
X0871489Y0204432D01*
X0871489Y0200791D01*
X0869669Y0198971D01*
X0866029Y0198971D01*
X0864209Y0200791D01*
X0864209Y0204432D01*
X0875084Y0208072D02*
X0876904Y0209892D01*
X0882364Y0209892D01*
X0882364Y0198971D01*
X0876904Y0198971D01*
X0875084Y0200791D01*
X0875084Y0208072D01*
X0964784Y0168219D02*
X0967261Y0170696D01*
X0979645Y0170696D01*
X0979645Y0163266D01*
X0977168Y0160789D01*
X0972215Y0160789D01*
X0969738Y0163266D01*
X0969738Y0170696D01*
X0969738Y0175290D02*
X0979645Y0175290D01*
X0979645Y0182720D01*
X0977168Y0185197D01*
X0969738Y0185197D01*
X0972215Y0189790D02*
X0977168Y0189790D01*
X0979645Y0192267D01*
X0979645Y0197221D01*
X0977168Y0199697D01*
X0974692Y0199697D01*
X0974692Y0189790D01*
X0972215Y0189790D02*
X0969738Y0192267D01*
X0969738Y0197221D01*
X0972215Y0204291D02*
X0977168Y0204291D01*
X0979645Y0206768D01*
X0979645Y0214198D01*
X0984599Y0214198D02*
X0969738Y0214198D01*
X0969738Y0206768D01*
X0972215Y0204291D01*
X0969738Y0233292D02*
X0969738Y0240722D01*
X0972215Y0243199D01*
X0977168Y0243199D01*
X0979645Y0240722D01*
X0979645Y0233292D01*
X0984599Y0233292D02*
X0969738Y0233292D01*
X0972215Y0247792D02*
X0969738Y0250269D01*
X0969738Y0257700D01*
X0967261Y0257700D02*
X0964784Y0255223D01*
X0964784Y0252746D01*
X0967261Y0257700D02*
X0979645Y0257700D01*
X0979645Y0262293D02*
X0977168Y0262293D01*
X0977168Y0264770D01*
X0979645Y0264770D01*
X0979645Y0262293D01*
X0972215Y0262293D02*
X0969738Y0262293D01*
X0969738Y0264770D01*
X0972215Y0264770D01*
X0972215Y0262293D01*
X0972215Y0247792D02*
X0979645Y0247792D01*
X0974692Y0284044D02*
X0974692Y0291474D01*
X0977168Y0293951D01*
X0982122Y0293951D01*
X0984599Y0291474D01*
X0984599Y0284044D01*
X0969738Y0284044D01*
X0969738Y0298545D02*
X0979645Y0298545D01*
X0979645Y0303498D02*
X0979645Y0305975D01*
X0979645Y0303498D02*
X0974692Y0298545D01*
X0972215Y0310628D02*
X0969738Y0313105D01*
X0969738Y0320535D01*
X0979645Y0320535D01*
X0977168Y0325129D02*
X0974692Y0327606D01*
X0974692Y0332559D01*
X0972215Y0335036D01*
X0969738Y0332559D01*
X0969738Y0325129D01*
X0977168Y0325129D02*
X0979645Y0327606D01*
X0979645Y0335036D01*
X0979645Y0342106D02*
X0979645Y0347060D01*
X0977168Y0349537D01*
X0969738Y0349537D01*
X0969738Y0342106D01*
X0972215Y0339629D01*
X0974692Y0342106D01*
X0974692Y0349537D01*
X0972215Y0356607D02*
X0969738Y0356607D01*
X0969738Y0359084D01*
X0972215Y0359084D01*
X0972215Y0356607D01*
X0969738Y0359084D02*
X0964784Y0354130D01*
X0969738Y0378298D02*
X0969738Y0385728D01*
X0972215Y0388205D01*
X0974692Y0388205D01*
X0977168Y0385728D01*
X0977168Y0378298D01*
X0969738Y0378298D02*
X0984599Y0378298D01*
X0984599Y0385728D01*
X0982122Y0388205D01*
X0979645Y0388205D01*
X0977168Y0385728D01*
X0979645Y0392798D02*
X0972215Y0392798D01*
X0969738Y0395275D01*
X0969738Y0402705D01*
X0979645Y0402705D01*
X0979645Y0407299D02*
X0979645Y0409776D01*
X0969738Y0409776D01*
X0969738Y0412252D02*
X0969738Y0407299D01*
X0969738Y0416966D02*
X0969738Y0421919D01*
X0969738Y0419443D02*
X0984599Y0419443D01*
X0984599Y0416966D01*
X0984599Y0409776D02*
X0987076Y0409776D01*
X0979645Y0426633D02*
X0979645Y0431587D01*
X0982122Y0429110D02*
X0972215Y0429110D01*
X0969738Y0431587D01*
X0969738Y0450801D02*
X0969738Y0458231D01*
X0972215Y0460708D01*
X0977168Y0460708D01*
X0979645Y0458231D01*
X0979645Y0450801D01*
X0984599Y0450801D02*
X0969738Y0450801D01*
X0972215Y0465301D02*
X0969738Y0467778D01*
X0969738Y0475208D01*
X0967261Y0475208D02*
X0964784Y0472732D01*
X0964784Y0470255D01*
X0967261Y0475208D02*
X0979645Y0475208D01*
X0979645Y0479802D02*
X0977168Y0479802D01*
X0977168Y0482279D01*
X0979645Y0482279D01*
X0979645Y0479802D01*
X0972215Y0479802D02*
X0972215Y0482279D01*
X0969738Y0482279D01*
X0969738Y0479802D01*
X0972215Y0479802D01*
X0972215Y0465301D02*
X0979645Y0465301D01*
X0984599Y0501553D02*
X0969738Y0501553D01*
X0969738Y0508983D01*
X0972215Y0511460D01*
X0982122Y0511460D01*
X0984599Y0508983D01*
X0984599Y0501553D01*
X0984599Y0516053D02*
X0984599Y0521007D01*
X0984599Y0518530D02*
X0969738Y0518530D01*
X0969738Y0516053D02*
X0969738Y0521007D01*
X0969738Y0530674D02*
X0977168Y0530674D01*
X0982122Y0535627D01*
X0984599Y0535627D01*
X0984599Y0540221D02*
X0969738Y0540221D01*
X0969738Y0550128D01*
X0969738Y0554721D02*
X0969738Y0559675D01*
X0969738Y0557198D02*
X0984599Y0557198D01*
X0984599Y0554721D01*
X0984599Y0550128D02*
X0984599Y0540221D01*
X0977168Y0540221D02*
X0977168Y0545174D01*
X0977168Y0530674D02*
X0982122Y0525720D01*
X0984599Y0525720D01*
X0977168Y0564388D02*
X0979645Y0566865D01*
X0979645Y0571819D01*
X0977168Y0574296D01*
X0974692Y0574296D01*
X0974692Y0564388D01*
X0977168Y0564388D02*
X0972215Y0564388D01*
X0969738Y0566865D01*
X0969738Y0571819D01*
X0972215Y0578889D02*
X0969738Y0581366D01*
X0969738Y0588796D01*
X0972215Y0595866D02*
X0969738Y0598343D01*
X0972215Y0595866D02*
X0982122Y0595866D01*
X0979645Y0593390D02*
X0979645Y0598343D01*
X0979645Y0603057D02*
X0969738Y0603057D01*
X0974692Y0603057D02*
X0979645Y0608010D01*
X0979645Y0610487D01*
X0977168Y0615140D02*
X0972215Y0615140D01*
X0969738Y0617617D01*
X0969738Y0622571D01*
X0972215Y0625048D01*
X0977168Y0625048D01*
X0979645Y0622571D01*
X0979645Y0617617D01*
X0977168Y0615140D01*
X0979645Y0629641D02*
X0969738Y0629641D01*
X0969738Y0639548D02*
X0977168Y0639548D01*
X0979645Y0637071D01*
X0979645Y0629641D01*
X0979645Y0644142D02*
X0979645Y0646618D01*
X0969738Y0646618D01*
X0969738Y0644142D02*
X0969738Y0649095D01*
X0972215Y0653809D02*
X0969738Y0656285D01*
X0969738Y0663716D01*
X0969738Y0668309D02*
X0969738Y0675740D01*
X0972215Y0678216D01*
X0974692Y0675740D01*
X0974692Y0670786D01*
X0977168Y0668309D01*
X0979645Y0670786D01*
X0979645Y0678216D01*
X0972215Y0682810D02*
X0972215Y0685287D01*
X0969738Y0685287D01*
X0969738Y0682810D01*
X0972215Y0682810D01*
X0972215Y0690060D02*
X0969738Y0692537D01*
X0969738Y0699967D01*
X0972215Y0704561D02*
X0969738Y0707037D01*
X0969738Y0711991D01*
X0972215Y0714468D01*
X0977168Y0714468D01*
X0979645Y0711991D01*
X0979645Y0707037D01*
X0977168Y0704561D01*
X0972215Y0704561D01*
X0979645Y0699967D02*
X0979645Y0692537D01*
X0977168Y0690060D01*
X0972215Y0690060D01*
X0979645Y0663716D02*
X0979645Y0656285D01*
X0977168Y0653809D01*
X0972215Y0653809D01*
X0984599Y0646618D02*
X0987076Y0646618D01*
X0979645Y0588796D02*
X0979645Y0581366D01*
X0977168Y0578889D01*
X0972215Y0578889D01*
X0972215Y0719061D02*
X0972215Y0721538D01*
X0969738Y0721538D01*
X0969738Y0719061D01*
X0972215Y0719061D01*
X0969738Y0726312D02*
X0969738Y0736219D01*
X0972215Y0740812D02*
X0974692Y0743289D01*
X0974692Y0750719D01*
X0977168Y0750719D02*
X0969738Y0750719D01*
X0969738Y0743289D01*
X0972215Y0740812D01*
X0979645Y0743289D02*
X0979645Y0748242D01*
X0977168Y0750719D01*
X0979645Y0736219D02*
X0969738Y0726312D01*
X0979645Y0726312D02*
X0979645Y0736219D01*
X0979645Y0310628D02*
X0972215Y0310628D01*
X0964784Y0168219D02*
X0964784Y0165743D01*
X0969738Y0156076D02*
X0969738Y0151122D01*
X0969738Y0153599D02*
X0979645Y0153599D01*
X0979645Y0151122D01*
X0979645Y0146529D02*
X0979645Y0139098D01*
X0977168Y0136621D01*
X0974692Y0139098D01*
X0974692Y0144052D01*
X0972215Y0146529D01*
X0969738Y0144052D01*
X0969738Y0136621D01*
X0974692Y0132028D02*
X0974692Y0122121D01*
X0977168Y0122121D02*
X0979645Y0124598D01*
X0979645Y0129551D01*
X0977168Y0132028D01*
X0974692Y0132028D01*
X0969738Y0129551D02*
X0969738Y0124598D01*
X0972215Y0122121D01*
X0977168Y0122121D01*
X0972215Y0117527D02*
X0982122Y0117527D01*
X0984599Y0115051D01*
X0984599Y0107620D01*
X0969738Y0107620D01*
X0969738Y0115051D01*
X0972215Y0117527D01*
X0984599Y0153599D02*
X0987076Y0153599D01*
D13*
X0771188Y0766640D02*
X0771188Y0795661D01*
X0756677Y0795661D01*
X0751840Y0790824D01*
X0751840Y0781150D01*
X0756677Y0776313D01*
X0771188Y0776313D01*
X0742187Y0771477D02*
X0737350Y0766640D01*
X0727676Y0766640D01*
X0722839Y0771477D01*
X0713185Y0766640D02*
X0698675Y0766640D01*
X0693838Y0771477D01*
X0693838Y0776313D01*
X0698675Y0781150D01*
X0713185Y0781150D01*
X0722839Y0790824D02*
X0727676Y0795661D01*
X0737350Y0795661D01*
X0742187Y0790824D01*
X0742187Y0771477D01*
X0713185Y0766640D02*
X0713185Y0795661D01*
X0698675Y0795661D01*
X0693838Y0790824D01*
X0693838Y0785987D01*
X0698675Y0781150D01*
X0655183Y0781150D02*
X0635836Y0781150D01*
X0626182Y0781150D02*
X0626182Y0771477D01*
X0621345Y0766640D01*
X0611671Y0766640D01*
X0606835Y0776313D02*
X0626182Y0776313D01*
X0626182Y0781150D02*
X0621345Y0785987D01*
X0611671Y0785987D01*
X0606835Y0781150D01*
X0606835Y0776313D01*
X0597181Y0771477D02*
X0592344Y0766640D01*
X0577833Y0766640D01*
X0577833Y0781150D01*
X0582670Y0785987D01*
X0592344Y0785987D01*
X0592344Y0776313D02*
X0577833Y0776313D01*
X0568180Y0785987D02*
X0558506Y0785987D01*
X0563343Y0790824D02*
X0563343Y0771477D01*
X0558506Y0766640D01*
X0548845Y0766640D02*
X0534335Y0766640D01*
X0529498Y0771477D01*
X0529498Y0776313D01*
X0534335Y0781150D01*
X0548845Y0781150D01*
X0548845Y0766640D02*
X0548845Y0795661D01*
X0534335Y0795661D01*
X0529498Y0790824D01*
X0529498Y0785987D01*
X0534335Y0781150D01*
X0519844Y0781150D02*
X0519844Y0771477D01*
X0515007Y0766640D01*
X0505334Y0766640D01*
X0500497Y0776313D02*
X0519844Y0776313D01*
X0519844Y0781150D02*
X0515007Y0785987D01*
X0505334Y0785987D01*
X0500497Y0781150D01*
X0500497Y0776313D01*
X0490843Y0771477D02*
X0486006Y0766640D01*
X0471496Y0766640D01*
X0471496Y0795661D01*
X0471496Y0785987D02*
X0486006Y0785987D01*
X0490843Y0781150D01*
X0490843Y0771477D01*
X0432841Y0766640D02*
X0432841Y0795661D01*
X0423167Y0785987D01*
X0413494Y0795661D01*
X0413494Y0766640D01*
X0403840Y0766640D02*
X0403840Y0795661D01*
X0399003Y0781150D02*
X0384492Y0766640D01*
X0374839Y0781150D02*
X0355491Y0781150D01*
X0345837Y0790824D02*
X0341001Y0795661D01*
X0331327Y0795661D01*
X0326490Y0790824D01*
X0326490Y0785987D01*
X0345837Y0766640D01*
X0326490Y0766640D01*
X0360328Y0766640D02*
X0360328Y0795661D01*
X0374839Y0781150D01*
X0384492Y0795661D02*
X0403840Y0776313D01*
X0592344Y0776313D02*
X0597181Y0771477D01*
X0635836Y0766640D02*
X0635836Y0795661D01*
X0655183Y0795661D02*
X0655183Y0766640D01*
D14*
X0492123Y0488461D02*
X0492119Y0488114D01*
X0492107Y0487767D01*
X0492087Y0487420D01*
X0492059Y0487074D01*
X0492022Y0486729D01*
X0491978Y0486384D01*
X0491926Y0486041D01*
X0491866Y0485699D01*
X0491798Y0485358D01*
X0491722Y0485020D01*
X0491638Y0484683D01*
X0491546Y0484348D01*
X0491447Y0484015D01*
X0491340Y0483685D01*
X0491225Y0483357D01*
X0477162Y0473500D02*
X0476815Y0473504D01*
X0476468Y0473516D01*
X0476121Y0473536D01*
X0475775Y0473564D01*
X0475430Y0473601D01*
X0475085Y0473645D01*
X0474742Y0473697D01*
X0474400Y0473757D01*
X0474059Y0473825D01*
X0473721Y0473901D01*
X0473384Y0473985D01*
X0473049Y0474077D01*
X0472716Y0474176D01*
X0472386Y0474283D01*
X0472058Y0474398D01*
X0477162Y0473500D02*
X0477509Y0473504D01*
X0477856Y0473516D01*
X0478203Y0473536D01*
X0478549Y0473564D01*
X0478894Y0473601D01*
X0479239Y0473645D01*
X0479582Y0473697D01*
X0479924Y0473757D01*
X0480265Y0473825D01*
X0480603Y0473901D01*
X0480940Y0473985D01*
X0481275Y0474077D01*
X0481608Y0474176D01*
X0481938Y0474283D01*
X0482266Y0474398D01*
X0492123Y0488461D02*
X0492119Y0488808D01*
X0492107Y0489155D01*
X0492087Y0489502D01*
X0492059Y0489848D01*
X0492022Y0490193D01*
X0491978Y0490538D01*
X0491926Y0490881D01*
X0491866Y0491223D01*
X0491798Y0491564D01*
X0491722Y0491902D01*
X0491638Y0492239D01*
X0491546Y0492574D01*
X0491447Y0492907D01*
X0491340Y0493237D01*
X0491225Y0493565D01*
X0477162Y0503422D02*
X0476815Y0503418D01*
X0476468Y0503406D01*
X0476121Y0503386D01*
X0475775Y0503358D01*
X0475430Y0503321D01*
X0475085Y0503277D01*
X0474742Y0503225D01*
X0474400Y0503165D01*
X0474059Y0503097D01*
X0473721Y0503021D01*
X0473384Y0502937D01*
X0473049Y0502845D01*
X0472716Y0502746D01*
X0472386Y0502639D01*
X0472058Y0502524D01*
X0462201Y0488461D02*
X0462205Y0488114D01*
X0462217Y0487767D01*
X0462237Y0487420D01*
X0462265Y0487074D01*
X0462302Y0486729D01*
X0462346Y0486384D01*
X0462398Y0486041D01*
X0462458Y0485699D01*
X0462526Y0485358D01*
X0462602Y0485020D01*
X0462686Y0484683D01*
X0462778Y0484348D01*
X0462877Y0484015D01*
X0462984Y0483685D01*
X0463099Y0483357D01*
X0462201Y0488461D02*
X0462205Y0488808D01*
X0462217Y0489155D01*
X0462237Y0489502D01*
X0462265Y0489848D01*
X0462302Y0490193D01*
X0462346Y0490538D01*
X0462398Y0490881D01*
X0462458Y0491223D01*
X0462526Y0491564D01*
X0462602Y0491902D01*
X0462686Y0492239D01*
X0462778Y0492574D01*
X0462877Y0492907D01*
X0462984Y0493237D01*
X0463099Y0493565D01*
X0477162Y0503422D02*
X0477509Y0503418D01*
X0477856Y0503406D01*
X0478203Y0503386D01*
X0478549Y0503358D01*
X0478894Y0503321D01*
X0479239Y0503277D01*
X0479582Y0503225D01*
X0479924Y0503165D01*
X0480265Y0503097D01*
X0480603Y0503021D01*
X0480940Y0502937D01*
X0481275Y0502845D01*
X0481608Y0502746D01*
X0481938Y0502639D01*
X0482266Y0502524D01*
X0485749Y0500712D02*
X0486031Y0500510D01*
X0486308Y0500301D01*
X0486580Y0500085D01*
X0486848Y0499864D01*
X0487110Y0499636D01*
X0487366Y0499402D01*
X0487618Y0499162D01*
X0487863Y0498917D01*
X0488103Y0498665D01*
X0488337Y0498409D01*
X0488565Y0498147D01*
X0488786Y0497879D01*
X0489002Y0497607D01*
X0489211Y0497330D01*
X0489413Y0497048D01*
X0489413Y0479874D02*
X0489211Y0479592D01*
X0489002Y0479315D01*
X0488786Y0479043D01*
X0488565Y0478775D01*
X0488337Y0478513D01*
X0488103Y0478257D01*
X0487863Y0478005D01*
X0487618Y0477760D01*
X0487366Y0477520D01*
X0487110Y0477286D01*
X0486848Y0477058D01*
X0486580Y0476837D01*
X0486308Y0476621D01*
X0486031Y0476412D01*
X0485749Y0476210D01*
X0468575Y0476210D02*
X0468293Y0476412D01*
X0468016Y0476621D01*
X0467744Y0476837D01*
X0467476Y0477058D01*
X0467214Y0477286D01*
X0466958Y0477520D01*
X0466706Y0477760D01*
X0466461Y0478005D01*
X0466221Y0478257D01*
X0465987Y0478513D01*
X0465759Y0478775D01*
X0465538Y0479043D01*
X0465322Y0479315D01*
X0465113Y0479592D01*
X0464911Y0479874D01*
X0464911Y0497048D02*
X0465113Y0497330D01*
X0465322Y0497607D01*
X0465538Y0497879D01*
X0465759Y0498147D01*
X0465987Y0498409D01*
X0466221Y0498665D01*
X0466461Y0498917D01*
X0466706Y0499162D01*
X0466958Y0499402D01*
X0467214Y0499636D01*
X0467476Y0499864D01*
X0467744Y0500085D01*
X0468016Y0500301D01*
X0468293Y0500510D01*
X0468575Y0500712D01*
M02*
