G75*
%MOIN*%
%OFA0B0*%
%FSLAX26Y26*%
%IPPOS*%
%LPD*%
%AMOC8*
5,1,8,0,0,1.08239X$1,22.5*
%
%ADD10C,0.016000*%
D10*
X00166110Y00000000D02*
X08062236Y00000000D01*
X08062236Y00015999D02*
X00166110Y00015999D01*
X00166110Y00021869D02*
X00154790Y00064116D01*
X00132921Y00101994D01*
X00101994Y00132921D01*
X00064116Y00154790D01*
X00021869Y00166110D01*
X-00021869Y00166110D01*
X-00064116Y00154790D01*
X-00101994Y00132921D01*
X-00132921Y00101994D01*
X-00154790Y00064116D01*
X-00166110Y00021869D01*
X-00166110Y-00021869D01*
X-00154790Y-00064116D01*
X-00132921Y-00101994D01*
X-00101994Y-00132921D01*
X-00064116Y-00154790D01*
X-00021869Y-00166110D01*
X00021869Y-00166110D01*
X00064116Y-00154790D01*
X00101994Y-00132921D01*
X00132921Y-00101994D01*
X00154790Y-00064116D01*
X00166110Y-00021869D01*
X00166110Y00021869D01*
X00163396Y00031997D02*
X08064950Y00031997D01*
X08062236Y00021869D02*
X08062236Y-00021869D01*
X08073556Y-00064116D01*
X08095425Y-00101994D01*
X08126352Y-00132921D01*
X08164230Y-00154790D01*
X08206477Y-00166110D01*
X08250215Y-00166110D01*
X08292463Y-00154790D01*
X08330340Y-00132921D01*
X08361268Y-00101994D01*
X08383136Y-00064116D01*
X08394457Y-00021869D01*
X08394457Y00021869D01*
X08383136Y00064116D01*
X08361268Y00101994D01*
X08330340Y00132921D01*
X08292463Y00154790D01*
X08250215Y00166110D01*
X08206477Y00166110D01*
X08164230Y00154790D01*
X08126352Y00132921D01*
X08095425Y00101994D01*
X08073556Y00064116D01*
X08062236Y00021869D01*
X08069237Y00047996D02*
X00159109Y00047996D01*
X00154823Y00063994D02*
X08073524Y00063994D01*
X08082723Y00079993D02*
X00145624Y00079993D01*
X00136387Y00095991D02*
X08091960Y00095991D01*
X08105421Y00111990D02*
X00122925Y00111990D01*
X00106927Y00127988D02*
X08121419Y00127988D01*
X08145518Y00143987D02*
X00082828Y00143987D01*
X00044727Y00159985D02*
X08183619Y00159985D01*
X08273074Y00159985D02*
X09007118Y00159985D01*
X09007118Y00143987D02*
X08311174Y00143987D01*
X08335273Y00127988D02*
X09007118Y00127988D01*
X09007118Y00111990D02*
X08351272Y00111990D01*
X08364733Y00095991D02*
X09007118Y00095991D01*
X09007118Y00079993D02*
X08373970Y00079993D01*
X08383169Y00063994D02*
X09007118Y00063994D01*
X09007118Y00047996D02*
X08387456Y00047996D01*
X08391743Y00031997D02*
X09007118Y00031997D01*
X09007118Y00015999D02*
X08394457Y00015999D01*
X08394457Y00000000D02*
X09007118Y00000000D01*
X09007118Y-00015999D02*
X08394457Y-00015999D01*
X08391743Y-00031997D02*
X09007118Y-00031997D01*
X09007118Y-00047996D02*
X08387456Y-00047996D01*
X08383169Y-00063994D02*
X09007118Y-00063994D01*
X09007118Y-00079993D02*
X08373970Y-00079993D01*
X08364733Y-00095991D02*
X09007118Y-00095991D01*
X09007118Y-00111990D02*
X08351272Y-00111990D01*
X08335273Y-00127988D02*
X09007118Y-00127988D01*
X09007118Y-00143987D02*
X08311174Y-00143987D01*
X08273074Y-00159985D02*
X09007118Y-00159985D01*
X09007118Y-00175984D02*
X-00896882Y-00175984D01*
X-00896882Y-00191982D02*
X09007118Y-00191982D01*
X09007118Y-00207981D02*
X-00896882Y-00207981D01*
X-00896882Y-00216338D02*
X-00896882Y08680905D01*
X-00746709Y08831078D01*
X-00739402Y08848720D01*
X-00739402Y09365945D01*
X-00728149Y09377197D01*
X00295078Y09377197D01*
X00306331Y09365945D01*
X00306331Y08888090D01*
X00313638Y08870448D01*
X00366511Y08817575D01*
X00384153Y08810268D01*
X08877756Y08810268D01*
X09007118Y08680905D01*
X09007118Y-00216338D01*
X08877756Y-00345701D01*
X-00767519Y-00345701D01*
X-00896882Y-00216338D01*
X-00889241Y-00223979D02*
X08999477Y-00223979D01*
X08983478Y-00239978D02*
X-00873242Y-00239978D01*
X-00857244Y-00255976D02*
X08967480Y-00255976D01*
X08951481Y-00271975D02*
X-00841245Y-00271975D01*
X-00825247Y-00287973D02*
X08935483Y-00287973D01*
X08919484Y-00303972D02*
X-00809248Y-00303972D01*
X-00793250Y-00319970D02*
X08903486Y-00319970D01*
X08887487Y-00335969D02*
X-00777251Y-00335969D01*
X-00896882Y-00159985D02*
X-00044727Y-00159985D01*
X-00082828Y-00143987D02*
X-00896882Y-00143987D01*
X-00896882Y-00127988D02*
X-00106927Y-00127988D01*
X-00122925Y-00111990D02*
X-00896882Y-00111990D01*
X-00896882Y-00095991D02*
X-00136387Y-00095991D01*
X-00145624Y-00079993D02*
X-00896882Y-00079993D01*
X-00896882Y-00063994D02*
X-00154823Y-00063994D01*
X-00159109Y-00047996D02*
X-00896882Y-00047996D01*
X-00896882Y-00031997D02*
X-00163396Y-00031997D01*
X-00166110Y-00015999D02*
X-00896882Y-00015999D01*
X-00896882Y00000000D02*
X-00166110Y00000000D01*
X-00166110Y00015999D02*
X-00896882Y00015999D01*
X-00896882Y00031997D02*
X-00163396Y00031997D01*
X-00159109Y00047996D02*
X-00896882Y00047996D01*
X-00896882Y00063994D02*
X-00154823Y00063994D01*
X-00145624Y00079993D02*
X-00896882Y00079993D01*
X-00896882Y00095991D02*
X-00136387Y00095991D01*
X-00122925Y00111990D02*
X-00896882Y00111990D01*
X-00896882Y00127988D02*
X-00106927Y00127988D01*
X-00082828Y00143987D02*
X-00896882Y00143987D01*
X-00896882Y00159985D02*
X-00044727Y00159985D01*
X00166110Y-00015999D02*
X08062236Y-00015999D01*
X08064950Y-00031997D02*
X00163396Y-00031997D01*
X00159109Y-00047996D02*
X08069237Y-00047996D01*
X08073524Y-00063994D02*
X00154823Y-00063994D01*
X00145624Y-00079993D02*
X08082723Y-00079993D01*
X08091959Y-00095991D02*
X00136387Y-00095991D01*
X00122925Y-00111990D02*
X08105421Y-00111990D01*
X08121419Y-00127988D02*
X00106927Y-00127988D01*
X00082828Y-00143987D02*
X08145518Y-00143987D01*
X08183619Y-00159985D02*
X00044727Y-00159985D01*
X-00896882Y00175984D02*
X09007118Y00175984D01*
X09007118Y00191982D02*
X-00896882Y00191982D01*
X-00896882Y00207981D02*
X09007118Y00207981D01*
X09007118Y00223979D02*
X-00896882Y00223979D01*
X-00896882Y00239978D02*
X09007118Y00239978D01*
X09007118Y00255976D02*
X-00896882Y00255976D01*
X-00896882Y00271975D02*
X09007118Y00271975D01*
X09007118Y00287973D02*
X-00896882Y00287973D01*
X-00896882Y00303972D02*
X09007118Y00303972D01*
X09007118Y00319970D02*
X-00896882Y00319970D01*
X-00896882Y00335969D02*
X09007118Y00335969D01*
X09007118Y00351968D02*
X-00896882Y00351968D01*
X-00896882Y00367966D02*
X09007118Y00367966D01*
X09007118Y00383965D02*
X-00896882Y00383965D01*
X-00896882Y00399963D02*
X09007118Y00399963D01*
X09007118Y00415962D02*
X-00896882Y00415962D01*
X-00896882Y00431960D02*
X09007118Y00431960D01*
X09007118Y00447959D02*
X-00896882Y00447959D01*
X-00896882Y00463957D02*
X09007118Y00463957D01*
X09007118Y00479956D02*
X-00896882Y00479956D01*
X-00896882Y00495954D02*
X09007118Y00495954D01*
X09007118Y00511953D02*
X-00896882Y00511953D01*
X-00896882Y00527951D02*
X09007118Y00527951D01*
X09007118Y00543950D02*
X-00896882Y00543950D01*
X-00896882Y00559948D02*
X09007118Y00559948D01*
X09007118Y00575947D02*
X-00896882Y00575947D01*
X-00896882Y00591945D02*
X09007118Y00591945D01*
X09007118Y00607944D02*
X-00896882Y00607944D01*
X-00896882Y00623942D02*
X09007118Y00623942D01*
X09007118Y00639941D02*
X-00896882Y00639941D01*
X-00896882Y00655939D02*
X09007118Y00655939D01*
X09007118Y00671938D02*
X-00896882Y00671938D01*
X-00896882Y00687937D02*
X09007118Y00687937D01*
X09007118Y00703935D02*
X-00896882Y00703935D01*
X-00896882Y00719934D02*
X09007118Y00719934D01*
X09007118Y00735932D02*
X-00896882Y00735932D01*
X-00896882Y00751931D02*
X09007118Y00751931D01*
X09007118Y00767929D02*
X-00896882Y00767929D01*
X-00896882Y00783928D02*
X09007118Y00783928D01*
X09007118Y00799926D02*
X-00896882Y00799926D01*
X-00896882Y00815925D02*
X09007118Y00815925D01*
X09007118Y00831923D02*
X-00896882Y00831923D01*
X-00896882Y00847922D02*
X09007118Y00847922D01*
X09007118Y00863920D02*
X-00896882Y00863920D01*
X-00896882Y00879919D02*
X09007118Y00879919D01*
X09007118Y00895917D02*
X-00896882Y00895917D01*
X-00896882Y00911916D02*
X09007118Y00911916D01*
X09007118Y00927914D02*
X-00896882Y00927914D01*
X-00896882Y00943913D02*
X09007118Y00943913D01*
X09007118Y00959911D02*
X-00896882Y00959911D01*
X-00896882Y00975910D02*
X09007118Y00975910D01*
X09007118Y00991908D02*
X-00896882Y00991908D01*
X-00896882Y01007907D02*
X09007118Y01007907D01*
X09007118Y01023906D02*
X-00896882Y01023906D01*
X-00896882Y01039904D02*
X09007118Y01039904D01*
X09007118Y01055903D02*
X-00896882Y01055903D01*
X-00896882Y01071901D02*
X09007118Y01071901D01*
X09007118Y01087900D02*
X-00896882Y01087900D01*
X-00896882Y01103898D02*
X09007118Y01103898D01*
X09007118Y01119897D02*
X-00896882Y01119897D01*
X-00896882Y01135895D02*
X09007118Y01135895D01*
X09007118Y01151894D02*
X-00896882Y01151894D01*
X-00896882Y01167892D02*
X09007118Y01167892D01*
X09007118Y01183891D02*
X-00896882Y01183891D01*
X-00896882Y01199889D02*
X09007118Y01199889D01*
X09007118Y01215888D02*
X-00896882Y01215888D01*
X-00896882Y01231886D02*
X09007118Y01231886D01*
X09007118Y01247885D02*
X-00896882Y01247885D01*
X-00896882Y01263883D02*
X09007118Y01263883D01*
X09007118Y01279882D02*
X-00896882Y01279882D01*
X-00896882Y01295880D02*
X09007118Y01295880D01*
X09007118Y01311879D02*
X-00896882Y01311879D01*
X-00896882Y01327877D02*
X09007118Y01327877D01*
X09007118Y01343876D02*
X-00896882Y01343876D01*
X-00896882Y01359875D02*
X09007118Y01359875D01*
X09007118Y01375873D02*
X-00896882Y01375873D01*
X-00896882Y01391872D02*
X09007118Y01391872D01*
X09007118Y01407870D02*
X-00896882Y01407870D01*
X-00896882Y01423869D02*
X09007118Y01423869D01*
X09007118Y01439867D02*
X-00896882Y01439867D01*
X-00896882Y01455866D02*
X09007118Y01455866D01*
X09007118Y01471864D02*
X-00896882Y01471864D01*
X-00896882Y01487863D02*
X09007118Y01487863D01*
X09007118Y01503861D02*
X-00896882Y01503861D01*
X-00896882Y01519860D02*
X09007118Y01519860D01*
X09007118Y01535858D02*
X-00896882Y01535858D01*
X-00896882Y01551857D02*
X09007118Y01551857D01*
X09007118Y01567855D02*
X-00896882Y01567855D01*
X-00896882Y01583854D02*
X09007118Y01583854D01*
X09007118Y01599852D02*
X-00896882Y01599852D01*
X-00896882Y01615851D02*
X09007118Y01615851D01*
X09007118Y01631849D02*
X-00896882Y01631849D01*
X-00896882Y01647848D02*
X09007118Y01647848D01*
X09007118Y01663846D02*
X-00896882Y01663846D01*
X-00896882Y01679845D02*
X09007118Y01679845D01*
X09007118Y01695844D02*
X-00896882Y01695844D01*
X-00896882Y01711842D02*
X09007118Y01711842D01*
X09007118Y01727841D02*
X-00896882Y01727841D01*
X-00896882Y01743839D02*
X09007118Y01743839D01*
X09007118Y01759838D02*
X-00896882Y01759838D01*
X-00896882Y01775836D02*
X09007118Y01775836D01*
X09007118Y01791835D02*
X-00896882Y01791835D01*
X-00896882Y01807833D02*
X09007118Y01807833D01*
X09007118Y01823832D02*
X-00896882Y01823832D01*
X-00896882Y01839830D02*
X09007118Y01839830D01*
X09007118Y01855829D02*
X-00896882Y01855829D01*
X-00896882Y01871827D02*
X09007118Y01871827D01*
X09007118Y01887826D02*
X-00896882Y01887826D01*
X-00896882Y01903824D02*
X09007118Y01903824D01*
X09007118Y01919823D02*
X-00896882Y01919823D01*
X-00896882Y01935821D02*
X09007118Y01935821D01*
X09007118Y01951820D02*
X-00896882Y01951820D01*
X-00896882Y01967818D02*
X09007118Y01967818D01*
X09007118Y01983817D02*
X-00896882Y01983817D01*
X-00896882Y01999815D02*
X09007118Y01999815D01*
X09007118Y02015814D02*
X-00896882Y02015814D01*
X-00896882Y02031813D02*
X09007118Y02031813D01*
X09007118Y02047811D02*
X-00896882Y02047811D01*
X-00896882Y02063810D02*
X09007118Y02063810D01*
X09007118Y02079808D02*
X-00896882Y02079808D01*
X-00896882Y02095807D02*
X09007118Y02095807D01*
X09007118Y02111805D02*
X-00896882Y02111805D01*
X-00896882Y02127804D02*
X09007118Y02127804D01*
X09007118Y02143802D02*
X-00896882Y02143802D01*
X-00896882Y02159801D02*
X09007118Y02159801D01*
X09007118Y02175799D02*
X-00896882Y02175799D01*
X-00896882Y02191798D02*
X09007118Y02191798D01*
X09007118Y02207796D02*
X-00896882Y02207796D01*
X-00896882Y02223795D02*
X09007118Y02223795D01*
X09007118Y02239793D02*
X-00896882Y02239793D01*
X-00896882Y02255792D02*
X09007118Y02255792D01*
X09007118Y02271790D02*
X-00896882Y02271790D01*
X-00896882Y02287789D02*
X09007118Y02287789D01*
X09007118Y02303787D02*
X-00896882Y02303787D01*
X-00896882Y02319786D02*
X09007118Y02319786D01*
X09007118Y02335784D02*
X-00896882Y02335784D01*
X-00896882Y02351783D02*
X09007118Y02351783D01*
X09007118Y02367781D02*
X-00896882Y02367781D01*
X-00896882Y02383780D02*
X09007118Y02383780D01*
X09007118Y02399779D02*
X-00896882Y02399779D01*
X-00896882Y02415777D02*
X09007118Y02415777D01*
X09007118Y02431776D02*
X-00896882Y02431776D01*
X-00896882Y02447774D02*
X09007118Y02447774D01*
X09007118Y02463773D02*
X-00896882Y02463773D01*
X-00896882Y02479771D02*
X09007118Y02479771D01*
X09007118Y02495770D02*
X-00896882Y02495770D01*
X-00896882Y02511768D02*
X09007118Y02511768D01*
X09007118Y02527767D02*
X-00896882Y02527767D01*
X-00896882Y02543765D02*
X09007118Y02543765D01*
X09007118Y02559764D02*
X-00896882Y02559764D01*
X-00896882Y02575762D02*
X09007118Y02575762D01*
X09007118Y02591761D02*
X-00896882Y02591761D01*
X-00896882Y02607759D02*
X09007118Y02607759D01*
X09007118Y02623758D02*
X-00896882Y02623758D01*
X-00896882Y02639756D02*
X09007118Y02639756D01*
X09007118Y02655755D02*
X-00896882Y02655755D01*
X-00896882Y02671753D02*
X09007118Y02671753D01*
X09007118Y02687752D02*
X-00896882Y02687752D01*
X-00896882Y02703750D02*
X09007118Y02703750D01*
X09007118Y02719749D02*
X-00896882Y02719749D01*
X-00896882Y02735748D02*
X09007118Y02735748D01*
X09007118Y02751746D02*
X-00896882Y02751746D01*
X-00896882Y02767745D02*
X09007118Y02767745D01*
X09007118Y02783743D02*
X-00896882Y02783743D01*
X-00896882Y02799742D02*
X09007118Y02799742D01*
X09007118Y02815740D02*
X-00896882Y02815740D01*
X-00896882Y02831739D02*
X09007118Y02831739D01*
X09007118Y02847737D02*
X-00896882Y02847737D01*
X-00896882Y02863736D02*
X09007118Y02863736D01*
X09007118Y02879734D02*
X-00896882Y02879734D01*
X-00896882Y02895733D02*
X09007118Y02895733D01*
X09007118Y02911731D02*
X-00896882Y02911731D01*
X-00896882Y02927730D02*
X09007118Y02927730D01*
X09007118Y02943728D02*
X-00896882Y02943728D01*
X-00896882Y02959727D02*
X09007118Y02959727D01*
X09007118Y02975725D02*
X-00896882Y02975725D01*
X-00896882Y02991724D02*
X09007118Y02991724D01*
X09007118Y03007722D02*
X-00896882Y03007722D01*
X-00896882Y03023721D02*
X09007118Y03023721D01*
X09007118Y03039719D02*
X-00896882Y03039719D01*
X-00896882Y03055718D02*
X09007118Y03055718D01*
X09007118Y03071717D02*
X-00896882Y03071717D01*
X-00896882Y03087715D02*
X09007118Y03087715D01*
X09007118Y03103714D02*
X-00896882Y03103714D01*
X-00896882Y03119712D02*
X09007118Y03119712D01*
X09007118Y03135711D02*
X04183657Y03135711D01*
X04178289Y03132611D02*
X04216167Y03154480D01*
X04247094Y03185407D01*
X04268963Y03223285D01*
X04280283Y03265533D01*
X04280283Y03309270D01*
X04268963Y03351518D01*
X04247094Y03389396D01*
X04216167Y03420323D01*
X04178289Y03442192D01*
X04136042Y03453512D01*
X04092304Y03453512D01*
X04050057Y03442192D01*
X04012179Y03420323D01*
X03981252Y03389396D01*
X03959383Y03351518D01*
X03948063Y03309270D01*
X03948063Y03265533D01*
X03959383Y03223285D01*
X03981252Y03185407D01*
X04012179Y03154480D01*
X04050057Y03132611D01*
X04092304Y03121291D01*
X04136042Y03121291D01*
X04178289Y03132611D01*
X04211367Y03151709D02*
X09007118Y03151709D01*
X09007118Y03167708D02*
X04229395Y03167708D01*
X04245393Y03183706D02*
X09007118Y03183706D01*
X09007118Y03199705D02*
X04255349Y03199705D01*
X04264586Y03215703D02*
X09007118Y03215703D01*
X09007118Y03231702D02*
X04271218Y03231702D01*
X04275505Y03247700D02*
X09007118Y03247700D01*
X09007118Y03263699D02*
X04279792Y03263699D01*
X04280283Y03279697D02*
X09007118Y03279697D01*
X09007118Y03295696D02*
X04280283Y03295696D01*
X04279634Y03311694D02*
X09007118Y03311694D01*
X09007118Y03327693D02*
X04275347Y03327693D01*
X04271060Y03343691D02*
X09007118Y03343691D01*
X09007118Y03359690D02*
X04264245Y03359690D01*
X04255008Y03375688D02*
X09007118Y03375688D01*
X09007118Y03391687D02*
X04244803Y03391687D01*
X04228804Y03407686D02*
X09007118Y03407686D01*
X09007118Y03423684D02*
X04210345Y03423684D01*
X04182635Y03439683D02*
X09007118Y03439683D01*
X09007118Y03455681D02*
X-00896882Y03455681D01*
X-00896882Y03439683D02*
X04045711Y03439683D01*
X04018001Y03423684D02*
X-00896882Y03423684D01*
X-00896882Y03407686D02*
X03999542Y03407686D01*
X03983543Y03391687D02*
X-00896882Y03391687D01*
X-00896882Y03375688D02*
X03973338Y03375688D01*
X03964102Y03359690D02*
X-00896882Y03359690D01*
X-00896882Y03343691D02*
X03957286Y03343691D01*
X03952999Y03327693D02*
X-00896882Y03327693D01*
X-00896882Y03311694D02*
X03948713Y03311694D01*
X03948063Y03295696D02*
X-00896882Y03295696D01*
X-00896882Y03279697D02*
X03948063Y03279697D01*
X03948554Y03263699D02*
X-00896882Y03263699D01*
X-00896882Y03247700D02*
X03952841Y03247700D01*
X03957128Y03231702D02*
X-00896882Y03231702D01*
X-00896882Y03215703D02*
X03963761Y03215703D01*
X03972997Y03199705D02*
X-00896882Y03199705D01*
X-00896882Y03183706D02*
X03982953Y03183706D01*
X03998952Y03167708D02*
X-00896882Y03167708D01*
X-00896882Y03151709D02*
X04016979Y03151709D01*
X04044689Y03135711D02*
X-00896882Y03135711D01*
X-00896882Y03471680D02*
X09007118Y03471680D01*
X09007118Y03487678D02*
X-00896882Y03487678D01*
X-00896882Y03503677D02*
X09007118Y03503677D01*
X09007118Y03519675D02*
X-00896882Y03519675D01*
X-00896882Y03535674D02*
X09007118Y03535674D01*
X09007118Y03551672D02*
X-00896882Y03551672D01*
X-00896882Y03567671D02*
X09007118Y03567671D01*
X09007118Y03583669D02*
X-00896882Y03583669D01*
X-00896882Y03599668D02*
X09007118Y03599668D01*
X09007118Y03615666D02*
X-00896882Y03615666D01*
X-00896882Y03631665D02*
X09007118Y03631665D01*
X09007118Y03647663D02*
X-00896882Y03647663D01*
X-00896882Y03663662D02*
X09007118Y03663662D01*
X09007118Y03679660D02*
X-00896882Y03679660D01*
X-00896882Y03695659D02*
X09007118Y03695659D01*
X09007118Y03711657D02*
X-00896882Y03711657D01*
X-00896882Y03727656D02*
X09007118Y03727656D01*
X09007118Y03743655D02*
X-00896882Y03743655D01*
X-00896882Y03759653D02*
X09007118Y03759653D01*
X09007118Y03775652D02*
X-00896882Y03775652D01*
X-00896882Y03791650D02*
X09007118Y03791650D01*
X09007118Y03807649D02*
X-00896882Y03807649D01*
X-00896882Y03823647D02*
X09007118Y03823647D01*
X09007118Y03839646D02*
X-00896882Y03839646D01*
X-00896882Y03855644D02*
X09007118Y03855644D01*
X09007118Y03871643D02*
X-00896882Y03871643D01*
X-00896882Y03887641D02*
X09007118Y03887641D01*
X09007118Y03903640D02*
X-00896882Y03903640D01*
X-00896882Y03919638D02*
X09007118Y03919638D01*
X09007118Y03935637D02*
X-00896882Y03935637D01*
X-00896882Y03951635D02*
X09007118Y03951635D01*
X09007118Y03967634D02*
X-00896882Y03967634D01*
X-00896882Y03983632D02*
X09007118Y03983632D01*
X09007118Y03999631D02*
X-00896882Y03999631D01*
X-00896882Y04015629D02*
X09007118Y04015629D01*
X09007118Y04031628D02*
X-00896882Y04031628D01*
X-00896882Y04047626D02*
X09007118Y04047626D01*
X09007118Y04063625D02*
X-00896882Y04063625D01*
X-00896882Y04079624D02*
X09007118Y04079624D01*
X09007118Y04095622D02*
X-00896882Y04095622D01*
X-00896882Y04111621D02*
X09007118Y04111621D01*
X09007118Y04127619D02*
X-00896882Y04127619D01*
X-00896882Y04143618D02*
X09007118Y04143618D01*
X09007118Y04159616D02*
X-00896882Y04159616D01*
X-00896882Y04175615D02*
X09007118Y04175615D01*
X09007118Y04191613D02*
X-00896882Y04191613D01*
X-00896882Y04207612D02*
X09007118Y04207612D01*
X09007118Y04223610D02*
X-00896882Y04223610D01*
X-00896882Y04239609D02*
X09007118Y04239609D01*
X09007118Y04255607D02*
X-00896882Y04255607D01*
X-00896882Y04271606D02*
X09007118Y04271606D01*
X09007118Y04287604D02*
X-00896882Y04287604D01*
X-00896882Y04303603D02*
X09007118Y04303603D01*
X09007118Y04319601D02*
X-00896882Y04319601D01*
X-00896882Y04335600D02*
X09007118Y04335600D01*
X09007118Y04351598D02*
X-00896882Y04351598D01*
X-00896882Y04367597D02*
X09007118Y04367597D01*
X09007118Y04383595D02*
X-00896882Y04383595D01*
X-00896882Y04399594D02*
X09007118Y04399594D01*
X09007118Y04415593D02*
X-00896882Y04415593D01*
X-00896882Y04431591D02*
X09007118Y04431591D01*
X09007118Y04447590D02*
X-00896882Y04447590D01*
X-00896882Y04463588D02*
X09007118Y04463588D01*
X09007118Y04479587D02*
X-00896882Y04479587D01*
X-00896882Y04495585D02*
X09007118Y04495585D01*
X09007118Y04511584D02*
X-00896882Y04511584D01*
X-00896882Y04527582D02*
X09007118Y04527582D01*
X09007118Y04543581D02*
X-00896882Y04543581D01*
X-00896882Y04559579D02*
X09007118Y04559579D01*
X09007118Y04575578D02*
X-00896882Y04575578D01*
X-00896882Y04591576D02*
X09007118Y04591576D01*
X09007118Y04607575D02*
X-00896882Y04607575D01*
X-00896882Y04623573D02*
X09007118Y04623573D01*
X09007118Y04639572D02*
X-00896882Y04639572D01*
X-00896882Y04655570D02*
X09007118Y04655570D01*
X09007118Y04671569D02*
X-00896882Y04671569D01*
X-00896882Y04687567D02*
X09007118Y04687567D01*
X09007118Y04703566D02*
X-00896882Y04703566D01*
X-00896882Y04719564D02*
X09007118Y04719564D01*
X09007118Y04735563D02*
X04136409Y04735563D01*
X04136042Y04735465D02*
X04178289Y04746785D01*
X04216167Y04768654D01*
X04247094Y04799581D01*
X04268963Y04837459D01*
X04280283Y04879706D01*
X04280283Y04923444D01*
X04268963Y04965691D01*
X04247094Y05003569D01*
X04216167Y05034496D01*
X04178289Y05056365D01*
X04136042Y05067685D01*
X04092304Y05067685D01*
X04050057Y05056365D01*
X04012179Y05034496D01*
X03981252Y05003569D01*
X03959383Y04965691D01*
X03948063Y04923444D01*
X03948063Y04879706D01*
X03959383Y04837459D01*
X03981252Y04799581D01*
X04012179Y04768654D01*
X04050057Y04746785D01*
X04092304Y04735465D01*
X04136042Y04735465D01*
X04091937Y04735563D02*
X-00896882Y04735563D01*
X-00896882Y04751562D02*
X04041783Y04751562D01*
X04014073Y04767560D02*
X-00896882Y04767560D01*
X-00896882Y04783559D02*
X03997274Y04783559D01*
X03981276Y04799557D02*
X-00896882Y04799557D01*
X-00896882Y04815556D02*
X03972029Y04815556D01*
X03962792Y04831554D02*
X-00896882Y04831554D01*
X-00896882Y04847553D02*
X03956678Y04847553D01*
X03952392Y04863551D02*
X-00896882Y04863551D01*
X-00896882Y04879550D02*
X03948105Y04879550D01*
X03948063Y04895548D02*
X-00896882Y04895548D01*
X-00896882Y04911547D02*
X03948063Y04911547D01*
X03949162Y04927545D02*
X-00896882Y04927545D01*
X-00896882Y04943544D02*
X03953449Y04943544D01*
X03957736Y04959542D02*
X-00896882Y04959542D01*
X-00896882Y04975541D02*
X03965070Y04975541D01*
X03974307Y04991539D02*
X-00896882Y04991539D01*
X-00896882Y05007538D02*
X03985221Y05007538D01*
X04001220Y05023536D02*
X-00896882Y05023536D01*
X-00896882Y05039535D02*
X04020907Y05039535D01*
X04048617Y05055533D02*
X-00896882Y05055533D01*
X-00896882Y05071532D02*
X09007118Y05071532D01*
X09007118Y05087531D02*
X-00896882Y05087531D01*
X-00896882Y05103529D02*
X09007118Y05103529D01*
X09007118Y05119528D02*
X-00896882Y05119528D01*
X-00896882Y05135526D02*
X09007118Y05135526D01*
X09007118Y05151525D02*
X-00896882Y05151525D01*
X-00896882Y05167523D02*
X09007118Y05167523D01*
X09007118Y05183522D02*
X-00896882Y05183522D01*
X-00896882Y05199520D02*
X09007118Y05199520D01*
X09007118Y05215519D02*
X-00896882Y05215519D01*
X-00896882Y05231517D02*
X09007118Y05231517D01*
X09007118Y05247516D02*
X-00896882Y05247516D01*
X-00896882Y05263514D02*
X09007118Y05263514D01*
X09007118Y05279513D02*
X-00896882Y05279513D01*
X-00896882Y05295511D02*
X09007118Y05295511D01*
X09007118Y05311510D02*
X-00896882Y05311510D01*
X-00896882Y05327508D02*
X09007118Y05327508D01*
X09007118Y05343507D02*
X-00896882Y05343507D01*
X-00896882Y05359505D02*
X09007118Y05359505D01*
X09007118Y05375504D02*
X-00896882Y05375504D01*
X-00896882Y05391502D02*
X09007118Y05391502D01*
X09007118Y05407501D02*
X-00896882Y05407501D01*
X-00896882Y05423500D02*
X09007118Y05423500D01*
X09007118Y05439498D02*
X-00896882Y05439498D01*
X-00896882Y05455497D02*
X09007118Y05455497D01*
X09007118Y05471495D02*
X-00896882Y05471495D01*
X-00896882Y05487494D02*
X09007118Y05487494D01*
X09007118Y05503492D02*
X-00896882Y05503492D01*
X-00896882Y05519491D02*
X09007118Y05519491D01*
X09007118Y05535489D02*
X-00896882Y05535489D01*
X-00896882Y05551488D02*
X09007118Y05551488D01*
X09007118Y05567486D02*
X-00896882Y05567486D01*
X-00896882Y05583485D02*
X09007118Y05583485D01*
X09007118Y05599483D02*
X-00896882Y05599483D01*
X-00896882Y05615482D02*
X09007118Y05615482D01*
X09007118Y05631480D02*
X-00896882Y05631480D01*
X-00896882Y05647479D02*
X09007118Y05647479D01*
X09007118Y05663477D02*
X-00896882Y05663477D01*
X-00896882Y05679476D02*
X09007118Y05679476D01*
X09007118Y05695474D02*
X-00896882Y05695474D01*
X-00896882Y05711473D02*
X09007118Y05711473D01*
X09007118Y05727471D02*
X-00896882Y05727471D01*
X-00896882Y05743470D02*
X09007118Y05743470D01*
X09007118Y05759469D02*
X-00896882Y05759469D01*
X-00896882Y05775467D02*
X09007118Y05775467D01*
X09007118Y05791466D02*
X-00896882Y05791466D01*
X-00896882Y05807464D02*
X09007118Y05807464D01*
X09007118Y05823463D02*
X-00896882Y05823463D01*
X-00896882Y05839461D02*
X09007118Y05839461D01*
X09007118Y05855460D02*
X-00896882Y05855460D01*
X-00896882Y05871458D02*
X09007118Y05871458D01*
X09007118Y05887457D02*
X-00896882Y05887457D01*
X-00896882Y05903455D02*
X09007118Y05903455D01*
X09007118Y05919454D02*
X-00896882Y05919454D01*
X-00896882Y05935452D02*
X09007118Y05935452D01*
X09007118Y05951451D02*
X-00896882Y05951451D01*
X-00896882Y05967449D02*
X09007118Y05967449D01*
X09007118Y05983448D02*
X-00896882Y05983448D01*
X-00896882Y05999446D02*
X09007118Y05999446D01*
X09007118Y06015445D02*
X-00896882Y06015445D01*
X-00896882Y06031443D02*
X09007118Y06031443D01*
X09007118Y06047442D02*
X-00896882Y06047442D01*
X-00896882Y06063440D02*
X09007118Y06063440D01*
X09007118Y06079439D02*
X-00896882Y06079439D01*
X-00896882Y06095438D02*
X09007118Y06095438D01*
X09007118Y06111436D02*
X-00896882Y06111436D01*
X-00896882Y06127435D02*
X09007118Y06127435D01*
X09007118Y06143433D02*
X-00896882Y06143433D01*
X-00896882Y06159432D02*
X09007118Y06159432D01*
X09007118Y06175430D02*
X-00896882Y06175430D01*
X-00896882Y06191429D02*
X09007118Y06191429D01*
X09007118Y06207427D02*
X-00896882Y06207427D01*
X-00896882Y06223426D02*
X09007118Y06223426D01*
X09007118Y06239424D02*
X-00896882Y06239424D01*
X-00896882Y06255423D02*
X09007118Y06255423D01*
X09007118Y06271421D02*
X-00896882Y06271421D01*
X-00896882Y06287420D02*
X09007118Y06287420D01*
X09007118Y06303418D02*
X-00896882Y06303418D01*
X-00896882Y06319417D02*
X09007118Y06319417D01*
X09007118Y06335415D02*
X-00896882Y06335415D01*
X-00896882Y06351414D02*
X09007118Y06351414D01*
X09007118Y06367412D02*
X-00896882Y06367412D01*
X-00896882Y06383411D02*
X09007118Y06383411D01*
X09007118Y06399409D02*
X-00896882Y06399409D01*
X-00896882Y06415408D02*
X09007118Y06415408D01*
X09007118Y06431406D02*
X-00896882Y06431406D01*
X-00896882Y06447405D02*
X09007118Y06447405D01*
X09007118Y06463404D02*
X-00896882Y06463404D01*
X-00896882Y06479402D02*
X09007118Y06479402D01*
X09007118Y06495401D02*
X-00896882Y06495401D01*
X-00896882Y06511399D02*
X09007118Y06511399D01*
X09007118Y06527398D02*
X-00896882Y06527398D01*
X-00896882Y06543396D02*
X09007118Y06543396D01*
X09007118Y06559395D02*
X-00896882Y06559395D01*
X-00896882Y06575393D02*
X09007118Y06575393D01*
X09007118Y06591392D02*
X-00896882Y06591392D01*
X-00896882Y06607390D02*
X09007118Y06607390D01*
X09007118Y06623389D02*
X-00896882Y06623389D01*
X-00896882Y06639387D02*
X09007118Y06639387D01*
X09007118Y06655386D02*
X-00896882Y06655386D01*
X-00896882Y06671384D02*
X09007118Y06671384D01*
X09007118Y06687383D02*
X-00896882Y06687383D01*
X-00896882Y06703381D02*
X09007118Y06703381D01*
X09007118Y06719380D02*
X-00896882Y06719380D01*
X-00896882Y06735378D02*
X09007118Y06735378D01*
X09007118Y06751377D02*
X-00896882Y06751377D01*
X-00896882Y06767375D02*
X09007118Y06767375D01*
X09007118Y06783374D02*
X-00896882Y06783374D01*
X-00896882Y06799373D02*
X09007118Y06799373D01*
X09007118Y06815371D02*
X-00896882Y06815371D01*
X-00896882Y06831370D02*
X09007118Y06831370D01*
X09007118Y06847368D02*
X-00896882Y06847368D01*
X-00896882Y06863367D02*
X09007118Y06863367D01*
X09007118Y06879365D02*
X-00896882Y06879365D01*
X-00896882Y06895364D02*
X09007118Y06895364D01*
X09007118Y06911362D02*
X-00896882Y06911362D01*
X-00896882Y06927361D02*
X09007118Y06927361D01*
X09007118Y06943359D02*
X-00896882Y06943359D01*
X-00896882Y06959358D02*
X09007118Y06959358D01*
X09007118Y06975356D02*
X-00896882Y06975356D01*
X-00896882Y06991355D02*
X09007118Y06991355D01*
X09007118Y07007353D02*
X-00896882Y07007353D01*
X-00896882Y07023352D02*
X09007118Y07023352D01*
X09007118Y07039350D02*
X-00896882Y07039350D01*
X-00896882Y07055349D02*
X09007118Y07055349D01*
X09007118Y07071347D02*
X-00896882Y07071347D01*
X-00896882Y07087346D02*
X09007118Y07087346D01*
X09007118Y07103344D02*
X-00896882Y07103344D01*
X-00896882Y07119343D02*
X09007118Y07119343D01*
X09007118Y07135342D02*
X-00896882Y07135342D01*
X-00896882Y07151340D02*
X09007118Y07151340D01*
X09007118Y07167339D02*
X-00896882Y07167339D01*
X-00896882Y07183337D02*
X09007118Y07183337D01*
X09007118Y07199336D02*
X-00896882Y07199336D01*
X-00896882Y07215334D02*
X09007118Y07215334D01*
X09007118Y07231333D02*
X-00896882Y07231333D01*
X-00896882Y07247331D02*
X09007118Y07247331D01*
X09007118Y07263330D02*
X-00896882Y07263330D01*
X-00896882Y07279328D02*
X09007118Y07279328D01*
X09007118Y07295327D02*
X-00896882Y07295327D01*
X-00896882Y07311325D02*
X09007118Y07311325D01*
X09007118Y07327324D02*
X-00896882Y07327324D01*
X-00896882Y07343322D02*
X09007118Y07343322D01*
X09007118Y07359321D02*
X-00896882Y07359321D01*
X-00896882Y07375319D02*
X09007118Y07375319D01*
X09007118Y07391318D02*
X-00896882Y07391318D01*
X-00896882Y07407316D02*
X09007118Y07407316D01*
X09007118Y07423315D02*
X-00896882Y07423315D01*
X-00896882Y07439313D02*
X09007118Y07439313D01*
X09007118Y07455312D02*
X-00896882Y07455312D01*
X-00896882Y07471311D02*
X09007118Y07471311D01*
X09007118Y07487309D02*
X-00896882Y07487309D01*
X-00896882Y07503308D02*
X09007118Y07503308D01*
X09007118Y07519306D02*
X-00896882Y07519306D01*
X-00896882Y07535305D02*
X09007118Y07535305D01*
X09007118Y07551303D02*
X-00896882Y07551303D01*
X-00896882Y07567302D02*
X09007118Y07567302D01*
X09007118Y07583300D02*
X-00896882Y07583300D01*
X-00896882Y07599299D02*
X09007118Y07599299D01*
X09007118Y07615297D02*
X-00896882Y07615297D01*
X-00896882Y07631296D02*
X09007118Y07631296D01*
X09007118Y07647294D02*
X-00896882Y07647294D01*
X-00896882Y07663293D02*
X09007118Y07663293D01*
X09007118Y07679291D02*
X-00896882Y07679291D01*
X-00896882Y07695290D02*
X09007118Y07695290D01*
X09007118Y07711288D02*
X-00896882Y07711288D01*
X-00896882Y07727287D02*
X09007118Y07727287D01*
X09007118Y07743285D02*
X-00896882Y07743285D01*
X-00896882Y07759284D02*
X09007118Y07759284D01*
X09007118Y07775282D02*
X-00896882Y07775282D01*
X-00896882Y07791281D02*
X09007118Y07791281D01*
X09007118Y07807280D02*
X-00896882Y07807280D01*
X-00896882Y07823278D02*
X09007118Y07823278D01*
X09007118Y07839277D02*
X-00896882Y07839277D01*
X-00896882Y07855275D02*
X09007118Y07855275D01*
X09007118Y07871274D02*
X-00896882Y07871274D01*
X-00896882Y07887272D02*
X09007118Y07887272D01*
X09007118Y07903271D02*
X-00896882Y07903271D01*
X-00896882Y07919269D02*
X09007118Y07919269D01*
X09007118Y07935268D02*
X-00896882Y07935268D01*
X-00896882Y07951266D02*
X09007118Y07951266D01*
X09007118Y07967265D02*
X-00896882Y07967265D01*
X-00896882Y07983263D02*
X09007118Y07983263D01*
X09007118Y07999262D02*
X-00896882Y07999262D01*
X-00896882Y08015260D02*
X09007118Y08015260D01*
X09007118Y08031259D02*
X-00896882Y08031259D01*
X-00896882Y08047257D02*
X09007118Y08047257D01*
X09007118Y08063256D02*
X08254021Y08063256D01*
X08250215Y08062236D02*
X08292463Y08073556D01*
X08330340Y08095425D01*
X08361268Y08126352D01*
X08383136Y08164230D01*
X08394457Y08206477D01*
X08394457Y08250215D01*
X08383136Y08292463D01*
X08361268Y08330340D01*
X08330340Y08361268D01*
X08292463Y08383136D01*
X08250215Y08394457D01*
X08206477Y08394457D01*
X08164230Y08383136D01*
X08126352Y08361268D01*
X08095425Y08330340D01*
X08073556Y08292463D01*
X08062236Y08250215D01*
X08062236Y08206477D01*
X08073556Y08164230D01*
X08095425Y08126352D01*
X08126352Y08095425D01*
X08164230Y08073556D01*
X08206477Y08062236D01*
X08250215Y08062236D01*
X08202672Y08063256D02*
X00025674Y08063256D01*
X00021869Y08062236D02*
X00064116Y08073556D01*
X00101994Y08095425D01*
X00132921Y08126352D01*
X00154790Y08164230D01*
X00166110Y08206477D01*
X00166110Y08250215D01*
X00154790Y08292463D01*
X00132921Y08330340D01*
X00101994Y08361268D01*
X00064116Y08383136D01*
X00021869Y08394457D01*
X-00021869Y08394457D01*
X-00064116Y08383136D01*
X-00101994Y08361268D01*
X-00132921Y08330340D01*
X-00154790Y08292463D01*
X-00166110Y08250215D01*
X-00166110Y08206477D01*
X-00154790Y08164230D01*
X-00132921Y08126352D01*
X-00101994Y08095425D01*
X-00064116Y08073556D01*
X-00021869Y08062236D01*
X00021869Y08062236D01*
X-00025674Y08063256D02*
X-00896882Y08063256D01*
X-00896882Y08079254D02*
X-00073985Y08079254D01*
X-00101696Y08095253D02*
X-00896882Y08095253D01*
X-00896882Y08111251D02*
X-00117820Y08111251D01*
X-00133439Y08127250D02*
X-00896882Y08127250D01*
X-00896882Y08143249D02*
X-00142676Y08143249D01*
X-00151913Y08159247D02*
X-00896882Y08159247D01*
X-00896882Y08175246D02*
X-00157742Y08175246D01*
X-00162028Y08191244D02*
X-00896882Y08191244D01*
X-00896882Y08207243D02*
X-00166110Y08207243D01*
X-00166110Y08223241D02*
X-00896882Y08223241D01*
X-00896882Y08239240D02*
X-00166110Y08239240D01*
X-00164764Y08255238D02*
X-00896882Y08255238D01*
X-00896882Y08271237D02*
X-00160477Y08271237D01*
X-00156191Y08287235D02*
X-00896882Y08287235D01*
X-00896882Y08303234D02*
X-00148571Y08303234D01*
X-00139334Y08319232D02*
X-00896882Y08319232D01*
X-00896882Y08335231D02*
X-00128031Y08335231D01*
X-00112032Y08351229D02*
X-00896882Y08351229D01*
X-00896882Y08367228D02*
X-00091671Y08367228D01*
X-00063780Y08383226D02*
X-00896882Y08383226D01*
X-00896882Y08399225D02*
X09007118Y08399225D01*
X09007118Y08415223D02*
X-00896882Y08415223D01*
X-00896882Y08431222D02*
X09007118Y08431222D01*
X09007118Y08447220D02*
X-00896882Y08447220D01*
X-00896882Y08463219D02*
X09007118Y08463219D01*
X09007118Y08479218D02*
X-00896882Y08479218D01*
X-00896882Y08495216D02*
X09007118Y08495216D01*
X09007118Y08511215D02*
X-00896882Y08511215D01*
X-00896882Y08527213D02*
X09007118Y08527213D01*
X09007118Y08543212D02*
X-00896882Y08543212D01*
X-00896882Y08559210D02*
X09007118Y08559210D01*
X09007118Y08575209D02*
X-00896882Y08575209D01*
X-00896882Y08591207D02*
X09007118Y08591207D01*
X09007118Y08607206D02*
X-00896882Y08607206D01*
X-00896882Y08623204D02*
X09007118Y08623204D01*
X09007118Y08639203D02*
X-00896882Y08639203D01*
X-00896882Y08655201D02*
X09007118Y08655201D01*
X09007118Y08671200D02*
X-00896882Y08671200D01*
X-00890589Y08687198D02*
X09000825Y08687198D01*
X08984826Y08703197D02*
X-00874590Y08703197D01*
X-00858592Y08719195D02*
X08968828Y08719195D01*
X08952829Y08735194D02*
X-00842593Y08735194D01*
X-00826595Y08751192D02*
X08936831Y08751192D01*
X08920832Y08767191D02*
X-00810596Y08767191D01*
X-00794598Y08783189D02*
X08904834Y08783189D01*
X08888835Y08799188D02*
X-00778599Y08799188D01*
X-00762601Y08815187D02*
X00372278Y08815187D01*
X00352901Y08831185D02*
X-00746665Y08831185D01*
X-00740038Y08847184D02*
X00336903Y08847184D01*
X00320904Y08863182D02*
X-00739402Y08863182D01*
X-00739402Y08879181D02*
X00310021Y08879181D01*
X00306331Y08895179D02*
X-00739402Y08895179D01*
X-00739402Y08911178D02*
X00306331Y08911178D01*
X00306331Y08927176D02*
X-00739402Y08927176D01*
X-00739402Y08943175D02*
X00306331Y08943175D01*
X00306331Y08959173D02*
X-00739402Y08959173D01*
X-00739402Y08975172D02*
X00306331Y08975172D01*
X00306331Y08991170D02*
X-00739402Y08991170D01*
X-00739402Y09007169D02*
X00306331Y09007169D01*
X00306331Y09023167D02*
X-00200799Y09023167D01*
X-00201923Y09022866D02*
X-00173694Y09030430D01*
X-00148385Y09045042D01*
X-00127720Y09065707D01*
X-00113107Y09091017D01*
X-00105543Y09119246D01*
X-00105543Y09148471D01*
X-00113107Y09176700D01*
X-00127720Y09202009D01*
X-00148385Y09222674D01*
X-00173694Y09237286D01*
X-00201923Y09244850D01*
X-00231148Y09244850D01*
X-00259377Y09237286D01*
X-00284686Y09222674D01*
X-00305351Y09202009D01*
X-00319963Y09176700D01*
X-00327527Y09148471D01*
X-00327527Y09119246D01*
X-00319963Y09091017D01*
X-00305351Y09065707D01*
X-00284686Y09045042D01*
X-00259377Y09030430D01*
X-00231148Y09022866D01*
X-00201923Y09022866D01*
X-00232272Y09023167D02*
X-00739402Y09023167D01*
X-00739402Y09039166D02*
X-00274508Y09039166D01*
X-00294808Y09055164D02*
X-00739402Y09055164D01*
X-00739402Y09071163D02*
X-00308501Y09071163D01*
X-00317738Y09087161D02*
X-00739402Y09087161D01*
X-00739402Y09103160D02*
X-00323217Y09103160D01*
X-00327504Y09119158D02*
X-00739402Y09119158D01*
X-00739402Y09135157D02*
X-00327527Y09135157D01*
X-00326808Y09151156D02*
X-00739402Y09151156D01*
X-00739402Y09167154D02*
X-00322521Y09167154D01*
X-00316238Y09183153D02*
X-00739402Y09183153D01*
X-00739402Y09199151D02*
X-00307001Y09199151D01*
X-00292211Y09215150D02*
X-00739402Y09215150D01*
X-00739402Y09231148D02*
X-00270008Y09231148D01*
X-00163062Y09231148D02*
X00306331Y09231148D01*
X00306331Y09215150D02*
X-00140860Y09215150D01*
X-00126070Y09199151D02*
X00306331Y09199151D01*
X00306331Y09183153D02*
X-00116833Y09183153D01*
X-00110549Y09167154D02*
X00306331Y09167154D01*
X00306331Y09151156D02*
X-00106263Y09151156D01*
X-00105543Y09135157D02*
X00306331Y09135157D01*
X00306331Y09119158D02*
X-00105567Y09119158D01*
X-00109854Y09103160D02*
X00306331Y09103160D01*
X00306331Y09087161D02*
X-00115333Y09087161D01*
X-00124570Y09071163D02*
X00306331Y09071163D01*
X00306331Y09055164D02*
X-00138263Y09055164D01*
X-00158563Y09039166D02*
X00306331Y09039166D01*
X00306331Y09247147D02*
X-00739402Y09247147D01*
X-00739402Y09263145D02*
X00306331Y09263145D01*
X00306331Y09279144D02*
X-00739402Y09279144D01*
X-00739402Y09295142D02*
X00306331Y09295142D01*
X00306331Y09311141D02*
X-00739402Y09311141D01*
X-00739402Y09327139D02*
X00306331Y09327139D01*
X00306331Y09343138D02*
X-00739402Y09343138D01*
X-00739402Y09359136D02*
X00306331Y09359136D01*
X00297140Y09375135D02*
X-00730211Y09375135D01*
X00063781Y08383226D02*
X08164566Y08383226D01*
X08136676Y08367228D02*
X00091671Y08367228D01*
X00112032Y08351229D02*
X08116314Y08351229D01*
X08100316Y08335231D02*
X00128031Y08335231D01*
X00139335Y08319232D02*
X08089012Y08319232D01*
X08079775Y08303234D02*
X00148571Y08303234D01*
X00156191Y08287235D02*
X08072156Y08287235D01*
X08067869Y08271237D02*
X00160477Y08271237D01*
X00164764Y08255238D02*
X08063582Y08255238D01*
X08062236Y08239240D02*
X00166110Y08239240D01*
X00166110Y08223241D02*
X08062236Y08223241D01*
X08062236Y08207243D02*
X00166110Y08207243D01*
X00162028Y08191244D02*
X08066318Y08191244D01*
X08070605Y08175246D02*
X00157742Y08175246D01*
X00151913Y08159247D02*
X08076433Y08159247D01*
X08085670Y08143249D02*
X00142676Y08143249D01*
X00133439Y08127250D02*
X08094907Y08127250D01*
X08110526Y08111251D02*
X00117820Y08111251D01*
X00101696Y08095253D02*
X08126651Y08095253D01*
X08154361Y08079254D02*
X00073985Y08079254D01*
X04179729Y05055533D02*
X09007118Y05055533D01*
X09007118Y05039535D02*
X04207439Y05039535D01*
X04227127Y05023536D02*
X09007118Y05023536D01*
X09007118Y05007538D02*
X04243125Y05007538D01*
X04254040Y04991539D02*
X09007118Y04991539D01*
X09007118Y04975541D02*
X04263276Y04975541D01*
X04270611Y04959542D02*
X09007118Y04959542D01*
X09007118Y04943544D02*
X04274898Y04943544D01*
X04279184Y04927545D02*
X09007118Y04927545D01*
X09007118Y04911547D02*
X04280283Y04911547D01*
X04280283Y04895548D02*
X09007118Y04895548D01*
X09007118Y04879550D02*
X04280241Y04879550D01*
X04275955Y04863551D02*
X09007118Y04863551D01*
X09007118Y04847553D02*
X04271668Y04847553D01*
X04265554Y04831554D02*
X09007118Y04831554D01*
X09007118Y04815556D02*
X04256317Y04815556D01*
X04247071Y04799557D02*
X09007118Y04799557D01*
X09007118Y04783559D02*
X04231072Y04783559D01*
X04214273Y04767560D02*
X09007118Y04767560D01*
X09007118Y04751562D02*
X04186563Y04751562D01*
X08292127Y08383226D02*
X09007118Y08383226D01*
X09007118Y08367228D02*
X08320017Y08367228D01*
X08340379Y08351229D02*
X09007118Y08351229D01*
X09007118Y08335231D02*
X08356377Y08335231D01*
X08367681Y08319232D02*
X09007118Y08319232D01*
X09007118Y08303234D02*
X08376918Y08303234D01*
X08384537Y08287235D02*
X09007118Y08287235D01*
X09007118Y08271237D02*
X08388824Y08271237D01*
X08393111Y08255238D02*
X09007118Y08255238D01*
X09007118Y08239240D02*
X08394457Y08239240D01*
X08394457Y08223241D02*
X09007118Y08223241D01*
X09007118Y08207243D02*
X08394457Y08207243D01*
X08390375Y08191244D02*
X09007118Y08191244D01*
X09007118Y08175246D02*
X08386088Y08175246D01*
X08380259Y08159247D02*
X09007118Y08159247D01*
X09007118Y08143249D02*
X08371023Y08143249D01*
X08361786Y08127250D02*
X09007118Y08127250D01*
X09007118Y08111251D02*
X08346167Y08111251D01*
X08330042Y08095253D02*
X09007118Y08095253D01*
X09007118Y08079254D02*
X08302332Y08079254D01*
M02*
