G75*
%MOIN*%
%OFA0B0*%
%FSLAX25Y25*%
%IPPOS*%
%LPD*%
%AMOC8*
5,1,8,0,0,1.08239X$1,22.5*
%
%ADD10C,0.00000*%
%ADD11C,0.00600*%
%ADD12C,0.00400*%
%ADD13C,0.01000*%
%ADD14C,0.00800*%
%ADD15C,0.00394*%
%ADD16R,0.00591X0.01181*%
%ADD17R,0.01181X0.01181*%
%ADD18C,0.00500*%
%ADD19C,0.00100*%
%ADD20C,0.02000*%
%ADD21R,0.42000X0.03000*%
%ADD22R,0.07500X0.02000*%
%ADD23R,0.03000X0.02000*%
%ADD24R,0.05906X0.00394*%
%ADD25R,0.07087X0.00394*%
%ADD26R,0.06693X0.00394*%
%ADD27R,0.06299X0.00394*%
%ADD28R,0.05512X0.00394*%
%ADD29R,0.05118X0.00394*%
%ADD30R,0.04331X0.00394*%
%ADD31R,0.01575X0.00394*%
%ADD32R,0.08661X0.00394*%
%ADD33R,0.12992X0.00394*%
%ADD34R,0.14961X0.00394*%
%ADD35R,0.01181X0.00394*%
%ADD36R,0.13780X0.00394*%
%ADD37R,0.14173X0.00394*%
%ADD38R,0.14567X0.00394*%
%ADD39R,0.13386X0.00394*%
%ADD40R,0.12205X0.00394*%
%ADD41R,0.11417X0.00394*%
%ADD42R,0.10630X0.00394*%
%ADD43R,0.09843X0.00394*%
%ADD44R,0.09055X0.00394*%
%ADD45R,0.01969X0.00394*%
%ADD46R,0.07480X0.00394*%
%ADD47R,0.04724X0.00394*%
D10*
X0002300Y0040837D02*
X0199150Y0040837D01*
X0199150Y0237687D01*
X0002300Y0237687D01*
X0002300Y0040837D01*
X0007812Y0052648D02*
X0007814Y0052806D01*
X0007820Y0052964D01*
X0007830Y0053122D01*
X0007844Y0053280D01*
X0007862Y0053437D01*
X0007883Y0053594D01*
X0007909Y0053750D01*
X0007939Y0053906D01*
X0007972Y0054061D01*
X0008010Y0054214D01*
X0008051Y0054367D01*
X0008096Y0054519D01*
X0008145Y0054670D01*
X0008198Y0054819D01*
X0008254Y0054967D01*
X0008314Y0055113D01*
X0008378Y0055258D01*
X0008446Y0055401D01*
X0008517Y0055543D01*
X0008591Y0055683D01*
X0008669Y0055820D01*
X0008751Y0055956D01*
X0008835Y0056090D01*
X0008924Y0056221D01*
X0009015Y0056350D01*
X0009110Y0056477D01*
X0009207Y0056602D01*
X0009308Y0056724D01*
X0009412Y0056843D01*
X0009519Y0056960D01*
X0009629Y0057074D01*
X0009742Y0057185D01*
X0009857Y0057294D01*
X0009975Y0057399D01*
X0010096Y0057501D01*
X0010219Y0057601D01*
X0010345Y0057697D01*
X0010473Y0057790D01*
X0010603Y0057880D01*
X0010736Y0057966D01*
X0010871Y0058050D01*
X0011007Y0058129D01*
X0011146Y0058206D01*
X0011287Y0058278D01*
X0011429Y0058348D01*
X0011573Y0058413D01*
X0011719Y0058475D01*
X0011866Y0058533D01*
X0012015Y0058588D01*
X0012165Y0058639D01*
X0012316Y0058686D01*
X0012468Y0058729D01*
X0012621Y0058768D01*
X0012776Y0058804D01*
X0012931Y0058835D01*
X0013087Y0058863D01*
X0013243Y0058887D01*
X0013400Y0058907D01*
X0013558Y0058923D01*
X0013715Y0058935D01*
X0013874Y0058943D01*
X0014032Y0058947D01*
X0014190Y0058947D01*
X0014348Y0058943D01*
X0014507Y0058935D01*
X0014664Y0058923D01*
X0014822Y0058907D01*
X0014979Y0058887D01*
X0015135Y0058863D01*
X0015291Y0058835D01*
X0015446Y0058804D01*
X0015601Y0058768D01*
X0015754Y0058729D01*
X0015906Y0058686D01*
X0016057Y0058639D01*
X0016207Y0058588D01*
X0016356Y0058533D01*
X0016503Y0058475D01*
X0016649Y0058413D01*
X0016793Y0058348D01*
X0016935Y0058278D01*
X0017076Y0058206D01*
X0017215Y0058129D01*
X0017351Y0058050D01*
X0017486Y0057966D01*
X0017619Y0057880D01*
X0017749Y0057790D01*
X0017877Y0057697D01*
X0018003Y0057601D01*
X0018126Y0057501D01*
X0018247Y0057399D01*
X0018365Y0057294D01*
X0018480Y0057185D01*
X0018593Y0057074D01*
X0018703Y0056960D01*
X0018810Y0056843D01*
X0018914Y0056724D01*
X0019015Y0056602D01*
X0019112Y0056477D01*
X0019207Y0056350D01*
X0019298Y0056221D01*
X0019387Y0056090D01*
X0019471Y0055956D01*
X0019553Y0055820D01*
X0019631Y0055683D01*
X0019705Y0055543D01*
X0019776Y0055401D01*
X0019844Y0055258D01*
X0019908Y0055113D01*
X0019968Y0054967D01*
X0020024Y0054819D01*
X0020077Y0054670D01*
X0020126Y0054519D01*
X0020171Y0054367D01*
X0020212Y0054214D01*
X0020250Y0054061D01*
X0020283Y0053906D01*
X0020313Y0053750D01*
X0020339Y0053594D01*
X0020360Y0053437D01*
X0020378Y0053280D01*
X0020392Y0053122D01*
X0020402Y0052964D01*
X0020408Y0052806D01*
X0020410Y0052648D01*
X0020408Y0052490D01*
X0020402Y0052332D01*
X0020392Y0052174D01*
X0020378Y0052016D01*
X0020360Y0051859D01*
X0020339Y0051702D01*
X0020313Y0051546D01*
X0020283Y0051390D01*
X0020250Y0051235D01*
X0020212Y0051082D01*
X0020171Y0050929D01*
X0020126Y0050777D01*
X0020077Y0050626D01*
X0020024Y0050477D01*
X0019968Y0050329D01*
X0019908Y0050183D01*
X0019844Y0050038D01*
X0019776Y0049895D01*
X0019705Y0049753D01*
X0019631Y0049613D01*
X0019553Y0049476D01*
X0019471Y0049340D01*
X0019387Y0049206D01*
X0019298Y0049075D01*
X0019207Y0048946D01*
X0019112Y0048819D01*
X0019015Y0048694D01*
X0018914Y0048572D01*
X0018810Y0048453D01*
X0018703Y0048336D01*
X0018593Y0048222D01*
X0018480Y0048111D01*
X0018365Y0048002D01*
X0018247Y0047897D01*
X0018126Y0047795D01*
X0018003Y0047695D01*
X0017877Y0047599D01*
X0017749Y0047506D01*
X0017619Y0047416D01*
X0017486Y0047330D01*
X0017351Y0047246D01*
X0017215Y0047167D01*
X0017076Y0047090D01*
X0016935Y0047018D01*
X0016793Y0046948D01*
X0016649Y0046883D01*
X0016503Y0046821D01*
X0016356Y0046763D01*
X0016207Y0046708D01*
X0016057Y0046657D01*
X0015906Y0046610D01*
X0015754Y0046567D01*
X0015601Y0046528D01*
X0015446Y0046492D01*
X0015291Y0046461D01*
X0015135Y0046433D01*
X0014979Y0046409D01*
X0014822Y0046389D01*
X0014664Y0046373D01*
X0014507Y0046361D01*
X0014348Y0046353D01*
X0014190Y0046349D01*
X0014032Y0046349D01*
X0013874Y0046353D01*
X0013715Y0046361D01*
X0013558Y0046373D01*
X0013400Y0046389D01*
X0013243Y0046409D01*
X0013087Y0046433D01*
X0012931Y0046461D01*
X0012776Y0046492D01*
X0012621Y0046528D01*
X0012468Y0046567D01*
X0012316Y0046610D01*
X0012165Y0046657D01*
X0012015Y0046708D01*
X0011866Y0046763D01*
X0011719Y0046821D01*
X0011573Y0046883D01*
X0011429Y0046948D01*
X0011287Y0047018D01*
X0011146Y0047090D01*
X0011007Y0047167D01*
X0010871Y0047246D01*
X0010736Y0047330D01*
X0010603Y0047416D01*
X0010473Y0047506D01*
X0010345Y0047599D01*
X0010219Y0047695D01*
X0010096Y0047795D01*
X0009975Y0047897D01*
X0009857Y0048002D01*
X0009742Y0048111D01*
X0009629Y0048222D01*
X0009519Y0048336D01*
X0009412Y0048453D01*
X0009308Y0048572D01*
X0009207Y0048694D01*
X0009110Y0048819D01*
X0009015Y0048946D01*
X0008924Y0049075D01*
X0008835Y0049206D01*
X0008751Y0049340D01*
X0008669Y0049476D01*
X0008591Y0049613D01*
X0008517Y0049753D01*
X0008446Y0049895D01*
X0008378Y0050038D01*
X0008314Y0050183D01*
X0008254Y0050329D01*
X0008198Y0050477D01*
X0008145Y0050626D01*
X0008096Y0050777D01*
X0008051Y0050929D01*
X0008010Y0051082D01*
X0007972Y0051235D01*
X0007939Y0051390D01*
X0007909Y0051546D01*
X0007883Y0051702D01*
X0007862Y0051859D01*
X0007844Y0052016D01*
X0007830Y0052174D01*
X0007820Y0052332D01*
X0007814Y0052490D01*
X0007812Y0052648D01*
X0007812Y0225876D02*
X0007814Y0226034D01*
X0007820Y0226192D01*
X0007830Y0226350D01*
X0007844Y0226508D01*
X0007862Y0226665D01*
X0007883Y0226822D01*
X0007909Y0226978D01*
X0007939Y0227134D01*
X0007972Y0227289D01*
X0008010Y0227442D01*
X0008051Y0227595D01*
X0008096Y0227747D01*
X0008145Y0227898D01*
X0008198Y0228047D01*
X0008254Y0228195D01*
X0008314Y0228341D01*
X0008378Y0228486D01*
X0008446Y0228629D01*
X0008517Y0228771D01*
X0008591Y0228911D01*
X0008669Y0229048D01*
X0008751Y0229184D01*
X0008835Y0229318D01*
X0008924Y0229449D01*
X0009015Y0229578D01*
X0009110Y0229705D01*
X0009207Y0229830D01*
X0009308Y0229952D01*
X0009412Y0230071D01*
X0009519Y0230188D01*
X0009629Y0230302D01*
X0009742Y0230413D01*
X0009857Y0230522D01*
X0009975Y0230627D01*
X0010096Y0230729D01*
X0010219Y0230829D01*
X0010345Y0230925D01*
X0010473Y0231018D01*
X0010603Y0231108D01*
X0010736Y0231194D01*
X0010871Y0231278D01*
X0011007Y0231357D01*
X0011146Y0231434D01*
X0011287Y0231506D01*
X0011429Y0231576D01*
X0011573Y0231641D01*
X0011719Y0231703D01*
X0011866Y0231761D01*
X0012015Y0231816D01*
X0012165Y0231867D01*
X0012316Y0231914D01*
X0012468Y0231957D01*
X0012621Y0231996D01*
X0012776Y0232032D01*
X0012931Y0232063D01*
X0013087Y0232091D01*
X0013243Y0232115D01*
X0013400Y0232135D01*
X0013558Y0232151D01*
X0013715Y0232163D01*
X0013874Y0232171D01*
X0014032Y0232175D01*
X0014190Y0232175D01*
X0014348Y0232171D01*
X0014507Y0232163D01*
X0014664Y0232151D01*
X0014822Y0232135D01*
X0014979Y0232115D01*
X0015135Y0232091D01*
X0015291Y0232063D01*
X0015446Y0232032D01*
X0015601Y0231996D01*
X0015754Y0231957D01*
X0015906Y0231914D01*
X0016057Y0231867D01*
X0016207Y0231816D01*
X0016356Y0231761D01*
X0016503Y0231703D01*
X0016649Y0231641D01*
X0016793Y0231576D01*
X0016935Y0231506D01*
X0017076Y0231434D01*
X0017215Y0231357D01*
X0017351Y0231278D01*
X0017486Y0231194D01*
X0017619Y0231108D01*
X0017749Y0231018D01*
X0017877Y0230925D01*
X0018003Y0230829D01*
X0018126Y0230729D01*
X0018247Y0230627D01*
X0018365Y0230522D01*
X0018480Y0230413D01*
X0018593Y0230302D01*
X0018703Y0230188D01*
X0018810Y0230071D01*
X0018914Y0229952D01*
X0019015Y0229830D01*
X0019112Y0229705D01*
X0019207Y0229578D01*
X0019298Y0229449D01*
X0019387Y0229318D01*
X0019471Y0229184D01*
X0019553Y0229048D01*
X0019631Y0228911D01*
X0019705Y0228771D01*
X0019776Y0228629D01*
X0019844Y0228486D01*
X0019908Y0228341D01*
X0019968Y0228195D01*
X0020024Y0228047D01*
X0020077Y0227898D01*
X0020126Y0227747D01*
X0020171Y0227595D01*
X0020212Y0227442D01*
X0020250Y0227289D01*
X0020283Y0227134D01*
X0020313Y0226978D01*
X0020339Y0226822D01*
X0020360Y0226665D01*
X0020378Y0226508D01*
X0020392Y0226350D01*
X0020402Y0226192D01*
X0020408Y0226034D01*
X0020410Y0225876D01*
X0020408Y0225718D01*
X0020402Y0225560D01*
X0020392Y0225402D01*
X0020378Y0225244D01*
X0020360Y0225087D01*
X0020339Y0224930D01*
X0020313Y0224774D01*
X0020283Y0224618D01*
X0020250Y0224463D01*
X0020212Y0224310D01*
X0020171Y0224157D01*
X0020126Y0224005D01*
X0020077Y0223854D01*
X0020024Y0223705D01*
X0019968Y0223557D01*
X0019908Y0223411D01*
X0019844Y0223266D01*
X0019776Y0223123D01*
X0019705Y0222981D01*
X0019631Y0222841D01*
X0019553Y0222704D01*
X0019471Y0222568D01*
X0019387Y0222434D01*
X0019298Y0222303D01*
X0019207Y0222174D01*
X0019112Y0222047D01*
X0019015Y0221922D01*
X0018914Y0221800D01*
X0018810Y0221681D01*
X0018703Y0221564D01*
X0018593Y0221450D01*
X0018480Y0221339D01*
X0018365Y0221230D01*
X0018247Y0221125D01*
X0018126Y0221023D01*
X0018003Y0220923D01*
X0017877Y0220827D01*
X0017749Y0220734D01*
X0017619Y0220644D01*
X0017486Y0220558D01*
X0017351Y0220474D01*
X0017215Y0220395D01*
X0017076Y0220318D01*
X0016935Y0220246D01*
X0016793Y0220176D01*
X0016649Y0220111D01*
X0016503Y0220049D01*
X0016356Y0219991D01*
X0016207Y0219936D01*
X0016057Y0219885D01*
X0015906Y0219838D01*
X0015754Y0219795D01*
X0015601Y0219756D01*
X0015446Y0219720D01*
X0015291Y0219689D01*
X0015135Y0219661D01*
X0014979Y0219637D01*
X0014822Y0219617D01*
X0014664Y0219601D01*
X0014507Y0219589D01*
X0014348Y0219581D01*
X0014190Y0219577D01*
X0014032Y0219577D01*
X0013874Y0219581D01*
X0013715Y0219589D01*
X0013558Y0219601D01*
X0013400Y0219617D01*
X0013243Y0219637D01*
X0013087Y0219661D01*
X0012931Y0219689D01*
X0012776Y0219720D01*
X0012621Y0219756D01*
X0012468Y0219795D01*
X0012316Y0219838D01*
X0012165Y0219885D01*
X0012015Y0219936D01*
X0011866Y0219991D01*
X0011719Y0220049D01*
X0011573Y0220111D01*
X0011429Y0220176D01*
X0011287Y0220246D01*
X0011146Y0220318D01*
X0011007Y0220395D01*
X0010871Y0220474D01*
X0010736Y0220558D01*
X0010603Y0220644D01*
X0010473Y0220734D01*
X0010345Y0220827D01*
X0010219Y0220923D01*
X0010096Y0221023D01*
X0009975Y0221125D01*
X0009857Y0221230D01*
X0009742Y0221339D01*
X0009629Y0221450D01*
X0009519Y0221564D01*
X0009412Y0221681D01*
X0009308Y0221800D01*
X0009207Y0221922D01*
X0009110Y0222047D01*
X0009015Y0222174D01*
X0008924Y0222303D01*
X0008835Y0222434D01*
X0008751Y0222568D01*
X0008669Y0222704D01*
X0008591Y0222841D01*
X0008517Y0222981D01*
X0008446Y0223123D01*
X0008378Y0223266D01*
X0008314Y0223411D01*
X0008254Y0223557D01*
X0008198Y0223705D01*
X0008145Y0223854D01*
X0008096Y0224005D01*
X0008051Y0224157D01*
X0008010Y0224310D01*
X0007972Y0224463D01*
X0007939Y0224618D01*
X0007909Y0224774D01*
X0007883Y0224930D01*
X0007862Y0225087D01*
X0007844Y0225244D01*
X0007830Y0225402D01*
X0007820Y0225560D01*
X0007814Y0225718D01*
X0007812Y0225876D01*
X0181040Y0225876D02*
X0181042Y0226034D01*
X0181048Y0226192D01*
X0181058Y0226350D01*
X0181072Y0226508D01*
X0181090Y0226665D01*
X0181111Y0226822D01*
X0181137Y0226978D01*
X0181167Y0227134D01*
X0181200Y0227289D01*
X0181238Y0227442D01*
X0181279Y0227595D01*
X0181324Y0227747D01*
X0181373Y0227898D01*
X0181426Y0228047D01*
X0181482Y0228195D01*
X0181542Y0228341D01*
X0181606Y0228486D01*
X0181674Y0228629D01*
X0181745Y0228771D01*
X0181819Y0228911D01*
X0181897Y0229048D01*
X0181979Y0229184D01*
X0182063Y0229318D01*
X0182152Y0229449D01*
X0182243Y0229578D01*
X0182338Y0229705D01*
X0182435Y0229830D01*
X0182536Y0229952D01*
X0182640Y0230071D01*
X0182747Y0230188D01*
X0182857Y0230302D01*
X0182970Y0230413D01*
X0183085Y0230522D01*
X0183203Y0230627D01*
X0183324Y0230729D01*
X0183447Y0230829D01*
X0183573Y0230925D01*
X0183701Y0231018D01*
X0183831Y0231108D01*
X0183964Y0231194D01*
X0184099Y0231278D01*
X0184235Y0231357D01*
X0184374Y0231434D01*
X0184515Y0231506D01*
X0184657Y0231576D01*
X0184801Y0231641D01*
X0184947Y0231703D01*
X0185094Y0231761D01*
X0185243Y0231816D01*
X0185393Y0231867D01*
X0185544Y0231914D01*
X0185696Y0231957D01*
X0185849Y0231996D01*
X0186004Y0232032D01*
X0186159Y0232063D01*
X0186315Y0232091D01*
X0186471Y0232115D01*
X0186628Y0232135D01*
X0186786Y0232151D01*
X0186943Y0232163D01*
X0187102Y0232171D01*
X0187260Y0232175D01*
X0187418Y0232175D01*
X0187576Y0232171D01*
X0187735Y0232163D01*
X0187892Y0232151D01*
X0188050Y0232135D01*
X0188207Y0232115D01*
X0188363Y0232091D01*
X0188519Y0232063D01*
X0188674Y0232032D01*
X0188829Y0231996D01*
X0188982Y0231957D01*
X0189134Y0231914D01*
X0189285Y0231867D01*
X0189435Y0231816D01*
X0189584Y0231761D01*
X0189731Y0231703D01*
X0189877Y0231641D01*
X0190021Y0231576D01*
X0190163Y0231506D01*
X0190304Y0231434D01*
X0190443Y0231357D01*
X0190579Y0231278D01*
X0190714Y0231194D01*
X0190847Y0231108D01*
X0190977Y0231018D01*
X0191105Y0230925D01*
X0191231Y0230829D01*
X0191354Y0230729D01*
X0191475Y0230627D01*
X0191593Y0230522D01*
X0191708Y0230413D01*
X0191821Y0230302D01*
X0191931Y0230188D01*
X0192038Y0230071D01*
X0192142Y0229952D01*
X0192243Y0229830D01*
X0192340Y0229705D01*
X0192435Y0229578D01*
X0192526Y0229449D01*
X0192615Y0229318D01*
X0192699Y0229184D01*
X0192781Y0229048D01*
X0192859Y0228911D01*
X0192933Y0228771D01*
X0193004Y0228629D01*
X0193072Y0228486D01*
X0193136Y0228341D01*
X0193196Y0228195D01*
X0193252Y0228047D01*
X0193305Y0227898D01*
X0193354Y0227747D01*
X0193399Y0227595D01*
X0193440Y0227442D01*
X0193478Y0227289D01*
X0193511Y0227134D01*
X0193541Y0226978D01*
X0193567Y0226822D01*
X0193588Y0226665D01*
X0193606Y0226508D01*
X0193620Y0226350D01*
X0193630Y0226192D01*
X0193636Y0226034D01*
X0193638Y0225876D01*
X0193636Y0225718D01*
X0193630Y0225560D01*
X0193620Y0225402D01*
X0193606Y0225244D01*
X0193588Y0225087D01*
X0193567Y0224930D01*
X0193541Y0224774D01*
X0193511Y0224618D01*
X0193478Y0224463D01*
X0193440Y0224310D01*
X0193399Y0224157D01*
X0193354Y0224005D01*
X0193305Y0223854D01*
X0193252Y0223705D01*
X0193196Y0223557D01*
X0193136Y0223411D01*
X0193072Y0223266D01*
X0193004Y0223123D01*
X0192933Y0222981D01*
X0192859Y0222841D01*
X0192781Y0222704D01*
X0192699Y0222568D01*
X0192615Y0222434D01*
X0192526Y0222303D01*
X0192435Y0222174D01*
X0192340Y0222047D01*
X0192243Y0221922D01*
X0192142Y0221800D01*
X0192038Y0221681D01*
X0191931Y0221564D01*
X0191821Y0221450D01*
X0191708Y0221339D01*
X0191593Y0221230D01*
X0191475Y0221125D01*
X0191354Y0221023D01*
X0191231Y0220923D01*
X0191105Y0220827D01*
X0190977Y0220734D01*
X0190847Y0220644D01*
X0190714Y0220558D01*
X0190579Y0220474D01*
X0190443Y0220395D01*
X0190304Y0220318D01*
X0190163Y0220246D01*
X0190021Y0220176D01*
X0189877Y0220111D01*
X0189731Y0220049D01*
X0189584Y0219991D01*
X0189435Y0219936D01*
X0189285Y0219885D01*
X0189134Y0219838D01*
X0188982Y0219795D01*
X0188829Y0219756D01*
X0188674Y0219720D01*
X0188519Y0219689D01*
X0188363Y0219661D01*
X0188207Y0219637D01*
X0188050Y0219617D01*
X0187892Y0219601D01*
X0187735Y0219589D01*
X0187576Y0219581D01*
X0187418Y0219577D01*
X0187260Y0219577D01*
X0187102Y0219581D01*
X0186943Y0219589D01*
X0186786Y0219601D01*
X0186628Y0219617D01*
X0186471Y0219637D01*
X0186315Y0219661D01*
X0186159Y0219689D01*
X0186004Y0219720D01*
X0185849Y0219756D01*
X0185696Y0219795D01*
X0185544Y0219838D01*
X0185393Y0219885D01*
X0185243Y0219936D01*
X0185094Y0219991D01*
X0184947Y0220049D01*
X0184801Y0220111D01*
X0184657Y0220176D01*
X0184515Y0220246D01*
X0184374Y0220318D01*
X0184235Y0220395D01*
X0184099Y0220474D01*
X0183964Y0220558D01*
X0183831Y0220644D01*
X0183701Y0220734D01*
X0183573Y0220827D01*
X0183447Y0220923D01*
X0183324Y0221023D01*
X0183203Y0221125D01*
X0183085Y0221230D01*
X0182970Y0221339D01*
X0182857Y0221450D01*
X0182747Y0221564D01*
X0182640Y0221681D01*
X0182536Y0221800D01*
X0182435Y0221922D01*
X0182338Y0222047D01*
X0182243Y0222174D01*
X0182152Y0222303D01*
X0182063Y0222434D01*
X0181979Y0222568D01*
X0181897Y0222704D01*
X0181819Y0222841D01*
X0181745Y0222981D01*
X0181674Y0223123D01*
X0181606Y0223266D01*
X0181542Y0223411D01*
X0181482Y0223557D01*
X0181426Y0223705D01*
X0181373Y0223854D01*
X0181324Y0224005D01*
X0181279Y0224157D01*
X0181238Y0224310D01*
X0181200Y0224463D01*
X0181167Y0224618D01*
X0181137Y0224774D01*
X0181111Y0224930D01*
X0181090Y0225087D01*
X0181072Y0225244D01*
X0181058Y0225402D01*
X0181048Y0225560D01*
X0181042Y0225718D01*
X0181040Y0225876D01*
X0181040Y0052648D02*
X0181042Y0052806D01*
X0181048Y0052964D01*
X0181058Y0053122D01*
X0181072Y0053280D01*
X0181090Y0053437D01*
X0181111Y0053594D01*
X0181137Y0053750D01*
X0181167Y0053906D01*
X0181200Y0054061D01*
X0181238Y0054214D01*
X0181279Y0054367D01*
X0181324Y0054519D01*
X0181373Y0054670D01*
X0181426Y0054819D01*
X0181482Y0054967D01*
X0181542Y0055113D01*
X0181606Y0055258D01*
X0181674Y0055401D01*
X0181745Y0055543D01*
X0181819Y0055683D01*
X0181897Y0055820D01*
X0181979Y0055956D01*
X0182063Y0056090D01*
X0182152Y0056221D01*
X0182243Y0056350D01*
X0182338Y0056477D01*
X0182435Y0056602D01*
X0182536Y0056724D01*
X0182640Y0056843D01*
X0182747Y0056960D01*
X0182857Y0057074D01*
X0182970Y0057185D01*
X0183085Y0057294D01*
X0183203Y0057399D01*
X0183324Y0057501D01*
X0183447Y0057601D01*
X0183573Y0057697D01*
X0183701Y0057790D01*
X0183831Y0057880D01*
X0183964Y0057966D01*
X0184099Y0058050D01*
X0184235Y0058129D01*
X0184374Y0058206D01*
X0184515Y0058278D01*
X0184657Y0058348D01*
X0184801Y0058413D01*
X0184947Y0058475D01*
X0185094Y0058533D01*
X0185243Y0058588D01*
X0185393Y0058639D01*
X0185544Y0058686D01*
X0185696Y0058729D01*
X0185849Y0058768D01*
X0186004Y0058804D01*
X0186159Y0058835D01*
X0186315Y0058863D01*
X0186471Y0058887D01*
X0186628Y0058907D01*
X0186786Y0058923D01*
X0186943Y0058935D01*
X0187102Y0058943D01*
X0187260Y0058947D01*
X0187418Y0058947D01*
X0187576Y0058943D01*
X0187735Y0058935D01*
X0187892Y0058923D01*
X0188050Y0058907D01*
X0188207Y0058887D01*
X0188363Y0058863D01*
X0188519Y0058835D01*
X0188674Y0058804D01*
X0188829Y0058768D01*
X0188982Y0058729D01*
X0189134Y0058686D01*
X0189285Y0058639D01*
X0189435Y0058588D01*
X0189584Y0058533D01*
X0189731Y0058475D01*
X0189877Y0058413D01*
X0190021Y0058348D01*
X0190163Y0058278D01*
X0190304Y0058206D01*
X0190443Y0058129D01*
X0190579Y0058050D01*
X0190714Y0057966D01*
X0190847Y0057880D01*
X0190977Y0057790D01*
X0191105Y0057697D01*
X0191231Y0057601D01*
X0191354Y0057501D01*
X0191475Y0057399D01*
X0191593Y0057294D01*
X0191708Y0057185D01*
X0191821Y0057074D01*
X0191931Y0056960D01*
X0192038Y0056843D01*
X0192142Y0056724D01*
X0192243Y0056602D01*
X0192340Y0056477D01*
X0192435Y0056350D01*
X0192526Y0056221D01*
X0192615Y0056090D01*
X0192699Y0055956D01*
X0192781Y0055820D01*
X0192859Y0055683D01*
X0192933Y0055543D01*
X0193004Y0055401D01*
X0193072Y0055258D01*
X0193136Y0055113D01*
X0193196Y0054967D01*
X0193252Y0054819D01*
X0193305Y0054670D01*
X0193354Y0054519D01*
X0193399Y0054367D01*
X0193440Y0054214D01*
X0193478Y0054061D01*
X0193511Y0053906D01*
X0193541Y0053750D01*
X0193567Y0053594D01*
X0193588Y0053437D01*
X0193606Y0053280D01*
X0193620Y0053122D01*
X0193630Y0052964D01*
X0193636Y0052806D01*
X0193638Y0052648D01*
X0193636Y0052490D01*
X0193630Y0052332D01*
X0193620Y0052174D01*
X0193606Y0052016D01*
X0193588Y0051859D01*
X0193567Y0051702D01*
X0193541Y0051546D01*
X0193511Y0051390D01*
X0193478Y0051235D01*
X0193440Y0051082D01*
X0193399Y0050929D01*
X0193354Y0050777D01*
X0193305Y0050626D01*
X0193252Y0050477D01*
X0193196Y0050329D01*
X0193136Y0050183D01*
X0193072Y0050038D01*
X0193004Y0049895D01*
X0192933Y0049753D01*
X0192859Y0049613D01*
X0192781Y0049476D01*
X0192699Y0049340D01*
X0192615Y0049206D01*
X0192526Y0049075D01*
X0192435Y0048946D01*
X0192340Y0048819D01*
X0192243Y0048694D01*
X0192142Y0048572D01*
X0192038Y0048453D01*
X0191931Y0048336D01*
X0191821Y0048222D01*
X0191708Y0048111D01*
X0191593Y0048002D01*
X0191475Y0047897D01*
X0191354Y0047795D01*
X0191231Y0047695D01*
X0191105Y0047599D01*
X0190977Y0047506D01*
X0190847Y0047416D01*
X0190714Y0047330D01*
X0190579Y0047246D01*
X0190443Y0047167D01*
X0190304Y0047090D01*
X0190163Y0047018D01*
X0190021Y0046948D01*
X0189877Y0046883D01*
X0189731Y0046821D01*
X0189584Y0046763D01*
X0189435Y0046708D01*
X0189285Y0046657D01*
X0189134Y0046610D01*
X0188982Y0046567D01*
X0188829Y0046528D01*
X0188674Y0046492D01*
X0188519Y0046461D01*
X0188363Y0046433D01*
X0188207Y0046409D01*
X0188050Y0046389D01*
X0187892Y0046373D01*
X0187735Y0046361D01*
X0187576Y0046353D01*
X0187418Y0046349D01*
X0187260Y0046349D01*
X0187102Y0046353D01*
X0186943Y0046361D01*
X0186786Y0046373D01*
X0186628Y0046389D01*
X0186471Y0046409D01*
X0186315Y0046433D01*
X0186159Y0046461D01*
X0186004Y0046492D01*
X0185849Y0046528D01*
X0185696Y0046567D01*
X0185544Y0046610D01*
X0185393Y0046657D01*
X0185243Y0046708D01*
X0185094Y0046763D01*
X0184947Y0046821D01*
X0184801Y0046883D01*
X0184657Y0046948D01*
X0184515Y0047018D01*
X0184374Y0047090D01*
X0184235Y0047167D01*
X0184099Y0047246D01*
X0183964Y0047330D01*
X0183831Y0047416D01*
X0183701Y0047506D01*
X0183573Y0047599D01*
X0183447Y0047695D01*
X0183324Y0047795D01*
X0183203Y0047897D01*
X0183085Y0048002D01*
X0182970Y0048111D01*
X0182857Y0048222D01*
X0182747Y0048336D01*
X0182640Y0048453D01*
X0182536Y0048572D01*
X0182435Y0048694D01*
X0182338Y0048819D01*
X0182243Y0048946D01*
X0182152Y0049075D01*
X0182063Y0049206D01*
X0181979Y0049340D01*
X0181897Y0049476D01*
X0181819Y0049613D01*
X0181745Y0049753D01*
X0181674Y0049895D01*
X0181606Y0050038D01*
X0181542Y0050183D01*
X0181482Y0050329D01*
X0181426Y0050477D01*
X0181373Y0050626D01*
X0181324Y0050777D01*
X0181279Y0050929D01*
X0181238Y0051082D01*
X0181200Y0051235D01*
X0181167Y0051390D01*
X0181137Y0051546D01*
X0181111Y0051702D01*
X0181090Y0051859D01*
X0181072Y0052016D01*
X0181058Y0052174D01*
X0181048Y0052332D01*
X0181042Y0052490D01*
X0181040Y0052648D01*
D11*
X0167357Y0067137D02*
X0165222Y0067137D01*
X0164154Y0068205D01*
X0168425Y0072475D01*
X0168425Y0068205D01*
X0167357Y0067137D01*
X0164154Y0068205D02*
X0164154Y0072475D01*
X0165222Y0073542D01*
X0167357Y0073542D01*
X0168425Y0072475D01*
X0161999Y0068205D02*
X0161999Y0067137D01*
X0160932Y0067137D01*
X0160932Y0068205D01*
X0161999Y0068205D01*
X0158757Y0067137D02*
X0154486Y0067137D01*
X0156621Y0067137D02*
X0156621Y0073542D01*
X0154486Y0071407D01*
X0152311Y0071407D02*
X0150176Y0067137D01*
X0148041Y0071407D01*
X0145866Y0070340D02*
X0145866Y0069272D01*
X0141595Y0069272D01*
X0141595Y0068205D02*
X0141595Y0070340D01*
X0142663Y0071407D01*
X0144798Y0071407D01*
X0145866Y0070340D01*
X0144798Y0067137D02*
X0142663Y0067137D01*
X0141595Y0068205D01*
X0139420Y0067137D02*
X0137285Y0069272D01*
X0138352Y0069272D02*
X0135150Y0069272D01*
X0135150Y0067137D02*
X0135150Y0073542D01*
X0138352Y0073542D01*
X0139420Y0072475D01*
X0139420Y0070340D01*
X0138352Y0069272D01*
X0136248Y0077637D02*
X0134113Y0077637D01*
X0133045Y0078705D01*
X0133045Y0080840D01*
X0134113Y0081907D01*
X0136248Y0081907D01*
X0137316Y0080840D01*
X0137316Y0078705D01*
X0136248Y0077637D01*
X0139491Y0078705D02*
X0140559Y0077637D01*
X0143761Y0077637D01*
X0143761Y0080840D01*
X0142694Y0081907D01*
X0140559Y0081907D01*
X0140559Y0079772D02*
X0143761Y0079772D01*
X0145936Y0079772D02*
X0148072Y0081907D01*
X0149139Y0081907D01*
X0151308Y0080840D02*
X0152375Y0079772D01*
X0154510Y0079772D01*
X0155578Y0078705D01*
X0154510Y0077637D01*
X0151308Y0077637D01*
X0151308Y0080840D02*
X0152375Y0081907D01*
X0155578Y0081907D01*
X0157753Y0080840D02*
X0157753Y0078705D01*
X0158821Y0077637D01*
X0160956Y0077637D01*
X0162024Y0079772D02*
X0157753Y0079772D01*
X0157753Y0080840D02*
X0158821Y0081907D01*
X0160956Y0081907D01*
X0162024Y0080840D01*
X0162024Y0079772D01*
X0145936Y0077637D02*
X0145936Y0081907D01*
X0140559Y0079772D02*
X0139491Y0078705D01*
X0130870Y0078705D02*
X0129803Y0077637D01*
X0127668Y0077637D01*
X0126600Y0078705D01*
X0126600Y0082975D01*
X0127668Y0084042D01*
X0129803Y0084042D01*
X0130870Y0082975D01*
X0132599Y0101538D02*
X0132599Y0113235D01*
X0137001Y0113235D02*
X0137001Y0101538D01*
X0148599Y0101538D02*
X0148599Y0113235D01*
X0153001Y0113235D02*
X0153001Y0101538D01*
X0164599Y0101538D02*
X0164599Y0113235D01*
X0169001Y0113235D02*
X0169001Y0101538D01*
X0180599Y0101538D02*
X0180599Y0113235D01*
X0185001Y0113235D02*
X0185001Y0101538D01*
X0196599Y0101538D02*
X0196599Y0113235D01*
X0198800Y0124695D02*
X0189398Y0124695D01*
X0163398Y0124695D01*
X0162599Y0124695D01*
X0162599Y0163994D01*
X0163398Y0163994D01*
X0189398Y0163994D01*
X0198800Y0163994D01*
X0198800Y0124695D01*
X0189398Y0124695D02*
X0189398Y0130994D01*
X0189398Y0137994D02*
X0189398Y0150695D01*
X0189398Y0157695D02*
X0189398Y0163994D01*
X0189398Y0164695D02*
X0163398Y0164695D01*
X0162599Y0164695D01*
X0162599Y0203994D01*
X0163398Y0203994D01*
X0189398Y0203994D01*
X0198800Y0203994D01*
X0198800Y0164695D01*
X0189398Y0164695D01*
X0189398Y0170994D01*
X0189398Y0177994D02*
X0189398Y0190695D01*
X0189398Y0197695D02*
X0189398Y0203994D01*
X0166600Y0194194D02*
X0166602Y0194283D01*
X0166608Y0194372D01*
X0166618Y0194461D01*
X0166632Y0194549D01*
X0166649Y0194636D01*
X0166671Y0194722D01*
X0166697Y0194808D01*
X0166726Y0194892D01*
X0166759Y0194975D01*
X0166795Y0195056D01*
X0166836Y0195136D01*
X0166879Y0195213D01*
X0166926Y0195289D01*
X0166977Y0195362D01*
X0167030Y0195433D01*
X0167087Y0195502D01*
X0167147Y0195568D01*
X0167210Y0195632D01*
X0167275Y0195692D01*
X0167343Y0195750D01*
X0167414Y0195804D01*
X0167487Y0195855D01*
X0167562Y0195903D01*
X0167639Y0195948D01*
X0167718Y0195989D01*
X0167799Y0196026D01*
X0167881Y0196060D01*
X0167965Y0196091D01*
X0168050Y0196117D01*
X0168136Y0196140D01*
X0168223Y0196158D01*
X0168311Y0196173D01*
X0168400Y0196184D01*
X0168489Y0196191D01*
X0168578Y0196194D01*
X0168667Y0196193D01*
X0168756Y0196188D01*
X0168844Y0196179D01*
X0168933Y0196166D01*
X0169020Y0196149D01*
X0169107Y0196129D01*
X0169193Y0196104D01*
X0169277Y0196076D01*
X0169360Y0196044D01*
X0169442Y0196008D01*
X0169522Y0195969D01*
X0169600Y0195926D01*
X0169676Y0195880D01*
X0169750Y0195830D01*
X0169822Y0195777D01*
X0169891Y0195721D01*
X0169958Y0195662D01*
X0170022Y0195600D01*
X0170083Y0195536D01*
X0170142Y0195468D01*
X0170197Y0195398D01*
X0170249Y0195326D01*
X0170298Y0195251D01*
X0170343Y0195175D01*
X0170385Y0195096D01*
X0170423Y0195016D01*
X0170458Y0194934D01*
X0170489Y0194850D01*
X0170517Y0194765D01*
X0170540Y0194679D01*
X0170560Y0194592D01*
X0170576Y0194505D01*
X0170588Y0194416D01*
X0170596Y0194328D01*
X0170600Y0194239D01*
X0170600Y0194149D01*
X0170596Y0194060D01*
X0170588Y0193972D01*
X0170576Y0193883D01*
X0170560Y0193796D01*
X0170540Y0193709D01*
X0170517Y0193623D01*
X0170489Y0193538D01*
X0170458Y0193454D01*
X0170423Y0193372D01*
X0170385Y0193292D01*
X0170343Y0193213D01*
X0170298Y0193137D01*
X0170249Y0193062D01*
X0170197Y0192990D01*
X0170142Y0192920D01*
X0170083Y0192852D01*
X0170022Y0192788D01*
X0169958Y0192726D01*
X0169891Y0192667D01*
X0169822Y0192611D01*
X0169750Y0192558D01*
X0169676Y0192508D01*
X0169600Y0192462D01*
X0169522Y0192419D01*
X0169442Y0192380D01*
X0169360Y0192344D01*
X0169277Y0192312D01*
X0169193Y0192284D01*
X0169107Y0192259D01*
X0169020Y0192239D01*
X0168933Y0192222D01*
X0168844Y0192209D01*
X0168756Y0192200D01*
X0168667Y0192195D01*
X0168578Y0192194D01*
X0168489Y0192197D01*
X0168400Y0192204D01*
X0168311Y0192215D01*
X0168223Y0192230D01*
X0168136Y0192248D01*
X0168050Y0192271D01*
X0167965Y0192297D01*
X0167881Y0192328D01*
X0167799Y0192362D01*
X0167718Y0192399D01*
X0167639Y0192440D01*
X0167562Y0192485D01*
X0167487Y0192533D01*
X0167414Y0192584D01*
X0167343Y0192638D01*
X0167275Y0192696D01*
X0167210Y0192756D01*
X0167147Y0192820D01*
X0167087Y0192886D01*
X0167030Y0192955D01*
X0166977Y0193026D01*
X0166926Y0193099D01*
X0166879Y0193175D01*
X0166836Y0193252D01*
X0166795Y0193332D01*
X0166759Y0193413D01*
X0166726Y0193496D01*
X0166697Y0193580D01*
X0166671Y0193666D01*
X0166649Y0193752D01*
X0166632Y0193839D01*
X0166618Y0193927D01*
X0166608Y0194016D01*
X0166602Y0194105D01*
X0166600Y0194194D01*
X0163398Y0203994D02*
X0163398Y0164695D01*
X0163398Y0163994D02*
X0163398Y0124695D01*
X0166600Y0134494D02*
X0166602Y0134583D01*
X0166608Y0134672D01*
X0166618Y0134761D01*
X0166632Y0134849D01*
X0166649Y0134936D01*
X0166671Y0135022D01*
X0166697Y0135108D01*
X0166726Y0135192D01*
X0166759Y0135275D01*
X0166795Y0135356D01*
X0166836Y0135436D01*
X0166879Y0135513D01*
X0166926Y0135589D01*
X0166977Y0135662D01*
X0167030Y0135733D01*
X0167087Y0135802D01*
X0167147Y0135868D01*
X0167210Y0135932D01*
X0167275Y0135992D01*
X0167343Y0136050D01*
X0167414Y0136104D01*
X0167487Y0136155D01*
X0167562Y0136203D01*
X0167639Y0136248D01*
X0167718Y0136289D01*
X0167799Y0136326D01*
X0167881Y0136360D01*
X0167965Y0136391D01*
X0168050Y0136417D01*
X0168136Y0136440D01*
X0168223Y0136458D01*
X0168311Y0136473D01*
X0168400Y0136484D01*
X0168489Y0136491D01*
X0168578Y0136494D01*
X0168667Y0136493D01*
X0168756Y0136488D01*
X0168844Y0136479D01*
X0168933Y0136466D01*
X0169020Y0136449D01*
X0169107Y0136429D01*
X0169193Y0136404D01*
X0169277Y0136376D01*
X0169360Y0136344D01*
X0169442Y0136308D01*
X0169522Y0136269D01*
X0169600Y0136226D01*
X0169676Y0136180D01*
X0169750Y0136130D01*
X0169822Y0136077D01*
X0169891Y0136021D01*
X0169958Y0135962D01*
X0170022Y0135900D01*
X0170083Y0135836D01*
X0170142Y0135768D01*
X0170197Y0135698D01*
X0170249Y0135626D01*
X0170298Y0135551D01*
X0170343Y0135475D01*
X0170385Y0135396D01*
X0170423Y0135316D01*
X0170458Y0135234D01*
X0170489Y0135150D01*
X0170517Y0135065D01*
X0170540Y0134979D01*
X0170560Y0134892D01*
X0170576Y0134805D01*
X0170588Y0134716D01*
X0170596Y0134628D01*
X0170600Y0134539D01*
X0170600Y0134449D01*
X0170596Y0134360D01*
X0170588Y0134272D01*
X0170576Y0134183D01*
X0170560Y0134096D01*
X0170540Y0134009D01*
X0170517Y0133923D01*
X0170489Y0133838D01*
X0170458Y0133754D01*
X0170423Y0133672D01*
X0170385Y0133592D01*
X0170343Y0133513D01*
X0170298Y0133437D01*
X0170249Y0133362D01*
X0170197Y0133290D01*
X0170142Y0133220D01*
X0170083Y0133152D01*
X0170022Y0133088D01*
X0169958Y0133026D01*
X0169891Y0132967D01*
X0169822Y0132911D01*
X0169750Y0132858D01*
X0169676Y0132808D01*
X0169600Y0132762D01*
X0169522Y0132719D01*
X0169442Y0132680D01*
X0169360Y0132644D01*
X0169277Y0132612D01*
X0169193Y0132584D01*
X0169107Y0132559D01*
X0169020Y0132539D01*
X0168933Y0132522D01*
X0168844Y0132509D01*
X0168756Y0132500D01*
X0168667Y0132495D01*
X0168578Y0132494D01*
X0168489Y0132497D01*
X0168400Y0132504D01*
X0168311Y0132515D01*
X0168223Y0132530D01*
X0168136Y0132548D01*
X0168050Y0132571D01*
X0167965Y0132597D01*
X0167881Y0132628D01*
X0167799Y0132662D01*
X0167718Y0132699D01*
X0167639Y0132740D01*
X0167562Y0132785D01*
X0167487Y0132833D01*
X0167414Y0132884D01*
X0167343Y0132938D01*
X0167275Y0132996D01*
X0167210Y0133056D01*
X0167147Y0133120D01*
X0167087Y0133186D01*
X0167030Y0133255D01*
X0166977Y0133326D01*
X0166926Y0133399D01*
X0166879Y0133475D01*
X0166836Y0133552D01*
X0166795Y0133632D01*
X0166759Y0133713D01*
X0166726Y0133796D01*
X0166697Y0133880D01*
X0166671Y0133966D01*
X0166649Y0134052D01*
X0166632Y0134139D01*
X0166618Y0134227D01*
X0166608Y0134316D01*
X0166602Y0134405D01*
X0166600Y0134494D01*
X0166600Y0154194D02*
X0166602Y0154283D01*
X0166608Y0154372D01*
X0166618Y0154461D01*
X0166632Y0154549D01*
X0166649Y0154636D01*
X0166671Y0154722D01*
X0166697Y0154808D01*
X0166726Y0154892D01*
X0166759Y0154975D01*
X0166795Y0155056D01*
X0166836Y0155136D01*
X0166879Y0155213D01*
X0166926Y0155289D01*
X0166977Y0155362D01*
X0167030Y0155433D01*
X0167087Y0155502D01*
X0167147Y0155568D01*
X0167210Y0155632D01*
X0167275Y0155692D01*
X0167343Y0155750D01*
X0167414Y0155804D01*
X0167487Y0155855D01*
X0167562Y0155903D01*
X0167639Y0155948D01*
X0167718Y0155989D01*
X0167799Y0156026D01*
X0167881Y0156060D01*
X0167965Y0156091D01*
X0168050Y0156117D01*
X0168136Y0156140D01*
X0168223Y0156158D01*
X0168311Y0156173D01*
X0168400Y0156184D01*
X0168489Y0156191D01*
X0168578Y0156194D01*
X0168667Y0156193D01*
X0168756Y0156188D01*
X0168844Y0156179D01*
X0168933Y0156166D01*
X0169020Y0156149D01*
X0169107Y0156129D01*
X0169193Y0156104D01*
X0169277Y0156076D01*
X0169360Y0156044D01*
X0169442Y0156008D01*
X0169522Y0155969D01*
X0169600Y0155926D01*
X0169676Y0155880D01*
X0169750Y0155830D01*
X0169822Y0155777D01*
X0169891Y0155721D01*
X0169958Y0155662D01*
X0170022Y0155600D01*
X0170083Y0155536D01*
X0170142Y0155468D01*
X0170197Y0155398D01*
X0170249Y0155326D01*
X0170298Y0155251D01*
X0170343Y0155175D01*
X0170385Y0155096D01*
X0170423Y0155016D01*
X0170458Y0154934D01*
X0170489Y0154850D01*
X0170517Y0154765D01*
X0170540Y0154679D01*
X0170560Y0154592D01*
X0170576Y0154505D01*
X0170588Y0154416D01*
X0170596Y0154328D01*
X0170600Y0154239D01*
X0170600Y0154149D01*
X0170596Y0154060D01*
X0170588Y0153972D01*
X0170576Y0153883D01*
X0170560Y0153796D01*
X0170540Y0153709D01*
X0170517Y0153623D01*
X0170489Y0153538D01*
X0170458Y0153454D01*
X0170423Y0153372D01*
X0170385Y0153292D01*
X0170343Y0153213D01*
X0170298Y0153137D01*
X0170249Y0153062D01*
X0170197Y0152990D01*
X0170142Y0152920D01*
X0170083Y0152852D01*
X0170022Y0152788D01*
X0169958Y0152726D01*
X0169891Y0152667D01*
X0169822Y0152611D01*
X0169750Y0152558D01*
X0169676Y0152508D01*
X0169600Y0152462D01*
X0169522Y0152419D01*
X0169442Y0152380D01*
X0169360Y0152344D01*
X0169277Y0152312D01*
X0169193Y0152284D01*
X0169107Y0152259D01*
X0169020Y0152239D01*
X0168933Y0152222D01*
X0168844Y0152209D01*
X0168756Y0152200D01*
X0168667Y0152195D01*
X0168578Y0152194D01*
X0168489Y0152197D01*
X0168400Y0152204D01*
X0168311Y0152215D01*
X0168223Y0152230D01*
X0168136Y0152248D01*
X0168050Y0152271D01*
X0167965Y0152297D01*
X0167881Y0152328D01*
X0167799Y0152362D01*
X0167718Y0152399D01*
X0167639Y0152440D01*
X0167562Y0152485D01*
X0167487Y0152533D01*
X0167414Y0152584D01*
X0167343Y0152638D01*
X0167275Y0152696D01*
X0167210Y0152756D01*
X0167147Y0152820D01*
X0167087Y0152886D01*
X0167030Y0152955D01*
X0166977Y0153026D01*
X0166926Y0153099D01*
X0166879Y0153175D01*
X0166836Y0153252D01*
X0166795Y0153332D01*
X0166759Y0153413D01*
X0166726Y0153496D01*
X0166697Y0153580D01*
X0166671Y0153666D01*
X0166649Y0153752D01*
X0166632Y0153839D01*
X0166618Y0153927D01*
X0166608Y0154016D01*
X0166602Y0154105D01*
X0166600Y0154194D01*
X0166600Y0174494D02*
X0166602Y0174583D01*
X0166608Y0174672D01*
X0166618Y0174761D01*
X0166632Y0174849D01*
X0166649Y0174936D01*
X0166671Y0175022D01*
X0166697Y0175108D01*
X0166726Y0175192D01*
X0166759Y0175275D01*
X0166795Y0175356D01*
X0166836Y0175436D01*
X0166879Y0175513D01*
X0166926Y0175589D01*
X0166977Y0175662D01*
X0167030Y0175733D01*
X0167087Y0175802D01*
X0167147Y0175868D01*
X0167210Y0175932D01*
X0167275Y0175992D01*
X0167343Y0176050D01*
X0167414Y0176104D01*
X0167487Y0176155D01*
X0167562Y0176203D01*
X0167639Y0176248D01*
X0167718Y0176289D01*
X0167799Y0176326D01*
X0167881Y0176360D01*
X0167965Y0176391D01*
X0168050Y0176417D01*
X0168136Y0176440D01*
X0168223Y0176458D01*
X0168311Y0176473D01*
X0168400Y0176484D01*
X0168489Y0176491D01*
X0168578Y0176494D01*
X0168667Y0176493D01*
X0168756Y0176488D01*
X0168844Y0176479D01*
X0168933Y0176466D01*
X0169020Y0176449D01*
X0169107Y0176429D01*
X0169193Y0176404D01*
X0169277Y0176376D01*
X0169360Y0176344D01*
X0169442Y0176308D01*
X0169522Y0176269D01*
X0169600Y0176226D01*
X0169676Y0176180D01*
X0169750Y0176130D01*
X0169822Y0176077D01*
X0169891Y0176021D01*
X0169958Y0175962D01*
X0170022Y0175900D01*
X0170083Y0175836D01*
X0170142Y0175768D01*
X0170197Y0175698D01*
X0170249Y0175626D01*
X0170298Y0175551D01*
X0170343Y0175475D01*
X0170385Y0175396D01*
X0170423Y0175316D01*
X0170458Y0175234D01*
X0170489Y0175150D01*
X0170517Y0175065D01*
X0170540Y0174979D01*
X0170560Y0174892D01*
X0170576Y0174805D01*
X0170588Y0174716D01*
X0170596Y0174628D01*
X0170600Y0174539D01*
X0170600Y0174449D01*
X0170596Y0174360D01*
X0170588Y0174272D01*
X0170576Y0174183D01*
X0170560Y0174096D01*
X0170540Y0174009D01*
X0170517Y0173923D01*
X0170489Y0173838D01*
X0170458Y0173754D01*
X0170423Y0173672D01*
X0170385Y0173592D01*
X0170343Y0173513D01*
X0170298Y0173437D01*
X0170249Y0173362D01*
X0170197Y0173290D01*
X0170142Y0173220D01*
X0170083Y0173152D01*
X0170022Y0173088D01*
X0169958Y0173026D01*
X0169891Y0172967D01*
X0169822Y0172911D01*
X0169750Y0172858D01*
X0169676Y0172808D01*
X0169600Y0172762D01*
X0169522Y0172719D01*
X0169442Y0172680D01*
X0169360Y0172644D01*
X0169277Y0172612D01*
X0169193Y0172584D01*
X0169107Y0172559D01*
X0169020Y0172539D01*
X0168933Y0172522D01*
X0168844Y0172509D01*
X0168756Y0172500D01*
X0168667Y0172495D01*
X0168578Y0172494D01*
X0168489Y0172497D01*
X0168400Y0172504D01*
X0168311Y0172515D01*
X0168223Y0172530D01*
X0168136Y0172548D01*
X0168050Y0172571D01*
X0167965Y0172597D01*
X0167881Y0172628D01*
X0167799Y0172662D01*
X0167718Y0172699D01*
X0167639Y0172740D01*
X0167562Y0172785D01*
X0167487Y0172833D01*
X0167414Y0172884D01*
X0167343Y0172938D01*
X0167275Y0172996D01*
X0167210Y0173056D01*
X0167147Y0173120D01*
X0167087Y0173186D01*
X0167030Y0173255D01*
X0166977Y0173326D01*
X0166926Y0173399D01*
X0166879Y0173475D01*
X0166836Y0173552D01*
X0166795Y0173632D01*
X0166759Y0173713D01*
X0166726Y0173796D01*
X0166697Y0173880D01*
X0166671Y0173966D01*
X0166649Y0174052D01*
X0166632Y0174139D01*
X0166618Y0174227D01*
X0166608Y0174316D01*
X0166602Y0174405D01*
X0166600Y0174494D01*
X0140500Y0166080D02*
X0136230Y0166080D01*
X0134095Y0163945D01*
X0136230Y0161810D01*
X0140500Y0161810D01*
X0140500Y0159635D02*
X0140500Y0155364D01*
X0140500Y0157500D02*
X0134095Y0157500D01*
X0136230Y0155364D01*
X0137297Y0161810D02*
X0137297Y0166080D01*
X0129500Y0166094D02*
X0128432Y0165026D01*
X0124162Y0165026D01*
X0125230Y0163958D02*
X0125230Y0166094D01*
X0125230Y0168255D02*
X0129500Y0168255D01*
X0127365Y0168255D02*
X0125230Y0170391D01*
X0125230Y0171458D01*
X0126297Y0173627D02*
X0128432Y0173627D01*
X0129500Y0174694D01*
X0129500Y0176829D01*
X0128432Y0177897D01*
X0126297Y0177897D01*
X0125230Y0176829D01*
X0125230Y0174694D01*
X0126297Y0173627D01*
X0125230Y0180072D02*
X0125230Y0183275D01*
X0126297Y0184343D01*
X0129500Y0184343D01*
X0129500Y0186518D02*
X0129500Y0188653D01*
X0129500Y0187585D02*
X0125230Y0187585D01*
X0125230Y0186518D01*
X0123095Y0187585D02*
X0122027Y0187585D01*
X0126297Y0190815D02*
X0125230Y0191882D01*
X0125230Y0195085D01*
X0126297Y0197260D02*
X0125230Y0198328D01*
X0125230Y0201531D01*
X0127365Y0200463D02*
X0127365Y0198328D01*
X0126297Y0197260D01*
X0127365Y0200463D02*
X0128432Y0201531D01*
X0129500Y0200463D01*
X0129500Y0197260D01*
X0129500Y0195085D02*
X0129500Y0191882D01*
X0128432Y0190815D01*
X0126297Y0190815D01*
X0125230Y0180072D02*
X0129500Y0180072D01*
X0129500Y0161783D02*
X0129500Y0158581D01*
X0128432Y0157513D01*
X0126297Y0157513D01*
X0125230Y0158581D01*
X0125230Y0161783D01*
X0126297Y0155338D02*
X0127365Y0155338D01*
X0127365Y0151067D01*
X0128432Y0151067D02*
X0126297Y0151067D01*
X0125230Y0152135D01*
X0125230Y0154270D01*
X0126297Y0155338D01*
X0129500Y0154270D02*
X0129500Y0152135D01*
X0128432Y0151067D01*
X0129500Y0148906D02*
X0129500Y0146770D01*
X0129500Y0147838D02*
X0123095Y0147838D01*
X0123095Y0146770D01*
X0123095Y0144595D02*
X0123095Y0140325D01*
X0129500Y0140325D01*
X0129500Y0144595D01*
X0126297Y0142460D02*
X0126297Y0140325D01*
X0124162Y0138150D02*
X0123095Y0138150D01*
X0124162Y0138150D02*
X0126297Y0136015D01*
X0129500Y0136015D01*
X0129500Y0131718D02*
X0129500Y0129583D01*
X0129500Y0130650D02*
X0123095Y0130650D01*
X0123095Y0129583D02*
X0123095Y0131718D01*
X0123095Y0133880D02*
X0124162Y0133880D01*
X0126297Y0136015D01*
X0124162Y0127407D02*
X0123095Y0126340D01*
X0123095Y0123137D01*
X0129500Y0123137D01*
X0129500Y0126340D01*
X0128432Y0127407D01*
X0124162Y0127407D01*
X0134095Y0125272D02*
X0140500Y0125272D01*
X0140500Y0123137D02*
X0140500Y0127407D01*
X0138365Y0129583D02*
X0140500Y0131718D01*
X0138365Y0133853D01*
X0134095Y0133853D01*
X0134095Y0129583D02*
X0138365Y0129583D01*
X0134095Y0125272D02*
X0136230Y0123137D01*
X0121001Y0113235D02*
X0121001Y0101538D01*
X0116599Y0101538D02*
X0116599Y0113235D01*
X0105001Y0113235D02*
X0105001Y0101538D01*
X0100599Y0101538D02*
X0100599Y0113235D01*
X0089001Y0113235D02*
X0089001Y0101538D01*
X0084599Y0101538D02*
X0084599Y0113235D01*
X0073001Y0113235D02*
X0073001Y0101538D01*
X0068599Y0101538D02*
X0068599Y0113235D01*
X0057001Y0113235D02*
X0057001Y0101538D01*
X0052599Y0101538D02*
X0052599Y0113235D01*
X0041001Y0113235D02*
X0041001Y0101538D01*
X0051600Y0085042D02*
X0055870Y0085042D01*
X0058045Y0082907D02*
X0059113Y0082907D01*
X0059113Y0078637D01*
X0058045Y0078637D02*
X0060181Y0078637D01*
X0062342Y0078637D02*
X0062342Y0082907D01*
X0065545Y0082907D01*
X0066613Y0081840D01*
X0066613Y0078637D01*
X0068788Y0079705D02*
X0068788Y0081840D01*
X0069856Y0082907D01*
X0071991Y0082907D01*
X0073058Y0081840D01*
X0073058Y0080772D01*
X0068788Y0080772D01*
X0068788Y0079705D02*
X0069856Y0078637D01*
X0071991Y0078637D01*
X0059113Y0085042D02*
X0059113Y0086110D01*
X0053735Y0081840D02*
X0051600Y0081840D01*
X0051600Y0085042D02*
X0051600Y0078637D01*
X0061668Y0127137D02*
X0063803Y0127137D01*
X0064870Y0128205D01*
X0067045Y0128205D02*
X0068113Y0127137D01*
X0070248Y0127137D01*
X0071316Y0128205D01*
X0071316Y0132475D02*
X0070248Y0133542D01*
X0068113Y0133542D01*
X0067045Y0132475D01*
X0067045Y0128205D01*
X0064870Y0132475D02*
X0063803Y0133542D01*
X0061668Y0133542D01*
X0060600Y0132475D01*
X0060600Y0128205D01*
X0061668Y0127137D01*
X0079936Y0127137D02*
X0084207Y0127137D01*
X0086382Y0128205D02*
X0086382Y0130340D01*
X0087450Y0131407D01*
X0089585Y0131407D01*
X0090652Y0130340D01*
X0090652Y0128205D01*
X0089585Y0127137D01*
X0087450Y0127137D01*
X0086382Y0128205D01*
X0079936Y0127137D02*
X0079936Y0133542D01*
X0092827Y0128205D02*
X0093895Y0129272D01*
X0097098Y0129272D01*
X0097098Y0130340D02*
X0097098Y0127137D01*
X0093895Y0127137D01*
X0092827Y0128205D01*
X0093895Y0131407D02*
X0096030Y0131407D01*
X0097098Y0130340D01*
X0099273Y0130340D02*
X0099273Y0128205D01*
X0100341Y0127137D01*
X0103543Y0127137D01*
X0103543Y0133542D01*
X0103543Y0131407D02*
X0100341Y0131407D01*
X0099273Y0130340D01*
X0136230Y0142473D02*
X0136230Y0146744D01*
X0138365Y0146744D02*
X0138365Y0142473D01*
X0129500Y0203706D02*
X0128432Y0203706D01*
X0128432Y0204773D01*
X0129500Y0204773D01*
X0129500Y0203706D01*
X0128432Y0206928D02*
X0129500Y0207996D01*
X0129500Y0211199D01*
X0128432Y0213374D02*
X0129500Y0214442D01*
X0129500Y0216577D01*
X0128432Y0217644D01*
X0126297Y0217644D01*
X0125230Y0216577D01*
X0125230Y0214442D01*
X0126297Y0213374D01*
X0128432Y0213374D01*
X0125230Y0211199D02*
X0125230Y0207996D01*
X0126297Y0206928D01*
X0128432Y0206928D01*
X0128432Y0219819D02*
X0128432Y0220887D01*
X0129500Y0220887D01*
X0129500Y0219819D01*
X0128432Y0219819D01*
X0129500Y0223042D02*
X0129500Y0227313D01*
X0128432Y0229488D02*
X0127365Y0230555D01*
X0127365Y0233758D01*
X0126297Y0233758D02*
X0129500Y0233758D01*
X0129500Y0230555D01*
X0128432Y0229488D01*
X0125230Y0230555D02*
X0125230Y0232690D01*
X0126297Y0233758D01*
X0125230Y0227313D02*
X0129500Y0223042D01*
X0125230Y0223042D02*
X0125230Y0227313D01*
X0114800Y0216837D02*
X0113800Y0217837D01*
X0113300Y0229337D01*
X0114800Y0216837D02*
X0151800Y0216837D01*
X0152800Y0217837D01*
X0153300Y0229337D01*
X0062300Y0189337D02*
X0062300Y0155337D01*
X0059300Y0152337D01*
X0045300Y0152337D01*
X0042300Y0155337D01*
X0039001Y0153680D02*
X0039001Y0192979D01*
X0038202Y0192979D01*
X0038202Y0153680D01*
X0012202Y0153680D01*
X0002800Y0153680D01*
X0002800Y0192979D01*
X0012202Y0192979D01*
X0038202Y0192979D01*
X0042300Y0189337D02*
X0045300Y0192337D01*
X0059300Y0192337D01*
X0062300Y0189337D01*
X0031000Y0183180D02*
X0031002Y0183269D01*
X0031008Y0183358D01*
X0031018Y0183447D01*
X0031032Y0183535D01*
X0031049Y0183622D01*
X0031071Y0183708D01*
X0031097Y0183794D01*
X0031126Y0183878D01*
X0031159Y0183961D01*
X0031195Y0184042D01*
X0031236Y0184122D01*
X0031279Y0184199D01*
X0031326Y0184275D01*
X0031377Y0184348D01*
X0031430Y0184419D01*
X0031487Y0184488D01*
X0031547Y0184554D01*
X0031610Y0184618D01*
X0031675Y0184678D01*
X0031743Y0184736D01*
X0031814Y0184790D01*
X0031887Y0184841D01*
X0031962Y0184889D01*
X0032039Y0184934D01*
X0032118Y0184975D01*
X0032199Y0185012D01*
X0032281Y0185046D01*
X0032365Y0185077D01*
X0032450Y0185103D01*
X0032536Y0185126D01*
X0032623Y0185144D01*
X0032711Y0185159D01*
X0032800Y0185170D01*
X0032889Y0185177D01*
X0032978Y0185180D01*
X0033067Y0185179D01*
X0033156Y0185174D01*
X0033244Y0185165D01*
X0033333Y0185152D01*
X0033420Y0185135D01*
X0033507Y0185115D01*
X0033593Y0185090D01*
X0033677Y0185062D01*
X0033760Y0185030D01*
X0033842Y0184994D01*
X0033922Y0184955D01*
X0034000Y0184912D01*
X0034076Y0184866D01*
X0034150Y0184816D01*
X0034222Y0184763D01*
X0034291Y0184707D01*
X0034358Y0184648D01*
X0034422Y0184586D01*
X0034483Y0184522D01*
X0034542Y0184454D01*
X0034597Y0184384D01*
X0034649Y0184312D01*
X0034698Y0184237D01*
X0034743Y0184161D01*
X0034785Y0184082D01*
X0034823Y0184002D01*
X0034858Y0183920D01*
X0034889Y0183836D01*
X0034917Y0183751D01*
X0034940Y0183665D01*
X0034960Y0183578D01*
X0034976Y0183491D01*
X0034988Y0183402D01*
X0034996Y0183314D01*
X0035000Y0183225D01*
X0035000Y0183135D01*
X0034996Y0183046D01*
X0034988Y0182958D01*
X0034976Y0182869D01*
X0034960Y0182782D01*
X0034940Y0182695D01*
X0034917Y0182609D01*
X0034889Y0182524D01*
X0034858Y0182440D01*
X0034823Y0182358D01*
X0034785Y0182278D01*
X0034743Y0182199D01*
X0034698Y0182123D01*
X0034649Y0182048D01*
X0034597Y0181976D01*
X0034542Y0181906D01*
X0034483Y0181838D01*
X0034422Y0181774D01*
X0034358Y0181712D01*
X0034291Y0181653D01*
X0034222Y0181597D01*
X0034150Y0181544D01*
X0034076Y0181494D01*
X0034000Y0181448D01*
X0033922Y0181405D01*
X0033842Y0181366D01*
X0033760Y0181330D01*
X0033677Y0181298D01*
X0033593Y0181270D01*
X0033507Y0181245D01*
X0033420Y0181225D01*
X0033333Y0181208D01*
X0033244Y0181195D01*
X0033156Y0181186D01*
X0033067Y0181181D01*
X0032978Y0181180D01*
X0032889Y0181183D01*
X0032800Y0181190D01*
X0032711Y0181201D01*
X0032623Y0181216D01*
X0032536Y0181234D01*
X0032450Y0181257D01*
X0032365Y0181283D01*
X0032281Y0181314D01*
X0032199Y0181348D01*
X0032118Y0181385D01*
X0032039Y0181426D01*
X0031962Y0181471D01*
X0031887Y0181519D01*
X0031814Y0181570D01*
X0031743Y0181624D01*
X0031675Y0181682D01*
X0031610Y0181742D01*
X0031547Y0181806D01*
X0031487Y0181872D01*
X0031430Y0181941D01*
X0031377Y0182012D01*
X0031326Y0182085D01*
X0031279Y0182161D01*
X0031236Y0182238D01*
X0031195Y0182318D01*
X0031159Y0182399D01*
X0031126Y0182482D01*
X0031097Y0182566D01*
X0031071Y0182652D01*
X0031049Y0182738D01*
X0031032Y0182825D01*
X0031018Y0182913D01*
X0031008Y0183002D01*
X0031002Y0183091D01*
X0031000Y0183180D01*
X0020800Y0194837D02*
X0015800Y0194837D01*
X0013300Y0197337D01*
X0010800Y0194837D01*
X0005800Y0194837D01*
X0003300Y0197337D01*
X0003300Y0202337D01*
X0005800Y0204837D01*
X0010800Y0204837D01*
X0013300Y0202337D01*
X0015800Y0204837D01*
X0020800Y0204837D01*
X0023300Y0202337D01*
X0023300Y0197337D01*
X0020800Y0194837D01*
X0013300Y0197337D02*
X0013300Y0202337D01*
X0012202Y0192979D02*
X0012202Y0186680D01*
X0012202Y0179680D02*
X0012202Y0166979D01*
X0012202Y0159979D02*
X0012202Y0153680D01*
X0031000Y0163480D02*
X0031002Y0163569D01*
X0031008Y0163658D01*
X0031018Y0163747D01*
X0031032Y0163835D01*
X0031049Y0163922D01*
X0031071Y0164008D01*
X0031097Y0164094D01*
X0031126Y0164178D01*
X0031159Y0164261D01*
X0031195Y0164342D01*
X0031236Y0164422D01*
X0031279Y0164499D01*
X0031326Y0164575D01*
X0031377Y0164648D01*
X0031430Y0164719D01*
X0031487Y0164788D01*
X0031547Y0164854D01*
X0031610Y0164918D01*
X0031675Y0164978D01*
X0031743Y0165036D01*
X0031814Y0165090D01*
X0031887Y0165141D01*
X0031962Y0165189D01*
X0032039Y0165234D01*
X0032118Y0165275D01*
X0032199Y0165312D01*
X0032281Y0165346D01*
X0032365Y0165377D01*
X0032450Y0165403D01*
X0032536Y0165426D01*
X0032623Y0165444D01*
X0032711Y0165459D01*
X0032800Y0165470D01*
X0032889Y0165477D01*
X0032978Y0165480D01*
X0033067Y0165479D01*
X0033156Y0165474D01*
X0033244Y0165465D01*
X0033333Y0165452D01*
X0033420Y0165435D01*
X0033507Y0165415D01*
X0033593Y0165390D01*
X0033677Y0165362D01*
X0033760Y0165330D01*
X0033842Y0165294D01*
X0033922Y0165255D01*
X0034000Y0165212D01*
X0034076Y0165166D01*
X0034150Y0165116D01*
X0034222Y0165063D01*
X0034291Y0165007D01*
X0034358Y0164948D01*
X0034422Y0164886D01*
X0034483Y0164822D01*
X0034542Y0164754D01*
X0034597Y0164684D01*
X0034649Y0164612D01*
X0034698Y0164537D01*
X0034743Y0164461D01*
X0034785Y0164382D01*
X0034823Y0164302D01*
X0034858Y0164220D01*
X0034889Y0164136D01*
X0034917Y0164051D01*
X0034940Y0163965D01*
X0034960Y0163878D01*
X0034976Y0163791D01*
X0034988Y0163702D01*
X0034996Y0163614D01*
X0035000Y0163525D01*
X0035000Y0163435D01*
X0034996Y0163346D01*
X0034988Y0163258D01*
X0034976Y0163169D01*
X0034960Y0163082D01*
X0034940Y0162995D01*
X0034917Y0162909D01*
X0034889Y0162824D01*
X0034858Y0162740D01*
X0034823Y0162658D01*
X0034785Y0162578D01*
X0034743Y0162499D01*
X0034698Y0162423D01*
X0034649Y0162348D01*
X0034597Y0162276D01*
X0034542Y0162206D01*
X0034483Y0162138D01*
X0034422Y0162074D01*
X0034358Y0162012D01*
X0034291Y0161953D01*
X0034222Y0161897D01*
X0034150Y0161844D01*
X0034076Y0161794D01*
X0034000Y0161748D01*
X0033922Y0161705D01*
X0033842Y0161666D01*
X0033760Y0161630D01*
X0033677Y0161598D01*
X0033593Y0161570D01*
X0033507Y0161545D01*
X0033420Y0161525D01*
X0033333Y0161508D01*
X0033244Y0161495D01*
X0033156Y0161486D01*
X0033067Y0161481D01*
X0032978Y0161480D01*
X0032889Y0161483D01*
X0032800Y0161490D01*
X0032711Y0161501D01*
X0032623Y0161516D01*
X0032536Y0161534D01*
X0032450Y0161557D01*
X0032365Y0161583D01*
X0032281Y0161614D01*
X0032199Y0161648D01*
X0032118Y0161685D01*
X0032039Y0161726D01*
X0031962Y0161771D01*
X0031887Y0161819D01*
X0031814Y0161870D01*
X0031743Y0161924D01*
X0031675Y0161982D01*
X0031610Y0162042D01*
X0031547Y0162106D01*
X0031487Y0162172D01*
X0031430Y0162241D01*
X0031377Y0162312D01*
X0031326Y0162385D01*
X0031279Y0162461D01*
X0031236Y0162538D01*
X0031195Y0162618D01*
X0031159Y0162699D01*
X0031126Y0162782D01*
X0031097Y0162866D01*
X0031071Y0162952D01*
X0031049Y0163038D01*
X0031032Y0163125D01*
X0031018Y0163213D01*
X0031008Y0163302D01*
X0031002Y0163391D01*
X0031000Y0163480D01*
X0038202Y0153680D02*
X0039001Y0153680D01*
D12*
X0043267Y0148641D02*
X0042500Y0147874D01*
X0042500Y0144804D01*
X0043267Y0144037D01*
X0044802Y0144037D01*
X0045569Y0144804D01*
X0047104Y0144037D02*
X0050173Y0147106D01*
X0050173Y0147874D01*
X0049406Y0148641D01*
X0047871Y0148641D01*
X0047104Y0147874D01*
X0045569Y0147874D02*
X0044802Y0148641D01*
X0043267Y0148641D01*
X0047104Y0144037D02*
X0050173Y0144037D01*
X0065996Y0153037D02*
X0065996Y0155339D01*
X0066763Y0156106D01*
X0068298Y0156106D01*
X0069065Y0155339D01*
X0069065Y0153037D01*
X0069065Y0154572D02*
X0070600Y0156106D01*
X0070600Y0157641D02*
X0070600Y0160710D01*
X0070600Y0159176D02*
X0065996Y0159176D01*
X0067531Y0157641D01*
X0067531Y0162245D02*
X0065996Y0163779D01*
X0070600Y0163779D01*
X0070600Y0162245D02*
X0070600Y0165314D01*
X0070600Y0153037D02*
X0065996Y0153037D01*
X0065496Y0180037D02*
X0070100Y0180037D01*
X0070100Y0183106D01*
X0070100Y0184641D02*
X0070100Y0187710D01*
X0070100Y0189245D02*
X0070100Y0191547D01*
X0069333Y0192314D01*
X0066263Y0192314D01*
X0065496Y0191547D01*
X0065496Y0189245D01*
X0070100Y0189245D01*
X0067798Y0186176D02*
X0067798Y0184641D01*
X0065496Y0184641D02*
X0065496Y0187710D01*
X0065496Y0184641D02*
X0070100Y0184641D01*
X0070100Y0193849D02*
X0070100Y0196918D01*
X0070100Y0195383D02*
X0065496Y0195383D01*
X0067031Y0193849D01*
X0082500Y0192874D02*
X0082500Y0189804D01*
X0083267Y0189037D01*
X0084802Y0189037D01*
X0085569Y0189804D01*
X0087104Y0191339D02*
X0090173Y0191339D01*
X0089406Y0189037D02*
X0089406Y0193641D01*
X0087104Y0191339D01*
X0085569Y0192874D02*
X0084802Y0193641D01*
X0083267Y0193641D01*
X0082500Y0192874D01*
X0081263Y0211329D02*
X0084333Y0211329D01*
X0085100Y0212096D01*
X0085100Y0213631D01*
X0084333Y0214398D01*
X0084333Y0215933D02*
X0085100Y0216700D01*
X0085100Y0218235D01*
X0084333Y0219002D01*
X0083565Y0219002D01*
X0082798Y0218235D01*
X0082798Y0217468D01*
X0082798Y0218235D02*
X0082031Y0219002D01*
X0081263Y0219002D01*
X0080496Y0218235D01*
X0080496Y0216700D01*
X0081263Y0215933D01*
X0081263Y0214398D02*
X0080496Y0213631D01*
X0080496Y0212096D01*
X0081263Y0211329D01*
X0079010Y0222537D02*
X0077475Y0222537D01*
X0076708Y0223304D01*
X0076708Y0224839D01*
X0079010Y0224839D01*
X0079777Y0224072D01*
X0079777Y0223304D01*
X0079010Y0222537D01*
X0076708Y0224839D02*
X0078242Y0226374D01*
X0079777Y0227141D01*
X0075173Y0222537D02*
X0072104Y0222537D01*
X0073639Y0222537D02*
X0073639Y0227141D01*
X0072104Y0225606D01*
X0070569Y0224839D02*
X0069802Y0224072D01*
X0067500Y0224072D01*
X0069035Y0224072D02*
X0070569Y0222537D01*
X0070569Y0224839D02*
X0070569Y0226374D01*
X0069802Y0227141D01*
X0067500Y0227141D01*
X0067500Y0222537D01*
X0041100Y0210502D02*
X0041100Y0207433D01*
X0041100Y0208968D02*
X0036496Y0208968D01*
X0038031Y0207433D01*
X0036496Y0205898D02*
X0036496Y0204364D01*
X0036496Y0205131D02*
X0040333Y0205131D01*
X0041100Y0204364D01*
X0041100Y0203596D01*
X0040333Y0202829D01*
X0010931Y0135141D02*
X0010931Y0130537D01*
X0012465Y0130537D02*
X0009396Y0130537D01*
X0007861Y0131304D02*
X0007094Y0130537D01*
X0005559Y0130537D01*
X0004792Y0131304D01*
X0004792Y0134374D01*
X0005559Y0135141D01*
X0007094Y0135141D01*
X0007861Y0134374D01*
X0009396Y0133606D02*
X0010931Y0135141D01*
X0041996Y0106676D02*
X0046600Y0106676D01*
X0046600Y0108210D02*
X0046600Y0105141D01*
X0046600Y0103606D02*
X0045065Y0102072D01*
X0045065Y0102839D02*
X0045065Y0100537D01*
X0046600Y0100537D02*
X0041996Y0100537D01*
X0041996Y0102839D01*
X0042763Y0103606D01*
X0044298Y0103606D01*
X0045065Y0102839D01*
X0043531Y0105141D02*
X0041996Y0106676D01*
X0057996Y0106943D02*
X0057996Y0105408D01*
X0058763Y0104641D01*
X0058763Y0103106D02*
X0057996Y0102339D01*
X0057996Y0100037D01*
X0062600Y0100037D01*
X0061065Y0100037D02*
X0061065Y0102339D01*
X0060298Y0103106D01*
X0058763Y0103106D01*
X0061065Y0101572D02*
X0062600Y0103106D01*
X0062600Y0104641D02*
X0059531Y0107710D01*
X0058763Y0107710D01*
X0057996Y0106943D01*
X0062600Y0107710D02*
X0062600Y0104641D01*
X0073996Y0105408D02*
X0073996Y0106943D01*
X0074763Y0107710D01*
X0075531Y0107710D01*
X0076298Y0106943D01*
X0077065Y0107710D01*
X0077833Y0107710D01*
X0078600Y0106943D01*
X0078600Y0105408D01*
X0077833Y0104641D01*
X0078600Y0103106D02*
X0077065Y0101572D01*
X0077065Y0102339D02*
X0077065Y0100037D01*
X0078600Y0100037D02*
X0073996Y0100037D01*
X0073996Y0102339D01*
X0074763Y0103106D01*
X0076298Y0103106D01*
X0077065Y0102339D01*
X0074763Y0104641D02*
X0073996Y0105408D01*
X0076298Y0106176D02*
X0076298Y0106943D01*
X0089996Y0106943D02*
X0092298Y0104641D01*
X0092298Y0107710D01*
X0094600Y0106943D02*
X0089996Y0106943D01*
X0090763Y0103106D02*
X0089996Y0102339D01*
X0089996Y0100037D01*
X0094600Y0100037D01*
X0093065Y0100037D02*
X0093065Y0102339D01*
X0092298Y0103106D01*
X0090763Y0103106D01*
X0093065Y0101572D02*
X0094600Y0103106D01*
X0105996Y0102339D02*
X0105996Y0100037D01*
X0110600Y0100037D01*
X0109065Y0100037D02*
X0109065Y0102339D01*
X0108298Y0103106D01*
X0106763Y0103106D01*
X0105996Y0102339D01*
X0105996Y0104641D02*
X0108298Y0104641D01*
X0107531Y0106176D01*
X0107531Y0106943D01*
X0108298Y0107710D01*
X0109833Y0107710D01*
X0110600Y0106943D01*
X0110600Y0105408D01*
X0109833Y0104641D01*
X0110600Y0103106D02*
X0109065Y0101572D01*
X0105996Y0104641D02*
X0105996Y0107710D01*
X0121996Y0107710D02*
X0122763Y0106176D01*
X0124298Y0104641D01*
X0124298Y0106943D01*
X0125065Y0107710D01*
X0125833Y0107710D01*
X0126600Y0106943D01*
X0126600Y0105408D01*
X0125833Y0104641D01*
X0124298Y0104641D01*
X0124298Y0103106D02*
X0122763Y0103106D01*
X0121996Y0102339D01*
X0121996Y0100037D01*
X0126600Y0100037D01*
X0125065Y0100037D02*
X0125065Y0102339D01*
X0124298Y0103106D01*
X0125065Y0101572D02*
X0126600Y0103106D01*
X0137996Y0102339D02*
X0137996Y0100037D01*
X0142600Y0100037D01*
X0141065Y0100037D02*
X0141065Y0102339D01*
X0140298Y0103106D01*
X0138763Y0103106D01*
X0137996Y0102339D01*
X0137996Y0104641D02*
X0137996Y0107710D01*
X0138763Y0107710D01*
X0141833Y0104641D01*
X0142600Y0104641D01*
X0142600Y0103106D02*
X0141065Y0101572D01*
X0153996Y0102339D02*
X0153996Y0100037D01*
X0158600Y0100037D01*
X0157065Y0100037D02*
X0157065Y0102339D01*
X0156298Y0103106D01*
X0154763Y0103106D01*
X0153996Y0102339D01*
X0154763Y0104641D02*
X0155531Y0104641D01*
X0156298Y0105408D01*
X0156298Y0106943D01*
X0157065Y0107710D01*
X0157833Y0107710D01*
X0158600Y0106943D01*
X0158600Y0105408D01*
X0157833Y0104641D01*
X0157065Y0104641D01*
X0156298Y0105408D01*
X0156298Y0106943D02*
X0155531Y0107710D01*
X0154763Y0107710D01*
X0153996Y0106943D01*
X0153996Y0105408D01*
X0154763Y0104641D01*
X0157065Y0101572D02*
X0158600Y0103106D01*
X0169996Y0102339D02*
X0169996Y0100037D01*
X0174600Y0100037D01*
X0173065Y0100037D02*
X0173065Y0102339D01*
X0172298Y0103106D01*
X0170763Y0103106D01*
X0169996Y0102339D01*
X0170763Y0104641D02*
X0171531Y0104641D01*
X0172298Y0105408D01*
X0172298Y0107710D01*
X0170763Y0107710D02*
X0169996Y0106943D01*
X0169996Y0105408D01*
X0170763Y0104641D01*
X0170763Y0107710D02*
X0173833Y0107710D01*
X0174600Y0106943D01*
X0174600Y0105408D01*
X0173833Y0104641D01*
X0174600Y0103106D02*
X0173065Y0101572D01*
X0185996Y0102339D02*
X0185996Y0100037D01*
X0190600Y0100037D01*
X0189065Y0100037D02*
X0189065Y0102339D01*
X0188298Y0103106D01*
X0186763Y0103106D01*
X0185996Y0102339D01*
X0187531Y0104641D02*
X0185996Y0106176D01*
X0190600Y0106176D01*
X0190600Y0107710D02*
X0190600Y0104641D01*
X0190600Y0103106D02*
X0189065Y0101572D01*
X0189833Y0109245D02*
X0186763Y0109245D01*
X0185996Y0110012D01*
X0185996Y0111547D01*
X0186763Y0112314D01*
X0189833Y0109245D01*
X0190600Y0110012D01*
X0190600Y0111547D01*
X0189833Y0112314D01*
X0186763Y0112314D01*
X0125277Y0073339D02*
X0122208Y0073339D01*
X0124510Y0075641D01*
X0124510Y0071037D01*
X0120673Y0071037D02*
X0117604Y0071037D01*
X0119139Y0071037D02*
X0119139Y0075641D01*
X0117604Y0074106D01*
X0116069Y0073339D02*
X0115302Y0072572D01*
X0113000Y0072572D01*
X0114535Y0072572D02*
X0116069Y0071037D01*
X0116069Y0073339D02*
X0116069Y0074874D01*
X0115302Y0075641D01*
X0113000Y0075641D01*
X0113000Y0071037D01*
X0104698Y0060641D02*
X0105465Y0059874D01*
X0105465Y0059106D01*
X0104698Y0058339D01*
X0105465Y0057572D01*
X0105465Y0056804D01*
X0104698Y0056037D01*
X0103163Y0056037D01*
X0102396Y0056804D01*
X0100861Y0056037D02*
X0097792Y0056037D01*
X0096257Y0056037D02*
X0094723Y0057572D01*
X0095490Y0057572D02*
X0093188Y0057572D01*
X0093188Y0056037D02*
X0093188Y0060641D01*
X0095490Y0060641D01*
X0096257Y0059874D01*
X0096257Y0058339D01*
X0095490Y0057572D01*
X0097792Y0059106D02*
X0099327Y0060641D01*
X0099327Y0056037D01*
X0102396Y0059874D02*
X0103163Y0060641D01*
X0104698Y0060641D01*
X0104698Y0058339D02*
X0103931Y0058339D01*
X0105188Y0130537D02*
X0105188Y0135141D01*
X0107490Y0135141D01*
X0108257Y0134374D01*
X0108257Y0132839D01*
X0107490Y0132072D01*
X0105188Y0132072D01*
X0106723Y0132072D02*
X0108257Y0130537D01*
X0109792Y0130537D02*
X0112861Y0130537D01*
X0111327Y0130537D02*
X0111327Y0135141D01*
X0109792Y0133606D01*
X0114396Y0133606D02*
X0114396Y0134374D01*
X0115163Y0135141D01*
X0116698Y0135141D01*
X0117465Y0134374D01*
X0117465Y0133606D01*
X0116698Y0132839D01*
X0115163Y0132839D01*
X0114396Y0133606D01*
X0115163Y0132839D02*
X0114396Y0132072D01*
X0114396Y0131304D01*
X0115163Y0130537D01*
X0116698Y0130537D01*
X0117465Y0131304D01*
X0117465Y0132072D01*
X0116698Y0132839D01*
X0115996Y0176725D02*
X0115996Y0179027D01*
X0116763Y0179794D01*
X0118298Y0179794D01*
X0119065Y0179027D01*
X0119065Y0176725D01*
X0119065Y0178260D02*
X0120600Y0179794D01*
X0120600Y0181329D02*
X0120600Y0184398D01*
X0120600Y0182864D02*
X0115996Y0182864D01*
X0117531Y0181329D01*
X0115996Y0176725D02*
X0120600Y0176725D01*
X0120600Y0185933D02*
X0117531Y0189002D01*
X0116763Y0189002D01*
X0115996Y0188235D01*
X0115996Y0186700D01*
X0116763Y0185933D01*
X0120600Y0185933D02*
X0120600Y0189002D01*
X0108896Y0210037D02*
X0108896Y0210804D01*
X0111965Y0213874D01*
X0111965Y0214641D01*
X0108896Y0214641D01*
X0105827Y0214641D02*
X0105827Y0210037D01*
X0107361Y0210037D02*
X0104292Y0210037D01*
X0102757Y0210037D02*
X0101223Y0211572D01*
X0101990Y0211572D02*
X0099688Y0211572D01*
X0099688Y0210037D02*
X0099688Y0214641D01*
X0101990Y0214641D01*
X0102757Y0213874D01*
X0102757Y0212339D01*
X0101990Y0211572D01*
X0104292Y0213106D02*
X0105827Y0214641D01*
X0042777Y0075141D02*
X0039708Y0075141D01*
X0039708Y0072839D01*
X0041242Y0073606D01*
X0042010Y0073606D01*
X0042777Y0072839D01*
X0042777Y0071304D01*
X0042010Y0070537D01*
X0040475Y0070537D01*
X0039708Y0071304D01*
X0038173Y0070537D02*
X0035104Y0070537D01*
X0036639Y0070537D02*
X0036639Y0075141D01*
X0035104Y0073606D01*
X0033569Y0072839D02*
X0032802Y0072072D01*
X0030500Y0072072D01*
X0032035Y0072072D02*
X0033569Y0070537D01*
X0033569Y0072839D02*
X0033569Y0074374D01*
X0032802Y0075141D01*
X0030500Y0075141D01*
X0030500Y0070537D01*
D13*
X0042300Y0159837D02*
X0042300Y0164837D01*
X0042300Y0179837D02*
X0042300Y0184837D01*
X0044800Y0182337D02*
X0039800Y0182337D01*
D14*
X0028426Y0040770D02*
X0028426Y0032896D01*
X0032757Y0032896D01*
X0032757Y0040376D01*
X0028426Y0040770D02*
X0028426Y0076597D01*
X0094174Y0076597D01*
X0094174Y0040770D01*
X0028426Y0040770D01*
X0028426Y0048644D02*
X0094174Y0048644D01*
X0107426Y0048644D02*
X0173174Y0048644D01*
X0173174Y0040770D02*
X0173174Y0076597D01*
X0107426Y0076597D01*
X0107426Y0040770D01*
X0107426Y0032896D01*
X0111757Y0032896D01*
X0111757Y0040376D01*
X0107426Y0040770D02*
X0173174Y0040770D01*
X0153686Y0040376D02*
X0153686Y0016361D01*
X0151717Y0015180D01*
X0128883Y0015180D01*
X0126914Y0016361D01*
X0126914Y0040376D01*
X0127308Y0037522D02*
X0153292Y0039589D01*
X0153292Y0037620D02*
X0127308Y0035554D01*
X0127308Y0033585D02*
X0153292Y0035652D01*
X0153292Y0033683D02*
X0127308Y0031617D01*
X0127308Y0029648D02*
X0153292Y0031715D01*
X0153292Y0029746D02*
X0127308Y0027680D01*
X0127308Y0025711D02*
X0153292Y0027778D01*
X0153292Y0025809D02*
X0127308Y0023743D01*
X0127308Y0021774D02*
X0153292Y0023841D01*
X0153292Y0021872D02*
X0127308Y0019806D01*
X0127308Y0017837D02*
X0153292Y0019904D01*
X0153292Y0017935D02*
X0128194Y0015869D01*
X0128883Y0015180D02*
X0128883Y0001400D01*
X0151717Y0001400D01*
X0151717Y0015180D01*
X0074686Y0016361D02*
X0074686Y0040376D01*
X0074292Y0039589D02*
X0048308Y0037522D01*
X0048308Y0035554D02*
X0074292Y0037620D01*
X0074292Y0035652D02*
X0048308Y0033585D01*
X0048308Y0031617D02*
X0074292Y0033683D01*
X0074292Y0031715D02*
X0048308Y0029648D01*
X0048308Y0027680D02*
X0074292Y0029746D01*
X0074292Y0027778D02*
X0048308Y0025711D01*
X0048308Y0023743D02*
X0074292Y0025809D01*
X0074292Y0023841D02*
X0048308Y0021774D01*
X0048308Y0019806D02*
X0074292Y0021872D01*
X0074292Y0019904D02*
X0048308Y0017837D01*
X0047914Y0016361D02*
X0049883Y0015180D01*
X0072717Y0015180D01*
X0074686Y0016361D01*
X0074292Y0017935D02*
X0049194Y0015869D01*
X0049883Y0015180D02*
X0049883Y0001400D01*
X0072717Y0001400D01*
X0072717Y0015180D01*
X0047914Y0016361D02*
X0047914Y0040376D01*
X0035200Y0104337D02*
X0009400Y0104337D01*
X0009400Y0117337D01*
X0035200Y0117337D01*
X0035200Y0104337D01*
X0040897Y0168237D02*
X0040196Y0168938D01*
X0040196Y0170339D01*
X0040897Y0171039D01*
X0043699Y0171039D01*
X0044400Y0170339D01*
X0044400Y0168938D01*
X0043699Y0168237D01*
X0042298Y0168938D02*
X0042298Y0171039D01*
X0042999Y0172841D02*
X0044400Y0174242D01*
X0042999Y0175643D01*
X0040196Y0175643D01*
X0040196Y0172841D02*
X0042999Y0172841D01*
X0042298Y0168938D02*
X0041598Y0168237D01*
X0040897Y0168237D01*
D15*
X0038048Y0196042D02*
X0031552Y0196042D01*
X0031552Y0198010D01*
X0038048Y0198010D01*
X0036552Y0203916D02*
X0063048Y0203916D01*
X0063048Y0198010D01*
X0056552Y0198010D01*
X0056552Y0196042D02*
X0063048Y0196042D01*
X0063048Y0198010D01*
X0063048Y0203916D02*
X0065017Y0203916D01*
X0065017Y0251160D01*
X0059898Y0251160D01*
X0059898Y0247223D01*
X0059898Y0243286D02*
X0059898Y0239349D01*
X0059898Y0235412D02*
X0059898Y0231475D01*
X0059898Y0227538D02*
X0059898Y0223601D01*
X0059898Y0219664D02*
X0059898Y0215727D01*
X0057536Y0215727D01*
X0053599Y0215727D02*
X0051237Y0215727D01*
X0043363Y0215727D01*
X0041001Y0215727D01*
X0037064Y0215727D02*
X0034702Y0215727D01*
X0034702Y0219664D01*
X0034702Y0223601D02*
X0034702Y0227538D01*
X0034702Y0231475D02*
X0034702Y0235412D01*
X0034702Y0239349D02*
X0034702Y0243286D01*
X0034702Y0247223D02*
X0034702Y0251160D01*
X0059898Y0251160D01*
X0063048Y0237380D02*
X0063048Y0203916D01*
X0063048Y0237380D02*
X0065017Y0237380D01*
X0063048Y0237380D02*
X0029583Y0237380D01*
X0029583Y0251160D02*
X0029583Y0218916D01*
X0043363Y0243286D02*
X0043365Y0243410D01*
X0043371Y0243533D01*
X0043380Y0243657D01*
X0043394Y0243779D01*
X0043411Y0243902D01*
X0043433Y0244024D01*
X0043458Y0244145D01*
X0043487Y0244265D01*
X0043519Y0244384D01*
X0043556Y0244503D01*
X0043596Y0244620D01*
X0043639Y0244735D01*
X0043687Y0244850D01*
X0043738Y0244962D01*
X0043792Y0245073D01*
X0043850Y0245183D01*
X0043911Y0245290D01*
X0043976Y0245396D01*
X0044044Y0245499D01*
X0044115Y0245600D01*
X0044189Y0245699D01*
X0044266Y0245796D01*
X0044347Y0245890D01*
X0044430Y0245981D01*
X0044516Y0246070D01*
X0044605Y0246156D01*
X0044696Y0246239D01*
X0044790Y0246320D01*
X0044887Y0246397D01*
X0044986Y0246471D01*
X0045087Y0246542D01*
X0045190Y0246610D01*
X0045296Y0246675D01*
X0045403Y0246736D01*
X0045513Y0246794D01*
X0045624Y0246848D01*
X0045736Y0246899D01*
X0045851Y0246947D01*
X0045966Y0246990D01*
X0046083Y0247030D01*
X0046202Y0247067D01*
X0046321Y0247099D01*
X0046441Y0247128D01*
X0046562Y0247153D01*
X0046684Y0247175D01*
X0046807Y0247192D01*
X0046929Y0247206D01*
X0047053Y0247215D01*
X0047176Y0247221D01*
X0047300Y0247223D01*
X0047424Y0247221D01*
X0047547Y0247215D01*
X0047671Y0247206D01*
X0047793Y0247192D01*
X0047916Y0247175D01*
X0048038Y0247153D01*
X0048159Y0247128D01*
X0048279Y0247099D01*
X0048398Y0247067D01*
X0048517Y0247030D01*
X0048634Y0246990D01*
X0048749Y0246947D01*
X0048864Y0246899D01*
X0048976Y0246848D01*
X0049087Y0246794D01*
X0049197Y0246736D01*
X0049304Y0246675D01*
X0049410Y0246610D01*
X0049513Y0246542D01*
X0049614Y0246471D01*
X0049713Y0246397D01*
X0049810Y0246320D01*
X0049904Y0246239D01*
X0049995Y0246156D01*
X0050084Y0246070D01*
X0050170Y0245981D01*
X0050253Y0245890D01*
X0050334Y0245796D01*
X0050411Y0245699D01*
X0050485Y0245600D01*
X0050556Y0245499D01*
X0050624Y0245396D01*
X0050689Y0245290D01*
X0050750Y0245183D01*
X0050808Y0245073D01*
X0050862Y0244962D01*
X0050913Y0244850D01*
X0050961Y0244735D01*
X0051004Y0244620D01*
X0051044Y0244503D01*
X0051081Y0244384D01*
X0051113Y0244265D01*
X0051142Y0244145D01*
X0051167Y0244024D01*
X0051189Y0243902D01*
X0051206Y0243779D01*
X0051220Y0243657D01*
X0051229Y0243533D01*
X0051235Y0243410D01*
X0051237Y0243286D01*
X0034702Y0251160D02*
X0029583Y0251160D01*
X0081957Y0165337D02*
X0081957Y0153132D01*
X0101643Y0160928D02*
X0101643Y0169746D01*
D16*
X0075662Y0189928D03*
X0070938Y0189928D03*
D17*
X0073300Y0189928D03*
D18*
X0106346Y0220338D02*
X0106346Y0221839D01*
X0107097Y0222590D01*
X0110099Y0222590D01*
X0110850Y0221839D01*
X0110850Y0220338D01*
X0110099Y0219587D01*
X0107097Y0219587D01*
X0106346Y0220338D01*
X0107847Y0224191D02*
X0106346Y0225692D01*
X0110850Y0225692D01*
X0110850Y0224191D02*
X0110850Y0227193D01*
X0110850Y0222590D02*
X0109349Y0221088D01*
X0145273Y0194591D02*
X0145273Y0191588D01*
X0146774Y0190087D01*
X0148275Y0191588D01*
X0148275Y0194591D01*
X0149877Y0194591D02*
X0151378Y0194591D01*
X0150627Y0194591D02*
X0150627Y0190087D01*
X0149877Y0190087D02*
X0151378Y0190087D01*
X0152946Y0190087D02*
X0152946Y0194591D01*
X0155949Y0190087D01*
X0155949Y0194591D01*
X0170046Y0188496D02*
X0170046Y0186995D01*
X0170797Y0186244D01*
X0170046Y0188496D02*
X0170797Y0189247D01*
X0171547Y0189247D01*
X0174550Y0186244D01*
X0174550Y0189247D01*
X0174550Y0169747D02*
X0174550Y0166744D01*
X0174550Y0168246D02*
X0170046Y0168246D01*
X0171547Y0166744D01*
X0159449Y0168591D02*
X0156446Y0168591D01*
X0157947Y0168591D02*
X0157947Y0164087D01*
X0154845Y0164838D02*
X0154845Y0168591D01*
X0151842Y0168591D02*
X0151842Y0164838D01*
X0152593Y0164087D01*
X0154094Y0164087D01*
X0154845Y0164838D01*
X0150241Y0164838D02*
X0150241Y0167840D01*
X0149490Y0168591D01*
X0147989Y0168591D01*
X0147238Y0167840D01*
X0147238Y0164838D01*
X0147989Y0164087D01*
X0149490Y0164087D01*
X0150241Y0164838D01*
X0145637Y0165588D02*
X0145637Y0168591D01*
X0145637Y0165588D02*
X0144136Y0164087D01*
X0142634Y0165588D01*
X0142634Y0168591D01*
X0143385Y0155091D02*
X0142634Y0154340D01*
X0142634Y0153590D01*
X0143385Y0152839D01*
X0144886Y0152839D01*
X0145637Y0152088D01*
X0145637Y0151338D01*
X0144886Y0150587D01*
X0143385Y0150587D01*
X0142634Y0151338D01*
X0141033Y0152088D02*
X0141033Y0155091D01*
X0143385Y0155091D02*
X0144886Y0155091D01*
X0145637Y0154340D01*
X0147238Y0155091D02*
X0147238Y0150587D01*
X0150241Y0150587D01*
X0151842Y0150587D02*
X0151842Y0155091D01*
X0154845Y0150587D01*
X0154845Y0155091D01*
X0156446Y0154340D02*
X0156446Y0153590D01*
X0157197Y0152839D01*
X0158698Y0152839D01*
X0159449Y0152088D01*
X0159449Y0151338D01*
X0158698Y0150587D01*
X0157197Y0150587D01*
X0156446Y0151338D01*
X0156446Y0154340D02*
X0157197Y0155091D01*
X0158698Y0155091D01*
X0159449Y0154340D01*
X0150241Y0155091D02*
X0147238Y0155091D01*
X0147238Y0152839D02*
X0148739Y0152839D01*
X0141033Y0152088D02*
X0139532Y0150587D01*
X0138030Y0152088D01*
X0138030Y0155091D01*
X0146989Y0128091D02*
X0146238Y0127340D01*
X0146238Y0124338D01*
X0146989Y0123587D01*
X0148490Y0123587D01*
X0149241Y0124338D01*
X0149241Y0125839D01*
X0147739Y0125839D01*
X0149241Y0127340D02*
X0148490Y0128091D01*
X0146989Y0128091D01*
X0150842Y0128091D02*
X0153845Y0123587D01*
X0153845Y0128091D01*
X0155446Y0128091D02*
X0157698Y0128091D01*
X0158449Y0127340D01*
X0158449Y0124338D01*
X0157698Y0123587D01*
X0155446Y0123587D01*
X0155446Y0128091D01*
X0150842Y0128091D02*
X0150842Y0123587D01*
X0170046Y0128246D02*
X0174550Y0128246D01*
X0174550Y0129747D02*
X0174550Y0126744D01*
X0171547Y0126744D02*
X0170046Y0128246D01*
X0170797Y0146244D02*
X0170046Y0146995D01*
X0170046Y0148496D01*
X0170797Y0149247D01*
X0171547Y0149247D01*
X0174550Y0146244D01*
X0174550Y0149247D01*
X0192246Y0136300D02*
X0192246Y0134799D01*
X0192997Y0134048D01*
X0192246Y0132447D02*
X0196750Y0129444D01*
X0196750Y0132447D02*
X0192246Y0129444D01*
X0196750Y0134048D02*
X0193747Y0137051D01*
X0192997Y0137051D01*
X0192246Y0136300D01*
X0196750Y0137051D02*
X0196750Y0134048D01*
X0196750Y0169444D02*
X0192246Y0172447D01*
X0193747Y0174048D02*
X0192246Y0175550D01*
X0196750Y0175550D01*
X0196750Y0177051D02*
X0196750Y0174048D01*
X0196750Y0172447D02*
X0192246Y0169444D01*
X0031550Y0170328D02*
X0031550Y0167326D01*
X0028547Y0170328D01*
X0027797Y0170328D01*
X0027046Y0169578D01*
X0027046Y0168076D01*
X0027797Y0167326D01*
X0028547Y0186826D02*
X0027046Y0188327D01*
X0031550Y0188327D01*
X0031550Y0186826D02*
X0031550Y0189828D01*
X0020064Y0207287D02*
X0018563Y0208788D01*
X0019314Y0208788D02*
X0017062Y0208788D01*
X0017062Y0207287D02*
X0017062Y0211791D01*
X0019314Y0211791D01*
X0020064Y0211040D01*
X0020064Y0209539D01*
X0019314Y0208788D01*
X0015460Y0207287D02*
X0015460Y0211791D01*
X0012458Y0211791D02*
X0012458Y0207287D01*
X0013959Y0208788D01*
X0015460Y0207287D01*
X0010856Y0209539D02*
X0010106Y0208788D01*
X0007854Y0208788D01*
X0007854Y0207287D02*
X0007854Y0211791D01*
X0010106Y0211791D01*
X0010856Y0211040D01*
X0010856Y0209539D01*
X0006253Y0208788D02*
X0006253Y0208038D01*
X0005502Y0207287D01*
X0004001Y0207287D01*
X0003250Y0208038D01*
X0004001Y0209539D02*
X0005502Y0209539D01*
X0006253Y0208788D01*
X0006253Y0211040D02*
X0005502Y0211791D01*
X0004001Y0211791D01*
X0003250Y0211040D01*
X0003250Y0210290D01*
X0004001Y0209539D01*
X0005597Y0187128D02*
X0006347Y0187128D01*
X0007098Y0186378D01*
X0007849Y0187128D01*
X0008599Y0187128D01*
X0009350Y0186378D01*
X0009350Y0184876D01*
X0008599Y0184126D01*
X0009350Y0182524D02*
X0004846Y0179522D01*
X0004846Y0182524D02*
X0009350Y0179522D01*
X0005597Y0184126D02*
X0004846Y0184876D01*
X0004846Y0186378D01*
X0005597Y0187128D01*
X0007098Y0186378D02*
X0007098Y0185627D01*
D19*
X0022653Y0093038D02*
X0022653Y0091787D01*
X0022904Y0091537D01*
X0023404Y0091537D01*
X0023654Y0091787D01*
X0023654Y0093038D01*
X0024127Y0092788D02*
X0024377Y0093038D01*
X0024877Y0093038D01*
X0025128Y0092788D01*
X0025128Y0092538D01*
X0024127Y0091537D01*
X0025128Y0091537D01*
X0090943Y0164796D02*
X0091303Y0164796D01*
X0091484Y0164977D01*
X0091484Y0165878D01*
X0091850Y0165518D02*
X0092211Y0165878D01*
X0092211Y0164796D01*
X0092571Y0164796D02*
X0091850Y0164796D01*
X0090943Y0164796D02*
X0090762Y0164977D01*
X0090762Y0165878D01*
D20*
X0115600Y0219237D03*
D21*
X0133300Y0232337D03*
D22*
X0150550Y0229837D03*
X0116050Y0229837D03*
D23*
X0128300Y0229837D03*
X0138300Y0229837D03*
D24*
X0166643Y0213668D03*
X0166643Y0213274D03*
X0166643Y0212880D03*
X0166643Y0212487D03*
X0166249Y0211699D03*
X0165461Y0209337D03*
D25*
X0165658Y0209731D03*
X0166839Y0227054D03*
D26*
X0168217Y0226660D03*
X0165855Y0210518D03*
X0165855Y0210124D03*
D27*
X0166052Y0210912D03*
X0166052Y0211306D03*
X0166446Y0212093D03*
D28*
X0166839Y0214061D03*
D29*
X0166643Y0214455D03*
X0166643Y0214849D03*
X0166643Y0215243D03*
X0166643Y0215636D03*
X0166643Y0216030D03*
X0166643Y0216424D03*
D30*
X0166643Y0216817D03*
D31*
X0168020Y0217211D03*
X0161721Y0225872D03*
X0160934Y0225479D03*
X0160540Y0225085D03*
X0160146Y0224691D03*
X0159753Y0224298D03*
X0159359Y0223904D03*
X0158965Y0223510D03*
X0158572Y0222723D03*
X0158178Y0222329D03*
X0157784Y0221542D03*
X0157784Y0221148D03*
X0157784Y0219967D03*
D32*
X0162509Y0218786D03*
D33*
X0163887Y0219180D03*
X0166643Y0219967D03*
X0168217Y0223904D03*
D34*
X0164477Y0219573D03*
D35*
X0158769Y0223117D03*
X0157981Y0221935D03*
X0157587Y0220754D03*
X0157587Y0220361D03*
D36*
X0167036Y0220361D03*
X0168217Y0223117D03*
D37*
X0168020Y0222723D03*
X0168020Y0222329D03*
X0167627Y0221148D03*
X0167233Y0220754D03*
D38*
X0167824Y0221542D03*
X0167824Y0221935D03*
D39*
X0168020Y0223510D03*
D40*
X0168217Y0224298D03*
D41*
X0168217Y0224691D03*
D42*
X0168217Y0225085D03*
D43*
X0168217Y0225479D03*
D44*
X0168217Y0225872D03*
D45*
X0163099Y0226660D03*
X0162312Y0226266D03*
D46*
X0168217Y0226266D03*
D47*
X0166839Y0227447D03*
M02*
