G75*
%MOIN*%
%OFA0B0*%
%FSLAX25Y25*%
%IPPOS*%
%LPD*%
%AMOC8*
5,1,8,0,0,1.08239X$1,22.5*
%
%ADD10C,0.00000*%
%ADD11OC8,0.12400*%
%ADD12C,0.08600*%
%ADD13C,0.07800*%
%ADD14C,0.07050*%
%ADD15C,0.06000*%
%ADD16C,0.08600*%
%ADD17R,0.11811X0.00787*%
%ADD18R,0.14173X0.00787*%
%ADD19R,0.13386X0.00787*%
%ADD20R,0.12598X0.00787*%
%ADD21R,0.11024X0.00787*%
%ADD22R,0.10236X0.00787*%
%ADD23R,0.08661X0.00787*%
%ADD24R,0.03150X0.00787*%
%ADD25R,0.17323X0.00787*%
%ADD26R,0.25984X0.00787*%
%ADD27R,0.29921X0.00787*%
%ADD28R,0.02362X0.00787*%
%ADD29R,0.27559X0.00787*%
%ADD30R,0.28346X0.00787*%
%ADD31R,0.29134X0.00787*%
%ADD32R,0.26772X0.00787*%
%ADD33R,0.24409X0.00787*%
%ADD34R,0.22835X0.00787*%
%ADD35R,0.21260X0.00787*%
%ADD36R,0.19685X0.00787*%
%ADD37R,0.18110X0.00787*%
%ADD38R,0.03937X0.00787*%
%ADD39R,0.14961X0.00787*%
%ADD40R,0.09449X0.00787*%
%ADD41C,0.02400*%
%ADD42C,0.03562*%
%ADD43C,0.05906*%
%ADD44C,0.04000*%
%ADD45C,0.10000*%
%ADD46C,0.03200*%
D10*
X0002300Y0040837D02*
X0199150Y0040837D01*
X0199150Y0237687D01*
X0002300Y0237687D01*
X0002300Y0040837D01*
X0007812Y0052648D02*
X0007814Y0052806D01*
X0007820Y0052964D01*
X0007830Y0053122D01*
X0007844Y0053280D01*
X0007862Y0053437D01*
X0007883Y0053594D01*
X0007909Y0053750D01*
X0007939Y0053906D01*
X0007972Y0054061D01*
X0008010Y0054214D01*
X0008051Y0054367D01*
X0008096Y0054519D01*
X0008145Y0054670D01*
X0008198Y0054819D01*
X0008254Y0054967D01*
X0008314Y0055113D01*
X0008378Y0055258D01*
X0008446Y0055401D01*
X0008517Y0055543D01*
X0008591Y0055683D01*
X0008669Y0055820D01*
X0008751Y0055956D01*
X0008835Y0056090D01*
X0008924Y0056221D01*
X0009015Y0056350D01*
X0009110Y0056477D01*
X0009207Y0056602D01*
X0009308Y0056724D01*
X0009412Y0056843D01*
X0009519Y0056960D01*
X0009629Y0057074D01*
X0009742Y0057185D01*
X0009857Y0057294D01*
X0009975Y0057399D01*
X0010096Y0057501D01*
X0010219Y0057601D01*
X0010345Y0057697D01*
X0010473Y0057790D01*
X0010603Y0057880D01*
X0010736Y0057966D01*
X0010871Y0058050D01*
X0011007Y0058129D01*
X0011146Y0058206D01*
X0011287Y0058278D01*
X0011429Y0058348D01*
X0011573Y0058413D01*
X0011719Y0058475D01*
X0011866Y0058533D01*
X0012015Y0058588D01*
X0012165Y0058639D01*
X0012316Y0058686D01*
X0012468Y0058729D01*
X0012621Y0058768D01*
X0012776Y0058804D01*
X0012931Y0058835D01*
X0013087Y0058863D01*
X0013243Y0058887D01*
X0013400Y0058907D01*
X0013558Y0058923D01*
X0013715Y0058935D01*
X0013874Y0058943D01*
X0014032Y0058947D01*
X0014190Y0058947D01*
X0014348Y0058943D01*
X0014507Y0058935D01*
X0014664Y0058923D01*
X0014822Y0058907D01*
X0014979Y0058887D01*
X0015135Y0058863D01*
X0015291Y0058835D01*
X0015446Y0058804D01*
X0015601Y0058768D01*
X0015754Y0058729D01*
X0015906Y0058686D01*
X0016057Y0058639D01*
X0016207Y0058588D01*
X0016356Y0058533D01*
X0016503Y0058475D01*
X0016649Y0058413D01*
X0016793Y0058348D01*
X0016935Y0058278D01*
X0017076Y0058206D01*
X0017215Y0058129D01*
X0017351Y0058050D01*
X0017486Y0057966D01*
X0017619Y0057880D01*
X0017749Y0057790D01*
X0017877Y0057697D01*
X0018003Y0057601D01*
X0018126Y0057501D01*
X0018247Y0057399D01*
X0018365Y0057294D01*
X0018480Y0057185D01*
X0018593Y0057074D01*
X0018703Y0056960D01*
X0018810Y0056843D01*
X0018914Y0056724D01*
X0019015Y0056602D01*
X0019112Y0056477D01*
X0019207Y0056350D01*
X0019298Y0056221D01*
X0019387Y0056090D01*
X0019471Y0055956D01*
X0019553Y0055820D01*
X0019631Y0055683D01*
X0019705Y0055543D01*
X0019776Y0055401D01*
X0019844Y0055258D01*
X0019908Y0055113D01*
X0019968Y0054967D01*
X0020024Y0054819D01*
X0020077Y0054670D01*
X0020126Y0054519D01*
X0020171Y0054367D01*
X0020212Y0054214D01*
X0020250Y0054061D01*
X0020283Y0053906D01*
X0020313Y0053750D01*
X0020339Y0053594D01*
X0020360Y0053437D01*
X0020378Y0053280D01*
X0020392Y0053122D01*
X0020402Y0052964D01*
X0020408Y0052806D01*
X0020410Y0052648D01*
X0020408Y0052490D01*
X0020402Y0052332D01*
X0020392Y0052174D01*
X0020378Y0052016D01*
X0020360Y0051859D01*
X0020339Y0051702D01*
X0020313Y0051546D01*
X0020283Y0051390D01*
X0020250Y0051235D01*
X0020212Y0051082D01*
X0020171Y0050929D01*
X0020126Y0050777D01*
X0020077Y0050626D01*
X0020024Y0050477D01*
X0019968Y0050329D01*
X0019908Y0050183D01*
X0019844Y0050038D01*
X0019776Y0049895D01*
X0019705Y0049753D01*
X0019631Y0049613D01*
X0019553Y0049476D01*
X0019471Y0049340D01*
X0019387Y0049206D01*
X0019298Y0049075D01*
X0019207Y0048946D01*
X0019112Y0048819D01*
X0019015Y0048694D01*
X0018914Y0048572D01*
X0018810Y0048453D01*
X0018703Y0048336D01*
X0018593Y0048222D01*
X0018480Y0048111D01*
X0018365Y0048002D01*
X0018247Y0047897D01*
X0018126Y0047795D01*
X0018003Y0047695D01*
X0017877Y0047599D01*
X0017749Y0047506D01*
X0017619Y0047416D01*
X0017486Y0047330D01*
X0017351Y0047246D01*
X0017215Y0047167D01*
X0017076Y0047090D01*
X0016935Y0047018D01*
X0016793Y0046948D01*
X0016649Y0046883D01*
X0016503Y0046821D01*
X0016356Y0046763D01*
X0016207Y0046708D01*
X0016057Y0046657D01*
X0015906Y0046610D01*
X0015754Y0046567D01*
X0015601Y0046528D01*
X0015446Y0046492D01*
X0015291Y0046461D01*
X0015135Y0046433D01*
X0014979Y0046409D01*
X0014822Y0046389D01*
X0014664Y0046373D01*
X0014507Y0046361D01*
X0014348Y0046353D01*
X0014190Y0046349D01*
X0014032Y0046349D01*
X0013874Y0046353D01*
X0013715Y0046361D01*
X0013558Y0046373D01*
X0013400Y0046389D01*
X0013243Y0046409D01*
X0013087Y0046433D01*
X0012931Y0046461D01*
X0012776Y0046492D01*
X0012621Y0046528D01*
X0012468Y0046567D01*
X0012316Y0046610D01*
X0012165Y0046657D01*
X0012015Y0046708D01*
X0011866Y0046763D01*
X0011719Y0046821D01*
X0011573Y0046883D01*
X0011429Y0046948D01*
X0011287Y0047018D01*
X0011146Y0047090D01*
X0011007Y0047167D01*
X0010871Y0047246D01*
X0010736Y0047330D01*
X0010603Y0047416D01*
X0010473Y0047506D01*
X0010345Y0047599D01*
X0010219Y0047695D01*
X0010096Y0047795D01*
X0009975Y0047897D01*
X0009857Y0048002D01*
X0009742Y0048111D01*
X0009629Y0048222D01*
X0009519Y0048336D01*
X0009412Y0048453D01*
X0009308Y0048572D01*
X0009207Y0048694D01*
X0009110Y0048819D01*
X0009015Y0048946D01*
X0008924Y0049075D01*
X0008835Y0049206D01*
X0008751Y0049340D01*
X0008669Y0049476D01*
X0008591Y0049613D01*
X0008517Y0049753D01*
X0008446Y0049895D01*
X0008378Y0050038D01*
X0008314Y0050183D01*
X0008254Y0050329D01*
X0008198Y0050477D01*
X0008145Y0050626D01*
X0008096Y0050777D01*
X0008051Y0050929D01*
X0008010Y0051082D01*
X0007972Y0051235D01*
X0007939Y0051390D01*
X0007909Y0051546D01*
X0007883Y0051702D01*
X0007862Y0051859D01*
X0007844Y0052016D01*
X0007830Y0052174D01*
X0007820Y0052332D01*
X0007814Y0052490D01*
X0007812Y0052648D01*
X0007812Y0225876D02*
X0007814Y0226034D01*
X0007820Y0226192D01*
X0007830Y0226350D01*
X0007844Y0226508D01*
X0007862Y0226665D01*
X0007883Y0226822D01*
X0007909Y0226978D01*
X0007939Y0227134D01*
X0007972Y0227289D01*
X0008010Y0227442D01*
X0008051Y0227595D01*
X0008096Y0227747D01*
X0008145Y0227898D01*
X0008198Y0228047D01*
X0008254Y0228195D01*
X0008314Y0228341D01*
X0008378Y0228486D01*
X0008446Y0228629D01*
X0008517Y0228771D01*
X0008591Y0228911D01*
X0008669Y0229048D01*
X0008751Y0229184D01*
X0008835Y0229318D01*
X0008924Y0229449D01*
X0009015Y0229578D01*
X0009110Y0229705D01*
X0009207Y0229830D01*
X0009308Y0229952D01*
X0009412Y0230071D01*
X0009519Y0230188D01*
X0009629Y0230302D01*
X0009742Y0230413D01*
X0009857Y0230522D01*
X0009975Y0230627D01*
X0010096Y0230729D01*
X0010219Y0230829D01*
X0010345Y0230925D01*
X0010473Y0231018D01*
X0010603Y0231108D01*
X0010736Y0231194D01*
X0010871Y0231278D01*
X0011007Y0231357D01*
X0011146Y0231434D01*
X0011287Y0231506D01*
X0011429Y0231576D01*
X0011573Y0231641D01*
X0011719Y0231703D01*
X0011866Y0231761D01*
X0012015Y0231816D01*
X0012165Y0231867D01*
X0012316Y0231914D01*
X0012468Y0231957D01*
X0012621Y0231996D01*
X0012776Y0232032D01*
X0012931Y0232063D01*
X0013087Y0232091D01*
X0013243Y0232115D01*
X0013400Y0232135D01*
X0013558Y0232151D01*
X0013715Y0232163D01*
X0013874Y0232171D01*
X0014032Y0232175D01*
X0014190Y0232175D01*
X0014348Y0232171D01*
X0014507Y0232163D01*
X0014664Y0232151D01*
X0014822Y0232135D01*
X0014979Y0232115D01*
X0015135Y0232091D01*
X0015291Y0232063D01*
X0015446Y0232032D01*
X0015601Y0231996D01*
X0015754Y0231957D01*
X0015906Y0231914D01*
X0016057Y0231867D01*
X0016207Y0231816D01*
X0016356Y0231761D01*
X0016503Y0231703D01*
X0016649Y0231641D01*
X0016793Y0231576D01*
X0016935Y0231506D01*
X0017076Y0231434D01*
X0017215Y0231357D01*
X0017351Y0231278D01*
X0017486Y0231194D01*
X0017619Y0231108D01*
X0017749Y0231018D01*
X0017877Y0230925D01*
X0018003Y0230829D01*
X0018126Y0230729D01*
X0018247Y0230627D01*
X0018365Y0230522D01*
X0018480Y0230413D01*
X0018593Y0230302D01*
X0018703Y0230188D01*
X0018810Y0230071D01*
X0018914Y0229952D01*
X0019015Y0229830D01*
X0019112Y0229705D01*
X0019207Y0229578D01*
X0019298Y0229449D01*
X0019387Y0229318D01*
X0019471Y0229184D01*
X0019553Y0229048D01*
X0019631Y0228911D01*
X0019705Y0228771D01*
X0019776Y0228629D01*
X0019844Y0228486D01*
X0019908Y0228341D01*
X0019968Y0228195D01*
X0020024Y0228047D01*
X0020077Y0227898D01*
X0020126Y0227747D01*
X0020171Y0227595D01*
X0020212Y0227442D01*
X0020250Y0227289D01*
X0020283Y0227134D01*
X0020313Y0226978D01*
X0020339Y0226822D01*
X0020360Y0226665D01*
X0020378Y0226508D01*
X0020392Y0226350D01*
X0020402Y0226192D01*
X0020408Y0226034D01*
X0020410Y0225876D01*
X0020408Y0225718D01*
X0020402Y0225560D01*
X0020392Y0225402D01*
X0020378Y0225244D01*
X0020360Y0225087D01*
X0020339Y0224930D01*
X0020313Y0224774D01*
X0020283Y0224618D01*
X0020250Y0224463D01*
X0020212Y0224310D01*
X0020171Y0224157D01*
X0020126Y0224005D01*
X0020077Y0223854D01*
X0020024Y0223705D01*
X0019968Y0223557D01*
X0019908Y0223411D01*
X0019844Y0223266D01*
X0019776Y0223123D01*
X0019705Y0222981D01*
X0019631Y0222841D01*
X0019553Y0222704D01*
X0019471Y0222568D01*
X0019387Y0222434D01*
X0019298Y0222303D01*
X0019207Y0222174D01*
X0019112Y0222047D01*
X0019015Y0221922D01*
X0018914Y0221800D01*
X0018810Y0221681D01*
X0018703Y0221564D01*
X0018593Y0221450D01*
X0018480Y0221339D01*
X0018365Y0221230D01*
X0018247Y0221125D01*
X0018126Y0221023D01*
X0018003Y0220923D01*
X0017877Y0220827D01*
X0017749Y0220734D01*
X0017619Y0220644D01*
X0017486Y0220558D01*
X0017351Y0220474D01*
X0017215Y0220395D01*
X0017076Y0220318D01*
X0016935Y0220246D01*
X0016793Y0220176D01*
X0016649Y0220111D01*
X0016503Y0220049D01*
X0016356Y0219991D01*
X0016207Y0219936D01*
X0016057Y0219885D01*
X0015906Y0219838D01*
X0015754Y0219795D01*
X0015601Y0219756D01*
X0015446Y0219720D01*
X0015291Y0219689D01*
X0015135Y0219661D01*
X0014979Y0219637D01*
X0014822Y0219617D01*
X0014664Y0219601D01*
X0014507Y0219589D01*
X0014348Y0219581D01*
X0014190Y0219577D01*
X0014032Y0219577D01*
X0013874Y0219581D01*
X0013715Y0219589D01*
X0013558Y0219601D01*
X0013400Y0219617D01*
X0013243Y0219637D01*
X0013087Y0219661D01*
X0012931Y0219689D01*
X0012776Y0219720D01*
X0012621Y0219756D01*
X0012468Y0219795D01*
X0012316Y0219838D01*
X0012165Y0219885D01*
X0012015Y0219936D01*
X0011866Y0219991D01*
X0011719Y0220049D01*
X0011573Y0220111D01*
X0011429Y0220176D01*
X0011287Y0220246D01*
X0011146Y0220318D01*
X0011007Y0220395D01*
X0010871Y0220474D01*
X0010736Y0220558D01*
X0010603Y0220644D01*
X0010473Y0220734D01*
X0010345Y0220827D01*
X0010219Y0220923D01*
X0010096Y0221023D01*
X0009975Y0221125D01*
X0009857Y0221230D01*
X0009742Y0221339D01*
X0009629Y0221450D01*
X0009519Y0221564D01*
X0009412Y0221681D01*
X0009308Y0221800D01*
X0009207Y0221922D01*
X0009110Y0222047D01*
X0009015Y0222174D01*
X0008924Y0222303D01*
X0008835Y0222434D01*
X0008751Y0222568D01*
X0008669Y0222704D01*
X0008591Y0222841D01*
X0008517Y0222981D01*
X0008446Y0223123D01*
X0008378Y0223266D01*
X0008314Y0223411D01*
X0008254Y0223557D01*
X0008198Y0223705D01*
X0008145Y0223854D01*
X0008096Y0224005D01*
X0008051Y0224157D01*
X0008010Y0224310D01*
X0007972Y0224463D01*
X0007939Y0224618D01*
X0007909Y0224774D01*
X0007883Y0224930D01*
X0007862Y0225087D01*
X0007844Y0225244D01*
X0007830Y0225402D01*
X0007820Y0225560D01*
X0007814Y0225718D01*
X0007812Y0225876D01*
X0181040Y0225876D02*
X0181042Y0226034D01*
X0181048Y0226192D01*
X0181058Y0226350D01*
X0181072Y0226508D01*
X0181090Y0226665D01*
X0181111Y0226822D01*
X0181137Y0226978D01*
X0181167Y0227134D01*
X0181200Y0227289D01*
X0181238Y0227442D01*
X0181279Y0227595D01*
X0181324Y0227747D01*
X0181373Y0227898D01*
X0181426Y0228047D01*
X0181482Y0228195D01*
X0181542Y0228341D01*
X0181606Y0228486D01*
X0181674Y0228629D01*
X0181745Y0228771D01*
X0181819Y0228911D01*
X0181897Y0229048D01*
X0181979Y0229184D01*
X0182063Y0229318D01*
X0182152Y0229449D01*
X0182243Y0229578D01*
X0182338Y0229705D01*
X0182435Y0229830D01*
X0182536Y0229952D01*
X0182640Y0230071D01*
X0182747Y0230188D01*
X0182857Y0230302D01*
X0182970Y0230413D01*
X0183085Y0230522D01*
X0183203Y0230627D01*
X0183324Y0230729D01*
X0183447Y0230829D01*
X0183573Y0230925D01*
X0183701Y0231018D01*
X0183831Y0231108D01*
X0183964Y0231194D01*
X0184099Y0231278D01*
X0184235Y0231357D01*
X0184374Y0231434D01*
X0184515Y0231506D01*
X0184657Y0231576D01*
X0184801Y0231641D01*
X0184947Y0231703D01*
X0185094Y0231761D01*
X0185243Y0231816D01*
X0185393Y0231867D01*
X0185544Y0231914D01*
X0185696Y0231957D01*
X0185849Y0231996D01*
X0186004Y0232032D01*
X0186159Y0232063D01*
X0186315Y0232091D01*
X0186471Y0232115D01*
X0186628Y0232135D01*
X0186786Y0232151D01*
X0186943Y0232163D01*
X0187102Y0232171D01*
X0187260Y0232175D01*
X0187418Y0232175D01*
X0187576Y0232171D01*
X0187735Y0232163D01*
X0187892Y0232151D01*
X0188050Y0232135D01*
X0188207Y0232115D01*
X0188363Y0232091D01*
X0188519Y0232063D01*
X0188674Y0232032D01*
X0188829Y0231996D01*
X0188982Y0231957D01*
X0189134Y0231914D01*
X0189285Y0231867D01*
X0189435Y0231816D01*
X0189584Y0231761D01*
X0189731Y0231703D01*
X0189877Y0231641D01*
X0190021Y0231576D01*
X0190163Y0231506D01*
X0190304Y0231434D01*
X0190443Y0231357D01*
X0190579Y0231278D01*
X0190714Y0231194D01*
X0190847Y0231108D01*
X0190977Y0231018D01*
X0191105Y0230925D01*
X0191231Y0230829D01*
X0191354Y0230729D01*
X0191475Y0230627D01*
X0191593Y0230522D01*
X0191708Y0230413D01*
X0191821Y0230302D01*
X0191931Y0230188D01*
X0192038Y0230071D01*
X0192142Y0229952D01*
X0192243Y0229830D01*
X0192340Y0229705D01*
X0192435Y0229578D01*
X0192526Y0229449D01*
X0192615Y0229318D01*
X0192699Y0229184D01*
X0192781Y0229048D01*
X0192859Y0228911D01*
X0192933Y0228771D01*
X0193004Y0228629D01*
X0193072Y0228486D01*
X0193136Y0228341D01*
X0193196Y0228195D01*
X0193252Y0228047D01*
X0193305Y0227898D01*
X0193354Y0227747D01*
X0193399Y0227595D01*
X0193440Y0227442D01*
X0193478Y0227289D01*
X0193511Y0227134D01*
X0193541Y0226978D01*
X0193567Y0226822D01*
X0193588Y0226665D01*
X0193606Y0226508D01*
X0193620Y0226350D01*
X0193630Y0226192D01*
X0193636Y0226034D01*
X0193638Y0225876D01*
X0193636Y0225718D01*
X0193630Y0225560D01*
X0193620Y0225402D01*
X0193606Y0225244D01*
X0193588Y0225087D01*
X0193567Y0224930D01*
X0193541Y0224774D01*
X0193511Y0224618D01*
X0193478Y0224463D01*
X0193440Y0224310D01*
X0193399Y0224157D01*
X0193354Y0224005D01*
X0193305Y0223854D01*
X0193252Y0223705D01*
X0193196Y0223557D01*
X0193136Y0223411D01*
X0193072Y0223266D01*
X0193004Y0223123D01*
X0192933Y0222981D01*
X0192859Y0222841D01*
X0192781Y0222704D01*
X0192699Y0222568D01*
X0192615Y0222434D01*
X0192526Y0222303D01*
X0192435Y0222174D01*
X0192340Y0222047D01*
X0192243Y0221922D01*
X0192142Y0221800D01*
X0192038Y0221681D01*
X0191931Y0221564D01*
X0191821Y0221450D01*
X0191708Y0221339D01*
X0191593Y0221230D01*
X0191475Y0221125D01*
X0191354Y0221023D01*
X0191231Y0220923D01*
X0191105Y0220827D01*
X0190977Y0220734D01*
X0190847Y0220644D01*
X0190714Y0220558D01*
X0190579Y0220474D01*
X0190443Y0220395D01*
X0190304Y0220318D01*
X0190163Y0220246D01*
X0190021Y0220176D01*
X0189877Y0220111D01*
X0189731Y0220049D01*
X0189584Y0219991D01*
X0189435Y0219936D01*
X0189285Y0219885D01*
X0189134Y0219838D01*
X0188982Y0219795D01*
X0188829Y0219756D01*
X0188674Y0219720D01*
X0188519Y0219689D01*
X0188363Y0219661D01*
X0188207Y0219637D01*
X0188050Y0219617D01*
X0187892Y0219601D01*
X0187735Y0219589D01*
X0187576Y0219581D01*
X0187418Y0219577D01*
X0187260Y0219577D01*
X0187102Y0219581D01*
X0186943Y0219589D01*
X0186786Y0219601D01*
X0186628Y0219617D01*
X0186471Y0219637D01*
X0186315Y0219661D01*
X0186159Y0219689D01*
X0186004Y0219720D01*
X0185849Y0219756D01*
X0185696Y0219795D01*
X0185544Y0219838D01*
X0185393Y0219885D01*
X0185243Y0219936D01*
X0185094Y0219991D01*
X0184947Y0220049D01*
X0184801Y0220111D01*
X0184657Y0220176D01*
X0184515Y0220246D01*
X0184374Y0220318D01*
X0184235Y0220395D01*
X0184099Y0220474D01*
X0183964Y0220558D01*
X0183831Y0220644D01*
X0183701Y0220734D01*
X0183573Y0220827D01*
X0183447Y0220923D01*
X0183324Y0221023D01*
X0183203Y0221125D01*
X0183085Y0221230D01*
X0182970Y0221339D01*
X0182857Y0221450D01*
X0182747Y0221564D01*
X0182640Y0221681D01*
X0182536Y0221800D01*
X0182435Y0221922D01*
X0182338Y0222047D01*
X0182243Y0222174D01*
X0182152Y0222303D01*
X0182063Y0222434D01*
X0181979Y0222568D01*
X0181897Y0222704D01*
X0181819Y0222841D01*
X0181745Y0222981D01*
X0181674Y0223123D01*
X0181606Y0223266D01*
X0181542Y0223411D01*
X0181482Y0223557D01*
X0181426Y0223705D01*
X0181373Y0223854D01*
X0181324Y0224005D01*
X0181279Y0224157D01*
X0181238Y0224310D01*
X0181200Y0224463D01*
X0181167Y0224618D01*
X0181137Y0224774D01*
X0181111Y0224930D01*
X0181090Y0225087D01*
X0181072Y0225244D01*
X0181058Y0225402D01*
X0181048Y0225560D01*
X0181042Y0225718D01*
X0181040Y0225876D01*
X0181040Y0052648D02*
X0181042Y0052806D01*
X0181048Y0052964D01*
X0181058Y0053122D01*
X0181072Y0053280D01*
X0181090Y0053437D01*
X0181111Y0053594D01*
X0181137Y0053750D01*
X0181167Y0053906D01*
X0181200Y0054061D01*
X0181238Y0054214D01*
X0181279Y0054367D01*
X0181324Y0054519D01*
X0181373Y0054670D01*
X0181426Y0054819D01*
X0181482Y0054967D01*
X0181542Y0055113D01*
X0181606Y0055258D01*
X0181674Y0055401D01*
X0181745Y0055543D01*
X0181819Y0055683D01*
X0181897Y0055820D01*
X0181979Y0055956D01*
X0182063Y0056090D01*
X0182152Y0056221D01*
X0182243Y0056350D01*
X0182338Y0056477D01*
X0182435Y0056602D01*
X0182536Y0056724D01*
X0182640Y0056843D01*
X0182747Y0056960D01*
X0182857Y0057074D01*
X0182970Y0057185D01*
X0183085Y0057294D01*
X0183203Y0057399D01*
X0183324Y0057501D01*
X0183447Y0057601D01*
X0183573Y0057697D01*
X0183701Y0057790D01*
X0183831Y0057880D01*
X0183964Y0057966D01*
X0184099Y0058050D01*
X0184235Y0058129D01*
X0184374Y0058206D01*
X0184515Y0058278D01*
X0184657Y0058348D01*
X0184801Y0058413D01*
X0184947Y0058475D01*
X0185094Y0058533D01*
X0185243Y0058588D01*
X0185393Y0058639D01*
X0185544Y0058686D01*
X0185696Y0058729D01*
X0185849Y0058768D01*
X0186004Y0058804D01*
X0186159Y0058835D01*
X0186315Y0058863D01*
X0186471Y0058887D01*
X0186628Y0058907D01*
X0186786Y0058923D01*
X0186943Y0058935D01*
X0187102Y0058943D01*
X0187260Y0058947D01*
X0187418Y0058947D01*
X0187576Y0058943D01*
X0187735Y0058935D01*
X0187892Y0058923D01*
X0188050Y0058907D01*
X0188207Y0058887D01*
X0188363Y0058863D01*
X0188519Y0058835D01*
X0188674Y0058804D01*
X0188829Y0058768D01*
X0188982Y0058729D01*
X0189134Y0058686D01*
X0189285Y0058639D01*
X0189435Y0058588D01*
X0189584Y0058533D01*
X0189731Y0058475D01*
X0189877Y0058413D01*
X0190021Y0058348D01*
X0190163Y0058278D01*
X0190304Y0058206D01*
X0190443Y0058129D01*
X0190579Y0058050D01*
X0190714Y0057966D01*
X0190847Y0057880D01*
X0190977Y0057790D01*
X0191105Y0057697D01*
X0191231Y0057601D01*
X0191354Y0057501D01*
X0191475Y0057399D01*
X0191593Y0057294D01*
X0191708Y0057185D01*
X0191821Y0057074D01*
X0191931Y0056960D01*
X0192038Y0056843D01*
X0192142Y0056724D01*
X0192243Y0056602D01*
X0192340Y0056477D01*
X0192435Y0056350D01*
X0192526Y0056221D01*
X0192615Y0056090D01*
X0192699Y0055956D01*
X0192781Y0055820D01*
X0192859Y0055683D01*
X0192933Y0055543D01*
X0193004Y0055401D01*
X0193072Y0055258D01*
X0193136Y0055113D01*
X0193196Y0054967D01*
X0193252Y0054819D01*
X0193305Y0054670D01*
X0193354Y0054519D01*
X0193399Y0054367D01*
X0193440Y0054214D01*
X0193478Y0054061D01*
X0193511Y0053906D01*
X0193541Y0053750D01*
X0193567Y0053594D01*
X0193588Y0053437D01*
X0193606Y0053280D01*
X0193620Y0053122D01*
X0193630Y0052964D01*
X0193636Y0052806D01*
X0193638Y0052648D01*
X0193636Y0052490D01*
X0193630Y0052332D01*
X0193620Y0052174D01*
X0193606Y0052016D01*
X0193588Y0051859D01*
X0193567Y0051702D01*
X0193541Y0051546D01*
X0193511Y0051390D01*
X0193478Y0051235D01*
X0193440Y0051082D01*
X0193399Y0050929D01*
X0193354Y0050777D01*
X0193305Y0050626D01*
X0193252Y0050477D01*
X0193196Y0050329D01*
X0193136Y0050183D01*
X0193072Y0050038D01*
X0193004Y0049895D01*
X0192933Y0049753D01*
X0192859Y0049613D01*
X0192781Y0049476D01*
X0192699Y0049340D01*
X0192615Y0049206D01*
X0192526Y0049075D01*
X0192435Y0048946D01*
X0192340Y0048819D01*
X0192243Y0048694D01*
X0192142Y0048572D01*
X0192038Y0048453D01*
X0191931Y0048336D01*
X0191821Y0048222D01*
X0191708Y0048111D01*
X0191593Y0048002D01*
X0191475Y0047897D01*
X0191354Y0047795D01*
X0191231Y0047695D01*
X0191105Y0047599D01*
X0190977Y0047506D01*
X0190847Y0047416D01*
X0190714Y0047330D01*
X0190579Y0047246D01*
X0190443Y0047167D01*
X0190304Y0047090D01*
X0190163Y0047018D01*
X0190021Y0046948D01*
X0189877Y0046883D01*
X0189731Y0046821D01*
X0189584Y0046763D01*
X0189435Y0046708D01*
X0189285Y0046657D01*
X0189134Y0046610D01*
X0188982Y0046567D01*
X0188829Y0046528D01*
X0188674Y0046492D01*
X0188519Y0046461D01*
X0188363Y0046433D01*
X0188207Y0046409D01*
X0188050Y0046389D01*
X0187892Y0046373D01*
X0187735Y0046361D01*
X0187576Y0046353D01*
X0187418Y0046349D01*
X0187260Y0046349D01*
X0187102Y0046353D01*
X0186943Y0046361D01*
X0186786Y0046373D01*
X0186628Y0046389D01*
X0186471Y0046409D01*
X0186315Y0046433D01*
X0186159Y0046461D01*
X0186004Y0046492D01*
X0185849Y0046528D01*
X0185696Y0046567D01*
X0185544Y0046610D01*
X0185393Y0046657D01*
X0185243Y0046708D01*
X0185094Y0046763D01*
X0184947Y0046821D01*
X0184801Y0046883D01*
X0184657Y0046948D01*
X0184515Y0047018D01*
X0184374Y0047090D01*
X0184235Y0047167D01*
X0184099Y0047246D01*
X0183964Y0047330D01*
X0183831Y0047416D01*
X0183701Y0047506D01*
X0183573Y0047599D01*
X0183447Y0047695D01*
X0183324Y0047795D01*
X0183203Y0047897D01*
X0183085Y0048002D01*
X0182970Y0048111D01*
X0182857Y0048222D01*
X0182747Y0048336D01*
X0182640Y0048453D01*
X0182536Y0048572D01*
X0182435Y0048694D01*
X0182338Y0048819D01*
X0182243Y0048946D01*
X0182152Y0049075D01*
X0182063Y0049206D01*
X0181979Y0049340D01*
X0181897Y0049476D01*
X0181819Y0049613D01*
X0181745Y0049753D01*
X0181674Y0049895D01*
X0181606Y0050038D01*
X0181542Y0050183D01*
X0181482Y0050329D01*
X0181426Y0050477D01*
X0181373Y0050626D01*
X0181324Y0050777D01*
X0181279Y0050929D01*
X0181238Y0051082D01*
X0181200Y0051235D01*
X0181167Y0051390D01*
X0181137Y0051546D01*
X0181111Y0051702D01*
X0181090Y0051859D01*
X0181072Y0052016D01*
X0181058Y0052174D01*
X0181048Y0052332D01*
X0181042Y0052490D01*
X0181040Y0052648D01*
D11*
X0052300Y0162337D03*
X0052300Y0182337D03*
D12*
X0051600Y0197026D02*
X0043000Y0197026D01*
X0028402Y0204537D02*
X0028402Y0213137D01*
X0043000Y0220648D02*
X0051600Y0220648D01*
D13*
X0148400Y0185337D02*
X0156200Y0185337D01*
X0156200Y0173837D02*
X0148400Y0173837D01*
X0149400Y0145337D02*
X0157200Y0145337D01*
X0157200Y0133837D02*
X0149400Y0133837D01*
D14*
X0178775Y0134494D02*
X0185825Y0134494D01*
X0185825Y0154180D02*
X0178775Y0154180D01*
X0178775Y0174494D02*
X0185825Y0174494D01*
X0185825Y0194180D02*
X0178775Y0194180D01*
X0022825Y0183180D02*
X0015775Y0183180D01*
X0015775Y0163494D02*
X0022825Y0163494D01*
D15*
X0018300Y0196837D02*
X0018300Y0202837D01*
X0008300Y0202837D02*
X0008300Y0196837D01*
X0123300Y0220837D02*
X0123300Y0226837D01*
X0133300Y0226837D02*
X0133300Y0220837D01*
X0143300Y0220837D02*
X0143300Y0226837D01*
D16*
X0140300Y0055337D03*
X0120615Y0055337D03*
X0080985Y0055337D03*
X0061300Y0055337D03*
X0041615Y0055337D03*
X0159985Y0055337D03*
D17*
X0079977Y0103337D03*
X0078402Y0108061D03*
X0077615Y0109636D03*
X0077615Y0110424D03*
X0077615Y0111211D03*
X0077615Y0111998D03*
D18*
X0079583Y0104124D03*
X0077221Y0138770D03*
D19*
X0074465Y0137983D03*
X0079190Y0105699D03*
X0079190Y0104912D03*
D20*
X0078796Y0106487D03*
X0078796Y0107274D03*
X0078009Y0108849D03*
D21*
X0077221Y0112786D03*
D22*
X0077615Y0113573D03*
X0077615Y0114361D03*
X0077615Y0115148D03*
X0077615Y0115935D03*
X0077615Y0116723D03*
X0077615Y0117510D03*
D23*
X0077615Y0118298D03*
D24*
X0074859Y0119085D03*
X0087457Y0136408D03*
X0089032Y0135620D03*
X0089820Y0134833D03*
X0090607Y0134046D03*
X0091394Y0133258D03*
X0092182Y0132471D03*
X0092969Y0131683D03*
X0093757Y0130109D03*
X0094544Y0129321D03*
X0095331Y0127746D03*
X0095331Y0126959D03*
X0095331Y0124597D03*
D25*
X0085883Y0122235D03*
D26*
X0083127Y0123022D03*
X0077615Y0124597D03*
X0074465Y0132471D03*
D27*
X0081946Y0123809D03*
D28*
X0093363Y0130896D03*
X0094938Y0128534D03*
X0095725Y0126172D03*
X0095725Y0125384D03*
D29*
X0076828Y0125384D03*
X0074465Y0130896D03*
D30*
X0074859Y0130109D03*
X0074859Y0129321D03*
X0075646Y0126959D03*
X0076434Y0126172D03*
D31*
X0075253Y0127746D03*
X0075253Y0128534D03*
D32*
X0074859Y0131683D03*
D33*
X0074465Y0133258D03*
D34*
X0074465Y0134046D03*
D35*
X0074465Y0134833D03*
D36*
X0074465Y0135620D03*
D37*
X0074465Y0136408D03*
D38*
X0084702Y0137983D03*
X0086276Y0137195D03*
D39*
X0074465Y0137195D03*
D40*
X0077221Y0139557D03*
D41*
X0071751Y0141751D02*
X0070964Y0140964D01*
X0069389Y0140964D01*
X0068602Y0140176D01*
X0067027Y0140176D01*
X0065972Y0139122D01*
X0065452Y0138602D01*
X0064665Y0138602D01*
X0063610Y0137547D01*
X0062823Y0136760D01*
X0062035Y0135972D01*
X0061248Y0135185D01*
X0060461Y0134398D01*
X0060461Y0134398D01*
X0059673Y0133610D01*
X0059673Y0132823D01*
X0058886Y0132035D01*
X0058886Y0126607D01*
X0059940Y0125553D01*
X0060728Y0124765D01*
X0061515Y0123978D01*
X0062302Y0123191D01*
X0063090Y0123191D01*
X0063877Y0122403D01*
X0065452Y0122403D01*
X0066239Y0121616D01*
X0068602Y0121616D01*
X0069389Y0120828D01*
X0072088Y0120828D01*
X0071484Y0120224D01*
X0071484Y0119437D01*
X0070697Y0118650D01*
X0070697Y0114712D01*
X0069909Y0113925D01*
X0069909Y0107710D01*
X0070697Y0106922D01*
X0070697Y0102985D01*
X0071751Y0101931D01*
X0072539Y0101931D01*
X0073326Y0101143D01*
X0086628Y0101143D01*
X0087416Y0101931D01*
X0088470Y0102985D01*
X0088470Y0105264D01*
X0087683Y0106051D01*
X0087683Y0106838D01*
X0086895Y0107626D01*
X0086895Y0108413D01*
X0086108Y0109201D01*
X0086108Y0109988D01*
X0085320Y0110775D01*
X0085320Y0113138D01*
X0084533Y0113925D01*
X0084533Y0118650D01*
X0083746Y0119437D01*
X0083142Y0120041D01*
X0095290Y0120041D01*
X0096077Y0120828D01*
X0096864Y0120828D01*
X0097652Y0121616D01*
X0098706Y0122670D01*
X0098706Y0128886D01*
X0097919Y0129673D01*
X0097919Y0130461D01*
X0097131Y0131248D01*
X0096344Y0132035D01*
X0096344Y0132823D01*
X0095290Y0133877D01*
X0095290Y0133877D01*
X0094769Y0134398D01*
X0093982Y0135185D01*
X0093194Y0135972D01*
X0092407Y0136760D01*
X0091353Y0137814D01*
X0090565Y0137814D01*
X0090045Y0138335D01*
X0088990Y0139389D01*
X0088203Y0139389D01*
X0087416Y0140176D01*
X0085841Y0140176D01*
X0085053Y0140964D01*
X0083479Y0140964D01*
X0082691Y0141751D01*
X0071751Y0141751D01*
X0071575Y0141574D02*
X0004500Y0141574D01*
X0004500Y0139176D02*
X0066026Y0139176D01*
X0062800Y0139337D02*
X0062300Y0138837D01*
X0059800Y0138837D01*
X0062841Y0136777D02*
X0004500Y0136777D01*
X0004500Y0134379D02*
X0060442Y0134379D01*
X0058886Y0131980D02*
X0004500Y0131980D01*
X0004500Y0129582D02*
X0058886Y0129582D01*
X0058886Y0127183D02*
X0004500Y0127183D01*
X0004500Y0124785D02*
X0060708Y0124785D01*
X0065469Y0122386D02*
X0004500Y0122386D01*
X0004500Y0119988D02*
X0071484Y0119988D01*
X0070697Y0117589D02*
X0004500Y0117589D01*
X0004500Y0115191D02*
X0070697Y0115191D01*
X0069909Y0112792D02*
X0004500Y0112792D01*
X0004500Y0110394D02*
X0069909Y0110394D01*
X0069909Y0107995D02*
X0004500Y0107995D01*
X0004500Y0105597D02*
X0070697Y0105597D01*
X0070697Y0103198D02*
X0004500Y0103198D01*
X0004500Y0100800D02*
X0101300Y0100800D01*
X0101300Y0103198D02*
X0088470Y0103198D01*
X0088137Y0105597D02*
X0101300Y0105597D01*
X0101300Y0107995D02*
X0086895Y0107995D01*
X0085702Y0110394D02*
X0101300Y0110394D01*
X0101300Y0112792D02*
X0085320Y0112792D01*
X0084533Y0115191D02*
X0101300Y0115191D01*
X0101300Y0117589D02*
X0084533Y0117589D01*
X0083195Y0119988D02*
X0101300Y0119988D01*
X0101300Y0122386D02*
X0098423Y0122386D01*
X0098706Y0124785D02*
X0101300Y0124785D01*
X0101300Y0127183D02*
X0098706Y0127183D01*
X0098010Y0129582D02*
X0101300Y0129582D01*
X0101300Y0131980D02*
X0096399Y0131980D01*
X0094788Y0134379D02*
X0099015Y0134379D01*
X0101300Y0132094D02*
X0101300Y0088401D01*
X0101264Y0088366D01*
X0100719Y0087049D01*
X0100719Y0085625D01*
X0101264Y0084308D01*
X0102271Y0083301D01*
X0103588Y0082756D01*
X0105012Y0082756D01*
X0106329Y0083301D01*
X0107336Y0084308D01*
X0107881Y0085625D01*
X0107881Y0087049D01*
X0107336Y0088366D01*
X0107300Y0088401D01*
X0107300Y0133934D01*
X0106843Y0135036D01*
X0097881Y0143999D01*
X0097881Y0144049D01*
X0097336Y0145366D01*
X0096329Y0146373D01*
X0095012Y0146918D01*
X0093588Y0146918D01*
X0092271Y0146373D01*
X0091264Y0145366D01*
X0090719Y0144049D01*
X0090719Y0142625D01*
X0091264Y0141308D01*
X0092271Y0140301D01*
X0093588Y0139756D01*
X0093638Y0139756D01*
X0101300Y0132094D01*
X0104300Y0133337D02*
X0094300Y0143337D01*
X0091154Y0141574D02*
X0082868Y0141574D01*
X0089203Y0139176D02*
X0094218Y0139176D01*
X0092389Y0136777D02*
X0096617Y0136777D01*
X0094769Y0134398D02*
X0094769Y0134398D01*
X0093982Y0135185D02*
X0093982Y0135185D01*
X0100305Y0141574D02*
X0145101Y0141574D01*
X0144568Y0142108D02*
X0143700Y0144203D01*
X0143700Y0146471D01*
X0144568Y0148566D01*
X0146171Y0150169D01*
X0148266Y0151037D01*
X0158334Y0151037D01*
X0160429Y0150169D01*
X0162032Y0148566D01*
X0162900Y0146471D01*
X0162900Y0144203D01*
X0162032Y0142108D01*
X0160429Y0140505D01*
X0158666Y0139775D01*
X0159542Y0139490D01*
X0160397Y0139054D01*
X0161174Y0138490D01*
X0161853Y0137811D01*
X0162417Y0137034D01*
X0162853Y0136179D01*
X0163150Y0135265D01*
X0163300Y0134317D01*
X0163300Y0133937D01*
X0153400Y0133937D01*
X0153400Y0133737D01*
X0163300Y0133737D01*
X0163300Y0133357D01*
X0163150Y0132409D01*
X0162853Y0131495D01*
X0162417Y0130640D01*
X0161853Y0129863D01*
X0161174Y0129184D01*
X0160397Y0128620D01*
X0159542Y0128184D01*
X0158628Y0127887D01*
X0157680Y0127737D01*
X0153400Y0127737D01*
X0153400Y0133737D01*
X0153200Y0133737D01*
X0153200Y0127737D01*
X0148920Y0127737D01*
X0147972Y0127887D01*
X0147058Y0128184D01*
X0146203Y0128620D01*
X0145426Y0129184D01*
X0144747Y0129863D01*
X0144183Y0130640D01*
X0143747Y0131495D01*
X0143450Y0132409D01*
X0143300Y0133357D01*
X0143300Y0133737D01*
X0153200Y0133737D01*
X0153200Y0133937D01*
X0143300Y0133937D01*
X0143300Y0134317D01*
X0143450Y0135265D01*
X0143747Y0136179D01*
X0144183Y0137034D01*
X0144747Y0137811D01*
X0145426Y0138490D01*
X0146203Y0139054D01*
X0147058Y0139490D01*
X0147934Y0139775D01*
X0146171Y0140505D01*
X0144568Y0142108D01*
X0143795Y0143973D02*
X0097907Y0143973D01*
X0099300Y0142837D02*
X0099300Y0147337D01*
X0096330Y0146372D02*
X0143700Y0146372D01*
X0144772Y0148770D02*
X0004500Y0148770D01*
X0004500Y0146372D02*
X0092270Y0146372D01*
X0090719Y0143973D02*
X0004500Y0143973D01*
X0004500Y0151169D02*
X0174258Y0151169D01*
X0174261Y0151163D02*
X0175759Y0149665D01*
X0177716Y0148855D01*
X0186884Y0148855D01*
X0188841Y0149665D01*
X0190339Y0151163D01*
X0191150Y0153120D01*
X0191150Y0155239D01*
X0190339Y0157196D01*
X0188841Y0158694D01*
X0186884Y0159505D01*
X0177716Y0159505D01*
X0175759Y0158694D01*
X0174261Y0157196D01*
X0173450Y0155239D01*
X0173450Y0153120D01*
X0174261Y0151163D01*
X0173450Y0153567D02*
X0004500Y0153567D01*
X0004500Y0155966D02*
X0047358Y0155966D01*
X0048986Y0154337D02*
X0055614Y0154337D01*
X0060300Y0159023D01*
X0060300Y0165651D01*
X0055614Y0170337D01*
X0049108Y0170337D01*
X0036200Y0183245D01*
X0036200Y0193513D01*
X0035682Y0194763D01*
X0031700Y0198745D01*
X0031700Y0199300D01*
X0031858Y0199366D01*
X0033574Y0201082D01*
X0034502Y0203324D01*
X0034502Y0214350D01*
X0033574Y0216592D01*
X0031858Y0218308D01*
X0029616Y0219237D01*
X0028443Y0219237D01*
X0038043Y0228837D01*
X0118933Y0228837D01*
X0118500Y0227792D01*
X0118500Y0219882D01*
X0119231Y0218118D01*
X0120581Y0216768D01*
X0122345Y0216037D01*
X0124255Y0216037D01*
X0126019Y0216768D01*
X0126500Y0217249D01*
X0126500Y0205484D01*
X0127535Y0202985D01*
X0129448Y0201072D01*
X0142106Y0188415D01*
X0143300Y0187920D01*
X0142700Y0186471D01*
X0142700Y0184203D01*
X0143568Y0182108D01*
X0145171Y0180505D01*
X0146934Y0179775D01*
X0146058Y0179490D01*
X0145203Y0179054D01*
X0144426Y0178490D01*
X0143747Y0177811D01*
X0143183Y0177034D01*
X0142747Y0176179D01*
X0142450Y0175265D01*
X0142300Y0174317D01*
X0142300Y0173937D01*
X0152200Y0173937D01*
X0152200Y0173737D01*
X0152400Y0173737D01*
X0152400Y0173937D01*
X0162300Y0173937D01*
X0162300Y0174317D01*
X0162150Y0175265D01*
X0161853Y0176179D01*
X0161417Y0177034D01*
X0160853Y0177811D01*
X0160174Y0178490D01*
X0159397Y0179054D01*
X0158542Y0179490D01*
X0157666Y0179775D01*
X0159429Y0180505D01*
X0161032Y0182108D01*
X0161900Y0184203D01*
X0161900Y0186471D01*
X0161524Y0187380D01*
X0183653Y0187380D01*
X0186152Y0188415D01*
X0186592Y0188855D01*
X0186884Y0188855D01*
X0188841Y0189665D01*
X0190339Y0191163D01*
X0191150Y0193120D01*
X0191150Y0195239D01*
X0190339Y0197196D01*
X0188841Y0198694D01*
X0186884Y0199505D01*
X0186592Y0199505D01*
X0186152Y0199944D01*
X0183653Y0200980D01*
X0148774Y0200980D01*
X0140100Y0209654D01*
X0140100Y0217249D01*
X0140581Y0216768D01*
X0142345Y0216037D01*
X0144255Y0216037D01*
X0146019Y0216768D01*
X0147369Y0218118D01*
X0148100Y0219882D01*
X0148100Y0227792D01*
X0147369Y0229556D01*
X0146019Y0230906D01*
X0144255Y0231637D01*
X0142345Y0231637D01*
X0140581Y0230906D01*
X0139231Y0229556D01*
X0138635Y0228118D01*
X0137491Y0229263D01*
X0137369Y0229556D01*
X0136165Y0230761D01*
X0135843Y0231536D01*
X0134999Y0232380D01*
X0131892Y0235487D01*
X0196950Y0235487D01*
X0196950Y0043037D01*
X0004500Y0043037D01*
X0004500Y0193849D01*
X0005581Y0192768D01*
X0007345Y0192037D01*
X0009255Y0192037D01*
X0011019Y0192768D01*
X0012369Y0194118D01*
X0013100Y0195882D01*
X0013100Y0203792D01*
X0013070Y0203864D01*
X0013855Y0204650D01*
X0013500Y0203792D01*
X0013500Y0195882D01*
X0014231Y0194118D01*
X0015581Y0192768D01*
X0017345Y0192037D01*
X0019255Y0192037D01*
X0021019Y0192768D01*
X0022369Y0194118D01*
X0023100Y0195882D01*
X0023100Y0201398D01*
X0023231Y0201082D01*
X0024900Y0199413D01*
X0024900Y0196661D01*
X0025418Y0195411D01*
X0026374Y0194455D01*
X0029400Y0191429D01*
X0029400Y0181161D01*
X0029918Y0179911D01*
X0030874Y0178955D01*
X0044300Y0165529D01*
X0044300Y0159023D01*
X0048986Y0154337D01*
X0044959Y0158364D02*
X0025366Y0158364D01*
X0025023Y0158189D02*
X0025826Y0158598D01*
X0026555Y0159128D01*
X0027192Y0159765D01*
X0027721Y0160494D01*
X0028131Y0161297D01*
X0028409Y0162154D01*
X0028550Y0163044D01*
X0028550Y0163494D01*
X0019300Y0163494D01*
X0019300Y0157769D01*
X0023276Y0157769D01*
X0024166Y0157910D01*
X0025023Y0158189D01*
X0027858Y0160763D02*
X0044300Y0160763D01*
X0044300Y0163161D02*
X0028550Y0163161D01*
X0028550Y0163495D02*
X0028550Y0163945D01*
X0028409Y0164835D01*
X0028131Y0165692D01*
X0027721Y0166495D01*
X0027192Y0167224D01*
X0026555Y0167861D01*
X0025826Y0168391D01*
X0025023Y0168800D01*
X0024166Y0169079D01*
X0023276Y0169219D01*
X0019300Y0169219D01*
X0015324Y0169219D01*
X0014434Y0169079D01*
X0013577Y0168800D01*
X0012774Y0168391D01*
X0012045Y0167861D01*
X0011408Y0167224D01*
X0010879Y0166495D01*
X0010469Y0165692D01*
X0010191Y0164835D01*
X0010050Y0163945D01*
X0010050Y0163495D01*
X0019300Y0163495D01*
X0019300Y0169219D01*
X0019300Y0163495D01*
X0019300Y0163495D01*
X0019300Y0163494D01*
X0019300Y0163494D01*
X0019300Y0157769D01*
X0015324Y0157769D01*
X0014434Y0157910D01*
X0013577Y0158189D01*
X0012774Y0158598D01*
X0012045Y0159128D01*
X0011408Y0159765D01*
X0010879Y0160494D01*
X0010469Y0161297D01*
X0010191Y0162154D01*
X0010050Y0163044D01*
X0010050Y0163494D01*
X0019300Y0163494D01*
X0019300Y0163495D01*
X0028550Y0163495D01*
X0028174Y0165560D02*
X0044269Y0165560D01*
X0041871Y0167958D02*
X0026421Y0167958D01*
X0019300Y0167958D02*
X0019300Y0167958D01*
X0019300Y0165560D02*
X0019300Y0165560D01*
X0019300Y0163161D02*
X0019300Y0163161D01*
X0019300Y0160763D02*
X0019300Y0160763D01*
X0019300Y0158364D02*
X0019300Y0158364D01*
X0013234Y0158364D02*
X0004500Y0158364D01*
X0004500Y0160763D02*
X0010742Y0160763D01*
X0010050Y0163161D02*
X0004500Y0163161D01*
X0004500Y0165560D02*
X0010426Y0165560D01*
X0012179Y0167958D02*
X0004500Y0167958D01*
X0004500Y0170357D02*
X0039472Y0170357D01*
X0037074Y0172755D02*
X0004500Y0172755D01*
X0004500Y0175154D02*
X0034675Y0175154D01*
X0032277Y0177552D02*
X0004500Y0177552D01*
X0004500Y0179951D02*
X0011473Y0179951D01*
X0011261Y0180163D02*
X0012759Y0178665D01*
X0014716Y0177855D01*
X0023884Y0177855D01*
X0025841Y0178665D01*
X0027339Y0180163D01*
X0028150Y0182120D01*
X0028150Y0184239D01*
X0027339Y0186196D01*
X0025841Y0187694D01*
X0023884Y0188505D01*
X0014716Y0188505D01*
X0012759Y0187694D01*
X0011261Y0186196D01*
X0010450Y0184239D01*
X0010450Y0182120D01*
X0011261Y0180163D01*
X0010450Y0182349D02*
X0004500Y0182349D01*
X0004500Y0184748D02*
X0010661Y0184748D01*
X0012211Y0187146D02*
X0004500Y0187146D01*
X0004500Y0189545D02*
X0029400Y0189545D01*
X0029400Y0187146D02*
X0026389Y0187146D01*
X0027939Y0184748D02*
X0029400Y0184748D01*
X0029400Y0182349D02*
X0028150Y0182349D01*
X0027127Y0179951D02*
X0029901Y0179951D01*
X0036200Y0184748D02*
X0044300Y0184748D01*
X0044300Y0185651D02*
X0044300Y0179023D01*
X0048986Y0174337D01*
X0055614Y0174337D01*
X0060300Y0179023D01*
X0060300Y0185651D01*
X0055614Y0190337D01*
X0048986Y0190337D01*
X0044300Y0185651D01*
X0045795Y0187146D02*
X0036200Y0187146D01*
X0036200Y0189545D02*
X0048194Y0189545D01*
X0052813Y0190926D02*
X0041787Y0190926D01*
X0039545Y0191855D01*
X0037829Y0193571D01*
X0036900Y0195813D01*
X0036900Y0198239D01*
X0037829Y0200481D01*
X0039545Y0202197D01*
X0041787Y0203126D01*
X0052813Y0203126D01*
X0055055Y0202197D01*
X0056771Y0200481D01*
X0057700Y0198239D01*
X0057700Y0195813D01*
X0056771Y0193571D01*
X0055055Y0191855D01*
X0052813Y0190926D01*
X0055144Y0191943D02*
X0138577Y0191943D01*
X0136179Y0194342D02*
X0057091Y0194342D01*
X0057700Y0196740D02*
X0133780Y0196740D01*
X0131382Y0199139D02*
X0057327Y0199139D01*
X0055715Y0201537D02*
X0128983Y0201537D01*
X0127141Y0203936D02*
X0034502Y0203936D01*
X0034502Y0206334D02*
X0126500Y0206334D01*
X0126500Y0208733D02*
X0034502Y0208733D01*
X0034502Y0211131D02*
X0126500Y0211131D01*
X0126500Y0213530D02*
X0034502Y0213530D01*
X0033849Y0215928D02*
X0038527Y0215928D01*
X0038705Y0215751D02*
X0039381Y0215232D01*
X0040119Y0214806D01*
X0040906Y0214480D01*
X0041729Y0214259D01*
X0042574Y0214148D01*
X0047300Y0214148D01*
X0052026Y0214148D01*
X0052871Y0214259D01*
X0053694Y0214480D01*
X0054481Y0214806D01*
X0055219Y0215232D01*
X0055895Y0215751D01*
X0056497Y0216353D01*
X0057016Y0217029D01*
X0057442Y0217767D01*
X0057768Y0218554D01*
X0057989Y0219377D01*
X0058100Y0220222D01*
X0058100Y0220648D01*
X0047300Y0220648D01*
X0047300Y0214148D01*
X0047300Y0220648D01*
X0047300Y0220648D01*
X0047300Y0220648D01*
X0036500Y0220648D01*
X0036500Y0220222D01*
X0036611Y0219377D01*
X0036832Y0218554D01*
X0037158Y0217767D01*
X0037584Y0217029D01*
X0038103Y0216353D01*
X0038705Y0215751D01*
X0036926Y0218327D02*
X0031813Y0218327D01*
X0029931Y0220725D02*
X0036500Y0220725D01*
X0036500Y0220648D02*
X0047300Y0220648D01*
X0047300Y0220648D01*
X0058100Y0220648D01*
X0058100Y0221074D01*
X0057989Y0221919D01*
X0057768Y0222742D01*
X0057442Y0223529D01*
X0057016Y0224267D01*
X0056497Y0224943D01*
X0055895Y0225545D01*
X0055219Y0226064D01*
X0054481Y0226490D01*
X0053694Y0226816D01*
X0052871Y0227037D01*
X0052026Y0227148D01*
X0047300Y0227148D01*
X0047300Y0220648D01*
X0047300Y0220648D01*
X0047300Y0227148D01*
X0042574Y0227148D01*
X0041729Y0227037D01*
X0040906Y0226816D01*
X0040119Y0226490D01*
X0039381Y0226064D01*
X0038705Y0225545D01*
X0038103Y0224943D01*
X0037584Y0224267D01*
X0037158Y0223529D01*
X0036832Y0222742D01*
X0036611Y0221919D01*
X0036500Y0221074D01*
X0036500Y0220648D01*
X0036990Y0223124D02*
X0032329Y0223124D01*
X0034728Y0225522D02*
X0038682Y0225522D01*
X0037127Y0227921D02*
X0118553Y0227921D01*
X0118500Y0225522D02*
X0055918Y0225522D01*
X0057610Y0223124D02*
X0118500Y0223124D01*
X0118500Y0220725D02*
X0058100Y0220725D01*
X0057674Y0218327D02*
X0119144Y0218327D01*
X0126500Y0215928D02*
X0056073Y0215928D01*
X0047300Y0215928D02*
X0047300Y0215928D01*
X0047300Y0218327D02*
X0047300Y0218327D01*
X0047300Y0220725D02*
X0047300Y0220725D01*
X0047300Y0223124D02*
X0047300Y0223124D01*
X0047300Y0225522D02*
X0047300Y0225522D01*
X0036800Y0231837D02*
X0118800Y0231837D01*
X0120300Y0233337D01*
X0129800Y0233337D01*
X0133300Y0229837D01*
X0133300Y0223837D01*
X0136606Y0230319D02*
X0139994Y0230319D01*
X0134662Y0232718D02*
X0182161Y0232718D01*
X0182525Y0233082D02*
X0180134Y0230691D01*
X0178840Y0227567D01*
X0178840Y0224186D01*
X0180134Y0221062D01*
X0182525Y0218671D01*
X0185649Y0217377D01*
X0189030Y0217377D01*
X0192154Y0218671D01*
X0194545Y0221062D01*
X0195839Y0224186D01*
X0195839Y0227567D01*
X0194545Y0230691D01*
X0192154Y0233082D01*
X0189030Y0234376D01*
X0185649Y0234376D01*
X0182525Y0233082D01*
X0179980Y0230319D02*
X0146606Y0230319D01*
X0148047Y0227921D02*
X0178987Y0227921D01*
X0178840Y0225522D02*
X0148100Y0225522D01*
X0148100Y0223124D02*
X0179280Y0223124D01*
X0180471Y0220725D02*
X0148100Y0220725D01*
X0147456Y0218327D02*
X0183356Y0218327D01*
X0191323Y0218327D02*
X0196950Y0218327D01*
X0196950Y0220725D02*
X0194208Y0220725D01*
X0195399Y0223124D02*
X0196950Y0223124D01*
X0196950Y0225522D02*
X0195839Y0225522D01*
X0195692Y0227921D02*
X0196950Y0227921D01*
X0196950Y0230319D02*
X0194698Y0230319D01*
X0192518Y0232718D02*
X0196950Y0232718D01*
X0196950Y0235116D02*
X0132263Y0235116D01*
X0140100Y0215928D02*
X0196950Y0215928D01*
X0196950Y0213530D02*
X0140100Y0213530D01*
X0140100Y0211131D02*
X0196950Y0211131D01*
X0196950Y0208733D02*
X0141021Y0208733D01*
X0143419Y0206334D02*
X0196950Y0206334D01*
X0196950Y0203936D02*
X0145818Y0203936D01*
X0148216Y0201537D02*
X0196950Y0201537D01*
X0196950Y0199139D02*
X0187767Y0199139D01*
X0190528Y0196740D02*
X0196950Y0196740D01*
X0196950Y0194342D02*
X0191150Y0194342D01*
X0190662Y0191943D02*
X0196950Y0191943D01*
X0196950Y0189545D02*
X0188550Y0189545D01*
X0196950Y0187146D02*
X0161620Y0187146D01*
X0161900Y0184748D02*
X0196950Y0184748D01*
X0196950Y0182349D02*
X0161132Y0182349D01*
X0158091Y0179951D02*
X0177041Y0179951D01*
X0177434Y0180079D02*
X0176577Y0179800D01*
X0175774Y0179391D01*
X0175045Y0178861D01*
X0174408Y0178224D01*
X0173879Y0177495D01*
X0173469Y0176692D01*
X0173191Y0175835D01*
X0173050Y0174945D01*
X0173050Y0174495D01*
X0182300Y0174495D01*
X0182300Y0180219D01*
X0178324Y0180219D01*
X0177434Y0180079D01*
X0173920Y0177552D02*
X0161041Y0177552D01*
X0162168Y0175154D02*
X0173083Y0175154D01*
X0173050Y0174494D02*
X0173050Y0174044D01*
X0173191Y0173154D01*
X0173469Y0172297D01*
X0173879Y0171494D01*
X0174408Y0170765D01*
X0175045Y0170128D01*
X0175774Y0169598D01*
X0176577Y0169189D01*
X0177434Y0168910D01*
X0178324Y0168769D01*
X0182300Y0168769D01*
X0186276Y0168769D01*
X0187166Y0168910D01*
X0188023Y0169189D01*
X0188826Y0169598D01*
X0189555Y0170128D01*
X0190192Y0170765D01*
X0190721Y0171494D01*
X0191131Y0172297D01*
X0191409Y0173154D01*
X0191550Y0174044D01*
X0191550Y0174494D01*
X0182300Y0174494D01*
X0182300Y0168769D01*
X0182300Y0174494D01*
X0182300Y0174494D01*
X0182300Y0174495D01*
X0182300Y0174495D01*
X0182300Y0180219D01*
X0186276Y0180219D01*
X0187166Y0180079D01*
X0188023Y0179800D01*
X0188826Y0179391D01*
X0189555Y0178861D01*
X0190192Y0178224D01*
X0190721Y0177495D01*
X0191131Y0176692D01*
X0191409Y0175835D01*
X0191550Y0174945D01*
X0191550Y0174495D01*
X0182300Y0174495D01*
X0182300Y0174494D01*
X0173050Y0174494D01*
X0173321Y0172755D02*
X0162205Y0172755D01*
X0162150Y0172409D02*
X0162300Y0173357D01*
X0162300Y0173737D01*
X0152400Y0173737D01*
X0152400Y0167737D01*
X0156680Y0167737D01*
X0157628Y0167887D01*
X0158542Y0168184D01*
X0159397Y0168620D01*
X0160174Y0169184D01*
X0160853Y0169863D01*
X0161417Y0170640D01*
X0161853Y0171495D01*
X0162150Y0172409D01*
X0161211Y0170357D02*
X0174816Y0170357D01*
X0182300Y0170357D02*
X0182300Y0170357D01*
X0182300Y0172755D02*
X0182300Y0172755D01*
X0182300Y0175154D02*
X0182300Y0175154D01*
X0182300Y0177552D02*
X0182300Y0177552D01*
X0182300Y0179951D02*
X0182300Y0179951D01*
X0187559Y0179951D02*
X0196950Y0179951D01*
X0196950Y0177552D02*
X0190680Y0177552D01*
X0191517Y0175154D02*
X0196950Y0175154D01*
X0196950Y0172755D02*
X0191279Y0172755D01*
X0189784Y0170357D02*
X0196950Y0170357D01*
X0196950Y0167958D02*
X0157847Y0167958D01*
X0152400Y0167958D02*
X0152200Y0167958D01*
X0152200Y0167737D02*
X0152200Y0173737D01*
X0142300Y0173737D01*
X0142300Y0173357D01*
X0142450Y0172409D01*
X0142747Y0171495D01*
X0143183Y0170640D01*
X0143747Y0169863D01*
X0144426Y0169184D01*
X0145203Y0168620D01*
X0146058Y0168184D01*
X0146972Y0167887D01*
X0147920Y0167737D01*
X0152200Y0167737D01*
X0152200Y0170357D02*
X0152400Y0170357D01*
X0152400Y0172755D02*
X0152200Y0172755D01*
X0146753Y0167958D02*
X0104664Y0167958D01*
X0103999Y0167294D02*
X0108462Y0171756D01*
X0108512Y0171756D01*
X0109829Y0172301D01*
X0110836Y0173308D01*
X0111381Y0174625D01*
X0111381Y0176049D01*
X0110836Y0177366D01*
X0109829Y0178373D01*
X0108512Y0178918D01*
X0107088Y0178918D01*
X0105771Y0178373D01*
X0104764Y0177366D01*
X0104219Y0176049D01*
X0104219Y0175999D01*
X0101057Y0172837D01*
X0077364Y0172837D01*
X0077329Y0172873D01*
X0076012Y0173418D01*
X0074588Y0173418D01*
X0073271Y0172873D01*
X0072264Y0171866D01*
X0071719Y0170549D01*
X0071719Y0169125D01*
X0072264Y0167808D01*
X0073271Y0166801D01*
X0074588Y0166256D01*
X0076012Y0166256D01*
X0077329Y0166801D01*
X0077364Y0166837D01*
X0102897Y0166837D01*
X0103999Y0167294D01*
X0102300Y0169837D02*
X0107800Y0175337D01*
X0110283Y0172755D02*
X0142395Y0172755D01*
X0142432Y0175154D02*
X0111381Y0175154D01*
X0110649Y0177552D02*
X0143559Y0177552D01*
X0146509Y0179951D02*
X0060300Y0179951D01*
X0060300Y0182349D02*
X0143468Y0182349D01*
X0142700Y0184748D02*
X0060300Y0184748D01*
X0058804Y0187146D02*
X0142980Y0187146D01*
X0140976Y0189545D02*
X0056406Y0189545D01*
X0058829Y0177552D02*
X0104951Y0177552D01*
X0103374Y0175154D02*
X0056430Y0175154D01*
X0057993Y0167958D02*
X0072202Y0167958D01*
X0071719Y0170357D02*
X0049089Y0170357D01*
X0046690Y0172755D02*
X0073154Y0172755D01*
X0075300Y0169837D02*
X0102300Y0169837D01*
X0107062Y0170357D02*
X0143389Y0170357D01*
X0161828Y0148770D02*
X0196950Y0148770D01*
X0196950Y0146372D02*
X0162900Y0146372D01*
X0162805Y0143973D02*
X0196950Y0143973D01*
X0196950Y0141574D02*
X0161498Y0141574D01*
X0160158Y0139176D02*
X0175479Y0139176D01*
X0175774Y0139391D02*
X0175045Y0138861D01*
X0174408Y0138224D01*
X0173879Y0137495D01*
X0173469Y0136692D01*
X0173191Y0135835D01*
X0173050Y0134945D01*
X0173050Y0134495D01*
X0182300Y0134495D01*
X0182300Y0140219D01*
X0178324Y0140219D01*
X0177434Y0140079D01*
X0176577Y0139800D01*
X0175774Y0139391D01*
X0173513Y0136777D02*
X0162548Y0136777D01*
X0163290Y0134379D02*
X0173050Y0134379D01*
X0173050Y0134494D02*
X0173050Y0134044D01*
X0173191Y0133154D01*
X0173469Y0132297D01*
X0173879Y0131494D01*
X0174408Y0130765D01*
X0175045Y0130128D01*
X0175774Y0129598D01*
X0176577Y0129189D01*
X0177434Y0128910D01*
X0178324Y0128769D01*
X0182300Y0128769D01*
X0186276Y0128769D01*
X0187166Y0128910D01*
X0188023Y0129189D01*
X0188826Y0129598D01*
X0189555Y0130128D01*
X0190192Y0130765D01*
X0190721Y0131494D01*
X0191131Y0132297D01*
X0191409Y0133154D01*
X0191550Y0134044D01*
X0191550Y0134494D01*
X0182300Y0134494D01*
X0182300Y0128769D01*
X0182300Y0134494D01*
X0182300Y0134494D01*
X0182300Y0134495D01*
X0182300Y0134495D01*
X0182300Y0140219D01*
X0186276Y0140219D01*
X0187166Y0140079D01*
X0188023Y0139800D01*
X0188826Y0139391D01*
X0189555Y0138861D01*
X0190192Y0138224D01*
X0190721Y0137495D01*
X0191131Y0136692D01*
X0191409Y0135835D01*
X0191550Y0134945D01*
X0191550Y0134495D01*
X0182300Y0134495D01*
X0182300Y0134494D01*
X0173050Y0134494D01*
X0173631Y0131980D02*
X0163011Y0131980D01*
X0161572Y0129582D02*
X0175806Y0129582D01*
X0182300Y0129582D02*
X0182300Y0129582D01*
X0182300Y0131980D02*
X0182300Y0131980D01*
X0182300Y0134379D02*
X0182300Y0134379D01*
X0182300Y0136777D02*
X0182300Y0136777D01*
X0182300Y0139176D02*
X0182300Y0139176D01*
X0189121Y0139176D02*
X0196950Y0139176D01*
X0196950Y0136777D02*
X0191087Y0136777D01*
X0191550Y0134379D02*
X0196950Y0134379D01*
X0196950Y0131980D02*
X0190969Y0131980D01*
X0188794Y0129582D02*
X0196950Y0129582D01*
X0196950Y0127183D02*
X0107300Y0127183D01*
X0107300Y0124785D02*
X0196950Y0124785D01*
X0196950Y0122386D02*
X0107300Y0122386D01*
X0107300Y0119988D02*
X0196950Y0119988D01*
X0196950Y0117589D02*
X0107300Y0117589D01*
X0107300Y0115191D02*
X0196950Y0115191D01*
X0196950Y0112792D02*
X0107300Y0112792D01*
X0107300Y0110394D02*
X0196950Y0110394D01*
X0196950Y0107995D02*
X0107300Y0107995D01*
X0107300Y0105597D02*
X0196950Y0105597D01*
X0196950Y0103198D02*
X0107300Y0103198D01*
X0107300Y0100800D02*
X0196950Y0100800D01*
X0196950Y0098401D02*
X0107300Y0098401D01*
X0107300Y0096003D02*
X0196950Y0096003D01*
X0196950Y0093604D02*
X0107300Y0093604D01*
X0107300Y0091206D02*
X0196950Y0091206D01*
X0196950Y0088807D02*
X0107300Y0088807D01*
X0107881Y0086409D02*
X0196950Y0086409D01*
X0196950Y0084010D02*
X0107038Y0084010D01*
X0104300Y0086337D02*
X0104300Y0133337D01*
X0107116Y0134379D02*
X0143310Y0134379D01*
X0143589Y0131980D02*
X0107300Y0131980D01*
X0107300Y0129582D02*
X0145028Y0129582D01*
X0144052Y0136777D02*
X0105102Y0136777D01*
X0102704Y0139176D02*
X0146442Y0139176D01*
X0153200Y0131980D02*
X0153400Y0131980D01*
X0153400Y0129582D02*
X0153200Y0129582D01*
X0173751Y0155966D02*
X0057242Y0155966D01*
X0059641Y0158364D02*
X0175429Y0158364D01*
X0189171Y0158364D02*
X0196950Y0158364D01*
X0196950Y0155966D02*
X0190849Y0155966D01*
X0191150Y0153567D02*
X0196950Y0153567D01*
X0196950Y0151169D02*
X0190342Y0151169D01*
X0196950Y0160763D02*
X0060300Y0160763D01*
X0060300Y0163161D02*
X0196950Y0163161D01*
X0196950Y0165560D02*
X0060300Y0165560D01*
X0048170Y0175154D02*
X0044292Y0175154D01*
X0045771Y0177552D02*
X0041893Y0177552D01*
X0039495Y0179951D02*
X0044300Y0179951D01*
X0044300Y0182349D02*
X0037096Y0182349D01*
X0036200Y0191943D02*
X0039456Y0191943D01*
X0037509Y0194342D02*
X0035857Y0194342D01*
X0036900Y0196740D02*
X0033705Y0196740D01*
X0031700Y0199139D02*
X0037273Y0199139D01*
X0038885Y0201537D02*
X0033762Y0201537D01*
X0026487Y0194342D02*
X0022462Y0194342D01*
X0023100Y0196740D02*
X0024900Y0196740D01*
X0024900Y0199139D02*
X0023100Y0199139D01*
X0028885Y0191943D02*
X0004500Y0191943D01*
X0008300Y0199837D02*
X0008300Y0203337D01*
X0036800Y0231837D01*
X0013560Y0203936D02*
X0013141Y0203936D01*
X0013100Y0201537D02*
X0013500Y0201537D01*
X0013500Y0199139D02*
X0013100Y0199139D01*
X0013100Y0196740D02*
X0013500Y0196740D01*
X0014138Y0194342D02*
X0012462Y0194342D01*
X0035300Y0134337D02*
X0032800Y0131837D01*
X0031300Y0131837D01*
X0004500Y0098401D02*
X0101300Y0098401D01*
X0101300Y0096003D02*
X0004500Y0096003D01*
X0004500Y0093604D02*
X0101300Y0093604D01*
X0101300Y0091206D02*
X0004500Y0091206D01*
X0004500Y0088807D02*
X0101300Y0088807D01*
X0100719Y0086409D02*
X0004500Y0086409D01*
X0004500Y0084010D02*
X0101562Y0084010D01*
X0116996Y0060753D02*
X0116320Y0060234D01*
X0115718Y0059632D01*
X0115199Y0058956D01*
X0114773Y0058218D01*
X0114447Y0057431D01*
X0114226Y0056608D01*
X0114115Y0055763D01*
X0114115Y0055337D01*
X0114115Y0054911D01*
X0114226Y0054066D01*
X0114447Y0053243D01*
X0114773Y0052456D01*
X0115199Y0051718D01*
X0115718Y0051042D01*
X0116320Y0050440D01*
X0116996Y0049921D01*
X0117734Y0049495D01*
X0118521Y0049169D01*
X0119344Y0048948D01*
X0120189Y0048837D01*
X0120615Y0048837D01*
X0121041Y0048837D01*
X0121886Y0048948D01*
X0122709Y0049169D01*
X0123496Y0049495D01*
X0124234Y0049921D01*
X0124910Y0050440D01*
X0125512Y0051042D01*
X0126031Y0051718D01*
X0126457Y0052456D01*
X0126783Y0053243D01*
X0127004Y0054066D01*
X0127115Y0054911D01*
X0127115Y0055337D01*
X0127115Y0055763D01*
X0127004Y0056608D01*
X0126783Y0057431D01*
X0126457Y0058218D01*
X0126031Y0058956D01*
X0125512Y0059632D01*
X0124910Y0060234D01*
X0124234Y0060753D01*
X0123496Y0061179D01*
X0122709Y0061505D01*
X0121886Y0061726D01*
X0121041Y0061837D01*
X0120615Y0061837D01*
X0120615Y0055337D01*
X0127115Y0055337D01*
X0120615Y0055337D01*
X0120615Y0055337D01*
X0120615Y0048837D01*
X0120615Y0055337D01*
X0120615Y0055337D01*
X0120615Y0055337D01*
X0114115Y0055337D01*
X0120615Y0055337D01*
X0120615Y0055337D01*
X0120615Y0061837D01*
X0120189Y0061837D01*
X0119344Y0061726D01*
X0118521Y0061505D01*
X0117734Y0061179D01*
X0116996Y0060753D01*
X0116111Y0060025D02*
X0084924Y0060025D01*
X0084440Y0060508D02*
X0086156Y0058792D01*
X0087085Y0056550D01*
X0087085Y0054124D01*
X0086156Y0051882D01*
X0084440Y0050166D01*
X0082198Y0049237D01*
X0079772Y0049237D01*
X0077530Y0050166D01*
X0075814Y0051882D01*
X0074885Y0054124D01*
X0074885Y0056550D01*
X0075814Y0058792D01*
X0077530Y0060508D01*
X0079772Y0061437D01*
X0082198Y0061437D01*
X0084440Y0060508D01*
X0086639Y0057627D02*
X0114528Y0057627D01*
X0114115Y0055228D02*
X0087085Y0055228D01*
X0086549Y0052830D02*
X0114618Y0052830D01*
X0116331Y0050431D02*
X0084706Y0050431D01*
X0077264Y0050431D02*
X0065021Y0050431D01*
X0064755Y0050166D02*
X0066471Y0051882D01*
X0067400Y0054124D01*
X0067400Y0056550D01*
X0066471Y0058792D01*
X0064755Y0060508D01*
X0062513Y0061437D01*
X0060087Y0061437D01*
X0057845Y0060508D01*
X0056129Y0058792D01*
X0055200Y0056550D01*
X0055200Y0054124D01*
X0056129Y0051882D01*
X0057845Y0050166D01*
X0060087Y0049237D01*
X0062513Y0049237D01*
X0064755Y0050166D01*
X0066864Y0052830D02*
X0075421Y0052830D01*
X0074885Y0055228D02*
X0067400Y0055228D01*
X0066954Y0057627D02*
X0075331Y0057627D01*
X0077046Y0060025D02*
X0065239Y0060025D01*
X0057361Y0060025D02*
X0046119Y0060025D01*
X0045910Y0060234D02*
X0045234Y0060753D01*
X0044496Y0061179D01*
X0043709Y0061505D01*
X0042886Y0061726D01*
X0042041Y0061837D01*
X0041615Y0061837D01*
X0041615Y0055337D01*
X0048115Y0055337D01*
X0048115Y0055763D01*
X0048004Y0056608D01*
X0047783Y0057431D01*
X0047457Y0058218D01*
X0047031Y0058956D01*
X0046512Y0059632D01*
X0045910Y0060234D01*
X0047702Y0057627D02*
X0055646Y0057627D01*
X0055200Y0055228D02*
X0048115Y0055228D01*
X0048115Y0055337D02*
X0041615Y0055337D01*
X0041615Y0055337D01*
X0041615Y0048837D01*
X0042041Y0048837D01*
X0042886Y0048948D01*
X0043709Y0049169D01*
X0044496Y0049495D01*
X0045234Y0049921D01*
X0045910Y0050440D01*
X0046512Y0051042D01*
X0047031Y0051718D01*
X0047457Y0052456D01*
X0047783Y0053243D01*
X0048004Y0054066D01*
X0048115Y0054911D01*
X0048115Y0055337D01*
X0047612Y0052830D02*
X0055736Y0052830D01*
X0057579Y0050431D02*
X0045899Y0050431D01*
X0041615Y0050431D02*
X0041615Y0050431D01*
X0041615Y0048837D02*
X0041615Y0055337D01*
X0041615Y0055337D01*
X0041615Y0055337D01*
X0035115Y0055337D01*
X0035115Y0054911D01*
X0035226Y0054066D01*
X0035447Y0053243D01*
X0035773Y0052456D01*
X0036199Y0051718D01*
X0036718Y0051042D01*
X0037320Y0050440D01*
X0037996Y0049921D01*
X0038734Y0049495D01*
X0039521Y0049169D01*
X0040344Y0048948D01*
X0041189Y0048837D01*
X0041615Y0048837D01*
X0041615Y0052830D02*
X0041615Y0052830D01*
X0041615Y0055228D02*
X0041615Y0055228D01*
X0041615Y0055337D02*
X0041615Y0055337D01*
X0035115Y0055337D01*
X0035115Y0055763D01*
X0035226Y0056608D01*
X0035447Y0057431D01*
X0035773Y0058218D01*
X0036199Y0058956D01*
X0036718Y0059632D01*
X0037320Y0060234D01*
X0037996Y0060753D01*
X0038734Y0061179D01*
X0039521Y0061505D01*
X0040344Y0061726D01*
X0041189Y0061837D01*
X0041615Y0061837D01*
X0041615Y0055337D01*
X0041615Y0057627D02*
X0041615Y0057627D01*
X0041615Y0060025D02*
X0041615Y0060025D01*
X0037111Y0060025D02*
X0018511Y0060025D01*
X0018925Y0059853D02*
X0015802Y0061147D01*
X0012420Y0061147D01*
X0009297Y0059853D01*
X0006906Y0057462D01*
X0005612Y0054339D01*
X0005612Y0050957D01*
X0006906Y0047834D01*
X0009297Y0045443D01*
X0012420Y0044149D01*
X0015802Y0044149D01*
X0018925Y0045443D01*
X0021316Y0047834D01*
X0022610Y0050957D01*
X0022610Y0054339D01*
X0021316Y0057462D01*
X0018925Y0059853D01*
X0021152Y0057627D02*
X0035528Y0057627D01*
X0035115Y0055228D02*
X0022242Y0055228D01*
X0022610Y0052830D02*
X0035618Y0052830D01*
X0037331Y0050431D02*
X0022392Y0050431D01*
X0021399Y0048033D02*
X0180052Y0048033D01*
X0180134Y0047834D02*
X0178840Y0050957D01*
X0178840Y0054339D01*
X0180134Y0057462D01*
X0182525Y0059853D01*
X0185649Y0061147D01*
X0189030Y0061147D01*
X0192154Y0059853D01*
X0194545Y0057462D01*
X0195839Y0054339D01*
X0195839Y0050957D01*
X0194545Y0047834D01*
X0192154Y0045443D01*
X0189030Y0044149D01*
X0185649Y0044149D01*
X0182525Y0045443D01*
X0180134Y0047834D01*
X0179058Y0050431D02*
X0163706Y0050431D01*
X0163440Y0050166D02*
X0165156Y0051882D01*
X0166085Y0054124D01*
X0166085Y0056550D01*
X0165156Y0058792D01*
X0163440Y0060508D01*
X0161198Y0061437D01*
X0158772Y0061437D01*
X0156530Y0060508D01*
X0154814Y0058792D01*
X0153885Y0056550D01*
X0153885Y0054124D01*
X0154814Y0051882D01*
X0156530Y0050166D01*
X0158772Y0049237D01*
X0161198Y0049237D01*
X0163440Y0050166D01*
X0165549Y0052830D02*
X0178840Y0052830D01*
X0179209Y0055228D02*
X0166085Y0055228D01*
X0165639Y0057627D02*
X0180298Y0057627D01*
X0182940Y0060025D02*
X0163924Y0060025D01*
X0156046Y0060025D02*
X0144239Y0060025D01*
X0143755Y0060508D02*
X0141513Y0061437D01*
X0139087Y0061437D01*
X0136845Y0060508D01*
X0135129Y0058792D01*
X0134200Y0056550D01*
X0134200Y0054124D01*
X0135129Y0051882D01*
X0136845Y0050166D01*
X0139087Y0049237D01*
X0141513Y0049237D01*
X0143755Y0050166D01*
X0145471Y0051882D01*
X0146400Y0054124D01*
X0146400Y0056550D01*
X0145471Y0058792D01*
X0143755Y0060508D01*
X0145954Y0057627D02*
X0154331Y0057627D01*
X0153885Y0055228D02*
X0146400Y0055228D01*
X0145864Y0052830D02*
X0154421Y0052830D01*
X0156264Y0050431D02*
X0144021Y0050431D01*
X0136579Y0050431D02*
X0124899Y0050431D01*
X0126612Y0052830D02*
X0134736Y0052830D01*
X0134200Y0055228D02*
X0127115Y0055228D01*
X0126702Y0057627D02*
X0134646Y0057627D01*
X0136361Y0060025D02*
X0125119Y0060025D01*
X0120615Y0060025D02*
X0120615Y0060025D01*
X0120615Y0057627D02*
X0120615Y0057627D01*
X0120615Y0055228D02*
X0120615Y0055228D01*
X0120615Y0052830D02*
X0120615Y0052830D01*
X0120615Y0050431D02*
X0120615Y0050431D01*
X0182334Y0045634D02*
X0019117Y0045634D01*
X0009105Y0045634D02*
X0004500Y0045634D01*
X0004500Y0043236D02*
X0196950Y0043236D01*
X0196950Y0045634D02*
X0192345Y0045634D01*
X0194627Y0048033D02*
X0196950Y0048033D01*
X0196950Y0050431D02*
X0195621Y0050431D01*
X0195839Y0052830D02*
X0196950Y0052830D01*
X0196950Y0055228D02*
X0195470Y0055228D01*
X0194380Y0057627D02*
X0196950Y0057627D01*
X0196950Y0060025D02*
X0191739Y0060025D01*
X0196950Y0062424D02*
X0004500Y0062424D01*
X0004500Y0064822D02*
X0196950Y0064822D01*
X0196950Y0067221D02*
X0004500Y0067221D01*
X0004500Y0069619D02*
X0196950Y0069619D01*
X0196950Y0072018D02*
X0004500Y0072018D01*
X0004500Y0074416D02*
X0196950Y0074416D01*
X0196950Y0076815D02*
X0004500Y0076815D01*
X0004500Y0079213D02*
X0196950Y0079213D01*
X0196950Y0081612D02*
X0004500Y0081612D01*
X0004500Y0060025D02*
X0009711Y0060025D01*
X0007070Y0057627D02*
X0004500Y0057627D01*
X0004500Y0055228D02*
X0005980Y0055228D01*
X0005612Y0052830D02*
X0004500Y0052830D01*
X0004500Y0050431D02*
X0005830Y0050431D01*
X0006823Y0048033D02*
X0004500Y0048033D01*
X0104300Y0195337D02*
X0105800Y0195337D01*
X0106300Y0195837D01*
X0075800Y0213837D02*
X0073300Y0213837D01*
D42*
X0073300Y0213837D03*
X0104300Y0195337D03*
X0107800Y0175337D03*
X0099300Y0147337D03*
X0094300Y0143337D03*
X0075300Y0169837D03*
X0059800Y0138837D03*
X0031300Y0131837D03*
X0104300Y0086337D03*
D43*
X0094800Y0087837D03*
X0078800Y0087837D03*
X0126800Y0087837D03*
X0158800Y0087837D03*
X0190800Y0087837D03*
D44*
X0189800Y0090337D01*
X0188800Y0089337D01*
X0161300Y0089337D02*
X0160800Y0087837D01*
X0158800Y0087837D01*
X0128800Y0088337D02*
X0127800Y0089337D01*
X0126800Y0087837D01*
X0094800Y0087837D02*
X0091800Y0087837D01*
X0091300Y0088337D01*
X0082800Y0088337D02*
X0078800Y0087837D01*
D45*
X0152300Y0185337D02*
X0152300Y0194180D01*
X0145957Y0194180D01*
X0133300Y0206837D01*
X0133300Y0223837D01*
X0152300Y0194180D02*
X0182300Y0194180D01*
D46*
X0052300Y0162337D02*
X0032800Y0181837D01*
X0032800Y0192837D01*
X0028300Y0197337D01*
X0028300Y0208735D01*
X0028402Y0208837D01*
M02*
