%
M48
M72
T01C0.02362
T02C0.03150
T03C0.03937
T04C0.04000
T05C0.04400
T06C0.04700
T07C0.04724
T08C0.05200
T09C0.12598
%
T01
X104300Y86337
X94300Y143337
X99300Y147337
X107800Y175337
X104300Y195337
X75300Y169837
X59800Y138837
X31300Y131837
X73300Y213837
T02
X47300Y220648
X28402Y208837
T03
X190800Y87837
X158800Y87837
X126800Y87837
X94800Y87837
X78800Y87837
X47300Y197026
T04
X143300Y223837
X133300Y223837
X123300Y223837
X18300Y199837
X8300Y199837
T05
X52300Y162337
X52300Y182337
T06
X182300Y134494
X182300Y154180
X182300Y174494
X182300Y194180
X19300Y183180
X19300Y163494
T07
X41615Y55337
X61300Y55337
X80985Y55337
X120615Y55337
X140300Y55337
X159985Y55337
T08
X152300Y185337
X152300Y173837
X153300Y145337
X153300Y133837
T09
X187339Y52648
X187339Y225876
X14111Y225876
X14111Y52648
M30
