G75*
G70*
%OFA0B0*%
%FSLAX24Y24*%
%IPPOS*%
%LPD*%
%AMOC8*
5,1,8,0,0,1.08239X$1,22.5*
%
%ADD10C,0.0710*%
%ADD11C,0.0640*%
%ADD12C,0.1000*%
%ADD13OC8,0.1000*%
%ADD14C,0.0120*%
%ADD15C,0.0436*%
%ADD16C,0.0197*%
D10*
X006748Y001470D02*
X006748Y002180D01*
X008716Y002180D02*
X008716Y001470D01*
X008716Y021730D02*
X008716Y022440D01*
X006748Y022440D02*
X006748Y021730D01*
D11*
X012912Y021285D02*
X013552Y021285D01*
X013552Y020285D02*
X012912Y020285D01*
X012912Y019285D02*
X013552Y019285D01*
X013552Y018285D02*
X012912Y018285D01*
X012912Y017285D02*
X013552Y017285D01*
D12*
X007232Y018785D03*
D13*
X007232Y016785D03*
D14*
X000412Y023602D02*
X000412Y000340D01*
X007799Y000340D01*
X007762Y000377D01*
X007761Y000379D01*
X007098Y001064D01*
X007051Y001016D01*
X006854Y000935D01*
X006641Y000935D01*
X006445Y001016D01*
X006294Y001167D01*
X006213Y001364D01*
X006213Y002286D01*
X006294Y002483D01*
X006445Y002634D01*
X006641Y002715D01*
X006854Y002715D01*
X007051Y002634D01*
X007201Y002483D01*
X007283Y002286D01*
X007283Y001673D01*
X008116Y000813D01*
X009242Y000813D01*
X009941Y001513D01*
X009894Y001559D01*
X009834Y001706D01*
X009834Y001864D01*
X009894Y002011D01*
X010006Y002123D01*
X010153Y002183D01*
X010311Y002183D01*
X010457Y002123D01*
X010569Y002011D01*
X010630Y001864D01*
X010630Y001706D01*
X010569Y001559D01*
X010510Y001500D01*
X010510Y001355D01*
X010468Y001252D01*
X009593Y000377D01*
X009556Y000340D01*
X015800Y000340D01*
X015800Y023602D01*
X000412Y023602D01*
X000412Y023505D02*
X015800Y023505D01*
X015800Y023386D02*
X015020Y023386D01*
X014960Y023411D02*
X014638Y023411D01*
X014340Y023288D01*
X014112Y023060D01*
X013989Y022762D01*
X013989Y022440D01*
X014112Y022142D01*
X014340Y021914D01*
X014638Y021791D01*
X014960Y021791D01*
X015258Y021914D01*
X015485Y022142D01*
X015609Y022440D01*
X015609Y022762D01*
X015485Y023060D01*
X015258Y023288D01*
X014960Y023411D01*
X015278Y023268D02*
X015800Y023268D01*
X015800Y023149D02*
X015396Y023149D01*
X015497Y023031D02*
X015800Y023031D01*
X015800Y022912D02*
X015547Y022912D01*
X015596Y022794D02*
X015800Y022794D01*
X015800Y022675D02*
X015609Y022675D01*
X015609Y022557D02*
X015800Y022557D01*
X015800Y022438D02*
X015608Y022438D01*
X015559Y022320D02*
X015800Y022320D01*
X015800Y022201D02*
X015510Y022201D01*
X015426Y022083D02*
X015800Y022083D01*
X015800Y021964D02*
X015307Y021964D01*
X015092Y021846D02*
X015800Y021846D01*
X015800Y021727D02*
X013791Y021727D01*
X013835Y021709D02*
X013651Y021785D01*
X012812Y021785D01*
X012629Y021709D01*
X012488Y021568D01*
X012412Y021384D01*
X012412Y021186D01*
X012488Y021002D01*
X012629Y020861D01*
X012812Y020785D01*
X012629Y020709D01*
X012488Y020568D01*
X012412Y020384D01*
X012412Y020186D01*
X012488Y020002D01*
X012629Y019861D01*
X012812Y019785D01*
X013651Y019785D01*
X013835Y019861D01*
X013976Y020002D01*
X014052Y020186D01*
X014052Y020384D01*
X013976Y020568D01*
X013835Y020709D01*
X013651Y020785D01*
X012812Y020785D01*
X013651Y020785D01*
X013835Y020861D01*
X013976Y021002D01*
X014052Y021186D01*
X014052Y021384D01*
X013976Y021568D01*
X013835Y021709D01*
X013935Y021609D02*
X015800Y021609D01*
X015800Y021490D02*
X014008Y021490D01*
X014052Y021372D02*
X015800Y021372D01*
X015800Y021253D02*
X014052Y021253D01*
X014031Y021135D02*
X015800Y021135D01*
X015800Y021016D02*
X013982Y021016D01*
X013871Y020898D02*
X015800Y020898D01*
X015800Y020779D02*
X013666Y020779D01*
X013883Y020661D02*
X015800Y020661D01*
X015800Y020542D02*
X013987Y020542D01*
X014036Y020424D02*
X015800Y020424D01*
X015800Y020305D02*
X014052Y020305D01*
X014052Y020187D02*
X015800Y020187D01*
X015800Y020068D02*
X014003Y020068D01*
X013923Y019950D02*
X015800Y019950D01*
X015800Y019831D02*
X013762Y019831D01*
X013736Y019730D02*
X013664Y019753D01*
X013590Y019765D01*
X013272Y019765D01*
X013272Y019325D01*
X014031Y019325D01*
X014020Y019397D01*
X013997Y019469D01*
X013962Y019537D01*
X013918Y019598D01*
X013865Y019651D01*
X013803Y019696D01*
X013736Y019730D01*
X013770Y019713D02*
X015800Y019713D01*
X015800Y019594D02*
X013921Y019594D01*
X013993Y019476D02*
X015800Y019476D01*
X015800Y019357D02*
X014026Y019357D01*
X014031Y019245D02*
X013272Y019245D01*
X013272Y019325D01*
X013192Y019325D01*
X013192Y019765D01*
X012874Y019765D01*
X012799Y019753D01*
X012728Y019730D01*
X012660Y019696D01*
X012599Y019651D01*
X012546Y019598D01*
X012501Y019537D01*
X012467Y019469D01*
X012444Y019397D01*
X012432Y019325D01*
X013192Y019325D01*
X013192Y019245D01*
X013272Y019245D01*
X013272Y018805D01*
X013590Y018805D01*
X013664Y018817D01*
X013736Y018840D01*
X013803Y018874D01*
X013865Y018919D01*
X013918Y018972D01*
X013962Y019033D01*
X013997Y019101D01*
X014020Y019173D01*
X014031Y019245D01*
X014030Y019239D02*
X015800Y019239D01*
X015800Y019120D02*
X014003Y019120D01*
X013939Y019002D02*
X015800Y019002D01*
X015800Y018883D02*
X013815Y018883D01*
X013701Y018765D02*
X015800Y018765D01*
X015800Y018646D02*
X013898Y018646D01*
X013835Y018709D02*
X013651Y018785D01*
X012812Y018785D01*
X012629Y018709D01*
X012488Y018568D01*
X012412Y018384D01*
X012412Y018186D01*
X012488Y018002D01*
X012629Y017861D01*
X012812Y017785D01*
X013651Y017785D01*
X013835Y017861D01*
X013976Y018002D01*
X014052Y018186D01*
X014052Y018384D01*
X013976Y018568D01*
X013835Y018709D01*
X013993Y018528D02*
X015800Y018528D01*
X015800Y018409D02*
X014042Y018409D01*
X014052Y018291D02*
X015800Y018291D01*
X015800Y018172D02*
X014046Y018172D01*
X013997Y018054D02*
X015800Y018054D01*
X015800Y017935D02*
X013909Y017935D01*
X013727Y017817D02*
X015800Y017817D01*
X015800Y017698D02*
X013846Y017698D01*
X013835Y017709D02*
X013651Y017785D01*
X012812Y017785D01*
X012629Y017709D01*
X012488Y017568D01*
X012412Y017384D01*
X012412Y017186D01*
X012488Y017002D01*
X012629Y016861D01*
X012812Y016785D01*
X013651Y016785D01*
X013835Y016861D01*
X013976Y017002D01*
X014052Y017186D01*
X014052Y017384D01*
X013976Y017568D01*
X013835Y017709D01*
X013964Y017580D02*
X015800Y017580D01*
X015800Y017461D02*
X014020Y017461D01*
X014052Y017343D02*
X015800Y017343D01*
X015800Y017224D02*
X014052Y017224D01*
X014019Y017106D02*
X015800Y017106D01*
X015800Y016987D02*
X013961Y016987D01*
X013842Y016869D02*
X015800Y016869D01*
X015800Y016750D02*
X012346Y016750D01*
X012319Y016684D02*
X012380Y016831D01*
X012380Y016989D01*
X012319Y017136D01*
X012207Y017248D01*
X012061Y017308D01*
X011903Y017308D01*
X011756Y017248D01*
X011644Y017136D01*
X011584Y016989D01*
X011584Y016906D01*
X009246Y014568D01*
X009203Y014465D01*
X009203Y006525D01*
X007242Y004563D01*
X007154Y004563D01*
X009015Y006424D01*
X009093Y006502D01*
X009135Y006605D01*
X009135Y018920D01*
X010102Y019887D01*
X010186Y019887D01*
X010332Y019947D01*
X010444Y020059D01*
X010505Y020206D01*
X010505Y020364D01*
X010444Y020511D01*
X010332Y020623D01*
X010186Y020683D01*
X010028Y020683D01*
X009881Y020623D01*
X009769Y020511D01*
X009709Y020364D01*
X009709Y020281D01*
X008621Y019193D01*
X008578Y019090D01*
X008578Y011864D01*
X008569Y011886D01*
X008510Y011945D01*
X008510Y019295D01*
X010102Y020887D01*
X010186Y020887D01*
X010332Y020947D01*
X010444Y021059D01*
X010505Y021206D01*
X010505Y021364D01*
X010444Y021511D01*
X010332Y021623D01*
X010186Y021683D01*
X010028Y021683D01*
X009881Y021623D01*
X009769Y021511D01*
X009709Y021364D01*
X009709Y021281D01*
X007996Y019568D01*
X007953Y019465D01*
X007953Y011945D01*
X007894Y011886D01*
X007834Y011739D01*
X007834Y011581D01*
X007894Y011434D01*
X008006Y011322D01*
X008153Y011262D01*
X008311Y011262D01*
X008457Y011322D01*
X008569Y011434D01*
X008578Y011456D01*
X008578Y006775D01*
X006867Y005063D01*
X006391Y005063D01*
X006332Y005123D01*
X006186Y005183D01*
X006028Y005183D01*
X005881Y005123D01*
X005769Y005011D01*
X005709Y004864D01*
X005709Y004827D01*
X005146Y005390D01*
X005153Y005387D01*
X005311Y005387D01*
X005457Y005447D01*
X005569Y005559D01*
X005630Y005706D01*
X005630Y005789D01*
X006468Y006627D01*
X006510Y006730D01*
X006510Y008659D01*
X006648Y008602D01*
X006806Y008602D01*
X006952Y008662D01*
X006953Y008664D01*
X006953Y007980D01*
X006996Y007877D01*
X007584Y007289D01*
X007584Y007206D01*
X007644Y007059D01*
X007756Y006947D01*
X007903Y006887D01*
X008061Y006887D01*
X008207Y006947D01*
X008319Y007059D01*
X008380Y007206D01*
X008380Y007364D01*
X008319Y007511D01*
X008207Y007623D01*
X008061Y007683D01*
X007977Y007683D01*
X007510Y008150D01*
X007510Y009000D01*
X007569Y009059D01*
X007630Y009206D01*
X007630Y009364D01*
X007569Y009511D01*
X007457Y009623D01*
X007311Y009683D01*
X007153Y009683D01*
X007010Y009624D01*
X007010Y009715D01*
X006968Y009818D01*
X006890Y009896D01*
X006515Y010271D01*
X006412Y010313D01*
X006051Y010313D01*
X005949Y010271D01*
X005581Y009903D01*
X005538Y009800D01*
X005538Y007313D01*
X004284Y006020D01*
X004246Y005983D01*
X004245Y005981D01*
X004244Y005979D01*
X004224Y005930D01*
X004203Y005880D01*
X004203Y005878D01*
X004203Y005876D01*
X004203Y005823D01*
X004203Y005605D01*
X004246Y005502D01*
X005621Y004127D01*
X005699Y004049D01*
X005801Y004007D01*
X007412Y004007D01*
X007515Y004049D01*
X009640Y006174D01*
X009718Y006252D01*
X009760Y006355D01*
X009760Y014295D01*
X011977Y016512D01*
X012061Y016512D01*
X012207Y016572D01*
X012319Y016684D01*
X012266Y016632D02*
X015800Y016632D01*
X015800Y016513D02*
X012064Y016513D01*
X011860Y016395D02*
X015800Y016395D01*
X015800Y016276D02*
X011742Y016276D01*
X011623Y016158D02*
X015800Y016158D01*
X015800Y016039D02*
X011505Y016039D01*
X011386Y015921D02*
X015800Y015921D01*
X015800Y015802D02*
X011268Y015802D01*
X011149Y015684D02*
X015800Y015684D01*
X015800Y015565D02*
X011031Y015565D01*
X010912Y015447D02*
X015800Y015447D01*
X015800Y015328D02*
X010794Y015328D01*
X010675Y015210D02*
X015800Y015210D01*
X015800Y015091D02*
X010557Y015091D01*
X010438Y014973D02*
X015800Y014973D01*
X015800Y014854D02*
X010320Y014854D01*
X010201Y014736D02*
X015800Y014736D01*
X015800Y014617D02*
X010083Y014617D01*
X009964Y014499D02*
X015800Y014499D01*
X015800Y014380D02*
X009846Y014380D01*
X009760Y014262D02*
X015800Y014262D01*
X015800Y014143D02*
X009760Y014143D01*
X009760Y014025D02*
X015800Y014025D01*
X015800Y013906D02*
X009760Y013906D01*
X009760Y013788D02*
X015800Y013788D01*
X015800Y013669D02*
X009760Y013669D01*
X009760Y013551D02*
X015800Y013551D01*
X015800Y013432D02*
X009760Y013432D01*
X009760Y013314D02*
X015800Y013314D01*
X015800Y013195D02*
X009760Y013195D01*
X009760Y013077D02*
X015800Y013077D01*
X015800Y012958D02*
X009760Y012958D01*
X009760Y012840D02*
X015800Y012840D01*
X015800Y012721D02*
X009760Y012721D01*
X009760Y012603D02*
X015800Y012603D01*
X015800Y012484D02*
X009760Y012484D01*
X009760Y012366D02*
X015800Y012366D01*
X015800Y012247D02*
X009760Y012247D01*
X009760Y012129D02*
X015800Y012129D01*
X015800Y012010D02*
X009760Y012010D01*
X009760Y011892D02*
X015800Y011892D01*
X015800Y011773D02*
X009760Y011773D01*
X009760Y011655D02*
X015800Y011655D01*
X015800Y011536D02*
X009760Y011536D01*
X009760Y011418D02*
X015800Y011418D01*
X015800Y011299D02*
X009760Y011299D01*
X009760Y011181D02*
X015800Y011181D01*
X015800Y011062D02*
X009760Y011062D01*
X009760Y010944D02*
X015800Y010944D01*
X015800Y010825D02*
X009760Y010825D01*
X009760Y010707D02*
X015800Y010707D01*
X015800Y010588D02*
X009760Y010588D01*
X009760Y010470D02*
X015800Y010470D01*
X015800Y010351D02*
X009760Y010351D01*
X009760Y010233D02*
X015800Y010233D01*
X015800Y010114D02*
X009760Y010114D01*
X009760Y009996D02*
X015800Y009996D01*
X015800Y009877D02*
X009760Y009877D01*
X009760Y009759D02*
X015800Y009759D01*
X015800Y009640D02*
X009760Y009640D01*
X009760Y009522D02*
X015800Y009522D01*
X015800Y009403D02*
X009760Y009403D01*
X009760Y009285D02*
X015800Y009285D01*
X015800Y009166D02*
X009760Y009166D01*
X009760Y009048D02*
X015800Y009048D01*
X015800Y008929D02*
X009760Y008929D01*
X009760Y008811D02*
X015800Y008811D01*
X015800Y008692D02*
X009760Y008692D01*
X009760Y008574D02*
X015800Y008574D01*
X015800Y008455D02*
X009760Y008455D01*
X009760Y008337D02*
X015800Y008337D01*
X015800Y008218D02*
X009760Y008218D01*
X009760Y008100D02*
X015800Y008100D01*
X015800Y007981D02*
X009760Y007981D01*
X009760Y007863D02*
X015800Y007863D01*
X015800Y007744D02*
X009760Y007744D01*
X009760Y007626D02*
X015800Y007626D01*
X015800Y007507D02*
X009760Y007507D01*
X009760Y007389D02*
X015800Y007389D01*
X015800Y007270D02*
X009760Y007270D01*
X009760Y007152D02*
X015800Y007152D01*
X015800Y007033D02*
X009760Y007033D01*
X009760Y006915D02*
X015800Y006915D01*
X015800Y006796D02*
X009760Y006796D01*
X009760Y006678D02*
X015800Y006678D01*
X015800Y006559D02*
X009760Y006559D01*
X009760Y006441D02*
X015800Y006441D01*
X015800Y006322D02*
X009747Y006322D01*
X009669Y006204D02*
X015800Y006204D01*
X015800Y006085D02*
X009551Y006085D01*
X009432Y005967D02*
X015800Y005967D01*
X015800Y005848D02*
X009314Y005848D01*
X009195Y005730D02*
X015800Y005730D01*
X015800Y005611D02*
X009077Y005611D01*
X008958Y005493D02*
X015800Y005493D01*
X015800Y005374D02*
X008840Y005374D01*
X008721Y005256D02*
X015800Y005256D01*
X015800Y005137D02*
X008603Y005137D01*
X008484Y005019D02*
X015800Y005019D01*
X015800Y004900D02*
X008366Y004900D01*
X008247Y004782D02*
X015800Y004782D01*
X015800Y004663D02*
X008129Y004663D01*
X008010Y004545D02*
X015800Y004545D01*
X015800Y004426D02*
X007892Y004426D01*
X007773Y004308D02*
X015800Y004308D01*
X015800Y004189D02*
X007655Y004189D01*
X007536Y004071D02*
X015800Y004071D01*
X015800Y003952D02*
X000412Y003952D01*
X000412Y003834D02*
X015800Y003834D01*
X015800Y003715D02*
X000412Y003715D01*
X000412Y003597D02*
X015800Y003597D01*
X015800Y003478D02*
X000412Y003478D01*
X000412Y003360D02*
X015800Y003360D01*
X015800Y003241D02*
X000412Y003241D01*
X000412Y003123D02*
X015800Y003123D01*
X015800Y003004D02*
X000412Y003004D01*
X000412Y002886D02*
X015800Y002886D01*
X015800Y002767D02*
X000412Y002767D01*
X000412Y002649D02*
X006481Y002649D01*
X006341Y002530D02*
X000412Y002530D01*
X000412Y002412D02*
X006264Y002412D01*
X006215Y002293D02*
X000412Y002293D01*
X000412Y002175D02*
X006213Y002175D01*
X006213Y002056D02*
X001803Y002056D01*
X001872Y002028D02*
X001574Y002151D01*
X001252Y002151D01*
X000954Y002028D01*
X000726Y001800D01*
X000603Y001502D01*
X000603Y001180D01*
X000726Y000882D01*
X000954Y000654D01*
X001252Y000531D01*
X001574Y000531D01*
X001872Y000654D01*
X002100Y000882D01*
X002223Y001180D01*
X002223Y001502D01*
X002100Y001800D01*
X001872Y002028D01*
X001962Y001938D02*
X006213Y001938D01*
X006213Y001819D02*
X002080Y001819D01*
X002141Y001701D02*
X006213Y001701D01*
X006213Y001582D02*
X002190Y001582D01*
X002223Y001464D02*
X006213Y001464D01*
X006220Y001345D02*
X002223Y001345D01*
X002223Y001227D02*
X006269Y001227D01*
X006353Y001108D02*
X002193Y001108D01*
X002144Y000990D02*
X006510Y000990D01*
X006986Y000990D02*
X007169Y000990D01*
X007284Y000871D02*
X002088Y000871D01*
X001970Y000753D02*
X007399Y000753D01*
X007514Y000634D02*
X001822Y000634D01*
X001004Y000634D02*
X000412Y000634D01*
X000412Y000516D02*
X007629Y000516D01*
X007744Y000397D02*
X000412Y000397D01*
X000412Y000753D02*
X000856Y000753D01*
X000738Y000871D02*
X000412Y000871D01*
X000412Y000990D02*
X000682Y000990D01*
X000633Y001108D02*
X000412Y001108D01*
X000412Y001227D02*
X000603Y001227D01*
X000603Y001345D02*
X000412Y001345D01*
X000412Y001464D02*
X000603Y001464D01*
X000636Y001582D02*
X000412Y001582D01*
X000412Y001701D02*
X000685Y001701D01*
X000745Y001819D02*
X000412Y001819D01*
X000412Y001938D02*
X000864Y001938D01*
X001022Y002056D02*
X000412Y002056D01*
X000412Y004071D02*
X005678Y004071D01*
X005559Y004189D02*
X000412Y004189D01*
X000412Y004308D02*
X005441Y004308D01*
X005322Y004426D02*
X000412Y004426D01*
X000412Y004545D02*
X005204Y004545D01*
X005085Y004663D02*
X000412Y004663D01*
X000412Y004782D02*
X004967Y004782D01*
X004848Y004900D02*
X000412Y004900D01*
X000412Y005019D02*
X004730Y005019D01*
X004611Y005137D02*
X000412Y005137D01*
X000412Y005256D02*
X004493Y005256D01*
X004374Y005374D02*
X000412Y005374D01*
X000412Y005493D02*
X004256Y005493D01*
X004203Y005611D02*
X000412Y005611D01*
X000412Y005730D02*
X004203Y005730D01*
X004203Y005848D02*
X000412Y005848D01*
X000412Y005967D02*
X004238Y005967D01*
X004346Y006085D02*
X000412Y006085D01*
X000412Y006204D02*
X004461Y006204D01*
X004576Y006322D02*
X000412Y006322D01*
X000412Y006441D02*
X004691Y006441D01*
X004806Y006559D02*
X000412Y006559D01*
X000412Y006678D02*
X004921Y006678D01*
X005037Y006796D02*
X000412Y006796D01*
X000412Y006915D02*
X005152Y006915D01*
X005267Y007033D02*
X000412Y007033D01*
X000412Y007152D02*
X005382Y007152D01*
X005497Y007270D02*
X000412Y007270D01*
X000412Y007389D02*
X005538Y007389D01*
X005538Y007507D02*
X000412Y007507D01*
X000412Y007626D02*
X005538Y007626D01*
X005538Y007744D02*
X000412Y007744D01*
X000412Y007863D02*
X005538Y007863D01*
X005538Y007981D02*
X000412Y007981D01*
X000412Y008100D02*
X005538Y008100D01*
X005538Y008218D02*
X000412Y008218D01*
X000412Y008337D02*
X005538Y008337D01*
X005538Y008455D02*
X000412Y008455D01*
X000412Y008574D02*
X005538Y008574D01*
X005538Y008692D02*
X000412Y008692D01*
X000412Y008811D02*
X005538Y008811D01*
X005538Y008929D02*
X000412Y008929D01*
X000412Y009048D02*
X005538Y009048D01*
X005538Y009166D02*
X000412Y009166D01*
X000412Y009285D02*
X005538Y009285D01*
X005538Y009403D02*
X000412Y009403D01*
X000412Y009522D02*
X005538Y009522D01*
X005538Y009640D02*
X000412Y009640D01*
X000412Y009759D02*
X005538Y009759D01*
X005570Y009877D02*
X000412Y009877D01*
X000412Y009996D02*
X005674Y009996D01*
X005792Y010114D02*
X000412Y010114D01*
X000412Y010233D02*
X005911Y010233D01*
X006553Y010233D02*
X008578Y010233D01*
X008578Y010351D02*
X000412Y010351D01*
X000412Y010470D02*
X008578Y010470D01*
X008578Y010588D02*
X000412Y010588D01*
X000412Y010707D02*
X008578Y010707D01*
X008578Y010825D02*
X000412Y010825D01*
X000412Y010944D02*
X008578Y010944D01*
X008578Y011062D02*
X000412Y011062D01*
X000412Y011181D02*
X008578Y011181D01*
X008578Y011299D02*
X008401Y011299D01*
X008552Y011418D02*
X008578Y011418D01*
X008563Y011892D02*
X008578Y011892D01*
X008578Y012010D02*
X008510Y012010D01*
X008510Y012129D02*
X008578Y012129D01*
X008578Y012247D02*
X008510Y012247D01*
X008510Y012366D02*
X008578Y012366D01*
X008578Y012484D02*
X008510Y012484D01*
X008510Y012603D02*
X008578Y012603D01*
X008578Y012721D02*
X008510Y012721D01*
X008510Y012840D02*
X008578Y012840D01*
X008578Y012958D02*
X008510Y012958D01*
X008510Y013077D02*
X008578Y013077D01*
X008578Y013195D02*
X008510Y013195D01*
X008510Y013314D02*
X008578Y013314D01*
X008578Y013432D02*
X008510Y013432D01*
X008510Y013551D02*
X008578Y013551D01*
X008578Y013669D02*
X008510Y013669D01*
X008510Y013788D02*
X008578Y013788D01*
X008578Y013906D02*
X008510Y013906D01*
X008510Y014025D02*
X008578Y014025D01*
X008578Y014143D02*
X008510Y014143D01*
X008510Y014262D02*
X008578Y014262D01*
X008578Y014380D02*
X008510Y014380D01*
X008510Y014499D02*
X008578Y014499D01*
X008578Y014617D02*
X008510Y014617D01*
X008510Y014736D02*
X008578Y014736D01*
X008578Y014854D02*
X008510Y014854D01*
X008510Y014973D02*
X008578Y014973D01*
X008578Y015091D02*
X008510Y015091D01*
X008510Y015210D02*
X008578Y015210D01*
X008578Y015328D02*
X008510Y015328D01*
X008510Y015447D02*
X008578Y015447D01*
X008578Y015565D02*
X008510Y015565D01*
X008510Y015684D02*
X008578Y015684D01*
X008578Y015802D02*
X008510Y015802D01*
X008510Y015921D02*
X008578Y015921D01*
X008578Y016039D02*
X008510Y016039D01*
X008510Y016158D02*
X008578Y016158D01*
X008578Y016276D02*
X008510Y016276D01*
X008510Y016395D02*
X008578Y016395D01*
X008578Y016513D02*
X008510Y016513D01*
X008510Y016632D02*
X008578Y016632D01*
X008578Y016750D02*
X008510Y016750D01*
X008510Y016869D02*
X008578Y016869D01*
X008578Y016987D02*
X008510Y016987D01*
X008510Y017106D02*
X008578Y017106D01*
X008578Y017224D02*
X008510Y017224D01*
X008510Y017343D02*
X008578Y017343D01*
X008578Y017461D02*
X008510Y017461D01*
X008510Y017580D02*
X008578Y017580D01*
X008578Y017698D02*
X008510Y017698D01*
X008510Y017817D02*
X008578Y017817D01*
X008578Y017935D02*
X008510Y017935D01*
X008510Y018054D02*
X008578Y018054D01*
X008578Y018172D02*
X008510Y018172D01*
X008510Y018291D02*
X008578Y018291D01*
X008578Y018409D02*
X008510Y018409D01*
X008510Y018528D02*
X008578Y018528D01*
X008578Y018646D02*
X008510Y018646D01*
X008510Y018765D02*
X008578Y018765D01*
X008578Y018883D02*
X008510Y018883D01*
X008510Y019002D02*
X008578Y019002D01*
X008591Y019120D02*
X008510Y019120D01*
X008510Y019239D02*
X008667Y019239D01*
X008573Y019357D02*
X008785Y019357D01*
X008691Y019476D02*
X008904Y019476D01*
X008810Y019594D02*
X009022Y019594D01*
X008928Y019713D02*
X009141Y019713D01*
X009047Y019831D02*
X009259Y019831D01*
X009165Y019950D02*
X009378Y019950D01*
X009284Y020068D02*
X009496Y020068D01*
X009402Y020187D02*
X009615Y020187D01*
X009521Y020305D02*
X009709Y020305D01*
X009733Y020424D02*
X009639Y020424D01*
X009758Y020542D02*
X009801Y020542D01*
X009876Y020661D02*
X009973Y020661D01*
X009995Y020779D02*
X012798Y020779D01*
X012592Y020898D02*
X010212Y020898D01*
X010241Y020661D02*
X012580Y020661D01*
X012477Y020542D02*
X010413Y020542D01*
X010480Y020424D02*
X012428Y020424D01*
X012412Y020305D02*
X010505Y020305D01*
X010497Y020187D02*
X012412Y020187D01*
X012461Y020068D02*
X010448Y020068D01*
X010334Y019950D02*
X012540Y019950D01*
X012701Y019831D02*
X010047Y019831D01*
X009928Y019713D02*
X012694Y019713D01*
X012543Y019594D02*
X009810Y019594D01*
X009691Y019476D02*
X012470Y019476D01*
X012437Y019357D02*
X009573Y019357D01*
X009454Y019239D02*
X012433Y019239D01*
X012432Y019245D02*
X012444Y019173D01*
X012467Y019101D01*
X012501Y019033D01*
X012546Y018972D01*
X012599Y018919D01*
X012660Y018874D01*
X012728Y018840D01*
X012799Y018817D01*
X012874Y018805D01*
X013192Y018805D01*
X013192Y019245D01*
X012432Y019245D01*
X012461Y019120D02*
X009336Y019120D01*
X009217Y019002D02*
X012524Y019002D01*
X012648Y018883D02*
X009135Y018883D01*
X009135Y018765D02*
X012763Y018765D01*
X012566Y018646D02*
X009135Y018646D01*
X009135Y018528D02*
X012471Y018528D01*
X012422Y018409D02*
X009135Y018409D01*
X009135Y018291D02*
X012412Y018291D01*
X012417Y018172D02*
X009135Y018172D01*
X009135Y018054D02*
X012467Y018054D01*
X012555Y017935D02*
X009135Y017935D01*
X009135Y017817D02*
X012736Y017817D01*
X012618Y017698D02*
X009135Y017698D01*
X009135Y017580D02*
X012499Y017580D01*
X012444Y017461D02*
X009135Y017461D01*
X009135Y017343D02*
X012412Y017343D01*
X012412Y017224D02*
X012231Y017224D01*
X012332Y017106D02*
X012445Y017106D01*
X012503Y016987D02*
X012380Y016987D01*
X012380Y016869D02*
X012621Y016869D01*
X011733Y017224D02*
X009135Y017224D01*
X009135Y017106D02*
X011632Y017106D01*
X011584Y016987D02*
X009135Y016987D01*
X009135Y016869D02*
X011547Y016869D01*
X011428Y016750D02*
X009135Y016750D01*
X009135Y016632D02*
X011310Y016632D01*
X011191Y016513D02*
X009135Y016513D01*
X009135Y016395D02*
X011073Y016395D01*
X010954Y016276D02*
X009135Y016276D01*
X009135Y016158D02*
X010836Y016158D01*
X010717Y016039D02*
X009135Y016039D01*
X009135Y015921D02*
X010599Y015921D01*
X010480Y015802D02*
X009135Y015802D01*
X009135Y015684D02*
X010362Y015684D01*
X010243Y015565D02*
X009135Y015565D01*
X009135Y015447D02*
X010125Y015447D01*
X010006Y015328D02*
X009135Y015328D01*
X009135Y015210D02*
X009888Y015210D01*
X009769Y015091D02*
X009135Y015091D01*
X009135Y014973D02*
X009651Y014973D01*
X009532Y014854D02*
X009135Y014854D01*
X009135Y014736D02*
X009414Y014736D01*
X009295Y014617D02*
X009135Y014617D01*
X009135Y014499D02*
X009217Y014499D01*
X009203Y014380D02*
X009135Y014380D01*
X009135Y014262D02*
X009203Y014262D01*
X009203Y014143D02*
X009135Y014143D01*
X009135Y014025D02*
X009203Y014025D01*
X009203Y013906D02*
X009135Y013906D01*
X009135Y013788D02*
X009203Y013788D01*
X009203Y013669D02*
X009135Y013669D01*
X009135Y013551D02*
X009203Y013551D01*
X009203Y013432D02*
X009135Y013432D01*
X009135Y013314D02*
X009203Y013314D01*
X009203Y013195D02*
X009135Y013195D01*
X009135Y013077D02*
X009203Y013077D01*
X009203Y012958D02*
X009135Y012958D01*
X009135Y012840D02*
X009203Y012840D01*
X009203Y012721D02*
X009135Y012721D01*
X009135Y012603D02*
X009203Y012603D01*
X009203Y012484D02*
X009135Y012484D01*
X009135Y012366D02*
X009203Y012366D01*
X009203Y012247D02*
X009135Y012247D01*
X009135Y012129D02*
X009203Y012129D01*
X009203Y012010D02*
X009135Y012010D01*
X009135Y011892D02*
X009203Y011892D01*
X009203Y011773D02*
X009135Y011773D01*
X009135Y011655D02*
X009203Y011655D01*
X009203Y011536D02*
X009135Y011536D01*
X009135Y011418D02*
X009203Y011418D01*
X009203Y011299D02*
X009135Y011299D01*
X009135Y011181D02*
X009203Y011181D01*
X009203Y011062D02*
X009135Y011062D01*
X009135Y010944D02*
X009203Y010944D01*
X009203Y010825D02*
X009135Y010825D01*
X009135Y010707D02*
X009203Y010707D01*
X009203Y010588D02*
X009135Y010588D01*
X009135Y010470D02*
X009203Y010470D01*
X009203Y010351D02*
X009135Y010351D01*
X009135Y010233D02*
X009203Y010233D01*
X009203Y010114D02*
X009135Y010114D01*
X009135Y009996D02*
X009203Y009996D01*
X009203Y009877D02*
X009135Y009877D01*
X009135Y009759D02*
X009203Y009759D01*
X009203Y009640D02*
X009135Y009640D01*
X009135Y009522D02*
X009203Y009522D01*
X009203Y009403D02*
X009135Y009403D01*
X009135Y009285D02*
X009203Y009285D01*
X009203Y009166D02*
X009135Y009166D01*
X009135Y009048D02*
X009203Y009048D01*
X009203Y008929D02*
X009135Y008929D01*
X009135Y008811D02*
X009203Y008811D01*
X009203Y008692D02*
X009135Y008692D01*
X009135Y008574D02*
X009203Y008574D01*
X009203Y008455D02*
X009135Y008455D01*
X009135Y008337D02*
X009203Y008337D01*
X009203Y008218D02*
X009135Y008218D01*
X009135Y008100D02*
X009203Y008100D01*
X009203Y007981D02*
X009135Y007981D01*
X009135Y007863D02*
X009203Y007863D01*
X009203Y007744D02*
X009135Y007744D01*
X009135Y007626D02*
X009203Y007626D01*
X009203Y007507D02*
X009135Y007507D01*
X009135Y007389D02*
X009203Y007389D01*
X009203Y007270D02*
X009135Y007270D01*
X009135Y007152D02*
X009203Y007152D01*
X009203Y007033D02*
X009135Y007033D01*
X009135Y006915D02*
X009203Y006915D01*
X009203Y006796D02*
X009135Y006796D01*
X009135Y006678D02*
X009203Y006678D01*
X009203Y006559D02*
X009116Y006559D01*
X009119Y006441D02*
X009031Y006441D01*
X009000Y006322D02*
X008913Y006322D01*
X008882Y006204D02*
X008794Y006204D01*
X008763Y006085D02*
X008676Y006085D01*
X008645Y005967D02*
X008557Y005967D01*
X008526Y005848D02*
X008439Y005848D01*
X008408Y005730D02*
X008320Y005730D01*
X008289Y005611D02*
X008202Y005611D01*
X008171Y005493D02*
X008083Y005493D01*
X008052Y005374D02*
X007965Y005374D01*
X007934Y005256D02*
X007846Y005256D01*
X007815Y005137D02*
X007728Y005137D01*
X007697Y005019D02*
X007609Y005019D01*
X007578Y004900D02*
X007491Y004900D01*
X007460Y004782D02*
X007372Y004782D01*
X007341Y004663D02*
X007254Y004663D01*
X006940Y005137D02*
X006297Y005137D01*
X005916Y005137D02*
X005399Y005137D01*
X005517Y005019D02*
X005777Y005019D01*
X005724Y004900D02*
X005636Y004900D01*
X005280Y005256D02*
X007059Y005256D01*
X007177Y005374D02*
X005162Y005374D01*
X005502Y005493D02*
X007296Y005493D01*
X007414Y005611D02*
X005591Y005611D01*
X005630Y005730D02*
X007533Y005730D01*
X007651Y005848D02*
X005689Y005848D01*
X005807Y005967D02*
X007770Y005967D01*
X007888Y006085D02*
X005926Y006085D01*
X006044Y006204D02*
X008007Y006204D01*
X008125Y006322D02*
X006163Y006322D01*
X006281Y006441D02*
X008244Y006441D01*
X008362Y006559D02*
X006400Y006559D01*
X006489Y006678D02*
X008481Y006678D01*
X008578Y006796D02*
X006510Y006796D01*
X006510Y006915D02*
X007836Y006915D01*
X007671Y007033D02*
X006510Y007033D01*
X006510Y007152D02*
X007606Y007152D01*
X007584Y007270D02*
X006510Y007270D01*
X006510Y007389D02*
X007485Y007389D01*
X007366Y007507D02*
X006510Y007507D01*
X006510Y007626D02*
X007248Y007626D01*
X007129Y007744D02*
X006510Y007744D01*
X006510Y007863D02*
X007011Y007863D01*
X006953Y007981D02*
X006510Y007981D01*
X006510Y008100D02*
X006953Y008100D01*
X006953Y008218D02*
X006510Y008218D01*
X006510Y008337D02*
X006953Y008337D01*
X006953Y008455D02*
X006510Y008455D01*
X006510Y008574D02*
X006953Y008574D01*
X007510Y008574D02*
X008578Y008574D01*
X008578Y008692D02*
X007510Y008692D01*
X007510Y008811D02*
X008578Y008811D01*
X008578Y008929D02*
X007510Y008929D01*
X007557Y009048D02*
X008578Y009048D01*
X008578Y009166D02*
X007613Y009166D01*
X007630Y009285D02*
X008578Y009285D01*
X008578Y009403D02*
X007614Y009403D01*
X007558Y009522D02*
X008578Y009522D01*
X008578Y009640D02*
X007415Y009640D01*
X007049Y009640D02*
X007010Y009640D01*
X006992Y009759D02*
X008578Y009759D01*
X008578Y009877D02*
X006909Y009877D01*
X006790Y009996D02*
X008578Y009996D01*
X008578Y010114D02*
X006672Y010114D01*
X007911Y011418D02*
X000412Y011418D01*
X000412Y011536D02*
X007852Y011536D01*
X007834Y011655D02*
X000412Y011655D01*
X000412Y011773D02*
X007848Y011773D01*
X007900Y011892D02*
X000412Y011892D01*
X000412Y012010D02*
X007953Y012010D01*
X007953Y012129D02*
X000412Y012129D01*
X000412Y012247D02*
X007953Y012247D01*
X007953Y012366D02*
X000412Y012366D01*
X000412Y012484D02*
X007953Y012484D01*
X007953Y012603D02*
X000412Y012603D01*
X000412Y012721D02*
X007953Y012721D01*
X007953Y012840D02*
X000412Y012840D01*
X000412Y012958D02*
X007953Y012958D01*
X007953Y013077D02*
X000412Y013077D01*
X000412Y013195D02*
X007953Y013195D01*
X007953Y013314D02*
X000412Y013314D01*
X000412Y013432D02*
X007953Y013432D01*
X007953Y013551D02*
X000412Y013551D01*
X000412Y013669D02*
X007953Y013669D01*
X007953Y013788D02*
X000412Y013788D01*
X000412Y013906D02*
X007953Y013906D01*
X007953Y014025D02*
X000412Y014025D01*
X000412Y014143D02*
X007953Y014143D01*
X007953Y014262D02*
X000412Y014262D01*
X000412Y014380D02*
X007953Y014380D01*
X007953Y014499D02*
X000412Y014499D01*
X000412Y014617D02*
X007953Y014617D01*
X007953Y014736D02*
X000412Y014736D01*
X000412Y014854D02*
X007953Y014854D01*
X007953Y014973D02*
X000412Y014973D01*
X000412Y015091D02*
X007953Y015091D01*
X007953Y015210D02*
X000412Y015210D01*
X000412Y015328D02*
X007953Y015328D01*
X007953Y015447D02*
X000412Y015447D01*
X000412Y015565D02*
X007953Y015565D01*
X007953Y015684D02*
X000412Y015684D01*
X000412Y015802D02*
X007953Y015802D01*
X007953Y015921D02*
X000412Y015921D01*
X000412Y016039D02*
X007953Y016039D01*
X007953Y016158D02*
X007538Y016158D01*
X007505Y016125D02*
X007892Y016512D01*
X007892Y016745D01*
X007272Y016745D01*
X007272Y016825D01*
X007892Y016825D01*
X007892Y017058D01*
X007505Y017445D01*
X007272Y017445D01*
X007272Y016825D01*
X007192Y016825D01*
X007192Y017445D01*
X006958Y017445D01*
X006572Y017058D01*
X006572Y016825D01*
X007192Y016825D01*
X007192Y016745D01*
X007272Y016745D01*
X007272Y016125D01*
X007505Y016125D01*
X007656Y016276D02*
X007953Y016276D01*
X007953Y016395D02*
X007775Y016395D01*
X007892Y016513D02*
X007953Y016513D01*
X007953Y016632D02*
X007892Y016632D01*
X007953Y016750D02*
X007272Y016750D01*
X007192Y016750D02*
X000412Y016750D01*
X000412Y016632D02*
X006572Y016632D01*
X006572Y016745D02*
X006572Y016512D01*
X006958Y016125D01*
X007192Y016125D01*
X007192Y016745D01*
X006572Y016745D01*
X006572Y016869D02*
X000412Y016869D01*
X000412Y016987D02*
X006572Y016987D01*
X006619Y017106D02*
X000412Y017106D01*
X000412Y017224D02*
X006738Y017224D01*
X006856Y017343D02*
X000412Y017343D01*
X000412Y017461D02*
X007953Y017461D01*
X007953Y017343D02*
X007608Y017343D01*
X007726Y017224D02*
X007953Y017224D01*
X007953Y017106D02*
X007845Y017106D01*
X007892Y016987D02*
X007953Y016987D01*
X007953Y016869D02*
X007892Y016869D01*
X007953Y017580D02*
X000412Y017580D01*
X000412Y017698D02*
X007953Y017698D01*
X007953Y017817D02*
X000412Y017817D01*
X000412Y017935D02*
X007953Y017935D01*
X007953Y018054D02*
X000412Y018054D01*
X000412Y018172D02*
X006935Y018172D01*
X006847Y018209D02*
X007097Y018105D01*
X007367Y018105D01*
X007617Y018209D01*
X007808Y018400D01*
X007912Y018650D01*
X007912Y018920D01*
X007808Y019170D01*
X007617Y019361D01*
X007367Y019465D01*
X007097Y019465D01*
X006847Y019361D01*
X006655Y019170D01*
X006552Y018920D01*
X006552Y018650D01*
X006655Y018400D01*
X006847Y018209D01*
X006765Y018291D02*
X000412Y018291D01*
X000412Y018409D02*
X006652Y018409D01*
X006602Y018528D02*
X000412Y018528D01*
X000412Y018646D02*
X006553Y018646D01*
X006552Y018765D02*
X000412Y018765D01*
X000412Y018883D02*
X006552Y018883D01*
X006586Y019002D02*
X000412Y019002D01*
X000412Y019120D02*
X006635Y019120D01*
X006724Y019239D02*
X000412Y019239D01*
X000412Y019357D02*
X006842Y019357D01*
X007621Y019357D02*
X007953Y019357D01*
X007953Y019239D02*
X007740Y019239D01*
X007829Y019120D02*
X007953Y019120D01*
X007953Y019002D02*
X007878Y019002D01*
X007912Y018883D02*
X007953Y018883D01*
X007953Y018765D02*
X007912Y018765D01*
X007910Y018646D02*
X007953Y018646D01*
X007953Y018528D02*
X007861Y018528D01*
X007812Y018409D02*
X007953Y018409D01*
X007953Y018291D02*
X007699Y018291D01*
X007529Y018172D02*
X007953Y018172D01*
X007272Y017343D02*
X007192Y017343D01*
X007192Y017224D02*
X007272Y017224D01*
X007272Y017106D02*
X007192Y017106D01*
X007192Y016987D02*
X007272Y016987D01*
X007272Y016869D02*
X007192Y016869D01*
X007192Y016632D02*
X007272Y016632D01*
X007272Y016513D02*
X007192Y016513D01*
X007192Y016395D02*
X007272Y016395D01*
X007272Y016276D02*
X007192Y016276D01*
X007192Y016158D02*
X007272Y016158D01*
X006926Y016158D02*
X000412Y016158D01*
X000412Y016276D02*
X006807Y016276D01*
X006689Y016395D02*
X000412Y016395D01*
X000412Y016513D02*
X006572Y016513D01*
X007958Y019476D02*
X000412Y019476D01*
X000412Y019594D02*
X008022Y019594D01*
X008141Y019713D02*
X000412Y019713D01*
X000412Y019831D02*
X008259Y019831D01*
X008378Y019950D02*
X000412Y019950D01*
X000412Y020068D02*
X008496Y020068D01*
X008615Y020187D02*
X000412Y020187D01*
X000412Y020305D02*
X008733Y020305D01*
X008852Y020424D02*
X000412Y020424D01*
X000412Y020542D02*
X008970Y020542D01*
X009089Y020661D02*
X000412Y020661D01*
X000412Y020779D02*
X009207Y020779D01*
X009326Y020898D02*
X000412Y020898D01*
X000412Y021016D02*
X009444Y021016D01*
X009563Y021135D02*
X000412Y021135D01*
X000412Y021253D02*
X006549Y021253D01*
X006550Y021253D02*
X006627Y021228D01*
X006690Y021218D01*
X006690Y022027D01*
X006805Y022027D01*
X006805Y021218D01*
X006868Y021228D01*
X006945Y021253D01*
X007018Y021290D01*
X007083Y021337D01*
X007140Y021394D01*
X007188Y021460D01*
X007225Y021532D01*
X007250Y021609D01*
X007263Y021689D01*
X007263Y022027D01*
X006805Y022027D01*
X006805Y022143D01*
X006690Y022143D01*
X006690Y022952D01*
X006627Y022942D01*
X006550Y022917D01*
X006478Y022880D01*
X006412Y022833D01*
X006355Y022775D01*
X006307Y022710D01*
X006270Y022638D01*
X006245Y022561D01*
X006233Y022481D01*
X006233Y022143D01*
X006690Y022143D01*
X006690Y022027D01*
X006233Y022027D01*
X006233Y021689D01*
X006245Y021609D01*
X006270Y021532D01*
X006307Y021460D01*
X006355Y021394D01*
X006412Y021337D01*
X006478Y021290D01*
X006550Y021253D01*
X006690Y021253D02*
X006805Y021253D01*
X006805Y021372D02*
X006690Y021372D01*
X006690Y021490D02*
X006805Y021490D01*
X006805Y021609D02*
X006690Y021609D01*
X006690Y021727D02*
X006805Y021727D01*
X006805Y021846D02*
X006690Y021846D01*
X006690Y021964D02*
X006805Y021964D01*
X006805Y022083D02*
X008181Y022083D01*
X008181Y022201D02*
X007263Y022201D01*
X007263Y022143D02*
X007263Y022481D01*
X007250Y022561D01*
X007225Y022638D01*
X007188Y022710D01*
X007140Y022775D01*
X007083Y022833D01*
X007018Y022880D01*
X006945Y022917D01*
X006868Y022942D01*
X006805Y022952D01*
X006805Y022143D01*
X007263Y022143D01*
X007263Y022320D02*
X008181Y022320D01*
X008181Y022438D02*
X007263Y022438D01*
X007251Y022557D02*
X008185Y022557D01*
X008181Y022546D02*
X008181Y021624D01*
X008263Y021427D01*
X008413Y021276D01*
X008610Y021195D01*
X008823Y021195D01*
X009019Y021276D01*
X009170Y021427D01*
X009251Y021624D01*
X009251Y022546D01*
X009170Y022743D01*
X009019Y022894D01*
X008823Y022975D01*
X008610Y022975D01*
X008413Y022894D01*
X008263Y022743D01*
X008181Y022546D01*
X008234Y022675D02*
X007206Y022675D01*
X007122Y022794D02*
X008313Y022794D01*
X008458Y022912D02*
X006956Y022912D01*
X006805Y022912D02*
X006690Y022912D01*
X006690Y022794D02*
X006805Y022794D01*
X006805Y022675D02*
X006690Y022675D01*
X006690Y022557D02*
X006805Y022557D01*
X006805Y022438D02*
X006690Y022438D01*
X006690Y022320D02*
X006805Y022320D01*
X006805Y022201D02*
X006690Y022201D01*
X006690Y022083D02*
X002040Y022083D01*
X002100Y022142D02*
X002223Y022440D01*
X002223Y022762D01*
X002100Y023060D01*
X001872Y023288D01*
X001574Y023411D01*
X001252Y023411D01*
X000954Y023288D01*
X000726Y023060D01*
X000603Y022762D01*
X000603Y022440D01*
X000726Y022142D01*
X000954Y021914D01*
X001252Y021791D01*
X001574Y021791D01*
X001872Y021914D01*
X002100Y022142D01*
X002124Y022201D02*
X006233Y022201D01*
X006233Y022320D02*
X002173Y022320D01*
X002222Y022438D02*
X006233Y022438D01*
X006245Y022557D02*
X002223Y022557D01*
X002223Y022675D02*
X006289Y022675D01*
X006373Y022794D02*
X002210Y022794D01*
X002161Y022912D02*
X006540Y022912D01*
X006233Y021964D02*
X001921Y021964D01*
X001706Y021846D02*
X006233Y021846D01*
X006233Y021727D02*
X000412Y021727D01*
X000412Y021609D02*
X006246Y021609D01*
X006292Y021490D02*
X000412Y021490D01*
X000412Y021372D02*
X006378Y021372D01*
X006946Y021253D02*
X008470Y021253D01*
X008318Y021372D02*
X007117Y021372D01*
X007203Y021490D02*
X008236Y021490D01*
X008187Y021609D02*
X007250Y021609D01*
X007263Y021727D02*
X008181Y021727D01*
X008181Y021846D02*
X007263Y021846D01*
X007263Y021964D02*
X008181Y021964D01*
X008963Y021253D02*
X009681Y021253D01*
X009712Y021372D02*
X009114Y021372D01*
X009196Y021490D02*
X009761Y021490D01*
X009867Y021609D02*
X009245Y021609D01*
X009251Y021727D02*
X012672Y021727D01*
X012528Y021609D02*
X010346Y021609D01*
X010453Y021490D02*
X012456Y021490D01*
X012412Y021372D02*
X010502Y021372D01*
X010505Y021253D02*
X012412Y021253D01*
X012433Y021135D02*
X010475Y021135D01*
X010401Y021016D02*
X012482Y021016D01*
X013192Y019713D02*
X013272Y019713D01*
X013272Y019594D02*
X013192Y019594D01*
X013192Y019476D02*
X013272Y019476D01*
X013272Y019357D02*
X013192Y019357D01*
X013192Y019239D02*
X013272Y019239D01*
X013272Y019120D02*
X013192Y019120D01*
X013192Y019002D02*
X013272Y019002D01*
X013272Y018883D02*
X013192Y018883D01*
X014506Y021846D02*
X009251Y021846D01*
X009251Y021964D02*
X014290Y021964D01*
X014172Y022083D02*
X009251Y022083D01*
X009251Y022201D02*
X014088Y022201D01*
X014039Y022320D02*
X009251Y022320D01*
X009251Y022438D02*
X013990Y022438D01*
X013989Y022557D02*
X009247Y022557D01*
X009198Y022675D02*
X013989Y022675D01*
X014002Y022794D02*
X009119Y022794D01*
X008974Y022912D02*
X014051Y022912D01*
X014100Y023031D02*
X002112Y023031D01*
X002010Y023149D02*
X014201Y023149D01*
X014320Y023268D02*
X001892Y023268D01*
X001634Y023386D02*
X014578Y023386D01*
X008063Y011299D02*
X000412Y011299D01*
X007015Y002649D02*
X008449Y002649D01*
X008413Y002634D02*
X008263Y002483D01*
X008181Y002286D01*
X008181Y001364D01*
X008263Y001167D01*
X008413Y001016D01*
X008610Y000935D01*
X008823Y000935D01*
X009019Y001016D01*
X009170Y001167D01*
X009251Y001364D01*
X009251Y002286D01*
X009170Y002483D01*
X009019Y002634D01*
X008823Y002715D01*
X008610Y002715D01*
X008413Y002634D01*
X008310Y002530D02*
X007154Y002530D01*
X007231Y002412D02*
X008233Y002412D01*
X008184Y002293D02*
X007280Y002293D01*
X007283Y002175D02*
X008181Y002175D01*
X008181Y002056D02*
X007283Y002056D01*
X007283Y001938D02*
X008181Y001938D01*
X008181Y001819D02*
X007283Y001819D01*
X007283Y001701D02*
X008181Y001701D01*
X008181Y001582D02*
X007371Y001582D01*
X007486Y001464D02*
X008181Y001464D01*
X008189Y001345D02*
X007600Y001345D01*
X007715Y001227D02*
X008238Y001227D01*
X008321Y001108D02*
X007830Y001108D01*
X007945Y000990D02*
X008478Y000990D01*
X008060Y000871D02*
X009299Y000871D01*
X009418Y000990D02*
X008954Y000990D01*
X009111Y001108D02*
X009536Y001108D01*
X009655Y001227D02*
X009194Y001227D01*
X009243Y001345D02*
X009773Y001345D01*
X009892Y001464D02*
X009251Y001464D01*
X009251Y001582D02*
X009885Y001582D01*
X009836Y001701D02*
X009251Y001701D01*
X009251Y001819D02*
X009834Y001819D01*
X009864Y001938D02*
X009251Y001938D01*
X009251Y002056D02*
X009940Y002056D01*
X010132Y002175D02*
X009251Y002175D01*
X009248Y002293D02*
X015800Y002293D01*
X015800Y002175D02*
X010332Y002175D01*
X010524Y002056D02*
X014408Y002056D01*
X014340Y002028D02*
X014112Y001800D01*
X013989Y001502D01*
X013989Y001180D01*
X014112Y000882D01*
X014340Y000654D01*
X014638Y000531D01*
X014960Y000531D01*
X015258Y000654D01*
X015485Y000882D01*
X015609Y001180D01*
X015609Y001502D01*
X015485Y001800D01*
X015258Y002028D01*
X014960Y002151D01*
X014638Y002151D01*
X014340Y002028D01*
X014250Y001938D02*
X010600Y001938D01*
X010630Y001819D02*
X014131Y001819D01*
X014071Y001701D02*
X010628Y001701D01*
X010579Y001582D02*
X014022Y001582D01*
X013989Y001464D02*
X010510Y001464D01*
X010506Y001345D02*
X013989Y001345D01*
X013989Y001227D02*
X010442Y001227D01*
X010324Y001108D02*
X014019Y001108D01*
X014068Y000990D02*
X010205Y000990D01*
X010087Y000871D02*
X014123Y000871D01*
X014242Y000753D02*
X009968Y000753D01*
X009850Y000634D02*
X014389Y000634D01*
X015208Y000634D02*
X015800Y000634D01*
X015800Y000516D02*
X009731Y000516D01*
X009613Y000397D02*
X015800Y000397D01*
X015800Y000753D02*
X015356Y000753D01*
X015474Y000871D02*
X015800Y000871D01*
X015800Y000990D02*
X015530Y000990D01*
X015579Y001108D02*
X015800Y001108D01*
X015800Y001227D02*
X015609Y001227D01*
X015609Y001345D02*
X015800Y001345D01*
X015800Y001464D02*
X015609Y001464D01*
X015576Y001582D02*
X015800Y001582D01*
X015800Y001701D02*
X015527Y001701D01*
X015466Y001819D02*
X015800Y001819D01*
X015800Y001938D02*
X015348Y001938D01*
X015189Y002056D02*
X015800Y002056D01*
X015800Y002412D02*
X009199Y002412D01*
X009123Y002530D02*
X015800Y002530D01*
X015800Y002649D02*
X008983Y002649D01*
X008578Y006915D02*
X008128Y006915D01*
X008293Y007033D02*
X008578Y007033D01*
X008578Y007152D02*
X008357Y007152D01*
X008380Y007270D02*
X008578Y007270D01*
X008578Y007389D02*
X008370Y007389D01*
X008321Y007507D02*
X008578Y007507D01*
X008578Y007626D02*
X008200Y007626D01*
X007917Y007744D02*
X008578Y007744D01*
X008578Y007863D02*
X007798Y007863D01*
X007680Y007981D02*
X008578Y007981D01*
X008578Y008100D02*
X007561Y008100D01*
X007510Y008218D02*
X008578Y008218D01*
X008578Y008337D02*
X007510Y008337D01*
X007510Y008455D02*
X008578Y008455D01*
X001120Y021846D02*
X000412Y021846D01*
X000412Y021964D02*
X000904Y021964D01*
X000786Y022083D02*
X000412Y022083D01*
X000412Y022201D02*
X000702Y022201D01*
X000653Y022320D02*
X000412Y022320D01*
X000412Y022438D02*
X000604Y022438D01*
X000603Y022557D02*
X000412Y022557D01*
X000412Y022675D02*
X000603Y022675D01*
X000616Y022794D02*
X000412Y022794D01*
X000412Y022912D02*
X000665Y022912D01*
X000714Y023031D02*
X000412Y023031D01*
X000412Y023149D02*
X000816Y023149D01*
X000934Y023268D02*
X000412Y023268D01*
X000412Y023386D02*
X001192Y023386D01*
D15*
X007232Y012785D03*
X008232Y011660D03*
X007232Y009285D03*
X006727Y009000D03*
X006232Y009285D03*
X005107Y008160D03*
X004607Y008160D03*
X004357Y008700D03*
X004482Y009200D03*
X004732Y009700D03*
X004982Y009200D03*
X005232Y005785D03*
X006107Y004785D03*
X007982Y007285D03*
X009982Y007410D03*
X010482Y007410D03*
X010982Y007410D03*
X011232Y006910D03*
X010982Y006285D03*
X010482Y006285D03*
X010232Y001785D03*
X011982Y016910D03*
X009857Y018160D03*
X010107Y020285D03*
X010107Y021285D03*
D16*
X008232Y019410D01*
X008232Y011660D01*
X007232Y012785D02*
X007232Y012910D01*
X007357Y013035D01*
X009482Y014410D02*
X011982Y016910D01*
X009982Y018660D02*
X009857Y018535D01*
X009857Y018160D01*
X008857Y019035D02*
X010107Y020285D01*
X008857Y019035D02*
X008857Y006660D01*
X006982Y004785D01*
X006107Y004785D01*
X005857Y004285D02*
X007357Y004285D01*
X009482Y006410D01*
X009482Y014410D01*
X006357Y010035D02*
X006732Y009660D01*
X006732Y009005D01*
X006727Y009000D01*
X006232Y009285D02*
X006232Y006785D01*
X005232Y005785D01*
X004482Y005825D02*
X004482Y005660D01*
X005857Y004285D01*
X004482Y005825D02*
X005817Y007200D01*
X005817Y009745D01*
X006107Y010035D01*
X006357Y010035D01*
X007232Y009285D02*
X007232Y008035D01*
X007982Y007285D01*
X006748Y001825D02*
X007998Y000535D01*
X009357Y000535D01*
X010232Y001410D01*
X010232Y001785D01*
M02*
