G75*
G70*
%OFA0B0*%
%FSLAX24Y24*%
%IPPOS*%
%LPD*%
%AMOC8*
5,1,8,0,0,1.08239X$1,22.5*
%
%ADD10C,0.0080*%
%ADD11C,0.0060*%
%ADD12R,0.1500X0.0100*%
%ADD13R,0.1800X0.0100*%
%ADD14R,0.1700X0.0100*%
%ADD15R,0.1600X0.0100*%
%ADD16R,0.1400X0.0100*%
%ADD17R,0.1300X0.0100*%
%ADD18R,0.1100X0.0100*%
%ADD19R,0.0400X0.0100*%
%ADD20R,0.2200X0.0100*%
%ADD21R,0.3300X0.0100*%
%ADD22R,0.3800X0.0100*%
%ADD23R,0.0300X0.0100*%
%ADD24R,0.3500X0.0100*%
%ADD25R,0.3600X0.0100*%
%ADD26R,0.3700X0.0100*%
%ADD27R,0.3400X0.0100*%
%ADD28R,0.3100X0.0100*%
%ADD29R,0.2900X0.0100*%
%ADD30R,0.2700X0.0100*%
%ADD31R,0.2500X0.0100*%
%ADD32R,0.2300X0.0100*%
%ADD33R,0.0500X0.0100*%
%ADD34R,0.1900X0.0100*%
%ADD35R,0.1200X0.0100*%
D10*
X000912Y004306D02*
X000912Y004767D01*
X001065Y004920D01*
X001679Y004920D01*
X001833Y004767D01*
X001833Y004306D01*
X000912Y004306D01*
X000912Y005227D02*
X000912Y005534D01*
X000912Y005380D02*
X001833Y005380D01*
X001833Y005227D02*
X001833Y005534D01*
X001833Y005841D02*
X001679Y005841D01*
X001372Y006148D01*
X000912Y006148D01*
X001372Y006148D02*
X001679Y006455D01*
X001833Y006455D01*
X001833Y006762D02*
X000912Y006762D01*
X000912Y007376D01*
X000912Y007682D02*
X000912Y007989D01*
X000912Y007836D02*
X001833Y007836D01*
X001833Y007682D01*
X001833Y007376D02*
X001833Y006762D01*
X001372Y006762D02*
X001372Y007069D01*
X001372Y008296D02*
X001065Y008296D01*
X000912Y008450D01*
X000912Y008757D01*
X001219Y008910D02*
X001219Y008296D01*
X001372Y008296D02*
X001526Y008450D01*
X001526Y008757D01*
X001372Y008910D01*
X001219Y008910D01*
X001372Y009217D02*
X001065Y009217D01*
X000912Y009371D01*
X000912Y009831D01*
X001065Y010291D02*
X000912Y010445D01*
X001065Y010291D02*
X001679Y010291D01*
X001526Y010138D02*
X001526Y010445D01*
X001526Y010752D02*
X000912Y010752D01*
X001219Y010752D02*
X001526Y011059D01*
X001526Y011212D01*
X001372Y011519D02*
X001065Y011519D01*
X000912Y011673D01*
X000912Y011979D01*
X001065Y012133D01*
X001372Y012133D01*
X001526Y011979D01*
X001526Y011673D01*
X001372Y011519D01*
X001526Y012440D02*
X000912Y012440D01*
X000912Y013054D02*
X001372Y013054D01*
X001526Y012900D01*
X001526Y012440D01*
X001526Y013361D02*
X001526Y013514D01*
X000912Y013514D01*
X000912Y013361D02*
X000912Y013668D01*
X001065Y013974D02*
X000912Y014128D01*
X000912Y014588D01*
X000912Y014895D02*
X000912Y015356D01*
X001065Y015509D01*
X001219Y015356D01*
X001219Y015049D01*
X001372Y014895D01*
X001526Y015049D01*
X001526Y015509D01*
X001065Y015816D02*
X001065Y015970D01*
X000912Y015970D01*
X000912Y015816D01*
X001065Y015816D01*
X001065Y016276D02*
X000912Y016430D01*
X000912Y016890D01*
X001065Y017197D02*
X000912Y017351D01*
X000912Y017658D01*
X001065Y017811D01*
X001372Y017811D01*
X001526Y017658D01*
X001526Y017351D01*
X001372Y017197D01*
X001065Y017197D01*
X001526Y016890D02*
X001526Y016430D01*
X001372Y016276D01*
X001065Y016276D01*
X001526Y014588D02*
X001526Y014128D01*
X001372Y013974D01*
X001065Y013974D01*
X001833Y013514D02*
X001986Y013514D01*
X002432Y013173D02*
X002432Y012713D01*
X002585Y012559D01*
X002739Y012713D01*
X002739Y013173D01*
X002892Y013173D02*
X002432Y013173D01*
X002892Y013173D02*
X003046Y013020D01*
X003046Y012713D01*
X003046Y012252D02*
X002432Y011638D01*
X002432Y012252D01*
X003046Y012252D02*
X003046Y011638D01*
X002585Y011331D02*
X002585Y011178D01*
X002432Y011178D01*
X002432Y011331D01*
X002585Y011331D01*
X002585Y010871D02*
X002892Y010871D01*
X003046Y010718D01*
X003046Y010411D01*
X002892Y010257D01*
X002585Y010257D01*
X002432Y010411D01*
X002432Y010718D01*
X002585Y010871D01*
X002432Y009950D02*
X002432Y009490D01*
X002585Y009336D01*
X002892Y009336D01*
X003046Y009490D01*
X003046Y009950D01*
X002585Y009030D02*
X002432Y009030D01*
X002432Y008876D01*
X002585Y008876D01*
X002585Y009030D01*
X002585Y008569D02*
X002432Y008416D01*
X002432Y008109D01*
X002585Y007955D01*
X002892Y007955D01*
X003046Y008109D01*
X003046Y008416D01*
X002892Y008569D01*
X002585Y008569D01*
X002585Y007648D02*
X002432Y007495D01*
X002432Y007034D01*
X003353Y007034D01*
X003046Y007034D02*
X003046Y007495D01*
X002892Y007648D01*
X002585Y007648D01*
X002432Y006728D02*
X002892Y006728D01*
X003046Y006574D01*
X002892Y006421D01*
X002432Y006421D01*
X002432Y006114D02*
X003046Y006114D01*
X003046Y006267D01*
X002892Y006421D01*
X002892Y005807D02*
X002432Y005807D01*
X002432Y005346D01*
X002585Y005193D01*
X002739Y005346D01*
X002739Y005807D01*
X002892Y005807D02*
X003046Y005653D01*
X003046Y005346D01*
X003199Y004886D02*
X002892Y004886D01*
X002739Y004733D01*
X002739Y004272D01*
X002739Y004579D02*
X002432Y004886D01*
X002432Y004272D02*
X003353Y004272D01*
X003353Y004733D01*
X003199Y004886D01*
X003965Y006227D02*
X003965Y006381D01*
X004118Y006534D01*
X004886Y006534D01*
X004886Y006074D01*
X004732Y005920D01*
X004425Y005920D01*
X004272Y006074D01*
X004272Y006534D01*
X004272Y006841D02*
X005193Y006841D01*
X004886Y006995D02*
X004886Y007302D01*
X004732Y007455D01*
X004272Y007455D01*
X004732Y006841D02*
X004886Y006995D01*
X004272Y005614D02*
X004272Y005307D01*
X004272Y005460D02*
X004886Y005460D01*
X004886Y005307D01*
X005193Y005460D02*
X005346Y005460D01*
X005193Y005000D02*
X004272Y005000D01*
X004272Y004386D02*
X005193Y004386D01*
X004732Y004386D02*
X004732Y005000D01*
X004579Y008683D02*
X004579Y009143D01*
X004732Y009297D01*
X005039Y009297D01*
X005193Y009143D01*
X005193Y008683D01*
X004272Y008683D01*
X004425Y009604D02*
X004272Y009757D01*
X004272Y010064D01*
X004425Y010217D01*
X004732Y010217D01*
X004886Y010064D01*
X004886Y009757D01*
X004732Y009604D01*
X004425Y009604D01*
X004425Y010524D02*
X004272Y010678D01*
X004425Y010831D01*
X004272Y010985D01*
X004425Y011138D01*
X004886Y011138D01*
X004732Y011445D02*
X004886Y011599D01*
X004886Y011906D01*
X004732Y012059D01*
X004579Y012059D01*
X004579Y011445D01*
X004732Y011445D02*
X004425Y011445D01*
X004272Y011599D01*
X004272Y011906D01*
X004272Y012366D02*
X004886Y012366D01*
X004886Y012673D02*
X004886Y012826D01*
X004886Y012673D02*
X004579Y012366D01*
X004732Y014054D02*
X004732Y014668D01*
X004732Y014975D02*
X004732Y015589D01*
X004732Y015896D02*
X004732Y016356D01*
X004579Y016510D01*
X004425Y016510D01*
X004272Y016356D01*
X004272Y015896D01*
X005193Y015896D01*
X005193Y016356D01*
X005039Y016510D01*
X004886Y016510D01*
X004732Y016356D01*
X004579Y016816D02*
X004886Y017123D01*
X004886Y017277D01*
X004886Y016816D02*
X004272Y016816D01*
X004272Y017584D02*
X004272Y017891D01*
X004272Y017737D02*
X004886Y017737D01*
X004886Y017584D01*
X005193Y017737D02*
X005346Y017737D01*
X004732Y018198D02*
X004886Y018351D01*
X004886Y018811D01*
X005193Y018811D02*
X004272Y018811D01*
X004272Y018351D01*
X004425Y018198D01*
X004732Y018198D01*
X004732Y019118D02*
X004425Y019118D01*
X004272Y019272D01*
X004272Y019732D01*
X004118Y019732D02*
X004886Y019732D01*
X004886Y019272D01*
X004732Y019118D01*
X004118Y019732D02*
X003965Y019579D01*
X003965Y019425D01*
X004425Y020039D02*
X004732Y020039D01*
X004886Y020193D01*
X004886Y020500D01*
X004732Y020653D01*
X004579Y020653D01*
X004579Y020039D01*
X004425Y020039D02*
X004272Y020193D01*
X004272Y020500D01*
X003233Y019600D02*
X002772Y019139D01*
X002772Y019753D01*
X002312Y019600D02*
X003233Y019600D01*
X003233Y018525D02*
X002312Y018525D01*
X002312Y018218D02*
X002312Y018832D01*
X002926Y018218D02*
X003233Y018525D01*
X003079Y017911D02*
X002465Y017298D01*
X002312Y017451D01*
X002312Y017758D01*
X002465Y017911D01*
X003079Y017911D01*
X003233Y017758D01*
X003233Y017451D01*
X003079Y017298D01*
X002465Y017298D01*
X002312Y016991D02*
X002312Y016377D01*
X002926Y016991D01*
X003079Y016991D01*
X003233Y016837D01*
X003233Y016530D01*
X003079Y016377D01*
X004272Y014668D02*
X005193Y014668D01*
X005193Y014054D02*
X004272Y014054D01*
X004425Y010524D02*
X004886Y010524D01*
X001526Y009831D02*
X001526Y009371D01*
X001372Y009217D01*
X001065Y018118D02*
X000912Y018118D01*
X000912Y018271D01*
X001065Y018271D01*
X001065Y018118D01*
X000912Y018578D02*
X000912Y019192D01*
X001065Y019499D02*
X000912Y019653D01*
X000912Y020113D01*
X001372Y020113D01*
X001526Y019960D01*
X001526Y019653D01*
X001219Y019653D02*
X001219Y020113D01*
X001219Y019653D02*
X001065Y019499D01*
X001526Y019192D02*
X000912Y018578D01*
X001526Y018578D02*
X001526Y019192D01*
D11*
X005682Y019185D02*
X006322Y019185D01*
X005682Y019612D01*
X006322Y019612D01*
X006322Y018968D02*
X006216Y018968D01*
X005789Y018541D01*
X005682Y018541D01*
X005682Y018968D01*
X006322Y018968D02*
X006322Y018541D01*
X006322Y018323D02*
X005895Y017896D01*
X006002Y018003D02*
X005682Y018323D01*
X005682Y017896D02*
X006322Y017896D01*
X006322Y017679D02*
X005789Y017679D01*
X005682Y017572D01*
X005682Y017359D01*
X005789Y017252D01*
X006322Y017252D01*
X006002Y016390D02*
X006002Y015963D01*
X006109Y015101D02*
X006109Y014780D01*
X006002Y014674D01*
X005789Y014674D01*
X005682Y014780D01*
X005682Y015101D01*
X006322Y015101D01*
X006109Y014457D02*
X006109Y014350D01*
X005895Y014136D01*
X005682Y014136D02*
X006109Y014136D01*
X006002Y013919D02*
X006109Y013812D01*
X006109Y013599D01*
X005895Y013599D02*
X005895Y013919D01*
X006002Y013919D02*
X005682Y013919D01*
X005682Y013599D01*
X005789Y013492D01*
X005895Y013599D01*
X005789Y013274D02*
X006002Y013274D01*
X006109Y013168D01*
X006109Y012954D01*
X006002Y012847D01*
X005789Y012847D01*
X005682Y012954D01*
X005682Y013168D01*
X005789Y013274D01*
X005789Y012630D02*
X006002Y012630D01*
X006109Y012523D01*
X006109Y012203D01*
X006322Y012203D02*
X005682Y012203D01*
X005682Y012523D01*
X005789Y012630D01*
X005682Y011342D02*
X005682Y011129D01*
X005682Y011235D02*
X006322Y011235D01*
X006322Y011129D01*
X006002Y010911D02*
X006109Y010804D01*
X006109Y010591D01*
X006002Y010484D01*
X005789Y010484D01*
X005682Y010591D01*
X005682Y010804D01*
X005789Y010911D01*
X006002Y010911D01*
X006109Y010267D02*
X006109Y010160D01*
X005895Y009947D01*
X005682Y009947D02*
X006109Y009947D01*
X006109Y009731D02*
X006109Y009517D01*
X006216Y009624D02*
X005789Y009624D01*
X005682Y009731D01*
X005682Y009300D02*
X006002Y009300D01*
X006109Y009193D01*
X006109Y008873D01*
X005682Y008873D01*
X005789Y008655D02*
X006002Y008655D01*
X006109Y008548D01*
X006109Y008335D01*
X006002Y008228D01*
X005789Y008228D01*
X005682Y008335D01*
X005682Y008548D01*
X005789Y008655D01*
X005789Y008011D02*
X005682Y007904D01*
X005682Y007690D01*
X005789Y007584D01*
X006216Y007584D01*
X006322Y007690D01*
X006322Y007904D01*
X006216Y008011D01*
D12*
X012532Y008960D03*
X012732Y009560D03*
X012832Y009760D03*
X012832Y009860D03*
X012832Y009960D03*
X012832Y010060D03*
D13*
X012582Y009060D03*
X012882Y013460D03*
D14*
X013232Y013360D03*
X012632Y009260D03*
X012632Y009160D03*
D15*
X012682Y009360D03*
X012682Y009460D03*
X012782Y009660D03*
D16*
X012882Y010160D03*
D17*
X012832Y010260D03*
X012832Y010360D03*
X012832Y010460D03*
X012832Y010560D03*
X012832Y010660D03*
X012832Y010760D03*
D18*
X012832Y010860D03*
D19*
X013182Y010960D03*
X011582Y013160D03*
X011382Y013060D03*
X011282Y012960D03*
X011182Y012860D03*
X011082Y012760D03*
X010982Y012660D03*
X010882Y012560D03*
X010782Y012360D03*
X010682Y012260D03*
X010582Y012060D03*
X010582Y011960D03*
X010582Y011660D03*
D20*
X011782Y011360D03*
D21*
X012132Y011460D03*
X012832Y011660D03*
X013232Y012660D03*
D22*
X012282Y011560D03*
D23*
X010832Y012460D03*
X010632Y012160D03*
X010532Y011860D03*
X010532Y011760D03*
D24*
X012932Y011760D03*
X013232Y012460D03*
D25*
X013182Y012360D03*
X013182Y012260D03*
X013082Y011960D03*
X012982Y011860D03*
D26*
X013132Y012060D03*
X013132Y012160D03*
D27*
X013182Y012560D03*
D28*
X013232Y012760D03*
D29*
X013232Y012860D03*
D30*
X013232Y012960D03*
D31*
X013232Y013060D03*
D32*
X013232Y013160D03*
D33*
X011932Y013360D03*
X011732Y013260D03*
D34*
X013232Y013260D03*
D35*
X012882Y013560D03*
M02*
