G75*
G70*
%OFA0B0*%
%FSLAX24Y24*%
%IPPOS*%
%LPD*%
%AMOC8*
5,1,8,0,0,1.08239X$1,22.5*
%
%ADD10R,0.0945X0.0945*%
%ADD11R,0.0512X0.0591*%
%ADD12R,0.0472X0.0472*%
%ADD13R,0.0591X0.0512*%
%ADD14R,0.0551X0.0394*%
%ADD15R,0.0394X0.0551*%
%ADD16R,0.2441X0.2126*%
%ADD17R,0.0630X0.0394*%
D10*
X002866Y010785D03*
X004598Y010785D03*
X004598Y016285D03*
X002866Y016285D03*
X010866Y010785D03*
X012598Y010785D03*
X012598Y005285D03*
X010866Y005285D03*
D11*
X010897Y001785D03*
X011566Y001785D03*
X004566Y001785D03*
X003897Y001785D03*
X010397Y015785D03*
X011066Y015785D03*
X012397Y015785D03*
X013066Y015785D03*
X011566Y018785D03*
X010897Y018785D03*
X010897Y020285D03*
X011566Y020285D03*
X011566Y021285D03*
X010897Y021285D03*
D12*
X003818Y002785D03*
X004645Y002785D03*
X010818Y002785D03*
X011645Y002785D03*
X003112Y021947D03*
X003112Y022773D03*
D13*
X004152Y022615D03*
X004152Y021945D03*
X006232Y013620D03*
X006232Y012950D03*
X006232Y010620D03*
X006232Y009950D03*
X007232Y009950D03*
X007232Y010620D03*
X008232Y010620D03*
X008232Y009950D03*
X009232Y009950D03*
X009232Y010620D03*
X009232Y008620D03*
X009232Y007950D03*
X005982Y006495D03*
X005982Y005825D03*
D14*
X006799Y005159D03*
X006799Y004411D03*
X007665Y004785D03*
X007174Y007786D03*
X007174Y008534D03*
X008040Y008160D03*
X007165Y011411D03*
X007165Y012159D03*
X006299Y011785D03*
D15*
X006858Y006718D03*
X007232Y005852D03*
X007606Y006718D03*
X008858Y005852D03*
X009232Y006718D03*
X009606Y005852D03*
X010732Y016852D03*
X011106Y017718D03*
X010358Y017718D03*
D16*
X013216Y013785D03*
X013216Y007785D03*
X002248Y007785D03*
X002248Y013785D03*
D17*
X005122Y012887D03*
X005122Y014683D03*
X005122Y008683D03*
X005122Y006887D03*
X010342Y006887D03*
X010342Y008683D03*
X010342Y012887D03*
X010342Y014683D03*
M02*
