%
M48
M72
T01C0.0236
T02C0.0400
T03C0.0470
T04C0.1260
%
T01
X5232Y5785
X6107Y4785
X7982Y7285
X6727Y9000
X6232Y9285
X7232Y9285
X8232Y11660
X7232Y12785
X4732Y9700
X4982Y9200
X4482Y9200
X4357Y8700
X4607Y8160
X5107Y8160
X9982Y7410
X10482Y7410
X10982Y7410
X11232Y6910
X10982Y6285
X10482Y6285
X10232Y1785
X11982Y16910
X9857Y18160
X10107Y20285
X10107Y21285
T02
X7232Y18785
X7232Y16785
X13232Y17285
X13232Y18285
X13232Y19285
X13232Y20285
X13232Y21285
T03
X8716Y22085
X6748Y22085
X6748Y1825
X8716Y1825
T04
X1413Y1341
X14799Y1341
X14799Y22601
X1413Y22601
M30
