G75*
G70*
%OFA0B0*%
%FSLAX24Y24*%
%IPPOS*%
%LPD*%
%AMOC8*
5,1,8,0,0,1.08239X$1,22.5*
%
%ADD10C,0.0050*%
%ADD11C,0.0060*%
%ADD12C,0.0040*%
%ADD13C,0.0080*%
%ADD14R,0.0118X0.0059*%
%ADD15R,0.0118X0.0118*%
%ADD16R,0.0900X0.0250*%
%ADD17R,0.0300X0.0340*%
%ADD18R,0.0059X0.0118*%
%ADD19C,0.0030*%
D10*
X004083Y000655D02*
X004158Y000580D01*
X004308Y000580D01*
X004383Y000655D01*
X004383Y000955D01*
X004308Y001030D01*
X004158Y001030D01*
X004083Y000955D01*
X004083Y000655D01*
X004543Y000655D02*
X004543Y001030D01*
X004843Y001030D02*
X004843Y000655D01*
X004768Y000580D01*
X004618Y000580D01*
X004543Y000655D01*
X005003Y001030D02*
X005304Y001030D01*
X005154Y001030D02*
X005154Y000580D01*
X005973Y002600D02*
X006273Y002600D01*
X006123Y002600D02*
X006123Y003050D01*
X005973Y002900D01*
X007923Y002975D02*
X007998Y003050D01*
X008148Y003050D01*
X008223Y002975D01*
X008223Y002900D01*
X007923Y002600D01*
X008223Y002600D01*
X014057Y017060D02*
X013906Y017210D01*
X014357Y017210D01*
X014357Y017060D02*
X014357Y017360D01*
X012482Y021060D02*
X012557Y021135D01*
X012557Y021285D01*
X012482Y021360D01*
X012332Y021360D01*
X012257Y021285D01*
X012257Y021210D01*
X012332Y021060D01*
X012106Y021060D01*
X012106Y021360D01*
X012597Y021878D02*
X012522Y021953D01*
X012597Y021878D02*
X012747Y021878D01*
X012823Y021953D01*
X012823Y022028D01*
X012747Y022103D01*
X012597Y022103D01*
X012522Y022178D01*
X012522Y022253D01*
X012597Y022328D01*
X012747Y022328D01*
X012823Y022253D01*
X012983Y022328D02*
X013133Y022328D01*
X013058Y022328D02*
X013058Y021878D01*
X012983Y021878D02*
X013133Y021878D01*
X013290Y021953D02*
X013290Y022253D01*
X013365Y022328D01*
X013515Y022328D01*
X013590Y022253D01*
X013590Y022103D02*
X013440Y022103D01*
X013590Y022103D02*
X013590Y021953D01*
X013515Y021878D01*
X013365Y021878D01*
X013290Y021953D01*
X009381Y020860D02*
X009081Y020860D01*
X009231Y020860D02*
X009231Y021310D01*
X009081Y021160D01*
X007431Y021160D02*
X007431Y021235D01*
X007356Y021310D01*
X007206Y021310D01*
X007131Y021235D01*
X007431Y021160D02*
X007131Y020860D01*
X007431Y020860D01*
X005618Y020854D02*
X005468Y021004D01*
X005618Y021154D01*
X005168Y021154D01*
X005168Y021314D02*
X005168Y021539D01*
X005243Y021614D01*
X005393Y021614D01*
X005468Y021539D01*
X005468Y021314D01*
X005618Y021314D02*
X005168Y021314D01*
X005468Y021464D02*
X005618Y021614D01*
X005618Y021775D02*
X005618Y021925D01*
X005618Y021850D02*
X005168Y021850D01*
X005168Y021775D02*
X005168Y021925D01*
X005168Y022082D02*
X005618Y022382D01*
X005168Y022382D01*
X005168Y022082D02*
X005618Y022082D01*
X005618Y020854D02*
X005168Y020854D01*
X005243Y020694D02*
X005168Y020619D01*
X005168Y020393D01*
X005618Y020393D01*
X005468Y020393D02*
X005468Y020619D01*
X005393Y020694D01*
X005243Y020694D01*
X005194Y020356D02*
X005398Y020152D01*
X005398Y019745D01*
X005398Y020050D02*
X004991Y020050D01*
X004991Y020152D02*
X005194Y020356D01*
X004991Y020152D02*
X004991Y019745D01*
X004790Y019847D02*
X004688Y019745D01*
X004485Y019745D01*
X004383Y019847D01*
X004790Y020254D01*
X004790Y019847D01*
X004790Y020254D02*
X004688Y020356D01*
X004485Y020356D01*
X004383Y020254D01*
X004383Y019847D01*
X004182Y019745D02*
X003775Y019745D01*
X003979Y019745D02*
X003979Y020356D01*
X003775Y020152D01*
X003879Y019396D02*
X003879Y018785D01*
X003573Y018785D01*
X003472Y018887D01*
X003472Y019090D01*
X003573Y019192D01*
X003879Y019192D01*
X004079Y019090D02*
X004079Y018887D01*
X004181Y018785D01*
X004486Y018785D01*
X004486Y018683D02*
X004486Y019192D01*
X004181Y019192D01*
X004079Y019090D01*
X004283Y018581D02*
X004385Y018581D01*
X004486Y018683D01*
X004687Y018887D02*
X004687Y019090D01*
X004789Y019192D01*
X004992Y019192D01*
X005094Y019090D01*
X005094Y018989D01*
X004687Y018989D01*
X004687Y018887D02*
X004789Y018785D01*
X004992Y018785D01*
X003980Y018170D02*
X003980Y018069D01*
X003573Y018069D01*
X003573Y018170D02*
X003675Y018272D01*
X003878Y018272D01*
X003980Y018170D01*
X003878Y017865D02*
X003675Y017865D01*
X003573Y017967D01*
X003573Y018170D01*
X003371Y017865D02*
X003168Y017865D01*
X003269Y017865D02*
X003269Y018476D01*
X003168Y018476D01*
X002967Y018272D02*
X002967Y017865D01*
X002662Y017865D01*
X002560Y017967D01*
X002560Y018272D01*
X002359Y018272D02*
X002054Y018272D01*
X001952Y018170D01*
X001952Y017967D01*
X002054Y017865D01*
X002359Y017865D01*
X002359Y018476D01*
X002258Y018785D02*
X001952Y018785D01*
X001952Y019396D01*
X002258Y019396D01*
X002359Y019294D01*
X002359Y019192D01*
X002258Y019090D01*
X001952Y019090D01*
X002258Y019090D02*
X002359Y018989D01*
X002359Y018887D01*
X002258Y018785D01*
X002560Y018785D02*
X002560Y019192D01*
X002560Y018989D02*
X002764Y019192D01*
X002865Y019192D01*
X003066Y019192D02*
X003168Y019192D01*
X003168Y018785D01*
X003066Y018785D02*
X003270Y018785D01*
X003168Y019396D02*
X003168Y019497D01*
X002764Y019847D02*
X002764Y020254D01*
X002967Y020050D02*
X002560Y020050D01*
X002359Y019949D02*
X002359Y020356D01*
X002359Y019949D02*
X002156Y019745D01*
X001952Y019949D01*
X001952Y020356D01*
X001650Y020356D02*
X001650Y019745D01*
X001752Y020050D02*
X001345Y020050D01*
X001650Y020356D01*
X001144Y020254D02*
X001144Y020152D01*
X000737Y019745D01*
X001144Y019745D01*
X001144Y019396D02*
X001144Y018785D01*
X001144Y019090D02*
X000737Y019090D01*
X000737Y018785D02*
X000737Y019396D01*
X001345Y019090D02*
X001752Y019090D01*
X001650Y018272D02*
X001446Y018272D01*
X001345Y018170D01*
X001345Y017967D01*
X001446Y017865D01*
X001650Y017865D01*
X001752Y017967D01*
X001752Y018170D01*
X001650Y018272D01*
X001144Y018476D02*
X001144Y017865D01*
X000940Y018272D02*
X001144Y018476D01*
X000940Y018272D02*
X000737Y018476D01*
X000737Y017865D01*
X000737Y020254D02*
X000839Y020356D01*
X001042Y020356D01*
X001144Y020254D01*
D11*
X005766Y020195D02*
X005766Y020115D01*
X009696Y020115D01*
X009696Y020195D01*
X005766Y020195D01*
X005766Y022795D01*
X005766Y023735D01*
X009696Y023735D01*
X009696Y022795D01*
X009696Y020195D01*
X008516Y020715D02*
X008518Y020743D01*
X008524Y020770D01*
X008533Y020796D01*
X008546Y020821D01*
X008563Y020844D01*
X008582Y020864D01*
X008604Y020881D01*
X008628Y020895D01*
X008654Y020905D01*
X008681Y020912D01*
X008709Y020915D01*
X008737Y020914D01*
X008764Y020909D01*
X008791Y020900D01*
X008816Y020888D01*
X008839Y020873D01*
X008860Y020854D01*
X008878Y020833D01*
X008893Y020809D01*
X008904Y020783D01*
X008912Y020757D01*
X008916Y020729D01*
X008916Y020701D01*
X008912Y020673D01*
X008904Y020647D01*
X008893Y020621D01*
X008878Y020597D01*
X008860Y020576D01*
X008839Y020557D01*
X008816Y020542D01*
X008791Y020530D01*
X008764Y020521D01*
X008737Y020516D01*
X008709Y020515D01*
X008681Y020518D01*
X008654Y020525D01*
X008628Y020535D01*
X008604Y020549D01*
X008582Y020566D01*
X008563Y020586D01*
X008546Y020609D01*
X008533Y020634D01*
X008524Y020660D01*
X008518Y020687D01*
X008516Y020715D01*
X007732Y019435D02*
X007732Y019135D01*
X007882Y019285D02*
X007582Y019285D01*
X007232Y018235D02*
X007232Y018135D01*
X007682Y018135D01*
X007682Y017885D01*
X006782Y017885D01*
X006782Y018135D01*
X007232Y018135D01*
X005232Y017785D02*
X005234Y017883D01*
X005242Y017981D01*
X005254Y018078D01*
X005270Y018175D01*
X005292Y018271D01*
X005318Y018366D01*
X005349Y018459D01*
X005384Y018550D01*
X005424Y018640D01*
X005468Y018728D01*
X005517Y018813D01*
X005569Y018896D01*
X005626Y018976D01*
X005686Y019054D01*
X005750Y019128D01*
X005818Y019199D01*
X005889Y019267D01*
X005963Y019331D01*
X006041Y019391D01*
X006121Y019448D01*
X006204Y019500D01*
X006289Y019549D01*
X006377Y019593D01*
X006467Y019633D01*
X006558Y019668D01*
X006651Y019699D01*
X006746Y019725D01*
X006842Y019747D01*
X006939Y019763D01*
X007036Y019775D01*
X007134Y019783D01*
X007232Y019785D01*
X007330Y019783D01*
X007428Y019775D01*
X007525Y019763D01*
X007622Y019747D01*
X007718Y019725D01*
X007813Y019699D01*
X007906Y019668D01*
X007997Y019633D01*
X008087Y019593D01*
X008175Y019549D01*
X008260Y019500D01*
X008343Y019448D01*
X008423Y019391D01*
X008501Y019331D01*
X008575Y019267D01*
X008646Y019199D01*
X008714Y019128D01*
X008778Y019054D01*
X008838Y018976D01*
X008895Y018896D01*
X008947Y018813D01*
X008996Y018728D01*
X009040Y018640D01*
X009080Y018550D01*
X009115Y018459D01*
X009146Y018366D01*
X009172Y018271D01*
X009194Y018175D01*
X009210Y018078D01*
X009222Y017981D01*
X009230Y017883D01*
X009232Y017785D01*
X009230Y017687D01*
X009222Y017589D01*
X009210Y017492D01*
X009194Y017395D01*
X009172Y017299D01*
X009146Y017204D01*
X009115Y017111D01*
X009080Y017020D01*
X009040Y016930D01*
X008996Y016842D01*
X008947Y016757D01*
X008895Y016674D01*
X008838Y016594D01*
X008778Y016516D01*
X008714Y016442D01*
X008646Y016371D01*
X008575Y016303D01*
X008501Y016239D01*
X008423Y016179D01*
X008343Y016122D01*
X008260Y016070D01*
X008175Y016021D01*
X008087Y015977D01*
X007997Y015937D01*
X007906Y015902D01*
X007813Y015871D01*
X007718Y015845D01*
X007622Y015823D01*
X007525Y015807D01*
X007428Y015795D01*
X007330Y015787D01*
X007232Y015785D01*
X007134Y015787D01*
X007036Y015795D01*
X006939Y015807D01*
X006842Y015823D01*
X006746Y015845D01*
X006651Y015871D01*
X006558Y015902D01*
X006467Y015937D01*
X006377Y015977D01*
X006289Y016021D01*
X006204Y016070D01*
X006121Y016122D01*
X006041Y016179D01*
X005963Y016239D01*
X005889Y016303D01*
X005818Y016371D01*
X005750Y016442D01*
X005686Y016516D01*
X005626Y016594D01*
X005569Y016674D01*
X005517Y016757D01*
X005468Y016842D01*
X005424Y016930D01*
X005384Y017020D01*
X005349Y017111D01*
X005318Y017204D01*
X005292Y017299D01*
X005270Y017395D01*
X005254Y017492D01*
X005242Y017589D01*
X005234Y017687D01*
X005232Y017785D01*
X007232Y017535D02*
X007232Y017335D01*
X006546Y020715D02*
X006548Y020743D01*
X006554Y020770D01*
X006563Y020796D01*
X006576Y020821D01*
X006593Y020844D01*
X006612Y020864D01*
X006634Y020881D01*
X006658Y020895D01*
X006684Y020905D01*
X006711Y020912D01*
X006739Y020915D01*
X006767Y020914D01*
X006794Y020909D01*
X006821Y020900D01*
X006846Y020888D01*
X006869Y020873D01*
X006890Y020854D01*
X006908Y020833D01*
X006923Y020809D01*
X006934Y020783D01*
X006942Y020757D01*
X006946Y020729D01*
X006946Y020701D01*
X006942Y020673D01*
X006934Y020647D01*
X006923Y020621D01*
X006908Y020597D01*
X006890Y020576D01*
X006869Y020557D01*
X006846Y020542D01*
X006821Y020530D01*
X006794Y020521D01*
X006767Y020516D01*
X006739Y020515D01*
X006711Y020518D01*
X006684Y020525D01*
X006658Y020535D01*
X006634Y020549D01*
X006612Y020566D01*
X006593Y020586D01*
X006576Y020609D01*
X006563Y020634D01*
X006554Y020660D01*
X006548Y020687D01*
X006546Y020715D01*
X006396Y022795D02*
X005766Y022795D01*
X007096Y022795D02*
X008366Y022795D01*
X009066Y022795D02*
X009696Y022795D01*
X012732Y021535D02*
X012732Y021035D01*
X012982Y020785D01*
X012732Y020535D01*
X012732Y020035D01*
X012982Y019785D01*
X012732Y019535D01*
X012732Y019035D01*
X012982Y018785D01*
X012732Y018535D01*
X012732Y018035D01*
X012982Y017785D01*
X012732Y017535D01*
X012732Y017035D01*
X012982Y016785D01*
X013482Y016785D01*
X013732Y017035D01*
X013732Y017535D01*
X013482Y017785D01*
X013732Y018035D01*
X013732Y018535D01*
X013482Y018785D01*
X013732Y019035D01*
X013732Y019535D01*
X013482Y019785D01*
X013732Y020035D01*
X013732Y020535D01*
X013482Y020785D01*
X013732Y021035D01*
X013732Y021535D01*
X013482Y021785D01*
X012982Y021785D01*
X012732Y021535D01*
X015055Y021004D02*
X015055Y020790D01*
X015055Y021004D02*
X015162Y021111D01*
X015482Y021111D01*
X015482Y020790D01*
X015375Y020684D01*
X015268Y020790D01*
X015268Y021111D01*
X015055Y020466D02*
X015482Y020039D01*
X015482Y020466D01*
X015055Y020466D02*
X015055Y020039D01*
X015375Y019823D02*
X015482Y019823D01*
X015482Y019717D01*
X015375Y019717D01*
X015375Y019823D01*
X015375Y019499D02*
X015162Y019499D01*
X015055Y019392D01*
X015055Y019179D01*
X015162Y019072D01*
X015375Y019072D01*
X015482Y019179D01*
X015482Y019392D01*
X015375Y019499D01*
X015482Y018855D02*
X015482Y018534D01*
X015375Y018428D01*
X015162Y018428D01*
X015055Y018534D01*
X015055Y018855D01*
X015375Y018212D02*
X015482Y018212D01*
X015482Y018105D01*
X015375Y018105D01*
X015375Y018212D01*
X015375Y017888D02*
X015162Y017888D01*
X015055Y017781D01*
X015055Y017568D01*
X015162Y017461D01*
X015375Y017461D01*
X015482Y017568D01*
X015482Y017781D01*
X015375Y017888D01*
X015375Y017243D02*
X015162Y017243D01*
X015055Y017136D01*
X015055Y016816D01*
X014841Y016816D02*
X015482Y016816D01*
X015482Y017136D01*
X015375Y017243D01*
X015482Y016599D02*
X015162Y016599D01*
X015055Y016492D01*
X015162Y016385D01*
X015482Y016385D01*
X015482Y016172D02*
X015055Y016172D01*
X015055Y016278D01*
X015162Y016385D01*
X015162Y015954D02*
X015055Y015847D01*
X015055Y015634D01*
X015162Y015954D02*
X015482Y015954D01*
X015482Y015634D01*
X015375Y015527D01*
X015268Y015634D01*
X015268Y015954D01*
X015055Y015310D02*
X015055Y015204D01*
X015268Y014990D01*
X015055Y014990D02*
X015482Y014990D01*
X015562Y013572D02*
X015242Y013572D01*
X015135Y013465D01*
X015135Y013252D01*
X015348Y013252D02*
X015348Y013572D01*
X015562Y013572D02*
X015562Y013252D01*
X015455Y013145D01*
X015348Y013252D01*
X015135Y012928D02*
X015562Y012501D01*
X015562Y012928D01*
X015135Y012928D02*
X015135Y012501D01*
X015455Y012285D02*
X015455Y012178D01*
X015562Y012178D01*
X015562Y012285D01*
X015455Y012285D01*
X015455Y011961D02*
X015242Y011961D01*
X015135Y011854D01*
X015135Y011640D01*
X015242Y011534D01*
X015455Y011534D01*
X015562Y011640D01*
X015562Y011854D01*
X015455Y011961D01*
X015562Y011316D02*
X015562Y010996D01*
X015455Y010889D01*
X015242Y010889D01*
X015135Y010996D01*
X015135Y011316D01*
X015455Y010674D02*
X015562Y010674D01*
X015562Y010567D01*
X015455Y010567D01*
X015455Y010674D01*
X015455Y010349D02*
X015348Y010243D01*
X015348Y010029D01*
X015242Y009922D01*
X015135Y010029D01*
X015135Y010349D01*
X015455Y010349D02*
X015562Y010243D01*
X015562Y009922D01*
X015562Y009705D02*
X015562Y009385D01*
X015455Y009278D01*
X015242Y009278D01*
X015135Y009385D01*
X015135Y009705D01*
X015135Y008955D02*
X015562Y008955D01*
X015562Y008848D02*
X015562Y009062D01*
X015562Y008631D02*
X015242Y008631D01*
X015135Y008524D01*
X015135Y008204D01*
X015562Y008204D01*
X015455Y007986D02*
X015242Y007986D01*
X015135Y007879D01*
X015135Y007666D01*
X015242Y007559D01*
X015455Y007559D01*
X015562Y007666D01*
X015562Y007879D01*
X015455Y007986D01*
X015135Y007342D02*
X015135Y007235D01*
X015348Y007022D01*
X015135Y007022D02*
X015562Y007022D01*
X015562Y006806D02*
X015455Y006699D01*
X015028Y006699D01*
X015135Y006592D02*
X015135Y006806D01*
X015135Y006375D02*
X015135Y006054D01*
X015242Y005948D01*
X015455Y005948D01*
X015562Y006054D01*
X015562Y006375D01*
X015348Y005730D02*
X015242Y005730D01*
X015135Y005623D01*
X015135Y005410D01*
X015242Y005303D01*
X015455Y005303D01*
X015562Y005410D01*
X015562Y005623D01*
X015348Y005730D02*
X015348Y005303D01*
X015562Y005087D02*
X015562Y004873D01*
X015562Y004980D02*
X014921Y004980D01*
X014921Y004873D01*
X014921Y004656D02*
X014921Y004229D01*
X015562Y004229D01*
X015562Y004656D01*
X015242Y004442D02*
X015242Y004229D01*
X015028Y004011D02*
X014921Y004011D01*
X015028Y004011D02*
X015242Y003798D01*
X015562Y003798D01*
X015562Y003368D02*
X015562Y003155D01*
X015562Y003261D02*
X014921Y003261D01*
X014921Y003155D02*
X014921Y003368D01*
X014921Y003584D02*
X015028Y003584D01*
X015242Y003798D01*
X015455Y002937D02*
X015028Y002937D01*
X014921Y002830D01*
X014921Y002510D01*
X015562Y002510D01*
X015562Y002830D01*
X015455Y002937D01*
X015135Y008848D02*
X015135Y008955D01*
X014921Y008955D02*
X014815Y008955D01*
X009698Y003795D02*
X005768Y003795D01*
X005768Y003715D01*
X009698Y003715D01*
X009698Y001115D01*
X009698Y000175D01*
X005768Y000175D01*
X005768Y001115D01*
X005768Y003715D01*
X006548Y003195D02*
X006550Y003223D01*
X006556Y003250D01*
X006565Y003276D01*
X006578Y003301D01*
X006595Y003324D01*
X006614Y003344D01*
X006636Y003361D01*
X006660Y003375D01*
X006686Y003385D01*
X006713Y003392D01*
X006741Y003395D01*
X006769Y003394D01*
X006796Y003389D01*
X006823Y003380D01*
X006848Y003368D01*
X006871Y003353D01*
X006892Y003334D01*
X006910Y003313D01*
X006925Y003289D01*
X006936Y003263D01*
X006944Y003237D01*
X006948Y003209D01*
X006948Y003181D01*
X006944Y003153D01*
X006936Y003127D01*
X006925Y003101D01*
X006910Y003077D01*
X006892Y003056D01*
X006871Y003037D01*
X006848Y003022D01*
X006823Y003010D01*
X006796Y003001D01*
X006769Y002996D01*
X006741Y002995D01*
X006713Y002998D01*
X006686Y003005D01*
X006660Y003015D01*
X006636Y003029D01*
X006614Y003046D01*
X006595Y003066D01*
X006578Y003089D01*
X006565Y003114D01*
X006556Y003140D01*
X006550Y003167D01*
X006548Y003195D01*
X006398Y001115D02*
X005768Y001115D01*
X007098Y001115D02*
X008368Y001115D01*
X009068Y001115D02*
X009698Y001115D01*
X008518Y003195D02*
X008520Y003223D01*
X008526Y003250D01*
X008535Y003276D01*
X008548Y003301D01*
X008565Y003324D01*
X008584Y003344D01*
X008606Y003361D01*
X008630Y003375D01*
X008656Y003385D01*
X008683Y003392D01*
X008711Y003395D01*
X008739Y003394D01*
X008766Y003389D01*
X008793Y003380D01*
X008818Y003368D01*
X008841Y003353D01*
X008862Y003334D01*
X008880Y003313D01*
X008895Y003289D01*
X008906Y003263D01*
X008914Y003237D01*
X008918Y003209D01*
X008918Y003181D01*
X008914Y003153D01*
X008906Y003127D01*
X008895Y003101D01*
X008880Y003077D01*
X008862Y003056D01*
X008841Y003037D01*
X008818Y003022D01*
X008793Y003010D01*
X008766Y003001D01*
X008739Y002996D01*
X008711Y002995D01*
X008683Y002998D01*
X008656Y003005D01*
X008630Y003015D01*
X008606Y003029D01*
X008584Y003046D01*
X008565Y003066D01*
X008548Y003089D01*
X008535Y003114D01*
X008526Y003140D01*
X008520Y003167D01*
X008518Y003195D01*
X009698Y003715D02*
X009698Y003795D01*
D12*
X010842Y004535D02*
X012622Y004535D01*
X012622Y006035D02*
X010842Y006035D01*
X011252Y009151D02*
X011405Y009151D01*
X011329Y009151D02*
X011329Y009612D01*
X011405Y009612D02*
X011252Y009612D01*
X011559Y009612D02*
X011559Y009151D01*
X011559Y009305D02*
X011789Y009305D01*
X011866Y009382D01*
X011866Y009535D01*
X011789Y009612D01*
X011559Y009612D01*
X011712Y009305D02*
X011866Y009151D01*
X012019Y009151D02*
X012019Y009612D01*
X012326Y009612D01*
X012480Y009612D02*
X012710Y009612D01*
X012786Y009535D01*
X012786Y009382D01*
X012710Y009305D01*
X012480Y009305D01*
X012633Y009305D02*
X012786Y009151D01*
X012940Y009228D02*
X013017Y009151D01*
X013170Y009151D01*
X013247Y009228D01*
X013247Y009305D01*
X013170Y009382D01*
X013093Y009382D01*
X013170Y009382D02*
X013247Y009458D01*
X013247Y009535D01*
X013170Y009612D01*
X013017Y009612D01*
X012940Y009535D01*
X012622Y010035D02*
X010842Y010035D01*
X010842Y011535D02*
X012622Y011535D01*
X012480Y011805D02*
X012480Y012265D01*
X012710Y012265D01*
X012786Y012189D01*
X012786Y012035D01*
X012710Y011958D01*
X012480Y011958D01*
X012633Y011958D02*
X012786Y011805D01*
X012940Y011882D02*
X013017Y011805D01*
X013170Y011805D01*
X013247Y011882D01*
X013247Y012189D01*
X013170Y012265D01*
X013017Y012265D01*
X012940Y012189D01*
X012940Y012112D01*
X013017Y012035D01*
X013247Y012035D01*
X013400Y011882D02*
X013707Y012189D01*
X013707Y011882D01*
X013631Y011805D01*
X013477Y011805D01*
X013400Y011882D01*
X013400Y012189D01*
X013477Y012265D01*
X013631Y012265D01*
X013707Y012189D01*
X013861Y012189D02*
X013937Y012265D01*
X014091Y012265D01*
X014168Y012189D01*
X014168Y012112D01*
X013861Y011805D01*
X014168Y011805D01*
X014321Y012035D02*
X014628Y012035D01*
X014551Y011805D02*
X014551Y012265D01*
X014321Y012035D01*
X014398Y009612D02*
X014551Y009612D01*
X014628Y009535D01*
X014321Y009228D01*
X014398Y009151D01*
X014551Y009151D01*
X014628Y009228D01*
X014628Y009535D01*
X014398Y009612D02*
X014321Y009535D01*
X014321Y009228D01*
X014168Y009151D02*
X013861Y009151D01*
X014014Y009151D02*
X014014Y009612D01*
X013861Y009458D01*
X013707Y009382D02*
X013477Y009382D01*
X013400Y009458D01*
X013400Y009535D01*
X013477Y009612D01*
X013631Y009612D01*
X013707Y009535D01*
X013707Y009228D01*
X013631Y009151D01*
X013477Y009151D01*
X013400Y009228D01*
X012480Y009151D02*
X012480Y009612D01*
X012173Y009382D02*
X012019Y009382D01*
X012019Y011805D02*
X012019Y012265D01*
X012326Y012265D01*
X012173Y012035D02*
X012019Y012035D01*
X011866Y012035D02*
X011789Y011958D01*
X011559Y011958D01*
X011559Y011805D02*
X011559Y012265D01*
X011789Y012265D01*
X011866Y012189D01*
X011866Y012035D01*
X011712Y011958D02*
X011866Y011805D01*
X011405Y011805D02*
X011252Y011805D01*
X011329Y011805D02*
X011329Y012265D01*
X011405Y012265D02*
X011252Y012265D01*
X013972Y017060D02*
X014232Y017060D01*
X014319Y017147D01*
X014319Y017233D01*
X014232Y017320D01*
X013972Y017320D01*
X013972Y017060D02*
X013972Y017580D01*
X014232Y017580D01*
X014319Y017494D01*
X014319Y017407D01*
X014232Y017320D01*
X014487Y017060D02*
X014834Y017060D01*
X014487Y017060D02*
X014487Y017580D01*
X014487Y018020D02*
X014487Y018540D01*
X014319Y018454D02*
X014319Y018367D01*
X014232Y018280D01*
X013972Y018280D01*
X013972Y018020D02*
X014232Y018020D01*
X014319Y018107D01*
X014319Y018193D01*
X014232Y018280D01*
X014319Y018454D02*
X014232Y018540D01*
X013972Y018540D01*
X013972Y018020D01*
X014487Y018280D02*
X014834Y018280D01*
X014834Y018540D02*
X014834Y018020D01*
X014834Y020100D02*
X014487Y020100D01*
X014487Y020620D01*
X014319Y020447D02*
X014319Y020100D01*
X014319Y020360D02*
X013972Y020360D01*
X013972Y020447D02*
X013972Y020100D01*
X013972Y020447D02*
X014145Y020620D01*
X014319Y020447D01*
X014319Y021100D02*
X014319Y021447D01*
X014145Y021620D01*
X013972Y021447D01*
X013972Y021100D01*
X013972Y021360D02*
X014319Y021360D01*
X014487Y021360D02*
X014834Y021360D01*
X014834Y021620D02*
X014834Y021100D01*
X014487Y021100D02*
X014487Y021620D01*
X004622Y017035D02*
X002842Y017035D01*
X002842Y015535D02*
X004622Y015535D01*
X004622Y011535D02*
X002842Y011535D01*
X002842Y010035D02*
X004622Y010035D01*
X004428Y020740D02*
X004255Y020740D01*
X004168Y020827D01*
X004515Y021174D01*
X004515Y020827D01*
X004428Y020740D01*
X004168Y020827D02*
X004168Y021174D01*
X004255Y021260D01*
X004428Y021260D01*
X004515Y021174D01*
X003997Y020827D02*
X003997Y020740D01*
X003910Y020740D01*
X003910Y020827D01*
X003997Y020827D01*
X003741Y020740D02*
X003394Y020740D01*
X003568Y020740D02*
X003568Y021260D01*
X003394Y021087D01*
X002710Y020913D02*
X002710Y021260D01*
X002710Y020913D02*
X002537Y020740D01*
X002363Y020913D01*
X002363Y021260D01*
X002194Y021260D02*
X001847Y021260D01*
X001847Y020740D01*
X002194Y020740D01*
X002021Y021000D02*
X001847Y021000D01*
X001679Y021000D02*
X001679Y021174D01*
X001592Y021260D01*
X001332Y021260D01*
X001332Y020740D01*
X001332Y020913D02*
X001592Y020913D01*
X001679Y021000D01*
X001505Y020913D02*
X001679Y020740D01*
D13*
X003656Y016679D02*
X003656Y015891D01*
X004059Y016285D01*
X003656Y016679D01*
X004078Y015074D02*
X001923Y015074D01*
X001726Y014878D01*
X001726Y012692D01*
X001923Y012496D01*
X004078Y012496D01*
X004078Y015074D01*
X003808Y011179D02*
X003808Y010391D01*
X003405Y010785D01*
X003808Y011179D01*
X004078Y009074D02*
X001923Y009074D01*
X001726Y008878D01*
X001726Y006692D01*
X001923Y006496D01*
X004078Y006496D01*
X004078Y009074D01*
X011385Y009074D02*
X011385Y006496D01*
X013541Y006496D01*
X013738Y006692D01*
X013738Y008878D01*
X013541Y009074D01*
X011385Y009074D01*
X011808Y010391D02*
X011808Y011179D01*
X011405Y010785D01*
X011808Y010391D01*
X011385Y012496D02*
X013541Y012496D01*
X013738Y012692D01*
X013738Y014878D01*
X013541Y015074D01*
X011385Y015074D01*
X011385Y012496D01*
X011656Y005679D02*
X011656Y004891D01*
X012059Y005285D01*
X011656Y005679D01*
D14*
X011173Y003021D03*
X011173Y002549D03*
X004291Y002549D03*
X004291Y003021D03*
D15*
X004291Y002785D03*
X011173Y002785D03*
X003112Y022419D03*
D16*
X007232Y017560D03*
D17*
X004272Y013785D03*
X004272Y007785D03*
X011192Y007785D03*
X011192Y013785D03*
D18*
X003348Y022419D03*
X002876Y022419D03*
D19*
X002992Y023155D02*
X002992Y023525D01*
X003114Y023525D02*
X003299Y023525D01*
X003360Y023464D01*
X003360Y023340D01*
X003299Y023278D01*
X003114Y023278D01*
X003114Y023155D02*
X003114Y023525D01*
X003237Y023278D02*
X003360Y023155D01*
X003482Y023155D02*
X003729Y023155D01*
X003850Y023155D02*
X004097Y023155D01*
X004219Y023155D02*
X004404Y023155D01*
X004465Y023217D01*
X004465Y023464D01*
X004404Y023525D01*
X004219Y023525D01*
X004219Y023155D01*
X003974Y023340D02*
X003850Y023340D01*
X003850Y023525D02*
X003850Y023155D01*
X003482Y023155D02*
X003482Y023525D01*
X003850Y023525D02*
X004097Y023525D01*
X002992Y023155D02*
X002869Y023278D01*
X002745Y023155D01*
X002745Y023525D01*
X002624Y023464D02*
X002624Y023340D01*
X002562Y023278D01*
X002377Y023278D01*
X002377Y023155D02*
X002377Y023525D01*
X002562Y023525D01*
X002624Y023464D01*
M02*
