G75*
G70*
%OFA0B0*%
%FSLAX24Y24*%
%IPPOS*%
%LPD*%
%AMOC8*
5,1,8,0,0,1.08239X$1,22.5*
%
%ADD10C,0.0000*%
D10*
X000232Y000160D02*
X015980Y000160D01*
X015980Y023782D01*
X000232Y023782D01*
X000232Y000160D01*
X000783Y001341D02*
X000785Y001391D01*
X000791Y001441D01*
X000801Y001490D01*
X000815Y001538D01*
X000832Y001585D01*
X000853Y001630D01*
X000878Y001674D01*
X000906Y001715D01*
X000938Y001754D01*
X000972Y001791D01*
X001009Y001825D01*
X001049Y001855D01*
X001091Y001882D01*
X001135Y001906D01*
X001181Y001927D01*
X001228Y001943D01*
X001276Y001956D01*
X001326Y001965D01*
X001375Y001970D01*
X001426Y001971D01*
X001476Y001968D01*
X001525Y001961D01*
X001574Y001950D01*
X001622Y001935D01*
X001668Y001917D01*
X001713Y001895D01*
X001756Y001869D01*
X001797Y001840D01*
X001836Y001808D01*
X001872Y001773D01*
X001904Y001735D01*
X001934Y001695D01*
X001961Y001652D01*
X001984Y001608D01*
X002003Y001562D01*
X002019Y001514D01*
X002031Y001465D01*
X002039Y001416D01*
X002043Y001366D01*
X002043Y001316D01*
X002039Y001266D01*
X002031Y001217D01*
X002019Y001168D01*
X002003Y001120D01*
X001984Y001074D01*
X001961Y001030D01*
X001934Y000987D01*
X001904Y000947D01*
X001872Y000909D01*
X001836Y000874D01*
X001797Y000842D01*
X001756Y000813D01*
X001713Y000787D01*
X001668Y000765D01*
X001622Y000747D01*
X001574Y000732D01*
X001525Y000721D01*
X001476Y000714D01*
X001426Y000711D01*
X001375Y000712D01*
X001326Y000717D01*
X001276Y000726D01*
X001228Y000739D01*
X001181Y000755D01*
X001135Y000776D01*
X001091Y000800D01*
X001049Y000827D01*
X001009Y000857D01*
X000972Y000891D01*
X000938Y000928D01*
X000906Y000967D01*
X000878Y001008D01*
X000853Y001052D01*
X000832Y001097D01*
X000815Y001144D01*
X000801Y001192D01*
X000791Y001241D01*
X000785Y001291D01*
X000783Y001341D01*
X014169Y001341D02*
X014171Y001391D01*
X014177Y001441D01*
X014187Y001490D01*
X014201Y001538D01*
X014218Y001585D01*
X014239Y001630D01*
X014264Y001674D01*
X014292Y001715D01*
X014324Y001754D01*
X014358Y001791D01*
X014395Y001825D01*
X014435Y001855D01*
X014477Y001882D01*
X014521Y001906D01*
X014567Y001927D01*
X014614Y001943D01*
X014662Y001956D01*
X014712Y001965D01*
X014761Y001970D01*
X014812Y001971D01*
X014862Y001968D01*
X014911Y001961D01*
X014960Y001950D01*
X015008Y001935D01*
X015054Y001917D01*
X015099Y001895D01*
X015142Y001869D01*
X015183Y001840D01*
X015222Y001808D01*
X015258Y001773D01*
X015290Y001735D01*
X015320Y001695D01*
X015347Y001652D01*
X015370Y001608D01*
X015389Y001562D01*
X015405Y001514D01*
X015417Y001465D01*
X015425Y001416D01*
X015429Y001366D01*
X015429Y001316D01*
X015425Y001266D01*
X015417Y001217D01*
X015405Y001168D01*
X015389Y001120D01*
X015370Y001074D01*
X015347Y001030D01*
X015320Y000987D01*
X015290Y000947D01*
X015258Y000909D01*
X015222Y000874D01*
X015183Y000842D01*
X015142Y000813D01*
X015099Y000787D01*
X015054Y000765D01*
X015008Y000747D01*
X014960Y000732D01*
X014911Y000721D01*
X014862Y000714D01*
X014812Y000711D01*
X014761Y000712D01*
X014712Y000717D01*
X014662Y000726D01*
X014614Y000739D01*
X014567Y000755D01*
X014521Y000776D01*
X014477Y000800D01*
X014435Y000827D01*
X014395Y000857D01*
X014358Y000891D01*
X014324Y000928D01*
X014292Y000967D01*
X014264Y001008D01*
X014239Y001052D01*
X014218Y001097D01*
X014201Y001144D01*
X014187Y001192D01*
X014177Y001241D01*
X014171Y001291D01*
X014169Y001341D01*
X014169Y022601D02*
X014171Y022651D01*
X014177Y022701D01*
X014187Y022750D01*
X014201Y022798D01*
X014218Y022845D01*
X014239Y022890D01*
X014264Y022934D01*
X014292Y022975D01*
X014324Y023014D01*
X014358Y023051D01*
X014395Y023085D01*
X014435Y023115D01*
X014477Y023142D01*
X014521Y023166D01*
X014567Y023187D01*
X014614Y023203D01*
X014662Y023216D01*
X014712Y023225D01*
X014761Y023230D01*
X014812Y023231D01*
X014862Y023228D01*
X014911Y023221D01*
X014960Y023210D01*
X015008Y023195D01*
X015054Y023177D01*
X015099Y023155D01*
X015142Y023129D01*
X015183Y023100D01*
X015222Y023068D01*
X015258Y023033D01*
X015290Y022995D01*
X015320Y022955D01*
X015347Y022912D01*
X015370Y022868D01*
X015389Y022822D01*
X015405Y022774D01*
X015417Y022725D01*
X015425Y022676D01*
X015429Y022626D01*
X015429Y022576D01*
X015425Y022526D01*
X015417Y022477D01*
X015405Y022428D01*
X015389Y022380D01*
X015370Y022334D01*
X015347Y022290D01*
X015320Y022247D01*
X015290Y022207D01*
X015258Y022169D01*
X015222Y022134D01*
X015183Y022102D01*
X015142Y022073D01*
X015099Y022047D01*
X015054Y022025D01*
X015008Y022007D01*
X014960Y021992D01*
X014911Y021981D01*
X014862Y021974D01*
X014812Y021971D01*
X014761Y021972D01*
X014712Y021977D01*
X014662Y021986D01*
X014614Y021999D01*
X014567Y022015D01*
X014521Y022036D01*
X014477Y022060D01*
X014435Y022087D01*
X014395Y022117D01*
X014358Y022151D01*
X014324Y022188D01*
X014292Y022227D01*
X014264Y022268D01*
X014239Y022312D01*
X014218Y022357D01*
X014201Y022404D01*
X014187Y022452D01*
X014177Y022501D01*
X014171Y022551D01*
X014169Y022601D01*
X000783Y022601D02*
X000785Y022651D01*
X000791Y022701D01*
X000801Y022750D01*
X000815Y022798D01*
X000832Y022845D01*
X000853Y022890D01*
X000878Y022934D01*
X000906Y022975D01*
X000938Y023014D01*
X000972Y023051D01*
X001009Y023085D01*
X001049Y023115D01*
X001091Y023142D01*
X001135Y023166D01*
X001181Y023187D01*
X001228Y023203D01*
X001276Y023216D01*
X001326Y023225D01*
X001375Y023230D01*
X001426Y023231D01*
X001476Y023228D01*
X001525Y023221D01*
X001574Y023210D01*
X001622Y023195D01*
X001668Y023177D01*
X001713Y023155D01*
X001756Y023129D01*
X001797Y023100D01*
X001836Y023068D01*
X001872Y023033D01*
X001904Y022995D01*
X001934Y022955D01*
X001961Y022912D01*
X001984Y022868D01*
X002003Y022822D01*
X002019Y022774D01*
X002031Y022725D01*
X002039Y022676D01*
X002043Y022626D01*
X002043Y022576D01*
X002039Y022526D01*
X002031Y022477D01*
X002019Y022428D01*
X002003Y022380D01*
X001984Y022334D01*
X001961Y022290D01*
X001934Y022247D01*
X001904Y022207D01*
X001872Y022169D01*
X001836Y022134D01*
X001797Y022102D01*
X001756Y022073D01*
X001713Y022047D01*
X001668Y022025D01*
X001622Y022007D01*
X001574Y021992D01*
X001525Y021981D01*
X001476Y021974D01*
X001426Y021971D01*
X001375Y021972D01*
X001326Y021977D01*
X001276Y021986D01*
X001228Y021999D01*
X001181Y022015D01*
X001135Y022036D01*
X001091Y022060D01*
X001049Y022087D01*
X001009Y022117D01*
X000972Y022151D01*
X000938Y022188D01*
X000906Y022227D01*
X000878Y022268D01*
X000853Y022312D01*
X000832Y022357D01*
X000815Y022404D01*
X000801Y022452D01*
X000791Y022501D01*
X000785Y022551D01*
X000783Y022601D01*
M02*
