G75*
G70*
%OFA0B0*%
%FSLAX24Y24*%
%IPPOS*%
%LPD*%
%AMOC8*
5,1,8,0,0,1.08239X$1,22.5*
%
%ADD10C,0.0000*%
%ADD11R,0.0600X0.0040*%
%ADD12R,0.0720X0.0040*%
%ADD13R,0.0680X0.0040*%
%ADD14R,0.0640X0.0040*%
%ADD15R,0.0560X0.0040*%
%ADD16R,0.0520X0.0040*%
%ADD17R,0.0440X0.0040*%
%ADD18R,0.0160X0.0040*%
%ADD19R,0.0880X0.0040*%
%ADD20R,0.1320X0.0040*%
%ADD21R,0.1520X0.0040*%
%ADD22R,0.0120X0.0040*%
%ADD23R,0.1400X0.0040*%
%ADD24R,0.1440X0.0040*%
%ADD25R,0.1480X0.0040*%
%ADD26R,0.1360X0.0040*%
%ADD27R,0.1240X0.0040*%
%ADD28R,0.1160X0.0040*%
%ADD29R,0.1080X0.0040*%
%ADD30R,0.1000X0.0040*%
%ADD31R,0.0920X0.0040*%
%ADD32R,0.0200X0.0040*%
%ADD33R,0.0760X0.0040*%
%ADD34R,0.0480X0.0040*%
%ADD35C,0.0710*%
%ADD36R,0.0945X0.0945*%
%ADD37R,0.0512X0.0591*%
%ADD38R,0.0472X0.0472*%
%ADD39R,0.0591X0.0512*%
%ADD40R,0.0551X0.0394*%
%ADD41R,0.0394X0.0551*%
%ADD42C,0.0640*%
%ADD43C,0.1000*%
%ADD44OC8,0.1000*%
%ADD45R,0.2441X0.2126*%
%ADD46R,0.0630X0.0394*%
%ADD47C,0.0197*%
%ADD48C,0.0436*%
%ADD49C,0.0394*%
%ADD50C,0.0160*%
%ADD51C,0.1575*%
%ADD52C,0.0787*%
%ADD53C,0.0236*%
%ADD54C,0.1969*%
%ADD55C,0.1181*%
D10*
X000232Y000160D02*
X015980Y000160D01*
X015980Y023782D01*
X000232Y023782D01*
X000232Y000160D01*
X000783Y001341D02*
X000785Y001391D01*
X000791Y001441D01*
X000801Y001490D01*
X000815Y001538D01*
X000832Y001585D01*
X000853Y001630D01*
X000878Y001674D01*
X000906Y001715D01*
X000938Y001754D01*
X000972Y001791D01*
X001009Y001825D01*
X001049Y001855D01*
X001091Y001882D01*
X001135Y001906D01*
X001181Y001927D01*
X001228Y001943D01*
X001276Y001956D01*
X001326Y001965D01*
X001375Y001970D01*
X001426Y001971D01*
X001476Y001968D01*
X001525Y001961D01*
X001574Y001950D01*
X001622Y001935D01*
X001668Y001917D01*
X001713Y001895D01*
X001756Y001869D01*
X001797Y001840D01*
X001836Y001808D01*
X001872Y001773D01*
X001904Y001735D01*
X001934Y001695D01*
X001961Y001652D01*
X001984Y001608D01*
X002003Y001562D01*
X002019Y001514D01*
X002031Y001465D01*
X002039Y001416D01*
X002043Y001366D01*
X002043Y001316D01*
X002039Y001266D01*
X002031Y001217D01*
X002019Y001168D01*
X002003Y001120D01*
X001984Y001074D01*
X001961Y001030D01*
X001934Y000987D01*
X001904Y000947D01*
X001872Y000909D01*
X001836Y000874D01*
X001797Y000842D01*
X001756Y000813D01*
X001713Y000787D01*
X001668Y000765D01*
X001622Y000747D01*
X001574Y000732D01*
X001525Y000721D01*
X001476Y000714D01*
X001426Y000711D01*
X001375Y000712D01*
X001326Y000717D01*
X001276Y000726D01*
X001228Y000739D01*
X001181Y000755D01*
X001135Y000776D01*
X001091Y000800D01*
X001049Y000827D01*
X001009Y000857D01*
X000972Y000891D01*
X000938Y000928D01*
X000906Y000967D01*
X000878Y001008D01*
X000853Y001052D01*
X000832Y001097D01*
X000815Y001144D01*
X000801Y001192D01*
X000791Y001241D01*
X000785Y001291D01*
X000783Y001341D01*
X014169Y001341D02*
X014171Y001391D01*
X014177Y001441D01*
X014187Y001490D01*
X014201Y001538D01*
X014218Y001585D01*
X014239Y001630D01*
X014264Y001674D01*
X014292Y001715D01*
X014324Y001754D01*
X014358Y001791D01*
X014395Y001825D01*
X014435Y001855D01*
X014477Y001882D01*
X014521Y001906D01*
X014567Y001927D01*
X014614Y001943D01*
X014662Y001956D01*
X014712Y001965D01*
X014761Y001970D01*
X014812Y001971D01*
X014862Y001968D01*
X014911Y001961D01*
X014960Y001950D01*
X015008Y001935D01*
X015054Y001917D01*
X015099Y001895D01*
X015142Y001869D01*
X015183Y001840D01*
X015222Y001808D01*
X015258Y001773D01*
X015290Y001735D01*
X015320Y001695D01*
X015347Y001652D01*
X015370Y001608D01*
X015389Y001562D01*
X015405Y001514D01*
X015417Y001465D01*
X015425Y001416D01*
X015429Y001366D01*
X015429Y001316D01*
X015425Y001266D01*
X015417Y001217D01*
X015405Y001168D01*
X015389Y001120D01*
X015370Y001074D01*
X015347Y001030D01*
X015320Y000987D01*
X015290Y000947D01*
X015258Y000909D01*
X015222Y000874D01*
X015183Y000842D01*
X015142Y000813D01*
X015099Y000787D01*
X015054Y000765D01*
X015008Y000747D01*
X014960Y000732D01*
X014911Y000721D01*
X014862Y000714D01*
X014812Y000711D01*
X014761Y000712D01*
X014712Y000717D01*
X014662Y000726D01*
X014614Y000739D01*
X014567Y000755D01*
X014521Y000776D01*
X014477Y000800D01*
X014435Y000827D01*
X014395Y000857D01*
X014358Y000891D01*
X014324Y000928D01*
X014292Y000967D01*
X014264Y001008D01*
X014239Y001052D01*
X014218Y001097D01*
X014201Y001144D01*
X014187Y001192D01*
X014177Y001241D01*
X014171Y001291D01*
X014169Y001341D01*
X014169Y022601D02*
X014171Y022651D01*
X014177Y022701D01*
X014187Y022750D01*
X014201Y022798D01*
X014218Y022845D01*
X014239Y022890D01*
X014264Y022934D01*
X014292Y022975D01*
X014324Y023014D01*
X014358Y023051D01*
X014395Y023085D01*
X014435Y023115D01*
X014477Y023142D01*
X014521Y023166D01*
X014567Y023187D01*
X014614Y023203D01*
X014662Y023216D01*
X014712Y023225D01*
X014761Y023230D01*
X014812Y023231D01*
X014862Y023228D01*
X014911Y023221D01*
X014960Y023210D01*
X015008Y023195D01*
X015054Y023177D01*
X015099Y023155D01*
X015142Y023129D01*
X015183Y023100D01*
X015222Y023068D01*
X015258Y023033D01*
X015290Y022995D01*
X015320Y022955D01*
X015347Y022912D01*
X015370Y022868D01*
X015389Y022822D01*
X015405Y022774D01*
X015417Y022725D01*
X015425Y022676D01*
X015429Y022626D01*
X015429Y022576D01*
X015425Y022526D01*
X015417Y022477D01*
X015405Y022428D01*
X015389Y022380D01*
X015370Y022334D01*
X015347Y022290D01*
X015320Y022247D01*
X015290Y022207D01*
X015258Y022169D01*
X015222Y022134D01*
X015183Y022102D01*
X015142Y022073D01*
X015099Y022047D01*
X015054Y022025D01*
X015008Y022007D01*
X014960Y021992D01*
X014911Y021981D01*
X014862Y021974D01*
X014812Y021971D01*
X014761Y021972D01*
X014712Y021977D01*
X014662Y021986D01*
X014614Y021999D01*
X014567Y022015D01*
X014521Y022036D01*
X014477Y022060D01*
X014435Y022087D01*
X014395Y022117D01*
X014358Y022151D01*
X014324Y022188D01*
X014292Y022227D01*
X014264Y022268D01*
X014239Y022312D01*
X014218Y022357D01*
X014201Y022404D01*
X014187Y022452D01*
X014177Y022501D01*
X014171Y022551D01*
X014169Y022601D01*
X000783Y022601D02*
X000785Y022651D01*
X000791Y022701D01*
X000801Y022750D01*
X000815Y022798D01*
X000832Y022845D01*
X000853Y022890D01*
X000878Y022934D01*
X000906Y022975D01*
X000938Y023014D01*
X000972Y023051D01*
X001009Y023085D01*
X001049Y023115D01*
X001091Y023142D01*
X001135Y023166D01*
X001181Y023187D01*
X001228Y023203D01*
X001276Y023216D01*
X001326Y023225D01*
X001375Y023230D01*
X001426Y023231D01*
X001476Y023228D01*
X001525Y023221D01*
X001574Y023210D01*
X001622Y023195D01*
X001668Y023177D01*
X001713Y023155D01*
X001756Y023129D01*
X001797Y023100D01*
X001836Y023068D01*
X001872Y023033D01*
X001904Y022995D01*
X001934Y022955D01*
X001961Y022912D01*
X001984Y022868D01*
X002003Y022822D01*
X002019Y022774D01*
X002031Y022725D01*
X002039Y022676D01*
X002043Y022626D01*
X002043Y022576D01*
X002039Y022526D01*
X002031Y022477D01*
X002019Y022428D01*
X002003Y022380D01*
X001984Y022334D01*
X001961Y022290D01*
X001934Y022247D01*
X001904Y022207D01*
X001872Y022169D01*
X001836Y022134D01*
X001797Y022102D01*
X001756Y022073D01*
X001713Y022047D01*
X001668Y022025D01*
X001622Y022007D01*
X001574Y021992D01*
X001525Y021981D01*
X001476Y021974D01*
X001426Y021971D01*
X001375Y021972D01*
X001326Y021977D01*
X001276Y021986D01*
X001228Y021999D01*
X001181Y022015D01*
X001135Y022036D01*
X001091Y022060D01*
X001049Y022087D01*
X001009Y022117D01*
X000972Y022151D01*
X000938Y022188D01*
X000906Y022227D01*
X000878Y022268D01*
X000853Y022312D01*
X000832Y022357D01*
X000815Y022404D01*
X000801Y022452D01*
X000791Y022501D01*
X000785Y022551D01*
X000783Y022601D01*
D11*
X001792Y003080D03*
X001792Y003040D03*
X001792Y003000D03*
X001792Y002960D03*
X001752Y002880D03*
X001672Y002640D03*
D12*
X001692Y002680D03*
X001812Y004440D03*
D13*
X001952Y004400D03*
X001712Y002760D03*
X001712Y002720D03*
D14*
X001732Y002800D03*
X001732Y002840D03*
X001772Y002920D03*
D15*
X001812Y003120D03*
D16*
X001792Y003160D03*
X001792Y003200D03*
X001792Y003240D03*
X001792Y003280D03*
X001792Y003320D03*
X001792Y003360D03*
D17*
X001792Y003400D03*
D18*
X001932Y003440D03*
X001292Y004320D03*
X001212Y004280D03*
X001172Y004240D03*
X001132Y004200D03*
X001092Y004160D03*
X001052Y004120D03*
X001012Y004080D03*
X000972Y004000D03*
X000932Y003960D03*
X000892Y003880D03*
X000892Y003840D03*
X000892Y003720D03*
D19*
X001372Y003600D03*
D20*
X001512Y003640D03*
X001792Y003720D03*
X001952Y004120D03*
D21*
X001572Y003680D03*
D22*
X000992Y004040D03*
X000912Y003920D03*
X000872Y003800D03*
X000872Y003760D03*
D23*
X001832Y003760D03*
X001952Y004040D03*
D24*
X001932Y004000D03*
X001932Y003960D03*
X001892Y003840D03*
X001852Y003800D03*
D25*
X001912Y003880D03*
X001912Y003920D03*
D26*
X001932Y004080D03*
D27*
X001952Y004160D03*
D28*
X001952Y004200D03*
D29*
X001952Y004240D03*
D30*
X001952Y004280D03*
D31*
X001952Y004320D03*
D32*
X001432Y004400D03*
X001352Y004360D03*
D33*
X001952Y004360D03*
D34*
X001812Y004480D03*
D35*
X006748Y002180D02*
X006748Y001470D01*
X008716Y001470D02*
X008716Y002180D01*
X008716Y021730D02*
X008716Y022440D01*
X006748Y022440D02*
X006748Y021730D01*
D36*
X004598Y016285D03*
X002866Y016285D03*
X002866Y010785D03*
X004598Y010785D03*
X010866Y010785D03*
X012598Y010785D03*
X012598Y005285D03*
X010866Y005285D03*
D37*
X010897Y001785D03*
X011566Y001785D03*
X004566Y001785D03*
X003897Y001785D03*
X010397Y015785D03*
X011066Y015785D03*
X012397Y015785D03*
X013066Y015785D03*
X011566Y018785D03*
X010897Y018785D03*
X010897Y020285D03*
X011566Y020285D03*
X011566Y021285D03*
X010897Y021285D03*
D38*
X003112Y021947D03*
X003112Y022773D03*
X003818Y002785D03*
X004645Y002785D03*
X010818Y002785D03*
X011645Y002785D03*
D39*
X009232Y007950D03*
X009232Y008620D03*
X009232Y009950D03*
X009232Y010620D03*
X008232Y010620D03*
X008232Y009950D03*
X007232Y009950D03*
X007232Y010620D03*
X006232Y010620D03*
X006232Y009950D03*
X006232Y012950D03*
X006232Y013620D03*
X005982Y006495D03*
X005982Y005825D03*
X004152Y021945D03*
X004152Y022615D03*
D40*
X007165Y012159D03*
X007165Y011411D03*
X006299Y011785D03*
X007174Y008534D03*
X007174Y007786D03*
X008040Y008160D03*
X006799Y005159D03*
X006799Y004411D03*
X007665Y004785D03*
D41*
X007232Y005852D03*
X007606Y006718D03*
X006858Y006718D03*
X008858Y005852D03*
X009232Y006718D03*
X009606Y005852D03*
X010732Y016852D03*
X011106Y017718D03*
X010358Y017718D03*
D42*
X012912Y017285D02*
X013552Y017285D01*
X013552Y018285D02*
X012912Y018285D01*
X012912Y019285D02*
X013552Y019285D01*
X013552Y020285D02*
X012912Y020285D01*
X012912Y021285D02*
X013552Y021285D01*
D43*
X007232Y018785D03*
D44*
X007232Y016785D03*
D45*
X002248Y013785D03*
X002248Y007785D03*
X013216Y007785D03*
X013216Y013785D03*
D46*
X010342Y012887D03*
X010342Y014683D03*
X010342Y008683D03*
X010342Y006887D03*
X005122Y006887D03*
X005122Y008683D03*
X005122Y012887D03*
X005122Y014683D03*
D47*
X007165Y012718D02*
X007165Y012159D01*
X007165Y012718D02*
X007232Y012785D01*
X007232Y010620D02*
X006232Y010620D01*
X008232Y010620D01*
X009552Y010620D01*
X010342Y011410D01*
X010342Y012887D02*
X011357Y013902D01*
X011357Y015035D01*
X011066Y015325D01*
X011066Y015785D01*
X011982Y016200D02*
X011982Y016910D01*
X011982Y016200D02*
X012397Y015785D01*
X010358Y017718D02*
X010299Y017718D01*
X009857Y018160D01*
X010107Y020285D02*
X010897Y020285D01*
X010897Y021285D02*
X010107Y021285D01*
X009232Y010620D02*
X008232Y010620D01*
X008232Y009950D02*
X008165Y009883D01*
X008165Y008410D01*
X008040Y008160D01*
X008107Y008218D01*
X008107Y008035D01*
X008607Y007535D01*
X008607Y006285D01*
X008858Y006034D01*
X008858Y005852D01*
X009232Y006718D02*
X009232Y007950D01*
X009191Y007910D01*
X008857Y007910D01*
X008607Y008160D01*
X008607Y009160D01*
X009232Y009785D01*
X009232Y009950D01*
X009607Y008660D02*
X010319Y008660D01*
X010342Y008683D01*
X009607Y008660D02*
X009566Y008620D01*
X009232Y008620D01*
X007982Y007285D02*
X007982Y007094D01*
X007606Y006718D01*
X007606Y006536D01*
X007732Y006410D01*
X007732Y004852D01*
X007665Y004785D01*
X008352Y004280D02*
X006930Y004280D01*
X006799Y004411D01*
X006799Y005159D02*
X006481Y005159D01*
X006107Y004785D01*
X005941Y005785D02*
X005232Y005785D01*
X005941Y005785D02*
X005982Y005825D01*
X007205Y005825D01*
X007232Y005852D01*
X006858Y006718D02*
X007174Y007034D01*
X007174Y007786D01*
X005481Y007786D01*
X005107Y008160D01*
X005144Y006910D02*
X005122Y006887D01*
X005144Y006910D02*
X005732Y006910D01*
X006022Y006620D01*
X005982Y006495D01*
X006981Y008534D02*
X006727Y008788D01*
X006727Y009000D01*
X006981Y008534D02*
X007174Y008534D01*
X007232Y009285D02*
X007232Y009950D01*
X006232Y009950D02*
X006232Y009285D01*
X004607Y004410D02*
X004645Y004372D01*
X004645Y002785D01*
X004566Y001785D02*
X004732Y001785D01*
X005982Y000535D01*
X007466Y000535D01*
X008716Y001825D01*
X010232Y001785D02*
X010897Y001785D01*
X011566Y001785D02*
X011645Y001864D01*
X011645Y002785D01*
X010818Y002785D02*
X010818Y003747D01*
X010857Y003785D01*
X009607Y005535D02*
X008352Y004280D01*
X009607Y005535D02*
X009607Y005851D01*
X009606Y005852D01*
X003897Y001785D02*
X003818Y001864D01*
X003818Y002785D01*
D48*
X005232Y005785D03*
X006107Y004785D03*
X007982Y007285D03*
X006727Y009000D03*
X006232Y009285D03*
X007232Y009285D03*
X008232Y011660D03*
X007232Y012785D03*
X004732Y009700D03*
X004982Y009200D03*
X004482Y009200D03*
X004357Y008700D03*
X004607Y008160D03*
X005107Y008160D03*
X009982Y007410D03*
X010482Y007410D03*
X010982Y007410D03*
X011232Y006910D03*
X010982Y006285D03*
X010482Y006285D03*
X010232Y001785D03*
X011982Y016910D03*
X009857Y018160D03*
X010107Y020285D03*
X010107Y021285D03*
D49*
X004637Y010746D02*
X004637Y010016D01*
X005100Y010016D01*
X005157Y010027D01*
X005211Y010049D01*
X005232Y010063D01*
X005232Y009285D01*
X005737Y009285D01*
X005737Y009187D01*
X005812Y009005D01*
X005857Y008960D01*
X005857Y007660D01*
X004304Y007700D01*
X004304Y010016D01*
X004559Y010016D01*
X004559Y010746D01*
X004637Y010746D01*
X004637Y010357D02*
X004559Y010357D01*
X004304Y009965D02*
X005232Y009965D01*
X005232Y009573D02*
X004304Y009573D01*
X004304Y009181D02*
X005739Y009181D01*
X005667Y009069D02*
X005626Y009110D01*
X005577Y009143D01*
X005523Y009165D01*
X005466Y009176D01*
X005122Y009176D01*
X005122Y008683D01*
X005122Y008683D01*
X005733Y008683D01*
X005733Y008909D01*
X005722Y008966D01*
X005700Y009020D01*
X005667Y009069D01*
X005733Y008788D02*
X005857Y008788D01*
X005733Y008683D02*
X005733Y008457D01*
X005722Y008399D01*
X005700Y008345D01*
X005667Y008297D01*
X005626Y008255D01*
X005577Y008223D01*
X005523Y008200D01*
X005466Y008189D01*
X005122Y008189D01*
X005122Y008683D01*
X005122Y008683D01*
X005122Y009176D01*
X004777Y009176D01*
X004720Y009165D01*
X004666Y009143D01*
X004617Y009110D01*
X004576Y009069D01*
X004544Y009020D01*
X004521Y008966D01*
X004510Y008909D01*
X004510Y008683D01*
X005122Y008683D01*
X005733Y008683D01*
X005721Y008396D02*
X005857Y008396D01*
X005857Y008004D02*
X004304Y008004D01*
X004304Y008396D02*
X004522Y008396D01*
X004521Y008399D02*
X004544Y008345D01*
X004576Y008297D01*
X004617Y008255D01*
X004666Y008223D01*
X004720Y008200D01*
X004777Y008189D01*
X005122Y008189D01*
X005122Y008683D01*
X005122Y008683D01*
X005122Y008683D01*
X004510Y008683D01*
X004510Y008457D01*
X004521Y008399D01*
X004510Y008788D02*
X004304Y008788D01*
X005122Y008788D02*
X005122Y008788D01*
X005122Y008396D02*
X005122Y008396D01*
X009857Y007535D02*
X009857Y007327D01*
X009887Y007347D01*
X009941Y007370D01*
X009998Y007381D01*
X010342Y007381D01*
X010342Y006887D01*
X010342Y006887D01*
X010342Y006394D01*
X010232Y006394D01*
X010232Y006007D01*
X010253Y006021D01*
X010307Y006043D01*
X010364Y006054D01*
X010826Y006054D01*
X010826Y005324D01*
X010905Y005324D01*
X010905Y006054D01*
X011357Y006054D01*
X011357Y007535D01*
X009857Y007535D01*
X010342Y007381D02*
X010342Y006887D01*
X010342Y006394D01*
X010686Y006394D01*
X010744Y006405D01*
X010798Y006427D01*
X010846Y006460D01*
X010888Y006501D01*
X010920Y006550D01*
X010942Y006604D01*
X010954Y006661D01*
X010954Y006887D01*
X010342Y006887D01*
X010342Y006887D01*
X010954Y006887D01*
X010954Y007113D01*
X010942Y007171D01*
X010920Y007225D01*
X010888Y007273D01*
X010846Y007315D01*
X010798Y007347D01*
X010744Y007370D01*
X010686Y007381D01*
X010342Y007381D01*
X010342Y007220D02*
X010342Y007220D01*
X010342Y006887D02*
X010342Y006887D01*
X010342Y006827D02*
X010342Y006827D01*
X010342Y006435D02*
X010342Y006435D01*
X010307Y006043D02*
X010232Y006043D01*
X010826Y006043D02*
X010905Y006043D01*
X010809Y006435D02*
X011357Y006435D01*
X011357Y006827D02*
X010954Y006827D01*
X010922Y007220D02*
X011357Y007220D01*
X010905Y005651D02*
X010826Y005651D01*
D50*
X010482Y006285D02*
X010049Y005852D01*
X009606Y005852D01*
X008636Y020960D02*
X006312Y020960D01*
X004657Y022615D01*
X004152Y022615D01*
X004151Y021947D02*
X004152Y021945D01*
X004151Y021947D02*
X003112Y021947D01*
X003112Y022773D02*
X003112Y023280D01*
X005553Y023280D01*
X006748Y022085D01*
X008636Y020960D02*
X008716Y021040D01*
D51*
X008716Y020269D01*
X007232Y018785D01*
X006232Y018785D01*
X005232Y017785D01*
X005232Y016285D01*
X005232Y014793D01*
X005122Y014683D01*
X005224Y014785D01*
X006232Y014785D01*
X007232Y014785D01*
X009129Y012887D01*
X010342Y012887D01*
X008716Y021040D02*
X008716Y022085D01*
X004732Y004285D02*
X006732Y002285D01*
X006732Y001801D01*
X006748Y001825D01*
X008716Y001825D02*
X008732Y001801D01*
X008732Y002785D01*
X009732Y003785D01*
D52*
X010866Y010785D02*
X010342Y011309D01*
X010342Y011410D01*
X010342Y012887D01*
X005232Y016285D02*
X004598Y016285D01*
D53*
X006232Y014785D02*
X006232Y013620D01*
X006232Y012950D02*
X006232Y011852D01*
X006299Y011785D01*
X006169Y012887D02*
X006232Y012950D01*
X006169Y012887D02*
X005122Y012887D01*
X007165Y011411D02*
X007983Y011411D01*
X008232Y011660D01*
X010342Y014683D02*
X010342Y015730D01*
X010397Y015785D01*
X010397Y016517D01*
X010732Y016852D01*
X011106Y017718D02*
X011106Y018161D01*
X010857Y018410D01*
X010857Y018745D01*
X010897Y018785D01*
X011566Y018785D02*
X012066Y018285D01*
X013232Y018285D01*
X013232Y017285D02*
X013232Y015950D01*
X013066Y015785D01*
X013232Y020285D02*
X011566Y020285D01*
X011566Y021285D02*
X013232Y021285D01*
D54*
X013216Y013785D02*
X013216Y010801D01*
X013232Y010785D01*
X013232Y010285D02*
X013232Y007801D01*
X013216Y007785D01*
X013216Y005769D01*
X012732Y005285D01*
X013232Y010285D02*
X012732Y010785D01*
X012598Y010785D01*
X004732Y004285D02*
X004607Y004410D01*
X002248Y006769D01*
X002248Y007785D01*
X002232Y007801D01*
X002232Y009285D01*
X002866Y009919D01*
X002866Y010785D01*
X002232Y011419D01*
X002232Y013785D01*
X002248Y013785D01*
X002232Y013785D02*
X002232Y015785D01*
X002732Y016285D01*
X002866Y016285D01*
D55*
X009732Y003785D02*
X010857Y003785D01*
X011732Y003785D01*
X012598Y004651D01*
X012598Y005285D01*
X012732Y005285D01*
X012598Y010785D02*
X013232Y010785D01*
M02*
