G75*
%MOIN*%
%OFA0B0*%
%FSLAX25Y25*%
%IPPOS*%
%LPD*%
%AMOC8*
5,1,8,0,0,1.08239X$1,22.5*
%
%ADD10C,0.00000*%
D10*
X0043304Y0053815D02*
X0059052Y0038067D01*
X1027556Y0038067D01*
X1043304Y0053815D01*
X1043304Y0947516D01*
X1027556Y0963264D01*
X0177162Y0963264D01*
X0173225Y0967201D01*
X0173225Y1016020D01*
X0169288Y1019957D01*
X0062989Y1019957D01*
X0059052Y1016020D01*
X0059052Y0963264D01*
X0043304Y0947516D01*
X0043304Y0053815D01*
X0131493Y0077437D02*
X0131495Y0077595D01*
X0131501Y0077753D01*
X0131511Y0077911D01*
X0131525Y0078069D01*
X0131543Y0078226D01*
X0131564Y0078383D01*
X0131590Y0078539D01*
X0131620Y0078695D01*
X0131653Y0078850D01*
X0131691Y0079003D01*
X0131732Y0079156D01*
X0131777Y0079308D01*
X0131826Y0079459D01*
X0131879Y0079608D01*
X0131935Y0079756D01*
X0131995Y0079902D01*
X0132059Y0080047D01*
X0132127Y0080190D01*
X0132198Y0080332D01*
X0132272Y0080472D01*
X0132350Y0080609D01*
X0132432Y0080745D01*
X0132516Y0080879D01*
X0132605Y0081010D01*
X0132696Y0081139D01*
X0132791Y0081266D01*
X0132888Y0081391D01*
X0132989Y0081513D01*
X0133093Y0081632D01*
X0133200Y0081749D01*
X0133310Y0081863D01*
X0133423Y0081974D01*
X0133538Y0082083D01*
X0133656Y0082188D01*
X0133777Y0082290D01*
X0133900Y0082390D01*
X0134026Y0082486D01*
X0134154Y0082579D01*
X0134284Y0082669D01*
X0134417Y0082755D01*
X0134552Y0082839D01*
X0134688Y0082918D01*
X0134827Y0082995D01*
X0134968Y0083067D01*
X0135110Y0083137D01*
X0135254Y0083202D01*
X0135400Y0083264D01*
X0135547Y0083322D01*
X0135696Y0083377D01*
X0135846Y0083428D01*
X0135997Y0083475D01*
X0136149Y0083518D01*
X0136302Y0083557D01*
X0136457Y0083593D01*
X0136612Y0083624D01*
X0136768Y0083652D01*
X0136924Y0083676D01*
X0137081Y0083696D01*
X0137239Y0083712D01*
X0137396Y0083724D01*
X0137555Y0083732D01*
X0137713Y0083736D01*
X0137871Y0083736D01*
X0138029Y0083732D01*
X0138188Y0083724D01*
X0138345Y0083712D01*
X0138503Y0083696D01*
X0138660Y0083676D01*
X0138816Y0083652D01*
X0138972Y0083624D01*
X0139127Y0083593D01*
X0139282Y0083557D01*
X0139435Y0083518D01*
X0139587Y0083475D01*
X0139738Y0083428D01*
X0139888Y0083377D01*
X0140037Y0083322D01*
X0140184Y0083264D01*
X0140330Y0083202D01*
X0140474Y0083137D01*
X0140616Y0083067D01*
X0140757Y0082995D01*
X0140896Y0082918D01*
X0141032Y0082839D01*
X0141167Y0082755D01*
X0141300Y0082669D01*
X0141430Y0082579D01*
X0141558Y0082486D01*
X0141684Y0082390D01*
X0141807Y0082290D01*
X0141928Y0082188D01*
X0142046Y0082083D01*
X0142161Y0081974D01*
X0142274Y0081863D01*
X0142384Y0081749D01*
X0142491Y0081632D01*
X0142595Y0081513D01*
X0142696Y0081391D01*
X0142793Y0081266D01*
X0142888Y0081139D01*
X0142979Y0081010D01*
X0143068Y0080879D01*
X0143152Y0080745D01*
X0143234Y0080609D01*
X0143312Y0080472D01*
X0143386Y0080332D01*
X0143457Y0080190D01*
X0143525Y0080047D01*
X0143589Y0079902D01*
X0143649Y0079756D01*
X0143705Y0079608D01*
X0143758Y0079459D01*
X0143807Y0079308D01*
X0143852Y0079156D01*
X0143893Y0079003D01*
X0143931Y0078850D01*
X0143964Y0078695D01*
X0143994Y0078539D01*
X0144020Y0078383D01*
X0144041Y0078226D01*
X0144059Y0078069D01*
X0144073Y0077911D01*
X0144083Y0077753D01*
X0144089Y0077595D01*
X0144091Y0077437D01*
X0144089Y0077279D01*
X0144083Y0077121D01*
X0144073Y0076963D01*
X0144059Y0076805D01*
X0144041Y0076648D01*
X0144020Y0076491D01*
X0143994Y0076335D01*
X0143964Y0076179D01*
X0143931Y0076024D01*
X0143893Y0075871D01*
X0143852Y0075718D01*
X0143807Y0075566D01*
X0143758Y0075415D01*
X0143705Y0075266D01*
X0143649Y0075118D01*
X0143589Y0074972D01*
X0143525Y0074827D01*
X0143457Y0074684D01*
X0143386Y0074542D01*
X0143312Y0074402D01*
X0143234Y0074265D01*
X0143152Y0074129D01*
X0143068Y0073995D01*
X0142979Y0073864D01*
X0142888Y0073735D01*
X0142793Y0073608D01*
X0142696Y0073483D01*
X0142595Y0073361D01*
X0142491Y0073242D01*
X0142384Y0073125D01*
X0142274Y0073011D01*
X0142161Y0072900D01*
X0142046Y0072791D01*
X0141928Y0072686D01*
X0141807Y0072584D01*
X0141684Y0072484D01*
X0141558Y0072388D01*
X0141430Y0072295D01*
X0141300Y0072205D01*
X0141167Y0072119D01*
X0141032Y0072035D01*
X0140896Y0071956D01*
X0140757Y0071879D01*
X0140616Y0071807D01*
X0140474Y0071737D01*
X0140330Y0071672D01*
X0140184Y0071610D01*
X0140037Y0071552D01*
X0139888Y0071497D01*
X0139738Y0071446D01*
X0139587Y0071399D01*
X0139435Y0071356D01*
X0139282Y0071317D01*
X0139127Y0071281D01*
X0138972Y0071250D01*
X0138816Y0071222D01*
X0138660Y0071198D01*
X0138503Y0071178D01*
X0138345Y0071162D01*
X0138188Y0071150D01*
X0138029Y0071142D01*
X0137871Y0071138D01*
X0137713Y0071138D01*
X0137555Y0071142D01*
X0137396Y0071150D01*
X0137239Y0071162D01*
X0137081Y0071178D01*
X0136924Y0071198D01*
X0136768Y0071222D01*
X0136612Y0071250D01*
X0136457Y0071281D01*
X0136302Y0071317D01*
X0136149Y0071356D01*
X0135997Y0071399D01*
X0135846Y0071446D01*
X0135696Y0071497D01*
X0135547Y0071552D01*
X0135400Y0071610D01*
X0135254Y0071672D01*
X0135110Y0071737D01*
X0134968Y0071807D01*
X0134827Y0071879D01*
X0134688Y0071956D01*
X0134552Y0072035D01*
X0134417Y0072119D01*
X0134284Y0072205D01*
X0134154Y0072295D01*
X0134026Y0072388D01*
X0133900Y0072484D01*
X0133777Y0072584D01*
X0133656Y0072686D01*
X0133538Y0072791D01*
X0133423Y0072900D01*
X0133310Y0073011D01*
X0133200Y0073125D01*
X0133093Y0073242D01*
X0132989Y0073361D01*
X0132888Y0073483D01*
X0132791Y0073608D01*
X0132696Y0073735D01*
X0132605Y0073864D01*
X0132516Y0073995D01*
X0132432Y0074129D01*
X0132350Y0074265D01*
X0132272Y0074402D01*
X0132198Y0074542D01*
X0132127Y0074684D01*
X0132059Y0074827D01*
X0131995Y0074972D01*
X0131935Y0075118D01*
X0131879Y0075266D01*
X0131826Y0075415D01*
X0131777Y0075566D01*
X0131732Y0075718D01*
X0131691Y0075871D01*
X0131653Y0076024D01*
X0131620Y0076179D01*
X0131590Y0076335D01*
X0131564Y0076491D01*
X0131543Y0076648D01*
X0131525Y0076805D01*
X0131511Y0076963D01*
X0131501Y0077121D01*
X0131495Y0077279D01*
X0131493Y0077437D01*
X0131495Y0077595D01*
X0131501Y0077753D01*
X0131511Y0077911D01*
X0131525Y0078069D01*
X0131543Y0078226D01*
X0131564Y0078383D01*
X0131590Y0078539D01*
X0131620Y0078695D01*
X0131653Y0078850D01*
X0131691Y0079003D01*
X0131732Y0079156D01*
X0131777Y0079308D01*
X0131826Y0079459D01*
X0131879Y0079608D01*
X0131935Y0079756D01*
X0131995Y0079902D01*
X0132059Y0080047D01*
X0132127Y0080190D01*
X0132198Y0080332D01*
X0132272Y0080472D01*
X0132350Y0080609D01*
X0132432Y0080745D01*
X0132516Y0080879D01*
X0132605Y0081010D01*
X0132696Y0081139D01*
X0132791Y0081266D01*
X0132888Y0081391D01*
X0132989Y0081513D01*
X0133093Y0081632D01*
X0133200Y0081749D01*
X0133310Y0081863D01*
X0133423Y0081974D01*
X0133538Y0082083D01*
X0133656Y0082188D01*
X0133777Y0082290D01*
X0133900Y0082390D01*
X0134026Y0082486D01*
X0134154Y0082579D01*
X0134284Y0082669D01*
X0134417Y0082755D01*
X0134552Y0082839D01*
X0134688Y0082918D01*
X0134827Y0082995D01*
X0134968Y0083067D01*
X0135110Y0083137D01*
X0135254Y0083202D01*
X0135400Y0083264D01*
X0135547Y0083322D01*
X0135696Y0083377D01*
X0135846Y0083428D01*
X0135997Y0083475D01*
X0136149Y0083518D01*
X0136302Y0083557D01*
X0136457Y0083593D01*
X0136612Y0083624D01*
X0136768Y0083652D01*
X0136924Y0083676D01*
X0137081Y0083696D01*
X0137239Y0083712D01*
X0137396Y0083724D01*
X0137555Y0083732D01*
X0137713Y0083736D01*
X0137871Y0083736D01*
X0138029Y0083732D01*
X0138188Y0083724D01*
X0138345Y0083712D01*
X0138503Y0083696D01*
X0138660Y0083676D01*
X0138816Y0083652D01*
X0138972Y0083624D01*
X0139127Y0083593D01*
X0139282Y0083557D01*
X0139435Y0083518D01*
X0139587Y0083475D01*
X0139738Y0083428D01*
X0139888Y0083377D01*
X0140037Y0083322D01*
X0140184Y0083264D01*
X0140330Y0083202D01*
X0140474Y0083137D01*
X0140616Y0083067D01*
X0140757Y0082995D01*
X0140896Y0082918D01*
X0141032Y0082839D01*
X0141167Y0082755D01*
X0141300Y0082669D01*
X0141430Y0082579D01*
X0141558Y0082486D01*
X0141684Y0082390D01*
X0141807Y0082290D01*
X0141928Y0082188D01*
X0142046Y0082083D01*
X0142161Y0081974D01*
X0142274Y0081863D01*
X0142384Y0081749D01*
X0142491Y0081632D01*
X0142595Y0081513D01*
X0142696Y0081391D01*
X0142793Y0081266D01*
X0142888Y0081139D01*
X0142979Y0081010D01*
X0143068Y0080879D01*
X0143152Y0080745D01*
X0143234Y0080609D01*
X0143312Y0080472D01*
X0143386Y0080332D01*
X0143457Y0080190D01*
X0143525Y0080047D01*
X0143589Y0079902D01*
X0143649Y0079756D01*
X0143705Y0079608D01*
X0143758Y0079459D01*
X0143807Y0079308D01*
X0143852Y0079156D01*
X0143893Y0079003D01*
X0143931Y0078850D01*
X0143964Y0078695D01*
X0143994Y0078539D01*
X0144020Y0078383D01*
X0144041Y0078226D01*
X0144059Y0078069D01*
X0144073Y0077911D01*
X0144083Y0077753D01*
X0144089Y0077595D01*
X0144091Y0077437D01*
X0144089Y0077279D01*
X0144083Y0077121D01*
X0144073Y0076963D01*
X0144059Y0076805D01*
X0144041Y0076648D01*
X0144020Y0076491D01*
X0143994Y0076335D01*
X0143964Y0076179D01*
X0143931Y0076024D01*
X0143893Y0075871D01*
X0143852Y0075718D01*
X0143807Y0075566D01*
X0143758Y0075415D01*
X0143705Y0075266D01*
X0143649Y0075118D01*
X0143589Y0074972D01*
X0143525Y0074827D01*
X0143457Y0074684D01*
X0143386Y0074542D01*
X0143312Y0074402D01*
X0143234Y0074265D01*
X0143152Y0074129D01*
X0143068Y0073995D01*
X0142979Y0073864D01*
X0142888Y0073735D01*
X0142793Y0073608D01*
X0142696Y0073483D01*
X0142595Y0073361D01*
X0142491Y0073242D01*
X0142384Y0073125D01*
X0142274Y0073011D01*
X0142161Y0072900D01*
X0142046Y0072791D01*
X0141928Y0072686D01*
X0141807Y0072584D01*
X0141684Y0072484D01*
X0141558Y0072388D01*
X0141430Y0072295D01*
X0141300Y0072205D01*
X0141167Y0072119D01*
X0141032Y0072035D01*
X0140896Y0071956D01*
X0140757Y0071879D01*
X0140616Y0071807D01*
X0140474Y0071737D01*
X0140330Y0071672D01*
X0140184Y0071610D01*
X0140037Y0071552D01*
X0139888Y0071497D01*
X0139738Y0071446D01*
X0139587Y0071399D01*
X0139435Y0071356D01*
X0139282Y0071317D01*
X0139127Y0071281D01*
X0138972Y0071250D01*
X0138816Y0071222D01*
X0138660Y0071198D01*
X0138503Y0071178D01*
X0138345Y0071162D01*
X0138188Y0071150D01*
X0138029Y0071142D01*
X0137871Y0071138D01*
X0137713Y0071138D01*
X0137555Y0071142D01*
X0137396Y0071150D01*
X0137239Y0071162D01*
X0137081Y0071178D01*
X0136924Y0071198D01*
X0136768Y0071222D01*
X0136612Y0071250D01*
X0136457Y0071281D01*
X0136302Y0071317D01*
X0136149Y0071356D01*
X0135997Y0071399D01*
X0135846Y0071446D01*
X0135696Y0071497D01*
X0135547Y0071552D01*
X0135400Y0071610D01*
X0135254Y0071672D01*
X0135110Y0071737D01*
X0134968Y0071807D01*
X0134827Y0071879D01*
X0134688Y0071956D01*
X0134552Y0072035D01*
X0134417Y0072119D01*
X0134284Y0072205D01*
X0134154Y0072295D01*
X0134026Y0072388D01*
X0133900Y0072484D01*
X0133777Y0072584D01*
X0133656Y0072686D01*
X0133538Y0072791D01*
X0133423Y0072900D01*
X0133310Y0073011D01*
X0133200Y0073125D01*
X0133093Y0073242D01*
X0132989Y0073361D01*
X0132888Y0073483D01*
X0132791Y0073608D01*
X0132696Y0073735D01*
X0132605Y0073864D01*
X0132516Y0073995D01*
X0132432Y0074129D01*
X0132350Y0074265D01*
X0132272Y0074402D01*
X0132198Y0074542D01*
X0132127Y0074684D01*
X0132059Y0074827D01*
X0131995Y0074972D01*
X0131935Y0075118D01*
X0131879Y0075266D01*
X0131826Y0075415D01*
X0131777Y0075566D01*
X0131732Y0075718D01*
X0131691Y0075871D01*
X0131653Y0076024D01*
X0131620Y0076179D01*
X0131590Y0076335D01*
X0131564Y0076491D01*
X0131543Y0076648D01*
X0131525Y0076805D01*
X0131511Y0076963D01*
X0131501Y0077121D01*
X0131495Y0077279D01*
X0131493Y0077437D01*
X0542910Y0406177D02*
X0542912Y0406335D01*
X0542918Y0406493D01*
X0542928Y0406651D01*
X0542942Y0406809D01*
X0542960Y0406966D01*
X0542981Y0407123D01*
X0543007Y0407279D01*
X0543037Y0407435D01*
X0543070Y0407590D01*
X0543108Y0407743D01*
X0543149Y0407896D01*
X0543194Y0408048D01*
X0543243Y0408199D01*
X0543296Y0408348D01*
X0543352Y0408496D01*
X0543412Y0408642D01*
X0543476Y0408787D01*
X0543544Y0408930D01*
X0543615Y0409072D01*
X0543689Y0409212D01*
X0543767Y0409349D01*
X0543849Y0409485D01*
X0543933Y0409619D01*
X0544022Y0409750D01*
X0544113Y0409879D01*
X0544208Y0410006D01*
X0544305Y0410131D01*
X0544406Y0410253D01*
X0544510Y0410372D01*
X0544617Y0410489D01*
X0544727Y0410603D01*
X0544840Y0410714D01*
X0544955Y0410823D01*
X0545073Y0410928D01*
X0545194Y0411030D01*
X0545317Y0411130D01*
X0545443Y0411226D01*
X0545571Y0411319D01*
X0545701Y0411409D01*
X0545834Y0411495D01*
X0545969Y0411579D01*
X0546105Y0411658D01*
X0546244Y0411735D01*
X0546385Y0411807D01*
X0546527Y0411877D01*
X0546671Y0411942D01*
X0546817Y0412004D01*
X0546964Y0412062D01*
X0547113Y0412117D01*
X0547263Y0412168D01*
X0547414Y0412215D01*
X0547566Y0412258D01*
X0547719Y0412297D01*
X0547874Y0412333D01*
X0548029Y0412364D01*
X0548185Y0412392D01*
X0548341Y0412416D01*
X0548498Y0412436D01*
X0548656Y0412452D01*
X0548813Y0412464D01*
X0548972Y0412472D01*
X0549130Y0412476D01*
X0549288Y0412476D01*
X0549446Y0412472D01*
X0549605Y0412464D01*
X0549762Y0412452D01*
X0549920Y0412436D01*
X0550077Y0412416D01*
X0550233Y0412392D01*
X0550389Y0412364D01*
X0550544Y0412333D01*
X0550699Y0412297D01*
X0550852Y0412258D01*
X0551004Y0412215D01*
X0551155Y0412168D01*
X0551305Y0412117D01*
X0551454Y0412062D01*
X0551601Y0412004D01*
X0551747Y0411942D01*
X0551891Y0411877D01*
X0552033Y0411807D01*
X0552174Y0411735D01*
X0552313Y0411658D01*
X0552449Y0411579D01*
X0552584Y0411495D01*
X0552717Y0411409D01*
X0552847Y0411319D01*
X0552975Y0411226D01*
X0553101Y0411130D01*
X0553224Y0411030D01*
X0553345Y0410928D01*
X0553463Y0410823D01*
X0553578Y0410714D01*
X0553691Y0410603D01*
X0553801Y0410489D01*
X0553908Y0410372D01*
X0554012Y0410253D01*
X0554113Y0410131D01*
X0554210Y0410006D01*
X0554305Y0409879D01*
X0554396Y0409750D01*
X0554485Y0409619D01*
X0554569Y0409485D01*
X0554651Y0409349D01*
X0554729Y0409212D01*
X0554803Y0409072D01*
X0554874Y0408930D01*
X0554942Y0408787D01*
X0555006Y0408642D01*
X0555066Y0408496D01*
X0555122Y0408348D01*
X0555175Y0408199D01*
X0555224Y0408048D01*
X0555269Y0407896D01*
X0555310Y0407743D01*
X0555348Y0407590D01*
X0555381Y0407435D01*
X0555411Y0407279D01*
X0555437Y0407123D01*
X0555458Y0406966D01*
X0555476Y0406809D01*
X0555490Y0406651D01*
X0555500Y0406493D01*
X0555506Y0406335D01*
X0555508Y0406177D01*
X0555506Y0406019D01*
X0555500Y0405861D01*
X0555490Y0405703D01*
X0555476Y0405545D01*
X0555458Y0405388D01*
X0555437Y0405231D01*
X0555411Y0405075D01*
X0555381Y0404919D01*
X0555348Y0404764D01*
X0555310Y0404611D01*
X0555269Y0404458D01*
X0555224Y0404306D01*
X0555175Y0404155D01*
X0555122Y0404006D01*
X0555066Y0403858D01*
X0555006Y0403712D01*
X0554942Y0403567D01*
X0554874Y0403424D01*
X0554803Y0403282D01*
X0554729Y0403142D01*
X0554651Y0403005D01*
X0554569Y0402869D01*
X0554485Y0402735D01*
X0554396Y0402604D01*
X0554305Y0402475D01*
X0554210Y0402348D01*
X0554113Y0402223D01*
X0554012Y0402101D01*
X0553908Y0401982D01*
X0553801Y0401865D01*
X0553691Y0401751D01*
X0553578Y0401640D01*
X0553463Y0401531D01*
X0553345Y0401426D01*
X0553224Y0401324D01*
X0553101Y0401224D01*
X0552975Y0401128D01*
X0552847Y0401035D01*
X0552717Y0400945D01*
X0552584Y0400859D01*
X0552449Y0400775D01*
X0552313Y0400696D01*
X0552174Y0400619D01*
X0552033Y0400547D01*
X0551891Y0400477D01*
X0551747Y0400412D01*
X0551601Y0400350D01*
X0551454Y0400292D01*
X0551305Y0400237D01*
X0551155Y0400186D01*
X0551004Y0400139D01*
X0550852Y0400096D01*
X0550699Y0400057D01*
X0550544Y0400021D01*
X0550389Y0399990D01*
X0550233Y0399962D01*
X0550077Y0399938D01*
X0549920Y0399918D01*
X0549762Y0399902D01*
X0549605Y0399890D01*
X0549446Y0399882D01*
X0549288Y0399878D01*
X0549130Y0399878D01*
X0548972Y0399882D01*
X0548813Y0399890D01*
X0548656Y0399902D01*
X0548498Y0399918D01*
X0548341Y0399938D01*
X0548185Y0399962D01*
X0548029Y0399990D01*
X0547874Y0400021D01*
X0547719Y0400057D01*
X0547566Y0400096D01*
X0547414Y0400139D01*
X0547263Y0400186D01*
X0547113Y0400237D01*
X0546964Y0400292D01*
X0546817Y0400350D01*
X0546671Y0400412D01*
X0546527Y0400477D01*
X0546385Y0400547D01*
X0546244Y0400619D01*
X0546105Y0400696D01*
X0545969Y0400775D01*
X0545834Y0400859D01*
X0545701Y0400945D01*
X0545571Y0401035D01*
X0545443Y0401128D01*
X0545317Y0401224D01*
X0545194Y0401324D01*
X0545073Y0401426D01*
X0544955Y0401531D01*
X0544840Y0401640D01*
X0544727Y0401751D01*
X0544617Y0401865D01*
X0544510Y0401982D01*
X0544406Y0402101D01*
X0544305Y0402223D01*
X0544208Y0402348D01*
X0544113Y0402475D01*
X0544022Y0402604D01*
X0543933Y0402735D01*
X0543849Y0402869D01*
X0543767Y0403005D01*
X0543689Y0403142D01*
X0543615Y0403282D01*
X0543544Y0403424D01*
X0543476Y0403567D01*
X0543412Y0403712D01*
X0543352Y0403858D01*
X0543296Y0404006D01*
X0543243Y0404155D01*
X0543194Y0404306D01*
X0543149Y0404458D01*
X0543108Y0404611D01*
X0543070Y0404764D01*
X0543037Y0404919D01*
X0543007Y0405075D01*
X0542981Y0405231D01*
X0542960Y0405388D01*
X0542942Y0405545D01*
X0542928Y0405703D01*
X0542918Y0405861D01*
X0542912Y0406019D01*
X0542910Y0406177D01*
X0542910Y0567594D02*
X0542912Y0567752D01*
X0542918Y0567910D01*
X0542928Y0568068D01*
X0542942Y0568226D01*
X0542960Y0568383D01*
X0542981Y0568540D01*
X0543007Y0568696D01*
X0543037Y0568852D01*
X0543070Y0569007D01*
X0543108Y0569160D01*
X0543149Y0569313D01*
X0543194Y0569465D01*
X0543243Y0569616D01*
X0543296Y0569765D01*
X0543352Y0569913D01*
X0543412Y0570059D01*
X0543476Y0570204D01*
X0543544Y0570347D01*
X0543615Y0570489D01*
X0543689Y0570629D01*
X0543767Y0570766D01*
X0543849Y0570902D01*
X0543933Y0571036D01*
X0544022Y0571167D01*
X0544113Y0571296D01*
X0544208Y0571423D01*
X0544305Y0571548D01*
X0544406Y0571670D01*
X0544510Y0571789D01*
X0544617Y0571906D01*
X0544727Y0572020D01*
X0544840Y0572131D01*
X0544955Y0572240D01*
X0545073Y0572345D01*
X0545194Y0572447D01*
X0545317Y0572547D01*
X0545443Y0572643D01*
X0545571Y0572736D01*
X0545701Y0572826D01*
X0545834Y0572912D01*
X0545969Y0572996D01*
X0546105Y0573075D01*
X0546244Y0573152D01*
X0546385Y0573224D01*
X0546527Y0573294D01*
X0546671Y0573359D01*
X0546817Y0573421D01*
X0546964Y0573479D01*
X0547113Y0573534D01*
X0547263Y0573585D01*
X0547414Y0573632D01*
X0547566Y0573675D01*
X0547719Y0573714D01*
X0547874Y0573750D01*
X0548029Y0573781D01*
X0548185Y0573809D01*
X0548341Y0573833D01*
X0548498Y0573853D01*
X0548656Y0573869D01*
X0548813Y0573881D01*
X0548972Y0573889D01*
X0549130Y0573893D01*
X0549288Y0573893D01*
X0549446Y0573889D01*
X0549605Y0573881D01*
X0549762Y0573869D01*
X0549920Y0573853D01*
X0550077Y0573833D01*
X0550233Y0573809D01*
X0550389Y0573781D01*
X0550544Y0573750D01*
X0550699Y0573714D01*
X0550852Y0573675D01*
X0551004Y0573632D01*
X0551155Y0573585D01*
X0551305Y0573534D01*
X0551454Y0573479D01*
X0551601Y0573421D01*
X0551747Y0573359D01*
X0551891Y0573294D01*
X0552033Y0573224D01*
X0552174Y0573152D01*
X0552313Y0573075D01*
X0552449Y0572996D01*
X0552584Y0572912D01*
X0552717Y0572826D01*
X0552847Y0572736D01*
X0552975Y0572643D01*
X0553101Y0572547D01*
X0553224Y0572447D01*
X0553345Y0572345D01*
X0553463Y0572240D01*
X0553578Y0572131D01*
X0553691Y0572020D01*
X0553801Y0571906D01*
X0553908Y0571789D01*
X0554012Y0571670D01*
X0554113Y0571548D01*
X0554210Y0571423D01*
X0554305Y0571296D01*
X0554396Y0571167D01*
X0554485Y0571036D01*
X0554569Y0570902D01*
X0554651Y0570766D01*
X0554729Y0570629D01*
X0554803Y0570489D01*
X0554874Y0570347D01*
X0554942Y0570204D01*
X0555006Y0570059D01*
X0555066Y0569913D01*
X0555122Y0569765D01*
X0555175Y0569616D01*
X0555224Y0569465D01*
X0555269Y0569313D01*
X0555310Y0569160D01*
X0555348Y0569007D01*
X0555381Y0568852D01*
X0555411Y0568696D01*
X0555437Y0568540D01*
X0555458Y0568383D01*
X0555476Y0568226D01*
X0555490Y0568068D01*
X0555500Y0567910D01*
X0555506Y0567752D01*
X0555508Y0567594D01*
X0555506Y0567436D01*
X0555500Y0567278D01*
X0555490Y0567120D01*
X0555476Y0566962D01*
X0555458Y0566805D01*
X0555437Y0566648D01*
X0555411Y0566492D01*
X0555381Y0566336D01*
X0555348Y0566181D01*
X0555310Y0566028D01*
X0555269Y0565875D01*
X0555224Y0565723D01*
X0555175Y0565572D01*
X0555122Y0565423D01*
X0555066Y0565275D01*
X0555006Y0565129D01*
X0554942Y0564984D01*
X0554874Y0564841D01*
X0554803Y0564699D01*
X0554729Y0564559D01*
X0554651Y0564422D01*
X0554569Y0564286D01*
X0554485Y0564152D01*
X0554396Y0564021D01*
X0554305Y0563892D01*
X0554210Y0563765D01*
X0554113Y0563640D01*
X0554012Y0563518D01*
X0553908Y0563399D01*
X0553801Y0563282D01*
X0553691Y0563168D01*
X0553578Y0563057D01*
X0553463Y0562948D01*
X0553345Y0562843D01*
X0553224Y0562741D01*
X0553101Y0562641D01*
X0552975Y0562545D01*
X0552847Y0562452D01*
X0552717Y0562362D01*
X0552584Y0562276D01*
X0552449Y0562192D01*
X0552313Y0562113D01*
X0552174Y0562036D01*
X0552033Y0561964D01*
X0551891Y0561894D01*
X0551747Y0561829D01*
X0551601Y0561767D01*
X0551454Y0561709D01*
X0551305Y0561654D01*
X0551155Y0561603D01*
X0551004Y0561556D01*
X0550852Y0561513D01*
X0550699Y0561474D01*
X0550544Y0561438D01*
X0550389Y0561407D01*
X0550233Y0561379D01*
X0550077Y0561355D01*
X0549920Y0561335D01*
X0549762Y0561319D01*
X0549605Y0561307D01*
X0549446Y0561299D01*
X0549288Y0561295D01*
X0549130Y0561295D01*
X0548972Y0561299D01*
X0548813Y0561307D01*
X0548656Y0561319D01*
X0548498Y0561335D01*
X0548341Y0561355D01*
X0548185Y0561379D01*
X0548029Y0561407D01*
X0547874Y0561438D01*
X0547719Y0561474D01*
X0547566Y0561513D01*
X0547414Y0561556D01*
X0547263Y0561603D01*
X0547113Y0561654D01*
X0546964Y0561709D01*
X0546817Y0561767D01*
X0546671Y0561829D01*
X0546527Y0561894D01*
X0546385Y0561964D01*
X0546244Y0562036D01*
X0546105Y0562113D01*
X0545969Y0562192D01*
X0545834Y0562276D01*
X0545701Y0562362D01*
X0545571Y0562452D01*
X0545443Y0562545D01*
X0545317Y0562641D01*
X0545194Y0562741D01*
X0545073Y0562843D01*
X0544955Y0562948D01*
X0544840Y0563057D01*
X0544727Y0563168D01*
X0544617Y0563282D01*
X0544510Y0563399D01*
X0544406Y0563518D01*
X0544305Y0563640D01*
X0544208Y0563765D01*
X0544113Y0563892D01*
X0544022Y0564021D01*
X0543933Y0564152D01*
X0543849Y0564286D01*
X0543767Y0564422D01*
X0543689Y0564559D01*
X0543615Y0564699D01*
X0543544Y0564841D01*
X0543476Y0564984D01*
X0543412Y0565129D01*
X0543352Y0565275D01*
X0543296Y0565423D01*
X0543243Y0565572D01*
X0543194Y0565723D01*
X0543149Y0565875D01*
X0543108Y0566028D01*
X0543070Y0566181D01*
X0543037Y0566336D01*
X0543007Y0566492D01*
X0542981Y0566648D01*
X0542960Y0566805D01*
X0542942Y0566962D01*
X0542928Y0567120D01*
X0542918Y0567278D01*
X0542912Y0567436D01*
X0542910Y0567594D01*
X0131493Y0900272D02*
X0131495Y0900430D01*
X0131501Y0900588D01*
X0131511Y0900746D01*
X0131525Y0900904D01*
X0131543Y0901061D01*
X0131564Y0901218D01*
X0131590Y0901374D01*
X0131620Y0901530D01*
X0131653Y0901685D01*
X0131691Y0901838D01*
X0131732Y0901991D01*
X0131777Y0902143D01*
X0131826Y0902294D01*
X0131879Y0902443D01*
X0131935Y0902591D01*
X0131995Y0902737D01*
X0132059Y0902882D01*
X0132127Y0903025D01*
X0132198Y0903167D01*
X0132272Y0903307D01*
X0132350Y0903444D01*
X0132432Y0903580D01*
X0132516Y0903714D01*
X0132605Y0903845D01*
X0132696Y0903974D01*
X0132791Y0904101D01*
X0132888Y0904226D01*
X0132989Y0904348D01*
X0133093Y0904467D01*
X0133200Y0904584D01*
X0133310Y0904698D01*
X0133423Y0904809D01*
X0133538Y0904918D01*
X0133656Y0905023D01*
X0133777Y0905125D01*
X0133900Y0905225D01*
X0134026Y0905321D01*
X0134154Y0905414D01*
X0134284Y0905504D01*
X0134417Y0905590D01*
X0134552Y0905674D01*
X0134688Y0905753D01*
X0134827Y0905830D01*
X0134968Y0905902D01*
X0135110Y0905972D01*
X0135254Y0906037D01*
X0135400Y0906099D01*
X0135547Y0906157D01*
X0135696Y0906212D01*
X0135846Y0906263D01*
X0135997Y0906310D01*
X0136149Y0906353D01*
X0136302Y0906392D01*
X0136457Y0906428D01*
X0136612Y0906459D01*
X0136768Y0906487D01*
X0136924Y0906511D01*
X0137081Y0906531D01*
X0137239Y0906547D01*
X0137396Y0906559D01*
X0137555Y0906567D01*
X0137713Y0906571D01*
X0137871Y0906571D01*
X0138029Y0906567D01*
X0138188Y0906559D01*
X0138345Y0906547D01*
X0138503Y0906531D01*
X0138660Y0906511D01*
X0138816Y0906487D01*
X0138972Y0906459D01*
X0139127Y0906428D01*
X0139282Y0906392D01*
X0139435Y0906353D01*
X0139587Y0906310D01*
X0139738Y0906263D01*
X0139888Y0906212D01*
X0140037Y0906157D01*
X0140184Y0906099D01*
X0140330Y0906037D01*
X0140474Y0905972D01*
X0140616Y0905902D01*
X0140757Y0905830D01*
X0140896Y0905753D01*
X0141032Y0905674D01*
X0141167Y0905590D01*
X0141300Y0905504D01*
X0141430Y0905414D01*
X0141558Y0905321D01*
X0141684Y0905225D01*
X0141807Y0905125D01*
X0141928Y0905023D01*
X0142046Y0904918D01*
X0142161Y0904809D01*
X0142274Y0904698D01*
X0142384Y0904584D01*
X0142491Y0904467D01*
X0142595Y0904348D01*
X0142696Y0904226D01*
X0142793Y0904101D01*
X0142888Y0903974D01*
X0142979Y0903845D01*
X0143068Y0903714D01*
X0143152Y0903580D01*
X0143234Y0903444D01*
X0143312Y0903307D01*
X0143386Y0903167D01*
X0143457Y0903025D01*
X0143525Y0902882D01*
X0143589Y0902737D01*
X0143649Y0902591D01*
X0143705Y0902443D01*
X0143758Y0902294D01*
X0143807Y0902143D01*
X0143852Y0901991D01*
X0143893Y0901838D01*
X0143931Y0901685D01*
X0143964Y0901530D01*
X0143994Y0901374D01*
X0144020Y0901218D01*
X0144041Y0901061D01*
X0144059Y0900904D01*
X0144073Y0900746D01*
X0144083Y0900588D01*
X0144089Y0900430D01*
X0144091Y0900272D01*
X0144089Y0900114D01*
X0144083Y0899956D01*
X0144073Y0899798D01*
X0144059Y0899640D01*
X0144041Y0899483D01*
X0144020Y0899326D01*
X0143994Y0899170D01*
X0143964Y0899014D01*
X0143931Y0898859D01*
X0143893Y0898706D01*
X0143852Y0898553D01*
X0143807Y0898401D01*
X0143758Y0898250D01*
X0143705Y0898101D01*
X0143649Y0897953D01*
X0143589Y0897807D01*
X0143525Y0897662D01*
X0143457Y0897519D01*
X0143386Y0897377D01*
X0143312Y0897237D01*
X0143234Y0897100D01*
X0143152Y0896964D01*
X0143068Y0896830D01*
X0142979Y0896699D01*
X0142888Y0896570D01*
X0142793Y0896443D01*
X0142696Y0896318D01*
X0142595Y0896196D01*
X0142491Y0896077D01*
X0142384Y0895960D01*
X0142274Y0895846D01*
X0142161Y0895735D01*
X0142046Y0895626D01*
X0141928Y0895521D01*
X0141807Y0895419D01*
X0141684Y0895319D01*
X0141558Y0895223D01*
X0141430Y0895130D01*
X0141300Y0895040D01*
X0141167Y0894954D01*
X0141032Y0894870D01*
X0140896Y0894791D01*
X0140757Y0894714D01*
X0140616Y0894642D01*
X0140474Y0894572D01*
X0140330Y0894507D01*
X0140184Y0894445D01*
X0140037Y0894387D01*
X0139888Y0894332D01*
X0139738Y0894281D01*
X0139587Y0894234D01*
X0139435Y0894191D01*
X0139282Y0894152D01*
X0139127Y0894116D01*
X0138972Y0894085D01*
X0138816Y0894057D01*
X0138660Y0894033D01*
X0138503Y0894013D01*
X0138345Y0893997D01*
X0138188Y0893985D01*
X0138029Y0893977D01*
X0137871Y0893973D01*
X0137713Y0893973D01*
X0137555Y0893977D01*
X0137396Y0893985D01*
X0137239Y0893997D01*
X0137081Y0894013D01*
X0136924Y0894033D01*
X0136768Y0894057D01*
X0136612Y0894085D01*
X0136457Y0894116D01*
X0136302Y0894152D01*
X0136149Y0894191D01*
X0135997Y0894234D01*
X0135846Y0894281D01*
X0135696Y0894332D01*
X0135547Y0894387D01*
X0135400Y0894445D01*
X0135254Y0894507D01*
X0135110Y0894572D01*
X0134968Y0894642D01*
X0134827Y0894714D01*
X0134688Y0894791D01*
X0134552Y0894870D01*
X0134417Y0894954D01*
X0134284Y0895040D01*
X0134154Y0895130D01*
X0134026Y0895223D01*
X0133900Y0895319D01*
X0133777Y0895419D01*
X0133656Y0895521D01*
X0133538Y0895626D01*
X0133423Y0895735D01*
X0133310Y0895846D01*
X0133200Y0895960D01*
X0133093Y0896077D01*
X0132989Y0896196D01*
X0132888Y0896318D01*
X0132791Y0896443D01*
X0132696Y0896570D01*
X0132605Y0896699D01*
X0132516Y0896830D01*
X0132432Y0896964D01*
X0132350Y0897100D01*
X0132272Y0897237D01*
X0132198Y0897377D01*
X0132127Y0897519D01*
X0132059Y0897662D01*
X0131995Y0897807D01*
X0131935Y0897953D01*
X0131879Y0898101D01*
X0131826Y0898250D01*
X0131777Y0898401D01*
X0131732Y0898553D01*
X0131691Y0898706D01*
X0131653Y0898859D01*
X0131620Y0899014D01*
X0131590Y0899170D01*
X0131564Y0899326D01*
X0131543Y0899483D01*
X0131525Y0899640D01*
X0131511Y0899798D01*
X0131501Y0899956D01*
X0131495Y0900114D01*
X0131493Y0900272D01*
X0131495Y0900430D01*
X0131501Y0900588D01*
X0131511Y0900746D01*
X0131525Y0900904D01*
X0131543Y0901061D01*
X0131564Y0901218D01*
X0131590Y0901374D01*
X0131620Y0901530D01*
X0131653Y0901685D01*
X0131691Y0901838D01*
X0131732Y0901991D01*
X0131777Y0902143D01*
X0131826Y0902294D01*
X0131879Y0902443D01*
X0131935Y0902591D01*
X0131995Y0902737D01*
X0132059Y0902882D01*
X0132127Y0903025D01*
X0132198Y0903167D01*
X0132272Y0903307D01*
X0132350Y0903444D01*
X0132432Y0903580D01*
X0132516Y0903714D01*
X0132605Y0903845D01*
X0132696Y0903974D01*
X0132791Y0904101D01*
X0132888Y0904226D01*
X0132989Y0904348D01*
X0133093Y0904467D01*
X0133200Y0904584D01*
X0133310Y0904698D01*
X0133423Y0904809D01*
X0133538Y0904918D01*
X0133656Y0905023D01*
X0133777Y0905125D01*
X0133900Y0905225D01*
X0134026Y0905321D01*
X0134154Y0905414D01*
X0134284Y0905504D01*
X0134417Y0905590D01*
X0134552Y0905674D01*
X0134688Y0905753D01*
X0134827Y0905830D01*
X0134968Y0905902D01*
X0135110Y0905972D01*
X0135254Y0906037D01*
X0135400Y0906099D01*
X0135547Y0906157D01*
X0135696Y0906212D01*
X0135846Y0906263D01*
X0135997Y0906310D01*
X0136149Y0906353D01*
X0136302Y0906392D01*
X0136457Y0906428D01*
X0136612Y0906459D01*
X0136768Y0906487D01*
X0136924Y0906511D01*
X0137081Y0906531D01*
X0137239Y0906547D01*
X0137396Y0906559D01*
X0137555Y0906567D01*
X0137713Y0906571D01*
X0137871Y0906571D01*
X0138029Y0906567D01*
X0138188Y0906559D01*
X0138345Y0906547D01*
X0138503Y0906531D01*
X0138660Y0906511D01*
X0138816Y0906487D01*
X0138972Y0906459D01*
X0139127Y0906428D01*
X0139282Y0906392D01*
X0139435Y0906353D01*
X0139587Y0906310D01*
X0139738Y0906263D01*
X0139888Y0906212D01*
X0140037Y0906157D01*
X0140184Y0906099D01*
X0140330Y0906037D01*
X0140474Y0905972D01*
X0140616Y0905902D01*
X0140757Y0905830D01*
X0140896Y0905753D01*
X0141032Y0905674D01*
X0141167Y0905590D01*
X0141300Y0905504D01*
X0141430Y0905414D01*
X0141558Y0905321D01*
X0141684Y0905225D01*
X0141807Y0905125D01*
X0141928Y0905023D01*
X0142046Y0904918D01*
X0142161Y0904809D01*
X0142274Y0904698D01*
X0142384Y0904584D01*
X0142491Y0904467D01*
X0142595Y0904348D01*
X0142696Y0904226D01*
X0142793Y0904101D01*
X0142888Y0903974D01*
X0142979Y0903845D01*
X0143068Y0903714D01*
X0143152Y0903580D01*
X0143234Y0903444D01*
X0143312Y0903307D01*
X0143386Y0903167D01*
X0143457Y0903025D01*
X0143525Y0902882D01*
X0143589Y0902737D01*
X0143649Y0902591D01*
X0143705Y0902443D01*
X0143758Y0902294D01*
X0143807Y0902143D01*
X0143852Y0901991D01*
X0143893Y0901838D01*
X0143931Y0901685D01*
X0143964Y0901530D01*
X0143994Y0901374D01*
X0144020Y0901218D01*
X0144041Y0901061D01*
X0144059Y0900904D01*
X0144073Y0900746D01*
X0144083Y0900588D01*
X0144089Y0900430D01*
X0144091Y0900272D01*
X0144089Y0900114D01*
X0144083Y0899956D01*
X0144073Y0899798D01*
X0144059Y0899640D01*
X0144041Y0899483D01*
X0144020Y0899326D01*
X0143994Y0899170D01*
X0143964Y0899014D01*
X0143931Y0898859D01*
X0143893Y0898706D01*
X0143852Y0898553D01*
X0143807Y0898401D01*
X0143758Y0898250D01*
X0143705Y0898101D01*
X0143649Y0897953D01*
X0143589Y0897807D01*
X0143525Y0897662D01*
X0143457Y0897519D01*
X0143386Y0897377D01*
X0143312Y0897237D01*
X0143234Y0897100D01*
X0143152Y0896964D01*
X0143068Y0896830D01*
X0142979Y0896699D01*
X0142888Y0896570D01*
X0142793Y0896443D01*
X0142696Y0896318D01*
X0142595Y0896196D01*
X0142491Y0896077D01*
X0142384Y0895960D01*
X0142274Y0895846D01*
X0142161Y0895735D01*
X0142046Y0895626D01*
X0141928Y0895521D01*
X0141807Y0895419D01*
X0141684Y0895319D01*
X0141558Y0895223D01*
X0141430Y0895130D01*
X0141300Y0895040D01*
X0141167Y0894954D01*
X0141032Y0894870D01*
X0140896Y0894791D01*
X0140757Y0894714D01*
X0140616Y0894642D01*
X0140474Y0894572D01*
X0140330Y0894507D01*
X0140184Y0894445D01*
X0140037Y0894387D01*
X0139888Y0894332D01*
X0139738Y0894281D01*
X0139587Y0894234D01*
X0139435Y0894191D01*
X0139282Y0894152D01*
X0139127Y0894116D01*
X0138972Y0894085D01*
X0138816Y0894057D01*
X0138660Y0894033D01*
X0138503Y0894013D01*
X0138345Y0893997D01*
X0138188Y0893985D01*
X0138029Y0893977D01*
X0137871Y0893973D01*
X0137713Y0893973D01*
X0137555Y0893977D01*
X0137396Y0893985D01*
X0137239Y0893997D01*
X0137081Y0894013D01*
X0136924Y0894033D01*
X0136768Y0894057D01*
X0136612Y0894085D01*
X0136457Y0894116D01*
X0136302Y0894152D01*
X0136149Y0894191D01*
X0135997Y0894234D01*
X0135846Y0894281D01*
X0135696Y0894332D01*
X0135547Y0894387D01*
X0135400Y0894445D01*
X0135254Y0894507D01*
X0135110Y0894572D01*
X0134968Y0894642D01*
X0134827Y0894714D01*
X0134688Y0894791D01*
X0134552Y0894870D01*
X0134417Y0894954D01*
X0134284Y0895040D01*
X0134154Y0895130D01*
X0134026Y0895223D01*
X0133900Y0895319D01*
X0133777Y0895419D01*
X0133656Y0895521D01*
X0133538Y0895626D01*
X0133423Y0895735D01*
X0133310Y0895846D01*
X0133200Y0895960D01*
X0133093Y0896077D01*
X0132989Y0896196D01*
X0132888Y0896318D01*
X0132791Y0896443D01*
X0132696Y0896570D01*
X0132605Y0896699D01*
X0132516Y0896830D01*
X0132432Y0896964D01*
X0132350Y0897100D01*
X0132272Y0897237D01*
X0132198Y0897377D01*
X0132127Y0897519D01*
X0132059Y0897662D01*
X0131995Y0897807D01*
X0131935Y0897953D01*
X0131879Y0898101D01*
X0131826Y0898250D01*
X0131777Y0898401D01*
X0131732Y0898553D01*
X0131691Y0898706D01*
X0131653Y0898859D01*
X0131620Y0899014D01*
X0131590Y0899170D01*
X0131564Y0899326D01*
X0131543Y0899483D01*
X0131525Y0899640D01*
X0131511Y0899798D01*
X0131501Y0899956D01*
X0131495Y0900114D01*
X0131493Y0900272D01*
X0109839Y0990823D02*
X0109841Y0990981D01*
X0109847Y0991139D01*
X0109857Y0991297D01*
X0109871Y0991455D01*
X0109889Y0991612D01*
X0109910Y0991769D01*
X0109936Y0991925D01*
X0109966Y0992081D01*
X0109999Y0992236D01*
X0110037Y0992389D01*
X0110078Y0992542D01*
X0110123Y0992694D01*
X0110172Y0992845D01*
X0110225Y0992994D01*
X0110281Y0993142D01*
X0110341Y0993288D01*
X0110405Y0993433D01*
X0110473Y0993576D01*
X0110544Y0993718D01*
X0110618Y0993858D01*
X0110696Y0993995D01*
X0110778Y0994131D01*
X0110862Y0994265D01*
X0110951Y0994396D01*
X0111042Y0994525D01*
X0111137Y0994652D01*
X0111234Y0994777D01*
X0111335Y0994899D01*
X0111439Y0995018D01*
X0111546Y0995135D01*
X0111656Y0995249D01*
X0111769Y0995360D01*
X0111884Y0995469D01*
X0112002Y0995574D01*
X0112123Y0995676D01*
X0112246Y0995776D01*
X0112372Y0995872D01*
X0112500Y0995965D01*
X0112630Y0996055D01*
X0112763Y0996141D01*
X0112898Y0996225D01*
X0113034Y0996304D01*
X0113173Y0996381D01*
X0113314Y0996453D01*
X0113456Y0996523D01*
X0113600Y0996588D01*
X0113746Y0996650D01*
X0113893Y0996708D01*
X0114042Y0996763D01*
X0114192Y0996814D01*
X0114343Y0996861D01*
X0114495Y0996904D01*
X0114648Y0996943D01*
X0114803Y0996979D01*
X0114958Y0997010D01*
X0115114Y0997038D01*
X0115270Y0997062D01*
X0115427Y0997082D01*
X0115585Y0997098D01*
X0115742Y0997110D01*
X0115901Y0997118D01*
X0116059Y0997122D01*
X0116217Y0997122D01*
X0116375Y0997118D01*
X0116534Y0997110D01*
X0116691Y0997098D01*
X0116849Y0997082D01*
X0117006Y0997062D01*
X0117162Y0997038D01*
X0117318Y0997010D01*
X0117473Y0996979D01*
X0117628Y0996943D01*
X0117781Y0996904D01*
X0117933Y0996861D01*
X0118084Y0996814D01*
X0118234Y0996763D01*
X0118383Y0996708D01*
X0118530Y0996650D01*
X0118676Y0996588D01*
X0118820Y0996523D01*
X0118962Y0996453D01*
X0119103Y0996381D01*
X0119242Y0996304D01*
X0119378Y0996225D01*
X0119513Y0996141D01*
X0119646Y0996055D01*
X0119776Y0995965D01*
X0119904Y0995872D01*
X0120030Y0995776D01*
X0120153Y0995676D01*
X0120274Y0995574D01*
X0120392Y0995469D01*
X0120507Y0995360D01*
X0120620Y0995249D01*
X0120730Y0995135D01*
X0120837Y0995018D01*
X0120941Y0994899D01*
X0121042Y0994777D01*
X0121139Y0994652D01*
X0121234Y0994525D01*
X0121325Y0994396D01*
X0121414Y0994265D01*
X0121498Y0994131D01*
X0121580Y0993995D01*
X0121658Y0993858D01*
X0121732Y0993718D01*
X0121803Y0993576D01*
X0121871Y0993433D01*
X0121935Y0993288D01*
X0121995Y0993142D01*
X0122051Y0992994D01*
X0122104Y0992845D01*
X0122153Y0992694D01*
X0122198Y0992542D01*
X0122239Y0992389D01*
X0122277Y0992236D01*
X0122310Y0992081D01*
X0122340Y0991925D01*
X0122366Y0991769D01*
X0122387Y0991612D01*
X0122405Y0991455D01*
X0122419Y0991297D01*
X0122429Y0991139D01*
X0122435Y0990981D01*
X0122437Y0990823D01*
X0122435Y0990665D01*
X0122429Y0990507D01*
X0122419Y0990349D01*
X0122405Y0990191D01*
X0122387Y0990034D01*
X0122366Y0989877D01*
X0122340Y0989721D01*
X0122310Y0989565D01*
X0122277Y0989410D01*
X0122239Y0989257D01*
X0122198Y0989104D01*
X0122153Y0988952D01*
X0122104Y0988801D01*
X0122051Y0988652D01*
X0121995Y0988504D01*
X0121935Y0988358D01*
X0121871Y0988213D01*
X0121803Y0988070D01*
X0121732Y0987928D01*
X0121658Y0987788D01*
X0121580Y0987651D01*
X0121498Y0987515D01*
X0121414Y0987381D01*
X0121325Y0987250D01*
X0121234Y0987121D01*
X0121139Y0986994D01*
X0121042Y0986869D01*
X0120941Y0986747D01*
X0120837Y0986628D01*
X0120730Y0986511D01*
X0120620Y0986397D01*
X0120507Y0986286D01*
X0120392Y0986177D01*
X0120274Y0986072D01*
X0120153Y0985970D01*
X0120030Y0985870D01*
X0119904Y0985774D01*
X0119776Y0985681D01*
X0119646Y0985591D01*
X0119513Y0985505D01*
X0119378Y0985421D01*
X0119242Y0985342D01*
X0119103Y0985265D01*
X0118962Y0985193D01*
X0118820Y0985123D01*
X0118676Y0985058D01*
X0118530Y0984996D01*
X0118383Y0984938D01*
X0118234Y0984883D01*
X0118084Y0984832D01*
X0117933Y0984785D01*
X0117781Y0984742D01*
X0117628Y0984703D01*
X0117473Y0984667D01*
X0117318Y0984636D01*
X0117162Y0984608D01*
X0117006Y0984584D01*
X0116849Y0984564D01*
X0116691Y0984548D01*
X0116534Y0984536D01*
X0116375Y0984528D01*
X0116217Y0984524D01*
X0116059Y0984524D01*
X0115901Y0984528D01*
X0115742Y0984536D01*
X0115585Y0984548D01*
X0115427Y0984564D01*
X0115270Y0984584D01*
X0115114Y0984608D01*
X0114958Y0984636D01*
X0114803Y0984667D01*
X0114648Y0984703D01*
X0114495Y0984742D01*
X0114343Y0984785D01*
X0114192Y0984832D01*
X0114042Y0984883D01*
X0113893Y0984938D01*
X0113746Y0984996D01*
X0113600Y0985058D01*
X0113456Y0985123D01*
X0113314Y0985193D01*
X0113173Y0985265D01*
X0113034Y0985342D01*
X0112898Y0985421D01*
X0112763Y0985505D01*
X0112630Y0985591D01*
X0112500Y0985681D01*
X0112372Y0985774D01*
X0112246Y0985870D01*
X0112123Y0985970D01*
X0112002Y0986072D01*
X0111884Y0986177D01*
X0111769Y0986286D01*
X0111656Y0986397D01*
X0111546Y0986511D01*
X0111439Y0986628D01*
X0111335Y0986747D01*
X0111234Y0986869D01*
X0111137Y0986994D01*
X0111042Y0987121D01*
X0110951Y0987250D01*
X0110862Y0987381D01*
X0110778Y0987515D01*
X0110696Y0987651D01*
X0110618Y0987788D01*
X0110544Y0987928D01*
X0110473Y0988070D01*
X0110405Y0988213D01*
X0110341Y0988358D01*
X0110281Y0988504D01*
X0110225Y0988652D01*
X0110172Y0988801D01*
X0110123Y0988952D01*
X0110078Y0989104D01*
X0110037Y0989257D01*
X0109999Y0989410D01*
X0109966Y0989565D01*
X0109936Y0989721D01*
X0109910Y0989877D01*
X0109889Y0990034D01*
X0109871Y0990191D01*
X0109857Y0990349D01*
X0109847Y0990507D01*
X0109841Y0990665D01*
X0109839Y0990823D01*
X0954328Y0900272D02*
X0954330Y0900430D01*
X0954336Y0900588D01*
X0954346Y0900746D01*
X0954360Y0900904D01*
X0954378Y0901061D01*
X0954399Y0901218D01*
X0954425Y0901374D01*
X0954455Y0901530D01*
X0954488Y0901685D01*
X0954526Y0901838D01*
X0954567Y0901991D01*
X0954612Y0902143D01*
X0954661Y0902294D01*
X0954714Y0902443D01*
X0954770Y0902591D01*
X0954830Y0902737D01*
X0954894Y0902882D01*
X0954962Y0903025D01*
X0955033Y0903167D01*
X0955107Y0903307D01*
X0955185Y0903444D01*
X0955267Y0903580D01*
X0955351Y0903714D01*
X0955440Y0903845D01*
X0955531Y0903974D01*
X0955626Y0904101D01*
X0955723Y0904226D01*
X0955824Y0904348D01*
X0955928Y0904467D01*
X0956035Y0904584D01*
X0956145Y0904698D01*
X0956258Y0904809D01*
X0956373Y0904918D01*
X0956491Y0905023D01*
X0956612Y0905125D01*
X0956735Y0905225D01*
X0956861Y0905321D01*
X0956989Y0905414D01*
X0957119Y0905504D01*
X0957252Y0905590D01*
X0957387Y0905674D01*
X0957523Y0905753D01*
X0957662Y0905830D01*
X0957803Y0905902D01*
X0957945Y0905972D01*
X0958089Y0906037D01*
X0958235Y0906099D01*
X0958382Y0906157D01*
X0958531Y0906212D01*
X0958681Y0906263D01*
X0958832Y0906310D01*
X0958984Y0906353D01*
X0959137Y0906392D01*
X0959292Y0906428D01*
X0959447Y0906459D01*
X0959603Y0906487D01*
X0959759Y0906511D01*
X0959916Y0906531D01*
X0960074Y0906547D01*
X0960231Y0906559D01*
X0960390Y0906567D01*
X0960548Y0906571D01*
X0960706Y0906571D01*
X0960864Y0906567D01*
X0961023Y0906559D01*
X0961180Y0906547D01*
X0961338Y0906531D01*
X0961495Y0906511D01*
X0961651Y0906487D01*
X0961807Y0906459D01*
X0961962Y0906428D01*
X0962117Y0906392D01*
X0962270Y0906353D01*
X0962422Y0906310D01*
X0962573Y0906263D01*
X0962723Y0906212D01*
X0962872Y0906157D01*
X0963019Y0906099D01*
X0963165Y0906037D01*
X0963309Y0905972D01*
X0963451Y0905902D01*
X0963592Y0905830D01*
X0963731Y0905753D01*
X0963867Y0905674D01*
X0964002Y0905590D01*
X0964135Y0905504D01*
X0964265Y0905414D01*
X0964393Y0905321D01*
X0964519Y0905225D01*
X0964642Y0905125D01*
X0964763Y0905023D01*
X0964881Y0904918D01*
X0964996Y0904809D01*
X0965109Y0904698D01*
X0965219Y0904584D01*
X0965326Y0904467D01*
X0965430Y0904348D01*
X0965531Y0904226D01*
X0965628Y0904101D01*
X0965723Y0903974D01*
X0965814Y0903845D01*
X0965903Y0903714D01*
X0965987Y0903580D01*
X0966069Y0903444D01*
X0966147Y0903307D01*
X0966221Y0903167D01*
X0966292Y0903025D01*
X0966360Y0902882D01*
X0966424Y0902737D01*
X0966484Y0902591D01*
X0966540Y0902443D01*
X0966593Y0902294D01*
X0966642Y0902143D01*
X0966687Y0901991D01*
X0966728Y0901838D01*
X0966766Y0901685D01*
X0966799Y0901530D01*
X0966829Y0901374D01*
X0966855Y0901218D01*
X0966876Y0901061D01*
X0966894Y0900904D01*
X0966908Y0900746D01*
X0966918Y0900588D01*
X0966924Y0900430D01*
X0966926Y0900272D01*
X0966924Y0900114D01*
X0966918Y0899956D01*
X0966908Y0899798D01*
X0966894Y0899640D01*
X0966876Y0899483D01*
X0966855Y0899326D01*
X0966829Y0899170D01*
X0966799Y0899014D01*
X0966766Y0898859D01*
X0966728Y0898706D01*
X0966687Y0898553D01*
X0966642Y0898401D01*
X0966593Y0898250D01*
X0966540Y0898101D01*
X0966484Y0897953D01*
X0966424Y0897807D01*
X0966360Y0897662D01*
X0966292Y0897519D01*
X0966221Y0897377D01*
X0966147Y0897237D01*
X0966069Y0897100D01*
X0965987Y0896964D01*
X0965903Y0896830D01*
X0965814Y0896699D01*
X0965723Y0896570D01*
X0965628Y0896443D01*
X0965531Y0896318D01*
X0965430Y0896196D01*
X0965326Y0896077D01*
X0965219Y0895960D01*
X0965109Y0895846D01*
X0964996Y0895735D01*
X0964881Y0895626D01*
X0964763Y0895521D01*
X0964642Y0895419D01*
X0964519Y0895319D01*
X0964393Y0895223D01*
X0964265Y0895130D01*
X0964135Y0895040D01*
X0964002Y0894954D01*
X0963867Y0894870D01*
X0963731Y0894791D01*
X0963592Y0894714D01*
X0963451Y0894642D01*
X0963309Y0894572D01*
X0963165Y0894507D01*
X0963019Y0894445D01*
X0962872Y0894387D01*
X0962723Y0894332D01*
X0962573Y0894281D01*
X0962422Y0894234D01*
X0962270Y0894191D01*
X0962117Y0894152D01*
X0961962Y0894116D01*
X0961807Y0894085D01*
X0961651Y0894057D01*
X0961495Y0894033D01*
X0961338Y0894013D01*
X0961180Y0893997D01*
X0961023Y0893985D01*
X0960864Y0893977D01*
X0960706Y0893973D01*
X0960548Y0893973D01*
X0960390Y0893977D01*
X0960231Y0893985D01*
X0960074Y0893997D01*
X0959916Y0894013D01*
X0959759Y0894033D01*
X0959603Y0894057D01*
X0959447Y0894085D01*
X0959292Y0894116D01*
X0959137Y0894152D01*
X0958984Y0894191D01*
X0958832Y0894234D01*
X0958681Y0894281D01*
X0958531Y0894332D01*
X0958382Y0894387D01*
X0958235Y0894445D01*
X0958089Y0894507D01*
X0957945Y0894572D01*
X0957803Y0894642D01*
X0957662Y0894714D01*
X0957523Y0894791D01*
X0957387Y0894870D01*
X0957252Y0894954D01*
X0957119Y0895040D01*
X0956989Y0895130D01*
X0956861Y0895223D01*
X0956735Y0895319D01*
X0956612Y0895419D01*
X0956491Y0895521D01*
X0956373Y0895626D01*
X0956258Y0895735D01*
X0956145Y0895846D01*
X0956035Y0895960D01*
X0955928Y0896077D01*
X0955824Y0896196D01*
X0955723Y0896318D01*
X0955626Y0896443D01*
X0955531Y0896570D01*
X0955440Y0896699D01*
X0955351Y0896830D01*
X0955267Y0896964D01*
X0955185Y0897100D01*
X0955107Y0897237D01*
X0955033Y0897377D01*
X0954962Y0897519D01*
X0954894Y0897662D01*
X0954830Y0897807D01*
X0954770Y0897953D01*
X0954714Y0898101D01*
X0954661Y0898250D01*
X0954612Y0898401D01*
X0954567Y0898553D01*
X0954526Y0898706D01*
X0954488Y0898859D01*
X0954455Y0899014D01*
X0954425Y0899170D01*
X0954399Y0899326D01*
X0954378Y0899483D01*
X0954360Y0899640D01*
X0954346Y0899798D01*
X0954336Y0899956D01*
X0954330Y0900114D01*
X0954328Y0900272D01*
X0954330Y0900430D01*
X0954336Y0900588D01*
X0954346Y0900746D01*
X0954360Y0900904D01*
X0954378Y0901061D01*
X0954399Y0901218D01*
X0954425Y0901374D01*
X0954455Y0901530D01*
X0954488Y0901685D01*
X0954526Y0901838D01*
X0954567Y0901991D01*
X0954612Y0902143D01*
X0954661Y0902294D01*
X0954714Y0902443D01*
X0954770Y0902591D01*
X0954830Y0902737D01*
X0954894Y0902882D01*
X0954962Y0903025D01*
X0955033Y0903167D01*
X0955107Y0903307D01*
X0955185Y0903444D01*
X0955267Y0903580D01*
X0955351Y0903714D01*
X0955440Y0903845D01*
X0955531Y0903974D01*
X0955626Y0904101D01*
X0955723Y0904226D01*
X0955824Y0904348D01*
X0955928Y0904467D01*
X0956035Y0904584D01*
X0956145Y0904698D01*
X0956258Y0904809D01*
X0956373Y0904918D01*
X0956491Y0905023D01*
X0956612Y0905125D01*
X0956735Y0905225D01*
X0956861Y0905321D01*
X0956989Y0905414D01*
X0957119Y0905504D01*
X0957252Y0905590D01*
X0957387Y0905674D01*
X0957523Y0905753D01*
X0957662Y0905830D01*
X0957803Y0905902D01*
X0957945Y0905972D01*
X0958089Y0906037D01*
X0958235Y0906099D01*
X0958382Y0906157D01*
X0958531Y0906212D01*
X0958681Y0906263D01*
X0958832Y0906310D01*
X0958984Y0906353D01*
X0959137Y0906392D01*
X0959292Y0906428D01*
X0959447Y0906459D01*
X0959603Y0906487D01*
X0959759Y0906511D01*
X0959916Y0906531D01*
X0960074Y0906547D01*
X0960231Y0906559D01*
X0960390Y0906567D01*
X0960548Y0906571D01*
X0960706Y0906571D01*
X0960864Y0906567D01*
X0961023Y0906559D01*
X0961180Y0906547D01*
X0961338Y0906531D01*
X0961495Y0906511D01*
X0961651Y0906487D01*
X0961807Y0906459D01*
X0961962Y0906428D01*
X0962117Y0906392D01*
X0962270Y0906353D01*
X0962422Y0906310D01*
X0962573Y0906263D01*
X0962723Y0906212D01*
X0962872Y0906157D01*
X0963019Y0906099D01*
X0963165Y0906037D01*
X0963309Y0905972D01*
X0963451Y0905902D01*
X0963592Y0905830D01*
X0963731Y0905753D01*
X0963867Y0905674D01*
X0964002Y0905590D01*
X0964135Y0905504D01*
X0964265Y0905414D01*
X0964393Y0905321D01*
X0964519Y0905225D01*
X0964642Y0905125D01*
X0964763Y0905023D01*
X0964881Y0904918D01*
X0964996Y0904809D01*
X0965109Y0904698D01*
X0965219Y0904584D01*
X0965326Y0904467D01*
X0965430Y0904348D01*
X0965531Y0904226D01*
X0965628Y0904101D01*
X0965723Y0903974D01*
X0965814Y0903845D01*
X0965903Y0903714D01*
X0965987Y0903580D01*
X0966069Y0903444D01*
X0966147Y0903307D01*
X0966221Y0903167D01*
X0966292Y0903025D01*
X0966360Y0902882D01*
X0966424Y0902737D01*
X0966484Y0902591D01*
X0966540Y0902443D01*
X0966593Y0902294D01*
X0966642Y0902143D01*
X0966687Y0901991D01*
X0966728Y0901838D01*
X0966766Y0901685D01*
X0966799Y0901530D01*
X0966829Y0901374D01*
X0966855Y0901218D01*
X0966876Y0901061D01*
X0966894Y0900904D01*
X0966908Y0900746D01*
X0966918Y0900588D01*
X0966924Y0900430D01*
X0966926Y0900272D01*
X0966924Y0900114D01*
X0966918Y0899956D01*
X0966908Y0899798D01*
X0966894Y0899640D01*
X0966876Y0899483D01*
X0966855Y0899326D01*
X0966829Y0899170D01*
X0966799Y0899014D01*
X0966766Y0898859D01*
X0966728Y0898706D01*
X0966687Y0898553D01*
X0966642Y0898401D01*
X0966593Y0898250D01*
X0966540Y0898101D01*
X0966484Y0897953D01*
X0966424Y0897807D01*
X0966360Y0897662D01*
X0966292Y0897519D01*
X0966221Y0897377D01*
X0966147Y0897237D01*
X0966069Y0897100D01*
X0965987Y0896964D01*
X0965903Y0896830D01*
X0965814Y0896699D01*
X0965723Y0896570D01*
X0965628Y0896443D01*
X0965531Y0896318D01*
X0965430Y0896196D01*
X0965326Y0896077D01*
X0965219Y0895960D01*
X0965109Y0895846D01*
X0964996Y0895735D01*
X0964881Y0895626D01*
X0964763Y0895521D01*
X0964642Y0895419D01*
X0964519Y0895319D01*
X0964393Y0895223D01*
X0964265Y0895130D01*
X0964135Y0895040D01*
X0964002Y0894954D01*
X0963867Y0894870D01*
X0963731Y0894791D01*
X0963592Y0894714D01*
X0963451Y0894642D01*
X0963309Y0894572D01*
X0963165Y0894507D01*
X0963019Y0894445D01*
X0962872Y0894387D01*
X0962723Y0894332D01*
X0962573Y0894281D01*
X0962422Y0894234D01*
X0962270Y0894191D01*
X0962117Y0894152D01*
X0961962Y0894116D01*
X0961807Y0894085D01*
X0961651Y0894057D01*
X0961495Y0894033D01*
X0961338Y0894013D01*
X0961180Y0893997D01*
X0961023Y0893985D01*
X0960864Y0893977D01*
X0960706Y0893973D01*
X0960548Y0893973D01*
X0960390Y0893977D01*
X0960231Y0893985D01*
X0960074Y0893997D01*
X0959916Y0894013D01*
X0959759Y0894033D01*
X0959603Y0894057D01*
X0959447Y0894085D01*
X0959292Y0894116D01*
X0959137Y0894152D01*
X0958984Y0894191D01*
X0958832Y0894234D01*
X0958681Y0894281D01*
X0958531Y0894332D01*
X0958382Y0894387D01*
X0958235Y0894445D01*
X0958089Y0894507D01*
X0957945Y0894572D01*
X0957803Y0894642D01*
X0957662Y0894714D01*
X0957523Y0894791D01*
X0957387Y0894870D01*
X0957252Y0894954D01*
X0957119Y0895040D01*
X0956989Y0895130D01*
X0956861Y0895223D01*
X0956735Y0895319D01*
X0956612Y0895419D01*
X0956491Y0895521D01*
X0956373Y0895626D01*
X0956258Y0895735D01*
X0956145Y0895846D01*
X0956035Y0895960D01*
X0955928Y0896077D01*
X0955824Y0896196D01*
X0955723Y0896318D01*
X0955626Y0896443D01*
X0955531Y0896570D01*
X0955440Y0896699D01*
X0955351Y0896830D01*
X0955267Y0896964D01*
X0955185Y0897100D01*
X0955107Y0897237D01*
X0955033Y0897377D01*
X0954962Y0897519D01*
X0954894Y0897662D01*
X0954830Y0897807D01*
X0954770Y0897953D01*
X0954714Y0898101D01*
X0954661Y0898250D01*
X0954612Y0898401D01*
X0954567Y0898553D01*
X0954526Y0898706D01*
X0954488Y0898859D01*
X0954455Y0899014D01*
X0954425Y0899170D01*
X0954399Y0899326D01*
X0954378Y0899483D01*
X0954360Y0899640D01*
X0954346Y0899798D01*
X0954336Y0899956D01*
X0954330Y0900114D01*
X0954328Y0900272D01*
X0954328Y0077437D02*
X0954330Y0077595D01*
X0954336Y0077753D01*
X0954346Y0077911D01*
X0954360Y0078069D01*
X0954378Y0078226D01*
X0954399Y0078383D01*
X0954425Y0078539D01*
X0954455Y0078695D01*
X0954488Y0078850D01*
X0954526Y0079003D01*
X0954567Y0079156D01*
X0954612Y0079308D01*
X0954661Y0079459D01*
X0954714Y0079608D01*
X0954770Y0079756D01*
X0954830Y0079902D01*
X0954894Y0080047D01*
X0954962Y0080190D01*
X0955033Y0080332D01*
X0955107Y0080472D01*
X0955185Y0080609D01*
X0955267Y0080745D01*
X0955351Y0080879D01*
X0955440Y0081010D01*
X0955531Y0081139D01*
X0955626Y0081266D01*
X0955723Y0081391D01*
X0955824Y0081513D01*
X0955928Y0081632D01*
X0956035Y0081749D01*
X0956145Y0081863D01*
X0956258Y0081974D01*
X0956373Y0082083D01*
X0956491Y0082188D01*
X0956612Y0082290D01*
X0956735Y0082390D01*
X0956861Y0082486D01*
X0956989Y0082579D01*
X0957119Y0082669D01*
X0957252Y0082755D01*
X0957387Y0082839D01*
X0957523Y0082918D01*
X0957662Y0082995D01*
X0957803Y0083067D01*
X0957945Y0083137D01*
X0958089Y0083202D01*
X0958235Y0083264D01*
X0958382Y0083322D01*
X0958531Y0083377D01*
X0958681Y0083428D01*
X0958832Y0083475D01*
X0958984Y0083518D01*
X0959137Y0083557D01*
X0959292Y0083593D01*
X0959447Y0083624D01*
X0959603Y0083652D01*
X0959759Y0083676D01*
X0959916Y0083696D01*
X0960074Y0083712D01*
X0960231Y0083724D01*
X0960390Y0083732D01*
X0960548Y0083736D01*
X0960706Y0083736D01*
X0960864Y0083732D01*
X0961023Y0083724D01*
X0961180Y0083712D01*
X0961338Y0083696D01*
X0961495Y0083676D01*
X0961651Y0083652D01*
X0961807Y0083624D01*
X0961962Y0083593D01*
X0962117Y0083557D01*
X0962270Y0083518D01*
X0962422Y0083475D01*
X0962573Y0083428D01*
X0962723Y0083377D01*
X0962872Y0083322D01*
X0963019Y0083264D01*
X0963165Y0083202D01*
X0963309Y0083137D01*
X0963451Y0083067D01*
X0963592Y0082995D01*
X0963731Y0082918D01*
X0963867Y0082839D01*
X0964002Y0082755D01*
X0964135Y0082669D01*
X0964265Y0082579D01*
X0964393Y0082486D01*
X0964519Y0082390D01*
X0964642Y0082290D01*
X0964763Y0082188D01*
X0964881Y0082083D01*
X0964996Y0081974D01*
X0965109Y0081863D01*
X0965219Y0081749D01*
X0965326Y0081632D01*
X0965430Y0081513D01*
X0965531Y0081391D01*
X0965628Y0081266D01*
X0965723Y0081139D01*
X0965814Y0081010D01*
X0965903Y0080879D01*
X0965987Y0080745D01*
X0966069Y0080609D01*
X0966147Y0080472D01*
X0966221Y0080332D01*
X0966292Y0080190D01*
X0966360Y0080047D01*
X0966424Y0079902D01*
X0966484Y0079756D01*
X0966540Y0079608D01*
X0966593Y0079459D01*
X0966642Y0079308D01*
X0966687Y0079156D01*
X0966728Y0079003D01*
X0966766Y0078850D01*
X0966799Y0078695D01*
X0966829Y0078539D01*
X0966855Y0078383D01*
X0966876Y0078226D01*
X0966894Y0078069D01*
X0966908Y0077911D01*
X0966918Y0077753D01*
X0966924Y0077595D01*
X0966926Y0077437D01*
X0966924Y0077279D01*
X0966918Y0077121D01*
X0966908Y0076963D01*
X0966894Y0076805D01*
X0966876Y0076648D01*
X0966855Y0076491D01*
X0966829Y0076335D01*
X0966799Y0076179D01*
X0966766Y0076024D01*
X0966728Y0075871D01*
X0966687Y0075718D01*
X0966642Y0075566D01*
X0966593Y0075415D01*
X0966540Y0075266D01*
X0966484Y0075118D01*
X0966424Y0074972D01*
X0966360Y0074827D01*
X0966292Y0074684D01*
X0966221Y0074542D01*
X0966147Y0074402D01*
X0966069Y0074265D01*
X0965987Y0074129D01*
X0965903Y0073995D01*
X0965814Y0073864D01*
X0965723Y0073735D01*
X0965628Y0073608D01*
X0965531Y0073483D01*
X0965430Y0073361D01*
X0965326Y0073242D01*
X0965219Y0073125D01*
X0965109Y0073011D01*
X0964996Y0072900D01*
X0964881Y0072791D01*
X0964763Y0072686D01*
X0964642Y0072584D01*
X0964519Y0072484D01*
X0964393Y0072388D01*
X0964265Y0072295D01*
X0964135Y0072205D01*
X0964002Y0072119D01*
X0963867Y0072035D01*
X0963731Y0071956D01*
X0963592Y0071879D01*
X0963451Y0071807D01*
X0963309Y0071737D01*
X0963165Y0071672D01*
X0963019Y0071610D01*
X0962872Y0071552D01*
X0962723Y0071497D01*
X0962573Y0071446D01*
X0962422Y0071399D01*
X0962270Y0071356D01*
X0962117Y0071317D01*
X0961962Y0071281D01*
X0961807Y0071250D01*
X0961651Y0071222D01*
X0961495Y0071198D01*
X0961338Y0071178D01*
X0961180Y0071162D01*
X0961023Y0071150D01*
X0960864Y0071142D01*
X0960706Y0071138D01*
X0960548Y0071138D01*
X0960390Y0071142D01*
X0960231Y0071150D01*
X0960074Y0071162D01*
X0959916Y0071178D01*
X0959759Y0071198D01*
X0959603Y0071222D01*
X0959447Y0071250D01*
X0959292Y0071281D01*
X0959137Y0071317D01*
X0958984Y0071356D01*
X0958832Y0071399D01*
X0958681Y0071446D01*
X0958531Y0071497D01*
X0958382Y0071552D01*
X0958235Y0071610D01*
X0958089Y0071672D01*
X0957945Y0071737D01*
X0957803Y0071807D01*
X0957662Y0071879D01*
X0957523Y0071956D01*
X0957387Y0072035D01*
X0957252Y0072119D01*
X0957119Y0072205D01*
X0956989Y0072295D01*
X0956861Y0072388D01*
X0956735Y0072484D01*
X0956612Y0072584D01*
X0956491Y0072686D01*
X0956373Y0072791D01*
X0956258Y0072900D01*
X0956145Y0073011D01*
X0956035Y0073125D01*
X0955928Y0073242D01*
X0955824Y0073361D01*
X0955723Y0073483D01*
X0955626Y0073608D01*
X0955531Y0073735D01*
X0955440Y0073864D01*
X0955351Y0073995D01*
X0955267Y0074129D01*
X0955185Y0074265D01*
X0955107Y0074402D01*
X0955033Y0074542D01*
X0954962Y0074684D01*
X0954894Y0074827D01*
X0954830Y0074972D01*
X0954770Y0075118D01*
X0954714Y0075266D01*
X0954661Y0075415D01*
X0954612Y0075566D01*
X0954567Y0075718D01*
X0954526Y0075871D01*
X0954488Y0076024D01*
X0954455Y0076179D01*
X0954425Y0076335D01*
X0954399Y0076491D01*
X0954378Y0076648D01*
X0954360Y0076805D01*
X0954346Y0076963D01*
X0954336Y0077121D01*
X0954330Y0077279D01*
X0954328Y0077437D01*
X0954330Y0077595D01*
X0954336Y0077753D01*
X0954346Y0077911D01*
X0954360Y0078069D01*
X0954378Y0078226D01*
X0954399Y0078383D01*
X0954425Y0078539D01*
X0954455Y0078695D01*
X0954488Y0078850D01*
X0954526Y0079003D01*
X0954567Y0079156D01*
X0954612Y0079308D01*
X0954661Y0079459D01*
X0954714Y0079608D01*
X0954770Y0079756D01*
X0954830Y0079902D01*
X0954894Y0080047D01*
X0954962Y0080190D01*
X0955033Y0080332D01*
X0955107Y0080472D01*
X0955185Y0080609D01*
X0955267Y0080745D01*
X0955351Y0080879D01*
X0955440Y0081010D01*
X0955531Y0081139D01*
X0955626Y0081266D01*
X0955723Y0081391D01*
X0955824Y0081513D01*
X0955928Y0081632D01*
X0956035Y0081749D01*
X0956145Y0081863D01*
X0956258Y0081974D01*
X0956373Y0082083D01*
X0956491Y0082188D01*
X0956612Y0082290D01*
X0956735Y0082390D01*
X0956861Y0082486D01*
X0956989Y0082579D01*
X0957119Y0082669D01*
X0957252Y0082755D01*
X0957387Y0082839D01*
X0957523Y0082918D01*
X0957662Y0082995D01*
X0957803Y0083067D01*
X0957945Y0083137D01*
X0958089Y0083202D01*
X0958235Y0083264D01*
X0958382Y0083322D01*
X0958531Y0083377D01*
X0958681Y0083428D01*
X0958832Y0083475D01*
X0958984Y0083518D01*
X0959137Y0083557D01*
X0959292Y0083593D01*
X0959447Y0083624D01*
X0959603Y0083652D01*
X0959759Y0083676D01*
X0959916Y0083696D01*
X0960074Y0083712D01*
X0960231Y0083724D01*
X0960390Y0083732D01*
X0960548Y0083736D01*
X0960706Y0083736D01*
X0960864Y0083732D01*
X0961023Y0083724D01*
X0961180Y0083712D01*
X0961338Y0083696D01*
X0961495Y0083676D01*
X0961651Y0083652D01*
X0961807Y0083624D01*
X0961962Y0083593D01*
X0962117Y0083557D01*
X0962270Y0083518D01*
X0962422Y0083475D01*
X0962573Y0083428D01*
X0962723Y0083377D01*
X0962872Y0083322D01*
X0963019Y0083264D01*
X0963165Y0083202D01*
X0963309Y0083137D01*
X0963451Y0083067D01*
X0963592Y0082995D01*
X0963731Y0082918D01*
X0963867Y0082839D01*
X0964002Y0082755D01*
X0964135Y0082669D01*
X0964265Y0082579D01*
X0964393Y0082486D01*
X0964519Y0082390D01*
X0964642Y0082290D01*
X0964763Y0082188D01*
X0964881Y0082083D01*
X0964996Y0081974D01*
X0965109Y0081863D01*
X0965219Y0081749D01*
X0965326Y0081632D01*
X0965430Y0081513D01*
X0965531Y0081391D01*
X0965628Y0081266D01*
X0965723Y0081139D01*
X0965814Y0081010D01*
X0965903Y0080879D01*
X0965987Y0080745D01*
X0966069Y0080609D01*
X0966147Y0080472D01*
X0966221Y0080332D01*
X0966292Y0080190D01*
X0966360Y0080047D01*
X0966424Y0079902D01*
X0966484Y0079756D01*
X0966540Y0079608D01*
X0966593Y0079459D01*
X0966642Y0079308D01*
X0966687Y0079156D01*
X0966728Y0079003D01*
X0966766Y0078850D01*
X0966799Y0078695D01*
X0966829Y0078539D01*
X0966855Y0078383D01*
X0966876Y0078226D01*
X0966894Y0078069D01*
X0966908Y0077911D01*
X0966918Y0077753D01*
X0966924Y0077595D01*
X0966926Y0077437D01*
X0966924Y0077279D01*
X0966918Y0077121D01*
X0966908Y0076963D01*
X0966894Y0076805D01*
X0966876Y0076648D01*
X0966855Y0076491D01*
X0966829Y0076335D01*
X0966799Y0076179D01*
X0966766Y0076024D01*
X0966728Y0075871D01*
X0966687Y0075718D01*
X0966642Y0075566D01*
X0966593Y0075415D01*
X0966540Y0075266D01*
X0966484Y0075118D01*
X0966424Y0074972D01*
X0966360Y0074827D01*
X0966292Y0074684D01*
X0966221Y0074542D01*
X0966147Y0074402D01*
X0966069Y0074265D01*
X0965987Y0074129D01*
X0965903Y0073995D01*
X0965814Y0073864D01*
X0965723Y0073735D01*
X0965628Y0073608D01*
X0965531Y0073483D01*
X0965430Y0073361D01*
X0965326Y0073242D01*
X0965219Y0073125D01*
X0965109Y0073011D01*
X0964996Y0072900D01*
X0964881Y0072791D01*
X0964763Y0072686D01*
X0964642Y0072584D01*
X0964519Y0072484D01*
X0964393Y0072388D01*
X0964265Y0072295D01*
X0964135Y0072205D01*
X0964002Y0072119D01*
X0963867Y0072035D01*
X0963731Y0071956D01*
X0963592Y0071879D01*
X0963451Y0071807D01*
X0963309Y0071737D01*
X0963165Y0071672D01*
X0963019Y0071610D01*
X0962872Y0071552D01*
X0962723Y0071497D01*
X0962573Y0071446D01*
X0962422Y0071399D01*
X0962270Y0071356D01*
X0962117Y0071317D01*
X0961962Y0071281D01*
X0961807Y0071250D01*
X0961651Y0071222D01*
X0961495Y0071198D01*
X0961338Y0071178D01*
X0961180Y0071162D01*
X0961023Y0071150D01*
X0960864Y0071142D01*
X0960706Y0071138D01*
X0960548Y0071138D01*
X0960390Y0071142D01*
X0960231Y0071150D01*
X0960074Y0071162D01*
X0959916Y0071178D01*
X0959759Y0071198D01*
X0959603Y0071222D01*
X0959447Y0071250D01*
X0959292Y0071281D01*
X0959137Y0071317D01*
X0958984Y0071356D01*
X0958832Y0071399D01*
X0958681Y0071446D01*
X0958531Y0071497D01*
X0958382Y0071552D01*
X0958235Y0071610D01*
X0958089Y0071672D01*
X0957945Y0071737D01*
X0957803Y0071807D01*
X0957662Y0071879D01*
X0957523Y0071956D01*
X0957387Y0072035D01*
X0957252Y0072119D01*
X0957119Y0072205D01*
X0956989Y0072295D01*
X0956861Y0072388D01*
X0956735Y0072484D01*
X0956612Y0072584D01*
X0956491Y0072686D01*
X0956373Y0072791D01*
X0956258Y0072900D01*
X0956145Y0073011D01*
X0956035Y0073125D01*
X0955928Y0073242D01*
X0955824Y0073361D01*
X0955723Y0073483D01*
X0955626Y0073608D01*
X0955531Y0073735D01*
X0955440Y0073864D01*
X0955351Y0073995D01*
X0955267Y0074129D01*
X0955185Y0074265D01*
X0955107Y0074402D01*
X0955033Y0074542D01*
X0954962Y0074684D01*
X0954894Y0074827D01*
X0954830Y0074972D01*
X0954770Y0075118D01*
X0954714Y0075266D01*
X0954661Y0075415D01*
X0954612Y0075566D01*
X0954567Y0075718D01*
X0954526Y0075871D01*
X0954488Y0076024D01*
X0954455Y0076179D01*
X0954425Y0076335D01*
X0954399Y0076491D01*
X0954378Y0076648D01*
X0954360Y0076805D01*
X0954346Y0076963D01*
X0954336Y0077121D01*
X0954330Y0077279D01*
X0954328Y0077437D01*
M02*
