G75*
%MOIN*%
%OFA0B0*%
%FSLAX25Y25*%
%IPPOS*%
%LPD*%
%AMOC8*
5,1,8,0,0,1.08239X$1,22.5*
%
%ADD10C,0.00000*%
%ADD11C,0.31496*%
%ADD12R,0.04724X0.04724*%
%ADD13R,0.31496X0.39370*%
%ADD14R,0.05118X0.06299*%
%ADD15C,0.31496*%
%ADD16C,0.01575*%
%ADD17C,0.03000*%
%ADD18C,0.02957*%
%ADD19C,0.04882*%
%ADD20C,0.04528*%
%ADD21C,0.04567*%
D10*
X0043304Y0053815D02*
X0059052Y0038067D01*
X1027556Y0038067D01*
X1043304Y0053815D01*
X1043304Y0947516D01*
X1027556Y0963264D01*
X0177162Y0963264D01*
X0173225Y0967201D01*
X0173225Y1016020D01*
X0169288Y1019957D01*
X0062989Y1019957D01*
X0059052Y1016020D01*
X0059052Y0963264D01*
X0043304Y0947516D01*
X0043304Y0053815D01*
X0131493Y0077437D02*
X0131495Y0077595D01*
X0131501Y0077753D01*
X0131511Y0077911D01*
X0131525Y0078069D01*
X0131543Y0078226D01*
X0131564Y0078383D01*
X0131590Y0078539D01*
X0131620Y0078695D01*
X0131653Y0078850D01*
X0131691Y0079003D01*
X0131732Y0079156D01*
X0131777Y0079308D01*
X0131826Y0079459D01*
X0131879Y0079608D01*
X0131935Y0079756D01*
X0131995Y0079902D01*
X0132059Y0080047D01*
X0132127Y0080190D01*
X0132198Y0080332D01*
X0132272Y0080472D01*
X0132350Y0080609D01*
X0132432Y0080745D01*
X0132516Y0080879D01*
X0132605Y0081010D01*
X0132696Y0081139D01*
X0132791Y0081266D01*
X0132888Y0081391D01*
X0132989Y0081513D01*
X0133093Y0081632D01*
X0133200Y0081749D01*
X0133310Y0081863D01*
X0133423Y0081974D01*
X0133538Y0082083D01*
X0133656Y0082188D01*
X0133777Y0082290D01*
X0133900Y0082390D01*
X0134026Y0082486D01*
X0134154Y0082579D01*
X0134284Y0082669D01*
X0134417Y0082755D01*
X0134552Y0082839D01*
X0134688Y0082918D01*
X0134827Y0082995D01*
X0134968Y0083067D01*
X0135110Y0083137D01*
X0135254Y0083202D01*
X0135400Y0083264D01*
X0135547Y0083322D01*
X0135696Y0083377D01*
X0135846Y0083428D01*
X0135997Y0083475D01*
X0136149Y0083518D01*
X0136302Y0083557D01*
X0136457Y0083593D01*
X0136612Y0083624D01*
X0136768Y0083652D01*
X0136924Y0083676D01*
X0137081Y0083696D01*
X0137239Y0083712D01*
X0137396Y0083724D01*
X0137555Y0083732D01*
X0137713Y0083736D01*
X0137871Y0083736D01*
X0138029Y0083732D01*
X0138188Y0083724D01*
X0138345Y0083712D01*
X0138503Y0083696D01*
X0138660Y0083676D01*
X0138816Y0083652D01*
X0138972Y0083624D01*
X0139127Y0083593D01*
X0139282Y0083557D01*
X0139435Y0083518D01*
X0139587Y0083475D01*
X0139738Y0083428D01*
X0139888Y0083377D01*
X0140037Y0083322D01*
X0140184Y0083264D01*
X0140330Y0083202D01*
X0140474Y0083137D01*
X0140616Y0083067D01*
X0140757Y0082995D01*
X0140896Y0082918D01*
X0141032Y0082839D01*
X0141167Y0082755D01*
X0141300Y0082669D01*
X0141430Y0082579D01*
X0141558Y0082486D01*
X0141684Y0082390D01*
X0141807Y0082290D01*
X0141928Y0082188D01*
X0142046Y0082083D01*
X0142161Y0081974D01*
X0142274Y0081863D01*
X0142384Y0081749D01*
X0142491Y0081632D01*
X0142595Y0081513D01*
X0142696Y0081391D01*
X0142793Y0081266D01*
X0142888Y0081139D01*
X0142979Y0081010D01*
X0143068Y0080879D01*
X0143152Y0080745D01*
X0143234Y0080609D01*
X0143312Y0080472D01*
X0143386Y0080332D01*
X0143457Y0080190D01*
X0143525Y0080047D01*
X0143589Y0079902D01*
X0143649Y0079756D01*
X0143705Y0079608D01*
X0143758Y0079459D01*
X0143807Y0079308D01*
X0143852Y0079156D01*
X0143893Y0079003D01*
X0143931Y0078850D01*
X0143964Y0078695D01*
X0143994Y0078539D01*
X0144020Y0078383D01*
X0144041Y0078226D01*
X0144059Y0078069D01*
X0144073Y0077911D01*
X0144083Y0077753D01*
X0144089Y0077595D01*
X0144091Y0077437D01*
X0144089Y0077279D01*
X0144083Y0077121D01*
X0144073Y0076963D01*
X0144059Y0076805D01*
X0144041Y0076648D01*
X0144020Y0076491D01*
X0143994Y0076335D01*
X0143964Y0076179D01*
X0143931Y0076024D01*
X0143893Y0075871D01*
X0143852Y0075718D01*
X0143807Y0075566D01*
X0143758Y0075415D01*
X0143705Y0075266D01*
X0143649Y0075118D01*
X0143589Y0074972D01*
X0143525Y0074827D01*
X0143457Y0074684D01*
X0143386Y0074542D01*
X0143312Y0074402D01*
X0143234Y0074265D01*
X0143152Y0074129D01*
X0143068Y0073995D01*
X0142979Y0073864D01*
X0142888Y0073735D01*
X0142793Y0073608D01*
X0142696Y0073483D01*
X0142595Y0073361D01*
X0142491Y0073242D01*
X0142384Y0073125D01*
X0142274Y0073011D01*
X0142161Y0072900D01*
X0142046Y0072791D01*
X0141928Y0072686D01*
X0141807Y0072584D01*
X0141684Y0072484D01*
X0141558Y0072388D01*
X0141430Y0072295D01*
X0141300Y0072205D01*
X0141167Y0072119D01*
X0141032Y0072035D01*
X0140896Y0071956D01*
X0140757Y0071879D01*
X0140616Y0071807D01*
X0140474Y0071737D01*
X0140330Y0071672D01*
X0140184Y0071610D01*
X0140037Y0071552D01*
X0139888Y0071497D01*
X0139738Y0071446D01*
X0139587Y0071399D01*
X0139435Y0071356D01*
X0139282Y0071317D01*
X0139127Y0071281D01*
X0138972Y0071250D01*
X0138816Y0071222D01*
X0138660Y0071198D01*
X0138503Y0071178D01*
X0138345Y0071162D01*
X0138188Y0071150D01*
X0138029Y0071142D01*
X0137871Y0071138D01*
X0137713Y0071138D01*
X0137555Y0071142D01*
X0137396Y0071150D01*
X0137239Y0071162D01*
X0137081Y0071178D01*
X0136924Y0071198D01*
X0136768Y0071222D01*
X0136612Y0071250D01*
X0136457Y0071281D01*
X0136302Y0071317D01*
X0136149Y0071356D01*
X0135997Y0071399D01*
X0135846Y0071446D01*
X0135696Y0071497D01*
X0135547Y0071552D01*
X0135400Y0071610D01*
X0135254Y0071672D01*
X0135110Y0071737D01*
X0134968Y0071807D01*
X0134827Y0071879D01*
X0134688Y0071956D01*
X0134552Y0072035D01*
X0134417Y0072119D01*
X0134284Y0072205D01*
X0134154Y0072295D01*
X0134026Y0072388D01*
X0133900Y0072484D01*
X0133777Y0072584D01*
X0133656Y0072686D01*
X0133538Y0072791D01*
X0133423Y0072900D01*
X0133310Y0073011D01*
X0133200Y0073125D01*
X0133093Y0073242D01*
X0132989Y0073361D01*
X0132888Y0073483D01*
X0132791Y0073608D01*
X0132696Y0073735D01*
X0132605Y0073864D01*
X0132516Y0073995D01*
X0132432Y0074129D01*
X0132350Y0074265D01*
X0132272Y0074402D01*
X0132198Y0074542D01*
X0132127Y0074684D01*
X0132059Y0074827D01*
X0131995Y0074972D01*
X0131935Y0075118D01*
X0131879Y0075266D01*
X0131826Y0075415D01*
X0131777Y0075566D01*
X0131732Y0075718D01*
X0131691Y0075871D01*
X0131653Y0076024D01*
X0131620Y0076179D01*
X0131590Y0076335D01*
X0131564Y0076491D01*
X0131543Y0076648D01*
X0131525Y0076805D01*
X0131511Y0076963D01*
X0131501Y0077121D01*
X0131495Y0077279D01*
X0131493Y0077437D01*
X0131495Y0077595D01*
X0131501Y0077753D01*
X0131511Y0077911D01*
X0131525Y0078069D01*
X0131543Y0078226D01*
X0131564Y0078383D01*
X0131590Y0078539D01*
X0131620Y0078695D01*
X0131653Y0078850D01*
X0131691Y0079003D01*
X0131732Y0079156D01*
X0131777Y0079308D01*
X0131826Y0079459D01*
X0131879Y0079608D01*
X0131935Y0079756D01*
X0131995Y0079902D01*
X0132059Y0080047D01*
X0132127Y0080190D01*
X0132198Y0080332D01*
X0132272Y0080472D01*
X0132350Y0080609D01*
X0132432Y0080745D01*
X0132516Y0080879D01*
X0132605Y0081010D01*
X0132696Y0081139D01*
X0132791Y0081266D01*
X0132888Y0081391D01*
X0132989Y0081513D01*
X0133093Y0081632D01*
X0133200Y0081749D01*
X0133310Y0081863D01*
X0133423Y0081974D01*
X0133538Y0082083D01*
X0133656Y0082188D01*
X0133777Y0082290D01*
X0133900Y0082390D01*
X0134026Y0082486D01*
X0134154Y0082579D01*
X0134284Y0082669D01*
X0134417Y0082755D01*
X0134552Y0082839D01*
X0134688Y0082918D01*
X0134827Y0082995D01*
X0134968Y0083067D01*
X0135110Y0083137D01*
X0135254Y0083202D01*
X0135400Y0083264D01*
X0135547Y0083322D01*
X0135696Y0083377D01*
X0135846Y0083428D01*
X0135997Y0083475D01*
X0136149Y0083518D01*
X0136302Y0083557D01*
X0136457Y0083593D01*
X0136612Y0083624D01*
X0136768Y0083652D01*
X0136924Y0083676D01*
X0137081Y0083696D01*
X0137239Y0083712D01*
X0137396Y0083724D01*
X0137555Y0083732D01*
X0137713Y0083736D01*
X0137871Y0083736D01*
X0138029Y0083732D01*
X0138188Y0083724D01*
X0138345Y0083712D01*
X0138503Y0083696D01*
X0138660Y0083676D01*
X0138816Y0083652D01*
X0138972Y0083624D01*
X0139127Y0083593D01*
X0139282Y0083557D01*
X0139435Y0083518D01*
X0139587Y0083475D01*
X0139738Y0083428D01*
X0139888Y0083377D01*
X0140037Y0083322D01*
X0140184Y0083264D01*
X0140330Y0083202D01*
X0140474Y0083137D01*
X0140616Y0083067D01*
X0140757Y0082995D01*
X0140896Y0082918D01*
X0141032Y0082839D01*
X0141167Y0082755D01*
X0141300Y0082669D01*
X0141430Y0082579D01*
X0141558Y0082486D01*
X0141684Y0082390D01*
X0141807Y0082290D01*
X0141928Y0082188D01*
X0142046Y0082083D01*
X0142161Y0081974D01*
X0142274Y0081863D01*
X0142384Y0081749D01*
X0142491Y0081632D01*
X0142595Y0081513D01*
X0142696Y0081391D01*
X0142793Y0081266D01*
X0142888Y0081139D01*
X0142979Y0081010D01*
X0143068Y0080879D01*
X0143152Y0080745D01*
X0143234Y0080609D01*
X0143312Y0080472D01*
X0143386Y0080332D01*
X0143457Y0080190D01*
X0143525Y0080047D01*
X0143589Y0079902D01*
X0143649Y0079756D01*
X0143705Y0079608D01*
X0143758Y0079459D01*
X0143807Y0079308D01*
X0143852Y0079156D01*
X0143893Y0079003D01*
X0143931Y0078850D01*
X0143964Y0078695D01*
X0143994Y0078539D01*
X0144020Y0078383D01*
X0144041Y0078226D01*
X0144059Y0078069D01*
X0144073Y0077911D01*
X0144083Y0077753D01*
X0144089Y0077595D01*
X0144091Y0077437D01*
X0144089Y0077279D01*
X0144083Y0077121D01*
X0144073Y0076963D01*
X0144059Y0076805D01*
X0144041Y0076648D01*
X0144020Y0076491D01*
X0143994Y0076335D01*
X0143964Y0076179D01*
X0143931Y0076024D01*
X0143893Y0075871D01*
X0143852Y0075718D01*
X0143807Y0075566D01*
X0143758Y0075415D01*
X0143705Y0075266D01*
X0143649Y0075118D01*
X0143589Y0074972D01*
X0143525Y0074827D01*
X0143457Y0074684D01*
X0143386Y0074542D01*
X0143312Y0074402D01*
X0143234Y0074265D01*
X0143152Y0074129D01*
X0143068Y0073995D01*
X0142979Y0073864D01*
X0142888Y0073735D01*
X0142793Y0073608D01*
X0142696Y0073483D01*
X0142595Y0073361D01*
X0142491Y0073242D01*
X0142384Y0073125D01*
X0142274Y0073011D01*
X0142161Y0072900D01*
X0142046Y0072791D01*
X0141928Y0072686D01*
X0141807Y0072584D01*
X0141684Y0072484D01*
X0141558Y0072388D01*
X0141430Y0072295D01*
X0141300Y0072205D01*
X0141167Y0072119D01*
X0141032Y0072035D01*
X0140896Y0071956D01*
X0140757Y0071879D01*
X0140616Y0071807D01*
X0140474Y0071737D01*
X0140330Y0071672D01*
X0140184Y0071610D01*
X0140037Y0071552D01*
X0139888Y0071497D01*
X0139738Y0071446D01*
X0139587Y0071399D01*
X0139435Y0071356D01*
X0139282Y0071317D01*
X0139127Y0071281D01*
X0138972Y0071250D01*
X0138816Y0071222D01*
X0138660Y0071198D01*
X0138503Y0071178D01*
X0138345Y0071162D01*
X0138188Y0071150D01*
X0138029Y0071142D01*
X0137871Y0071138D01*
X0137713Y0071138D01*
X0137555Y0071142D01*
X0137396Y0071150D01*
X0137239Y0071162D01*
X0137081Y0071178D01*
X0136924Y0071198D01*
X0136768Y0071222D01*
X0136612Y0071250D01*
X0136457Y0071281D01*
X0136302Y0071317D01*
X0136149Y0071356D01*
X0135997Y0071399D01*
X0135846Y0071446D01*
X0135696Y0071497D01*
X0135547Y0071552D01*
X0135400Y0071610D01*
X0135254Y0071672D01*
X0135110Y0071737D01*
X0134968Y0071807D01*
X0134827Y0071879D01*
X0134688Y0071956D01*
X0134552Y0072035D01*
X0134417Y0072119D01*
X0134284Y0072205D01*
X0134154Y0072295D01*
X0134026Y0072388D01*
X0133900Y0072484D01*
X0133777Y0072584D01*
X0133656Y0072686D01*
X0133538Y0072791D01*
X0133423Y0072900D01*
X0133310Y0073011D01*
X0133200Y0073125D01*
X0133093Y0073242D01*
X0132989Y0073361D01*
X0132888Y0073483D01*
X0132791Y0073608D01*
X0132696Y0073735D01*
X0132605Y0073864D01*
X0132516Y0073995D01*
X0132432Y0074129D01*
X0132350Y0074265D01*
X0132272Y0074402D01*
X0132198Y0074542D01*
X0132127Y0074684D01*
X0132059Y0074827D01*
X0131995Y0074972D01*
X0131935Y0075118D01*
X0131879Y0075266D01*
X0131826Y0075415D01*
X0131777Y0075566D01*
X0131732Y0075718D01*
X0131691Y0075871D01*
X0131653Y0076024D01*
X0131620Y0076179D01*
X0131590Y0076335D01*
X0131564Y0076491D01*
X0131543Y0076648D01*
X0131525Y0076805D01*
X0131511Y0076963D01*
X0131501Y0077121D01*
X0131495Y0077279D01*
X0131493Y0077437D01*
X0542910Y0406177D02*
X0542912Y0406335D01*
X0542918Y0406493D01*
X0542928Y0406651D01*
X0542942Y0406809D01*
X0542960Y0406966D01*
X0542981Y0407123D01*
X0543007Y0407279D01*
X0543037Y0407435D01*
X0543070Y0407590D01*
X0543108Y0407743D01*
X0543149Y0407896D01*
X0543194Y0408048D01*
X0543243Y0408199D01*
X0543296Y0408348D01*
X0543352Y0408496D01*
X0543412Y0408642D01*
X0543476Y0408787D01*
X0543544Y0408930D01*
X0543615Y0409072D01*
X0543689Y0409212D01*
X0543767Y0409349D01*
X0543849Y0409485D01*
X0543933Y0409619D01*
X0544022Y0409750D01*
X0544113Y0409879D01*
X0544208Y0410006D01*
X0544305Y0410131D01*
X0544406Y0410253D01*
X0544510Y0410372D01*
X0544617Y0410489D01*
X0544727Y0410603D01*
X0544840Y0410714D01*
X0544955Y0410823D01*
X0545073Y0410928D01*
X0545194Y0411030D01*
X0545317Y0411130D01*
X0545443Y0411226D01*
X0545571Y0411319D01*
X0545701Y0411409D01*
X0545834Y0411495D01*
X0545969Y0411579D01*
X0546105Y0411658D01*
X0546244Y0411735D01*
X0546385Y0411807D01*
X0546527Y0411877D01*
X0546671Y0411942D01*
X0546817Y0412004D01*
X0546964Y0412062D01*
X0547113Y0412117D01*
X0547263Y0412168D01*
X0547414Y0412215D01*
X0547566Y0412258D01*
X0547719Y0412297D01*
X0547874Y0412333D01*
X0548029Y0412364D01*
X0548185Y0412392D01*
X0548341Y0412416D01*
X0548498Y0412436D01*
X0548656Y0412452D01*
X0548813Y0412464D01*
X0548972Y0412472D01*
X0549130Y0412476D01*
X0549288Y0412476D01*
X0549446Y0412472D01*
X0549605Y0412464D01*
X0549762Y0412452D01*
X0549920Y0412436D01*
X0550077Y0412416D01*
X0550233Y0412392D01*
X0550389Y0412364D01*
X0550544Y0412333D01*
X0550699Y0412297D01*
X0550852Y0412258D01*
X0551004Y0412215D01*
X0551155Y0412168D01*
X0551305Y0412117D01*
X0551454Y0412062D01*
X0551601Y0412004D01*
X0551747Y0411942D01*
X0551891Y0411877D01*
X0552033Y0411807D01*
X0552174Y0411735D01*
X0552313Y0411658D01*
X0552449Y0411579D01*
X0552584Y0411495D01*
X0552717Y0411409D01*
X0552847Y0411319D01*
X0552975Y0411226D01*
X0553101Y0411130D01*
X0553224Y0411030D01*
X0553345Y0410928D01*
X0553463Y0410823D01*
X0553578Y0410714D01*
X0553691Y0410603D01*
X0553801Y0410489D01*
X0553908Y0410372D01*
X0554012Y0410253D01*
X0554113Y0410131D01*
X0554210Y0410006D01*
X0554305Y0409879D01*
X0554396Y0409750D01*
X0554485Y0409619D01*
X0554569Y0409485D01*
X0554651Y0409349D01*
X0554729Y0409212D01*
X0554803Y0409072D01*
X0554874Y0408930D01*
X0554942Y0408787D01*
X0555006Y0408642D01*
X0555066Y0408496D01*
X0555122Y0408348D01*
X0555175Y0408199D01*
X0555224Y0408048D01*
X0555269Y0407896D01*
X0555310Y0407743D01*
X0555348Y0407590D01*
X0555381Y0407435D01*
X0555411Y0407279D01*
X0555437Y0407123D01*
X0555458Y0406966D01*
X0555476Y0406809D01*
X0555490Y0406651D01*
X0555500Y0406493D01*
X0555506Y0406335D01*
X0555508Y0406177D01*
X0555506Y0406019D01*
X0555500Y0405861D01*
X0555490Y0405703D01*
X0555476Y0405545D01*
X0555458Y0405388D01*
X0555437Y0405231D01*
X0555411Y0405075D01*
X0555381Y0404919D01*
X0555348Y0404764D01*
X0555310Y0404611D01*
X0555269Y0404458D01*
X0555224Y0404306D01*
X0555175Y0404155D01*
X0555122Y0404006D01*
X0555066Y0403858D01*
X0555006Y0403712D01*
X0554942Y0403567D01*
X0554874Y0403424D01*
X0554803Y0403282D01*
X0554729Y0403142D01*
X0554651Y0403005D01*
X0554569Y0402869D01*
X0554485Y0402735D01*
X0554396Y0402604D01*
X0554305Y0402475D01*
X0554210Y0402348D01*
X0554113Y0402223D01*
X0554012Y0402101D01*
X0553908Y0401982D01*
X0553801Y0401865D01*
X0553691Y0401751D01*
X0553578Y0401640D01*
X0553463Y0401531D01*
X0553345Y0401426D01*
X0553224Y0401324D01*
X0553101Y0401224D01*
X0552975Y0401128D01*
X0552847Y0401035D01*
X0552717Y0400945D01*
X0552584Y0400859D01*
X0552449Y0400775D01*
X0552313Y0400696D01*
X0552174Y0400619D01*
X0552033Y0400547D01*
X0551891Y0400477D01*
X0551747Y0400412D01*
X0551601Y0400350D01*
X0551454Y0400292D01*
X0551305Y0400237D01*
X0551155Y0400186D01*
X0551004Y0400139D01*
X0550852Y0400096D01*
X0550699Y0400057D01*
X0550544Y0400021D01*
X0550389Y0399990D01*
X0550233Y0399962D01*
X0550077Y0399938D01*
X0549920Y0399918D01*
X0549762Y0399902D01*
X0549605Y0399890D01*
X0549446Y0399882D01*
X0549288Y0399878D01*
X0549130Y0399878D01*
X0548972Y0399882D01*
X0548813Y0399890D01*
X0548656Y0399902D01*
X0548498Y0399918D01*
X0548341Y0399938D01*
X0548185Y0399962D01*
X0548029Y0399990D01*
X0547874Y0400021D01*
X0547719Y0400057D01*
X0547566Y0400096D01*
X0547414Y0400139D01*
X0547263Y0400186D01*
X0547113Y0400237D01*
X0546964Y0400292D01*
X0546817Y0400350D01*
X0546671Y0400412D01*
X0546527Y0400477D01*
X0546385Y0400547D01*
X0546244Y0400619D01*
X0546105Y0400696D01*
X0545969Y0400775D01*
X0545834Y0400859D01*
X0545701Y0400945D01*
X0545571Y0401035D01*
X0545443Y0401128D01*
X0545317Y0401224D01*
X0545194Y0401324D01*
X0545073Y0401426D01*
X0544955Y0401531D01*
X0544840Y0401640D01*
X0544727Y0401751D01*
X0544617Y0401865D01*
X0544510Y0401982D01*
X0544406Y0402101D01*
X0544305Y0402223D01*
X0544208Y0402348D01*
X0544113Y0402475D01*
X0544022Y0402604D01*
X0543933Y0402735D01*
X0543849Y0402869D01*
X0543767Y0403005D01*
X0543689Y0403142D01*
X0543615Y0403282D01*
X0543544Y0403424D01*
X0543476Y0403567D01*
X0543412Y0403712D01*
X0543352Y0403858D01*
X0543296Y0404006D01*
X0543243Y0404155D01*
X0543194Y0404306D01*
X0543149Y0404458D01*
X0543108Y0404611D01*
X0543070Y0404764D01*
X0543037Y0404919D01*
X0543007Y0405075D01*
X0542981Y0405231D01*
X0542960Y0405388D01*
X0542942Y0405545D01*
X0542928Y0405703D01*
X0542918Y0405861D01*
X0542912Y0406019D01*
X0542910Y0406177D01*
X0542910Y0567594D02*
X0542912Y0567752D01*
X0542918Y0567910D01*
X0542928Y0568068D01*
X0542942Y0568226D01*
X0542960Y0568383D01*
X0542981Y0568540D01*
X0543007Y0568696D01*
X0543037Y0568852D01*
X0543070Y0569007D01*
X0543108Y0569160D01*
X0543149Y0569313D01*
X0543194Y0569465D01*
X0543243Y0569616D01*
X0543296Y0569765D01*
X0543352Y0569913D01*
X0543412Y0570059D01*
X0543476Y0570204D01*
X0543544Y0570347D01*
X0543615Y0570489D01*
X0543689Y0570629D01*
X0543767Y0570766D01*
X0543849Y0570902D01*
X0543933Y0571036D01*
X0544022Y0571167D01*
X0544113Y0571296D01*
X0544208Y0571423D01*
X0544305Y0571548D01*
X0544406Y0571670D01*
X0544510Y0571789D01*
X0544617Y0571906D01*
X0544727Y0572020D01*
X0544840Y0572131D01*
X0544955Y0572240D01*
X0545073Y0572345D01*
X0545194Y0572447D01*
X0545317Y0572547D01*
X0545443Y0572643D01*
X0545571Y0572736D01*
X0545701Y0572826D01*
X0545834Y0572912D01*
X0545969Y0572996D01*
X0546105Y0573075D01*
X0546244Y0573152D01*
X0546385Y0573224D01*
X0546527Y0573294D01*
X0546671Y0573359D01*
X0546817Y0573421D01*
X0546964Y0573479D01*
X0547113Y0573534D01*
X0547263Y0573585D01*
X0547414Y0573632D01*
X0547566Y0573675D01*
X0547719Y0573714D01*
X0547874Y0573750D01*
X0548029Y0573781D01*
X0548185Y0573809D01*
X0548341Y0573833D01*
X0548498Y0573853D01*
X0548656Y0573869D01*
X0548813Y0573881D01*
X0548972Y0573889D01*
X0549130Y0573893D01*
X0549288Y0573893D01*
X0549446Y0573889D01*
X0549605Y0573881D01*
X0549762Y0573869D01*
X0549920Y0573853D01*
X0550077Y0573833D01*
X0550233Y0573809D01*
X0550389Y0573781D01*
X0550544Y0573750D01*
X0550699Y0573714D01*
X0550852Y0573675D01*
X0551004Y0573632D01*
X0551155Y0573585D01*
X0551305Y0573534D01*
X0551454Y0573479D01*
X0551601Y0573421D01*
X0551747Y0573359D01*
X0551891Y0573294D01*
X0552033Y0573224D01*
X0552174Y0573152D01*
X0552313Y0573075D01*
X0552449Y0572996D01*
X0552584Y0572912D01*
X0552717Y0572826D01*
X0552847Y0572736D01*
X0552975Y0572643D01*
X0553101Y0572547D01*
X0553224Y0572447D01*
X0553345Y0572345D01*
X0553463Y0572240D01*
X0553578Y0572131D01*
X0553691Y0572020D01*
X0553801Y0571906D01*
X0553908Y0571789D01*
X0554012Y0571670D01*
X0554113Y0571548D01*
X0554210Y0571423D01*
X0554305Y0571296D01*
X0554396Y0571167D01*
X0554485Y0571036D01*
X0554569Y0570902D01*
X0554651Y0570766D01*
X0554729Y0570629D01*
X0554803Y0570489D01*
X0554874Y0570347D01*
X0554942Y0570204D01*
X0555006Y0570059D01*
X0555066Y0569913D01*
X0555122Y0569765D01*
X0555175Y0569616D01*
X0555224Y0569465D01*
X0555269Y0569313D01*
X0555310Y0569160D01*
X0555348Y0569007D01*
X0555381Y0568852D01*
X0555411Y0568696D01*
X0555437Y0568540D01*
X0555458Y0568383D01*
X0555476Y0568226D01*
X0555490Y0568068D01*
X0555500Y0567910D01*
X0555506Y0567752D01*
X0555508Y0567594D01*
X0555506Y0567436D01*
X0555500Y0567278D01*
X0555490Y0567120D01*
X0555476Y0566962D01*
X0555458Y0566805D01*
X0555437Y0566648D01*
X0555411Y0566492D01*
X0555381Y0566336D01*
X0555348Y0566181D01*
X0555310Y0566028D01*
X0555269Y0565875D01*
X0555224Y0565723D01*
X0555175Y0565572D01*
X0555122Y0565423D01*
X0555066Y0565275D01*
X0555006Y0565129D01*
X0554942Y0564984D01*
X0554874Y0564841D01*
X0554803Y0564699D01*
X0554729Y0564559D01*
X0554651Y0564422D01*
X0554569Y0564286D01*
X0554485Y0564152D01*
X0554396Y0564021D01*
X0554305Y0563892D01*
X0554210Y0563765D01*
X0554113Y0563640D01*
X0554012Y0563518D01*
X0553908Y0563399D01*
X0553801Y0563282D01*
X0553691Y0563168D01*
X0553578Y0563057D01*
X0553463Y0562948D01*
X0553345Y0562843D01*
X0553224Y0562741D01*
X0553101Y0562641D01*
X0552975Y0562545D01*
X0552847Y0562452D01*
X0552717Y0562362D01*
X0552584Y0562276D01*
X0552449Y0562192D01*
X0552313Y0562113D01*
X0552174Y0562036D01*
X0552033Y0561964D01*
X0551891Y0561894D01*
X0551747Y0561829D01*
X0551601Y0561767D01*
X0551454Y0561709D01*
X0551305Y0561654D01*
X0551155Y0561603D01*
X0551004Y0561556D01*
X0550852Y0561513D01*
X0550699Y0561474D01*
X0550544Y0561438D01*
X0550389Y0561407D01*
X0550233Y0561379D01*
X0550077Y0561355D01*
X0549920Y0561335D01*
X0549762Y0561319D01*
X0549605Y0561307D01*
X0549446Y0561299D01*
X0549288Y0561295D01*
X0549130Y0561295D01*
X0548972Y0561299D01*
X0548813Y0561307D01*
X0548656Y0561319D01*
X0548498Y0561335D01*
X0548341Y0561355D01*
X0548185Y0561379D01*
X0548029Y0561407D01*
X0547874Y0561438D01*
X0547719Y0561474D01*
X0547566Y0561513D01*
X0547414Y0561556D01*
X0547263Y0561603D01*
X0547113Y0561654D01*
X0546964Y0561709D01*
X0546817Y0561767D01*
X0546671Y0561829D01*
X0546527Y0561894D01*
X0546385Y0561964D01*
X0546244Y0562036D01*
X0546105Y0562113D01*
X0545969Y0562192D01*
X0545834Y0562276D01*
X0545701Y0562362D01*
X0545571Y0562452D01*
X0545443Y0562545D01*
X0545317Y0562641D01*
X0545194Y0562741D01*
X0545073Y0562843D01*
X0544955Y0562948D01*
X0544840Y0563057D01*
X0544727Y0563168D01*
X0544617Y0563282D01*
X0544510Y0563399D01*
X0544406Y0563518D01*
X0544305Y0563640D01*
X0544208Y0563765D01*
X0544113Y0563892D01*
X0544022Y0564021D01*
X0543933Y0564152D01*
X0543849Y0564286D01*
X0543767Y0564422D01*
X0543689Y0564559D01*
X0543615Y0564699D01*
X0543544Y0564841D01*
X0543476Y0564984D01*
X0543412Y0565129D01*
X0543352Y0565275D01*
X0543296Y0565423D01*
X0543243Y0565572D01*
X0543194Y0565723D01*
X0543149Y0565875D01*
X0543108Y0566028D01*
X0543070Y0566181D01*
X0543037Y0566336D01*
X0543007Y0566492D01*
X0542981Y0566648D01*
X0542960Y0566805D01*
X0542942Y0566962D01*
X0542928Y0567120D01*
X0542918Y0567278D01*
X0542912Y0567436D01*
X0542910Y0567594D01*
X0131493Y0900272D02*
X0131495Y0900430D01*
X0131501Y0900588D01*
X0131511Y0900746D01*
X0131525Y0900904D01*
X0131543Y0901061D01*
X0131564Y0901218D01*
X0131590Y0901374D01*
X0131620Y0901530D01*
X0131653Y0901685D01*
X0131691Y0901838D01*
X0131732Y0901991D01*
X0131777Y0902143D01*
X0131826Y0902294D01*
X0131879Y0902443D01*
X0131935Y0902591D01*
X0131995Y0902737D01*
X0132059Y0902882D01*
X0132127Y0903025D01*
X0132198Y0903167D01*
X0132272Y0903307D01*
X0132350Y0903444D01*
X0132432Y0903580D01*
X0132516Y0903714D01*
X0132605Y0903845D01*
X0132696Y0903974D01*
X0132791Y0904101D01*
X0132888Y0904226D01*
X0132989Y0904348D01*
X0133093Y0904467D01*
X0133200Y0904584D01*
X0133310Y0904698D01*
X0133423Y0904809D01*
X0133538Y0904918D01*
X0133656Y0905023D01*
X0133777Y0905125D01*
X0133900Y0905225D01*
X0134026Y0905321D01*
X0134154Y0905414D01*
X0134284Y0905504D01*
X0134417Y0905590D01*
X0134552Y0905674D01*
X0134688Y0905753D01*
X0134827Y0905830D01*
X0134968Y0905902D01*
X0135110Y0905972D01*
X0135254Y0906037D01*
X0135400Y0906099D01*
X0135547Y0906157D01*
X0135696Y0906212D01*
X0135846Y0906263D01*
X0135997Y0906310D01*
X0136149Y0906353D01*
X0136302Y0906392D01*
X0136457Y0906428D01*
X0136612Y0906459D01*
X0136768Y0906487D01*
X0136924Y0906511D01*
X0137081Y0906531D01*
X0137239Y0906547D01*
X0137396Y0906559D01*
X0137555Y0906567D01*
X0137713Y0906571D01*
X0137871Y0906571D01*
X0138029Y0906567D01*
X0138188Y0906559D01*
X0138345Y0906547D01*
X0138503Y0906531D01*
X0138660Y0906511D01*
X0138816Y0906487D01*
X0138972Y0906459D01*
X0139127Y0906428D01*
X0139282Y0906392D01*
X0139435Y0906353D01*
X0139587Y0906310D01*
X0139738Y0906263D01*
X0139888Y0906212D01*
X0140037Y0906157D01*
X0140184Y0906099D01*
X0140330Y0906037D01*
X0140474Y0905972D01*
X0140616Y0905902D01*
X0140757Y0905830D01*
X0140896Y0905753D01*
X0141032Y0905674D01*
X0141167Y0905590D01*
X0141300Y0905504D01*
X0141430Y0905414D01*
X0141558Y0905321D01*
X0141684Y0905225D01*
X0141807Y0905125D01*
X0141928Y0905023D01*
X0142046Y0904918D01*
X0142161Y0904809D01*
X0142274Y0904698D01*
X0142384Y0904584D01*
X0142491Y0904467D01*
X0142595Y0904348D01*
X0142696Y0904226D01*
X0142793Y0904101D01*
X0142888Y0903974D01*
X0142979Y0903845D01*
X0143068Y0903714D01*
X0143152Y0903580D01*
X0143234Y0903444D01*
X0143312Y0903307D01*
X0143386Y0903167D01*
X0143457Y0903025D01*
X0143525Y0902882D01*
X0143589Y0902737D01*
X0143649Y0902591D01*
X0143705Y0902443D01*
X0143758Y0902294D01*
X0143807Y0902143D01*
X0143852Y0901991D01*
X0143893Y0901838D01*
X0143931Y0901685D01*
X0143964Y0901530D01*
X0143994Y0901374D01*
X0144020Y0901218D01*
X0144041Y0901061D01*
X0144059Y0900904D01*
X0144073Y0900746D01*
X0144083Y0900588D01*
X0144089Y0900430D01*
X0144091Y0900272D01*
X0144089Y0900114D01*
X0144083Y0899956D01*
X0144073Y0899798D01*
X0144059Y0899640D01*
X0144041Y0899483D01*
X0144020Y0899326D01*
X0143994Y0899170D01*
X0143964Y0899014D01*
X0143931Y0898859D01*
X0143893Y0898706D01*
X0143852Y0898553D01*
X0143807Y0898401D01*
X0143758Y0898250D01*
X0143705Y0898101D01*
X0143649Y0897953D01*
X0143589Y0897807D01*
X0143525Y0897662D01*
X0143457Y0897519D01*
X0143386Y0897377D01*
X0143312Y0897237D01*
X0143234Y0897100D01*
X0143152Y0896964D01*
X0143068Y0896830D01*
X0142979Y0896699D01*
X0142888Y0896570D01*
X0142793Y0896443D01*
X0142696Y0896318D01*
X0142595Y0896196D01*
X0142491Y0896077D01*
X0142384Y0895960D01*
X0142274Y0895846D01*
X0142161Y0895735D01*
X0142046Y0895626D01*
X0141928Y0895521D01*
X0141807Y0895419D01*
X0141684Y0895319D01*
X0141558Y0895223D01*
X0141430Y0895130D01*
X0141300Y0895040D01*
X0141167Y0894954D01*
X0141032Y0894870D01*
X0140896Y0894791D01*
X0140757Y0894714D01*
X0140616Y0894642D01*
X0140474Y0894572D01*
X0140330Y0894507D01*
X0140184Y0894445D01*
X0140037Y0894387D01*
X0139888Y0894332D01*
X0139738Y0894281D01*
X0139587Y0894234D01*
X0139435Y0894191D01*
X0139282Y0894152D01*
X0139127Y0894116D01*
X0138972Y0894085D01*
X0138816Y0894057D01*
X0138660Y0894033D01*
X0138503Y0894013D01*
X0138345Y0893997D01*
X0138188Y0893985D01*
X0138029Y0893977D01*
X0137871Y0893973D01*
X0137713Y0893973D01*
X0137555Y0893977D01*
X0137396Y0893985D01*
X0137239Y0893997D01*
X0137081Y0894013D01*
X0136924Y0894033D01*
X0136768Y0894057D01*
X0136612Y0894085D01*
X0136457Y0894116D01*
X0136302Y0894152D01*
X0136149Y0894191D01*
X0135997Y0894234D01*
X0135846Y0894281D01*
X0135696Y0894332D01*
X0135547Y0894387D01*
X0135400Y0894445D01*
X0135254Y0894507D01*
X0135110Y0894572D01*
X0134968Y0894642D01*
X0134827Y0894714D01*
X0134688Y0894791D01*
X0134552Y0894870D01*
X0134417Y0894954D01*
X0134284Y0895040D01*
X0134154Y0895130D01*
X0134026Y0895223D01*
X0133900Y0895319D01*
X0133777Y0895419D01*
X0133656Y0895521D01*
X0133538Y0895626D01*
X0133423Y0895735D01*
X0133310Y0895846D01*
X0133200Y0895960D01*
X0133093Y0896077D01*
X0132989Y0896196D01*
X0132888Y0896318D01*
X0132791Y0896443D01*
X0132696Y0896570D01*
X0132605Y0896699D01*
X0132516Y0896830D01*
X0132432Y0896964D01*
X0132350Y0897100D01*
X0132272Y0897237D01*
X0132198Y0897377D01*
X0132127Y0897519D01*
X0132059Y0897662D01*
X0131995Y0897807D01*
X0131935Y0897953D01*
X0131879Y0898101D01*
X0131826Y0898250D01*
X0131777Y0898401D01*
X0131732Y0898553D01*
X0131691Y0898706D01*
X0131653Y0898859D01*
X0131620Y0899014D01*
X0131590Y0899170D01*
X0131564Y0899326D01*
X0131543Y0899483D01*
X0131525Y0899640D01*
X0131511Y0899798D01*
X0131501Y0899956D01*
X0131495Y0900114D01*
X0131493Y0900272D01*
X0131495Y0900430D01*
X0131501Y0900588D01*
X0131511Y0900746D01*
X0131525Y0900904D01*
X0131543Y0901061D01*
X0131564Y0901218D01*
X0131590Y0901374D01*
X0131620Y0901530D01*
X0131653Y0901685D01*
X0131691Y0901838D01*
X0131732Y0901991D01*
X0131777Y0902143D01*
X0131826Y0902294D01*
X0131879Y0902443D01*
X0131935Y0902591D01*
X0131995Y0902737D01*
X0132059Y0902882D01*
X0132127Y0903025D01*
X0132198Y0903167D01*
X0132272Y0903307D01*
X0132350Y0903444D01*
X0132432Y0903580D01*
X0132516Y0903714D01*
X0132605Y0903845D01*
X0132696Y0903974D01*
X0132791Y0904101D01*
X0132888Y0904226D01*
X0132989Y0904348D01*
X0133093Y0904467D01*
X0133200Y0904584D01*
X0133310Y0904698D01*
X0133423Y0904809D01*
X0133538Y0904918D01*
X0133656Y0905023D01*
X0133777Y0905125D01*
X0133900Y0905225D01*
X0134026Y0905321D01*
X0134154Y0905414D01*
X0134284Y0905504D01*
X0134417Y0905590D01*
X0134552Y0905674D01*
X0134688Y0905753D01*
X0134827Y0905830D01*
X0134968Y0905902D01*
X0135110Y0905972D01*
X0135254Y0906037D01*
X0135400Y0906099D01*
X0135547Y0906157D01*
X0135696Y0906212D01*
X0135846Y0906263D01*
X0135997Y0906310D01*
X0136149Y0906353D01*
X0136302Y0906392D01*
X0136457Y0906428D01*
X0136612Y0906459D01*
X0136768Y0906487D01*
X0136924Y0906511D01*
X0137081Y0906531D01*
X0137239Y0906547D01*
X0137396Y0906559D01*
X0137555Y0906567D01*
X0137713Y0906571D01*
X0137871Y0906571D01*
X0138029Y0906567D01*
X0138188Y0906559D01*
X0138345Y0906547D01*
X0138503Y0906531D01*
X0138660Y0906511D01*
X0138816Y0906487D01*
X0138972Y0906459D01*
X0139127Y0906428D01*
X0139282Y0906392D01*
X0139435Y0906353D01*
X0139587Y0906310D01*
X0139738Y0906263D01*
X0139888Y0906212D01*
X0140037Y0906157D01*
X0140184Y0906099D01*
X0140330Y0906037D01*
X0140474Y0905972D01*
X0140616Y0905902D01*
X0140757Y0905830D01*
X0140896Y0905753D01*
X0141032Y0905674D01*
X0141167Y0905590D01*
X0141300Y0905504D01*
X0141430Y0905414D01*
X0141558Y0905321D01*
X0141684Y0905225D01*
X0141807Y0905125D01*
X0141928Y0905023D01*
X0142046Y0904918D01*
X0142161Y0904809D01*
X0142274Y0904698D01*
X0142384Y0904584D01*
X0142491Y0904467D01*
X0142595Y0904348D01*
X0142696Y0904226D01*
X0142793Y0904101D01*
X0142888Y0903974D01*
X0142979Y0903845D01*
X0143068Y0903714D01*
X0143152Y0903580D01*
X0143234Y0903444D01*
X0143312Y0903307D01*
X0143386Y0903167D01*
X0143457Y0903025D01*
X0143525Y0902882D01*
X0143589Y0902737D01*
X0143649Y0902591D01*
X0143705Y0902443D01*
X0143758Y0902294D01*
X0143807Y0902143D01*
X0143852Y0901991D01*
X0143893Y0901838D01*
X0143931Y0901685D01*
X0143964Y0901530D01*
X0143994Y0901374D01*
X0144020Y0901218D01*
X0144041Y0901061D01*
X0144059Y0900904D01*
X0144073Y0900746D01*
X0144083Y0900588D01*
X0144089Y0900430D01*
X0144091Y0900272D01*
X0144089Y0900114D01*
X0144083Y0899956D01*
X0144073Y0899798D01*
X0144059Y0899640D01*
X0144041Y0899483D01*
X0144020Y0899326D01*
X0143994Y0899170D01*
X0143964Y0899014D01*
X0143931Y0898859D01*
X0143893Y0898706D01*
X0143852Y0898553D01*
X0143807Y0898401D01*
X0143758Y0898250D01*
X0143705Y0898101D01*
X0143649Y0897953D01*
X0143589Y0897807D01*
X0143525Y0897662D01*
X0143457Y0897519D01*
X0143386Y0897377D01*
X0143312Y0897237D01*
X0143234Y0897100D01*
X0143152Y0896964D01*
X0143068Y0896830D01*
X0142979Y0896699D01*
X0142888Y0896570D01*
X0142793Y0896443D01*
X0142696Y0896318D01*
X0142595Y0896196D01*
X0142491Y0896077D01*
X0142384Y0895960D01*
X0142274Y0895846D01*
X0142161Y0895735D01*
X0142046Y0895626D01*
X0141928Y0895521D01*
X0141807Y0895419D01*
X0141684Y0895319D01*
X0141558Y0895223D01*
X0141430Y0895130D01*
X0141300Y0895040D01*
X0141167Y0894954D01*
X0141032Y0894870D01*
X0140896Y0894791D01*
X0140757Y0894714D01*
X0140616Y0894642D01*
X0140474Y0894572D01*
X0140330Y0894507D01*
X0140184Y0894445D01*
X0140037Y0894387D01*
X0139888Y0894332D01*
X0139738Y0894281D01*
X0139587Y0894234D01*
X0139435Y0894191D01*
X0139282Y0894152D01*
X0139127Y0894116D01*
X0138972Y0894085D01*
X0138816Y0894057D01*
X0138660Y0894033D01*
X0138503Y0894013D01*
X0138345Y0893997D01*
X0138188Y0893985D01*
X0138029Y0893977D01*
X0137871Y0893973D01*
X0137713Y0893973D01*
X0137555Y0893977D01*
X0137396Y0893985D01*
X0137239Y0893997D01*
X0137081Y0894013D01*
X0136924Y0894033D01*
X0136768Y0894057D01*
X0136612Y0894085D01*
X0136457Y0894116D01*
X0136302Y0894152D01*
X0136149Y0894191D01*
X0135997Y0894234D01*
X0135846Y0894281D01*
X0135696Y0894332D01*
X0135547Y0894387D01*
X0135400Y0894445D01*
X0135254Y0894507D01*
X0135110Y0894572D01*
X0134968Y0894642D01*
X0134827Y0894714D01*
X0134688Y0894791D01*
X0134552Y0894870D01*
X0134417Y0894954D01*
X0134284Y0895040D01*
X0134154Y0895130D01*
X0134026Y0895223D01*
X0133900Y0895319D01*
X0133777Y0895419D01*
X0133656Y0895521D01*
X0133538Y0895626D01*
X0133423Y0895735D01*
X0133310Y0895846D01*
X0133200Y0895960D01*
X0133093Y0896077D01*
X0132989Y0896196D01*
X0132888Y0896318D01*
X0132791Y0896443D01*
X0132696Y0896570D01*
X0132605Y0896699D01*
X0132516Y0896830D01*
X0132432Y0896964D01*
X0132350Y0897100D01*
X0132272Y0897237D01*
X0132198Y0897377D01*
X0132127Y0897519D01*
X0132059Y0897662D01*
X0131995Y0897807D01*
X0131935Y0897953D01*
X0131879Y0898101D01*
X0131826Y0898250D01*
X0131777Y0898401D01*
X0131732Y0898553D01*
X0131691Y0898706D01*
X0131653Y0898859D01*
X0131620Y0899014D01*
X0131590Y0899170D01*
X0131564Y0899326D01*
X0131543Y0899483D01*
X0131525Y0899640D01*
X0131511Y0899798D01*
X0131501Y0899956D01*
X0131495Y0900114D01*
X0131493Y0900272D01*
X0109839Y0990823D02*
X0109841Y0990981D01*
X0109847Y0991139D01*
X0109857Y0991297D01*
X0109871Y0991455D01*
X0109889Y0991612D01*
X0109910Y0991769D01*
X0109936Y0991925D01*
X0109966Y0992081D01*
X0109999Y0992236D01*
X0110037Y0992389D01*
X0110078Y0992542D01*
X0110123Y0992694D01*
X0110172Y0992845D01*
X0110225Y0992994D01*
X0110281Y0993142D01*
X0110341Y0993288D01*
X0110405Y0993433D01*
X0110473Y0993576D01*
X0110544Y0993718D01*
X0110618Y0993858D01*
X0110696Y0993995D01*
X0110778Y0994131D01*
X0110862Y0994265D01*
X0110951Y0994396D01*
X0111042Y0994525D01*
X0111137Y0994652D01*
X0111234Y0994777D01*
X0111335Y0994899D01*
X0111439Y0995018D01*
X0111546Y0995135D01*
X0111656Y0995249D01*
X0111769Y0995360D01*
X0111884Y0995469D01*
X0112002Y0995574D01*
X0112123Y0995676D01*
X0112246Y0995776D01*
X0112372Y0995872D01*
X0112500Y0995965D01*
X0112630Y0996055D01*
X0112763Y0996141D01*
X0112898Y0996225D01*
X0113034Y0996304D01*
X0113173Y0996381D01*
X0113314Y0996453D01*
X0113456Y0996523D01*
X0113600Y0996588D01*
X0113746Y0996650D01*
X0113893Y0996708D01*
X0114042Y0996763D01*
X0114192Y0996814D01*
X0114343Y0996861D01*
X0114495Y0996904D01*
X0114648Y0996943D01*
X0114803Y0996979D01*
X0114958Y0997010D01*
X0115114Y0997038D01*
X0115270Y0997062D01*
X0115427Y0997082D01*
X0115585Y0997098D01*
X0115742Y0997110D01*
X0115901Y0997118D01*
X0116059Y0997122D01*
X0116217Y0997122D01*
X0116375Y0997118D01*
X0116534Y0997110D01*
X0116691Y0997098D01*
X0116849Y0997082D01*
X0117006Y0997062D01*
X0117162Y0997038D01*
X0117318Y0997010D01*
X0117473Y0996979D01*
X0117628Y0996943D01*
X0117781Y0996904D01*
X0117933Y0996861D01*
X0118084Y0996814D01*
X0118234Y0996763D01*
X0118383Y0996708D01*
X0118530Y0996650D01*
X0118676Y0996588D01*
X0118820Y0996523D01*
X0118962Y0996453D01*
X0119103Y0996381D01*
X0119242Y0996304D01*
X0119378Y0996225D01*
X0119513Y0996141D01*
X0119646Y0996055D01*
X0119776Y0995965D01*
X0119904Y0995872D01*
X0120030Y0995776D01*
X0120153Y0995676D01*
X0120274Y0995574D01*
X0120392Y0995469D01*
X0120507Y0995360D01*
X0120620Y0995249D01*
X0120730Y0995135D01*
X0120837Y0995018D01*
X0120941Y0994899D01*
X0121042Y0994777D01*
X0121139Y0994652D01*
X0121234Y0994525D01*
X0121325Y0994396D01*
X0121414Y0994265D01*
X0121498Y0994131D01*
X0121580Y0993995D01*
X0121658Y0993858D01*
X0121732Y0993718D01*
X0121803Y0993576D01*
X0121871Y0993433D01*
X0121935Y0993288D01*
X0121995Y0993142D01*
X0122051Y0992994D01*
X0122104Y0992845D01*
X0122153Y0992694D01*
X0122198Y0992542D01*
X0122239Y0992389D01*
X0122277Y0992236D01*
X0122310Y0992081D01*
X0122340Y0991925D01*
X0122366Y0991769D01*
X0122387Y0991612D01*
X0122405Y0991455D01*
X0122419Y0991297D01*
X0122429Y0991139D01*
X0122435Y0990981D01*
X0122437Y0990823D01*
X0122435Y0990665D01*
X0122429Y0990507D01*
X0122419Y0990349D01*
X0122405Y0990191D01*
X0122387Y0990034D01*
X0122366Y0989877D01*
X0122340Y0989721D01*
X0122310Y0989565D01*
X0122277Y0989410D01*
X0122239Y0989257D01*
X0122198Y0989104D01*
X0122153Y0988952D01*
X0122104Y0988801D01*
X0122051Y0988652D01*
X0121995Y0988504D01*
X0121935Y0988358D01*
X0121871Y0988213D01*
X0121803Y0988070D01*
X0121732Y0987928D01*
X0121658Y0987788D01*
X0121580Y0987651D01*
X0121498Y0987515D01*
X0121414Y0987381D01*
X0121325Y0987250D01*
X0121234Y0987121D01*
X0121139Y0986994D01*
X0121042Y0986869D01*
X0120941Y0986747D01*
X0120837Y0986628D01*
X0120730Y0986511D01*
X0120620Y0986397D01*
X0120507Y0986286D01*
X0120392Y0986177D01*
X0120274Y0986072D01*
X0120153Y0985970D01*
X0120030Y0985870D01*
X0119904Y0985774D01*
X0119776Y0985681D01*
X0119646Y0985591D01*
X0119513Y0985505D01*
X0119378Y0985421D01*
X0119242Y0985342D01*
X0119103Y0985265D01*
X0118962Y0985193D01*
X0118820Y0985123D01*
X0118676Y0985058D01*
X0118530Y0984996D01*
X0118383Y0984938D01*
X0118234Y0984883D01*
X0118084Y0984832D01*
X0117933Y0984785D01*
X0117781Y0984742D01*
X0117628Y0984703D01*
X0117473Y0984667D01*
X0117318Y0984636D01*
X0117162Y0984608D01*
X0117006Y0984584D01*
X0116849Y0984564D01*
X0116691Y0984548D01*
X0116534Y0984536D01*
X0116375Y0984528D01*
X0116217Y0984524D01*
X0116059Y0984524D01*
X0115901Y0984528D01*
X0115742Y0984536D01*
X0115585Y0984548D01*
X0115427Y0984564D01*
X0115270Y0984584D01*
X0115114Y0984608D01*
X0114958Y0984636D01*
X0114803Y0984667D01*
X0114648Y0984703D01*
X0114495Y0984742D01*
X0114343Y0984785D01*
X0114192Y0984832D01*
X0114042Y0984883D01*
X0113893Y0984938D01*
X0113746Y0984996D01*
X0113600Y0985058D01*
X0113456Y0985123D01*
X0113314Y0985193D01*
X0113173Y0985265D01*
X0113034Y0985342D01*
X0112898Y0985421D01*
X0112763Y0985505D01*
X0112630Y0985591D01*
X0112500Y0985681D01*
X0112372Y0985774D01*
X0112246Y0985870D01*
X0112123Y0985970D01*
X0112002Y0986072D01*
X0111884Y0986177D01*
X0111769Y0986286D01*
X0111656Y0986397D01*
X0111546Y0986511D01*
X0111439Y0986628D01*
X0111335Y0986747D01*
X0111234Y0986869D01*
X0111137Y0986994D01*
X0111042Y0987121D01*
X0110951Y0987250D01*
X0110862Y0987381D01*
X0110778Y0987515D01*
X0110696Y0987651D01*
X0110618Y0987788D01*
X0110544Y0987928D01*
X0110473Y0988070D01*
X0110405Y0988213D01*
X0110341Y0988358D01*
X0110281Y0988504D01*
X0110225Y0988652D01*
X0110172Y0988801D01*
X0110123Y0988952D01*
X0110078Y0989104D01*
X0110037Y0989257D01*
X0109999Y0989410D01*
X0109966Y0989565D01*
X0109936Y0989721D01*
X0109910Y0989877D01*
X0109889Y0990034D01*
X0109871Y0990191D01*
X0109857Y0990349D01*
X0109847Y0990507D01*
X0109841Y0990665D01*
X0109839Y0990823D01*
X0954328Y0900272D02*
X0954330Y0900430D01*
X0954336Y0900588D01*
X0954346Y0900746D01*
X0954360Y0900904D01*
X0954378Y0901061D01*
X0954399Y0901218D01*
X0954425Y0901374D01*
X0954455Y0901530D01*
X0954488Y0901685D01*
X0954526Y0901838D01*
X0954567Y0901991D01*
X0954612Y0902143D01*
X0954661Y0902294D01*
X0954714Y0902443D01*
X0954770Y0902591D01*
X0954830Y0902737D01*
X0954894Y0902882D01*
X0954962Y0903025D01*
X0955033Y0903167D01*
X0955107Y0903307D01*
X0955185Y0903444D01*
X0955267Y0903580D01*
X0955351Y0903714D01*
X0955440Y0903845D01*
X0955531Y0903974D01*
X0955626Y0904101D01*
X0955723Y0904226D01*
X0955824Y0904348D01*
X0955928Y0904467D01*
X0956035Y0904584D01*
X0956145Y0904698D01*
X0956258Y0904809D01*
X0956373Y0904918D01*
X0956491Y0905023D01*
X0956612Y0905125D01*
X0956735Y0905225D01*
X0956861Y0905321D01*
X0956989Y0905414D01*
X0957119Y0905504D01*
X0957252Y0905590D01*
X0957387Y0905674D01*
X0957523Y0905753D01*
X0957662Y0905830D01*
X0957803Y0905902D01*
X0957945Y0905972D01*
X0958089Y0906037D01*
X0958235Y0906099D01*
X0958382Y0906157D01*
X0958531Y0906212D01*
X0958681Y0906263D01*
X0958832Y0906310D01*
X0958984Y0906353D01*
X0959137Y0906392D01*
X0959292Y0906428D01*
X0959447Y0906459D01*
X0959603Y0906487D01*
X0959759Y0906511D01*
X0959916Y0906531D01*
X0960074Y0906547D01*
X0960231Y0906559D01*
X0960390Y0906567D01*
X0960548Y0906571D01*
X0960706Y0906571D01*
X0960864Y0906567D01*
X0961023Y0906559D01*
X0961180Y0906547D01*
X0961338Y0906531D01*
X0961495Y0906511D01*
X0961651Y0906487D01*
X0961807Y0906459D01*
X0961962Y0906428D01*
X0962117Y0906392D01*
X0962270Y0906353D01*
X0962422Y0906310D01*
X0962573Y0906263D01*
X0962723Y0906212D01*
X0962872Y0906157D01*
X0963019Y0906099D01*
X0963165Y0906037D01*
X0963309Y0905972D01*
X0963451Y0905902D01*
X0963592Y0905830D01*
X0963731Y0905753D01*
X0963867Y0905674D01*
X0964002Y0905590D01*
X0964135Y0905504D01*
X0964265Y0905414D01*
X0964393Y0905321D01*
X0964519Y0905225D01*
X0964642Y0905125D01*
X0964763Y0905023D01*
X0964881Y0904918D01*
X0964996Y0904809D01*
X0965109Y0904698D01*
X0965219Y0904584D01*
X0965326Y0904467D01*
X0965430Y0904348D01*
X0965531Y0904226D01*
X0965628Y0904101D01*
X0965723Y0903974D01*
X0965814Y0903845D01*
X0965903Y0903714D01*
X0965987Y0903580D01*
X0966069Y0903444D01*
X0966147Y0903307D01*
X0966221Y0903167D01*
X0966292Y0903025D01*
X0966360Y0902882D01*
X0966424Y0902737D01*
X0966484Y0902591D01*
X0966540Y0902443D01*
X0966593Y0902294D01*
X0966642Y0902143D01*
X0966687Y0901991D01*
X0966728Y0901838D01*
X0966766Y0901685D01*
X0966799Y0901530D01*
X0966829Y0901374D01*
X0966855Y0901218D01*
X0966876Y0901061D01*
X0966894Y0900904D01*
X0966908Y0900746D01*
X0966918Y0900588D01*
X0966924Y0900430D01*
X0966926Y0900272D01*
X0966924Y0900114D01*
X0966918Y0899956D01*
X0966908Y0899798D01*
X0966894Y0899640D01*
X0966876Y0899483D01*
X0966855Y0899326D01*
X0966829Y0899170D01*
X0966799Y0899014D01*
X0966766Y0898859D01*
X0966728Y0898706D01*
X0966687Y0898553D01*
X0966642Y0898401D01*
X0966593Y0898250D01*
X0966540Y0898101D01*
X0966484Y0897953D01*
X0966424Y0897807D01*
X0966360Y0897662D01*
X0966292Y0897519D01*
X0966221Y0897377D01*
X0966147Y0897237D01*
X0966069Y0897100D01*
X0965987Y0896964D01*
X0965903Y0896830D01*
X0965814Y0896699D01*
X0965723Y0896570D01*
X0965628Y0896443D01*
X0965531Y0896318D01*
X0965430Y0896196D01*
X0965326Y0896077D01*
X0965219Y0895960D01*
X0965109Y0895846D01*
X0964996Y0895735D01*
X0964881Y0895626D01*
X0964763Y0895521D01*
X0964642Y0895419D01*
X0964519Y0895319D01*
X0964393Y0895223D01*
X0964265Y0895130D01*
X0964135Y0895040D01*
X0964002Y0894954D01*
X0963867Y0894870D01*
X0963731Y0894791D01*
X0963592Y0894714D01*
X0963451Y0894642D01*
X0963309Y0894572D01*
X0963165Y0894507D01*
X0963019Y0894445D01*
X0962872Y0894387D01*
X0962723Y0894332D01*
X0962573Y0894281D01*
X0962422Y0894234D01*
X0962270Y0894191D01*
X0962117Y0894152D01*
X0961962Y0894116D01*
X0961807Y0894085D01*
X0961651Y0894057D01*
X0961495Y0894033D01*
X0961338Y0894013D01*
X0961180Y0893997D01*
X0961023Y0893985D01*
X0960864Y0893977D01*
X0960706Y0893973D01*
X0960548Y0893973D01*
X0960390Y0893977D01*
X0960231Y0893985D01*
X0960074Y0893997D01*
X0959916Y0894013D01*
X0959759Y0894033D01*
X0959603Y0894057D01*
X0959447Y0894085D01*
X0959292Y0894116D01*
X0959137Y0894152D01*
X0958984Y0894191D01*
X0958832Y0894234D01*
X0958681Y0894281D01*
X0958531Y0894332D01*
X0958382Y0894387D01*
X0958235Y0894445D01*
X0958089Y0894507D01*
X0957945Y0894572D01*
X0957803Y0894642D01*
X0957662Y0894714D01*
X0957523Y0894791D01*
X0957387Y0894870D01*
X0957252Y0894954D01*
X0957119Y0895040D01*
X0956989Y0895130D01*
X0956861Y0895223D01*
X0956735Y0895319D01*
X0956612Y0895419D01*
X0956491Y0895521D01*
X0956373Y0895626D01*
X0956258Y0895735D01*
X0956145Y0895846D01*
X0956035Y0895960D01*
X0955928Y0896077D01*
X0955824Y0896196D01*
X0955723Y0896318D01*
X0955626Y0896443D01*
X0955531Y0896570D01*
X0955440Y0896699D01*
X0955351Y0896830D01*
X0955267Y0896964D01*
X0955185Y0897100D01*
X0955107Y0897237D01*
X0955033Y0897377D01*
X0954962Y0897519D01*
X0954894Y0897662D01*
X0954830Y0897807D01*
X0954770Y0897953D01*
X0954714Y0898101D01*
X0954661Y0898250D01*
X0954612Y0898401D01*
X0954567Y0898553D01*
X0954526Y0898706D01*
X0954488Y0898859D01*
X0954455Y0899014D01*
X0954425Y0899170D01*
X0954399Y0899326D01*
X0954378Y0899483D01*
X0954360Y0899640D01*
X0954346Y0899798D01*
X0954336Y0899956D01*
X0954330Y0900114D01*
X0954328Y0900272D01*
X0954330Y0900430D01*
X0954336Y0900588D01*
X0954346Y0900746D01*
X0954360Y0900904D01*
X0954378Y0901061D01*
X0954399Y0901218D01*
X0954425Y0901374D01*
X0954455Y0901530D01*
X0954488Y0901685D01*
X0954526Y0901838D01*
X0954567Y0901991D01*
X0954612Y0902143D01*
X0954661Y0902294D01*
X0954714Y0902443D01*
X0954770Y0902591D01*
X0954830Y0902737D01*
X0954894Y0902882D01*
X0954962Y0903025D01*
X0955033Y0903167D01*
X0955107Y0903307D01*
X0955185Y0903444D01*
X0955267Y0903580D01*
X0955351Y0903714D01*
X0955440Y0903845D01*
X0955531Y0903974D01*
X0955626Y0904101D01*
X0955723Y0904226D01*
X0955824Y0904348D01*
X0955928Y0904467D01*
X0956035Y0904584D01*
X0956145Y0904698D01*
X0956258Y0904809D01*
X0956373Y0904918D01*
X0956491Y0905023D01*
X0956612Y0905125D01*
X0956735Y0905225D01*
X0956861Y0905321D01*
X0956989Y0905414D01*
X0957119Y0905504D01*
X0957252Y0905590D01*
X0957387Y0905674D01*
X0957523Y0905753D01*
X0957662Y0905830D01*
X0957803Y0905902D01*
X0957945Y0905972D01*
X0958089Y0906037D01*
X0958235Y0906099D01*
X0958382Y0906157D01*
X0958531Y0906212D01*
X0958681Y0906263D01*
X0958832Y0906310D01*
X0958984Y0906353D01*
X0959137Y0906392D01*
X0959292Y0906428D01*
X0959447Y0906459D01*
X0959603Y0906487D01*
X0959759Y0906511D01*
X0959916Y0906531D01*
X0960074Y0906547D01*
X0960231Y0906559D01*
X0960390Y0906567D01*
X0960548Y0906571D01*
X0960706Y0906571D01*
X0960864Y0906567D01*
X0961023Y0906559D01*
X0961180Y0906547D01*
X0961338Y0906531D01*
X0961495Y0906511D01*
X0961651Y0906487D01*
X0961807Y0906459D01*
X0961962Y0906428D01*
X0962117Y0906392D01*
X0962270Y0906353D01*
X0962422Y0906310D01*
X0962573Y0906263D01*
X0962723Y0906212D01*
X0962872Y0906157D01*
X0963019Y0906099D01*
X0963165Y0906037D01*
X0963309Y0905972D01*
X0963451Y0905902D01*
X0963592Y0905830D01*
X0963731Y0905753D01*
X0963867Y0905674D01*
X0964002Y0905590D01*
X0964135Y0905504D01*
X0964265Y0905414D01*
X0964393Y0905321D01*
X0964519Y0905225D01*
X0964642Y0905125D01*
X0964763Y0905023D01*
X0964881Y0904918D01*
X0964996Y0904809D01*
X0965109Y0904698D01*
X0965219Y0904584D01*
X0965326Y0904467D01*
X0965430Y0904348D01*
X0965531Y0904226D01*
X0965628Y0904101D01*
X0965723Y0903974D01*
X0965814Y0903845D01*
X0965903Y0903714D01*
X0965987Y0903580D01*
X0966069Y0903444D01*
X0966147Y0903307D01*
X0966221Y0903167D01*
X0966292Y0903025D01*
X0966360Y0902882D01*
X0966424Y0902737D01*
X0966484Y0902591D01*
X0966540Y0902443D01*
X0966593Y0902294D01*
X0966642Y0902143D01*
X0966687Y0901991D01*
X0966728Y0901838D01*
X0966766Y0901685D01*
X0966799Y0901530D01*
X0966829Y0901374D01*
X0966855Y0901218D01*
X0966876Y0901061D01*
X0966894Y0900904D01*
X0966908Y0900746D01*
X0966918Y0900588D01*
X0966924Y0900430D01*
X0966926Y0900272D01*
X0966924Y0900114D01*
X0966918Y0899956D01*
X0966908Y0899798D01*
X0966894Y0899640D01*
X0966876Y0899483D01*
X0966855Y0899326D01*
X0966829Y0899170D01*
X0966799Y0899014D01*
X0966766Y0898859D01*
X0966728Y0898706D01*
X0966687Y0898553D01*
X0966642Y0898401D01*
X0966593Y0898250D01*
X0966540Y0898101D01*
X0966484Y0897953D01*
X0966424Y0897807D01*
X0966360Y0897662D01*
X0966292Y0897519D01*
X0966221Y0897377D01*
X0966147Y0897237D01*
X0966069Y0897100D01*
X0965987Y0896964D01*
X0965903Y0896830D01*
X0965814Y0896699D01*
X0965723Y0896570D01*
X0965628Y0896443D01*
X0965531Y0896318D01*
X0965430Y0896196D01*
X0965326Y0896077D01*
X0965219Y0895960D01*
X0965109Y0895846D01*
X0964996Y0895735D01*
X0964881Y0895626D01*
X0964763Y0895521D01*
X0964642Y0895419D01*
X0964519Y0895319D01*
X0964393Y0895223D01*
X0964265Y0895130D01*
X0964135Y0895040D01*
X0964002Y0894954D01*
X0963867Y0894870D01*
X0963731Y0894791D01*
X0963592Y0894714D01*
X0963451Y0894642D01*
X0963309Y0894572D01*
X0963165Y0894507D01*
X0963019Y0894445D01*
X0962872Y0894387D01*
X0962723Y0894332D01*
X0962573Y0894281D01*
X0962422Y0894234D01*
X0962270Y0894191D01*
X0962117Y0894152D01*
X0961962Y0894116D01*
X0961807Y0894085D01*
X0961651Y0894057D01*
X0961495Y0894033D01*
X0961338Y0894013D01*
X0961180Y0893997D01*
X0961023Y0893985D01*
X0960864Y0893977D01*
X0960706Y0893973D01*
X0960548Y0893973D01*
X0960390Y0893977D01*
X0960231Y0893985D01*
X0960074Y0893997D01*
X0959916Y0894013D01*
X0959759Y0894033D01*
X0959603Y0894057D01*
X0959447Y0894085D01*
X0959292Y0894116D01*
X0959137Y0894152D01*
X0958984Y0894191D01*
X0958832Y0894234D01*
X0958681Y0894281D01*
X0958531Y0894332D01*
X0958382Y0894387D01*
X0958235Y0894445D01*
X0958089Y0894507D01*
X0957945Y0894572D01*
X0957803Y0894642D01*
X0957662Y0894714D01*
X0957523Y0894791D01*
X0957387Y0894870D01*
X0957252Y0894954D01*
X0957119Y0895040D01*
X0956989Y0895130D01*
X0956861Y0895223D01*
X0956735Y0895319D01*
X0956612Y0895419D01*
X0956491Y0895521D01*
X0956373Y0895626D01*
X0956258Y0895735D01*
X0956145Y0895846D01*
X0956035Y0895960D01*
X0955928Y0896077D01*
X0955824Y0896196D01*
X0955723Y0896318D01*
X0955626Y0896443D01*
X0955531Y0896570D01*
X0955440Y0896699D01*
X0955351Y0896830D01*
X0955267Y0896964D01*
X0955185Y0897100D01*
X0955107Y0897237D01*
X0955033Y0897377D01*
X0954962Y0897519D01*
X0954894Y0897662D01*
X0954830Y0897807D01*
X0954770Y0897953D01*
X0954714Y0898101D01*
X0954661Y0898250D01*
X0954612Y0898401D01*
X0954567Y0898553D01*
X0954526Y0898706D01*
X0954488Y0898859D01*
X0954455Y0899014D01*
X0954425Y0899170D01*
X0954399Y0899326D01*
X0954378Y0899483D01*
X0954360Y0899640D01*
X0954346Y0899798D01*
X0954336Y0899956D01*
X0954330Y0900114D01*
X0954328Y0900272D01*
X0954328Y0077437D02*
X0954330Y0077595D01*
X0954336Y0077753D01*
X0954346Y0077911D01*
X0954360Y0078069D01*
X0954378Y0078226D01*
X0954399Y0078383D01*
X0954425Y0078539D01*
X0954455Y0078695D01*
X0954488Y0078850D01*
X0954526Y0079003D01*
X0954567Y0079156D01*
X0954612Y0079308D01*
X0954661Y0079459D01*
X0954714Y0079608D01*
X0954770Y0079756D01*
X0954830Y0079902D01*
X0954894Y0080047D01*
X0954962Y0080190D01*
X0955033Y0080332D01*
X0955107Y0080472D01*
X0955185Y0080609D01*
X0955267Y0080745D01*
X0955351Y0080879D01*
X0955440Y0081010D01*
X0955531Y0081139D01*
X0955626Y0081266D01*
X0955723Y0081391D01*
X0955824Y0081513D01*
X0955928Y0081632D01*
X0956035Y0081749D01*
X0956145Y0081863D01*
X0956258Y0081974D01*
X0956373Y0082083D01*
X0956491Y0082188D01*
X0956612Y0082290D01*
X0956735Y0082390D01*
X0956861Y0082486D01*
X0956989Y0082579D01*
X0957119Y0082669D01*
X0957252Y0082755D01*
X0957387Y0082839D01*
X0957523Y0082918D01*
X0957662Y0082995D01*
X0957803Y0083067D01*
X0957945Y0083137D01*
X0958089Y0083202D01*
X0958235Y0083264D01*
X0958382Y0083322D01*
X0958531Y0083377D01*
X0958681Y0083428D01*
X0958832Y0083475D01*
X0958984Y0083518D01*
X0959137Y0083557D01*
X0959292Y0083593D01*
X0959447Y0083624D01*
X0959603Y0083652D01*
X0959759Y0083676D01*
X0959916Y0083696D01*
X0960074Y0083712D01*
X0960231Y0083724D01*
X0960390Y0083732D01*
X0960548Y0083736D01*
X0960706Y0083736D01*
X0960864Y0083732D01*
X0961023Y0083724D01*
X0961180Y0083712D01*
X0961338Y0083696D01*
X0961495Y0083676D01*
X0961651Y0083652D01*
X0961807Y0083624D01*
X0961962Y0083593D01*
X0962117Y0083557D01*
X0962270Y0083518D01*
X0962422Y0083475D01*
X0962573Y0083428D01*
X0962723Y0083377D01*
X0962872Y0083322D01*
X0963019Y0083264D01*
X0963165Y0083202D01*
X0963309Y0083137D01*
X0963451Y0083067D01*
X0963592Y0082995D01*
X0963731Y0082918D01*
X0963867Y0082839D01*
X0964002Y0082755D01*
X0964135Y0082669D01*
X0964265Y0082579D01*
X0964393Y0082486D01*
X0964519Y0082390D01*
X0964642Y0082290D01*
X0964763Y0082188D01*
X0964881Y0082083D01*
X0964996Y0081974D01*
X0965109Y0081863D01*
X0965219Y0081749D01*
X0965326Y0081632D01*
X0965430Y0081513D01*
X0965531Y0081391D01*
X0965628Y0081266D01*
X0965723Y0081139D01*
X0965814Y0081010D01*
X0965903Y0080879D01*
X0965987Y0080745D01*
X0966069Y0080609D01*
X0966147Y0080472D01*
X0966221Y0080332D01*
X0966292Y0080190D01*
X0966360Y0080047D01*
X0966424Y0079902D01*
X0966484Y0079756D01*
X0966540Y0079608D01*
X0966593Y0079459D01*
X0966642Y0079308D01*
X0966687Y0079156D01*
X0966728Y0079003D01*
X0966766Y0078850D01*
X0966799Y0078695D01*
X0966829Y0078539D01*
X0966855Y0078383D01*
X0966876Y0078226D01*
X0966894Y0078069D01*
X0966908Y0077911D01*
X0966918Y0077753D01*
X0966924Y0077595D01*
X0966926Y0077437D01*
X0966924Y0077279D01*
X0966918Y0077121D01*
X0966908Y0076963D01*
X0966894Y0076805D01*
X0966876Y0076648D01*
X0966855Y0076491D01*
X0966829Y0076335D01*
X0966799Y0076179D01*
X0966766Y0076024D01*
X0966728Y0075871D01*
X0966687Y0075718D01*
X0966642Y0075566D01*
X0966593Y0075415D01*
X0966540Y0075266D01*
X0966484Y0075118D01*
X0966424Y0074972D01*
X0966360Y0074827D01*
X0966292Y0074684D01*
X0966221Y0074542D01*
X0966147Y0074402D01*
X0966069Y0074265D01*
X0965987Y0074129D01*
X0965903Y0073995D01*
X0965814Y0073864D01*
X0965723Y0073735D01*
X0965628Y0073608D01*
X0965531Y0073483D01*
X0965430Y0073361D01*
X0965326Y0073242D01*
X0965219Y0073125D01*
X0965109Y0073011D01*
X0964996Y0072900D01*
X0964881Y0072791D01*
X0964763Y0072686D01*
X0964642Y0072584D01*
X0964519Y0072484D01*
X0964393Y0072388D01*
X0964265Y0072295D01*
X0964135Y0072205D01*
X0964002Y0072119D01*
X0963867Y0072035D01*
X0963731Y0071956D01*
X0963592Y0071879D01*
X0963451Y0071807D01*
X0963309Y0071737D01*
X0963165Y0071672D01*
X0963019Y0071610D01*
X0962872Y0071552D01*
X0962723Y0071497D01*
X0962573Y0071446D01*
X0962422Y0071399D01*
X0962270Y0071356D01*
X0962117Y0071317D01*
X0961962Y0071281D01*
X0961807Y0071250D01*
X0961651Y0071222D01*
X0961495Y0071198D01*
X0961338Y0071178D01*
X0961180Y0071162D01*
X0961023Y0071150D01*
X0960864Y0071142D01*
X0960706Y0071138D01*
X0960548Y0071138D01*
X0960390Y0071142D01*
X0960231Y0071150D01*
X0960074Y0071162D01*
X0959916Y0071178D01*
X0959759Y0071198D01*
X0959603Y0071222D01*
X0959447Y0071250D01*
X0959292Y0071281D01*
X0959137Y0071317D01*
X0958984Y0071356D01*
X0958832Y0071399D01*
X0958681Y0071446D01*
X0958531Y0071497D01*
X0958382Y0071552D01*
X0958235Y0071610D01*
X0958089Y0071672D01*
X0957945Y0071737D01*
X0957803Y0071807D01*
X0957662Y0071879D01*
X0957523Y0071956D01*
X0957387Y0072035D01*
X0957252Y0072119D01*
X0957119Y0072205D01*
X0956989Y0072295D01*
X0956861Y0072388D01*
X0956735Y0072484D01*
X0956612Y0072584D01*
X0956491Y0072686D01*
X0956373Y0072791D01*
X0956258Y0072900D01*
X0956145Y0073011D01*
X0956035Y0073125D01*
X0955928Y0073242D01*
X0955824Y0073361D01*
X0955723Y0073483D01*
X0955626Y0073608D01*
X0955531Y0073735D01*
X0955440Y0073864D01*
X0955351Y0073995D01*
X0955267Y0074129D01*
X0955185Y0074265D01*
X0955107Y0074402D01*
X0955033Y0074542D01*
X0954962Y0074684D01*
X0954894Y0074827D01*
X0954830Y0074972D01*
X0954770Y0075118D01*
X0954714Y0075266D01*
X0954661Y0075415D01*
X0954612Y0075566D01*
X0954567Y0075718D01*
X0954526Y0075871D01*
X0954488Y0076024D01*
X0954455Y0076179D01*
X0954425Y0076335D01*
X0954399Y0076491D01*
X0954378Y0076648D01*
X0954360Y0076805D01*
X0954346Y0076963D01*
X0954336Y0077121D01*
X0954330Y0077279D01*
X0954328Y0077437D01*
X0954330Y0077595D01*
X0954336Y0077753D01*
X0954346Y0077911D01*
X0954360Y0078069D01*
X0954378Y0078226D01*
X0954399Y0078383D01*
X0954425Y0078539D01*
X0954455Y0078695D01*
X0954488Y0078850D01*
X0954526Y0079003D01*
X0954567Y0079156D01*
X0954612Y0079308D01*
X0954661Y0079459D01*
X0954714Y0079608D01*
X0954770Y0079756D01*
X0954830Y0079902D01*
X0954894Y0080047D01*
X0954962Y0080190D01*
X0955033Y0080332D01*
X0955107Y0080472D01*
X0955185Y0080609D01*
X0955267Y0080745D01*
X0955351Y0080879D01*
X0955440Y0081010D01*
X0955531Y0081139D01*
X0955626Y0081266D01*
X0955723Y0081391D01*
X0955824Y0081513D01*
X0955928Y0081632D01*
X0956035Y0081749D01*
X0956145Y0081863D01*
X0956258Y0081974D01*
X0956373Y0082083D01*
X0956491Y0082188D01*
X0956612Y0082290D01*
X0956735Y0082390D01*
X0956861Y0082486D01*
X0956989Y0082579D01*
X0957119Y0082669D01*
X0957252Y0082755D01*
X0957387Y0082839D01*
X0957523Y0082918D01*
X0957662Y0082995D01*
X0957803Y0083067D01*
X0957945Y0083137D01*
X0958089Y0083202D01*
X0958235Y0083264D01*
X0958382Y0083322D01*
X0958531Y0083377D01*
X0958681Y0083428D01*
X0958832Y0083475D01*
X0958984Y0083518D01*
X0959137Y0083557D01*
X0959292Y0083593D01*
X0959447Y0083624D01*
X0959603Y0083652D01*
X0959759Y0083676D01*
X0959916Y0083696D01*
X0960074Y0083712D01*
X0960231Y0083724D01*
X0960390Y0083732D01*
X0960548Y0083736D01*
X0960706Y0083736D01*
X0960864Y0083732D01*
X0961023Y0083724D01*
X0961180Y0083712D01*
X0961338Y0083696D01*
X0961495Y0083676D01*
X0961651Y0083652D01*
X0961807Y0083624D01*
X0961962Y0083593D01*
X0962117Y0083557D01*
X0962270Y0083518D01*
X0962422Y0083475D01*
X0962573Y0083428D01*
X0962723Y0083377D01*
X0962872Y0083322D01*
X0963019Y0083264D01*
X0963165Y0083202D01*
X0963309Y0083137D01*
X0963451Y0083067D01*
X0963592Y0082995D01*
X0963731Y0082918D01*
X0963867Y0082839D01*
X0964002Y0082755D01*
X0964135Y0082669D01*
X0964265Y0082579D01*
X0964393Y0082486D01*
X0964519Y0082390D01*
X0964642Y0082290D01*
X0964763Y0082188D01*
X0964881Y0082083D01*
X0964996Y0081974D01*
X0965109Y0081863D01*
X0965219Y0081749D01*
X0965326Y0081632D01*
X0965430Y0081513D01*
X0965531Y0081391D01*
X0965628Y0081266D01*
X0965723Y0081139D01*
X0965814Y0081010D01*
X0965903Y0080879D01*
X0965987Y0080745D01*
X0966069Y0080609D01*
X0966147Y0080472D01*
X0966221Y0080332D01*
X0966292Y0080190D01*
X0966360Y0080047D01*
X0966424Y0079902D01*
X0966484Y0079756D01*
X0966540Y0079608D01*
X0966593Y0079459D01*
X0966642Y0079308D01*
X0966687Y0079156D01*
X0966728Y0079003D01*
X0966766Y0078850D01*
X0966799Y0078695D01*
X0966829Y0078539D01*
X0966855Y0078383D01*
X0966876Y0078226D01*
X0966894Y0078069D01*
X0966908Y0077911D01*
X0966918Y0077753D01*
X0966924Y0077595D01*
X0966926Y0077437D01*
X0966924Y0077279D01*
X0966918Y0077121D01*
X0966908Y0076963D01*
X0966894Y0076805D01*
X0966876Y0076648D01*
X0966855Y0076491D01*
X0966829Y0076335D01*
X0966799Y0076179D01*
X0966766Y0076024D01*
X0966728Y0075871D01*
X0966687Y0075718D01*
X0966642Y0075566D01*
X0966593Y0075415D01*
X0966540Y0075266D01*
X0966484Y0075118D01*
X0966424Y0074972D01*
X0966360Y0074827D01*
X0966292Y0074684D01*
X0966221Y0074542D01*
X0966147Y0074402D01*
X0966069Y0074265D01*
X0965987Y0074129D01*
X0965903Y0073995D01*
X0965814Y0073864D01*
X0965723Y0073735D01*
X0965628Y0073608D01*
X0965531Y0073483D01*
X0965430Y0073361D01*
X0965326Y0073242D01*
X0965219Y0073125D01*
X0965109Y0073011D01*
X0964996Y0072900D01*
X0964881Y0072791D01*
X0964763Y0072686D01*
X0964642Y0072584D01*
X0964519Y0072484D01*
X0964393Y0072388D01*
X0964265Y0072295D01*
X0964135Y0072205D01*
X0964002Y0072119D01*
X0963867Y0072035D01*
X0963731Y0071956D01*
X0963592Y0071879D01*
X0963451Y0071807D01*
X0963309Y0071737D01*
X0963165Y0071672D01*
X0963019Y0071610D01*
X0962872Y0071552D01*
X0962723Y0071497D01*
X0962573Y0071446D01*
X0962422Y0071399D01*
X0962270Y0071356D01*
X0962117Y0071317D01*
X0961962Y0071281D01*
X0961807Y0071250D01*
X0961651Y0071222D01*
X0961495Y0071198D01*
X0961338Y0071178D01*
X0961180Y0071162D01*
X0961023Y0071150D01*
X0960864Y0071142D01*
X0960706Y0071138D01*
X0960548Y0071138D01*
X0960390Y0071142D01*
X0960231Y0071150D01*
X0960074Y0071162D01*
X0959916Y0071178D01*
X0959759Y0071198D01*
X0959603Y0071222D01*
X0959447Y0071250D01*
X0959292Y0071281D01*
X0959137Y0071317D01*
X0958984Y0071356D01*
X0958832Y0071399D01*
X0958681Y0071446D01*
X0958531Y0071497D01*
X0958382Y0071552D01*
X0958235Y0071610D01*
X0958089Y0071672D01*
X0957945Y0071737D01*
X0957803Y0071807D01*
X0957662Y0071879D01*
X0957523Y0071956D01*
X0957387Y0072035D01*
X0957252Y0072119D01*
X0957119Y0072205D01*
X0956989Y0072295D01*
X0956861Y0072388D01*
X0956735Y0072484D01*
X0956612Y0072584D01*
X0956491Y0072686D01*
X0956373Y0072791D01*
X0956258Y0072900D01*
X0956145Y0073011D01*
X0956035Y0073125D01*
X0955928Y0073242D01*
X0955824Y0073361D01*
X0955723Y0073483D01*
X0955626Y0073608D01*
X0955531Y0073735D01*
X0955440Y0073864D01*
X0955351Y0073995D01*
X0955267Y0074129D01*
X0955185Y0074265D01*
X0955107Y0074402D01*
X0955033Y0074542D01*
X0954962Y0074684D01*
X0954894Y0074827D01*
X0954830Y0074972D01*
X0954770Y0075118D01*
X0954714Y0075266D01*
X0954661Y0075415D01*
X0954612Y0075566D01*
X0954567Y0075718D01*
X0954526Y0075871D01*
X0954488Y0076024D01*
X0954455Y0076179D01*
X0954425Y0076335D01*
X0954399Y0076491D01*
X0954378Y0076648D01*
X0954360Y0076805D01*
X0954346Y0076963D01*
X0954336Y0077121D01*
X0954330Y0077279D01*
X0954328Y0077437D01*
D11*
X0988186Y0102634D03*
X0988186Y0488461D03*
X0590548Y0488461D03*
X0590548Y0102634D03*
X0188973Y0102634D03*
X0188973Y0488461D03*
X0188973Y0874287D03*
X0590548Y0874287D03*
X0988186Y0874287D03*
D12*
X0120272Y0970429D03*
X0112005Y0970429D03*
D13*
X0082674Y0990823D03*
X0149603Y0990823D03*
D14*
X0119879Y1010508D03*
X0112398Y1010508D03*
D15*
X0082674Y0990823D02*
X0082674Y0941217D01*
X0072438Y0930980D01*
X0060627Y0930980D01*
X0149603Y0946728D02*
X0149603Y0990823D01*
X0149603Y0946728D02*
X0164564Y0931768D01*
X1006296Y0931768D01*
D16*
X0150390Y1000272D02*
X0149603Y1001059D01*
X0131493Y1001059D01*
X0129918Y1002634D01*
X0129918Y1007358D01*
X0126768Y1010508D01*
X0119879Y1010508D01*
X0112398Y1010508D02*
X0112398Y1002831D01*
X0114170Y1001059D01*
X0122831Y1001059D01*
X0125981Y0997909D01*
X0125981Y0971925D01*
X0124406Y0970350D01*
X0120351Y0970350D01*
X0120272Y0970429D01*
X0112005Y0970429D02*
X0105430Y0970429D01*
X0100784Y0975075D01*
X0092910Y0975075D01*
X0092123Y0975862D01*
X0089760Y0975862D01*
X0088973Y0975075D01*
D17*
X0059839Y0927043D02*
X0059839Y0490035D01*
X0170863Y0490035D01*
X0170863Y0486098D02*
X0055902Y0486098D01*
X0055902Y0927043D01*
X0338579Y0662476D02*
X0342516Y0662476D01*
X0342516Y0490035D01*
X0346453Y0490035D01*
X0346453Y0671138D01*
X0350390Y0671138D01*
X0350390Y0490035D01*
X0354327Y0490035D01*
X0354327Y0679799D01*
X0358264Y0679799D01*
X0358264Y0490035D01*
X0362201Y0490035D01*
X0362201Y0686886D01*
X0366138Y0686886D01*
X0366138Y0490035D01*
X0370075Y0490035D01*
X0370075Y0693185D01*
X0374012Y0693185D01*
X0374012Y0490035D01*
X0377949Y0490035D01*
X0377949Y0700272D01*
X0381886Y0700272D01*
X0381886Y0490035D01*
X0385823Y0490035D01*
X0385823Y0705783D01*
X0389760Y0705783D01*
X0389760Y0490035D01*
X0393698Y0490035D01*
X0393698Y0711295D01*
X0397635Y0711295D01*
X0397635Y0490035D01*
X0401572Y0490035D01*
X0401572Y0716020D01*
X0405509Y0716020D01*
X0405509Y0490035D01*
X0409446Y0490035D01*
X0409446Y0720744D01*
X0413383Y0720744D01*
X0413383Y0490035D01*
X0417320Y0490035D01*
X0417320Y0725469D01*
X0421257Y0725469D01*
X0421257Y0490035D01*
X0425194Y0490035D01*
X0425194Y0729406D01*
X0429131Y0729406D01*
X0429131Y0490035D01*
X0433068Y0490035D01*
X0433068Y0733343D01*
X0437005Y0733343D01*
X0437005Y0490035D01*
X0440942Y0490035D01*
X0440942Y0736492D01*
X0444879Y0736492D01*
X0444879Y0490035D01*
X0448816Y0490035D01*
X0448816Y0739642D01*
X0452753Y0739642D01*
X0452753Y0490035D01*
X0456690Y0490035D01*
X0456690Y0742791D01*
X0460627Y0742791D01*
X0460627Y0490035D01*
X0464564Y0490035D01*
X0464564Y0745154D01*
X0468501Y0745154D01*
X0468501Y0490035D01*
X0472438Y0490035D01*
X0472438Y0747516D01*
X0476375Y0747516D01*
X0476375Y0490035D01*
X0480312Y0490035D01*
X0480312Y0749091D01*
X0484249Y0749091D01*
X0484249Y0490035D01*
X0488186Y0490035D01*
X0488186Y0750665D01*
X0492123Y0750665D01*
X0492123Y0490035D01*
X0496060Y0490035D01*
X0496060Y0752240D01*
X0499997Y0752240D01*
X0499997Y0490035D01*
X0503934Y0490035D01*
X0503934Y0753815D01*
X0507871Y0753815D01*
X0507871Y0490035D01*
X0511808Y0490035D01*
X0511808Y0754602D01*
X0515745Y0754602D01*
X0515745Y0490035D01*
X0519682Y0490035D01*
X0519682Y0755390D01*
X0523619Y0755390D01*
X0523619Y0490035D01*
X0527556Y0490035D01*
X0527556Y0493972D01*
X0531493Y0493972D01*
X0531493Y0490035D01*
X0535430Y0490035D01*
X0535430Y0493972D01*
X0539367Y0493972D01*
X0539367Y0490035D01*
X0543304Y0490035D01*
X0543304Y0493972D01*
X0547241Y0493972D01*
X0547241Y0490035D01*
X0551178Y0490035D01*
X0551178Y0493972D01*
X0555115Y0493972D01*
X0555115Y0490035D01*
X0559052Y0490035D01*
X0559052Y0493972D01*
X0562989Y0493972D01*
X0562989Y0490035D01*
X0566926Y0490035D01*
X0566926Y0497909D01*
X0527556Y0497909D01*
X0527556Y0501846D01*
X0566926Y0501846D01*
X0566926Y0505783D01*
X0527556Y0505783D01*
X0527556Y0509720D01*
X0566926Y0509720D01*
X0566926Y0513657D01*
X0527556Y0513657D01*
X0527556Y0517594D01*
X0566926Y0517594D01*
X0566926Y0521531D01*
X0527556Y0521531D01*
X0527556Y0525469D01*
X0566926Y0525469D01*
X0566926Y0529406D01*
X0527556Y0529406D01*
X0527556Y0533343D01*
X0566926Y0533343D01*
X0566926Y0537280D01*
X0527556Y0537280D01*
X0527556Y0541217D01*
X0566926Y0541217D01*
X0566926Y0545154D01*
X0527556Y0545154D01*
X0527556Y0549091D01*
X0566926Y0549091D01*
X0566926Y0553028D01*
X0527556Y0553028D01*
X0527556Y0556965D01*
X0538579Y0556965D01*
X0536217Y0560902D01*
X0527556Y0560902D01*
X0527556Y0564839D01*
X0534642Y0564839D01*
X0534642Y0568776D01*
X0527556Y0568776D01*
X0527556Y0572713D01*
X0535430Y0572713D01*
X0536217Y0576650D01*
X0527556Y0576650D01*
X0527556Y0756177D01*
X0531493Y0756177D01*
X0531493Y0580587D01*
X0535430Y0580587D01*
X0535430Y0756177D01*
X0539367Y0756177D01*
X0539367Y0579012D01*
X0543304Y0581374D01*
X0543304Y0756965D01*
X0547241Y0756965D01*
X0547241Y0582161D01*
X0551178Y0582161D01*
X0551178Y0756965D01*
X0555115Y0756965D01*
X0555115Y0581374D01*
X0559052Y0579012D01*
X0559052Y0756965D01*
X0562989Y0756965D01*
X0562989Y0580587D01*
X0566926Y0580587D01*
X0566926Y0756177D01*
X0570863Y0756177D01*
X0570863Y0576650D01*
X0562201Y0576650D01*
X0563776Y0572713D01*
X0570863Y0572713D01*
X0570863Y0568776D01*
X0563776Y0568776D01*
X0563776Y0564839D01*
X0570863Y0564839D01*
X0570863Y0560902D01*
X0562201Y0560902D01*
X0559839Y0556965D01*
X0570863Y0556965D01*
X0570863Y0497909D01*
X0574800Y0497909D01*
X0574800Y0755390D01*
X0578737Y0755390D01*
X0578737Y0502634D01*
X0582674Y0504996D01*
X0582674Y0754602D01*
X0586611Y0754602D01*
X0586611Y0506571D01*
X0590548Y0506571D01*
X0590548Y0753815D01*
X0594485Y0753815D01*
X0594485Y0506571D01*
X0598422Y0504996D01*
X0598422Y0752240D01*
X0602359Y0752240D01*
X0602359Y0502634D01*
X0606296Y0497909D01*
X0606296Y0750665D01*
X0610233Y0750665D01*
X0610233Y0490035D01*
X0614170Y0490035D01*
X0614170Y0748303D01*
X0618107Y0748303D01*
X0618107Y0490035D01*
X0622044Y0490035D01*
X0622044Y0746728D01*
X0625981Y0746728D01*
X0625981Y0490035D01*
X0629918Y0490035D01*
X0629918Y0744366D01*
X0633855Y0744366D01*
X0633855Y0490035D01*
X0637792Y0490035D01*
X0637792Y0742004D01*
X0641729Y0742004D01*
X0641729Y0490035D01*
X0645666Y0490035D01*
X0645666Y0738854D01*
X0649603Y0738854D01*
X0649603Y0490035D01*
X0653540Y0490035D01*
X0653540Y0735705D01*
X0657477Y0735705D01*
X0657477Y0490035D01*
X0661414Y0490035D01*
X0661414Y0732555D01*
X0665351Y0732555D01*
X0665351Y0490035D01*
X0669288Y0490035D01*
X0669288Y0728618D01*
X0673225Y0728618D01*
X0673225Y0490035D01*
X0677162Y0490035D01*
X0677162Y0724681D01*
X0681099Y0724681D01*
X0681099Y0490035D01*
X0685036Y0490035D01*
X0685036Y0720744D01*
X0688973Y0720744D01*
X0688973Y0490035D01*
X0692910Y0490035D01*
X0692910Y0716020D01*
X0696847Y0716020D01*
X0696847Y0490035D01*
X0700784Y0490035D01*
X0700784Y0711295D01*
X0704721Y0711295D01*
X0704721Y0490035D01*
X0708658Y0490035D01*
X0708658Y0705783D01*
X0712595Y0705783D01*
X0712595Y0490035D01*
X0716532Y0490035D01*
X0716532Y0700272D01*
X0720469Y0700272D01*
X0720469Y0490035D01*
X0724406Y0490035D01*
X0724406Y0693972D01*
X0728343Y0693972D01*
X0728343Y0490035D01*
X0732280Y0490035D01*
X0732280Y0686886D01*
X0736217Y0686886D01*
X0736217Y0490035D01*
X0740154Y0490035D01*
X0740154Y0679012D01*
X0744091Y0679012D01*
X0744091Y0490035D01*
X0748028Y0490035D01*
X0748028Y0671138D01*
X0751965Y0671138D01*
X0751965Y0490035D01*
X0755902Y0490035D01*
X0755902Y0663264D01*
X0759839Y0663264D01*
X0759839Y0490035D01*
X0763776Y0490035D01*
X0763776Y0653815D01*
X0767713Y0653815D01*
X0767713Y0490035D01*
X0771650Y0490035D01*
X0771650Y0642791D01*
X0775587Y0642791D01*
X0775587Y0490035D01*
X0779524Y0490035D01*
X0779524Y0631768D01*
X0783461Y0631768D01*
X0783461Y0490035D01*
X0787398Y0490035D01*
X0787398Y0618382D01*
X0791335Y0618382D01*
X0791335Y0490035D01*
X0795272Y0490035D01*
X0795272Y0602634D01*
X0799209Y0602634D01*
X0799209Y0490035D01*
X0803146Y0490035D01*
X0803146Y0585311D01*
X0807083Y0585311D01*
X0807083Y0490035D01*
X0811020Y0490035D01*
X0811020Y0563264D01*
X0814957Y0563264D01*
X0814957Y0490035D01*
X0818894Y0490035D01*
X0818894Y0527043D01*
X0822831Y0527043D01*
X0822831Y0490035D01*
X0970075Y0490035D01*
X0970075Y0486098D02*
X0822831Y0486098D01*
X0822831Y0445941D01*
X0818894Y0445941D01*
X0818894Y0486098D01*
X0814957Y0486098D01*
X0814957Y0412870D01*
X0811020Y0412870D01*
X0811020Y0486098D01*
X0807083Y0486098D01*
X0807083Y0390823D01*
X0803146Y0390823D01*
X0803146Y0486098D01*
X0799209Y0486098D01*
X0799209Y0373500D01*
X0795272Y0373500D01*
X0795272Y0486098D01*
X0791335Y0486098D01*
X0791335Y0358539D01*
X0787398Y0358539D01*
X0787398Y0486098D01*
X0783461Y0486098D01*
X0783461Y0345154D01*
X0779524Y0345154D01*
X0779524Y0486098D01*
X0775587Y0486098D01*
X0775587Y0333343D01*
X0771650Y0333343D01*
X0771650Y0486098D01*
X0767713Y0486098D01*
X0767713Y0323106D01*
X0763776Y0323106D01*
X0763776Y0486098D01*
X0759839Y0486098D01*
X0759839Y0313657D01*
X0755902Y0313657D01*
X0755902Y0486098D01*
X0751965Y0486098D01*
X0751965Y0304996D01*
X0748028Y0304996D01*
X0748028Y0486098D01*
X0744091Y0486098D01*
X0744091Y0296335D01*
X0740154Y0296335D01*
X0740154Y0486098D01*
X0736217Y0486098D01*
X0736217Y0289248D01*
X0732280Y0289248D01*
X0732280Y0486098D01*
X0728343Y0486098D01*
X0728343Y0282949D01*
X0724406Y0282949D01*
X0724406Y0486098D01*
X0720469Y0486098D01*
X0720469Y0275862D01*
X0716532Y0275862D01*
X0716532Y0486098D01*
X0712595Y0486098D01*
X0712595Y0270350D01*
X0708658Y0270350D01*
X0708658Y0486098D01*
X0704721Y0486098D01*
X0704721Y0264839D01*
X0700784Y0264839D01*
X0700784Y0486098D01*
X0696847Y0486098D01*
X0696847Y0260114D01*
X0692910Y0260114D01*
X0692910Y0486098D01*
X0688973Y0486098D01*
X0688973Y0255390D01*
X0685036Y0255390D01*
X0685036Y0486098D01*
X0681099Y0486098D01*
X0681099Y0250665D01*
X0677162Y0250665D01*
X0677162Y0486098D01*
X0673225Y0486098D01*
X0673225Y0246728D01*
X0669288Y0246728D01*
X0669288Y0486098D01*
X0665351Y0486098D01*
X0665351Y0242791D01*
X0661414Y0242791D01*
X0661414Y0486098D01*
X0657477Y0486098D01*
X0657477Y0239642D01*
X0653540Y0239642D01*
X0653540Y0486098D01*
X0649603Y0486098D01*
X0649603Y0236492D01*
X0645666Y0236492D01*
X0645666Y0486098D01*
X0641729Y0486098D01*
X0641729Y0233343D01*
X0637792Y0233343D01*
X0637792Y0486098D01*
X0633855Y0486098D01*
X0633855Y0230980D01*
X0629918Y0230980D01*
X0629918Y0486098D01*
X0625981Y0486098D01*
X0625981Y0228618D01*
X0622044Y0228618D01*
X0622044Y0486098D01*
X0618107Y0486098D01*
X0618107Y0227043D01*
X0614170Y0227043D01*
X0614170Y0486098D01*
X0610233Y0486098D01*
X0610233Y0225469D01*
X0606296Y0225469D01*
X0606296Y0478224D01*
X0602359Y0474287D01*
X0602359Y0223894D01*
X0598422Y0223894D01*
X0598422Y0471138D01*
X0594485Y0470350D01*
X0594485Y0222319D01*
X0590548Y0222319D01*
X0590548Y0470350D01*
X0586611Y0470350D01*
X0586611Y0221531D01*
X0582674Y0221531D01*
X0582674Y0471138D01*
X0578737Y0474287D01*
X0578737Y0220744D01*
X0574800Y0220744D01*
X0574800Y0478224D01*
X0570863Y0478224D01*
X0570863Y0416807D01*
X0560627Y0416807D01*
X0562989Y0412870D01*
X0570863Y0412870D01*
X0570863Y0408933D01*
X0563776Y0408933D01*
X0563776Y0404996D01*
X0570863Y0404996D01*
X0570863Y0401059D01*
X0563776Y0401059D01*
X0562201Y0397122D01*
X0570863Y0397122D01*
X0570863Y0219957D01*
X0566926Y0219957D01*
X0566926Y0393185D01*
X0562989Y0393185D01*
X0562989Y0219957D01*
X0559052Y0219957D01*
X0559052Y0394760D01*
X0555115Y0392398D01*
X0555115Y0219169D01*
X0551178Y0219169D01*
X0551178Y0391610D01*
X0547241Y0391610D01*
X0547241Y0219169D01*
X0543304Y0219169D01*
X0543304Y0392398D01*
X0539367Y0394760D01*
X0539367Y0219169D01*
X0535430Y0219169D01*
X0535430Y0393185D01*
X0531493Y0393185D01*
X0531493Y0219957D01*
X0527556Y0219957D01*
X0527556Y0397122D01*
X0536217Y0397122D01*
X0534642Y0401059D01*
X0527556Y0401059D01*
X0527556Y0404996D01*
X0534642Y0404996D01*
X0534642Y0408933D01*
X0527556Y0408933D01*
X0527556Y0412870D01*
X0535430Y0412870D01*
X0538579Y0416807D01*
X0527556Y0416807D01*
X0527556Y0420744D01*
X0566926Y0420744D01*
X0566926Y0424681D01*
X0527556Y0424681D01*
X0527556Y0428618D01*
X0566926Y0428618D01*
X0566926Y0432555D01*
X0527556Y0432555D01*
X0527556Y0436492D01*
X0566926Y0436492D01*
X0566926Y0440429D01*
X0527556Y0440429D01*
X0527556Y0444366D01*
X0566926Y0444366D01*
X0566926Y0448303D01*
X0527556Y0448303D01*
X0527556Y0452240D01*
X0566926Y0452240D01*
X0566926Y0456177D01*
X0527556Y0456177D01*
X0527556Y0460114D01*
X0566926Y0460114D01*
X0566926Y0464051D01*
X0527556Y0464051D01*
X0527556Y0467988D01*
X0566926Y0467988D01*
X0566926Y0471925D01*
X0527556Y0471925D01*
X0527556Y0475862D01*
X0566926Y0475862D01*
X0566926Y0486098D01*
X0562989Y0486098D01*
X0562989Y0479799D01*
X0559052Y0479799D01*
X0559052Y0486098D01*
X0555115Y0486098D01*
X0555115Y0479799D01*
X0551178Y0479799D01*
X0551178Y0486098D01*
X0547241Y0486098D01*
X0547241Y0479799D01*
X0543304Y0479799D01*
X0543304Y0486098D01*
X0539367Y0486098D01*
X0539367Y0479799D01*
X0535430Y0479799D01*
X0535430Y0486098D01*
X0531493Y0486098D01*
X0531493Y0479799D01*
X0527556Y0479799D01*
X0527556Y0486098D01*
X0523619Y0486098D01*
X0523619Y0220744D01*
X0519682Y0220744D01*
X0519682Y0486098D01*
X0515745Y0486098D01*
X0515745Y0221531D01*
X0511808Y0221531D01*
X0511808Y0486098D01*
X0507871Y0486098D01*
X0507871Y0222319D01*
X0503934Y0222319D01*
X0503934Y0486098D01*
X0499997Y0486098D01*
X0499997Y0223894D01*
X0496060Y0223894D01*
X0496060Y0486098D01*
X0492123Y0486098D01*
X0492123Y0225469D01*
X0488186Y0225469D01*
X0488186Y0486098D01*
X0484249Y0486098D01*
X0484249Y0227831D01*
X0480312Y0227831D01*
X0480312Y0486098D01*
X0476375Y0486098D01*
X0476375Y0229406D01*
X0472438Y0229406D01*
X0472438Y0486098D01*
X0468501Y0486098D01*
X0468501Y0231768D01*
X0464564Y0231768D01*
X0464564Y0486098D01*
X0460627Y0486098D01*
X0460627Y0234130D01*
X0456690Y0234130D01*
X0456690Y0486098D01*
X0452753Y0486098D01*
X0452753Y0237280D01*
X0448816Y0237280D01*
X0448816Y0486098D01*
X0444879Y0486098D01*
X0444879Y0240429D01*
X0440942Y0240429D01*
X0440942Y0486098D01*
X0437005Y0486098D01*
X0437005Y0243579D01*
X0433068Y0243579D01*
X0433068Y0486098D01*
X0429131Y0486098D01*
X0429131Y0247516D01*
X0425194Y0247516D01*
X0425194Y0486098D01*
X0421257Y0486098D01*
X0421257Y0251453D01*
X0417320Y0251453D01*
X0417320Y0486098D01*
X0413383Y0486098D01*
X0413383Y0255390D01*
X0409446Y0255390D01*
X0409446Y0486098D01*
X0405509Y0486098D01*
X0405509Y0260114D01*
X0401572Y0260114D01*
X0401572Y0486098D01*
X0397635Y0486098D01*
X0397635Y0264839D01*
X0393698Y0264839D01*
X0393698Y0486098D01*
X0389760Y0486098D01*
X0389760Y0270350D01*
X0385823Y0270350D01*
X0385823Y0486098D01*
X0381886Y0486098D01*
X0381886Y0275862D01*
X0377949Y0275862D01*
X0377949Y0486098D01*
X0374012Y0486098D01*
X0374012Y0282161D01*
X0370075Y0282161D01*
X0370075Y0486098D01*
X0366138Y0486098D01*
X0366138Y0289248D01*
X0362201Y0289248D01*
X0362201Y0486098D01*
X0358264Y0486098D01*
X0358264Y0297122D01*
X0354327Y0297122D01*
X0354327Y0486098D01*
X0350390Y0486098D01*
X0350390Y0304996D01*
X0346453Y0304996D01*
X0346453Y0486098D01*
X0342516Y0486098D01*
X0342516Y0312870D01*
X0338579Y0312870D01*
X0338579Y0486098D01*
X0334642Y0486098D01*
X0334642Y0322319D01*
X0330705Y0322319D01*
X0330705Y0486098D01*
X0326768Y0486098D01*
X0326768Y0333343D01*
X0322831Y0333343D01*
X0322831Y0486098D01*
X0318894Y0486098D01*
X0318894Y0344366D01*
X0314957Y0344366D01*
X0314957Y0486098D01*
X0311020Y0486098D01*
X0311020Y0357752D01*
X0307083Y0357752D01*
X0307083Y0486098D01*
X0303146Y0486098D01*
X0303146Y0373500D01*
X0299209Y0373500D01*
X0299209Y0486098D01*
X0295272Y0486098D01*
X0295272Y0390823D01*
X0291335Y0390823D01*
X0291335Y0486098D01*
X0287398Y0486098D01*
X0287398Y0412870D01*
X0283461Y0412870D01*
X0283461Y0486098D01*
X0279524Y0486098D01*
X0279524Y0449091D01*
X0275587Y0449091D01*
X0275587Y0486098D01*
X0207083Y0486098D01*
X0207083Y0490035D02*
X0275587Y0490035D01*
X0275587Y0530193D01*
X0279524Y0530193D01*
X0279524Y0490035D01*
X0283461Y0490035D01*
X0283461Y0563264D01*
X0287398Y0563264D01*
X0287398Y0490035D01*
X0291335Y0490035D01*
X0291335Y0585311D01*
X0295272Y0585311D01*
X0295272Y0490035D01*
X0299209Y0490035D01*
X0299209Y0602634D01*
X0303146Y0602634D01*
X0303146Y0490035D01*
X0307083Y0490035D01*
X0307083Y0617594D01*
X0311020Y0617594D01*
X0311020Y0490035D01*
X0314957Y0490035D01*
X0314957Y0630980D01*
X0318894Y0630980D01*
X0318894Y0490035D01*
X0322831Y0490035D01*
X0322831Y0642791D01*
X0326768Y0642791D01*
X0326768Y0490035D01*
X0330705Y0490035D01*
X0330705Y0653028D01*
X0334642Y0653028D01*
X0334642Y0490035D01*
X0338579Y0490035D01*
X0338579Y0662476D01*
X0190548Y0506571D02*
X0187398Y0506571D01*
X0187398Y0506570D02*
X0186998Y0506565D01*
X0186599Y0506551D01*
X0186200Y0506527D01*
X0185802Y0506493D01*
X0185405Y0506449D01*
X0185009Y0506396D01*
X0184614Y0506334D01*
X0184221Y0506262D01*
X0183830Y0506180D01*
X0183441Y0506090D01*
X0183054Y0505989D01*
X0182670Y0505880D01*
X0182288Y0505761D01*
X0181910Y0505633D01*
X0181535Y0505495D01*
X0181163Y0505349D01*
X0180795Y0505194D01*
X0180430Y0505030D01*
X0180070Y0504857D01*
X0179714Y0504676D01*
X0179362Y0504486D01*
X0179015Y0504288D01*
X0178673Y0504081D01*
X0178337Y0503866D01*
X0178005Y0503643D01*
X0177679Y0503412D01*
X0177359Y0503173D01*
X0177044Y0502927D01*
X0176736Y0502673D01*
X0176433Y0502412D01*
X0176137Y0502143D01*
X0175848Y0501867D01*
X0175566Y0501585D01*
X0175290Y0501296D01*
X0175021Y0501000D01*
X0174760Y0500697D01*
X0174506Y0500389D01*
X0174260Y0500074D01*
X0174021Y0499754D01*
X0173790Y0499428D01*
X0173567Y0499096D01*
X0173352Y0498760D01*
X0173145Y0498418D01*
X0172947Y0498071D01*
X0172757Y0497719D01*
X0172576Y0497363D01*
X0172403Y0497003D01*
X0172239Y0496638D01*
X0172084Y0496270D01*
X0171938Y0495898D01*
X0171800Y0495523D01*
X0171672Y0495145D01*
X0171553Y0494763D01*
X0171444Y0494379D01*
X0171343Y0493992D01*
X0171253Y0493603D01*
X0171171Y0493212D01*
X0171099Y0492819D01*
X0171037Y0492424D01*
X0170984Y0492028D01*
X0170940Y0491631D01*
X0170906Y0491233D01*
X0170882Y0490834D01*
X0170868Y0490435D01*
X0170863Y0490035D01*
X0170863Y0486098D02*
X0170868Y0485717D01*
X0170881Y0485337D01*
X0170904Y0484957D01*
X0170937Y0484578D01*
X0170978Y0484200D01*
X0171028Y0483823D01*
X0171088Y0483447D01*
X0171156Y0483072D01*
X0171234Y0482700D01*
X0171321Y0482329D01*
X0171416Y0481961D01*
X0171521Y0481595D01*
X0171634Y0481232D01*
X0171756Y0480871D01*
X0171886Y0480514D01*
X0172026Y0480160D01*
X0172173Y0479809D01*
X0172330Y0479462D01*
X0172494Y0479119D01*
X0172667Y0478780D01*
X0172848Y0478445D01*
X0173037Y0478114D01*
X0173234Y0477789D01*
X0173438Y0477468D01*
X0173651Y0477152D01*
X0173871Y0476842D01*
X0174098Y0476536D01*
X0174333Y0476237D01*
X0174575Y0475943D01*
X0174823Y0475655D01*
X0175079Y0475373D01*
X0175342Y0475098D01*
X0175611Y0474829D01*
X0175886Y0474566D01*
X0176168Y0474310D01*
X0176456Y0474062D01*
X0176750Y0473820D01*
X0177049Y0473585D01*
X0177355Y0473358D01*
X0177665Y0473138D01*
X0177981Y0472925D01*
X0178302Y0472721D01*
X0178627Y0472524D01*
X0178958Y0472335D01*
X0179293Y0472154D01*
X0179632Y0471981D01*
X0179975Y0471817D01*
X0180322Y0471660D01*
X0180673Y0471513D01*
X0181027Y0471373D01*
X0181384Y0471243D01*
X0181745Y0471121D01*
X0182108Y0471008D01*
X0182474Y0470903D01*
X0182842Y0470808D01*
X0183213Y0470721D01*
X0183585Y0470643D01*
X0183960Y0470575D01*
X0184336Y0470515D01*
X0184713Y0470465D01*
X0185091Y0470424D01*
X0185470Y0470391D01*
X0185850Y0470368D01*
X0186230Y0470355D01*
X0186611Y0470350D01*
X0191335Y0470350D01*
X0191716Y0470355D01*
X0192096Y0470368D01*
X0192476Y0470391D01*
X0192855Y0470424D01*
X0193233Y0470465D01*
X0193610Y0470515D01*
X0193986Y0470575D01*
X0194361Y0470643D01*
X0194733Y0470721D01*
X0195104Y0470808D01*
X0195472Y0470903D01*
X0195838Y0471008D01*
X0196201Y0471121D01*
X0196562Y0471243D01*
X0196919Y0471373D01*
X0197273Y0471513D01*
X0197624Y0471660D01*
X0197971Y0471817D01*
X0198314Y0471981D01*
X0198653Y0472154D01*
X0198988Y0472335D01*
X0199319Y0472524D01*
X0199644Y0472721D01*
X0199965Y0472925D01*
X0200281Y0473138D01*
X0200591Y0473358D01*
X0200897Y0473585D01*
X0201196Y0473820D01*
X0201490Y0474062D01*
X0201778Y0474310D01*
X0202060Y0474566D01*
X0202335Y0474829D01*
X0202604Y0475098D01*
X0202867Y0475373D01*
X0203123Y0475655D01*
X0203371Y0475943D01*
X0203613Y0476237D01*
X0203848Y0476536D01*
X0204075Y0476842D01*
X0204295Y0477152D01*
X0204508Y0477468D01*
X0204712Y0477789D01*
X0204909Y0478114D01*
X0205098Y0478445D01*
X0205279Y0478780D01*
X0205452Y0479119D01*
X0205616Y0479462D01*
X0205773Y0479809D01*
X0205920Y0480160D01*
X0206060Y0480514D01*
X0206190Y0480871D01*
X0206312Y0481232D01*
X0206425Y0481595D01*
X0206530Y0481961D01*
X0206625Y0482329D01*
X0206712Y0482700D01*
X0206790Y0483072D01*
X0206858Y0483447D01*
X0206918Y0483823D01*
X0206968Y0484200D01*
X0207009Y0484578D01*
X0207042Y0484957D01*
X0207065Y0485337D01*
X0207078Y0485717D01*
X0207083Y0486098D01*
X0207083Y0490035D02*
X0207078Y0490435D01*
X0207064Y0490834D01*
X0207040Y0491233D01*
X0207006Y0491631D01*
X0206962Y0492028D01*
X0206909Y0492424D01*
X0206847Y0492819D01*
X0206775Y0493212D01*
X0206693Y0493603D01*
X0206603Y0493992D01*
X0206502Y0494379D01*
X0206393Y0494763D01*
X0206274Y0495145D01*
X0206146Y0495523D01*
X0206008Y0495898D01*
X0205862Y0496270D01*
X0205707Y0496638D01*
X0205543Y0497003D01*
X0205370Y0497363D01*
X0205189Y0497719D01*
X0204999Y0498071D01*
X0204801Y0498418D01*
X0204594Y0498760D01*
X0204379Y0499096D01*
X0204156Y0499428D01*
X0203925Y0499754D01*
X0203686Y0500074D01*
X0203440Y0500389D01*
X0203186Y0500697D01*
X0202925Y0501000D01*
X0202656Y0501296D01*
X0202380Y0501585D01*
X0202098Y0501867D01*
X0201809Y0502143D01*
X0201513Y0502412D01*
X0201210Y0502673D01*
X0200902Y0502927D01*
X0200587Y0503173D01*
X0200267Y0503412D01*
X0199941Y0503643D01*
X0199609Y0503866D01*
X0199273Y0504081D01*
X0198931Y0504288D01*
X0198584Y0504486D01*
X0198232Y0504676D01*
X0197876Y0504857D01*
X0197516Y0505030D01*
X0197151Y0505194D01*
X0196783Y0505349D01*
X0196411Y0505495D01*
X0196036Y0505633D01*
X0195658Y0505761D01*
X0195276Y0505880D01*
X0194892Y0505989D01*
X0194505Y0506090D01*
X0194116Y0506180D01*
X0193725Y0506262D01*
X0193332Y0506334D01*
X0192937Y0506396D01*
X0192541Y0506449D01*
X0192144Y0506493D01*
X0191746Y0506527D01*
X0191347Y0506551D01*
X0190948Y0506565D01*
X0190548Y0506570D01*
X0970075Y0486098D02*
X0970080Y0485717D01*
X0970093Y0485337D01*
X0970116Y0484957D01*
X0970149Y0484578D01*
X0970190Y0484200D01*
X0970240Y0483823D01*
X0970300Y0483447D01*
X0970368Y0483072D01*
X0970446Y0482700D01*
X0970533Y0482329D01*
X0970628Y0481961D01*
X0970733Y0481595D01*
X0970846Y0481232D01*
X0970968Y0480871D01*
X0971098Y0480514D01*
X0971238Y0480160D01*
X0971385Y0479809D01*
X0971542Y0479462D01*
X0971706Y0479119D01*
X0971879Y0478780D01*
X0972060Y0478445D01*
X0972249Y0478114D01*
X0972446Y0477789D01*
X0972650Y0477468D01*
X0972863Y0477152D01*
X0973083Y0476842D01*
X0973310Y0476536D01*
X0973545Y0476237D01*
X0973787Y0475943D01*
X0974035Y0475655D01*
X0974291Y0475373D01*
X0974554Y0475098D01*
X0974823Y0474829D01*
X0975098Y0474566D01*
X0975380Y0474310D01*
X0975668Y0474062D01*
X0975962Y0473820D01*
X0976261Y0473585D01*
X0976567Y0473358D01*
X0976877Y0473138D01*
X0977193Y0472925D01*
X0977514Y0472721D01*
X0977839Y0472524D01*
X0978170Y0472335D01*
X0978505Y0472154D01*
X0978844Y0471981D01*
X0979187Y0471817D01*
X0979534Y0471660D01*
X0979885Y0471513D01*
X0980239Y0471373D01*
X0980596Y0471243D01*
X0980957Y0471121D01*
X0981320Y0471008D01*
X0981686Y0470903D01*
X0982054Y0470808D01*
X0982425Y0470721D01*
X0982797Y0470643D01*
X0983172Y0470575D01*
X0983548Y0470515D01*
X0983925Y0470465D01*
X0984303Y0470424D01*
X0984682Y0470391D01*
X0985062Y0470368D01*
X0985442Y0470355D01*
X0985823Y0470350D01*
X0990548Y0470350D01*
X0990929Y0470355D01*
X0991309Y0470368D01*
X0991689Y0470391D01*
X0992068Y0470424D01*
X0992446Y0470465D01*
X0992823Y0470515D01*
X0993199Y0470575D01*
X0993574Y0470643D01*
X0993946Y0470721D01*
X0994317Y0470808D01*
X0994685Y0470903D01*
X0995051Y0471008D01*
X0995414Y0471121D01*
X0995775Y0471243D01*
X0996132Y0471373D01*
X0996486Y0471513D01*
X0996837Y0471660D01*
X0997184Y0471817D01*
X0997527Y0471981D01*
X0997866Y0472154D01*
X0998201Y0472335D01*
X0998532Y0472524D01*
X0998857Y0472721D01*
X0999178Y0472925D01*
X0999494Y0473138D01*
X0999804Y0473358D01*
X1000110Y0473585D01*
X1000409Y0473820D01*
X1000703Y0474062D01*
X1000991Y0474310D01*
X1001273Y0474566D01*
X1001548Y0474829D01*
X1001817Y0475098D01*
X1002080Y0475373D01*
X1002336Y0475655D01*
X1002584Y0475943D01*
X1002826Y0476237D01*
X1003061Y0476536D01*
X1003288Y0476842D01*
X1003508Y0477152D01*
X1003721Y0477468D01*
X1003925Y0477789D01*
X1004122Y0478114D01*
X1004311Y0478445D01*
X1004492Y0478780D01*
X1004665Y0479119D01*
X1004829Y0479462D01*
X1004986Y0479809D01*
X1005133Y0480160D01*
X1005273Y0480514D01*
X1005403Y0480871D01*
X1005525Y0481232D01*
X1005638Y0481595D01*
X1005743Y0481961D01*
X1005838Y0482329D01*
X1005925Y0482700D01*
X1006003Y0483072D01*
X1006071Y0483447D01*
X1006131Y0483823D01*
X1006181Y0484200D01*
X1006222Y0484578D01*
X1006255Y0484957D01*
X1006278Y0485337D01*
X1006291Y0485717D01*
X1006296Y0486098D01*
X1030705Y0486098D01*
X1030705Y0926256D01*
X1022831Y0934130D01*
X1017320Y0934130D01*
X1017320Y0930193D02*
X1021257Y0930193D01*
X1026768Y0924681D01*
X1026768Y0490035D01*
X1006296Y0490035D01*
X1006295Y0490035D02*
X1006290Y0490435D01*
X1006276Y0490834D01*
X1006252Y0491233D01*
X1006218Y0491631D01*
X1006174Y0492028D01*
X1006121Y0492424D01*
X1006059Y0492819D01*
X1005987Y0493212D01*
X1005905Y0493603D01*
X1005815Y0493992D01*
X1005714Y0494379D01*
X1005605Y0494763D01*
X1005486Y0495145D01*
X1005358Y0495523D01*
X1005220Y0495898D01*
X1005074Y0496270D01*
X1004919Y0496638D01*
X1004755Y0497003D01*
X1004582Y0497363D01*
X1004401Y0497719D01*
X1004211Y0498071D01*
X1004013Y0498418D01*
X1003806Y0498760D01*
X1003591Y0499096D01*
X1003368Y0499428D01*
X1003137Y0499754D01*
X1002898Y0500074D01*
X1002652Y0500389D01*
X1002398Y0500697D01*
X1002137Y0501000D01*
X1001868Y0501296D01*
X1001592Y0501585D01*
X1001310Y0501867D01*
X1001021Y0502143D01*
X1000725Y0502412D01*
X1000422Y0502673D01*
X1000114Y0502927D01*
X0999799Y0503173D01*
X0999479Y0503412D01*
X0999153Y0503643D01*
X0998821Y0503866D01*
X0998485Y0504081D01*
X0998143Y0504288D01*
X0997796Y0504486D01*
X0997444Y0504676D01*
X0997088Y0504857D01*
X0996728Y0505030D01*
X0996363Y0505194D01*
X0995995Y0505349D01*
X0995623Y0505495D01*
X0995248Y0505633D01*
X0994870Y0505761D01*
X0994488Y0505880D01*
X0994104Y0505989D01*
X0993717Y0506090D01*
X0993328Y0506180D01*
X0992937Y0506262D01*
X0992544Y0506334D01*
X0992149Y0506396D01*
X0991753Y0506449D01*
X0991356Y0506493D01*
X0990958Y0506527D01*
X0990559Y0506551D01*
X0990160Y0506565D01*
X0989760Y0506570D01*
X0989760Y0506571D02*
X0986611Y0506571D01*
X0986611Y0506570D02*
X0986211Y0506565D01*
X0985812Y0506551D01*
X0985413Y0506527D01*
X0985015Y0506493D01*
X0984618Y0506449D01*
X0984222Y0506396D01*
X0983827Y0506334D01*
X0983434Y0506262D01*
X0983043Y0506180D01*
X0982654Y0506090D01*
X0982267Y0505989D01*
X0981883Y0505880D01*
X0981501Y0505761D01*
X0981123Y0505633D01*
X0980748Y0505495D01*
X0980376Y0505349D01*
X0980008Y0505194D01*
X0979643Y0505030D01*
X0979283Y0504857D01*
X0978927Y0504676D01*
X0978575Y0504486D01*
X0978228Y0504288D01*
X0977886Y0504081D01*
X0977550Y0503866D01*
X0977218Y0503643D01*
X0976892Y0503412D01*
X0976572Y0503173D01*
X0976257Y0502927D01*
X0975949Y0502673D01*
X0975646Y0502412D01*
X0975350Y0502143D01*
X0975061Y0501867D01*
X0974779Y0501585D01*
X0974503Y0501296D01*
X0974234Y0501000D01*
X0973973Y0500697D01*
X0973719Y0500389D01*
X0973473Y0500074D01*
X0973234Y0499754D01*
X0973003Y0499428D01*
X0972780Y0499096D01*
X0972565Y0498760D01*
X0972358Y0498418D01*
X0972160Y0498071D01*
X0971970Y0497719D01*
X0971789Y0497363D01*
X0971616Y0497003D01*
X0971452Y0496638D01*
X0971297Y0496270D01*
X0971151Y0495898D01*
X0971013Y0495523D01*
X0970885Y0495145D01*
X0970766Y0494763D01*
X0970657Y0494379D01*
X0970556Y0493992D01*
X0970466Y0493603D01*
X0970384Y0493212D01*
X0970312Y0492819D01*
X0970250Y0492424D01*
X0970197Y0492028D01*
X0970153Y0491631D01*
X0970119Y0491233D01*
X0970095Y0490834D01*
X0970081Y0490435D01*
X0970076Y0490035D01*
D18*
X0966138Y0493972D02*
X0929131Y0493972D01*
X0929131Y0572713D01*
X0925194Y0572713D01*
X0925194Y0493972D01*
X0921257Y0493972D01*
X0921257Y0601059D01*
X0917320Y0601059D01*
X0917320Y0493972D01*
X0913383Y0493972D01*
X0913383Y0601059D01*
X0909446Y0601059D01*
X0909446Y0493972D01*
X0905509Y0493972D01*
X0905509Y0645154D01*
X0901572Y0645154D01*
X0901572Y0493972D01*
X0897635Y0493972D01*
X0897635Y0645154D01*
X0893698Y0645154D01*
X0893698Y0493972D01*
X0889760Y0493972D01*
X0889760Y0686886D01*
X0885823Y0686886D01*
X0885823Y0493972D01*
X0881886Y0493972D01*
X0881886Y0686886D01*
X0877949Y0686886D01*
X0877949Y0493972D01*
X0874012Y0493972D01*
X0874012Y0708933D01*
X0870075Y0708933D01*
X0870075Y0493972D01*
X0866138Y0493972D01*
X0866138Y0721531D01*
X0862201Y0721531D01*
X0862201Y0493972D01*
X0858264Y0493972D01*
X0858264Y0722319D01*
X0854327Y0722319D01*
X0854327Y0493972D01*
X0850390Y0493972D01*
X0850390Y0722319D01*
X0846453Y0722319D01*
X0846453Y0493972D01*
X0842516Y0493972D01*
X0842516Y0744366D01*
X0838579Y0744366D01*
X0838579Y0493972D01*
X0834642Y0493972D01*
X0834642Y0758539D01*
X0830705Y0758539D01*
X0830705Y0493972D01*
X0826768Y0493972D01*
X0826768Y0758539D01*
X0822831Y0758539D01*
X0822831Y0530980D01*
X0818894Y0530980D01*
X0818894Y0758539D01*
X0814957Y0758539D01*
X0814957Y0567201D01*
X0811020Y0567201D01*
X0811020Y0779799D01*
X0807083Y0779799D01*
X0807083Y0589248D01*
X0803146Y0589248D01*
X0803146Y0780587D01*
X0799209Y0780587D01*
X0799209Y0606571D01*
X0795272Y0606571D01*
X0795272Y0787673D01*
X0791335Y0787673D01*
X0791335Y0622319D01*
X0787398Y0622319D01*
X0787398Y0793185D01*
X0783461Y0793185D01*
X0783461Y0635705D01*
X0779524Y0635705D01*
X0779524Y0804996D01*
X0775587Y0804996D01*
X0775587Y0646728D01*
X0771650Y0646728D01*
X0771650Y0804996D01*
X0767713Y0804996D01*
X0767713Y0657752D01*
X0763776Y0657752D01*
X0763776Y0810508D01*
X0759839Y0810508D01*
X0759839Y0667201D01*
X0755902Y0667201D01*
X0755902Y0820744D01*
X0751965Y0820744D01*
X0751965Y0675075D01*
X0748028Y0675075D01*
X0748028Y0820744D01*
X0744091Y0820744D01*
X0744091Y0682949D01*
X0740154Y0682949D01*
X0740154Y0823894D01*
X0736217Y0823894D01*
X0736217Y0690823D01*
X0732280Y0690823D01*
X0732280Y0829406D01*
X0728343Y0829406D01*
X0728343Y0697909D01*
X0724406Y0697909D01*
X0724406Y0837280D01*
X0720469Y0837280D01*
X0720469Y0704209D01*
X0716532Y0704209D01*
X0716532Y0837280D01*
X0712595Y0837280D01*
X0712595Y0709720D01*
X0708658Y0709720D01*
X0708658Y0840429D01*
X0704721Y0840429D01*
X0704721Y0715232D01*
X0700784Y0715232D01*
X0700784Y0846728D01*
X0696847Y0846728D01*
X0696847Y0719957D01*
X0692910Y0719957D01*
X0692910Y0847516D01*
X0688973Y0847516D01*
X0688973Y0724681D01*
X0685036Y0724681D01*
X0685036Y0850665D01*
X0681099Y0850665D01*
X0681099Y0728618D01*
X0677162Y0728618D01*
X0677162Y0853815D01*
X0673225Y0853815D01*
X0673225Y0732555D01*
X0669288Y0732555D01*
X0669288Y0859327D01*
X0665351Y0859327D01*
X0665351Y0736492D01*
X0661414Y0736492D01*
X0661414Y0859327D01*
X0657477Y0859327D01*
X0657477Y0739642D01*
X0653540Y0739642D01*
X0653540Y0861689D01*
X0649603Y0861689D01*
X0649603Y0742791D01*
X0645666Y0742791D01*
X0645666Y0864839D01*
X0641729Y0864839D01*
X0641729Y0745941D01*
X0637792Y0745941D01*
X0637792Y0865626D01*
X0633855Y0865626D01*
X0633855Y0748303D01*
X0629918Y0748303D01*
X0629918Y0867988D01*
X0625981Y0867988D01*
X0625981Y0750665D01*
X0622044Y0750665D01*
X0622044Y0868776D01*
X0618107Y0868776D01*
X0618107Y0752240D01*
X0614170Y0752240D01*
X0614170Y0868776D01*
X0610233Y0868776D01*
X0610233Y0754602D01*
X0606296Y0754602D01*
X0606296Y0862476D01*
X0602359Y0857752D01*
X0602359Y0756177D01*
X0598422Y0756177D01*
X0598422Y0856177D01*
X0594485Y0855390D01*
X0594485Y0757752D01*
X0590548Y0757752D01*
X0590548Y0855390D01*
X0586611Y0855390D01*
X0586611Y0758539D01*
X0582674Y0758539D01*
X0582674Y0856965D01*
X0578737Y0859327D01*
X0578737Y0759327D01*
X0574800Y0759327D01*
X0574800Y0861689D01*
X0570863Y0861689D01*
X0570863Y0760114D01*
X0566926Y0760114D01*
X0566926Y0861689D01*
X0562989Y0861689D01*
X0562989Y0760902D01*
X0559052Y0760902D01*
X0559052Y0865626D01*
X0574012Y0865626D01*
X0572438Y0869563D01*
X0559052Y0869563D01*
X0559052Y0873500D01*
X0572438Y0873500D01*
X0572438Y0877437D01*
X0555115Y0877437D01*
X0555115Y0760902D01*
X0551178Y0760902D01*
X0551178Y0877437D01*
X0547241Y0877437D01*
X0547241Y0760902D01*
X0543304Y0760902D01*
X0543304Y0877437D01*
X0539367Y0877437D01*
X0539367Y0760114D01*
X0535430Y0760114D01*
X0535430Y0876650D01*
X0531493Y0876650D01*
X0531493Y0760114D01*
X0527556Y0760114D01*
X0527556Y0875862D01*
X0523619Y0875862D01*
X0523619Y0759327D01*
X0519682Y0759327D01*
X0519682Y0875075D01*
X0515745Y0875075D01*
X0515745Y0758539D01*
X0511808Y0758539D01*
X0511808Y0875075D01*
X0507871Y0875075D01*
X0507871Y0757752D01*
X0503934Y0757752D01*
X0503934Y0871138D01*
X0499997Y0871138D01*
X0499997Y0756177D01*
X0496060Y0756177D01*
X0496060Y0871138D01*
X0492123Y0871138D01*
X0492123Y0754602D01*
X0488186Y0754602D01*
X0488186Y0871138D01*
X0484249Y0871138D01*
X0484249Y0753028D01*
X0480312Y0753028D01*
X0480312Y0870350D01*
X0476375Y0870350D01*
X0476375Y0751453D01*
X0472438Y0751453D01*
X0472438Y0866413D01*
X0468501Y0866413D01*
X0468501Y0749091D01*
X0464564Y0749091D01*
X0464564Y0866413D01*
X0460627Y0866413D01*
X0460627Y0746728D01*
X0456690Y0746728D01*
X0456690Y0866413D01*
X0452753Y0866413D01*
X0452753Y0743579D01*
X0448816Y0743579D01*
X0448816Y0855390D01*
X0444879Y0855390D01*
X0444879Y0740429D01*
X0440942Y0740429D01*
X0440942Y0855390D01*
X0437005Y0855390D01*
X0437005Y0737280D01*
X0433068Y0737280D01*
X0433068Y0855390D01*
X0429131Y0855390D01*
X0429131Y0733343D01*
X0425194Y0733343D01*
X0425194Y0854602D01*
X0421257Y0854602D01*
X0421257Y0729406D01*
X0417320Y0729406D01*
X0417320Y0847516D01*
X0413383Y0847516D01*
X0413383Y0724681D01*
X0409446Y0724681D01*
X0409446Y0847516D01*
X0405509Y0847516D01*
X0405509Y0719957D01*
X0401572Y0719957D01*
X0401572Y0847516D01*
X0397635Y0847516D01*
X0397635Y0715232D01*
X0393698Y0715232D01*
X0393698Y0832555D01*
X0389760Y0832555D01*
X0389760Y0709720D01*
X0385823Y0709720D01*
X0385823Y0832555D01*
X0381886Y0832555D01*
X0381886Y0704209D01*
X0377949Y0704209D01*
X0377949Y0832555D01*
X0374012Y0832555D01*
X0374012Y0697909D01*
X0370075Y0697909D01*
X0370075Y0832555D01*
X0366138Y0832555D01*
X0366138Y0690823D01*
X0362201Y0690823D01*
X0362201Y0827831D01*
X0358264Y0827831D01*
X0358264Y0683736D01*
X0354327Y0683736D01*
X0354327Y0827831D01*
X0350390Y0827831D01*
X0350390Y0675075D01*
X0346453Y0675075D01*
X0346453Y0827831D01*
X0342516Y0827831D01*
X0342516Y0667201D01*
X0338579Y0667201D01*
X0338579Y0810508D01*
X0334642Y0810508D01*
X0334642Y0657752D01*
X0330705Y0657752D01*
X0330705Y0799484D01*
X0326768Y0799484D01*
X0326768Y0646728D01*
X0322831Y0646728D01*
X0322831Y0798697D01*
X0318894Y0798697D01*
X0318894Y0635705D01*
X0314957Y0635705D01*
X0314957Y0797122D01*
X0311020Y0797122D01*
X0311020Y0622319D01*
X0307083Y0622319D01*
X0307083Y0780587D01*
X0303146Y0780587D01*
X0303146Y0606571D01*
X0299209Y0606571D01*
X0299209Y0780587D01*
X0295272Y0780587D01*
X0295272Y0589248D01*
X0291335Y0589248D01*
X0291335Y0780587D01*
X0287398Y0780587D01*
X0287398Y0567201D01*
X0283461Y0567201D01*
X0283461Y0749878D01*
X0279524Y0749878D01*
X0279524Y0534130D01*
X0275587Y0534130D01*
X0275587Y0749878D01*
X0271650Y0749878D01*
X0271650Y0493972D01*
X0267713Y0493972D01*
X0267713Y0749878D01*
X0263776Y0749878D01*
X0263776Y0493972D01*
X0259839Y0493972D01*
X0259839Y0749878D01*
X0255902Y0749878D01*
X0255902Y0493972D01*
X0251965Y0493972D01*
X0251965Y0711295D01*
X0248028Y0711295D01*
X0248028Y0493972D01*
X0244091Y0493972D01*
X0244091Y0711295D01*
X0240154Y0711295D01*
X0240154Y0493972D01*
X0236217Y0493972D01*
X0236217Y0711295D01*
X0232280Y0711295D01*
X0232280Y0493972D01*
X0228343Y0493972D01*
X0228343Y0673500D01*
X0224406Y0673500D01*
X0224406Y0493972D01*
X0220469Y0493972D01*
X0220469Y0673500D01*
X0216532Y0673500D01*
X0216532Y0493972D01*
X0212595Y0493972D01*
X0212595Y0673500D01*
X0208658Y0673500D01*
X0208658Y0500272D01*
X0204721Y0504996D01*
X0204721Y0673500D01*
X0200784Y0673500D01*
X0200784Y0508146D01*
X0196847Y0509720D01*
X0196847Y0645941D01*
X0192910Y0645941D01*
X0192910Y0510508D01*
X0188973Y0510508D01*
X0188973Y0623894D01*
X0185036Y0623894D01*
X0185036Y0510508D01*
X0181099Y0509720D01*
X0181099Y0623894D01*
X0177162Y0623894D01*
X0177162Y0508146D01*
X0173225Y0504996D01*
X0173225Y0575075D01*
X0169288Y0575075D01*
X0169288Y0498697D01*
X0164564Y0493972D01*
X0063776Y0493972D01*
X0063776Y0927043D01*
X0051965Y0927043D02*
X0051965Y0482161D01*
X0164564Y0482161D01*
X0169288Y0477437D01*
X0169288Y0401059D01*
X0173225Y0401059D01*
X0173225Y0471138D01*
X0177162Y0467988D01*
X0177162Y0352240D01*
X0181099Y0352240D01*
X0181099Y0467201D01*
X0185036Y0466413D01*
X0185036Y0352240D01*
X0188973Y0352240D01*
X0188973Y0466413D01*
X0192910Y0466413D01*
X0192910Y0330193D01*
X0196847Y0330193D01*
X0196847Y0467201D01*
X0200784Y0468776D01*
X0200784Y0302634D01*
X0204721Y0302634D01*
X0204721Y0471138D01*
X0208658Y0475862D01*
X0208658Y0302634D01*
X0212595Y0302634D01*
X0212595Y0482161D01*
X0216532Y0482161D01*
X0216532Y0302634D01*
X0220469Y0302634D01*
X0220469Y0482161D01*
X0224406Y0482161D01*
X0224406Y0302634D01*
X0228343Y0302634D01*
X0228343Y0482161D01*
X0232280Y0482161D01*
X0232280Y0264839D01*
X0236217Y0264839D01*
X0236217Y0482161D01*
X0240154Y0482161D01*
X0240154Y0264839D01*
X0244091Y0264839D01*
X0244091Y0482161D01*
X0248028Y0482161D01*
X0248028Y0264839D01*
X0251965Y0264839D01*
X0251965Y0482161D01*
X0255902Y0482161D01*
X0255902Y0226256D01*
X0259839Y0226256D01*
X0259839Y0482161D01*
X0263776Y0482161D01*
X0263776Y0226256D01*
X0267713Y0226256D01*
X0267713Y0482161D01*
X0271650Y0482161D01*
X0271650Y0226256D01*
X0275587Y0226256D01*
X0275587Y0445154D01*
X0279524Y0445154D01*
X0279524Y0226256D01*
X0283461Y0226256D01*
X0283461Y0408933D01*
X0287398Y0408933D01*
X0287398Y0195547D01*
X0291335Y0195547D01*
X0291335Y0386886D01*
X0295272Y0386886D01*
X0295272Y0195547D01*
X0299209Y0195547D01*
X0299209Y0369563D01*
X0303146Y0369563D01*
X0303146Y0195547D01*
X0307083Y0195547D01*
X0307083Y0353815D01*
X0311020Y0353815D01*
X0311020Y0179012D01*
X0314957Y0179012D01*
X0314957Y0340429D01*
X0318894Y0340429D01*
X0318894Y0177437D01*
X0322831Y0177437D01*
X0322831Y0329406D01*
X0326768Y0329406D01*
X0326768Y0176650D01*
X0330705Y0176650D01*
X0330705Y0318382D01*
X0334642Y0318382D01*
X0334642Y0165626D01*
X0338579Y0165626D01*
X0338579Y0308933D01*
X0342516Y0308933D01*
X0342516Y0148303D01*
X0346453Y0148303D01*
X0346453Y0301059D01*
X0350390Y0301059D01*
X0350390Y0148303D01*
X0354327Y0148303D01*
X0354327Y0293185D01*
X0358264Y0293185D01*
X0358264Y0148303D01*
X0362201Y0148303D01*
X0362201Y0285311D01*
X0366138Y0285311D01*
X0366138Y0143579D01*
X0370075Y0143579D01*
X0370075Y0278224D01*
X0374012Y0278224D01*
X0374012Y0143579D01*
X0377949Y0143579D01*
X0377949Y0271925D01*
X0381886Y0271925D01*
X0381886Y0143579D01*
X0385823Y0143579D01*
X0385823Y0266413D01*
X0389760Y0266413D01*
X0389760Y0143579D01*
X0393698Y0143579D01*
X0393698Y0260902D01*
X0397635Y0260902D01*
X0397635Y0128618D01*
X0401572Y0128618D01*
X0401572Y0256177D01*
X0405509Y0256177D01*
X0405509Y0128618D01*
X0409446Y0128618D01*
X0409446Y0251453D01*
X0413383Y0251453D01*
X0413383Y0128618D01*
X0417320Y0128618D01*
X0417320Y0247516D01*
X0421257Y0247516D01*
X0421257Y0121531D01*
X0425194Y0121531D01*
X0425194Y0243579D01*
X0429131Y0243579D01*
X0429131Y0120744D01*
X0433068Y0120744D01*
X0433068Y0239642D01*
X0437005Y0239642D01*
X0437005Y0120744D01*
X0440942Y0120744D01*
X0440942Y0236492D01*
X0444879Y0236492D01*
X0444879Y0120744D01*
X0448816Y0120744D01*
X0448816Y0233343D01*
X0452753Y0233343D01*
X0452753Y0109720D01*
X0456690Y0109720D01*
X0456690Y0230193D01*
X0460627Y0230193D01*
X0460627Y0109720D01*
X0464564Y0109720D01*
X0464564Y0227831D01*
X0468501Y0227831D01*
X0468501Y0109720D01*
X0472438Y0109720D01*
X0472438Y0225469D01*
X0476375Y0225469D01*
X0476375Y0105783D01*
X0480312Y0105783D01*
X0480312Y0223894D01*
X0484249Y0223894D01*
X0484249Y0104996D01*
X0488186Y0104996D01*
X0488186Y0221531D01*
X0492123Y0221531D01*
X0492123Y0104996D01*
X0496060Y0104996D01*
X0496060Y0219957D01*
X0499997Y0219957D01*
X0499997Y0104996D01*
X0503934Y0104996D01*
X0503934Y0218382D01*
X0507871Y0218382D01*
X0507871Y0101059D01*
X0511808Y0101059D01*
X0511808Y0217594D01*
X0515745Y0217594D01*
X0515745Y0101059D01*
X0519682Y0101059D01*
X0519682Y0216807D01*
X0523619Y0216807D01*
X0523619Y0100272D01*
X0527556Y0100272D01*
X0527556Y0216020D01*
X0531493Y0216020D01*
X0531493Y0099484D01*
X0535430Y0099484D01*
X0535430Y0215232D01*
X0539367Y0215232D01*
X0539367Y0098697D01*
X0543304Y0098697D01*
X0543304Y0215232D01*
X0547241Y0215232D01*
X0547241Y0098697D01*
X0551178Y0098697D01*
X0551178Y0215232D01*
X0555115Y0215232D01*
X0555115Y0098697D01*
X0572438Y0098697D01*
X0572438Y0102634D01*
X0559052Y0102634D01*
X0559052Y0106571D01*
X0572438Y0106571D01*
X0574012Y0110508D01*
X0559052Y0110508D01*
X0559052Y0112083D01*
X0559052Y0216020D01*
X0562989Y0216020D01*
X0562989Y0114445D01*
X0566926Y0114445D01*
X0566926Y0216020D01*
X0570863Y0216020D01*
X0570863Y0114445D01*
X0574800Y0114445D01*
X0574800Y0216807D01*
X0578737Y0216807D01*
X0578737Y0116807D01*
X0582674Y0119169D01*
X0582674Y0217594D01*
X0586611Y0217594D01*
X0586611Y0120744D01*
X0590548Y0120744D01*
X0590548Y0218382D01*
X0594485Y0218382D01*
X0594485Y0120744D01*
X0598422Y0119957D01*
X0598422Y0219957D01*
X0602359Y0219957D01*
X0602359Y0118382D01*
X0606296Y0113657D01*
X0606296Y0221531D01*
X0610233Y0221531D01*
X0610233Y0107358D01*
X0614170Y0107358D01*
X0614170Y0223106D01*
X0618107Y0223106D01*
X0618107Y0107358D01*
X0622044Y0107358D01*
X0622044Y0224681D01*
X0625981Y0224681D01*
X0625981Y0108146D01*
X0629918Y0108146D01*
X0629918Y0227043D01*
X0633855Y0227043D01*
X0633855Y0110508D01*
X0637792Y0110508D01*
X0637792Y0229406D01*
X0641729Y0229406D01*
X0641729Y0111295D01*
X0645666Y0111295D01*
X0645666Y0232555D01*
X0649603Y0232555D01*
X0649603Y0114445D01*
X0653540Y0114445D01*
X0653540Y0235705D01*
X0657477Y0235705D01*
X0657477Y0116807D01*
X0661414Y0116807D01*
X0661414Y0238854D01*
X0665351Y0238854D01*
X0665351Y0116807D01*
X0669288Y0116807D01*
X0669288Y0242791D01*
X0673225Y0242791D01*
X0673225Y0122319D01*
X0677162Y0122319D01*
X0677162Y0246728D01*
X0681099Y0246728D01*
X0681099Y0125469D01*
X0685036Y0125469D01*
X0685036Y0251453D01*
X0688973Y0251453D01*
X0688973Y0128618D01*
X0692910Y0128618D01*
X0692910Y0256177D01*
X0696847Y0256177D01*
X0696847Y0129406D01*
X0700784Y0129406D01*
X0700784Y0260902D01*
X0704721Y0260902D01*
X0704721Y0135705D01*
X0708658Y0135705D01*
X0708658Y0266413D01*
X0712595Y0266413D01*
X0712595Y0138854D01*
X0716532Y0138854D01*
X0716532Y0271925D01*
X0720469Y0271925D01*
X0720469Y0138854D01*
X0724406Y0138854D01*
X0724406Y0279012D01*
X0728343Y0279012D01*
X0728343Y0146728D01*
X0732280Y0146728D01*
X0732280Y0285311D01*
X0736217Y0285311D01*
X0736217Y0152240D01*
X0740154Y0152240D01*
X0740154Y0292398D01*
X0744091Y0292398D01*
X0744091Y0155390D01*
X0748028Y0155390D01*
X0748028Y0301059D01*
X0751965Y0301059D01*
X0751965Y0155390D01*
X0755902Y0155390D01*
X0755902Y0309720D01*
X0759839Y0309720D01*
X0759839Y0165626D01*
X0763776Y0165626D01*
X0763776Y0319169D01*
X0767713Y0319169D01*
X0767713Y0171138D01*
X0771650Y0171138D01*
X0771650Y0329406D01*
X0775587Y0329406D01*
X0775587Y0171138D01*
X0779524Y0171138D01*
X0779524Y0341217D01*
X0783461Y0341217D01*
X0783461Y0182949D01*
X0787398Y0182949D01*
X0787398Y0354602D01*
X0791335Y0354602D01*
X0791335Y0188461D01*
X0795272Y0188461D01*
X0795272Y0369563D01*
X0799209Y0369563D01*
X0799209Y0195547D01*
X0803146Y0195547D01*
X0803146Y0386886D01*
X0807083Y0386886D01*
X0807083Y0196335D01*
X0811020Y0196335D01*
X0811020Y0408933D01*
X0814957Y0408933D01*
X0814957Y0217594D01*
X0818894Y0217594D01*
X0818894Y0442004D01*
X0822831Y0442004D01*
X0822831Y0217594D01*
X0826768Y0217594D01*
X0826768Y0482161D01*
X0830705Y0482161D01*
X0830705Y0217594D01*
X0834642Y0217594D01*
X0834642Y0482161D01*
X0838579Y0482161D01*
X0838579Y0231768D01*
X0842516Y0231768D01*
X0842516Y0482161D01*
X0846453Y0482161D01*
X0846453Y0253815D01*
X0850390Y0253815D01*
X0850390Y0482161D01*
X0854327Y0482161D01*
X0854327Y0253815D01*
X0858264Y0253815D01*
X0858264Y0482161D01*
X0862201Y0482161D01*
X0862201Y0254602D01*
X0866138Y0254602D01*
X0866138Y0482161D01*
X0870075Y0482161D01*
X0870075Y0267201D01*
X0874012Y0267201D01*
X0874012Y0482161D01*
X0877949Y0482161D01*
X0877949Y0289248D01*
X0881886Y0289248D01*
X0881886Y0482161D01*
X0885823Y0482161D01*
X0885823Y0289248D01*
X0889760Y0289248D01*
X0889760Y0482161D01*
X0893698Y0482161D01*
X0893698Y0330980D01*
X0897635Y0330980D01*
X0897635Y0482161D01*
X0901572Y0482161D01*
X0901572Y0330980D01*
X0905509Y0330980D01*
X0905509Y0482161D01*
X0909446Y0482161D01*
X0909446Y0375075D01*
X0913383Y0375075D01*
X0913383Y0482161D01*
X0917320Y0482161D01*
X0917320Y0375075D01*
X0921257Y0375075D01*
X0921257Y0482161D01*
X0925194Y0482161D01*
X0925194Y0403421D01*
X0929131Y0403421D01*
X0929131Y0482161D01*
X0966138Y0482161D01*
X0966143Y0481780D01*
X0966156Y0481400D01*
X0966179Y0481020D01*
X0966212Y0480641D01*
X0966253Y0480263D01*
X0966303Y0479886D01*
X0966363Y0479510D01*
X0966431Y0479135D01*
X0966509Y0478763D01*
X0966596Y0478392D01*
X0966691Y0478024D01*
X0966796Y0477658D01*
X0966909Y0477295D01*
X0967031Y0476934D01*
X0967161Y0476577D01*
X0967301Y0476223D01*
X0967448Y0475872D01*
X0967605Y0475525D01*
X0967769Y0475182D01*
X0967942Y0474843D01*
X0968123Y0474508D01*
X0968312Y0474177D01*
X0968509Y0473852D01*
X0968713Y0473531D01*
X0968926Y0473215D01*
X0969146Y0472905D01*
X0969373Y0472599D01*
X0969608Y0472300D01*
X0969850Y0472006D01*
X0970098Y0471718D01*
X0970354Y0471436D01*
X0970617Y0471161D01*
X0970886Y0470892D01*
X0971161Y0470629D01*
X0971443Y0470373D01*
X0971731Y0470125D01*
X0972025Y0469883D01*
X0972324Y0469648D01*
X0972630Y0469421D01*
X0972940Y0469201D01*
X0973256Y0468988D01*
X0973577Y0468784D01*
X0973902Y0468587D01*
X0974233Y0468398D01*
X0974568Y0468217D01*
X0974907Y0468044D01*
X0975250Y0467880D01*
X0975597Y0467723D01*
X0975948Y0467576D01*
X0976302Y0467436D01*
X0976659Y0467306D01*
X0977020Y0467184D01*
X0977383Y0467071D01*
X0977749Y0466966D01*
X0978117Y0466871D01*
X0978488Y0466784D01*
X0978860Y0466706D01*
X0979235Y0466638D01*
X0979611Y0466578D01*
X0979988Y0466528D01*
X0980366Y0466487D01*
X0980745Y0466454D01*
X0981125Y0466431D01*
X0981505Y0466418D01*
X0981886Y0466413D01*
X0994485Y0466413D01*
X0994866Y0466418D01*
X0995246Y0466431D01*
X0995626Y0466454D01*
X0996005Y0466487D01*
X0996383Y0466528D01*
X0996760Y0466578D01*
X0997136Y0466638D01*
X0997511Y0466706D01*
X0997883Y0466784D01*
X0998254Y0466871D01*
X0998622Y0466966D01*
X0998988Y0467071D01*
X0999351Y0467184D01*
X0999712Y0467306D01*
X1000069Y0467436D01*
X1000423Y0467576D01*
X1000774Y0467723D01*
X1001121Y0467880D01*
X1001464Y0468044D01*
X1001803Y0468217D01*
X1002138Y0468398D01*
X1002469Y0468587D01*
X1002794Y0468784D01*
X1003115Y0468988D01*
X1003431Y0469201D01*
X1003741Y0469421D01*
X1004047Y0469648D01*
X1004346Y0469883D01*
X1004640Y0470125D01*
X1004928Y0470373D01*
X1005210Y0470629D01*
X1005485Y0470892D01*
X1005754Y0471161D01*
X1006017Y0471436D01*
X1006273Y0471718D01*
X1006521Y0472006D01*
X1006763Y0472300D01*
X1006998Y0472599D01*
X1007225Y0472905D01*
X1007445Y0473215D01*
X1007658Y0473531D01*
X1007862Y0473852D01*
X1008059Y0474177D01*
X1008248Y0474508D01*
X1008429Y0474843D01*
X1008602Y0475182D01*
X1008766Y0475525D01*
X1008923Y0475872D01*
X1009070Y0476223D01*
X1009210Y0476577D01*
X1009340Y0476934D01*
X1009462Y0477295D01*
X1009575Y0477658D01*
X1009680Y0478024D01*
X1009775Y0478392D01*
X1009862Y0478763D01*
X1009940Y0479135D01*
X1010008Y0479510D01*
X1010068Y0479886D01*
X1010118Y0480263D01*
X1010159Y0480641D01*
X1010192Y0481020D01*
X1010215Y0481400D01*
X1010228Y0481780D01*
X1010233Y0482161D01*
X1034642Y0482161D01*
X1034642Y0927831D01*
X1024406Y0938067D01*
X1017320Y0938067D01*
X1017320Y0926256D02*
X1019682Y0926256D01*
X1022831Y0923106D01*
X1022831Y0493972D01*
X1010233Y0493972D01*
X1010238Y0494362D01*
X1010233Y0494753D01*
X1010219Y0495143D01*
X1010196Y0495532D01*
X1010163Y0495921D01*
X1010121Y0496309D01*
X1010069Y0496696D01*
X1010008Y0497081D01*
X1009938Y0497465D01*
X1009858Y0497847D01*
X1009770Y0498227D01*
X1009672Y0498605D01*
X1009565Y0498980D01*
X1009449Y0499352D01*
X1009324Y0499722D01*
X1009190Y0500088D01*
X1009047Y0500452D01*
X1008896Y0500811D01*
X1008736Y0501167D01*
X1008567Y0501519D01*
X1008390Y0501867D01*
X1008205Y0502210D01*
X1008011Y0502549D01*
X1007809Y0502883D01*
X1007599Y0503212D01*
X1007382Y0503536D01*
X1007156Y0503854D01*
X1006923Y0504167D01*
X1006683Y0504474D01*
X1006435Y0504776D01*
X1006180Y0505071D01*
X1005917Y0505360D01*
X1005648Y0505642D01*
X1005372Y0505918D01*
X1005090Y0506188D01*
X1004801Y0506450D01*
X1004506Y0506705D01*
X1004205Y0506953D01*
X1003898Y0507194D01*
X1003585Y0507427D01*
X1003266Y0507653D01*
X1002943Y0507871D01*
X1002614Y0508080D01*
X1002280Y0508282D01*
X1001941Y0508476D01*
X1001598Y0508662D01*
X1001250Y0508839D01*
X1000899Y0509008D01*
X1000543Y0509168D01*
X1000183Y0509320D01*
X0999820Y0509462D01*
X0999454Y0509596D01*
X0999084Y0509722D01*
X0998712Y0509838D01*
X0998336Y0509945D01*
X0997959Y0510043D01*
X0997579Y0510132D01*
X0997197Y0510212D01*
X0996813Y0510282D01*
X0996428Y0510343D01*
X0996041Y0510395D01*
X0995653Y0510437D01*
X0995264Y0510470D01*
X0994875Y0510494D01*
X0994485Y0510508D01*
X0981886Y0510508D01*
X0981496Y0510494D01*
X0981107Y0510470D01*
X0980718Y0510437D01*
X0980330Y0510395D01*
X0979943Y0510343D01*
X0979558Y0510282D01*
X0979174Y0510212D01*
X0978792Y0510132D01*
X0978412Y0510043D01*
X0978035Y0509945D01*
X0977659Y0509838D01*
X0977287Y0509722D01*
X0976917Y0509596D01*
X0976551Y0509462D01*
X0976188Y0509320D01*
X0975828Y0509168D01*
X0975472Y0509008D01*
X0975121Y0508839D01*
X0974773Y0508662D01*
X0974430Y0508476D01*
X0974091Y0508282D01*
X0973757Y0508080D01*
X0973428Y0507871D01*
X0973105Y0507653D01*
X0972786Y0507427D01*
X0972473Y0507194D01*
X0972166Y0506953D01*
X0971865Y0506705D01*
X0971570Y0506450D01*
X0971281Y0506188D01*
X0970999Y0505918D01*
X0970723Y0505642D01*
X0970454Y0505360D01*
X0970191Y0505071D01*
X0969936Y0504776D01*
X0969688Y0504474D01*
X0969448Y0504167D01*
X0969215Y0503854D01*
X0968989Y0503536D01*
X0968772Y0503212D01*
X0968562Y0502883D01*
X0968360Y0502549D01*
X0968166Y0502210D01*
X0967981Y0501867D01*
X0967804Y0501519D01*
X0967635Y0501167D01*
X0967475Y0500811D01*
X0967324Y0500452D01*
X0967181Y0500088D01*
X0967047Y0499722D01*
X0966922Y0499352D01*
X0966806Y0498980D01*
X0966699Y0498605D01*
X0966601Y0498227D01*
X0966513Y0497847D01*
X0966433Y0497465D01*
X0966363Y0497081D01*
X0966302Y0496696D01*
X0966250Y0496309D01*
X0966208Y0495921D01*
X0966175Y0495532D01*
X0966152Y0495143D01*
X0966138Y0494753D01*
X0966133Y0494362D01*
X0966138Y0493972D01*
D19*
X0960627Y0475075D02*
X0966138Y0468776D01*
X0966138Y0115232D01*
X0971650Y0115232D01*
X0971650Y0464051D01*
X0977162Y0461689D01*
X0977162Y0118382D01*
X0982674Y0121531D01*
X0982674Y0461689D01*
X0988186Y0461689D01*
X0988186Y0121531D01*
X0993698Y0121531D01*
X0993698Y0461689D01*
X0999209Y0461689D01*
X0999209Y0119169D01*
X1004721Y0113657D01*
X1004721Y0461689D01*
X1010233Y0467201D01*
X1010233Y0069563D01*
X1004721Y0069563D01*
X1004721Y0091610D01*
X0999209Y0086098D01*
X0999209Y0069563D01*
X0993698Y0069563D01*
X0993698Y0083736D01*
X0988186Y0082949D01*
X0988186Y0069563D01*
X0982674Y0069563D01*
X0982674Y0083736D01*
X0977162Y0086886D01*
X0977162Y0064051D01*
X1015745Y0064051D01*
X1015745Y0477437D01*
X1021257Y0477437D01*
X1021257Y0074287D01*
X1026768Y0074287D01*
X1026768Y0477437D01*
X1032280Y0477437D01*
X1032280Y0074287D01*
X1037792Y0074287D01*
X1037792Y0478224D01*
X1039367Y0479799D02*
X1039367Y0930193D01*
X0955115Y0477437D02*
X0955115Y0093185D01*
X0970075Y0093185D01*
X0969288Y0098697D01*
X0960627Y0098697D01*
X0960627Y0104209D01*
X0969288Y0104209D01*
X0969288Y0109720D01*
X0960627Y0109720D01*
X0960627Y0475075D01*
X0955115Y0477437D02*
X0949603Y0477437D01*
X0949603Y0088461D01*
X0944091Y0088461D01*
X0944091Y0477437D01*
X0933855Y0477437D01*
X0933855Y0471925D01*
X0938579Y0471925D01*
X0938579Y0466413D01*
X0933855Y0466413D01*
X0933855Y0460902D01*
X0938579Y0460902D01*
X0938579Y0455390D01*
X0933855Y0455390D01*
X0933855Y0449878D01*
X0938579Y0449878D01*
X0938579Y0444366D01*
X0933855Y0444366D01*
X0933855Y0438854D01*
X0938579Y0438854D01*
X0938579Y0433343D01*
X0933855Y0433343D01*
X0933855Y0427831D01*
X0938579Y0427831D01*
X0938579Y0422319D01*
X0933855Y0422319D01*
X0933855Y0416807D01*
X0938579Y0416807D01*
X0938579Y0411295D01*
X0933855Y0411295D01*
X0933855Y0405783D01*
X0938579Y0405783D01*
X0938579Y0074287D01*
X0933068Y0074287D01*
X0933068Y0398697D01*
X0927556Y0398697D01*
X0927556Y0074287D01*
X0922044Y0074287D01*
X0922044Y0370350D01*
X0910233Y0370350D01*
X0910233Y0364839D01*
X0916532Y0364839D01*
X0916532Y0359327D01*
X0910233Y0359327D01*
X0910233Y0353815D01*
X0916532Y0353815D01*
X0916532Y0348303D01*
X0910233Y0348303D01*
X0910233Y0342791D01*
X0916532Y0342791D01*
X0916532Y0337280D01*
X0910233Y0337280D01*
X0910233Y0331768D01*
X0916532Y0331768D01*
X0916532Y0074287D01*
X0911020Y0074287D01*
X0911020Y0326256D01*
X0905509Y0326256D01*
X0905509Y0074287D01*
X0899997Y0074287D01*
X0899997Y0326256D01*
X0894485Y0326256D01*
X0894485Y0074287D01*
X0888973Y0074287D01*
X0888973Y0284524D01*
X0878737Y0284524D01*
X0878737Y0279012D01*
X0883461Y0279012D01*
X0883461Y0273500D01*
X0878737Y0273500D01*
X0878737Y0267988D01*
X0883461Y0267988D01*
X0883461Y0074287D01*
X0877949Y0074287D01*
X0877949Y0262476D01*
X0872438Y0262476D01*
X0872438Y0074287D01*
X0866926Y0074287D01*
X0866926Y0249878D01*
X0861414Y0249878D01*
X0861414Y0074287D01*
X0855902Y0074287D01*
X0855902Y0249091D01*
X0847241Y0249091D01*
X0847241Y0243579D01*
X0850390Y0243579D01*
X0850390Y0238067D01*
X0847241Y0238067D01*
X0847241Y0232555D01*
X0850390Y0232555D01*
X0850390Y0074287D01*
X0844879Y0074287D01*
X0844879Y0227043D01*
X0839367Y0227043D01*
X0839367Y0074287D01*
X0833855Y0074287D01*
X0833855Y0212870D01*
X0828343Y0212870D01*
X0828343Y0074287D01*
X0822831Y0074287D01*
X0822831Y0212870D01*
X0817320Y0212870D01*
X0817320Y0074287D01*
X0811808Y0074287D01*
X0811808Y0191610D01*
X0806296Y0191610D01*
X0806296Y0074287D01*
X0800784Y0074287D01*
X0800784Y0183736D01*
X0795272Y0183736D01*
X0795272Y0074287D01*
X0789760Y0074287D01*
X0789760Y0178224D01*
X0784249Y0178224D01*
X0784249Y0074287D01*
X0778737Y0074287D01*
X0778737Y0166413D01*
X0773225Y0166413D01*
X0773225Y0074287D01*
X0767713Y0074287D01*
X0767713Y0160902D01*
X0762201Y0160902D01*
X0762201Y0074287D01*
X0756690Y0074287D01*
X0756690Y0150665D01*
X0751178Y0150665D01*
X0751178Y0074287D01*
X0745666Y0074287D01*
X0745666Y0147516D01*
X0740154Y0147516D01*
X0740154Y0074287D01*
X0734642Y0074287D01*
X0734642Y0142004D01*
X0729131Y0142004D01*
X0729131Y0074287D01*
X0723619Y0074287D01*
X0723619Y0134130D01*
X0718107Y0134130D01*
X0718107Y0074287D01*
X0712595Y0074287D01*
X0712595Y0130980D01*
X0707083Y0130980D01*
X0707083Y0074287D01*
X0701572Y0074287D01*
X0701572Y0124681D01*
X0696060Y0124681D01*
X0696060Y0074287D01*
X0690548Y0074287D01*
X0690548Y0120744D01*
X0685036Y0120744D01*
X0685036Y0074287D01*
X0679524Y0074287D01*
X0679524Y0117594D01*
X0674012Y0117594D01*
X0674012Y0074287D01*
X0668501Y0074287D01*
X0668501Y0112083D01*
X0662989Y0112083D01*
X0662989Y0074287D01*
X0657477Y0074287D01*
X0657477Y0109720D01*
X0651965Y0109720D01*
X0651965Y0074287D01*
X0646453Y0074287D01*
X0646453Y0106571D01*
X0640942Y0106571D01*
X0640942Y0074287D01*
X0635430Y0074287D01*
X0635430Y0103421D01*
X0629918Y0103421D01*
X0629918Y0074287D01*
X0624406Y0074287D01*
X0624406Y0102634D01*
X0618894Y0102634D01*
X0618894Y0064051D01*
X0613383Y0064051D01*
X0613383Y0102634D01*
X0607871Y0093972D01*
X0607871Y0064051D01*
X0602359Y0064051D01*
X0602359Y0087673D01*
X0596847Y0083736D01*
X0596847Y0064051D01*
X0591335Y0064051D01*
X0591335Y0083736D01*
X0585823Y0083736D01*
X0585823Y0064051D01*
X0580312Y0064051D01*
X0580312Y0086098D01*
X0575587Y0089248D01*
X0574800Y0089248D01*
X0574800Y0064051D01*
X0569288Y0064051D01*
X0569288Y0093972D01*
X0563776Y0093972D01*
X0563776Y0064051D01*
X0558264Y0064051D01*
X0558264Y0093972D01*
X0552753Y0093972D01*
X0552753Y0074287D01*
X0547241Y0074287D01*
X0547241Y0093972D01*
X0541729Y0093972D01*
X0541729Y0074287D01*
X0536217Y0074287D01*
X0536217Y0094760D01*
X0530705Y0094760D01*
X0530705Y0074287D01*
X0525194Y0074287D01*
X0525194Y0095547D01*
X0519682Y0095547D01*
X0519682Y0074287D01*
X0514170Y0074287D01*
X0514170Y0096335D01*
X0508658Y0096335D01*
X0508658Y0074287D01*
X0503146Y0074287D01*
X0503146Y0100272D01*
X0497635Y0100272D01*
X0497635Y0074287D01*
X0492123Y0074287D01*
X0492123Y0100272D01*
X0486611Y0100272D01*
X0486611Y0074287D01*
X0481099Y0074287D01*
X0481099Y0101059D01*
X0475587Y0101059D01*
X0475587Y0074287D01*
X0470075Y0074287D01*
X0470075Y0104996D01*
X0464564Y0104996D01*
X0464564Y0074287D01*
X0459052Y0074287D01*
X0459052Y0104996D01*
X0453540Y0104996D01*
X0453540Y0074287D01*
X0448028Y0074287D01*
X0448028Y0116020D01*
X0442516Y0116020D01*
X0442516Y0074287D01*
X0437005Y0074287D01*
X0437005Y0116020D01*
X0431493Y0116020D01*
X0431493Y0074287D01*
X0425981Y0074287D01*
X0425981Y0116807D01*
X0420469Y0116807D01*
X0420469Y0074287D01*
X0414957Y0074287D01*
X0414957Y0123894D01*
X0409446Y0123894D01*
X0409446Y0074287D01*
X0403934Y0074287D01*
X0403934Y0123894D01*
X0398422Y0123894D01*
X0398422Y0074287D01*
X0392910Y0074287D01*
X0392910Y0138854D01*
X0387398Y0138854D01*
X0387398Y0074287D01*
X0381886Y0074287D01*
X0381886Y0138854D01*
X0376375Y0138854D01*
X0376375Y0074287D01*
X0370863Y0074287D01*
X0370863Y0138854D01*
X0365351Y0138854D01*
X0365351Y0074287D01*
X0359839Y0074287D01*
X0359839Y0143579D01*
X0354327Y0143579D01*
X0354327Y0074287D01*
X0348816Y0074287D01*
X0348816Y0143579D01*
X0343304Y0143579D01*
X0343304Y0074287D01*
X0337792Y0074287D01*
X0337792Y0160902D01*
X0332280Y0160902D01*
X0332280Y0074287D01*
X0326768Y0074287D01*
X0326768Y0171925D01*
X0321257Y0171925D01*
X0321257Y0074287D01*
X0315745Y0074287D01*
X0315745Y0173500D01*
X0310233Y0173500D01*
X0310233Y0074287D01*
X0304721Y0074287D01*
X0304721Y0190823D01*
X0299209Y0190823D01*
X0299209Y0074287D01*
X0293698Y0074287D01*
X0293698Y0190823D01*
X0288186Y0190823D01*
X0288186Y0074287D01*
X0282674Y0074287D01*
X0282674Y0221531D01*
X0277162Y0221531D01*
X0277162Y0074287D01*
X0271650Y0074287D01*
X0271650Y0221531D01*
X0266138Y0221531D01*
X0266138Y0074287D01*
X0260627Y0074287D01*
X0260627Y0221531D01*
X0255115Y0221531D01*
X0255115Y0074287D01*
X0249603Y0074287D01*
X0249603Y0260114D01*
X0244091Y0260114D01*
X0244091Y0074287D01*
X0238579Y0074287D01*
X0238579Y0260114D01*
X0233068Y0260114D01*
X0233068Y0074287D01*
X0227556Y0074287D01*
X0227556Y0297909D01*
X0222044Y0297909D01*
X0222044Y0067201D01*
X0192123Y0067201D01*
X0192123Y0072713D01*
X0216532Y0072713D01*
X0216532Y0078224D01*
X0192123Y0078224D01*
X0192123Y0083736D01*
X0216532Y0083736D01*
X0216532Y0090035D01*
X0203934Y0090035D01*
X0207083Y0095547D01*
X0216532Y0095547D01*
X0216532Y0101059D01*
X0207871Y0101059D01*
X0207871Y0106571D01*
X0216532Y0106571D01*
X0216532Y0297909D01*
X0211020Y0297909D01*
X0211020Y0112083D01*
X0205509Y0112083D01*
X0205509Y0297909D01*
X0199997Y0297909D01*
X0199997Y0118382D01*
X0194485Y0121531D01*
X0194485Y0325469D01*
X0188973Y0325469D01*
X0188973Y0122319D01*
X0183461Y0121531D01*
X0183461Y0330980D01*
X0188186Y0330980D01*
X0188186Y0336492D01*
X0183461Y0336492D01*
X0183461Y0342004D01*
X0188186Y0342004D01*
X0188186Y0347516D01*
X0177949Y0347516D01*
X0177949Y0118382D01*
X0172438Y0113657D01*
X0172438Y0396335D01*
X0166926Y0396335D01*
X0166926Y0105783D01*
X0170075Y0105783D01*
X0170075Y0100272D01*
X0166926Y0100272D01*
X0166926Y0094760D01*
X0170863Y0094760D01*
X0174012Y0089248D01*
X0166926Y0089248D01*
X0166926Y0083736D01*
X0186611Y0083736D01*
X0186611Y0078224D01*
X0166926Y0078224D01*
X0166926Y0072713D01*
X0186611Y0072713D01*
X0186611Y0067201D01*
X0152753Y0067201D01*
X0152753Y0072713D01*
X0161414Y0072713D01*
X0161414Y0078224D01*
X0152753Y0078224D01*
X0152753Y0083736D01*
X0161414Y0083736D01*
X0161414Y0477437D01*
X0155902Y0477437D01*
X0155902Y0089248D01*
X0150390Y0089248D01*
X0150390Y0477437D01*
X0144879Y0477437D01*
X0144879Y0091610D01*
X0139367Y0093185D01*
X0139367Y0477437D01*
X0133855Y0477437D01*
X0133855Y0093185D01*
X0128343Y0090035D01*
X0128343Y0477437D01*
X0122831Y0477437D01*
X0122831Y0074287D01*
X0117320Y0074287D01*
X0117320Y0477437D01*
X0111808Y0477437D01*
X0111808Y0074287D01*
X0106296Y0074287D01*
X0106296Y0477437D01*
X0100784Y0477437D01*
X0100784Y0074287D01*
X0095272Y0074287D01*
X0095272Y0477437D01*
X0089760Y0477437D01*
X0089760Y0074287D01*
X0084249Y0074287D01*
X0084249Y0477437D01*
X0078737Y0477437D01*
X0078737Y0074287D01*
X0073225Y0074287D01*
X0073225Y0477437D01*
X0067713Y0477437D01*
X0067713Y0074287D01*
X0062201Y0074287D01*
X0062201Y0477437D01*
X0056690Y0477437D01*
X0056690Y0074287D01*
X0051178Y0074287D01*
X0051178Y0475862D01*
D20*
X0068501Y0498697D02*
X0068501Y0504209D01*
X0078737Y0504209D01*
X0078737Y0509720D01*
X0068501Y0509720D01*
X0068501Y0515232D01*
X0078737Y0515232D01*
X0078737Y0520744D01*
X0068501Y0520744D01*
X0068501Y0526256D01*
X0078737Y0526256D01*
X0078737Y0531768D01*
X0068501Y0531768D01*
X0068501Y0537280D01*
X0078737Y0537280D01*
X0078737Y0542791D01*
X0068501Y0542791D01*
X0068501Y0548303D01*
X0078737Y0548303D01*
X0078737Y0553815D01*
X0068501Y0553815D01*
X0068501Y0559327D01*
X0078737Y0559327D01*
X0078737Y0564839D01*
X0068501Y0564839D01*
X0068501Y0570350D01*
X0078737Y0570350D01*
X0078737Y0575862D01*
X0068501Y0575862D01*
X0068501Y0581374D01*
X0078737Y0581374D01*
X0078737Y0586886D01*
X0068501Y0586886D01*
X0068501Y0592398D01*
X0078737Y0592398D01*
X0078737Y0597909D01*
X0068501Y0597909D01*
X0068501Y0603421D01*
X0078737Y0603421D01*
X0078737Y0608933D01*
X0068501Y0608933D01*
X0068501Y0614445D01*
X0078737Y0614445D01*
X0078737Y0619957D01*
X0068501Y0619957D01*
X0068501Y0625469D01*
X0078737Y0625469D01*
X0078737Y0630980D01*
X0068501Y0630980D01*
X0068501Y0636492D01*
X0078737Y0636492D01*
X0078737Y0642004D01*
X0068501Y0642004D01*
X0068501Y0647516D01*
X0078737Y0647516D01*
X0078737Y0653028D01*
X0068501Y0653028D01*
X0068501Y0658539D01*
X0078737Y0658539D01*
X0078737Y0664051D01*
X0068501Y0664051D01*
X0068501Y0669563D01*
X0078737Y0669563D01*
X0078737Y0675075D01*
X0068501Y0675075D01*
X0068501Y0680587D01*
X0078737Y0680587D01*
X0078737Y0686098D01*
X0068501Y0686098D01*
X0068501Y0691610D01*
X0078737Y0691610D01*
X0078737Y0697122D01*
X0068501Y0697122D01*
X0068501Y0702634D01*
X0078737Y0702634D01*
X0078737Y0708146D01*
X0068501Y0708146D01*
X0068501Y0713657D01*
X0078737Y0713657D01*
X0078737Y0719169D01*
X0068501Y0719169D01*
X0068501Y0724681D01*
X0078737Y0724681D01*
X0078737Y0730193D01*
X0068501Y0730193D01*
X0068501Y0735705D01*
X0078737Y0735705D01*
X0078737Y0741217D01*
X0068501Y0741217D01*
X0068501Y0746728D01*
X0078737Y0746728D01*
X0078737Y0752240D01*
X0068501Y0752240D01*
X0068501Y0757752D01*
X0078737Y0757752D01*
X0078737Y0763264D01*
X0068501Y0763264D01*
X0068501Y0768776D01*
X0078737Y0768776D01*
X0078737Y0774287D01*
X0068501Y0774287D01*
X0068501Y0779799D01*
X0078737Y0779799D01*
X0078737Y0785311D01*
X0068501Y0785311D01*
X0068501Y0790823D01*
X0078737Y0790823D01*
X0078737Y0796335D01*
X0068501Y0796335D01*
X0068501Y0801846D01*
X0078737Y0801846D01*
X0078737Y0807358D01*
X0068501Y0807358D01*
X0068501Y0812870D01*
X0078737Y0812870D01*
X0078737Y0818382D01*
X0068501Y0818382D01*
X0068501Y0823894D01*
X0078737Y0823894D01*
X0078737Y0829406D01*
X0068501Y0829406D01*
X0068501Y0834917D01*
X0078737Y0834917D01*
X0078737Y0840429D01*
X0068501Y0840429D01*
X0068501Y0845941D01*
X0078737Y0845941D01*
X0078737Y0851453D01*
X0068501Y0851453D01*
X0068501Y0856965D01*
X0078737Y0856965D01*
X0078737Y0862476D01*
X0068501Y0862476D01*
X0068501Y0867988D01*
X0078737Y0867988D01*
X0078737Y0873500D01*
X0068501Y0873500D01*
X0068501Y0879012D01*
X0078737Y0879012D01*
X0078737Y0884524D01*
X0068501Y0884524D01*
X0068501Y0890035D01*
X0078737Y0890035D01*
X0078737Y0895547D01*
X0068501Y0895547D01*
X0068501Y0901059D01*
X0078737Y0901059D01*
X0078737Y0906571D01*
X0068501Y0906571D01*
X0068501Y0916807D01*
X0084249Y0906571D02*
X0084249Y0498697D01*
X0068501Y0498697D01*
X0089760Y0498697D02*
X0089760Y0906571D01*
X0084249Y0906571D01*
X0095272Y0906571D02*
X0095272Y0498697D01*
X0089760Y0498697D01*
X0100784Y0498697D02*
X0100784Y0906571D01*
X0095272Y0906571D01*
X0106296Y0906571D02*
X0106296Y0498697D01*
X0100784Y0498697D01*
X0111808Y0498697D02*
X0111808Y0906571D01*
X0106296Y0906571D01*
X0117320Y0906571D02*
X0122831Y0906571D01*
X0122831Y0498697D01*
X0128343Y0498697D01*
X0128343Y0886098D01*
X0133855Y0882949D01*
X0133855Y0498697D01*
X0139367Y0498697D01*
X0139367Y0882949D01*
X0144879Y0884524D01*
X0144879Y0498697D01*
X0150390Y0498697D01*
X0150390Y0886886D01*
X0155902Y0886886D01*
X0155902Y0498697D01*
X0161414Y0498697D01*
X0161414Y0892398D01*
X0152753Y0892398D01*
X0152753Y0897909D01*
X0161414Y0897909D01*
X0161414Y0903421D01*
X0152753Y0903421D01*
X0152753Y0908933D01*
X0186611Y0908933D01*
X0186611Y0903421D01*
X0166926Y0903421D01*
X0166926Y0897909D01*
X0186611Y0897909D01*
X0182674Y0892398D01*
X0166926Y0892398D01*
X0166926Y0886886D01*
X0174012Y0886886D01*
X0170863Y0881374D01*
X0166926Y0881374D01*
X0166926Y0875862D01*
X0170075Y0875862D01*
X0170075Y0870350D01*
X0166926Y0870350D01*
X0166926Y0579799D01*
X0172438Y0579799D01*
X0172438Y0862476D01*
X0177949Y0857752D01*
X0177949Y0628618D01*
X0188186Y0628618D01*
X0188186Y0634130D01*
X0183461Y0634130D01*
X0183461Y0639642D01*
X0188186Y0639642D01*
X0188186Y0645154D01*
X0183461Y0645154D01*
X0183461Y0854602D01*
X0188973Y0853815D01*
X0188973Y0650665D01*
X0194485Y0650665D01*
X0194485Y0854602D01*
X0199997Y0857752D01*
X0199997Y0678224D01*
X0205509Y0678224D01*
X0205509Y0864051D01*
X0211020Y0864051D01*
X0211020Y0678224D01*
X0216532Y0678224D01*
X0216532Y0869563D01*
X0207871Y0869563D01*
X0207871Y0875075D01*
X0216532Y0875075D01*
X0216532Y0880587D01*
X0207083Y0880587D01*
X0203934Y0886098D01*
X0216532Y0886098D01*
X0216532Y0892398D01*
X0195272Y0892398D01*
X0192123Y0897909D01*
X0216532Y0897909D01*
X0216532Y0903421D01*
X0192123Y0903421D01*
X0192123Y0908933D01*
X0222044Y0908933D01*
X0222044Y0678224D01*
X0227556Y0678224D01*
X0227556Y0912083D01*
X0233068Y0912083D01*
X0233068Y0716020D01*
X0238579Y0716020D01*
X0238579Y0912083D01*
X0244091Y0912083D01*
X0244091Y0716020D01*
X0249603Y0716020D01*
X0249603Y0912083D01*
X0255115Y0912083D01*
X0255115Y0754602D01*
X0260627Y0754602D01*
X0260627Y0912083D01*
X0266138Y0912083D01*
X0266138Y0754602D01*
X0271650Y0754602D01*
X0271650Y0912083D01*
X0277162Y0912083D01*
X0277162Y0754602D01*
X0282674Y0754602D01*
X0282674Y0912083D01*
X0288186Y0912083D01*
X0288186Y0785311D01*
X0293698Y0785311D01*
X0293698Y0912083D01*
X0299209Y0912083D01*
X0299209Y0785311D01*
X0304721Y0785311D01*
X0304721Y0912083D01*
X0310233Y0912083D01*
X0310233Y0802634D01*
X0315745Y0802634D01*
X0315745Y0912083D01*
X0321257Y0912083D01*
X0321257Y0804209D01*
X0326768Y0804209D01*
X0326768Y0912083D01*
X0332280Y0912083D01*
X0332280Y0815232D01*
X0337792Y0815232D01*
X0337792Y0912083D01*
X0343304Y0912083D01*
X0343304Y0832555D01*
X0348816Y0832555D01*
X0348816Y0912083D01*
X0354327Y0912083D01*
X0354327Y0832555D01*
X0359839Y0832555D01*
X0359839Y0912083D01*
X0365351Y0912083D01*
X0365351Y0837280D01*
X0370863Y0837280D01*
X0370863Y0912083D01*
X0376375Y0912083D01*
X0376375Y0837280D01*
X0381886Y0837280D01*
X0381886Y0912083D01*
X0387398Y0912083D01*
X0387398Y0837280D01*
X0392910Y0837280D01*
X0392910Y0912083D01*
X0398422Y0912083D01*
X0398422Y0852240D01*
X0403934Y0852240D01*
X0403934Y0912083D01*
X0409446Y0912083D01*
X0409446Y0852240D01*
X0414957Y0852240D01*
X0414957Y0912083D01*
X0420469Y0912083D01*
X0420469Y0859327D01*
X0425981Y0859327D01*
X0425981Y0912083D01*
X0431493Y0912083D01*
X0431493Y0860114D01*
X0437005Y0860114D01*
X0437005Y0912083D01*
X0442516Y0912083D01*
X0442516Y0860114D01*
X0448028Y0860114D01*
X0448028Y0912083D01*
X0453540Y0912083D01*
X0453540Y0871138D01*
X0459052Y0871138D01*
X0459052Y0912083D01*
X0464564Y0912083D01*
X0464564Y0871138D01*
X0470075Y0871138D01*
X0470075Y0912083D01*
X0475587Y0912083D01*
X0475587Y0875075D01*
X0481099Y0875075D01*
X0481099Y0912083D01*
X0486611Y0912083D01*
X0486611Y0875862D01*
X0492123Y0875862D01*
X0492123Y0912083D01*
X0497635Y0912083D01*
X0497635Y0875862D01*
X0503146Y0875862D01*
X0503146Y0912083D01*
X0508658Y0912083D01*
X0508658Y0879799D01*
X0514170Y0879799D01*
X0514170Y0912083D01*
X0519682Y0912083D01*
X0519682Y0880587D01*
X0525194Y0880587D01*
X0525194Y0912083D01*
X0530705Y0912083D01*
X0530705Y0881374D01*
X0536217Y0881374D01*
X0536217Y0912083D01*
X0541729Y0912083D01*
X0541729Y0882161D01*
X0547241Y0882161D01*
X0547241Y0912083D01*
X0552753Y0912083D01*
X0552753Y0882161D01*
X0558264Y0882161D01*
X0558264Y0912083D01*
X0563776Y0912083D01*
X0563776Y0882161D01*
X0569288Y0882161D01*
X0569288Y0912083D01*
X0574800Y0912083D01*
X0574800Y0886886D01*
X0575587Y0886886D01*
X0580312Y0890035D01*
X0580312Y0912083D01*
X0585823Y0912083D01*
X0585823Y0893185D01*
X0591335Y0893185D01*
X0591335Y0912083D01*
X0596847Y0912083D01*
X0596847Y0892398D01*
X0602359Y0889248D01*
X0602359Y0912083D01*
X0607871Y0912083D01*
X0607871Y0882161D01*
X0613383Y0873500D01*
X0613383Y0912083D01*
X0618894Y0912083D01*
X0618894Y0873500D01*
X0624406Y0873500D01*
X0624406Y0912083D01*
X0629918Y0912083D01*
X0629918Y0872713D01*
X0635430Y0872713D01*
X0635430Y0912083D01*
X0640942Y0912083D01*
X0640942Y0869563D01*
X0646453Y0869563D01*
X0646453Y0912083D01*
X0651965Y0912083D01*
X0651965Y0866413D01*
X0657477Y0866413D01*
X0657477Y0912083D01*
X0662989Y0912083D01*
X0662989Y0864051D01*
X0668501Y0864051D01*
X0668501Y0912083D01*
X0674012Y0912083D01*
X0674012Y0858539D01*
X0679524Y0858539D01*
X0679524Y0912083D01*
X0685036Y0912083D01*
X0685036Y0855390D01*
X0690548Y0855390D01*
X0690548Y0912083D01*
X0696060Y0912083D01*
X0696060Y0851453D01*
X0701572Y0851453D01*
X0701572Y0912083D01*
X0707083Y0912083D01*
X0707083Y0845154D01*
X0712595Y0845154D01*
X0712595Y0912083D01*
X0718107Y0912083D01*
X0718107Y0842004D01*
X0723619Y0842004D01*
X0723619Y0912083D01*
X0729131Y0912083D01*
X0729131Y0834130D01*
X0734642Y0834130D01*
X0734642Y0912083D01*
X0740154Y0912083D01*
X0740154Y0828618D01*
X0745666Y0828618D01*
X0745666Y0912083D01*
X0751178Y0912083D01*
X0751178Y0825469D01*
X0756690Y0825469D01*
X0756690Y0912083D01*
X0762201Y0912083D01*
X0762201Y0815232D01*
X0767713Y0815232D01*
X0767713Y0912083D01*
X0773225Y0912083D01*
X0773225Y0809720D01*
X0778737Y0809720D01*
X0778737Y0912083D01*
X0784249Y0912083D01*
X0784249Y0797909D01*
X0789760Y0797909D01*
X0789760Y0912083D01*
X0795272Y0912083D01*
X0795272Y0792398D01*
X0800784Y0792398D01*
X0800784Y0912083D01*
X0806296Y0912083D01*
X0806296Y0784524D01*
X0811808Y0784524D01*
X0811808Y0912083D01*
X0817320Y0912083D01*
X0817320Y0763264D01*
X0822831Y0763264D01*
X0822831Y0912083D01*
X0828343Y0912083D01*
X0828343Y0763264D01*
X0833855Y0763264D01*
X0833855Y0912083D01*
X0839367Y0912083D01*
X0839367Y0749091D01*
X0844879Y0749091D01*
X0844879Y0912083D01*
X0850390Y0912083D01*
X0850390Y0743579D01*
X0847241Y0743579D01*
X0847241Y0738067D01*
X0850390Y0738067D01*
X0850390Y0732555D01*
X0847241Y0732555D01*
X0847241Y0727043D01*
X0855902Y0727043D01*
X0855902Y0912083D01*
X0861414Y0912083D01*
X0861414Y0726256D01*
X0866926Y0726256D01*
X0866926Y0912083D01*
X0872438Y0912083D01*
X0872438Y0713657D01*
X0877949Y0713657D01*
X0877949Y0912083D01*
X0883461Y0912083D01*
X0883461Y0708146D01*
X0878737Y0708146D01*
X0878737Y0702634D01*
X0883461Y0702634D01*
X0883461Y0697122D01*
X0878737Y0697122D01*
X0878737Y0691610D01*
X0888973Y0691610D01*
X0888973Y0912083D01*
X0894485Y0912083D01*
X0894485Y0649878D01*
X0899997Y0649878D01*
X0899997Y0912083D01*
X0905509Y0912083D01*
X0905509Y0649878D01*
X0911020Y0649878D01*
X0911020Y0912083D01*
X0916532Y0912083D01*
X0916532Y0644366D01*
X0910233Y0644366D01*
X0910233Y0638854D01*
X0916532Y0638854D01*
X0916532Y0633343D01*
X0910233Y0633343D01*
X0910233Y0627831D01*
X0916532Y0627831D01*
X0916532Y0622319D01*
X0910233Y0622319D01*
X0910233Y0616807D01*
X0916532Y0616807D01*
X0916532Y0611295D01*
X0910233Y0611295D01*
X0910233Y0605783D01*
X0922044Y0605783D01*
X0922044Y0912083D01*
X0927556Y0912083D01*
X0927556Y0577437D01*
X0933068Y0577437D01*
X0933068Y0912083D01*
X0944879Y0912083D01*
X0944879Y0906571D01*
X0938579Y0906571D01*
X0938579Y0901059D01*
X0944879Y0901059D01*
X0944879Y0895547D01*
X0938579Y0895547D01*
X0938579Y0570350D01*
X0933855Y0570350D01*
X0933855Y0564839D01*
X0938579Y0564839D01*
X0938579Y0559327D01*
X0933855Y0559327D01*
X0933855Y0553815D01*
X0938579Y0553815D01*
X0938579Y0548303D01*
X0933855Y0548303D01*
X0933855Y0542791D01*
X0938579Y0542791D01*
X0938579Y0537280D01*
X0933855Y0537280D01*
X0933855Y0531768D01*
X0938579Y0531768D01*
X0938579Y0526256D01*
X0933855Y0526256D01*
X0933855Y0520744D01*
X0938579Y0520744D01*
X0938579Y0515232D01*
X0933855Y0515232D01*
X0933855Y0509720D01*
X0938579Y0509720D01*
X0938579Y0504209D01*
X0933855Y0504209D01*
X0933855Y0498697D01*
X0944091Y0498697D01*
X0944091Y0890035D01*
X0949603Y0889248D01*
X0949603Y0498697D01*
X0955115Y0498697D01*
X0955115Y0882949D01*
X0970075Y0882949D01*
X0969288Y0877437D01*
X0960627Y0877437D01*
X0960627Y0871925D01*
X0969288Y0871925D01*
X0969288Y0866413D01*
X0960627Y0866413D01*
X0960627Y0501059D01*
X0966138Y0508146D01*
X0966138Y0860902D01*
X0971650Y0860902D01*
X0971650Y0512870D01*
X0977162Y0515232D01*
X0977162Y0857752D01*
X0982674Y0854602D01*
X0982674Y0515232D01*
X0988186Y0515232D01*
X0988186Y0854602D01*
X0993698Y0854602D01*
X0993698Y0515232D01*
X0999209Y0515232D01*
X0999209Y0856965D01*
X1004721Y0862476D01*
X1004721Y0514445D01*
X1014170Y0504996D01*
X1018107Y0504996D01*
X1018107Y0514445D01*
X1012595Y0514445D01*
X1010233Y0516807D01*
X1010233Y0519957D01*
X1018107Y0519957D01*
X1018107Y0525469D01*
X1010233Y0525469D01*
X1010233Y0530980D01*
X1018107Y0530980D01*
X1018107Y0536492D01*
X1010233Y0536492D01*
X1010233Y0542004D01*
X1018107Y0542004D01*
X1018107Y0547516D01*
X1010233Y0547516D01*
X1010233Y0553028D01*
X1018107Y0553028D01*
X1018107Y0558539D01*
X1010233Y0558539D01*
X1010233Y0564051D01*
X1018107Y0564051D01*
X1018107Y0569563D01*
X1010233Y0569563D01*
X1010233Y0575075D01*
X1018107Y0575075D01*
X1018107Y0580587D01*
X1010233Y0580587D01*
X1010233Y0586098D01*
X1018107Y0586098D01*
X1018107Y0591610D01*
X1010233Y0591610D01*
X1010233Y0597122D01*
X1018107Y0597122D01*
X1018107Y0602634D01*
X1010233Y0602634D01*
X1010233Y0608146D01*
X1018107Y0608146D01*
X1018107Y0613657D01*
X1010233Y0613657D01*
X1010233Y0619169D01*
X1018107Y0619169D01*
X1018107Y0624681D01*
X1010233Y0624681D01*
X1010233Y0630193D01*
X1018107Y0630193D01*
X1018107Y0635705D01*
X1010233Y0635705D01*
X1010233Y0641217D01*
X1018107Y0641217D01*
X1018107Y0646728D01*
X1010233Y0646728D01*
X1010233Y0652240D01*
X1018107Y0652240D01*
X1018107Y0657752D01*
X1010233Y0657752D01*
X1010233Y0663264D01*
X1018107Y0663264D01*
X1018107Y0668776D01*
X1010233Y0668776D01*
X1010233Y0674287D01*
X1018107Y0674287D01*
X1018107Y0679799D01*
X1010233Y0679799D01*
X1010233Y0685311D01*
X1018107Y0685311D01*
X1018107Y0690823D01*
X1010233Y0690823D01*
X1010233Y0696335D01*
X1018107Y0696335D01*
X1018107Y0701846D01*
X1010233Y0701846D01*
X1010233Y0707358D01*
X1018107Y0707358D01*
X1018107Y0712870D01*
X1010233Y0712870D01*
X1010233Y0718382D01*
X1018107Y0718382D01*
X1018107Y0723894D01*
X1010233Y0723894D01*
X1010233Y0729406D01*
X1018107Y0729406D01*
X1018107Y0734917D01*
X1010233Y0734917D01*
X1010233Y0740429D01*
X1018107Y0740429D01*
X1018107Y0745941D01*
X1010233Y0745941D01*
X1010233Y0751453D01*
X1018107Y0751453D01*
X1018107Y0756965D01*
X1010233Y0756965D01*
X1010233Y0762476D01*
X1018107Y0762476D01*
X1018107Y0767988D01*
X1010233Y0767988D01*
X1010233Y0773500D01*
X1018107Y0773500D01*
X1018107Y0779012D01*
X1010233Y0779012D01*
X1010233Y0784524D01*
X1018107Y0784524D01*
X1018107Y0790035D01*
X1010233Y0790035D01*
X1010233Y0795547D01*
X1018107Y0795547D01*
X1018107Y0801059D01*
X1010233Y0801059D01*
X1010233Y0806571D01*
X1018107Y0806571D01*
X1018107Y0812083D01*
X1010233Y0812083D01*
X1010233Y0817594D01*
X1018107Y0817594D01*
X1018107Y0823106D01*
X1010233Y0823106D01*
X1010233Y0828618D01*
X1018107Y0828618D01*
X1018107Y0834130D01*
X1010233Y0834130D01*
X1010233Y0839642D01*
X1018107Y0839642D01*
X1018107Y0845154D01*
X1010233Y0845154D01*
X1010233Y0850665D01*
X1018107Y0850665D01*
X1018107Y0856177D01*
X1010233Y0856177D01*
X1010233Y0861689D01*
X1018107Y0861689D01*
X1018107Y0867201D01*
X1010233Y0867201D01*
X1010233Y0872713D01*
X1018107Y0872713D01*
X1018107Y0878224D01*
X1010233Y0878224D01*
X1010233Y0883736D01*
X1018107Y0883736D01*
X1018107Y0889248D01*
X1010233Y0889248D01*
X1010233Y0894760D01*
X1018107Y0894760D01*
X1018107Y0900272D01*
X1010233Y0900272D01*
X1010233Y0905783D01*
X1018107Y0905783D01*
X1018107Y0911295D01*
X1004721Y0911295D01*
X1004721Y0884524D01*
X0999209Y0890035D01*
X0999209Y0911295D01*
X0993698Y0911295D01*
X0993698Y0893185D01*
X0988186Y0893972D01*
X0988186Y0911295D01*
X0982674Y0911295D01*
X0982674Y0893185D01*
X0977162Y0890035D01*
X0977162Y0918382D01*
X0117320Y0906571D02*
X0117320Y0498697D01*
X0111808Y0498697D01*
D21*
X0051178Y0475862D02*
X0047241Y0479799D01*
X0047241Y0927831D01*
X1012595Y0942791D02*
X1026768Y0942791D01*
X1039367Y0930193D01*
X1039367Y0479799D02*
X1037792Y0478224D01*
M02*
