G75*
%MOIN*%
%OFA0B0*%
%FSLAX26Y26*%
%IPPOS*%
%LPD*%
%AMOC8*
5,1,8,0,0,1.08239X$1,22.5*
%
%ADD10C,0.000000*%
%ADD11C,0.016000*%
D10*
X-00118110Y00000000D02*
X-00118074Y00002899D01*
X-00117968Y00005795D01*
X-00117790Y00008689D01*
X-00117541Y00011577D01*
X-00117222Y00014458D01*
X-00116832Y00017330D01*
X-00116371Y00020192D01*
X-00115841Y00023042D01*
X-00115240Y00025878D01*
X-00114570Y00028698D01*
X-00113832Y00031501D01*
X-00113024Y00034286D01*
X-00112149Y00037049D01*
X-00111206Y00039790D01*
X-00110196Y00042507D01*
X-00109119Y00045199D01*
X-00107977Y00047863D01*
X-00106770Y00050499D01*
X-00105499Y00053104D01*
X-00104164Y00055677D01*
X-00102766Y00058216D01*
X-00101306Y00060721D01*
X-00099786Y00063189D01*
X-00098205Y00065618D01*
X-00096565Y00068009D01*
X-00094867Y00070358D01*
X-00093112Y00072665D01*
X-00091300Y00074928D01*
X-00089434Y00077146D01*
X-00087514Y00079318D01*
X-00085541Y00081442D01*
X-00083516Y00083516D01*
X-00081442Y00085541D01*
X-00079318Y00087514D01*
X-00077146Y00089434D01*
X-00074928Y00091300D01*
X-00072665Y00093112D01*
X-00070358Y00094867D01*
X-00068009Y00096565D01*
X-00065618Y00098205D01*
X-00063189Y00099786D01*
X-00060721Y00101306D01*
X-00058216Y00102766D01*
X-00055677Y00104164D01*
X-00053104Y00105499D01*
X-00050499Y00106770D01*
X-00047863Y00107977D01*
X-00045199Y00109119D01*
X-00042507Y00110196D01*
X-00039790Y00111206D01*
X-00037049Y00112149D01*
X-00034286Y00113024D01*
X-00031501Y00113832D01*
X-00028698Y00114570D01*
X-00025878Y00115240D01*
X-00023042Y00115841D01*
X-00020192Y00116371D01*
X-00017330Y00116832D01*
X-00014458Y00117222D01*
X-00011577Y00117541D01*
X-00008689Y00117790D01*
X-00005795Y00117968D01*
X-00002899Y00118074D01*
X00000000Y00118110D01*
X00002899Y00118074D01*
X00005795Y00117968D01*
X00008689Y00117790D01*
X00011577Y00117541D01*
X00014458Y00117222D01*
X00017330Y00116832D01*
X00020192Y00116371D01*
X00023042Y00115841D01*
X00025878Y00115240D01*
X00028698Y00114570D01*
X00031501Y00113832D01*
X00034286Y00113024D01*
X00037049Y00112149D01*
X00039790Y00111206D01*
X00042507Y00110196D01*
X00045199Y00109119D01*
X00047863Y00107977D01*
X00050499Y00106770D01*
X00053104Y00105499D01*
X00055677Y00104164D01*
X00058216Y00102766D01*
X00060721Y00101306D01*
X00063189Y00099786D01*
X00065618Y00098205D01*
X00068009Y00096565D01*
X00070358Y00094867D01*
X00072665Y00093112D01*
X00074928Y00091300D01*
X00077146Y00089434D01*
X00079318Y00087514D01*
X00081442Y00085541D01*
X00083516Y00083516D01*
X00085541Y00081442D01*
X00087514Y00079318D01*
X00089434Y00077146D01*
X00091300Y00074928D01*
X00093112Y00072665D01*
X00094867Y00070358D01*
X00096565Y00068009D01*
X00098205Y00065618D01*
X00099786Y00063189D01*
X00101306Y00060721D01*
X00102766Y00058216D01*
X00104164Y00055677D01*
X00105499Y00053104D01*
X00106770Y00050499D01*
X00107977Y00047863D01*
X00109119Y00045199D01*
X00110196Y00042507D01*
X00111206Y00039790D01*
X00112149Y00037049D01*
X00113024Y00034286D01*
X00113832Y00031501D01*
X00114570Y00028698D01*
X00115240Y00025878D01*
X00115841Y00023042D01*
X00116371Y00020192D01*
X00116832Y00017330D01*
X00117222Y00014458D01*
X00117541Y00011577D01*
X00117790Y00008689D01*
X00117968Y00005795D01*
X00118074Y00002899D01*
X00118110Y00000000D01*
X00118074Y-00002899D01*
X00117968Y-00005795D01*
X00117790Y-00008689D01*
X00117541Y-00011577D01*
X00117222Y-00014458D01*
X00116832Y-00017330D01*
X00116371Y-00020192D01*
X00115841Y-00023042D01*
X00115240Y-00025878D01*
X00114570Y-00028698D01*
X00113832Y-00031501D01*
X00113024Y-00034286D01*
X00112149Y-00037049D01*
X00111206Y-00039790D01*
X00110196Y-00042507D01*
X00109119Y-00045199D01*
X00107977Y-00047863D01*
X00106770Y-00050499D01*
X00105499Y-00053104D01*
X00104164Y-00055677D01*
X00102766Y-00058216D01*
X00101306Y-00060721D01*
X00099786Y-00063189D01*
X00098205Y-00065618D01*
X00096565Y-00068009D01*
X00094867Y-00070358D01*
X00093112Y-00072665D01*
X00091300Y-00074928D01*
X00089434Y-00077146D01*
X00087514Y-00079318D01*
X00085541Y-00081442D01*
X00083516Y-00083516D01*
X00081442Y-00085541D01*
X00079318Y-00087514D01*
X00077146Y-00089434D01*
X00074928Y-00091300D01*
X00072665Y-00093112D01*
X00070358Y-00094867D01*
X00068009Y-00096565D01*
X00065618Y-00098205D01*
X00063189Y-00099786D01*
X00060721Y-00101306D01*
X00058216Y-00102766D01*
X00055677Y-00104164D01*
X00053104Y-00105499D01*
X00050499Y-00106770D01*
X00047863Y-00107977D01*
X00045199Y-00109119D01*
X00042507Y-00110196D01*
X00039790Y-00111206D01*
X00037049Y-00112149D01*
X00034286Y-00113024D01*
X00031501Y-00113832D01*
X00028698Y-00114570D01*
X00025878Y-00115240D01*
X00023042Y-00115841D01*
X00020192Y-00116371D01*
X00017330Y-00116832D01*
X00014458Y-00117222D01*
X00011577Y-00117541D01*
X00008689Y-00117790D01*
X00005795Y-00117968D01*
X00002899Y-00118074D01*
X00000000Y-00118110D01*
X-00002899Y-00118074D01*
X-00005795Y-00117968D01*
X-00008689Y-00117790D01*
X-00011577Y-00117541D01*
X-00014458Y-00117222D01*
X-00017330Y-00116832D01*
X-00020192Y-00116371D01*
X-00023042Y-00115841D01*
X-00025878Y-00115240D01*
X-00028698Y-00114570D01*
X-00031501Y-00113832D01*
X-00034286Y-00113024D01*
X-00037049Y-00112149D01*
X-00039790Y-00111206D01*
X-00042507Y-00110196D01*
X-00045199Y-00109119D01*
X-00047863Y-00107977D01*
X-00050499Y-00106770D01*
X-00053104Y-00105499D01*
X-00055677Y-00104164D01*
X-00058216Y-00102766D01*
X-00060721Y-00101306D01*
X-00063189Y-00099786D01*
X-00065618Y-00098205D01*
X-00068009Y-00096565D01*
X-00070358Y-00094867D01*
X-00072665Y-00093112D01*
X-00074928Y-00091300D01*
X-00077146Y-00089434D01*
X-00079318Y-00087514D01*
X-00081442Y-00085541D01*
X-00083516Y-00083516D01*
X-00085541Y-00081442D01*
X-00087514Y-00079318D01*
X-00089434Y-00077146D01*
X-00091300Y-00074928D01*
X-00093112Y-00072665D01*
X-00094867Y-00070358D01*
X-00096565Y-00068009D01*
X-00098205Y-00065618D01*
X-00099786Y-00063189D01*
X-00101306Y-00060721D01*
X-00102766Y-00058216D01*
X-00104164Y-00055677D01*
X-00105499Y-00053104D01*
X-00106770Y-00050499D01*
X-00107977Y-00047863D01*
X-00109119Y-00045199D01*
X-00110196Y-00042507D01*
X-00111206Y-00039790D01*
X-00112149Y-00037049D01*
X-00113024Y-00034286D01*
X-00113832Y-00031501D01*
X-00114570Y-00028698D01*
X-00115240Y-00025878D01*
X-00115841Y-00023042D01*
X-00116371Y-00020192D01*
X-00116832Y-00017330D01*
X-00117222Y-00014458D01*
X-00117541Y-00011577D01*
X-00117790Y-00008689D01*
X-00117968Y-00005795D01*
X-00118074Y-00002899D01*
X-00118110Y00000000D01*
X-00062992Y00000000D02*
X-00062973Y00001546D01*
X-00062916Y00003091D01*
X-00062821Y00004634D01*
X-00062689Y00006174D01*
X-00062518Y00007711D01*
X-00062310Y00009243D01*
X-00062065Y00010769D01*
X-00061782Y00012289D01*
X-00061461Y00013802D01*
X-00061104Y00015306D01*
X-00060710Y00016801D01*
X-00060280Y00018286D01*
X-00059813Y00019759D01*
X-00059310Y00021221D01*
X-00058771Y00022671D01*
X-00058197Y00024106D01*
X-00057588Y00025527D01*
X-00056944Y00026933D01*
X-00056266Y00028322D01*
X-00055554Y00029694D01*
X-00054809Y00031049D01*
X-00054030Y00032384D01*
X-00053219Y00033701D01*
X-00052376Y00034996D01*
X-00051501Y00036271D01*
X-00050596Y00037524D01*
X-00049660Y00038755D01*
X-00048693Y00039962D01*
X-00047698Y00041145D01*
X-00046674Y00042303D01*
X-00045622Y00043436D01*
X-00044542Y00044542D01*
X-00043436Y00045622D01*
X-00042303Y00046674D01*
X-00041145Y00047698D01*
X-00039962Y00048693D01*
X-00038755Y00049660D01*
X-00037524Y00050596D01*
X-00036271Y00051501D01*
X-00034996Y00052376D01*
X-00033701Y00053219D01*
X-00032384Y00054030D01*
X-00031049Y00054809D01*
X-00029694Y00055554D01*
X-00028322Y00056266D01*
X-00026933Y00056944D01*
X-00025527Y00057588D01*
X-00024106Y00058197D01*
X-00022671Y00058771D01*
X-00021221Y00059310D01*
X-00019759Y00059813D01*
X-00018286Y00060280D01*
X-00016801Y00060710D01*
X-00015306Y00061104D01*
X-00013802Y00061461D01*
X-00012289Y00061782D01*
X-00010769Y00062065D01*
X-00009243Y00062310D01*
X-00007711Y00062518D01*
X-00006174Y00062689D01*
X-00004634Y00062821D01*
X-00003091Y00062916D01*
X-00001546Y00062973D01*
X00000000Y00062992D01*
X00001546Y00062973D01*
X00003091Y00062916D01*
X00004634Y00062821D01*
X00006174Y00062689D01*
X00007711Y00062518D01*
X00009243Y00062310D01*
X00010769Y00062065D01*
X00012289Y00061782D01*
X00013802Y00061461D01*
X00015306Y00061104D01*
X00016801Y00060710D01*
X00018286Y00060280D01*
X00019759Y00059813D01*
X00021221Y00059310D01*
X00022671Y00058771D01*
X00024106Y00058197D01*
X00025527Y00057588D01*
X00026933Y00056944D01*
X00028322Y00056266D01*
X00029694Y00055554D01*
X00031049Y00054809D01*
X00032384Y00054030D01*
X00033701Y00053219D01*
X00034996Y00052376D01*
X00036271Y00051501D01*
X00037524Y00050596D01*
X00038755Y00049660D01*
X00039962Y00048693D01*
X00041145Y00047698D01*
X00042303Y00046674D01*
X00043436Y00045622D01*
X00044542Y00044542D01*
X00045622Y00043436D01*
X00046674Y00042303D01*
X00047698Y00041145D01*
X00048693Y00039962D01*
X00049660Y00038755D01*
X00050596Y00037524D01*
X00051501Y00036271D01*
X00052376Y00034996D01*
X00053219Y00033701D01*
X00054030Y00032384D01*
X00054809Y00031049D01*
X00055554Y00029694D01*
X00056266Y00028322D01*
X00056944Y00026933D01*
X00057588Y00025527D01*
X00058197Y00024106D01*
X00058771Y00022671D01*
X00059310Y00021221D01*
X00059813Y00019759D01*
X00060280Y00018286D01*
X00060710Y00016801D01*
X00061104Y00015306D01*
X00061461Y00013802D01*
X00061782Y00012289D01*
X00062065Y00010769D01*
X00062310Y00009243D01*
X00062518Y00007711D01*
X00062689Y00006174D01*
X00062821Y00004634D01*
X00062916Y00003091D01*
X00062973Y00001546D01*
X00062992Y00000000D01*
X00062973Y-00001546D01*
X00062916Y-00003091D01*
X00062821Y-00004634D01*
X00062689Y-00006174D01*
X00062518Y-00007711D01*
X00062310Y-00009243D01*
X00062065Y-00010769D01*
X00061782Y-00012289D01*
X00061461Y-00013802D01*
X00061104Y-00015306D01*
X00060710Y-00016801D01*
X00060280Y-00018286D01*
X00059813Y-00019759D01*
X00059310Y-00021221D01*
X00058771Y-00022671D01*
X00058197Y-00024106D01*
X00057588Y-00025527D01*
X00056944Y-00026933D01*
X00056266Y-00028322D01*
X00055554Y-00029694D01*
X00054809Y-00031049D01*
X00054030Y-00032384D01*
X00053219Y-00033701D01*
X00052376Y-00034996D01*
X00051501Y-00036271D01*
X00050596Y-00037524D01*
X00049660Y-00038755D01*
X00048693Y-00039962D01*
X00047698Y-00041145D01*
X00046674Y-00042303D01*
X00045622Y-00043436D01*
X00044542Y-00044542D01*
X00043436Y-00045622D01*
X00042303Y-00046674D01*
X00041145Y-00047698D01*
X00039962Y-00048693D01*
X00038755Y-00049660D01*
X00037524Y-00050596D01*
X00036271Y-00051501D01*
X00034996Y-00052376D01*
X00033701Y-00053219D01*
X00032384Y-00054030D01*
X00031049Y-00054809D01*
X00029694Y-00055554D01*
X00028322Y-00056266D01*
X00026933Y-00056944D01*
X00025527Y-00057588D01*
X00024106Y-00058197D01*
X00022671Y-00058771D01*
X00021221Y-00059310D01*
X00019759Y-00059813D01*
X00018286Y-00060280D01*
X00016801Y-00060710D01*
X00015306Y-00061104D01*
X00013802Y-00061461D01*
X00012289Y-00061782D01*
X00010769Y-00062065D01*
X00009243Y-00062310D01*
X00007711Y-00062518D01*
X00006174Y-00062689D01*
X00004634Y-00062821D01*
X00003091Y-00062916D01*
X00001546Y-00062973D01*
X00000000Y-00062992D01*
X-00001546Y-00062973D01*
X-00003091Y-00062916D01*
X-00004634Y-00062821D01*
X-00006174Y-00062689D01*
X-00007711Y-00062518D01*
X-00009243Y-00062310D01*
X-00010769Y-00062065D01*
X-00012289Y-00061782D01*
X-00013802Y-00061461D01*
X-00015306Y-00061104D01*
X-00016801Y-00060710D01*
X-00018286Y-00060280D01*
X-00019759Y-00059813D01*
X-00021221Y-00059310D01*
X-00022671Y-00058771D01*
X-00024106Y-00058197D01*
X-00025527Y-00057588D01*
X-00026933Y-00056944D01*
X-00028322Y-00056266D01*
X-00029694Y-00055554D01*
X-00031049Y-00054809D01*
X-00032384Y-00054030D01*
X-00033701Y-00053219D01*
X-00034996Y-00052376D01*
X-00036271Y-00051501D01*
X-00037524Y-00050596D01*
X-00038755Y-00049660D01*
X-00039962Y-00048693D01*
X-00041145Y-00047698D01*
X-00042303Y-00046674D01*
X-00043436Y-00045622D01*
X-00044542Y-00044542D01*
X-00045622Y-00043436D01*
X-00046674Y-00042303D01*
X-00047698Y-00041145D01*
X-00048693Y-00039962D01*
X-00049660Y-00038755D01*
X-00050596Y-00037524D01*
X-00051501Y-00036271D01*
X-00052376Y-00034996D01*
X-00053219Y-00033701D01*
X-00054030Y-00032384D01*
X-00054809Y-00031049D01*
X-00055554Y-00029694D01*
X-00056266Y-00028322D01*
X-00056944Y-00026933D01*
X-00057588Y-00025527D01*
X-00058197Y-00024106D01*
X-00058771Y-00022671D01*
X-00059310Y-00021221D01*
X-00059813Y-00019759D01*
X-00060280Y-00018286D01*
X-00060710Y-00016801D01*
X-00061104Y-00015306D01*
X-00061461Y-00013802D01*
X-00061782Y-00012289D01*
X-00062065Y-00010769D01*
X-00062310Y-00009243D01*
X-00062518Y-00007711D01*
X-00062689Y-00006174D01*
X-00062821Y-00004634D01*
X-00062916Y-00003091D01*
X-00062973Y-00001546D01*
X-00062992Y00000000D01*
X-00787402Y-00393701D02*
X-00944882Y-00236220D01*
X-00944882Y08700787D01*
X-00787402Y08858268D01*
X-00787402Y09385827D01*
X-00748031Y09425197D01*
X00314961Y09425197D01*
X00354331Y09385827D01*
X00354331Y08897638D01*
X00393701Y08858268D01*
X08897638Y08858268D01*
X09055118Y08700787D01*
X09055118Y-00236220D01*
X08897638Y-00393701D01*
X-00787402Y-00393701D01*
X03996063Y03287402D02*
X03996099Y03290301D01*
X03996205Y03293197D01*
X03996383Y03296091D01*
X03996632Y03298979D01*
X03996951Y03301860D01*
X03997341Y03304732D01*
X03997802Y03307594D01*
X03998332Y03310444D01*
X03998933Y03313280D01*
X03999603Y03316100D01*
X04000341Y03318903D01*
X04001149Y03321688D01*
X04002024Y03324451D01*
X04002967Y03327192D01*
X04003977Y03329909D01*
X04005054Y03332601D01*
X04006196Y03335265D01*
X04007403Y03337901D01*
X04008674Y03340506D01*
X04010009Y03343079D01*
X04011407Y03345618D01*
X04012867Y03348123D01*
X04014387Y03350591D01*
X04015968Y03353020D01*
X04017608Y03355411D01*
X04019306Y03357760D01*
X04021061Y03360067D01*
X04022873Y03362330D01*
X04024739Y03364548D01*
X04026659Y03366720D01*
X04028632Y03368844D01*
X04030657Y03370918D01*
X04032731Y03372943D01*
X04034855Y03374916D01*
X04037027Y03376836D01*
X04039245Y03378702D01*
X04041508Y03380514D01*
X04043815Y03382269D01*
X04046164Y03383967D01*
X04048555Y03385607D01*
X04050984Y03387188D01*
X04053452Y03388708D01*
X04055957Y03390168D01*
X04058496Y03391566D01*
X04061069Y03392901D01*
X04063674Y03394172D01*
X04066310Y03395379D01*
X04068974Y03396521D01*
X04071666Y03397598D01*
X04074383Y03398608D01*
X04077124Y03399551D01*
X04079887Y03400426D01*
X04082672Y03401234D01*
X04085475Y03401972D01*
X04088295Y03402642D01*
X04091131Y03403243D01*
X04093981Y03403773D01*
X04096843Y03404234D01*
X04099715Y03404624D01*
X04102596Y03404943D01*
X04105484Y03405192D01*
X04108378Y03405370D01*
X04111274Y03405476D01*
X04114173Y03405512D01*
X04117072Y03405476D01*
X04119968Y03405370D01*
X04122862Y03405192D01*
X04125750Y03404943D01*
X04128631Y03404624D01*
X04131503Y03404234D01*
X04134365Y03403773D01*
X04137215Y03403243D01*
X04140051Y03402642D01*
X04142871Y03401972D01*
X04145674Y03401234D01*
X04148459Y03400426D01*
X04151222Y03399551D01*
X04153963Y03398608D01*
X04156680Y03397598D01*
X04159372Y03396521D01*
X04162036Y03395379D01*
X04164672Y03394172D01*
X04167277Y03392901D01*
X04169850Y03391566D01*
X04172389Y03390168D01*
X04174894Y03388708D01*
X04177362Y03387188D01*
X04179791Y03385607D01*
X04182182Y03383967D01*
X04184531Y03382269D01*
X04186838Y03380514D01*
X04189101Y03378702D01*
X04191319Y03376836D01*
X04193491Y03374916D01*
X04195615Y03372943D01*
X04197689Y03370918D01*
X04199714Y03368844D01*
X04201687Y03366720D01*
X04203607Y03364548D01*
X04205473Y03362330D01*
X04207285Y03360067D01*
X04209040Y03357760D01*
X04210738Y03355411D01*
X04212378Y03353020D01*
X04213959Y03350591D01*
X04215479Y03348123D01*
X04216939Y03345618D01*
X04218337Y03343079D01*
X04219672Y03340506D01*
X04220943Y03337901D01*
X04222150Y03335265D01*
X04223292Y03332601D01*
X04224369Y03329909D01*
X04225379Y03327192D01*
X04226322Y03324451D01*
X04227197Y03321688D01*
X04228005Y03318903D01*
X04228743Y03316100D01*
X04229413Y03313280D01*
X04230014Y03310444D01*
X04230544Y03307594D01*
X04231005Y03304732D01*
X04231395Y03301860D01*
X04231714Y03298979D01*
X04231963Y03296091D01*
X04232141Y03293197D01*
X04232247Y03290301D01*
X04232283Y03287402D01*
X04232247Y03284503D01*
X04232141Y03281607D01*
X04231963Y03278713D01*
X04231714Y03275825D01*
X04231395Y03272944D01*
X04231005Y03270072D01*
X04230544Y03267210D01*
X04230014Y03264360D01*
X04229413Y03261524D01*
X04228743Y03258704D01*
X04228005Y03255901D01*
X04227197Y03253116D01*
X04226322Y03250353D01*
X04225379Y03247612D01*
X04224369Y03244895D01*
X04223292Y03242203D01*
X04222150Y03239539D01*
X04220943Y03236903D01*
X04219672Y03234298D01*
X04218337Y03231725D01*
X04216939Y03229186D01*
X04215479Y03226681D01*
X04213959Y03224213D01*
X04212378Y03221784D01*
X04210738Y03219393D01*
X04209040Y03217044D01*
X04207285Y03214737D01*
X04205473Y03212474D01*
X04203607Y03210256D01*
X04201687Y03208084D01*
X04199714Y03205960D01*
X04197689Y03203886D01*
X04195615Y03201861D01*
X04193491Y03199888D01*
X04191319Y03197968D01*
X04189101Y03196102D01*
X04186838Y03194290D01*
X04184531Y03192535D01*
X04182182Y03190837D01*
X04179791Y03189197D01*
X04177362Y03187616D01*
X04174894Y03186096D01*
X04172389Y03184636D01*
X04169850Y03183238D01*
X04167277Y03181903D01*
X04164672Y03180632D01*
X04162036Y03179425D01*
X04159372Y03178283D01*
X04156680Y03177206D01*
X04153963Y03176196D01*
X04151222Y03175253D01*
X04148459Y03174378D01*
X04145674Y03173570D01*
X04142871Y03172832D01*
X04140051Y03172162D01*
X04137215Y03171561D01*
X04134365Y03171031D01*
X04131503Y03170570D01*
X04128631Y03170180D01*
X04125750Y03169861D01*
X04122862Y03169612D01*
X04119968Y03169434D01*
X04117072Y03169328D01*
X04114173Y03169292D01*
X04111274Y03169328D01*
X04108378Y03169434D01*
X04105484Y03169612D01*
X04102596Y03169861D01*
X04099715Y03170180D01*
X04096843Y03170570D01*
X04093981Y03171031D01*
X04091131Y03171561D01*
X04088295Y03172162D01*
X04085475Y03172832D01*
X04082672Y03173570D01*
X04079887Y03174378D01*
X04077124Y03175253D01*
X04074383Y03176196D01*
X04071666Y03177206D01*
X04068974Y03178283D01*
X04066310Y03179425D01*
X04063674Y03180632D01*
X04061069Y03181903D01*
X04058496Y03183238D01*
X04055957Y03184636D01*
X04053452Y03186096D01*
X04050984Y03187616D01*
X04048555Y03189197D01*
X04046164Y03190837D01*
X04043815Y03192535D01*
X04041508Y03194290D01*
X04039245Y03196102D01*
X04037027Y03197968D01*
X04034855Y03199888D01*
X04032731Y03201861D01*
X04030657Y03203886D01*
X04028632Y03205960D01*
X04026659Y03208084D01*
X04024739Y03210256D01*
X04022873Y03212474D01*
X04021061Y03214737D01*
X04019306Y03217044D01*
X04017608Y03219393D01*
X04015968Y03221784D01*
X04014387Y03224213D01*
X04012867Y03226681D01*
X04011407Y03229186D01*
X04010009Y03231725D01*
X04008674Y03234298D01*
X04007403Y03236903D01*
X04006196Y03239539D01*
X04005054Y03242203D01*
X04003977Y03244895D01*
X04002967Y03247612D01*
X04002024Y03250353D01*
X04001149Y03253116D01*
X04000341Y03255901D01*
X03999603Y03258704D01*
X03998933Y03261524D01*
X03998332Y03264360D01*
X03997802Y03267210D01*
X03997341Y03270072D01*
X03996951Y03272944D01*
X03996632Y03275825D01*
X03996383Y03278713D01*
X03996205Y03281607D01*
X03996099Y03284503D01*
X03996063Y03287402D01*
X03996063Y04901575D02*
X03996099Y04904474D01*
X03996205Y04907370D01*
X03996383Y04910264D01*
X03996632Y04913152D01*
X03996951Y04916033D01*
X03997341Y04918905D01*
X03997802Y04921767D01*
X03998332Y04924617D01*
X03998933Y04927453D01*
X03999603Y04930273D01*
X04000341Y04933076D01*
X04001149Y04935861D01*
X04002024Y04938624D01*
X04002967Y04941365D01*
X04003977Y04944082D01*
X04005054Y04946774D01*
X04006196Y04949438D01*
X04007403Y04952074D01*
X04008674Y04954679D01*
X04010009Y04957252D01*
X04011407Y04959791D01*
X04012867Y04962296D01*
X04014387Y04964764D01*
X04015968Y04967193D01*
X04017608Y04969584D01*
X04019306Y04971933D01*
X04021061Y04974240D01*
X04022873Y04976503D01*
X04024739Y04978721D01*
X04026659Y04980893D01*
X04028632Y04983017D01*
X04030657Y04985091D01*
X04032731Y04987116D01*
X04034855Y04989089D01*
X04037027Y04991009D01*
X04039245Y04992875D01*
X04041508Y04994687D01*
X04043815Y04996442D01*
X04046164Y04998140D01*
X04048555Y04999780D01*
X04050984Y05001361D01*
X04053452Y05002881D01*
X04055957Y05004341D01*
X04058496Y05005739D01*
X04061069Y05007074D01*
X04063674Y05008345D01*
X04066310Y05009552D01*
X04068974Y05010694D01*
X04071666Y05011771D01*
X04074383Y05012781D01*
X04077124Y05013724D01*
X04079887Y05014599D01*
X04082672Y05015407D01*
X04085475Y05016145D01*
X04088295Y05016815D01*
X04091131Y05017416D01*
X04093981Y05017946D01*
X04096843Y05018407D01*
X04099715Y05018797D01*
X04102596Y05019116D01*
X04105484Y05019365D01*
X04108378Y05019543D01*
X04111274Y05019649D01*
X04114173Y05019685D01*
X04117072Y05019649D01*
X04119968Y05019543D01*
X04122862Y05019365D01*
X04125750Y05019116D01*
X04128631Y05018797D01*
X04131503Y05018407D01*
X04134365Y05017946D01*
X04137215Y05017416D01*
X04140051Y05016815D01*
X04142871Y05016145D01*
X04145674Y05015407D01*
X04148459Y05014599D01*
X04151222Y05013724D01*
X04153963Y05012781D01*
X04156680Y05011771D01*
X04159372Y05010694D01*
X04162036Y05009552D01*
X04164672Y05008345D01*
X04167277Y05007074D01*
X04169850Y05005739D01*
X04172389Y05004341D01*
X04174894Y05002881D01*
X04177362Y05001361D01*
X04179791Y04999780D01*
X04182182Y04998140D01*
X04184531Y04996442D01*
X04186838Y04994687D01*
X04189101Y04992875D01*
X04191319Y04991009D01*
X04193491Y04989089D01*
X04195615Y04987116D01*
X04197689Y04985091D01*
X04199714Y04983017D01*
X04201687Y04980893D01*
X04203607Y04978721D01*
X04205473Y04976503D01*
X04207285Y04974240D01*
X04209040Y04971933D01*
X04210738Y04969584D01*
X04212378Y04967193D01*
X04213959Y04964764D01*
X04215479Y04962296D01*
X04216939Y04959791D01*
X04218337Y04957252D01*
X04219672Y04954679D01*
X04220943Y04952074D01*
X04222150Y04949438D01*
X04223292Y04946774D01*
X04224369Y04944082D01*
X04225379Y04941365D01*
X04226322Y04938624D01*
X04227197Y04935861D01*
X04228005Y04933076D01*
X04228743Y04930273D01*
X04229413Y04927453D01*
X04230014Y04924617D01*
X04230544Y04921767D01*
X04231005Y04918905D01*
X04231395Y04916033D01*
X04231714Y04913152D01*
X04231963Y04910264D01*
X04232141Y04907370D01*
X04232247Y04904474D01*
X04232283Y04901575D01*
X04232247Y04898676D01*
X04232141Y04895780D01*
X04231963Y04892886D01*
X04231714Y04889998D01*
X04231395Y04887117D01*
X04231005Y04884245D01*
X04230544Y04881383D01*
X04230014Y04878533D01*
X04229413Y04875697D01*
X04228743Y04872877D01*
X04228005Y04870074D01*
X04227197Y04867289D01*
X04226322Y04864526D01*
X04225379Y04861785D01*
X04224369Y04859068D01*
X04223292Y04856376D01*
X04222150Y04853712D01*
X04220943Y04851076D01*
X04219672Y04848471D01*
X04218337Y04845898D01*
X04216939Y04843359D01*
X04215479Y04840854D01*
X04213959Y04838386D01*
X04212378Y04835957D01*
X04210738Y04833566D01*
X04209040Y04831217D01*
X04207285Y04828910D01*
X04205473Y04826647D01*
X04203607Y04824429D01*
X04201687Y04822257D01*
X04199714Y04820133D01*
X04197689Y04818059D01*
X04195615Y04816034D01*
X04193491Y04814061D01*
X04191319Y04812141D01*
X04189101Y04810275D01*
X04186838Y04808463D01*
X04184531Y04806708D01*
X04182182Y04805010D01*
X04179791Y04803370D01*
X04177362Y04801789D01*
X04174894Y04800269D01*
X04172389Y04798809D01*
X04169850Y04797411D01*
X04167277Y04796076D01*
X04164672Y04794805D01*
X04162036Y04793598D01*
X04159372Y04792456D01*
X04156680Y04791379D01*
X04153963Y04790369D01*
X04151222Y04789426D01*
X04148459Y04788551D01*
X04145674Y04787743D01*
X04142871Y04787005D01*
X04140051Y04786335D01*
X04137215Y04785734D01*
X04134365Y04785204D01*
X04131503Y04784743D01*
X04128631Y04784353D01*
X04125750Y04784034D01*
X04122862Y04783785D01*
X04119968Y04783607D01*
X04117072Y04783501D01*
X04114173Y04783465D01*
X04111274Y04783501D01*
X04108378Y04783607D01*
X04105484Y04783785D01*
X04102596Y04784034D01*
X04099715Y04784353D01*
X04096843Y04784743D01*
X04093981Y04785204D01*
X04091131Y04785734D01*
X04088295Y04786335D01*
X04085475Y04787005D01*
X04082672Y04787743D01*
X04079887Y04788551D01*
X04077124Y04789426D01*
X04074383Y04790369D01*
X04071666Y04791379D01*
X04068974Y04792456D01*
X04066310Y04793598D01*
X04063674Y04794805D01*
X04061069Y04796076D01*
X04058496Y04797411D01*
X04055957Y04798809D01*
X04053452Y04800269D01*
X04050984Y04801789D01*
X04048555Y04803370D01*
X04046164Y04805010D01*
X04043815Y04806708D01*
X04041508Y04808463D01*
X04039245Y04810275D01*
X04037027Y04812141D01*
X04034855Y04814061D01*
X04032731Y04816034D01*
X04030657Y04818059D01*
X04028632Y04820133D01*
X04026659Y04822257D01*
X04024739Y04824429D01*
X04022873Y04826647D01*
X04021061Y04828910D01*
X04019306Y04831217D01*
X04017608Y04833566D01*
X04015968Y04835957D01*
X04014387Y04838386D01*
X04012867Y04840854D01*
X04011407Y04843359D01*
X04010009Y04845898D01*
X04008674Y04848471D01*
X04007403Y04851076D01*
X04006196Y04853712D01*
X04005054Y04856376D01*
X04003977Y04859068D01*
X04002967Y04861785D01*
X04002024Y04864526D01*
X04001149Y04867289D01*
X04000341Y04870074D01*
X03999603Y04872877D01*
X03998933Y04875697D01*
X03998332Y04878533D01*
X03997802Y04881383D01*
X03997341Y04884245D01*
X03996951Y04887117D01*
X03996632Y04889998D01*
X03996383Y04892886D01*
X03996205Y04895780D01*
X03996099Y04898676D01*
X03996063Y04901575D01*
X-00118110Y08228346D02*
X-00118074Y08231245D01*
X-00117968Y08234141D01*
X-00117790Y08237035D01*
X-00117541Y08239923D01*
X-00117222Y08242804D01*
X-00116832Y08245676D01*
X-00116371Y08248538D01*
X-00115841Y08251388D01*
X-00115240Y08254224D01*
X-00114570Y08257044D01*
X-00113832Y08259847D01*
X-00113024Y08262632D01*
X-00112149Y08265395D01*
X-00111206Y08268136D01*
X-00110196Y08270853D01*
X-00109119Y08273545D01*
X-00107977Y08276209D01*
X-00106770Y08278845D01*
X-00105499Y08281450D01*
X-00104164Y08284023D01*
X-00102766Y08286562D01*
X-00101306Y08289067D01*
X-00099786Y08291535D01*
X-00098205Y08293964D01*
X-00096565Y08296355D01*
X-00094867Y08298704D01*
X-00093112Y08301011D01*
X-00091300Y08303274D01*
X-00089434Y08305492D01*
X-00087514Y08307664D01*
X-00085541Y08309788D01*
X-00083516Y08311862D01*
X-00081442Y08313887D01*
X-00079318Y08315860D01*
X-00077146Y08317780D01*
X-00074928Y08319646D01*
X-00072665Y08321458D01*
X-00070358Y08323213D01*
X-00068009Y08324911D01*
X-00065618Y08326551D01*
X-00063189Y08328132D01*
X-00060721Y08329652D01*
X-00058216Y08331112D01*
X-00055677Y08332510D01*
X-00053104Y08333845D01*
X-00050499Y08335116D01*
X-00047863Y08336323D01*
X-00045199Y08337465D01*
X-00042507Y08338542D01*
X-00039790Y08339552D01*
X-00037049Y08340495D01*
X-00034286Y08341370D01*
X-00031501Y08342178D01*
X-00028698Y08342916D01*
X-00025878Y08343586D01*
X-00023042Y08344187D01*
X-00020192Y08344717D01*
X-00017330Y08345178D01*
X-00014458Y08345568D01*
X-00011577Y08345887D01*
X-00008689Y08346136D01*
X-00005795Y08346314D01*
X-00002899Y08346420D01*
X00000000Y08346456D01*
X00002899Y08346420D01*
X00005795Y08346314D01*
X00008689Y08346136D01*
X00011577Y08345887D01*
X00014458Y08345568D01*
X00017330Y08345178D01*
X00020192Y08344717D01*
X00023042Y08344187D01*
X00025878Y08343586D01*
X00028698Y08342916D01*
X00031501Y08342178D01*
X00034286Y08341370D01*
X00037049Y08340495D01*
X00039790Y08339552D01*
X00042507Y08338542D01*
X00045199Y08337465D01*
X00047863Y08336323D01*
X00050499Y08335116D01*
X00053104Y08333845D01*
X00055677Y08332510D01*
X00058216Y08331112D01*
X00060721Y08329652D01*
X00063189Y08328132D01*
X00065618Y08326551D01*
X00068009Y08324911D01*
X00070358Y08323213D01*
X00072665Y08321458D01*
X00074928Y08319646D01*
X00077146Y08317780D01*
X00079318Y08315860D01*
X00081442Y08313887D01*
X00083516Y08311862D01*
X00085541Y08309788D01*
X00087514Y08307664D01*
X00089434Y08305492D01*
X00091300Y08303274D01*
X00093112Y08301011D01*
X00094867Y08298704D01*
X00096565Y08296355D01*
X00098205Y08293964D01*
X00099786Y08291535D01*
X00101306Y08289067D01*
X00102766Y08286562D01*
X00104164Y08284023D01*
X00105499Y08281450D01*
X00106770Y08278845D01*
X00107977Y08276209D01*
X00109119Y08273545D01*
X00110196Y08270853D01*
X00111206Y08268136D01*
X00112149Y08265395D01*
X00113024Y08262632D01*
X00113832Y08259847D01*
X00114570Y08257044D01*
X00115240Y08254224D01*
X00115841Y08251388D01*
X00116371Y08248538D01*
X00116832Y08245676D01*
X00117222Y08242804D01*
X00117541Y08239923D01*
X00117790Y08237035D01*
X00117968Y08234141D01*
X00118074Y08231245D01*
X00118110Y08228346D01*
X00118074Y08225447D01*
X00117968Y08222551D01*
X00117790Y08219657D01*
X00117541Y08216769D01*
X00117222Y08213888D01*
X00116832Y08211016D01*
X00116371Y08208154D01*
X00115841Y08205304D01*
X00115240Y08202468D01*
X00114570Y08199648D01*
X00113832Y08196845D01*
X00113024Y08194060D01*
X00112149Y08191297D01*
X00111206Y08188556D01*
X00110196Y08185839D01*
X00109119Y08183147D01*
X00107977Y08180483D01*
X00106770Y08177847D01*
X00105499Y08175242D01*
X00104164Y08172669D01*
X00102766Y08170130D01*
X00101306Y08167625D01*
X00099786Y08165157D01*
X00098205Y08162728D01*
X00096565Y08160337D01*
X00094867Y08157988D01*
X00093112Y08155681D01*
X00091300Y08153418D01*
X00089434Y08151200D01*
X00087514Y08149028D01*
X00085541Y08146904D01*
X00083516Y08144830D01*
X00081442Y08142805D01*
X00079318Y08140832D01*
X00077146Y08138912D01*
X00074928Y08137046D01*
X00072665Y08135234D01*
X00070358Y08133479D01*
X00068009Y08131781D01*
X00065618Y08130141D01*
X00063189Y08128560D01*
X00060721Y08127040D01*
X00058216Y08125580D01*
X00055677Y08124182D01*
X00053104Y08122847D01*
X00050499Y08121576D01*
X00047863Y08120369D01*
X00045199Y08119227D01*
X00042507Y08118150D01*
X00039790Y08117140D01*
X00037049Y08116197D01*
X00034286Y08115322D01*
X00031501Y08114514D01*
X00028698Y08113776D01*
X00025878Y08113106D01*
X00023042Y08112505D01*
X00020192Y08111975D01*
X00017330Y08111514D01*
X00014458Y08111124D01*
X00011577Y08110805D01*
X00008689Y08110556D01*
X00005795Y08110378D01*
X00002899Y08110272D01*
X00000000Y08110236D01*
X-00002899Y08110272D01*
X-00005795Y08110378D01*
X-00008689Y08110556D01*
X-00011577Y08110805D01*
X-00014458Y08111124D01*
X-00017330Y08111514D01*
X-00020192Y08111975D01*
X-00023042Y08112505D01*
X-00025878Y08113106D01*
X-00028698Y08113776D01*
X-00031501Y08114514D01*
X-00034286Y08115322D01*
X-00037049Y08116197D01*
X-00039790Y08117140D01*
X-00042507Y08118150D01*
X-00045199Y08119227D01*
X-00047863Y08120369D01*
X-00050499Y08121576D01*
X-00053104Y08122847D01*
X-00055677Y08124182D01*
X-00058216Y08125580D01*
X-00060721Y08127040D01*
X-00063189Y08128560D01*
X-00065618Y08130141D01*
X-00068009Y08131781D01*
X-00070358Y08133479D01*
X-00072665Y08135234D01*
X-00074928Y08137046D01*
X-00077146Y08138912D01*
X-00079318Y08140832D01*
X-00081442Y08142805D01*
X-00083516Y08144830D01*
X-00085541Y08146904D01*
X-00087514Y08149028D01*
X-00089434Y08151200D01*
X-00091300Y08153418D01*
X-00093112Y08155681D01*
X-00094867Y08157988D01*
X-00096565Y08160337D01*
X-00098205Y08162728D01*
X-00099786Y08165157D01*
X-00101306Y08167625D01*
X-00102766Y08170130D01*
X-00104164Y08172669D01*
X-00105499Y08175242D01*
X-00106770Y08177847D01*
X-00107977Y08180483D01*
X-00109119Y08183147D01*
X-00110196Y08185839D01*
X-00111206Y08188556D01*
X-00112149Y08191297D01*
X-00113024Y08194060D01*
X-00113832Y08196845D01*
X-00114570Y08199648D01*
X-00115240Y08202468D01*
X-00115841Y08205304D01*
X-00116371Y08208154D01*
X-00116832Y08211016D01*
X-00117222Y08213888D01*
X-00117541Y08216769D01*
X-00117790Y08219657D01*
X-00117968Y08222551D01*
X-00118074Y08225447D01*
X-00118110Y08228346D01*
X-00062992Y08228346D02*
X-00062973Y08229892D01*
X-00062916Y08231437D01*
X-00062821Y08232980D01*
X-00062689Y08234520D01*
X-00062518Y08236057D01*
X-00062310Y08237589D01*
X-00062065Y08239115D01*
X-00061782Y08240635D01*
X-00061461Y08242148D01*
X-00061104Y08243652D01*
X-00060710Y08245147D01*
X-00060280Y08246632D01*
X-00059813Y08248105D01*
X-00059310Y08249567D01*
X-00058771Y08251017D01*
X-00058197Y08252452D01*
X-00057588Y08253873D01*
X-00056944Y08255279D01*
X-00056266Y08256668D01*
X-00055554Y08258040D01*
X-00054809Y08259395D01*
X-00054030Y08260730D01*
X-00053219Y08262047D01*
X-00052376Y08263342D01*
X-00051501Y08264617D01*
X-00050596Y08265870D01*
X-00049660Y08267101D01*
X-00048693Y08268308D01*
X-00047698Y08269491D01*
X-00046674Y08270649D01*
X-00045622Y08271782D01*
X-00044542Y08272888D01*
X-00043436Y08273968D01*
X-00042303Y08275020D01*
X-00041145Y08276044D01*
X-00039962Y08277039D01*
X-00038755Y08278006D01*
X-00037524Y08278942D01*
X-00036271Y08279847D01*
X-00034996Y08280722D01*
X-00033701Y08281565D01*
X-00032384Y08282376D01*
X-00031049Y08283155D01*
X-00029694Y08283900D01*
X-00028322Y08284612D01*
X-00026933Y08285290D01*
X-00025527Y08285934D01*
X-00024106Y08286543D01*
X-00022671Y08287117D01*
X-00021221Y08287656D01*
X-00019759Y08288159D01*
X-00018286Y08288626D01*
X-00016801Y08289056D01*
X-00015306Y08289450D01*
X-00013802Y08289807D01*
X-00012289Y08290128D01*
X-00010769Y08290411D01*
X-00009243Y08290656D01*
X-00007711Y08290864D01*
X-00006174Y08291035D01*
X-00004634Y08291167D01*
X-00003091Y08291262D01*
X-00001546Y08291319D01*
X00000000Y08291338D01*
X00001546Y08291319D01*
X00003091Y08291262D01*
X00004634Y08291167D01*
X00006174Y08291035D01*
X00007711Y08290864D01*
X00009243Y08290656D01*
X00010769Y08290411D01*
X00012289Y08290128D01*
X00013802Y08289807D01*
X00015306Y08289450D01*
X00016801Y08289056D01*
X00018286Y08288626D01*
X00019759Y08288159D01*
X00021221Y08287656D01*
X00022671Y08287117D01*
X00024106Y08286543D01*
X00025527Y08285934D01*
X00026933Y08285290D01*
X00028322Y08284612D01*
X00029694Y08283900D01*
X00031049Y08283155D01*
X00032384Y08282376D01*
X00033701Y08281565D01*
X00034996Y08280722D01*
X00036271Y08279847D01*
X00037524Y08278942D01*
X00038755Y08278006D01*
X00039962Y08277039D01*
X00041145Y08276044D01*
X00042303Y08275020D01*
X00043436Y08273968D01*
X00044542Y08272888D01*
X00045622Y08271782D01*
X00046674Y08270649D01*
X00047698Y08269491D01*
X00048693Y08268308D01*
X00049660Y08267101D01*
X00050596Y08265870D01*
X00051501Y08264617D01*
X00052376Y08263342D01*
X00053219Y08262047D01*
X00054030Y08260730D01*
X00054809Y08259395D01*
X00055554Y08258040D01*
X00056266Y08256668D01*
X00056944Y08255279D01*
X00057588Y08253873D01*
X00058197Y08252452D01*
X00058771Y08251017D01*
X00059310Y08249567D01*
X00059813Y08248105D01*
X00060280Y08246632D01*
X00060710Y08245147D01*
X00061104Y08243652D01*
X00061461Y08242148D01*
X00061782Y08240635D01*
X00062065Y08239115D01*
X00062310Y08237589D01*
X00062518Y08236057D01*
X00062689Y08234520D01*
X00062821Y08232980D01*
X00062916Y08231437D01*
X00062973Y08229892D01*
X00062992Y08228346D01*
X00062973Y08226800D01*
X00062916Y08225255D01*
X00062821Y08223712D01*
X00062689Y08222172D01*
X00062518Y08220635D01*
X00062310Y08219103D01*
X00062065Y08217577D01*
X00061782Y08216057D01*
X00061461Y08214544D01*
X00061104Y08213040D01*
X00060710Y08211545D01*
X00060280Y08210060D01*
X00059813Y08208587D01*
X00059310Y08207125D01*
X00058771Y08205675D01*
X00058197Y08204240D01*
X00057588Y08202819D01*
X00056944Y08201413D01*
X00056266Y08200024D01*
X00055554Y08198652D01*
X00054809Y08197297D01*
X00054030Y08195962D01*
X00053219Y08194645D01*
X00052376Y08193350D01*
X00051501Y08192075D01*
X00050596Y08190822D01*
X00049660Y08189591D01*
X00048693Y08188384D01*
X00047698Y08187201D01*
X00046674Y08186043D01*
X00045622Y08184910D01*
X00044542Y08183804D01*
X00043436Y08182724D01*
X00042303Y08181672D01*
X00041145Y08180648D01*
X00039962Y08179653D01*
X00038755Y08178686D01*
X00037524Y08177750D01*
X00036271Y08176845D01*
X00034996Y08175970D01*
X00033701Y08175127D01*
X00032384Y08174316D01*
X00031049Y08173537D01*
X00029694Y08172792D01*
X00028322Y08172080D01*
X00026933Y08171402D01*
X00025527Y08170758D01*
X00024106Y08170149D01*
X00022671Y08169575D01*
X00021221Y08169036D01*
X00019759Y08168533D01*
X00018286Y08168066D01*
X00016801Y08167636D01*
X00015306Y08167242D01*
X00013802Y08166885D01*
X00012289Y08166564D01*
X00010769Y08166281D01*
X00009243Y08166036D01*
X00007711Y08165828D01*
X00006174Y08165657D01*
X00004634Y08165525D01*
X00003091Y08165430D01*
X00001546Y08165373D01*
X00000000Y08165354D01*
X-00001546Y08165373D01*
X-00003091Y08165430D01*
X-00004634Y08165525D01*
X-00006174Y08165657D01*
X-00007711Y08165828D01*
X-00009243Y08166036D01*
X-00010769Y08166281D01*
X-00012289Y08166564D01*
X-00013802Y08166885D01*
X-00015306Y08167242D01*
X-00016801Y08167636D01*
X-00018286Y08168066D01*
X-00019759Y08168533D01*
X-00021221Y08169036D01*
X-00022671Y08169575D01*
X-00024106Y08170149D01*
X-00025527Y08170758D01*
X-00026933Y08171402D01*
X-00028322Y08172080D01*
X-00029694Y08172792D01*
X-00031049Y08173537D01*
X-00032384Y08174316D01*
X-00033701Y08175127D01*
X-00034996Y08175970D01*
X-00036271Y08176845D01*
X-00037524Y08177750D01*
X-00038755Y08178686D01*
X-00039962Y08179653D01*
X-00041145Y08180648D01*
X-00042303Y08181672D01*
X-00043436Y08182724D01*
X-00044542Y08183804D01*
X-00045622Y08184910D01*
X-00046674Y08186043D01*
X-00047698Y08187201D01*
X-00048693Y08188384D01*
X-00049660Y08189591D01*
X-00050596Y08190822D01*
X-00051501Y08192075D01*
X-00052376Y08193350D01*
X-00053219Y08194645D01*
X-00054030Y08195962D01*
X-00054809Y08197297D01*
X-00055554Y08198652D01*
X-00056266Y08200024D01*
X-00056944Y08201413D01*
X-00057588Y08202819D01*
X-00058197Y08204240D01*
X-00058771Y08205675D01*
X-00059310Y08207125D01*
X-00059813Y08208587D01*
X-00060280Y08210060D01*
X-00060710Y08211545D01*
X-00061104Y08213040D01*
X-00061461Y08214544D01*
X-00061782Y08216057D01*
X-00062065Y08217577D01*
X-00062310Y08219103D01*
X-00062518Y08220635D01*
X-00062689Y08222172D01*
X-00062821Y08223712D01*
X-00062916Y08225255D01*
X-00062973Y08226800D01*
X-00062992Y08228346D01*
X-00279527Y09133858D02*
X-00279508Y09135404D01*
X-00279451Y09136949D01*
X-00279356Y09138492D01*
X-00279224Y09140032D01*
X-00279053Y09141569D01*
X-00278845Y09143101D01*
X-00278600Y09144627D01*
X-00278317Y09146147D01*
X-00277996Y09147660D01*
X-00277639Y09149164D01*
X-00277245Y09150659D01*
X-00276815Y09152144D01*
X-00276348Y09153617D01*
X-00275845Y09155079D01*
X-00275306Y09156529D01*
X-00274732Y09157964D01*
X-00274123Y09159385D01*
X-00273479Y09160791D01*
X-00272801Y09162180D01*
X-00272089Y09163552D01*
X-00271344Y09164907D01*
X-00270565Y09166242D01*
X-00269754Y09167559D01*
X-00268911Y09168854D01*
X-00268036Y09170129D01*
X-00267131Y09171382D01*
X-00266195Y09172613D01*
X-00265228Y09173820D01*
X-00264233Y09175003D01*
X-00263209Y09176161D01*
X-00262157Y09177294D01*
X-00261077Y09178400D01*
X-00259971Y09179480D01*
X-00258838Y09180532D01*
X-00257680Y09181556D01*
X-00256497Y09182551D01*
X-00255290Y09183518D01*
X-00254059Y09184454D01*
X-00252806Y09185359D01*
X-00251531Y09186234D01*
X-00250236Y09187077D01*
X-00248919Y09187888D01*
X-00247584Y09188667D01*
X-00246229Y09189412D01*
X-00244857Y09190124D01*
X-00243468Y09190802D01*
X-00242062Y09191446D01*
X-00240641Y09192055D01*
X-00239206Y09192629D01*
X-00237756Y09193168D01*
X-00236294Y09193671D01*
X-00234821Y09194138D01*
X-00233336Y09194568D01*
X-00231841Y09194962D01*
X-00230337Y09195319D01*
X-00228824Y09195640D01*
X-00227304Y09195923D01*
X-00225778Y09196168D01*
X-00224246Y09196376D01*
X-00222709Y09196547D01*
X-00221169Y09196679D01*
X-00219626Y09196774D01*
X-00218081Y09196831D01*
X-00216535Y09196850D01*
X-00214989Y09196831D01*
X-00213444Y09196774D01*
X-00211901Y09196679D01*
X-00210361Y09196547D01*
X-00208824Y09196376D01*
X-00207292Y09196168D01*
X-00205766Y09195923D01*
X-00204246Y09195640D01*
X-00202733Y09195319D01*
X-00201229Y09194962D01*
X-00199734Y09194568D01*
X-00198249Y09194138D01*
X-00196776Y09193671D01*
X-00195314Y09193168D01*
X-00193864Y09192629D01*
X-00192429Y09192055D01*
X-00191008Y09191446D01*
X-00189602Y09190802D01*
X-00188213Y09190124D01*
X-00186841Y09189412D01*
X-00185486Y09188667D01*
X-00184151Y09187888D01*
X-00182834Y09187077D01*
X-00181539Y09186234D01*
X-00180264Y09185359D01*
X-00179011Y09184454D01*
X-00177780Y09183518D01*
X-00176573Y09182551D01*
X-00175390Y09181556D01*
X-00174232Y09180532D01*
X-00173099Y09179480D01*
X-00171993Y09178400D01*
X-00170913Y09177294D01*
X-00169861Y09176161D01*
X-00168837Y09175003D01*
X-00167842Y09173820D01*
X-00166875Y09172613D01*
X-00165939Y09171382D01*
X-00165034Y09170129D01*
X-00164159Y09168854D01*
X-00163316Y09167559D01*
X-00162505Y09166242D01*
X-00161726Y09164907D01*
X-00160981Y09163552D01*
X-00160269Y09162180D01*
X-00159591Y09160791D01*
X-00158947Y09159385D01*
X-00158338Y09157964D01*
X-00157764Y09156529D01*
X-00157225Y09155079D01*
X-00156722Y09153617D01*
X-00156255Y09152144D01*
X-00155825Y09150659D01*
X-00155431Y09149164D01*
X-00155074Y09147660D01*
X-00154753Y09146147D01*
X-00154470Y09144627D01*
X-00154225Y09143101D01*
X-00154017Y09141569D01*
X-00153846Y09140032D01*
X-00153714Y09138492D01*
X-00153619Y09136949D01*
X-00153562Y09135404D01*
X-00153543Y09133858D01*
X-00153562Y09132312D01*
X-00153619Y09130767D01*
X-00153714Y09129224D01*
X-00153846Y09127684D01*
X-00154017Y09126147D01*
X-00154225Y09124615D01*
X-00154470Y09123089D01*
X-00154753Y09121569D01*
X-00155074Y09120056D01*
X-00155431Y09118552D01*
X-00155825Y09117057D01*
X-00156255Y09115572D01*
X-00156722Y09114099D01*
X-00157225Y09112637D01*
X-00157764Y09111187D01*
X-00158338Y09109752D01*
X-00158947Y09108331D01*
X-00159591Y09106925D01*
X-00160269Y09105536D01*
X-00160981Y09104164D01*
X-00161726Y09102809D01*
X-00162505Y09101474D01*
X-00163316Y09100157D01*
X-00164159Y09098862D01*
X-00165034Y09097587D01*
X-00165939Y09096334D01*
X-00166875Y09095103D01*
X-00167842Y09093896D01*
X-00168837Y09092713D01*
X-00169861Y09091555D01*
X-00170913Y09090422D01*
X-00171993Y09089316D01*
X-00173099Y09088236D01*
X-00174232Y09087184D01*
X-00175390Y09086160D01*
X-00176573Y09085165D01*
X-00177780Y09084198D01*
X-00179011Y09083262D01*
X-00180264Y09082357D01*
X-00181539Y09081482D01*
X-00182834Y09080639D01*
X-00184151Y09079828D01*
X-00185486Y09079049D01*
X-00186841Y09078304D01*
X-00188213Y09077592D01*
X-00189602Y09076914D01*
X-00191008Y09076270D01*
X-00192429Y09075661D01*
X-00193864Y09075087D01*
X-00195314Y09074548D01*
X-00196776Y09074045D01*
X-00198249Y09073578D01*
X-00199734Y09073148D01*
X-00201229Y09072754D01*
X-00202733Y09072397D01*
X-00204246Y09072076D01*
X-00205766Y09071793D01*
X-00207292Y09071548D01*
X-00208824Y09071340D01*
X-00210361Y09071169D01*
X-00211901Y09071037D01*
X-00213444Y09070942D01*
X-00214989Y09070885D01*
X-00216535Y09070866D01*
X-00218081Y09070885D01*
X-00219626Y09070942D01*
X-00221169Y09071037D01*
X-00222709Y09071169D01*
X-00224246Y09071340D01*
X-00225778Y09071548D01*
X-00227304Y09071793D01*
X-00228824Y09072076D01*
X-00230337Y09072397D01*
X-00231841Y09072754D01*
X-00233336Y09073148D01*
X-00234821Y09073578D01*
X-00236294Y09074045D01*
X-00237756Y09074548D01*
X-00239206Y09075087D01*
X-00240641Y09075661D01*
X-00242062Y09076270D01*
X-00243468Y09076914D01*
X-00244857Y09077592D01*
X-00246229Y09078304D01*
X-00247584Y09079049D01*
X-00248919Y09079828D01*
X-00250236Y09080639D01*
X-00251531Y09081482D01*
X-00252806Y09082357D01*
X-00254059Y09083262D01*
X-00255290Y09084198D01*
X-00256497Y09085165D01*
X-00257680Y09086160D01*
X-00258838Y09087184D01*
X-00259971Y09088236D01*
X-00261077Y09089316D01*
X-00262157Y09090422D01*
X-00263209Y09091555D01*
X-00264233Y09092713D01*
X-00265228Y09093896D01*
X-00266195Y09095103D01*
X-00267131Y09096334D01*
X-00268036Y09097587D01*
X-00268911Y09098862D01*
X-00269754Y09100157D01*
X-00270565Y09101474D01*
X-00271344Y09102809D01*
X-00272089Y09104164D01*
X-00272801Y09105536D01*
X-00273479Y09106925D01*
X-00274123Y09108331D01*
X-00274732Y09109752D01*
X-00275306Y09111187D01*
X-00275845Y09112637D01*
X-00276348Y09114099D01*
X-00276815Y09115572D01*
X-00277245Y09117057D01*
X-00277639Y09118552D01*
X-00277996Y09120056D01*
X-00278317Y09121569D01*
X-00278600Y09123089D01*
X-00278845Y09124615D01*
X-00279053Y09126147D01*
X-00279224Y09127684D01*
X-00279356Y09129224D01*
X-00279451Y09130767D01*
X-00279508Y09132312D01*
X-00279527Y09133858D01*
X08110236Y08228346D02*
X08110272Y08231245D01*
X08110378Y08234141D01*
X08110556Y08237035D01*
X08110805Y08239923D01*
X08111124Y08242804D01*
X08111514Y08245676D01*
X08111975Y08248538D01*
X08112505Y08251388D01*
X08113106Y08254224D01*
X08113776Y08257044D01*
X08114514Y08259847D01*
X08115322Y08262632D01*
X08116197Y08265395D01*
X08117140Y08268136D01*
X08118150Y08270853D01*
X08119227Y08273545D01*
X08120369Y08276209D01*
X08121576Y08278845D01*
X08122847Y08281450D01*
X08124182Y08284023D01*
X08125580Y08286562D01*
X08127040Y08289067D01*
X08128560Y08291535D01*
X08130141Y08293964D01*
X08131781Y08296355D01*
X08133479Y08298704D01*
X08135234Y08301011D01*
X08137046Y08303274D01*
X08138912Y08305492D01*
X08140832Y08307664D01*
X08142805Y08309788D01*
X08144830Y08311862D01*
X08146904Y08313887D01*
X08149028Y08315860D01*
X08151200Y08317780D01*
X08153418Y08319646D01*
X08155681Y08321458D01*
X08157988Y08323213D01*
X08160337Y08324911D01*
X08162728Y08326551D01*
X08165157Y08328132D01*
X08167625Y08329652D01*
X08170130Y08331112D01*
X08172669Y08332510D01*
X08175242Y08333845D01*
X08177847Y08335116D01*
X08180483Y08336323D01*
X08183147Y08337465D01*
X08185839Y08338542D01*
X08188556Y08339552D01*
X08191297Y08340495D01*
X08194060Y08341370D01*
X08196845Y08342178D01*
X08199648Y08342916D01*
X08202468Y08343586D01*
X08205304Y08344187D01*
X08208154Y08344717D01*
X08211016Y08345178D01*
X08213888Y08345568D01*
X08216769Y08345887D01*
X08219657Y08346136D01*
X08222551Y08346314D01*
X08225447Y08346420D01*
X08228346Y08346456D01*
X08231245Y08346420D01*
X08234141Y08346314D01*
X08237035Y08346136D01*
X08239923Y08345887D01*
X08242804Y08345568D01*
X08245676Y08345178D01*
X08248538Y08344717D01*
X08251388Y08344187D01*
X08254224Y08343586D01*
X08257044Y08342916D01*
X08259847Y08342178D01*
X08262632Y08341370D01*
X08265395Y08340495D01*
X08268136Y08339552D01*
X08270853Y08338542D01*
X08273545Y08337465D01*
X08276209Y08336323D01*
X08278845Y08335116D01*
X08281450Y08333845D01*
X08284023Y08332510D01*
X08286562Y08331112D01*
X08289067Y08329652D01*
X08291535Y08328132D01*
X08293964Y08326551D01*
X08296355Y08324911D01*
X08298704Y08323213D01*
X08301011Y08321458D01*
X08303274Y08319646D01*
X08305492Y08317780D01*
X08307664Y08315860D01*
X08309788Y08313887D01*
X08311862Y08311862D01*
X08313887Y08309788D01*
X08315860Y08307664D01*
X08317780Y08305492D01*
X08319646Y08303274D01*
X08321458Y08301011D01*
X08323213Y08298704D01*
X08324911Y08296355D01*
X08326551Y08293964D01*
X08328132Y08291535D01*
X08329652Y08289067D01*
X08331112Y08286562D01*
X08332510Y08284023D01*
X08333845Y08281450D01*
X08335116Y08278845D01*
X08336323Y08276209D01*
X08337465Y08273545D01*
X08338542Y08270853D01*
X08339552Y08268136D01*
X08340495Y08265395D01*
X08341370Y08262632D01*
X08342178Y08259847D01*
X08342916Y08257044D01*
X08343586Y08254224D01*
X08344187Y08251388D01*
X08344717Y08248538D01*
X08345178Y08245676D01*
X08345568Y08242804D01*
X08345887Y08239923D01*
X08346136Y08237035D01*
X08346314Y08234141D01*
X08346420Y08231245D01*
X08346456Y08228346D01*
X08346420Y08225447D01*
X08346314Y08222551D01*
X08346136Y08219657D01*
X08345887Y08216769D01*
X08345568Y08213888D01*
X08345178Y08211016D01*
X08344717Y08208154D01*
X08344187Y08205304D01*
X08343586Y08202468D01*
X08342916Y08199648D01*
X08342178Y08196845D01*
X08341370Y08194060D01*
X08340495Y08191297D01*
X08339552Y08188556D01*
X08338542Y08185839D01*
X08337465Y08183147D01*
X08336323Y08180483D01*
X08335116Y08177847D01*
X08333845Y08175242D01*
X08332510Y08172669D01*
X08331112Y08170130D01*
X08329652Y08167625D01*
X08328132Y08165157D01*
X08326551Y08162728D01*
X08324911Y08160337D01*
X08323213Y08157988D01*
X08321458Y08155681D01*
X08319646Y08153418D01*
X08317780Y08151200D01*
X08315860Y08149028D01*
X08313887Y08146904D01*
X08311862Y08144830D01*
X08309788Y08142805D01*
X08307664Y08140832D01*
X08305492Y08138912D01*
X08303274Y08137046D01*
X08301011Y08135234D01*
X08298704Y08133479D01*
X08296355Y08131781D01*
X08293964Y08130141D01*
X08291535Y08128560D01*
X08289067Y08127040D01*
X08286562Y08125580D01*
X08284023Y08124182D01*
X08281450Y08122847D01*
X08278845Y08121576D01*
X08276209Y08120369D01*
X08273545Y08119227D01*
X08270853Y08118150D01*
X08268136Y08117140D01*
X08265395Y08116197D01*
X08262632Y08115322D01*
X08259847Y08114514D01*
X08257044Y08113776D01*
X08254224Y08113106D01*
X08251388Y08112505D01*
X08248538Y08111975D01*
X08245676Y08111514D01*
X08242804Y08111124D01*
X08239923Y08110805D01*
X08237035Y08110556D01*
X08234141Y08110378D01*
X08231245Y08110272D01*
X08228346Y08110236D01*
X08225447Y08110272D01*
X08222551Y08110378D01*
X08219657Y08110556D01*
X08216769Y08110805D01*
X08213888Y08111124D01*
X08211016Y08111514D01*
X08208154Y08111975D01*
X08205304Y08112505D01*
X08202468Y08113106D01*
X08199648Y08113776D01*
X08196845Y08114514D01*
X08194060Y08115322D01*
X08191297Y08116197D01*
X08188556Y08117140D01*
X08185839Y08118150D01*
X08183147Y08119227D01*
X08180483Y08120369D01*
X08177847Y08121576D01*
X08175242Y08122847D01*
X08172669Y08124182D01*
X08170130Y08125580D01*
X08167625Y08127040D01*
X08165157Y08128560D01*
X08162728Y08130141D01*
X08160337Y08131781D01*
X08157988Y08133479D01*
X08155681Y08135234D01*
X08153418Y08137046D01*
X08151200Y08138912D01*
X08149028Y08140832D01*
X08146904Y08142805D01*
X08144830Y08144830D01*
X08142805Y08146904D01*
X08140832Y08149028D01*
X08138912Y08151200D01*
X08137046Y08153418D01*
X08135234Y08155681D01*
X08133479Y08157988D01*
X08131781Y08160337D01*
X08130141Y08162728D01*
X08128560Y08165157D01*
X08127040Y08167625D01*
X08125580Y08170130D01*
X08124182Y08172669D01*
X08122847Y08175242D01*
X08121576Y08177847D01*
X08120369Y08180483D01*
X08119227Y08183147D01*
X08118150Y08185839D01*
X08117140Y08188556D01*
X08116197Y08191297D01*
X08115322Y08194060D01*
X08114514Y08196845D01*
X08113776Y08199648D01*
X08113106Y08202468D01*
X08112505Y08205304D01*
X08111975Y08208154D01*
X08111514Y08211016D01*
X08111124Y08213888D01*
X08110805Y08216769D01*
X08110556Y08219657D01*
X08110378Y08222551D01*
X08110272Y08225447D01*
X08110236Y08228346D01*
X08165354Y08228346D02*
X08165373Y08229892D01*
X08165430Y08231437D01*
X08165525Y08232980D01*
X08165657Y08234520D01*
X08165828Y08236057D01*
X08166036Y08237589D01*
X08166281Y08239115D01*
X08166564Y08240635D01*
X08166885Y08242148D01*
X08167242Y08243652D01*
X08167636Y08245147D01*
X08168066Y08246632D01*
X08168533Y08248105D01*
X08169036Y08249567D01*
X08169575Y08251017D01*
X08170149Y08252452D01*
X08170758Y08253873D01*
X08171402Y08255279D01*
X08172080Y08256668D01*
X08172792Y08258040D01*
X08173537Y08259395D01*
X08174316Y08260730D01*
X08175127Y08262047D01*
X08175970Y08263342D01*
X08176845Y08264617D01*
X08177750Y08265870D01*
X08178686Y08267101D01*
X08179653Y08268308D01*
X08180648Y08269491D01*
X08181672Y08270649D01*
X08182724Y08271782D01*
X08183804Y08272888D01*
X08184910Y08273968D01*
X08186043Y08275020D01*
X08187201Y08276044D01*
X08188384Y08277039D01*
X08189591Y08278006D01*
X08190822Y08278942D01*
X08192075Y08279847D01*
X08193350Y08280722D01*
X08194645Y08281565D01*
X08195962Y08282376D01*
X08197297Y08283155D01*
X08198652Y08283900D01*
X08200024Y08284612D01*
X08201413Y08285290D01*
X08202819Y08285934D01*
X08204240Y08286543D01*
X08205675Y08287117D01*
X08207125Y08287656D01*
X08208587Y08288159D01*
X08210060Y08288626D01*
X08211545Y08289056D01*
X08213040Y08289450D01*
X08214544Y08289807D01*
X08216057Y08290128D01*
X08217577Y08290411D01*
X08219103Y08290656D01*
X08220635Y08290864D01*
X08222172Y08291035D01*
X08223712Y08291167D01*
X08225255Y08291262D01*
X08226800Y08291319D01*
X08228346Y08291338D01*
X08229892Y08291319D01*
X08231437Y08291262D01*
X08232980Y08291167D01*
X08234520Y08291035D01*
X08236057Y08290864D01*
X08237589Y08290656D01*
X08239115Y08290411D01*
X08240635Y08290128D01*
X08242148Y08289807D01*
X08243652Y08289450D01*
X08245147Y08289056D01*
X08246632Y08288626D01*
X08248105Y08288159D01*
X08249567Y08287656D01*
X08251017Y08287117D01*
X08252452Y08286543D01*
X08253873Y08285934D01*
X08255279Y08285290D01*
X08256668Y08284612D01*
X08258040Y08283900D01*
X08259395Y08283155D01*
X08260730Y08282376D01*
X08262047Y08281565D01*
X08263342Y08280722D01*
X08264617Y08279847D01*
X08265870Y08278942D01*
X08267101Y08278006D01*
X08268308Y08277039D01*
X08269491Y08276044D01*
X08270649Y08275020D01*
X08271782Y08273968D01*
X08272888Y08272888D01*
X08273968Y08271782D01*
X08275020Y08270649D01*
X08276044Y08269491D01*
X08277039Y08268308D01*
X08278006Y08267101D01*
X08278942Y08265870D01*
X08279847Y08264617D01*
X08280722Y08263342D01*
X08281565Y08262047D01*
X08282376Y08260730D01*
X08283155Y08259395D01*
X08283900Y08258040D01*
X08284612Y08256668D01*
X08285290Y08255279D01*
X08285934Y08253873D01*
X08286543Y08252452D01*
X08287117Y08251017D01*
X08287656Y08249567D01*
X08288159Y08248105D01*
X08288626Y08246632D01*
X08289056Y08245147D01*
X08289450Y08243652D01*
X08289807Y08242148D01*
X08290128Y08240635D01*
X08290411Y08239115D01*
X08290656Y08237589D01*
X08290864Y08236057D01*
X08291035Y08234520D01*
X08291167Y08232980D01*
X08291262Y08231437D01*
X08291319Y08229892D01*
X08291338Y08228346D01*
X08291319Y08226800D01*
X08291262Y08225255D01*
X08291167Y08223712D01*
X08291035Y08222172D01*
X08290864Y08220635D01*
X08290656Y08219103D01*
X08290411Y08217577D01*
X08290128Y08216057D01*
X08289807Y08214544D01*
X08289450Y08213040D01*
X08289056Y08211545D01*
X08288626Y08210060D01*
X08288159Y08208587D01*
X08287656Y08207125D01*
X08287117Y08205675D01*
X08286543Y08204240D01*
X08285934Y08202819D01*
X08285290Y08201413D01*
X08284612Y08200024D01*
X08283900Y08198652D01*
X08283155Y08197297D01*
X08282376Y08195962D01*
X08281565Y08194645D01*
X08280722Y08193350D01*
X08279847Y08192075D01*
X08278942Y08190822D01*
X08278006Y08189591D01*
X08277039Y08188384D01*
X08276044Y08187201D01*
X08275020Y08186043D01*
X08273968Y08184910D01*
X08272888Y08183804D01*
X08271782Y08182724D01*
X08270649Y08181672D01*
X08269491Y08180648D01*
X08268308Y08179653D01*
X08267101Y08178686D01*
X08265870Y08177750D01*
X08264617Y08176845D01*
X08263342Y08175970D01*
X08262047Y08175127D01*
X08260730Y08174316D01*
X08259395Y08173537D01*
X08258040Y08172792D01*
X08256668Y08172080D01*
X08255279Y08171402D01*
X08253873Y08170758D01*
X08252452Y08170149D01*
X08251017Y08169575D01*
X08249567Y08169036D01*
X08248105Y08168533D01*
X08246632Y08168066D01*
X08245147Y08167636D01*
X08243652Y08167242D01*
X08242148Y08166885D01*
X08240635Y08166564D01*
X08239115Y08166281D01*
X08237589Y08166036D01*
X08236057Y08165828D01*
X08234520Y08165657D01*
X08232980Y08165525D01*
X08231437Y08165430D01*
X08229892Y08165373D01*
X08228346Y08165354D01*
X08226800Y08165373D01*
X08225255Y08165430D01*
X08223712Y08165525D01*
X08222172Y08165657D01*
X08220635Y08165828D01*
X08219103Y08166036D01*
X08217577Y08166281D01*
X08216057Y08166564D01*
X08214544Y08166885D01*
X08213040Y08167242D01*
X08211545Y08167636D01*
X08210060Y08168066D01*
X08208587Y08168533D01*
X08207125Y08169036D01*
X08205675Y08169575D01*
X08204240Y08170149D01*
X08202819Y08170758D01*
X08201413Y08171402D01*
X08200024Y08172080D01*
X08198652Y08172792D01*
X08197297Y08173537D01*
X08195962Y08174316D01*
X08194645Y08175127D01*
X08193350Y08175970D01*
X08192075Y08176845D01*
X08190822Y08177750D01*
X08189591Y08178686D01*
X08188384Y08179653D01*
X08187201Y08180648D01*
X08186043Y08181672D01*
X08184910Y08182724D01*
X08183804Y08183804D01*
X08182724Y08184910D01*
X08181672Y08186043D01*
X08180648Y08187201D01*
X08179653Y08188384D01*
X08178686Y08189591D01*
X08177750Y08190822D01*
X08176845Y08192075D01*
X08175970Y08193350D01*
X08175127Y08194645D01*
X08174316Y08195962D01*
X08173537Y08197297D01*
X08172792Y08198652D01*
X08172080Y08200024D01*
X08171402Y08201413D01*
X08170758Y08202819D01*
X08170149Y08204240D01*
X08169575Y08205675D01*
X08169036Y08207125D01*
X08168533Y08208587D01*
X08168066Y08210060D01*
X08167636Y08211545D01*
X08167242Y08213040D01*
X08166885Y08214544D01*
X08166564Y08216057D01*
X08166281Y08217577D01*
X08166036Y08219103D01*
X08165828Y08220635D01*
X08165657Y08222172D01*
X08165525Y08223712D01*
X08165430Y08225255D01*
X08165373Y08226800D01*
X08165354Y08228346D01*
X08110236Y00000000D02*
X08110272Y00002899D01*
X08110378Y00005795D01*
X08110556Y00008689D01*
X08110805Y00011577D01*
X08111124Y00014458D01*
X08111514Y00017330D01*
X08111975Y00020192D01*
X08112505Y00023042D01*
X08113106Y00025878D01*
X08113776Y00028698D01*
X08114514Y00031501D01*
X08115322Y00034286D01*
X08116197Y00037049D01*
X08117140Y00039790D01*
X08118150Y00042507D01*
X08119227Y00045199D01*
X08120369Y00047863D01*
X08121576Y00050499D01*
X08122847Y00053104D01*
X08124182Y00055677D01*
X08125580Y00058216D01*
X08127040Y00060721D01*
X08128560Y00063189D01*
X08130141Y00065618D01*
X08131781Y00068009D01*
X08133479Y00070358D01*
X08135234Y00072665D01*
X08137046Y00074928D01*
X08138912Y00077146D01*
X08140832Y00079318D01*
X08142805Y00081442D01*
X08144830Y00083516D01*
X08146904Y00085541D01*
X08149028Y00087514D01*
X08151200Y00089434D01*
X08153418Y00091300D01*
X08155681Y00093112D01*
X08157988Y00094867D01*
X08160337Y00096565D01*
X08162728Y00098205D01*
X08165157Y00099786D01*
X08167625Y00101306D01*
X08170130Y00102766D01*
X08172669Y00104164D01*
X08175242Y00105499D01*
X08177847Y00106770D01*
X08180483Y00107977D01*
X08183147Y00109119D01*
X08185839Y00110196D01*
X08188556Y00111206D01*
X08191297Y00112149D01*
X08194060Y00113024D01*
X08196845Y00113832D01*
X08199648Y00114570D01*
X08202468Y00115240D01*
X08205304Y00115841D01*
X08208154Y00116371D01*
X08211016Y00116832D01*
X08213888Y00117222D01*
X08216769Y00117541D01*
X08219657Y00117790D01*
X08222551Y00117968D01*
X08225447Y00118074D01*
X08228346Y00118110D01*
X08231245Y00118074D01*
X08234141Y00117968D01*
X08237035Y00117790D01*
X08239923Y00117541D01*
X08242804Y00117222D01*
X08245676Y00116832D01*
X08248538Y00116371D01*
X08251388Y00115841D01*
X08254224Y00115240D01*
X08257044Y00114570D01*
X08259847Y00113832D01*
X08262632Y00113024D01*
X08265395Y00112149D01*
X08268136Y00111206D01*
X08270853Y00110196D01*
X08273545Y00109119D01*
X08276209Y00107977D01*
X08278845Y00106770D01*
X08281450Y00105499D01*
X08284023Y00104164D01*
X08286562Y00102766D01*
X08289067Y00101306D01*
X08291535Y00099786D01*
X08293964Y00098205D01*
X08296355Y00096565D01*
X08298704Y00094867D01*
X08301011Y00093112D01*
X08303274Y00091300D01*
X08305492Y00089434D01*
X08307664Y00087514D01*
X08309788Y00085541D01*
X08311862Y00083516D01*
X08313887Y00081442D01*
X08315860Y00079318D01*
X08317780Y00077146D01*
X08319646Y00074928D01*
X08321458Y00072665D01*
X08323213Y00070358D01*
X08324911Y00068009D01*
X08326551Y00065618D01*
X08328132Y00063189D01*
X08329652Y00060721D01*
X08331112Y00058216D01*
X08332510Y00055677D01*
X08333845Y00053104D01*
X08335116Y00050499D01*
X08336323Y00047863D01*
X08337465Y00045199D01*
X08338542Y00042507D01*
X08339552Y00039790D01*
X08340495Y00037049D01*
X08341370Y00034286D01*
X08342178Y00031501D01*
X08342916Y00028698D01*
X08343586Y00025878D01*
X08344187Y00023042D01*
X08344717Y00020192D01*
X08345178Y00017330D01*
X08345568Y00014458D01*
X08345887Y00011577D01*
X08346136Y00008689D01*
X08346314Y00005795D01*
X08346420Y00002899D01*
X08346456Y00000000D01*
X08346420Y-00002899D01*
X08346314Y-00005795D01*
X08346136Y-00008689D01*
X08345887Y-00011577D01*
X08345568Y-00014458D01*
X08345178Y-00017330D01*
X08344717Y-00020192D01*
X08344187Y-00023042D01*
X08343586Y-00025878D01*
X08342916Y-00028698D01*
X08342178Y-00031501D01*
X08341370Y-00034286D01*
X08340495Y-00037049D01*
X08339552Y-00039790D01*
X08338542Y-00042507D01*
X08337465Y-00045199D01*
X08336323Y-00047863D01*
X08335116Y-00050499D01*
X08333845Y-00053104D01*
X08332510Y-00055677D01*
X08331112Y-00058216D01*
X08329652Y-00060721D01*
X08328132Y-00063189D01*
X08326551Y-00065618D01*
X08324911Y-00068009D01*
X08323213Y-00070358D01*
X08321458Y-00072665D01*
X08319646Y-00074928D01*
X08317780Y-00077146D01*
X08315860Y-00079318D01*
X08313887Y-00081442D01*
X08311862Y-00083516D01*
X08309788Y-00085541D01*
X08307664Y-00087514D01*
X08305492Y-00089434D01*
X08303274Y-00091300D01*
X08301011Y-00093112D01*
X08298704Y-00094867D01*
X08296355Y-00096565D01*
X08293964Y-00098205D01*
X08291535Y-00099786D01*
X08289067Y-00101306D01*
X08286562Y-00102766D01*
X08284023Y-00104164D01*
X08281450Y-00105499D01*
X08278845Y-00106770D01*
X08276209Y-00107977D01*
X08273545Y-00109119D01*
X08270853Y-00110196D01*
X08268136Y-00111206D01*
X08265395Y-00112149D01*
X08262632Y-00113024D01*
X08259847Y-00113832D01*
X08257044Y-00114570D01*
X08254224Y-00115240D01*
X08251388Y-00115841D01*
X08248538Y-00116371D01*
X08245676Y-00116832D01*
X08242804Y-00117222D01*
X08239923Y-00117541D01*
X08237035Y-00117790D01*
X08234141Y-00117968D01*
X08231245Y-00118074D01*
X08228346Y-00118110D01*
X08225447Y-00118074D01*
X08222551Y-00117968D01*
X08219657Y-00117790D01*
X08216769Y-00117541D01*
X08213888Y-00117222D01*
X08211016Y-00116832D01*
X08208154Y-00116371D01*
X08205304Y-00115841D01*
X08202468Y-00115240D01*
X08199648Y-00114570D01*
X08196845Y-00113832D01*
X08194060Y-00113024D01*
X08191297Y-00112149D01*
X08188556Y-00111206D01*
X08185839Y-00110196D01*
X08183147Y-00109119D01*
X08180483Y-00107977D01*
X08177847Y-00106770D01*
X08175242Y-00105499D01*
X08172669Y-00104164D01*
X08170130Y-00102766D01*
X08167625Y-00101306D01*
X08165157Y-00099786D01*
X08162728Y-00098205D01*
X08160337Y-00096565D01*
X08157988Y-00094867D01*
X08155681Y-00093112D01*
X08153418Y-00091300D01*
X08151200Y-00089434D01*
X08149028Y-00087514D01*
X08146904Y-00085541D01*
X08144830Y-00083516D01*
X08142805Y-00081442D01*
X08140832Y-00079318D01*
X08138912Y-00077146D01*
X08137046Y-00074928D01*
X08135234Y-00072665D01*
X08133479Y-00070358D01*
X08131781Y-00068009D01*
X08130141Y-00065618D01*
X08128560Y-00063189D01*
X08127040Y-00060721D01*
X08125580Y-00058216D01*
X08124182Y-00055677D01*
X08122847Y-00053104D01*
X08121576Y-00050499D01*
X08120369Y-00047863D01*
X08119227Y-00045199D01*
X08118150Y-00042507D01*
X08117140Y-00039790D01*
X08116197Y-00037049D01*
X08115322Y-00034286D01*
X08114514Y-00031501D01*
X08113776Y-00028698D01*
X08113106Y-00025878D01*
X08112505Y-00023042D01*
X08111975Y-00020192D01*
X08111514Y-00017330D01*
X08111124Y-00014458D01*
X08110805Y-00011577D01*
X08110556Y-00008689D01*
X08110378Y-00005795D01*
X08110272Y-00002899D01*
X08110236Y00000000D01*
X08165354Y00000000D02*
X08165373Y00001546D01*
X08165430Y00003091D01*
X08165525Y00004634D01*
X08165657Y00006174D01*
X08165828Y00007711D01*
X08166036Y00009243D01*
X08166281Y00010769D01*
X08166564Y00012289D01*
X08166885Y00013802D01*
X08167242Y00015306D01*
X08167636Y00016801D01*
X08168066Y00018286D01*
X08168533Y00019759D01*
X08169036Y00021221D01*
X08169575Y00022671D01*
X08170149Y00024106D01*
X08170758Y00025527D01*
X08171402Y00026933D01*
X08172080Y00028322D01*
X08172792Y00029694D01*
X08173537Y00031049D01*
X08174316Y00032384D01*
X08175127Y00033701D01*
X08175970Y00034996D01*
X08176845Y00036271D01*
X08177750Y00037524D01*
X08178686Y00038755D01*
X08179653Y00039962D01*
X08180648Y00041145D01*
X08181672Y00042303D01*
X08182724Y00043436D01*
X08183804Y00044542D01*
X08184910Y00045622D01*
X08186043Y00046674D01*
X08187201Y00047698D01*
X08188384Y00048693D01*
X08189591Y00049660D01*
X08190822Y00050596D01*
X08192075Y00051501D01*
X08193350Y00052376D01*
X08194645Y00053219D01*
X08195962Y00054030D01*
X08197297Y00054809D01*
X08198652Y00055554D01*
X08200024Y00056266D01*
X08201413Y00056944D01*
X08202819Y00057588D01*
X08204240Y00058197D01*
X08205675Y00058771D01*
X08207125Y00059310D01*
X08208587Y00059813D01*
X08210060Y00060280D01*
X08211545Y00060710D01*
X08213040Y00061104D01*
X08214544Y00061461D01*
X08216057Y00061782D01*
X08217577Y00062065D01*
X08219103Y00062310D01*
X08220635Y00062518D01*
X08222172Y00062689D01*
X08223712Y00062821D01*
X08225255Y00062916D01*
X08226800Y00062973D01*
X08228346Y00062992D01*
X08229892Y00062973D01*
X08231437Y00062916D01*
X08232980Y00062821D01*
X08234520Y00062689D01*
X08236057Y00062518D01*
X08237589Y00062310D01*
X08239115Y00062065D01*
X08240635Y00061782D01*
X08242148Y00061461D01*
X08243652Y00061104D01*
X08245147Y00060710D01*
X08246632Y00060280D01*
X08248105Y00059813D01*
X08249567Y00059310D01*
X08251017Y00058771D01*
X08252452Y00058197D01*
X08253873Y00057588D01*
X08255279Y00056944D01*
X08256668Y00056266D01*
X08258040Y00055554D01*
X08259395Y00054809D01*
X08260730Y00054030D01*
X08262047Y00053219D01*
X08263342Y00052376D01*
X08264617Y00051501D01*
X08265870Y00050596D01*
X08267101Y00049660D01*
X08268308Y00048693D01*
X08269491Y00047698D01*
X08270649Y00046674D01*
X08271782Y00045622D01*
X08272888Y00044542D01*
X08273968Y00043436D01*
X08275020Y00042303D01*
X08276044Y00041145D01*
X08277039Y00039962D01*
X08278006Y00038755D01*
X08278942Y00037524D01*
X08279847Y00036271D01*
X08280722Y00034996D01*
X08281565Y00033701D01*
X08282376Y00032384D01*
X08283155Y00031049D01*
X08283900Y00029694D01*
X08284612Y00028322D01*
X08285290Y00026933D01*
X08285934Y00025527D01*
X08286543Y00024106D01*
X08287117Y00022671D01*
X08287656Y00021221D01*
X08288159Y00019759D01*
X08288626Y00018286D01*
X08289056Y00016801D01*
X08289450Y00015306D01*
X08289807Y00013802D01*
X08290128Y00012289D01*
X08290411Y00010769D01*
X08290656Y00009243D01*
X08290864Y00007711D01*
X08291035Y00006174D01*
X08291167Y00004634D01*
X08291262Y00003091D01*
X08291319Y00001546D01*
X08291338Y00000000D01*
X08291319Y-00001546D01*
X08291262Y-00003091D01*
X08291167Y-00004634D01*
X08291035Y-00006174D01*
X08290864Y-00007711D01*
X08290656Y-00009243D01*
X08290411Y-00010769D01*
X08290128Y-00012289D01*
X08289807Y-00013802D01*
X08289450Y-00015306D01*
X08289056Y-00016801D01*
X08288626Y-00018286D01*
X08288159Y-00019759D01*
X08287656Y-00021221D01*
X08287117Y-00022671D01*
X08286543Y-00024106D01*
X08285934Y-00025527D01*
X08285290Y-00026933D01*
X08284612Y-00028322D01*
X08283900Y-00029694D01*
X08283155Y-00031049D01*
X08282376Y-00032384D01*
X08281565Y-00033701D01*
X08280722Y-00034996D01*
X08279847Y-00036271D01*
X08278942Y-00037524D01*
X08278006Y-00038755D01*
X08277039Y-00039962D01*
X08276044Y-00041145D01*
X08275020Y-00042303D01*
X08273968Y-00043436D01*
X08272888Y-00044542D01*
X08271782Y-00045622D01*
X08270649Y-00046674D01*
X08269491Y-00047698D01*
X08268308Y-00048693D01*
X08267101Y-00049660D01*
X08265870Y-00050596D01*
X08264617Y-00051501D01*
X08263342Y-00052376D01*
X08262047Y-00053219D01*
X08260730Y-00054030D01*
X08259395Y-00054809D01*
X08258040Y-00055554D01*
X08256668Y-00056266D01*
X08255279Y-00056944D01*
X08253873Y-00057588D01*
X08252452Y-00058197D01*
X08251017Y-00058771D01*
X08249567Y-00059310D01*
X08248105Y-00059813D01*
X08246632Y-00060280D01*
X08245147Y-00060710D01*
X08243652Y-00061104D01*
X08242148Y-00061461D01*
X08240635Y-00061782D01*
X08239115Y-00062065D01*
X08237589Y-00062310D01*
X08236057Y-00062518D01*
X08234520Y-00062689D01*
X08232980Y-00062821D01*
X08231437Y-00062916D01*
X08229892Y-00062973D01*
X08228346Y-00062992D01*
X08226800Y-00062973D01*
X08225255Y-00062916D01*
X08223712Y-00062821D01*
X08222172Y-00062689D01*
X08220635Y-00062518D01*
X08219103Y-00062310D01*
X08217577Y-00062065D01*
X08216057Y-00061782D01*
X08214544Y-00061461D01*
X08213040Y-00061104D01*
X08211545Y-00060710D01*
X08210060Y-00060280D01*
X08208587Y-00059813D01*
X08207125Y-00059310D01*
X08205675Y-00058771D01*
X08204240Y-00058197D01*
X08202819Y-00057588D01*
X08201413Y-00056944D01*
X08200024Y-00056266D01*
X08198652Y-00055554D01*
X08197297Y-00054809D01*
X08195962Y-00054030D01*
X08194645Y-00053219D01*
X08193350Y-00052376D01*
X08192075Y-00051501D01*
X08190822Y-00050596D01*
X08189591Y-00049660D01*
X08188384Y-00048693D01*
X08187201Y-00047698D01*
X08186043Y-00046674D01*
X08184910Y-00045622D01*
X08183804Y-00044542D01*
X08182724Y-00043436D01*
X08181672Y-00042303D01*
X08180648Y-00041145D01*
X08179653Y-00039962D01*
X08178686Y-00038755D01*
X08177750Y-00037524D01*
X08176845Y-00036271D01*
X08175970Y-00034996D01*
X08175127Y-00033701D01*
X08174316Y-00032384D01*
X08173537Y-00031049D01*
X08172792Y-00029694D01*
X08172080Y-00028322D01*
X08171402Y-00026933D01*
X08170758Y-00025527D01*
X08170149Y-00024106D01*
X08169575Y-00022671D01*
X08169036Y-00021221D01*
X08168533Y-00019759D01*
X08168066Y-00018286D01*
X08167636Y-00016801D01*
X08167242Y-00015306D01*
X08166885Y-00013802D01*
X08166564Y-00012289D01*
X08166281Y-00010769D01*
X08166036Y-00009243D01*
X08165828Y-00007711D01*
X08165657Y-00006174D01*
X08165525Y-00004634D01*
X08165430Y-00003091D01*
X08165373Y-00001546D01*
X08165354Y00000000D01*
D11*
X08897638Y-00393701D02*
X-00787402Y-00393701D01*
X-00944882Y-00236220D01*
X-00944882Y08700787D01*
X-00787402Y08858268D01*
X-00787402Y09385827D01*
X-00748031Y09425197D01*
X00314961Y09425197D01*
X00354331Y09385827D01*
X00354331Y08897638D01*
X00393701Y08858268D01*
X08897638Y08858268D01*
X09055118Y08700787D01*
X09055118Y-00236220D01*
X08897638Y-00393701D01*
M02*
