%
M48
M72
T01C0.02362
T02C0.03150
T03C0.03543
T04C0.03937
T05C0.04000
T06C0.04700
T07C0.09000
T08C0.12598
%
T01
X60600Y37600
X86100Y38850
X90600Y39600
X97600Y56100
X110100Y49850
X114600Y53850
X121100Y80350
X143350Y79850
X151600Y83600
X154850Y75350
X148350Y92350
X175850Y49850
X147850Y35350
X143850Y38600
X140850Y42850
X123100Y20350
X182600Y172600
T02
X98600Y170600
X127100Y80850
T03
X11600Y81100
X21600Y81100
X53600Y81100
X63600Y81100
X80100Y90100
X80100Y119850
X63600Y154100
X53600Y154100
X21600Y154100
X11600Y154100
T04
X123600Y101600
X123600Y111600
X123600Y121600
X123600Y131600
X123600Y141600
X123600Y151600
X123600Y161600
X123600Y171600
X132072Y189072
X142072Y189072
X152072Y189072
X162072Y189072
X173600Y171600
X173600Y161600
X173600Y151600
X173600Y141600
X173600Y131600
X173600Y121600
X173600Y111600
X173600Y101600
T05
X27600Y146100
X37600Y138600
X37600Y128600
X37600Y118600
X37600Y108600
X37600Y98600
X37600Y89100
X27600Y89100
X47600Y89100
X47600Y146100
X145600Y140600
X145600Y130600
X145600Y120600
X155600Y120600
X155600Y130600
X155600Y140600
X192350Y141600
X192350Y131600
X192350Y121600
X182600Y80600
X182600Y70600
X172600Y70600
X172600Y80600
X192600Y80600
X192600Y70600
X192350Y60600
X192350Y50600
X192350Y40600
X192350Y30600
X147100Y19350
X65600Y25600
X65600Y15600
X55600Y15600
X55600Y25600
X45600Y25600
X45600Y15600
X192350Y151600
T06
X36600Y183100
X56600Y183100
T07
X63600Y118600
X11600Y118600
T08
X14411Y14411
X106167Y96356
X187663Y96356
X187639Y14411
X187663Y187694
X106167Y187694
X14411Y187639
M30
