G75*
%MOIN*%
%OFA0B0*%
%FSLAX25Y25*%
%IPPOS*%
%LPD*%
%AMOC8*
5,1,8,0,0,1.08239X$1,22.5*
%
%ADD10C,0.00000*%
%ADD11C,0.00300*%
%ADD12C,0.00500*%
%ADD13C,0.00400*%
%ADD14C,0.00800*%
%ADD15C,0.00600*%
%ADD16C,0.00276*%
%ADD17R,0.07087X0.02362*%
%ADD18R,0.04331X0.02362*%
%ADD19C,0.00700*%
%ADD20R,0.00591X0.01181*%
%ADD21R,0.01181X0.01181*%
%ADD22C,0.00100*%
%ADD23C,0.00866*%
%ADD24R,0.00394X0.05906*%
%ADD25R,0.00394X0.07087*%
%ADD26R,0.00394X0.06693*%
%ADD27R,0.00394X0.06299*%
%ADD28R,0.00394X0.05512*%
%ADD29R,0.00394X0.05118*%
%ADD30R,0.00394X0.04331*%
%ADD31R,0.00394X0.01575*%
%ADD32R,0.00394X0.08661*%
%ADD33R,0.00394X0.12992*%
%ADD34R,0.00394X0.14961*%
%ADD35R,0.00394X0.01181*%
%ADD36R,0.00394X0.13780*%
%ADD37R,0.00394X0.14173*%
%ADD38R,0.00394X0.14567*%
%ADD39R,0.00394X0.13386*%
%ADD40R,0.00394X0.12205*%
%ADD41R,0.00394X0.11417*%
%ADD42R,0.00394X0.10630*%
%ADD43R,0.00394X0.09843*%
%ADD44R,0.00394X0.09055*%
%ADD45R,0.00394X0.01969*%
%ADD46R,0.00394X0.07480*%
%ADD47R,0.00394X0.04724*%
D10*
X0002600Y0002600D02*
X0002600Y0199450D01*
X0199450Y0199450D01*
X0199450Y0002600D01*
X0002600Y0002600D01*
X0008112Y0014411D02*
X0008114Y0014569D01*
X0008120Y0014727D01*
X0008130Y0014885D01*
X0008144Y0015043D01*
X0008162Y0015200D01*
X0008183Y0015357D01*
X0008209Y0015513D01*
X0008239Y0015669D01*
X0008272Y0015824D01*
X0008310Y0015977D01*
X0008351Y0016130D01*
X0008396Y0016282D01*
X0008445Y0016433D01*
X0008498Y0016582D01*
X0008554Y0016730D01*
X0008614Y0016876D01*
X0008678Y0017021D01*
X0008746Y0017164D01*
X0008817Y0017306D01*
X0008891Y0017446D01*
X0008969Y0017583D01*
X0009051Y0017719D01*
X0009135Y0017853D01*
X0009224Y0017984D01*
X0009315Y0018113D01*
X0009410Y0018240D01*
X0009507Y0018365D01*
X0009608Y0018487D01*
X0009712Y0018606D01*
X0009819Y0018723D01*
X0009929Y0018837D01*
X0010042Y0018948D01*
X0010157Y0019057D01*
X0010275Y0019162D01*
X0010396Y0019264D01*
X0010519Y0019364D01*
X0010645Y0019460D01*
X0010773Y0019553D01*
X0010903Y0019643D01*
X0011036Y0019729D01*
X0011171Y0019813D01*
X0011307Y0019892D01*
X0011446Y0019969D01*
X0011587Y0020041D01*
X0011729Y0020111D01*
X0011873Y0020176D01*
X0012019Y0020238D01*
X0012166Y0020296D01*
X0012315Y0020351D01*
X0012465Y0020402D01*
X0012616Y0020449D01*
X0012768Y0020492D01*
X0012921Y0020531D01*
X0013076Y0020567D01*
X0013231Y0020598D01*
X0013387Y0020626D01*
X0013543Y0020650D01*
X0013700Y0020670D01*
X0013858Y0020686D01*
X0014015Y0020698D01*
X0014174Y0020706D01*
X0014332Y0020710D01*
X0014490Y0020710D01*
X0014648Y0020706D01*
X0014807Y0020698D01*
X0014964Y0020686D01*
X0015122Y0020670D01*
X0015279Y0020650D01*
X0015435Y0020626D01*
X0015591Y0020598D01*
X0015746Y0020567D01*
X0015901Y0020531D01*
X0016054Y0020492D01*
X0016206Y0020449D01*
X0016357Y0020402D01*
X0016507Y0020351D01*
X0016656Y0020296D01*
X0016803Y0020238D01*
X0016949Y0020176D01*
X0017093Y0020111D01*
X0017235Y0020041D01*
X0017376Y0019969D01*
X0017515Y0019892D01*
X0017651Y0019813D01*
X0017786Y0019729D01*
X0017919Y0019643D01*
X0018049Y0019553D01*
X0018177Y0019460D01*
X0018303Y0019364D01*
X0018426Y0019264D01*
X0018547Y0019162D01*
X0018665Y0019057D01*
X0018780Y0018948D01*
X0018893Y0018837D01*
X0019003Y0018723D01*
X0019110Y0018606D01*
X0019214Y0018487D01*
X0019315Y0018365D01*
X0019412Y0018240D01*
X0019507Y0018113D01*
X0019598Y0017984D01*
X0019687Y0017853D01*
X0019771Y0017719D01*
X0019853Y0017583D01*
X0019931Y0017446D01*
X0020005Y0017306D01*
X0020076Y0017164D01*
X0020144Y0017021D01*
X0020208Y0016876D01*
X0020268Y0016730D01*
X0020324Y0016582D01*
X0020377Y0016433D01*
X0020426Y0016282D01*
X0020471Y0016130D01*
X0020512Y0015977D01*
X0020550Y0015824D01*
X0020583Y0015669D01*
X0020613Y0015513D01*
X0020639Y0015357D01*
X0020660Y0015200D01*
X0020678Y0015043D01*
X0020692Y0014885D01*
X0020702Y0014727D01*
X0020708Y0014569D01*
X0020710Y0014411D01*
X0020708Y0014253D01*
X0020702Y0014095D01*
X0020692Y0013937D01*
X0020678Y0013779D01*
X0020660Y0013622D01*
X0020639Y0013465D01*
X0020613Y0013309D01*
X0020583Y0013153D01*
X0020550Y0012998D01*
X0020512Y0012845D01*
X0020471Y0012692D01*
X0020426Y0012540D01*
X0020377Y0012389D01*
X0020324Y0012240D01*
X0020268Y0012092D01*
X0020208Y0011946D01*
X0020144Y0011801D01*
X0020076Y0011658D01*
X0020005Y0011516D01*
X0019931Y0011376D01*
X0019853Y0011239D01*
X0019771Y0011103D01*
X0019687Y0010969D01*
X0019598Y0010838D01*
X0019507Y0010709D01*
X0019412Y0010582D01*
X0019315Y0010457D01*
X0019214Y0010335D01*
X0019110Y0010216D01*
X0019003Y0010099D01*
X0018893Y0009985D01*
X0018780Y0009874D01*
X0018665Y0009765D01*
X0018547Y0009660D01*
X0018426Y0009558D01*
X0018303Y0009458D01*
X0018177Y0009362D01*
X0018049Y0009269D01*
X0017919Y0009179D01*
X0017786Y0009093D01*
X0017651Y0009009D01*
X0017515Y0008930D01*
X0017376Y0008853D01*
X0017235Y0008781D01*
X0017093Y0008711D01*
X0016949Y0008646D01*
X0016803Y0008584D01*
X0016656Y0008526D01*
X0016507Y0008471D01*
X0016357Y0008420D01*
X0016206Y0008373D01*
X0016054Y0008330D01*
X0015901Y0008291D01*
X0015746Y0008255D01*
X0015591Y0008224D01*
X0015435Y0008196D01*
X0015279Y0008172D01*
X0015122Y0008152D01*
X0014964Y0008136D01*
X0014807Y0008124D01*
X0014648Y0008116D01*
X0014490Y0008112D01*
X0014332Y0008112D01*
X0014174Y0008116D01*
X0014015Y0008124D01*
X0013858Y0008136D01*
X0013700Y0008152D01*
X0013543Y0008172D01*
X0013387Y0008196D01*
X0013231Y0008224D01*
X0013076Y0008255D01*
X0012921Y0008291D01*
X0012768Y0008330D01*
X0012616Y0008373D01*
X0012465Y0008420D01*
X0012315Y0008471D01*
X0012166Y0008526D01*
X0012019Y0008584D01*
X0011873Y0008646D01*
X0011729Y0008711D01*
X0011587Y0008781D01*
X0011446Y0008853D01*
X0011307Y0008930D01*
X0011171Y0009009D01*
X0011036Y0009093D01*
X0010903Y0009179D01*
X0010773Y0009269D01*
X0010645Y0009362D01*
X0010519Y0009458D01*
X0010396Y0009558D01*
X0010275Y0009660D01*
X0010157Y0009765D01*
X0010042Y0009874D01*
X0009929Y0009985D01*
X0009819Y0010099D01*
X0009712Y0010216D01*
X0009608Y0010335D01*
X0009507Y0010457D01*
X0009410Y0010582D01*
X0009315Y0010709D01*
X0009224Y0010838D01*
X0009135Y0010969D01*
X0009051Y0011103D01*
X0008969Y0011239D01*
X0008891Y0011376D01*
X0008817Y0011516D01*
X0008746Y0011658D01*
X0008678Y0011801D01*
X0008614Y0011946D01*
X0008554Y0012092D01*
X0008498Y0012240D01*
X0008445Y0012389D01*
X0008396Y0012540D01*
X0008351Y0012692D01*
X0008310Y0012845D01*
X0008272Y0012998D01*
X0008239Y0013153D01*
X0008209Y0013309D01*
X0008183Y0013465D01*
X0008162Y0013622D01*
X0008144Y0013779D01*
X0008130Y0013937D01*
X0008120Y0014095D01*
X0008114Y0014253D01*
X0008112Y0014411D01*
X0099868Y0096356D02*
X0099870Y0096514D01*
X0099876Y0096672D01*
X0099886Y0096830D01*
X0099900Y0096988D01*
X0099918Y0097145D01*
X0099939Y0097302D01*
X0099965Y0097458D01*
X0099995Y0097614D01*
X0100028Y0097769D01*
X0100066Y0097922D01*
X0100107Y0098075D01*
X0100152Y0098227D01*
X0100201Y0098378D01*
X0100254Y0098527D01*
X0100310Y0098675D01*
X0100370Y0098821D01*
X0100434Y0098966D01*
X0100502Y0099109D01*
X0100573Y0099251D01*
X0100647Y0099391D01*
X0100725Y0099528D01*
X0100807Y0099664D01*
X0100891Y0099798D01*
X0100980Y0099929D01*
X0101071Y0100058D01*
X0101166Y0100185D01*
X0101263Y0100310D01*
X0101364Y0100432D01*
X0101468Y0100551D01*
X0101575Y0100668D01*
X0101685Y0100782D01*
X0101798Y0100893D01*
X0101913Y0101002D01*
X0102031Y0101107D01*
X0102152Y0101209D01*
X0102275Y0101309D01*
X0102401Y0101405D01*
X0102529Y0101498D01*
X0102659Y0101588D01*
X0102792Y0101674D01*
X0102927Y0101758D01*
X0103063Y0101837D01*
X0103202Y0101914D01*
X0103343Y0101986D01*
X0103485Y0102056D01*
X0103629Y0102121D01*
X0103775Y0102183D01*
X0103922Y0102241D01*
X0104071Y0102296D01*
X0104221Y0102347D01*
X0104372Y0102394D01*
X0104524Y0102437D01*
X0104677Y0102476D01*
X0104832Y0102512D01*
X0104987Y0102543D01*
X0105143Y0102571D01*
X0105299Y0102595D01*
X0105456Y0102615D01*
X0105614Y0102631D01*
X0105771Y0102643D01*
X0105930Y0102651D01*
X0106088Y0102655D01*
X0106246Y0102655D01*
X0106404Y0102651D01*
X0106563Y0102643D01*
X0106720Y0102631D01*
X0106878Y0102615D01*
X0107035Y0102595D01*
X0107191Y0102571D01*
X0107347Y0102543D01*
X0107502Y0102512D01*
X0107657Y0102476D01*
X0107810Y0102437D01*
X0107962Y0102394D01*
X0108113Y0102347D01*
X0108263Y0102296D01*
X0108412Y0102241D01*
X0108559Y0102183D01*
X0108705Y0102121D01*
X0108849Y0102056D01*
X0108991Y0101986D01*
X0109132Y0101914D01*
X0109271Y0101837D01*
X0109407Y0101758D01*
X0109542Y0101674D01*
X0109675Y0101588D01*
X0109805Y0101498D01*
X0109933Y0101405D01*
X0110059Y0101309D01*
X0110182Y0101209D01*
X0110303Y0101107D01*
X0110421Y0101002D01*
X0110536Y0100893D01*
X0110649Y0100782D01*
X0110759Y0100668D01*
X0110866Y0100551D01*
X0110970Y0100432D01*
X0111071Y0100310D01*
X0111168Y0100185D01*
X0111263Y0100058D01*
X0111354Y0099929D01*
X0111443Y0099798D01*
X0111527Y0099664D01*
X0111609Y0099528D01*
X0111687Y0099391D01*
X0111761Y0099251D01*
X0111832Y0099109D01*
X0111900Y0098966D01*
X0111964Y0098821D01*
X0112024Y0098675D01*
X0112080Y0098527D01*
X0112133Y0098378D01*
X0112182Y0098227D01*
X0112227Y0098075D01*
X0112268Y0097922D01*
X0112306Y0097769D01*
X0112339Y0097614D01*
X0112369Y0097458D01*
X0112395Y0097302D01*
X0112416Y0097145D01*
X0112434Y0096988D01*
X0112448Y0096830D01*
X0112458Y0096672D01*
X0112464Y0096514D01*
X0112466Y0096356D01*
X0112464Y0096198D01*
X0112458Y0096040D01*
X0112448Y0095882D01*
X0112434Y0095724D01*
X0112416Y0095567D01*
X0112395Y0095410D01*
X0112369Y0095254D01*
X0112339Y0095098D01*
X0112306Y0094943D01*
X0112268Y0094790D01*
X0112227Y0094637D01*
X0112182Y0094485D01*
X0112133Y0094334D01*
X0112080Y0094185D01*
X0112024Y0094037D01*
X0111964Y0093891D01*
X0111900Y0093746D01*
X0111832Y0093603D01*
X0111761Y0093461D01*
X0111687Y0093321D01*
X0111609Y0093184D01*
X0111527Y0093048D01*
X0111443Y0092914D01*
X0111354Y0092783D01*
X0111263Y0092654D01*
X0111168Y0092527D01*
X0111071Y0092402D01*
X0110970Y0092280D01*
X0110866Y0092161D01*
X0110759Y0092044D01*
X0110649Y0091930D01*
X0110536Y0091819D01*
X0110421Y0091710D01*
X0110303Y0091605D01*
X0110182Y0091503D01*
X0110059Y0091403D01*
X0109933Y0091307D01*
X0109805Y0091214D01*
X0109675Y0091124D01*
X0109542Y0091038D01*
X0109407Y0090954D01*
X0109271Y0090875D01*
X0109132Y0090798D01*
X0108991Y0090726D01*
X0108849Y0090656D01*
X0108705Y0090591D01*
X0108559Y0090529D01*
X0108412Y0090471D01*
X0108263Y0090416D01*
X0108113Y0090365D01*
X0107962Y0090318D01*
X0107810Y0090275D01*
X0107657Y0090236D01*
X0107502Y0090200D01*
X0107347Y0090169D01*
X0107191Y0090141D01*
X0107035Y0090117D01*
X0106878Y0090097D01*
X0106720Y0090081D01*
X0106563Y0090069D01*
X0106404Y0090061D01*
X0106246Y0090057D01*
X0106088Y0090057D01*
X0105930Y0090061D01*
X0105771Y0090069D01*
X0105614Y0090081D01*
X0105456Y0090097D01*
X0105299Y0090117D01*
X0105143Y0090141D01*
X0104987Y0090169D01*
X0104832Y0090200D01*
X0104677Y0090236D01*
X0104524Y0090275D01*
X0104372Y0090318D01*
X0104221Y0090365D01*
X0104071Y0090416D01*
X0103922Y0090471D01*
X0103775Y0090529D01*
X0103629Y0090591D01*
X0103485Y0090656D01*
X0103343Y0090726D01*
X0103202Y0090798D01*
X0103063Y0090875D01*
X0102927Y0090954D01*
X0102792Y0091038D01*
X0102659Y0091124D01*
X0102529Y0091214D01*
X0102401Y0091307D01*
X0102275Y0091403D01*
X0102152Y0091503D01*
X0102031Y0091605D01*
X0101913Y0091710D01*
X0101798Y0091819D01*
X0101685Y0091930D01*
X0101575Y0092044D01*
X0101468Y0092161D01*
X0101364Y0092280D01*
X0101263Y0092402D01*
X0101166Y0092527D01*
X0101071Y0092654D01*
X0100980Y0092783D01*
X0100891Y0092914D01*
X0100807Y0093048D01*
X0100725Y0093184D01*
X0100647Y0093321D01*
X0100573Y0093461D01*
X0100502Y0093603D01*
X0100434Y0093746D01*
X0100370Y0093891D01*
X0100310Y0094037D01*
X0100254Y0094185D01*
X0100201Y0094334D01*
X0100152Y0094485D01*
X0100107Y0094637D01*
X0100066Y0094790D01*
X0100028Y0094943D01*
X0099995Y0095098D01*
X0099965Y0095254D01*
X0099939Y0095410D01*
X0099918Y0095567D01*
X0099900Y0095724D01*
X0099886Y0095882D01*
X0099876Y0096040D01*
X0099870Y0096198D01*
X0099868Y0096356D01*
X0181364Y0096356D02*
X0181366Y0096514D01*
X0181372Y0096672D01*
X0181382Y0096830D01*
X0181396Y0096988D01*
X0181414Y0097145D01*
X0181435Y0097302D01*
X0181461Y0097458D01*
X0181491Y0097614D01*
X0181524Y0097769D01*
X0181562Y0097922D01*
X0181603Y0098075D01*
X0181648Y0098227D01*
X0181697Y0098378D01*
X0181750Y0098527D01*
X0181806Y0098675D01*
X0181866Y0098821D01*
X0181930Y0098966D01*
X0181998Y0099109D01*
X0182069Y0099251D01*
X0182143Y0099391D01*
X0182221Y0099528D01*
X0182303Y0099664D01*
X0182387Y0099798D01*
X0182476Y0099929D01*
X0182567Y0100058D01*
X0182662Y0100185D01*
X0182759Y0100310D01*
X0182860Y0100432D01*
X0182964Y0100551D01*
X0183071Y0100668D01*
X0183181Y0100782D01*
X0183294Y0100893D01*
X0183409Y0101002D01*
X0183527Y0101107D01*
X0183648Y0101209D01*
X0183771Y0101309D01*
X0183897Y0101405D01*
X0184025Y0101498D01*
X0184155Y0101588D01*
X0184288Y0101674D01*
X0184423Y0101758D01*
X0184559Y0101837D01*
X0184698Y0101914D01*
X0184839Y0101986D01*
X0184981Y0102056D01*
X0185125Y0102121D01*
X0185271Y0102183D01*
X0185418Y0102241D01*
X0185567Y0102296D01*
X0185717Y0102347D01*
X0185868Y0102394D01*
X0186020Y0102437D01*
X0186173Y0102476D01*
X0186328Y0102512D01*
X0186483Y0102543D01*
X0186639Y0102571D01*
X0186795Y0102595D01*
X0186952Y0102615D01*
X0187110Y0102631D01*
X0187267Y0102643D01*
X0187426Y0102651D01*
X0187584Y0102655D01*
X0187742Y0102655D01*
X0187900Y0102651D01*
X0188059Y0102643D01*
X0188216Y0102631D01*
X0188374Y0102615D01*
X0188531Y0102595D01*
X0188687Y0102571D01*
X0188843Y0102543D01*
X0188998Y0102512D01*
X0189153Y0102476D01*
X0189306Y0102437D01*
X0189458Y0102394D01*
X0189609Y0102347D01*
X0189759Y0102296D01*
X0189908Y0102241D01*
X0190055Y0102183D01*
X0190201Y0102121D01*
X0190345Y0102056D01*
X0190487Y0101986D01*
X0190628Y0101914D01*
X0190767Y0101837D01*
X0190903Y0101758D01*
X0191038Y0101674D01*
X0191171Y0101588D01*
X0191301Y0101498D01*
X0191429Y0101405D01*
X0191555Y0101309D01*
X0191678Y0101209D01*
X0191799Y0101107D01*
X0191917Y0101002D01*
X0192032Y0100893D01*
X0192145Y0100782D01*
X0192255Y0100668D01*
X0192362Y0100551D01*
X0192466Y0100432D01*
X0192567Y0100310D01*
X0192664Y0100185D01*
X0192759Y0100058D01*
X0192850Y0099929D01*
X0192939Y0099798D01*
X0193023Y0099664D01*
X0193105Y0099528D01*
X0193183Y0099391D01*
X0193257Y0099251D01*
X0193328Y0099109D01*
X0193396Y0098966D01*
X0193460Y0098821D01*
X0193520Y0098675D01*
X0193576Y0098527D01*
X0193629Y0098378D01*
X0193678Y0098227D01*
X0193723Y0098075D01*
X0193764Y0097922D01*
X0193802Y0097769D01*
X0193835Y0097614D01*
X0193865Y0097458D01*
X0193891Y0097302D01*
X0193912Y0097145D01*
X0193930Y0096988D01*
X0193944Y0096830D01*
X0193954Y0096672D01*
X0193960Y0096514D01*
X0193962Y0096356D01*
X0193960Y0096198D01*
X0193954Y0096040D01*
X0193944Y0095882D01*
X0193930Y0095724D01*
X0193912Y0095567D01*
X0193891Y0095410D01*
X0193865Y0095254D01*
X0193835Y0095098D01*
X0193802Y0094943D01*
X0193764Y0094790D01*
X0193723Y0094637D01*
X0193678Y0094485D01*
X0193629Y0094334D01*
X0193576Y0094185D01*
X0193520Y0094037D01*
X0193460Y0093891D01*
X0193396Y0093746D01*
X0193328Y0093603D01*
X0193257Y0093461D01*
X0193183Y0093321D01*
X0193105Y0093184D01*
X0193023Y0093048D01*
X0192939Y0092914D01*
X0192850Y0092783D01*
X0192759Y0092654D01*
X0192664Y0092527D01*
X0192567Y0092402D01*
X0192466Y0092280D01*
X0192362Y0092161D01*
X0192255Y0092044D01*
X0192145Y0091930D01*
X0192032Y0091819D01*
X0191917Y0091710D01*
X0191799Y0091605D01*
X0191678Y0091503D01*
X0191555Y0091403D01*
X0191429Y0091307D01*
X0191301Y0091214D01*
X0191171Y0091124D01*
X0191038Y0091038D01*
X0190903Y0090954D01*
X0190767Y0090875D01*
X0190628Y0090798D01*
X0190487Y0090726D01*
X0190345Y0090656D01*
X0190201Y0090591D01*
X0190055Y0090529D01*
X0189908Y0090471D01*
X0189759Y0090416D01*
X0189609Y0090365D01*
X0189458Y0090318D01*
X0189306Y0090275D01*
X0189153Y0090236D01*
X0188998Y0090200D01*
X0188843Y0090169D01*
X0188687Y0090141D01*
X0188531Y0090117D01*
X0188374Y0090097D01*
X0188216Y0090081D01*
X0188059Y0090069D01*
X0187900Y0090061D01*
X0187742Y0090057D01*
X0187584Y0090057D01*
X0187426Y0090061D01*
X0187267Y0090069D01*
X0187110Y0090081D01*
X0186952Y0090097D01*
X0186795Y0090117D01*
X0186639Y0090141D01*
X0186483Y0090169D01*
X0186328Y0090200D01*
X0186173Y0090236D01*
X0186020Y0090275D01*
X0185868Y0090318D01*
X0185717Y0090365D01*
X0185567Y0090416D01*
X0185418Y0090471D01*
X0185271Y0090529D01*
X0185125Y0090591D01*
X0184981Y0090656D01*
X0184839Y0090726D01*
X0184698Y0090798D01*
X0184559Y0090875D01*
X0184423Y0090954D01*
X0184288Y0091038D01*
X0184155Y0091124D01*
X0184025Y0091214D01*
X0183897Y0091307D01*
X0183771Y0091403D01*
X0183648Y0091503D01*
X0183527Y0091605D01*
X0183409Y0091710D01*
X0183294Y0091819D01*
X0183181Y0091930D01*
X0183071Y0092044D01*
X0182964Y0092161D01*
X0182860Y0092280D01*
X0182759Y0092402D01*
X0182662Y0092527D01*
X0182567Y0092654D01*
X0182476Y0092783D01*
X0182387Y0092914D01*
X0182303Y0093048D01*
X0182221Y0093184D01*
X0182143Y0093321D01*
X0182069Y0093461D01*
X0181998Y0093603D01*
X0181930Y0093746D01*
X0181866Y0093891D01*
X0181806Y0094037D01*
X0181750Y0094185D01*
X0181697Y0094334D01*
X0181648Y0094485D01*
X0181603Y0094637D01*
X0181562Y0094790D01*
X0181524Y0094943D01*
X0181491Y0095098D01*
X0181461Y0095254D01*
X0181435Y0095410D01*
X0181414Y0095567D01*
X0181396Y0095724D01*
X0181382Y0095882D01*
X0181372Y0096040D01*
X0181366Y0096198D01*
X0181364Y0096356D01*
X0181340Y0014411D02*
X0181342Y0014569D01*
X0181348Y0014727D01*
X0181358Y0014885D01*
X0181372Y0015043D01*
X0181390Y0015200D01*
X0181411Y0015357D01*
X0181437Y0015513D01*
X0181467Y0015669D01*
X0181500Y0015824D01*
X0181538Y0015977D01*
X0181579Y0016130D01*
X0181624Y0016282D01*
X0181673Y0016433D01*
X0181726Y0016582D01*
X0181782Y0016730D01*
X0181842Y0016876D01*
X0181906Y0017021D01*
X0181974Y0017164D01*
X0182045Y0017306D01*
X0182119Y0017446D01*
X0182197Y0017583D01*
X0182279Y0017719D01*
X0182363Y0017853D01*
X0182452Y0017984D01*
X0182543Y0018113D01*
X0182638Y0018240D01*
X0182735Y0018365D01*
X0182836Y0018487D01*
X0182940Y0018606D01*
X0183047Y0018723D01*
X0183157Y0018837D01*
X0183270Y0018948D01*
X0183385Y0019057D01*
X0183503Y0019162D01*
X0183624Y0019264D01*
X0183747Y0019364D01*
X0183873Y0019460D01*
X0184001Y0019553D01*
X0184131Y0019643D01*
X0184264Y0019729D01*
X0184399Y0019813D01*
X0184535Y0019892D01*
X0184674Y0019969D01*
X0184815Y0020041D01*
X0184957Y0020111D01*
X0185101Y0020176D01*
X0185247Y0020238D01*
X0185394Y0020296D01*
X0185543Y0020351D01*
X0185693Y0020402D01*
X0185844Y0020449D01*
X0185996Y0020492D01*
X0186149Y0020531D01*
X0186304Y0020567D01*
X0186459Y0020598D01*
X0186615Y0020626D01*
X0186771Y0020650D01*
X0186928Y0020670D01*
X0187086Y0020686D01*
X0187243Y0020698D01*
X0187402Y0020706D01*
X0187560Y0020710D01*
X0187718Y0020710D01*
X0187876Y0020706D01*
X0188035Y0020698D01*
X0188192Y0020686D01*
X0188350Y0020670D01*
X0188507Y0020650D01*
X0188663Y0020626D01*
X0188819Y0020598D01*
X0188974Y0020567D01*
X0189129Y0020531D01*
X0189282Y0020492D01*
X0189434Y0020449D01*
X0189585Y0020402D01*
X0189735Y0020351D01*
X0189884Y0020296D01*
X0190031Y0020238D01*
X0190177Y0020176D01*
X0190321Y0020111D01*
X0190463Y0020041D01*
X0190604Y0019969D01*
X0190743Y0019892D01*
X0190879Y0019813D01*
X0191014Y0019729D01*
X0191147Y0019643D01*
X0191277Y0019553D01*
X0191405Y0019460D01*
X0191531Y0019364D01*
X0191654Y0019264D01*
X0191775Y0019162D01*
X0191893Y0019057D01*
X0192008Y0018948D01*
X0192121Y0018837D01*
X0192231Y0018723D01*
X0192338Y0018606D01*
X0192442Y0018487D01*
X0192543Y0018365D01*
X0192640Y0018240D01*
X0192735Y0018113D01*
X0192826Y0017984D01*
X0192915Y0017853D01*
X0192999Y0017719D01*
X0193081Y0017583D01*
X0193159Y0017446D01*
X0193233Y0017306D01*
X0193304Y0017164D01*
X0193372Y0017021D01*
X0193436Y0016876D01*
X0193496Y0016730D01*
X0193552Y0016582D01*
X0193605Y0016433D01*
X0193654Y0016282D01*
X0193699Y0016130D01*
X0193740Y0015977D01*
X0193778Y0015824D01*
X0193811Y0015669D01*
X0193841Y0015513D01*
X0193867Y0015357D01*
X0193888Y0015200D01*
X0193906Y0015043D01*
X0193920Y0014885D01*
X0193930Y0014727D01*
X0193936Y0014569D01*
X0193938Y0014411D01*
X0193936Y0014253D01*
X0193930Y0014095D01*
X0193920Y0013937D01*
X0193906Y0013779D01*
X0193888Y0013622D01*
X0193867Y0013465D01*
X0193841Y0013309D01*
X0193811Y0013153D01*
X0193778Y0012998D01*
X0193740Y0012845D01*
X0193699Y0012692D01*
X0193654Y0012540D01*
X0193605Y0012389D01*
X0193552Y0012240D01*
X0193496Y0012092D01*
X0193436Y0011946D01*
X0193372Y0011801D01*
X0193304Y0011658D01*
X0193233Y0011516D01*
X0193159Y0011376D01*
X0193081Y0011239D01*
X0192999Y0011103D01*
X0192915Y0010969D01*
X0192826Y0010838D01*
X0192735Y0010709D01*
X0192640Y0010582D01*
X0192543Y0010457D01*
X0192442Y0010335D01*
X0192338Y0010216D01*
X0192231Y0010099D01*
X0192121Y0009985D01*
X0192008Y0009874D01*
X0191893Y0009765D01*
X0191775Y0009660D01*
X0191654Y0009558D01*
X0191531Y0009458D01*
X0191405Y0009362D01*
X0191277Y0009269D01*
X0191147Y0009179D01*
X0191014Y0009093D01*
X0190879Y0009009D01*
X0190743Y0008930D01*
X0190604Y0008853D01*
X0190463Y0008781D01*
X0190321Y0008711D01*
X0190177Y0008646D01*
X0190031Y0008584D01*
X0189884Y0008526D01*
X0189735Y0008471D01*
X0189585Y0008420D01*
X0189434Y0008373D01*
X0189282Y0008330D01*
X0189129Y0008291D01*
X0188974Y0008255D01*
X0188819Y0008224D01*
X0188663Y0008196D01*
X0188507Y0008172D01*
X0188350Y0008152D01*
X0188192Y0008136D01*
X0188035Y0008124D01*
X0187876Y0008116D01*
X0187718Y0008112D01*
X0187560Y0008112D01*
X0187402Y0008116D01*
X0187243Y0008124D01*
X0187086Y0008136D01*
X0186928Y0008152D01*
X0186771Y0008172D01*
X0186615Y0008196D01*
X0186459Y0008224D01*
X0186304Y0008255D01*
X0186149Y0008291D01*
X0185996Y0008330D01*
X0185844Y0008373D01*
X0185693Y0008420D01*
X0185543Y0008471D01*
X0185394Y0008526D01*
X0185247Y0008584D01*
X0185101Y0008646D01*
X0184957Y0008711D01*
X0184815Y0008781D01*
X0184674Y0008853D01*
X0184535Y0008930D01*
X0184399Y0009009D01*
X0184264Y0009093D01*
X0184131Y0009179D01*
X0184001Y0009269D01*
X0183873Y0009362D01*
X0183747Y0009458D01*
X0183624Y0009558D01*
X0183503Y0009660D01*
X0183385Y0009765D01*
X0183270Y0009874D01*
X0183157Y0009985D01*
X0183047Y0010099D01*
X0182940Y0010216D01*
X0182836Y0010335D01*
X0182735Y0010457D01*
X0182638Y0010582D01*
X0182543Y0010709D01*
X0182452Y0010838D01*
X0182363Y0010969D01*
X0182279Y0011103D01*
X0182197Y0011239D01*
X0182119Y0011376D01*
X0182045Y0011516D01*
X0181974Y0011658D01*
X0181906Y0011801D01*
X0181842Y0011946D01*
X0181782Y0012092D01*
X0181726Y0012240D01*
X0181673Y0012389D01*
X0181624Y0012540D01*
X0181579Y0012692D01*
X0181538Y0012845D01*
X0181500Y0012998D01*
X0181467Y0013153D01*
X0181437Y0013309D01*
X0181411Y0013465D01*
X0181390Y0013622D01*
X0181372Y0013779D01*
X0181358Y0013937D01*
X0181348Y0014095D01*
X0181342Y0014253D01*
X0181340Y0014411D01*
X0181364Y0187694D02*
X0181366Y0187852D01*
X0181372Y0188010D01*
X0181382Y0188168D01*
X0181396Y0188326D01*
X0181414Y0188483D01*
X0181435Y0188640D01*
X0181461Y0188796D01*
X0181491Y0188952D01*
X0181524Y0189107D01*
X0181562Y0189260D01*
X0181603Y0189413D01*
X0181648Y0189565D01*
X0181697Y0189716D01*
X0181750Y0189865D01*
X0181806Y0190013D01*
X0181866Y0190159D01*
X0181930Y0190304D01*
X0181998Y0190447D01*
X0182069Y0190589D01*
X0182143Y0190729D01*
X0182221Y0190866D01*
X0182303Y0191002D01*
X0182387Y0191136D01*
X0182476Y0191267D01*
X0182567Y0191396D01*
X0182662Y0191523D01*
X0182759Y0191648D01*
X0182860Y0191770D01*
X0182964Y0191889D01*
X0183071Y0192006D01*
X0183181Y0192120D01*
X0183294Y0192231D01*
X0183409Y0192340D01*
X0183527Y0192445D01*
X0183648Y0192547D01*
X0183771Y0192647D01*
X0183897Y0192743D01*
X0184025Y0192836D01*
X0184155Y0192926D01*
X0184288Y0193012D01*
X0184423Y0193096D01*
X0184559Y0193175D01*
X0184698Y0193252D01*
X0184839Y0193324D01*
X0184981Y0193394D01*
X0185125Y0193459D01*
X0185271Y0193521D01*
X0185418Y0193579D01*
X0185567Y0193634D01*
X0185717Y0193685D01*
X0185868Y0193732D01*
X0186020Y0193775D01*
X0186173Y0193814D01*
X0186328Y0193850D01*
X0186483Y0193881D01*
X0186639Y0193909D01*
X0186795Y0193933D01*
X0186952Y0193953D01*
X0187110Y0193969D01*
X0187267Y0193981D01*
X0187426Y0193989D01*
X0187584Y0193993D01*
X0187742Y0193993D01*
X0187900Y0193989D01*
X0188059Y0193981D01*
X0188216Y0193969D01*
X0188374Y0193953D01*
X0188531Y0193933D01*
X0188687Y0193909D01*
X0188843Y0193881D01*
X0188998Y0193850D01*
X0189153Y0193814D01*
X0189306Y0193775D01*
X0189458Y0193732D01*
X0189609Y0193685D01*
X0189759Y0193634D01*
X0189908Y0193579D01*
X0190055Y0193521D01*
X0190201Y0193459D01*
X0190345Y0193394D01*
X0190487Y0193324D01*
X0190628Y0193252D01*
X0190767Y0193175D01*
X0190903Y0193096D01*
X0191038Y0193012D01*
X0191171Y0192926D01*
X0191301Y0192836D01*
X0191429Y0192743D01*
X0191555Y0192647D01*
X0191678Y0192547D01*
X0191799Y0192445D01*
X0191917Y0192340D01*
X0192032Y0192231D01*
X0192145Y0192120D01*
X0192255Y0192006D01*
X0192362Y0191889D01*
X0192466Y0191770D01*
X0192567Y0191648D01*
X0192664Y0191523D01*
X0192759Y0191396D01*
X0192850Y0191267D01*
X0192939Y0191136D01*
X0193023Y0191002D01*
X0193105Y0190866D01*
X0193183Y0190729D01*
X0193257Y0190589D01*
X0193328Y0190447D01*
X0193396Y0190304D01*
X0193460Y0190159D01*
X0193520Y0190013D01*
X0193576Y0189865D01*
X0193629Y0189716D01*
X0193678Y0189565D01*
X0193723Y0189413D01*
X0193764Y0189260D01*
X0193802Y0189107D01*
X0193835Y0188952D01*
X0193865Y0188796D01*
X0193891Y0188640D01*
X0193912Y0188483D01*
X0193930Y0188326D01*
X0193944Y0188168D01*
X0193954Y0188010D01*
X0193960Y0187852D01*
X0193962Y0187694D01*
X0193960Y0187536D01*
X0193954Y0187378D01*
X0193944Y0187220D01*
X0193930Y0187062D01*
X0193912Y0186905D01*
X0193891Y0186748D01*
X0193865Y0186592D01*
X0193835Y0186436D01*
X0193802Y0186281D01*
X0193764Y0186128D01*
X0193723Y0185975D01*
X0193678Y0185823D01*
X0193629Y0185672D01*
X0193576Y0185523D01*
X0193520Y0185375D01*
X0193460Y0185229D01*
X0193396Y0185084D01*
X0193328Y0184941D01*
X0193257Y0184799D01*
X0193183Y0184659D01*
X0193105Y0184522D01*
X0193023Y0184386D01*
X0192939Y0184252D01*
X0192850Y0184121D01*
X0192759Y0183992D01*
X0192664Y0183865D01*
X0192567Y0183740D01*
X0192466Y0183618D01*
X0192362Y0183499D01*
X0192255Y0183382D01*
X0192145Y0183268D01*
X0192032Y0183157D01*
X0191917Y0183048D01*
X0191799Y0182943D01*
X0191678Y0182841D01*
X0191555Y0182741D01*
X0191429Y0182645D01*
X0191301Y0182552D01*
X0191171Y0182462D01*
X0191038Y0182376D01*
X0190903Y0182292D01*
X0190767Y0182213D01*
X0190628Y0182136D01*
X0190487Y0182064D01*
X0190345Y0181994D01*
X0190201Y0181929D01*
X0190055Y0181867D01*
X0189908Y0181809D01*
X0189759Y0181754D01*
X0189609Y0181703D01*
X0189458Y0181656D01*
X0189306Y0181613D01*
X0189153Y0181574D01*
X0188998Y0181538D01*
X0188843Y0181507D01*
X0188687Y0181479D01*
X0188531Y0181455D01*
X0188374Y0181435D01*
X0188216Y0181419D01*
X0188059Y0181407D01*
X0187900Y0181399D01*
X0187742Y0181395D01*
X0187584Y0181395D01*
X0187426Y0181399D01*
X0187267Y0181407D01*
X0187110Y0181419D01*
X0186952Y0181435D01*
X0186795Y0181455D01*
X0186639Y0181479D01*
X0186483Y0181507D01*
X0186328Y0181538D01*
X0186173Y0181574D01*
X0186020Y0181613D01*
X0185868Y0181656D01*
X0185717Y0181703D01*
X0185567Y0181754D01*
X0185418Y0181809D01*
X0185271Y0181867D01*
X0185125Y0181929D01*
X0184981Y0181994D01*
X0184839Y0182064D01*
X0184698Y0182136D01*
X0184559Y0182213D01*
X0184423Y0182292D01*
X0184288Y0182376D01*
X0184155Y0182462D01*
X0184025Y0182552D01*
X0183897Y0182645D01*
X0183771Y0182741D01*
X0183648Y0182841D01*
X0183527Y0182943D01*
X0183409Y0183048D01*
X0183294Y0183157D01*
X0183181Y0183268D01*
X0183071Y0183382D01*
X0182964Y0183499D01*
X0182860Y0183618D01*
X0182759Y0183740D01*
X0182662Y0183865D01*
X0182567Y0183992D01*
X0182476Y0184121D01*
X0182387Y0184252D01*
X0182303Y0184386D01*
X0182221Y0184522D01*
X0182143Y0184659D01*
X0182069Y0184799D01*
X0181998Y0184941D01*
X0181930Y0185084D01*
X0181866Y0185229D01*
X0181806Y0185375D01*
X0181750Y0185523D01*
X0181697Y0185672D01*
X0181648Y0185823D01*
X0181603Y0185975D01*
X0181562Y0186128D01*
X0181524Y0186281D01*
X0181491Y0186436D01*
X0181461Y0186592D01*
X0181435Y0186748D01*
X0181414Y0186905D01*
X0181396Y0187062D01*
X0181382Y0187220D01*
X0181372Y0187378D01*
X0181366Y0187536D01*
X0181364Y0187694D01*
X0099868Y0187694D02*
X0099870Y0187852D01*
X0099876Y0188010D01*
X0099886Y0188168D01*
X0099900Y0188326D01*
X0099918Y0188483D01*
X0099939Y0188640D01*
X0099965Y0188796D01*
X0099995Y0188952D01*
X0100028Y0189107D01*
X0100066Y0189260D01*
X0100107Y0189413D01*
X0100152Y0189565D01*
X0100201Y0189716D01*
X0100254Y0189865D01*
X0100310Y0190013D01*
X0100370Y0190159D01*
X0100434Y0190304D01*
X0100502Y0190447D01*
X0100573Y0190589D01*
X0100647Y0190729D01*
X0100725Y0190866D01*
X0100807Y0191002D01*
X0100891Y0191136D01*
X0100980Y0191267D01*
X0101071Y0191396D01*
X0101166Y0191523D01*
X0101263Y0191648D01*
X0101364Y0191770D01*
X0101468Y0191889D01*
X0101575Y0192006D01*
X0101685Y0192120D01*
X0101798Y0192231D01*
X0101913Y0192340D01*
X0102031Y0192445D01*
X0102152Y0192547D01*
X0102275Y0192647D01*
X0102401Y0192743D01*
X0102529Y0192836D01*
X0102659Y0192926D01*
X0102792Y0193012D01*
X0102927Y0193096D01*
X0103063Y0193175D01*
X0103202Y0193252D01*
X0103343Y0193324D01*
X0103485Y0193394D01*
X0103629Y0193459D01*
X0103775Y0193521D01*
X0103922Y0193579D01*
X0104071Y0193634D01*
X0104221Y0193685D01*
X0104372Y0193732D01*
X0104524Y0193775D01*
X0104677Y0193814D01*
X0104832Y0193850D01*
X0104987Y0193881D01*
X0105143Y0193909D01*
X0105299Y0193933D01*
X0105456Y0193953D01*
X0105614Y0193969D01*
X0105771Y0193981D01*
X0105930Y0193989D01*
X0106088Y0193993D01*
X0106246Y0193993D01*
X0106404Y0193989D01*
X0106563Y0193981D01*
X0106720Y0193969D01*
X0106878Y0193953D01*
X0107035Y0193933D01*
X0107191Y0193909D01*
X0107347Y0193881D01*
X0107502Y0193850D01*
X0107657Y0193814D01*
X0107810Y0193775D01*
X0107962Y0193732D01*
X0108113Y0193685D01*
X0108263Y0193634D01*
X0108412Y0193579D01*
X0108559Y0193521D01*
X0108705Y0193459D01*
X0108849Y0193394D01*
X0108991Y0193324D01*
X0109132Y0193252D01*
X0109271Y0193175D01*
X0109407Y0193096D01*
X0109542Y0193012D01*
X0109675Y0192926D01*
X0109805Y0192836D01*
X0109933Y0192743D01*
X0110059Y0192647D01*
X0110182Y0192547D01*
X0110303Y0192445D01*
X0110421Y0192340D01*
X0110536Y0192231D01*
X0110649Y0192120D01*
X0110759Y0192006D01*
X0110866Y0191889D01*
X0110970Y0191770D01*
X0111071Y0191648D01*
X0111168Y0191523D01*
X0111263Y0191396D01*
X0111354Y0191267D01*
X0111443Y0191136D01*
X0111527Y0191002D01*
X0111609Y0190866D01*
X0111687Y0190729D01*
X0111761Y0190589D01*
X0111832Y0190447D01*
X0111900Y0190304D01*
X0111964Y0190159D01*
X0112024Y0190013D01*
X0112080Y0189865D01*
X0112133Y0189716D01*
X0112182Y0189565D01*
X0112227Y0189413D01*
X0112268Y0189260D01*
X0112306Y0189107D01*
X0112339Y0188952D01*
X0112369Y0188796D01*
X0112395Y0188640D01*
X0112416Y0188483D01*
X0112434Y0188326D01*
X0112448Y0188168D01*
X0112458Y0188010D01*
X0112464Y0187852D01*
X0112466Y0187694D01*
X0112464Y0187536D01*
X0112458Y0187378D01*
X0112448Y0187220D01*
X0112434Y0187062D01*
X0112416Y0186905D01*
X0112395Y0186748D01*
X0112369Y0186592D01*
X0112339Y0186436D01*
X0112306Y0186281D01*
X0112268Y0186128D01*
X0112227Y0185975D01*
X0112182Y0185823D01*
X0112133Y0185672D01*
X0112080Y0185523D01*
X0112024Y0185375D01*
X0111964Y0185229D01*
X0111900Y0185084D01*
X0111832Y0184941D01*
X0111761Y0184799D01*
X0111687Y0184659D01*
X0111609Y0184522D01*
X0111527Y0184386D01*
X0111443Y0184252D01*
X0111354Y0184121D01*
X0111263Y0183992D01*
X0111168Y0183865D01*
X0111071Y0183740D01*
X0110970Y0183618D01*
X0110866Y0183499D01*
X0110759Y0183382D01*
X0110649Y0183268D01*
X0110536Y0183157D01*
X0110421Y0183048D01*
X0110303Y0182943D01*
X0110182Y0182841D01*
X0110059Y0182741D01*
X0109933Y0182645D01*
X0109805Y0182552D01*
X0109675Y0182462D01*
X0109542Y0182376D01*
X0109407Y0182292D01*
X0109271Y0182213D01*
X0109132Y0182136D01*
X0108991Y0182064D01*
X0108849Y0181994D01*
X0108705Y0181929D01*
X0108559Y0181867D01*
X0108412Y0181809D01*
X0108263Y0181754D01*
X0108113Y0181703D01*
X0107962Y0181656D01*
X0107810Y0181613D01*
X0107657Y0181574D01*
X0107502Y0181538D01*
X0107347Y0181507D01*
X0107191Y0181479D01*
X0107035Y0181455D01*
X0106878Y0181435D01*
X0106720Y0181419D01*
X0106563Y0181407D01*
X0106404Y0181399D01*
X0106246Y0181395D01*
X0106088Y0181395D01*
X0105930Y0181399D01*
X0105771Y0181407D01*
X0105614Y0181419D01*
X0105456Y0181435D01*
X0105299Y0181455D01*
X0105143Y0181479D01*
X0104987Y0181507D01*
X0104832Y0181538D01*
X0104677Y0181574D01*
X0104524Y0181613D01*
X0104372Y0181656D01*
X0104221Y0181703D01*
X0104071Y0181754D01*
X0103922Y0181809D01*
X0103775Y0181867D01*
X0103629Y0181929D01*
X0103485Y0181994D01*
X0103343Y0182064D01*
X0103202Y0182136D01*
X0103063Y0182213D01*
X0102927Y0182292D01*
X0102792Y0182376D01*
X0102659Y0182462D01*
X0102529Y0182552D01*
X0102401Y0182645D01*
X0102275Y0182741D01*
X0102152Y0182841D01*
X0102031Y0182943D01*
X0101913Y0183048D01*
X0101798Y0183157D01*
X0101685Y0183268D01*
X0101575Y0183382D01*
X0101468Y0183499D01*
X0101364Y0183618D01*
X0101263Y0183740D01*
X0101166Y0183865D01*
X0101071Y0183992D01*
X0100980Y0184121D01*
X0100891Y0184252D01*
X0100807Y0184386D01*
X0100725Y0184522D01*
X0100647Y0184659D01*
X0100573Y0184799D01*
X0100502Y0184941D01*
X0100434Y0185084D01*
X0100370Y0185229D01*
X0100310Y0185375D01*
X0100254Y0185523D01*
X0100201Y0185672D01*
X0100152Y0185823D01*
X0100107Y0185975D01*
X0100066Y0186128D01*
X0100028Y0186281D01*
X0099995Y0186436D01*
X0099965Y0186592D01*
X0099939Y0186748D01*
X0099918Y0186905D01*
X0099900Y0187062D01*
X0099886Y0187220D01*
X0099876Y0187378D01*
X0099870Y0187536D01*
X0099868Y0187694D01*
X0008112Y0187639D02*
X0008114Y0187797D01*
X0008120Y0187955D01*
X0008130Y0188113D01*
X0008144Y0188271D01*
X0008162Y0188428D01*
X0008183Y0188585D01*
X0008209Y0188741D01*
X0008239Y0188897D01*
X0008272Y0189052D01*
X0008310Y0189205D01*
X0008351Y0189358D01*
X0008396Y0189510D01*
X0008445Y0189661D01*
X0008498Y0189810D01*
X0008554Y0189958D01*
X0008614Y0190104D01*
X0008678Y0190249D01*
X0008746Y0190392D01*
X0008817Y0190534D01*
X0008891Y0190674D01*
X0008969Y0190811D01*
X0009051Y0190947D01*
X0009135Y0191081D01*
X0009224Y0191212D01*
X0009315Y0191341D01*
X0009410Y0191468D01*
X0009507Y0191593D01*
X0009608Y0191715D01*
X0009712Y0191834D01*
X0009819Y0191951D01*
X0009929Y0192065D01*
X0010042Y0192176D01*
X0010157Y0192285D01*
X0010275Y0192390D01*
X0010396Y0192492D01*
X0010519Y0192592D01*
X0010645Y0192688D01*
X0010773Y0192781D01*
X0010903Y0192871D01*
X0011036Y0192957D01*
X0011171Y0193041D01*
X0011307Y0193120D01*
X0011446Y0193197D01*
X0011587Y0193269D01*
X0011729Y0193339D01*
X0011873Y0193404D01*
X0012019Y0193466D01*
X0012166Y0193524D01*
X0012315Y0193579D01*
X0012465Y0193630D01*
X0012616Y0193677D01*
X0012768Y0193720D01*
X0012921Y0193759D01*
X0013076Y0193795D01*
X0013231Y0193826D01*
X0013387Y0193854D01*
X0013543Y0193878D01*
X0013700Y0193898D01*
X0013858Y0193914D01*
X0014015Y0193926D01*
X0014174Y0193934D01*
X0014332Y0193938D01*
X0014490Y0193938D01*
X0014648Y0193934D01*
X0014807Y0193926D01*
X0014964Y0193914D01*
X0015122Y0193898D01*
X0015279Y0193878D01*
X0015435Y0193854D01*
X0015591Y0193826D01*
X0015746Y0193795D01*
X0015901Y0193759D01*
X0016054Y0193720D01*
X0016206Y0193677D01*
X0016357Y0193630D01*
X0016507Y0193579D01*
X0016656Y0193524D01*
X0016803Y0193466D01*
X0016949Y0193404D01*
X0017093Y0193339D01*
X0017235Y0193269D01*
X0017376Y0193197D01*
X0017515Y0193120D01*
X0017651Y0193041D01*
X0017786Y0192957D01*
X0017919Y0192871D01*
X0018049Y0192781D01*
X0018177Y0192688D01*
X0018303Y0192592D01*
X0018426Y0192492D01*
X0018547Y0192390D01*
X0018665Y0192285D01*
X0018780Y0192176D01*
X0018893Y0192065D01*
X0019003Y0191951D01*
X0019110Y0191834D01*
X0019214Y0191715D01*
X0019315Y0191593D01*
X0019412Y0191468D01*
X0019507Y0191341D01*
X0019598Y0191212D01*
X0019687Y0191081D01*
X0019771Y0190947D01*
X0019853Y0190811D01*
X0019931Y0190674D01*
X0020005Y0190534D01*
X0020076Y0190392D01*
X0020144Y0190249D01*
X0020208Y0190104D01*
X0020268Y0189958D01*
X0020324Y0189810D01*
X0020377Y0189661D01*
X0020426Y0189510D01*
X0020471Y0189358D01*
X0020512Y0189205D01*
X0020550Y0189052D01*
X0020583Y0188897D01*
X0020613Y0188741D01*
X0020639Y0188585D01*
X0020660Y0188428D01*
X0020678Y0188271D01*
X0020692Y0188113D01*
X0020702Y0187955D01*
X0020708Y0187797D01*
X0020710Y0187639D01*
X0020708Y0187481D01*
X0020702Y0187323D01*
X0020692Y0187165D01*
X0020678Y0187007D01*
X0020660Y0186850D01*
X0020639Y0186693D01*
X0020613Y0186537D01*
X0020583Y0186381D01*
X0020550Y0186226D01*
X0020512Y0186073D01*
X0020471Y0185920D01*
X0020426Y0185768D01*
X0020377Y0185617D01*
X0020324Y0185468D01*
X0020268Y0185320D01*
X0020208Y0185174D01*
X0020144Y0185029D01*
X0020076Y0184886D01*
X0020005Y0184744D01*
X0019931Y0184604D01*
X0019853Y0184467D01*
X0019771Y0184331D01*
X0019687Y0184197D01*
X0019598Y0184066D01*
X0019507Y0183937D01*
X0019412Y0183810D01*
X0019315Y0183685D01*
X0019214Y0183563D01*
X0019110Y0183444D01*
X0019003Y0183327D01*
X0018893Y0183213D01*
X0018780Y0183102D01*
X0018665Y0182993D01*
X0018547Y0182888D01*
X0018426Y0182786D01*
X0018303Y0182686D01*
X0018177Y0182590D01*
X0018049Y0182497D01*
X0017919Y0182407D01*
X0017786Y0182321D01*
X0017651Y0182237D01*
X0017515Y0182158D01*
X0017376Y0182081D01*
X0017235Y0182009D01*
X0017093Y0181939D01*
X0016949Y0181874D01*
X0016803Y0181812D01*
X0016656Y0181754D01*
X0016507Y0181699D01*
X0016357Y0181648D01*
X0016206Y0181601D01*
X0016054Y0181558D01*
X0015901Y0181519D01*
X0015746Y0181483D01*
X0015591Y0181452D01*
X0015435Y0181424D01*
X0015279Y0181400D01*
X0015122Y0181380D01*
X0014964Y0181364D01*
X0014807Y0181352D01*
X0014648Y0181344D01*
X0014490Y0181340D01*
X0014332Y0181340D01*
X0014174Y0181344D01*
X0014015Y0181352D01*
X0013858Y0181364D01*
X0013700Y0181380D01*
X0013543Y0181400D01*
X0013387Y0181424D01*
X0013231Y0181452D01*
X0013076Y0181483D01*
X0012921Y0181519D01*
X0012768Y0181558D01*
X0012616Y0181601D01*
X0012465Y0181648D01*
X0012315Y0181699D01*
X0012166Y0181754D01*
X0012019Y0181812D01*
X0011873Y0181874D01*
X0011729Y0181939D01*
X0011587Y0182009D01*
X0011446Y0182081D01*
X0011307Y0182158D01*
X0011171Y0182237D01*
X0011036Y0182321D01*
X0010903Y0182407D01*
X0010773Y0182497D01*
X0010645Y0182590D01*
X0010519Y0182686D01*
X0010396Y0182786D01*
X0010275Y0182888D01*
X0010157Y0182993D01*
X0010042Y0183102D01*
X0009929Y0183213D01*
X0009819Y0183327D01*
X0009712Y0183444D01*
X0009608Y0183563D01*
X0009507Y0183685D01*
X0009410Y0183810D01*
X0009315Y0183937D01*
X0009224Y0184066D01*
X0009135Y0184197D01*
X0009051Y0184331D01*
X0008969Y0184467D01*
X0008891Y0184604D01*
X0008817Y0184744D01*
X0008746Y0184886D01*
X0008678Y0185029D01*
X0008614Y0185174D01*
X0008554Y0185320D01*
X0008498Y0185468D01*
X0008445Y0185617D01*
X0008396Y0185768D01*
X0008351Y0185920D01*
X0008310Y0186073D01*
X0008272Y0186226D01*
X0008239Y0186381D01*
X0008209Y0186537D01*
X0008183Y0186693D01*
X0008162Y0186850D01*
X0008144Y0187007D01*
X0008130Y0187165D01*
X0008120Y0187323D01*
X0008114Y0187481D01*
X0008112Y0187639D01*
D11*
X0070750Y0183453D02*
X0070750Y0179750D01*
X0072602Y0179750D01*
X0073219Y0180367D01*
X0073219Y0182836D01*
X0072602Y0183453D01*
X0070750Y0183453D01*
X0074433Y0182836D02*
X0075050Y0183453D01*
X0076285Y0183453D01*
X0076902Y0182836D01*
X0076902Y0182219D01*
X0074433Y0179750D01*
X0076902Y0179750D01*
X0077737Y0162453D02*
X0077120Y0161836D01*
X0077737Y0162453D02*
X0078972Y0162453D01*
X0079589Y0161836D01*
X0079589Y0161219D01*
X0077120Y0158750D01*
X0079589Y0158750D01*
X0075906Y0162453D02*
X0073437Y0162453D01*
X0073437Y0158750D01*
X0073437Y0160602D02*
X0074671Y0160602D01*
X0130000Y0142453D02*
X0130000Y0138750D01*
X0132469Y0138750D02*
X0132469Y0142453D01*
X0131234Y0141219D01*
X0130000Y0142453D01*
X0133683Y0141836D02*
X0133683Y0141219D01*
X0134300Y0140602D01*
X0135535Y0140602D01*
X0136152Y0139984D01*
X0136152Y0139367D01*
X0135535Y0138750D01*
X0134300Y0138750D01*
X0133683Y0139367D01*
X0137366Y0138750D02*
X0139835Y0138750D01*
X0138601Y0138750D02*
X0138601Y0142453D01*
X0137366Y0141219D01*
X0136152Y0141836D02*
X0135535Y0142453D01*
X0134300Y0142453D01*
X0133683Y0141836D01*
X0134050Y0132703D02*
X0133433Y0132086D01*
X0133433Y0131469D01*
X0134050Y0130852D01*
X0135285Y0130852D01*
X0135902Y0130234D01*
X0135902Y0129617D01*
X0135285Y0129000D01*
X0134050Y0129000D01*
X0133433Y0129617D01*
X0132219Y0129000D02*
X0132219Y0132703D01*
X0130984Y0131469D01*
X0129750Y0132703D01*
X0129750Y0129000D01*
X0134050Y0132703D02*
X0135285Y0132703D01*
X0135902Y0132086D01*
X0137116Y0132086D02*
X0137733Y0132703D01*
X0138968Y0132703D01*
X0139585Y0132086D01*
X0139585Y0131469D01*
X0137116Y0129000D01*
X0139585Y0129000D01*
X0138968Y0122453D02*
X0139585Y0121836D01*
X0139585Y0121219D01*
X0138968Y0120602D01*
X0139585Y0119984D01*
X0139585Y0119367D01*
X0138968Y0118750D01*
X0137733Y0118750D01*
X0137116Y0119367D01*
X0135902Y0119367D02*
X0135285Y0118750D01*
X0134050Y0118750D01*
X0133433Y0119367D01*
X0132219Y0118750D02*
X0132219Y0122453D01*
X0130984Y0121219D01*
X0129750Y0122453D01*
X0129750Y0118750D01*
X0133433Y0121219D02*
X0133433Y0121836D01*
X0134050Y0122453D01*
X0135285Y0122453D01*
X0135902Y0121836D01*
X0137116Y0121836D02*
X0137733Y0122453D01*
X0138968Y0122453D01*
X0138968Y0120602D02*
X0138351Y0120602D01*
X0135902Y0119984D02*
X0135902Y0119367D01*
X0135902Y0119984D02*
X0135285Y0120602D01*
X0134050Y0120602D01*
X0133433Y0121219D01*
X0126877Y0067638D02*
X0125643Y0067638D01*
X0125026Y0067021D01*
X0123811Y0067021D02*
X0123811Y0067638D01*
X0123811Y0067021D02*
X0122577Y0065787D01*
X0122577Y0063935D01*
X0122577Y0065787D02*
X0121342Y0067021D01*
X0121342Y0067638D01*
X0125026Y0063935D02*
X0127494Y0066404D01*
X0127494Y0067021D01*
X0126877Y0067638D01*
X0127494Y0063935D02*
X0125026Y0063935D01*
X0164747Y0041969D02*
X0164747Y0039500D01*
X0164747Y0040734D02*
X0168450Y0040734D01*
X0168450Y0043183D02*
X0165981Y0045652D01*
X0165981Y0043183D02*
X0168450Y0045652D01*
X0168200Y0035402D02*
X0165731Y0032933D01*
X0165114Y0031719D02*
X0166348Y0031719D01*
X0166966Y0031102D01*
X0166966Y0029250D01*
X0168200Y0029250D02*
X0164497Y0029250D01*
X0164497Y0031102D01*
X0165114Y0031719D01*
X0166966Y0030484D02*
X0168200Y0031719D01*
X0168200Y0032933D02*
X0165731Y0035402D01*
X0181997Y0046617D02*
X0182614Y0046000D01*
X0185083Y0046000D01*
X0185700Y0046617D01*
X0185700Y0047852D01*
X0185083Y0048469D01*
X0183848Y0048469D01*
X0183848Y0047234D01*
X0182614Y0048469D02*
X0181997Y0047852D01*
X0181997Y0046617D01*
X0181997Y0049683D02*
X0185700Y0052152D01*
X0181997Y0052152D01*
X0181997Y0053366D02*
X0181997Y0055218D01*
X0182614Y0055835D01*
X0185083Y0055835D01*
X0185700Y0055218D01*
X0185700Y0053366D01*
X0181997Y0053366D01*
X0181997Y0049683D02*
X0185700Y0049683D01*
X0185333Y0058000D02*
X0185950Y0058617D01*
X0185950Y0059852D01*
X0185333Y0060469D01*
X0184098Y0060469D01*
X0183481Y0059852D01*
X0183481Y0059234D01*
X0184098Y0058000D01*
X0182247Y0058000D01*
X0182247Y0060469D01*
X0182247Y0061683D02*
X0184716Y0061683D01*
X0185950Y0062918D01*
X0184716Y0064152D01*
X0182247Y0064152D01*
X0164058Y0177813D02*
X0164058Y0181516D01*
X0162207Y0179665D01*
X0164675Y0179665D01*
X0160992Y0180899D02*
X0160375Y0181516D01*
X0159141Y0181516D01*
X0158523Y0180899D01*
X0158523Y0178430D01*
X0159141Y0177813D01*
X0160375Y0177813D01*
X0160992Y0178430D01*
X0025425Y0054899D02*
X0025425Y0052430D01*
X0024808Y0051813D01*
X0023574Y0051813D01*
X0022957Y0052430D01*
X0025425Y0054899D01*
X0024808Y0055516D01*
X0023574Y0055516D01*
X0022957Y0054899D01*
X0022957Y0052430D01*
X0021742Y0051813D02*
X0019273Y0051813D01*
X0021742Y0054282D01*
X0021742Y0054899D01*
X0021125Y0055516D01*
X0019891Y0055516D01*
X0019273Y0054899D01*
X0018059Y0054899D02*
X0017442Y0055516D01*
X0016208Y0055516D01*
X0015590Y0054899D01*
X0015590Y0052430D01*
X0016208Y0051813D01*
X0017442Y0051813D01*
X0018059Y0052430D01*
X0018235Y0032953D02*
X0016384Y0032953D01*
X0016384Y0029250D01*
X0018235Y0029250D01*
X0018852Y0029867D01*
X0018852Y0032336D01*
X0018235Y0032953D01*
X0020067Y0031719D02*
X0021301Y0032953D01*
X0021301Y0029250D01*
X0020067Y0029250D02*
X0022536Y0029250D01*
D12*
X0004600Y0074100D02*
X0004600Y0161100D01*
X0070600Y0161100D01*
X0070600Y0074100D01*
X0004600Y0074100D01*
X0006600Y0076100D02*
X0026600Y0076100D01*
X0026600Y0086100D01*
X0006600Y0086100D01*
X0006600Y0076100D01*
X0014896Y0095300D02*
X0019400Y0095300D01*
X0019400Y0098303D01*
X0019400Y0099904D02*
X0014896Y0099904D01*
X0019400Y0102906D01*
X0014896Y0102906D01*
X0015647Y0104508D02*
X0018649Y0104508D01*
X0019400Y0105258D01*
X0019400Y0106760D01*
X0018649Y0107510D01*
X0015647Y0107510D02*
X0014896Y0106760D01*
X0014896Y0105258D01*
X0015647Y0104508D01*
X0014896Y0098303D02*
X0014896Y0095300D01*
X0017148Y0095300D02*
X0017148Y0096801D01*
X0048600Y0086100D02*
X0048600Y0076100D01*
X0068600Y0076100D01*
X0068600Y0086100D01*
X0048600Y0086100D01*
X0085477Y0102627D02*
X0086495Y0102627D01*
X0088530Y0102627D02*
X0092600Y0102627D01*
X0092600Y0103644D02*
X0092600Y0101609D01*
X0092600Y0099602D02*
X0089547Y0099602D01*
X0088530Y0098584D01*
X0088530Y0095532D01*
X0092600Y0095532D01*
X0091582Y0093525D02*
X0089547Y0093525D01*
X0088530Y0092507D01*
X0088530Y0090472D01*
X0089547Y0089455D01*
X0091582Y0089455D01*
X0092600Y0090472D01*
X0092600Y0092507D01*
X0091582Y0093525D01*
X0088530Y0087443D02*
X0088530Y0086425D01*
X0090565Y0084390D01*
X0092600Y0084390D02*
X0088530Y0084390D01*
X0088530Y0082374D02*
X0088530Y0080339D01*
X0087512Y0081356D02*
X0091582Y0081356D01*
X0092600Y0082374D01*
X0092600Y0078332D02*
X0092600Y0075279D01*
X0091582Y0074262D01*
X0089547Y0074262D01*
X0088530Y0075279D01*
X0088530Y0078332D01*
X0089547Y0072255D02*
X0088530Y0071237D01*
X0088530Y0069202D01*
X0089547Y0068184D01*
X0091582Y0068184D01*
X0092600Y0069202D01*
X0092600Y0071237D01*
X0090565Y0072255D02*
X0090565Y0068184D01*
X0092600Y0066168D02*
X0092600Y0064133D01*
X0092600Y0065151D02*
X0086495Y0065151D01*
X0086495Y0064133D01*
X0086495Y0062126D02*
X0086495Y0058056D01*
X0092600Y0058056D01*
X0092600Y0062126D01*
X0089547Y0060091D02*
X0089547Y0058056D01*
X0087512Y0056049D02*
X0086495Y0056049D01*
X0087512Y0056049D02*
X0089547Y0054014D01*
X0092600Y0054014D01*
X0089547Y0054014D02*
X0087512Y0051979D01*
X0086495Y0051979D01*
X0086495Y0049962D02*
X0086495Y0047927D01*
X0086495Y0048945D02*
X0092600Y0048945D01*
X0092600Y0049962D02*
X0092600Y0047927D01*
X0091582Y0045920D02*
X0087512Y0045920D01*
X0086495Y0044903D01*
X0086495Y0041850D01*
X0092600Y0041850D01*
X0092600Y0044903D01*
X0091582Y0045920D01*
X0090565Y0072255D02*
X0089547Y0072255D01*
X0118600Y0096600D02*
X0128600Y0096600D01*
X0128600Y0176600D01*
X0118600Y0176600D01*
X0118600Y0096600D01*
X0128600Y0096600D02*
X0168600Y0096600D01*
X0168600Y0176600D01*
X0128600Y0176600D01*
X0091625Y0177337D02*
X0069575Y0177337D01*
X0069575Y0163863D02*
X0091625Y0163863D01*
X0092600Y0146194D02*
X0089547Y0146194D01*
X0088530Y0145176D01*
X0088530Y0143141D01*
X0090565Y0143141D02*
X0090565Y0146194D01*
X0092600Y0146194D02*
X0092600Y0143141D01*
X0091582Y0142124D01*
X0090565Y0143141D01*
X0092600Y0140117D02*
X0092600Y0136046D01*
X0088530Y0140117D01*
X0088530Y0136046D01*
X0091582Y0134025D02*
X0091582Y0133008D01*
X0092600Y0133008D01*
X0092600Y0134025D01*
X0091582Y0134025D01*
X0091582Y0131001D02*
X0089547Y0131001D01*
X0088530Y0129983D01*
X0088530Y0127948D01*
X0089547Y0126931D01*
X0091582Y0126931D01*
X0092600Y0127948D01*
X0092600Y0129983D01*
X0091582Y0131001D01*
X0092600Y0124924D02*
X0092600Y0121871D01*
X0091582Y0120853D01*
X0089547Y0120853D01*
X0088530Y0121871D01*
X0088530Y0124924D01*
X0091582Y0118832D02*
X0092600Y0118832D01*
X0092600Y0117815D01*
X0091582Y0117815D01*
X0091582Y0118832D01*
X0091582Y0115808D02*
X0090565Y0114790D01*
X0090565Y0112755D01*
X0089547Y0111738D01*
X0088530Y0112755D01*
X0088530Y0115808D01*
X0091582Y0115808D02*
X0092600Y0114790D01*
X0092600Y0111738D01*
X0092600Y0109731D02*
X0092600Y0106678D01*
X0091582Y0105660D01*
X0089547Y0105660D01*
X0088530Y0106678D01*
X0088530Y0109731D01*
X0088530Y0102627D02*
X0088530Y0101609D01*
X0068600Y0149100D02*
X0048600Y0149100D01*
X0048600Y0159100D01*
X0068600Y0159100D01*
X0068600Y0149100D01*
X0026600Y0149100D02*
X0006600Y0149100D01*
X0006600Y0159100D01*
X0026600Y0159100D01*
X0026600Y0149100D01*
X0048038Y0192850D02*
X0048038Y0197354D01*
X0050290Y0197354D01*
X0051041Y0196603D01*
X0051041Y0195102D01*
X0050290Y0194351D01*
X0048038Y0194351D01*
X0052642Y0192850D02*
X0054143Y0194351D01*
X0055645Y0192850D01*
X0055645Y0197354D01*
X0057246Y0197354D02*
X0059498Y0197354D01*
X0060249Y0196603D01*
X0060249Y0195102D01*
X0059498Y0194351D01*
X0057246Y0194351D01*
X0057246Y0192850D02*
X0057246Y0197354D01*
X0058747Y0194351D02*
X0060249Y0192850D01*
X0052642Y0192850D02*
X0052642Y0197354D01*
X0168600Y0176600D02*
X0178600Y0176600D01*
X0178600Y0096600D01*
X0168600Y0096600D01*
X0166350Y0078999D02*
X0166350Y0075996D01*
X0166350Y0077497D02*
X0161846Y0077497D01*
X0163347Y0075996D01*
X0162597Y0074395D02*
X0164098Y0074395D01*
X0164849Y0073644D01*
X0164849Y0071392D01*
X0166350Y0071392D02*
X0161846Y0071392D01*
X0161846Y0073644D01*
X0162597Y0074395D01*
X0161846Y0069791D02*
X0161846Y0068289D01*
X0161846Y0069040D02*
X0165599Y0069040D01*
X0166350Y0068289D01*
X0166350Y0067539D01*
X0165599Y0066788D01*
X0164905Y0064054D02*
X0164154Y0063303D01*
X0164154Y0062553D01*
X0164905Y0061802D01*
X0166406Y0061802D01*
X0167156Y0061051D01*
X0167156Y0060301D01*
X0166406Y0059550D01*
X0164905Y0059550D01*
X0164154Y0060301D01*
X0162553Y0060301D02*
X0162553Y0064054D01*
X0164905Y0064054D02*
X0166406Y0064054D01*
X0167156Y0063303D01*
X0168758Y0062553D02*
X0170259Y0064054D01*
X0171760Y0062553D01*
X0171760Y0059550D01*
X0173362Y0059550D02*
X0173362Y0064054D01*
X0175614Y0064054D01*
X0176364Y0063303D01*
X0176364Y0061802D01*
X0175614Y0061051D01*
X0173362Y0061051D01*
X0174863Y0061051D02*
X0176364Y0059550D01*
X0179467Y0059550D02*
X0179467Y0064054D01*
X0177966Y0064054D02*
X0180968Y0064054D01*
X0171760Y0061802D02*
X0168758Y0061802D01*
X0168758Y0062553D02*
X0168758Y0059550D01*
X0162553Y0060301D02*
X0161802Y0059550D01*
X0160301Y0059550D01*
X0159550Y0060301D01*
X0159550Y0064054D01*
X0149150Y0016010D02*
X0149150Y0013008D01*
X0146147Y0016010D01*
X0145397Y0016010D01*
X0144646Y0015260D01*
X0144646Y0013758D01*
X0145397Y0013008D01*
X0145397Y0011406D02*
X0146898Y0011406D01*
X0147649Y0010656D01*
X0147649Y0008404D01*
X0149150Y0008404D02*
X0144646Y0008404D01*
X0144646Y0010656D01*
X0145397Y0011406D01*
X0144646Y0006803D02*
X0144646Y0005301D01*
X0144646Y0006052D02*
X0148399Y0006052D01*
X0149150Y0005301D01*
X0149150Y0004551D01*
X0148399Y0003800D01*
X0180796Y0132088D02*
X0182297Y0133589D01*
X0180796Y0135091D01*
X0185300Y0135091D01*
X0185300Y0132088D02*
X0180796Y0132088D01*
X0180796Y0136692D02*
X0180796Y0139695D01*
X0180796Y0138193D02*
X0185300Y0138193D01*
X0185300Y0141296D02*
X0180796Y0141296D01*
X0180796Y0143548D01*
X0181547Y0144299D01*
X0183048Y0144299D01*
X0183799Y0143548D01*
X0183799Y0141296D01*
X0183799Y0142797D02*
X0185300Y0144299D01*
D13*
X0166395Y0150805D02*
X0157340Y0150805D01*
X0149860Y0150805D02*
X0140805Y0150805D01*
X0140805Y0169702D01*
X0147498Y0176395D01*
X0149860Y0176395D01*
X0157340Y0176395D02*
X0159702Y0176395D01*
X0166395Y0169702D01*
X0166395Y0150805D01*
X0149860Y0151985D02*
X0149577Y0152080D01*
X0149296Y0152182D01*
X0149019Y0152291D01*
X0148743Y0152406D01*
X0148471Y0152528D01*
X0148202Y0152657D01*
X0147936Y0152792D01*
X0147674Y0152934D01*
X0147415Y0153082D01*
X0147159Y0153236D01*
X0146908Y0153397D01*
X0146660Y0153564D01*
X0146417Y0153736D01*
X0146178Y0153915D01*
X0145943Y0154099D01*
X0145713Y0154289D01*
X0145488Y0154485D01*
X0145268Y0154686D01*
X0145052Y0154892D01*
X0144842Y0155104D01*
X0144637Y0155320D01*
X0144437Y0155542D01*
X0144243Y0155769D01*
X0144054Y0156000D01*
X0143871Y0156235D01*
X0143694Y0156475D01*
X0143523Y0156720D01*
X0143358Y0156968D01*
X0143199Y0157221D01*
X0143046Y0157477D01*
X0142899Y0157737D01*
X0142759Y0158000D01*
X0142625Y0158267D01*
X0142498Y0158537D01*
X0142378Y0158810D01*
X0142264Y0159085D01*
X0142157Y0159364D01*
X0142057Y0159645D01*
X0141964Y0159928D01*
X0141877Y0160214D01*
X0141798Y0160502D01*
X0141726Y0160791D01*
X0141661Y0161082D01*
X0141603Y0161375D01*
X0141552Y0161669D01*
X0141508Y0161964D01*
X0141472Y0162260D01*
X0141443Y0162557D01*
X0141421Y0162855D01*
X0141406Y0163153D01*
X0141399Y0163451D01*
X0141399Y0163749D01*
X0141406Y0164047D01*
X0141421Y0164345D01*
X0141443Y0164643D01*
X0141472Y0164940D01*
X0141508Y0165236D01*
X0141552Y0165531D01*
X0141603Y0165825D01*
X0141661Y0166118D01*
X0141726Y0166409D01*
X0141798Y0166698D01*
X0141877Y0166986D01*
X0141964Y0167272D01*
X0142057Y0167555D01*
X0142157Y0167836D01*
X0142264Y0168115D01*
X0142378Y0168390D01*
X0142498Y0168663D01*
X0142625Y0168933D01*
X0142759Y0169200D01*
X0142899Y0169463D01*
X0143046Y0169723D01*
X0143199Y0169979D01*
X0143358Y0170232D01*
X0143523Y0170480D01*
X0143694Y0170725D01*
X0143871Y0170965D01*
X0144054Y0171200D01*
X0144243Y0171431D01*
X0144437Y0171658D01*
X0144637Y0171880D01*
X0144842Y0172096D01*
X0145052Y0172308D01*
X0145268Y0172514D01*
X0145488Y0172715D01*
X0145713Y0172911D01*
X0145943Y0173101D01*
X0146178Y0173285D01*
X0146417Y0173464D01*
X0146660Y0173636D01*
X0146908Y0173803D01*
X0147159Y0173964D01*
X0147415Y0174118D01*
X0147674Y0174266D01*
X0147936Y0174408D01*
X0148202Y0174543D01*
X0148471Y0174672D01*
X0148743Y0174794D01*
X0149019Y0174909D01*
X0149296Y0175018D01*
X0149577Y0175120D01*
X0149860Y0175215D01*
X0157340Y0175215D02*
X0157623Y0175120D01*
X0157904Y0175018D01*
X0158181Y0174909D01*
X0158457Y0174794D01*
X0158729Y0174672D01*
X0158998Y0174543D01*
X0159264Y0174408D01*
X0159526Y0174266D01*
X0159785Y0174118D01*
X0160041Y0173964D01*
X0160292Y0173803D01*
X0160540Y0173636D01*
X0160783Y0173464D01*
X0161022Y0173285D01*
X0161257Y0173101D01*
X0161487Y0172911D01*
X0161712Y0172715D01*
X0161932Y0172514D01*
X0162148Y0172308D01*
X0162358Y0172096D01*
X0162563Y0171880D01*
X0162763Y0171658D01*
X0162957Y0171431D01*
X0163146Y0171200D01*
X0163329Y0170965D01*
X0163506Y0170725D01*
X0163677Y0170480D01*
X0163842Y0170232D01*
X0164001Y0169979D01*
X0164154Y0169723D01*
X0164301Y0169463D01*
X0164441Y0169200D01*
X0164575Y0168933D01*
X0164702Y0168663D01*
X0164822Y0168390D01*
X0164936Y0168115D01*
X0165043Y0167836D01*
X0165143Y0167555D01*
X0165236Y0167272D01*
X0165323Y0166986D01*
X0165402Y0166698D01*
X0165474Y0166409D01*
X0165539Y0166118D01*
X0165597Y0165825D01*
X0165648Y0165531D01*
X0165692Y0165236D01*
X0165728Y0164940D01*
X0165757Y0164643D01*
X0165779Y0164345D01*
X0165794Y0164047D01*
X0165801Y0163749D01*
X0165801Y0163451D01*
X0165794Y0163153D01*
X0165779Y0162855D01*
X0165757Y0162557D01*
X0165728Y0162260D01*
X0165692Y0161964D01*
X0165648Y0161669D01*
X0165597Y0161375D01*
X0165539Y0161082D01*
X0165474Y0160791D01*
X0165402Y0160502D01*
X0165323Y0160214D01*
X0165236Y0159928D01*
X0165143Y0159645D01*
X0165043Y0159364D01*
X0164936Y0159085D01*
X0164822Y0158810D01*
X0164702Y0158537D01*
X0164575Y0158267D01*
X0164441Y0158000D01*
X0164301Y0157737D01*
X0164154Y0157477D01*
X0164001Y0157221D01*
X0163842Y0156968D01*
X0163677Y0156720D01*
X0163506Y0156475D01*
X0163329Y0156235D01*
X0163146Y0156000D01*
X0162957Y0155769D01*
X0162763Y0155542D01*
X0162563Y0155320D01*
X0162358Y0155104D01*
X0162148Y0154892D01*
X0161932Y0154686D01*
X0161712Y0154485D01*
X0161487Y0154289D01*
X0161257Y0154099D01*
X0161022Y0153915D01*
X0160783Y0153736D01*
X0160540Y0153564D01*
X0160292Y0153397D01*
X0160041Y0153236D01*
X0159785Y0153082D01*
X0159526Y0152934D01*
X0159264Y0152792D01*
X0158998Y0152657D01*
X0158729Y0152528D01*
X0158457Y0152406D01*
X0158181Y0152291D01*
X0157904Y0152182D01*
X0157623Y0152080D01*
X0157340Y0151985D01*
X0136900Y0151921D02*
X0136133Y0151154D01*
X0134598Y0151154D01*
X0134598Y0153456D01*
X0135365Y0154223D01*
X0136133Y0154223D01*
X0136900Y0153456D01*
X0136900Y0151921D01*
X0136900Y0149619D02*
X0135365Y0148085D01*
X0135365Y0148852D02*
X0135365Y0146550D01*
X0136900Y0146550D02*
X0132296Y0146550D01*
X0132296Y0148852D01*
X0133063Y0149619D01*
X0134598Y0149619D01*
X0135365Y0148852D01*
X0134598Y0151154D02*
X0133063Y0152689D01*
X0132296Y0154223D01*
X0126456Y0180550D02*
X0124921Y0180550D01*
X0124154Y0181317D01*
X0122619Y0180550D02*
X0121085Y0182085D01*
X0121852Y0182085D02*
X0119550Y0182085D01*
X0119550Y0180550D02*
X0119550Y0185154D01*
X0121852Y0185154D01*
X0122619Y0184387D01*
X0122619Y0182852D01*
X0121852Y0182085D01*
X0124154Y0184387D02*
X0124921Y0185154D01*
X0126456Y0185154D01*
X0127223Y0184387D01*
X0127223Y0183619D01*
X0126456Y0182852D01*
X0127223Y0182085D01*
X0127223Y0181317D01*
X0126456Y0180550D01*
X0126456Y0182852D02*
X0125689Y0182852D01*
X0085265Y0156904D02*
X0085265Y0156137D01*
X0082196Y0153067D01*
X0082196Y0152300D01*
X0080661Y0152300D02*
X0079127Y0153835D01*
X0079894Y0153835D02*
X0077592Y0153835D01*
X0077592Y0152300D02*
X0077592Y0156904D01*
X0079894Y0156904D01*
X0080661Y0156137D01*
X0080661Y0154602D01*
X0079894Y0153835D01*
X0082196Y0156904D02*
X0085265Y0156904D01*
X0083998Y0133654D02*
X0082463Y0133654D01*
X0081696Y0132887D01*
X0081696Y0132119D01*
X0082463Y0131352D01*
X0083998Y0131352D01*
X0084765Y0130585D01*
X0084765Y0129817D01*
X0083998Y0129050D01*
X0082463Y0129050D01*
X0081696Y0129817D01*
X0081696Y0130585D01*
X0082463Y0131352D01*
X0083998Y0131352D02*
X0084765Y0132119D01*
X0084765Y0132887D01*
X0083998Y0133654D01*
X0080161Y0132887D02*
X0080161Y0131352D01*
X0079394Y0130585D01*
X0077092Y0130585D01*
X0078627Y0130585D02*
X0080161Y0129050D01*
X0077092Y0129050D02*
X0077092Y0133654D01*
X0079394Y0133654D01*
X0080161Y0132887D01*
X0054900Y0120827D02*
X0054900Y0117758D01*
X0051831Y0120827D01*
X0051063Y0120827D01*
X0050296Y0120060D01*
X0050296Y0118525D01*
X0051063Y0117758D01*
X0050296Y0114689D02*
X0054900Y0114689D01*
X0054900Y0116223D02*
X0054900Y0113154D01*
X0054900Y0111619D02*
X0053365Y0110085D01*
X0053365Y0110852D02*
X0053365Y0108550D01*
X0054900Y0108550D02*
X0050296Y0108550D01*
X0050296Y0110852D01*
X0051063Y0111619D01*
X0052598Y0111619D01*
X0053365Y0110852D01*
X0051831Y0113154D02*
X0050296Y0114689D01*
X0056550Y0091404D02*
X0058852Y0091404D01*
X0059619Y0090637D01*
X0059619Y0089102D01*
X0058852Y0088335D01*
X0056550Y0088335D01*
X0058085Y0088335D02*
X0059619Y0086800D01*
X0061154Y0087567D02*
X0061921Y0086800D01*
X0063456Y0086800D01*
X0064223Y0087567D01*
X0064223Y0090637D01*
X0063456Y0091404D01*
X0061921Y0091404D01*
X0061154Y0090637D01*
X0061154Y0089869D01*
X0061921Y0089102D01*
X0064223Y0089102D01*
X0056550Y0086800D02*
X0056550Y0091404D01*
X0032395Y0072395D02*
X0032395Y0063340D01*
X0038550Y0063137D02*
X0038550Y0060067D01*
X0039317Y0059300D01*
X0040852Y0059300D01*
X0041619Y0060067D01*
X0043154Y0060067D02*
X0043921Y0059300D01*
X0045456Y0059300D01*
X0046223Y0060067D01*
X0046223Y0061602D01*
X0045456Y0062369D01*
X0044689Y0062369D01*
X0043154Y0061602D01*
X0043154Y0063904D01*
X0046223Y0063904D01*
X0041619Y0063137D02*
X0040852Y0063904D01*
X0039317Y0063904D01*
X0038550Y0063137D01*
X0032395Y0055860D02*
X0032395Y0046805D01*
X0013498Y0046805D01*
X0006805Y0053498D01*
X0006805Y0055860D01*
X0006805Y0063340D02*
X0006805Y0065702D01*
X0013498Y0072395D01*
X0032395Y0072395D01*
X0031215Y0055860D02*
X0031120Y0055577D01*
X0031018Y0055296D01*
X0030909Y0055019D01*
X0030794Y0054743D01*
X0030672Y0054471D01*
X0030543Y0054202D01*
X0030408Y0053936D01*
X0030266Y0053674D01*
X0030118Y0053415D01*
X0029964Y0053159D01*
X0029803Y0052908D01*
X0029636Y0052660D01*
X0029464Y0052417D01*
X0029285Y0052178D01*
X0029101Y0051943D01*
X0028911Y0051713D01*
X0028715Y0051488D01*
X0028514Y0051268D01*
X0028308Y0051052D01*
X0028096Y0050842D01*
X0027880Y0050637D01*
X0027658Y0050437D01*
X0027431Y0050243D01*
X0027200Y0050054D01*
X0026965Y0049871D01*
X0026725Y0049694D01*
X0026480Y0049523D01*
X0026232Y0049358D01*
X0025979Y0049199D01*
X0025723Y0049046D01*
X0025463Y0048899D01*
X0025200Y0048759D01*
X0024933Y0048625D01*
X0024663Y0048498D01*
X0024390Y0048378D01*
X0024115Y0048264D01*
X0023836Y0048157D01*
X0023555Y0048057D01*
X0023272Y0047964D01*
X0022986Y0047877D01*
X0022698Y0047798D01*
X0022409Y0047726D01*
X0022118Y0047661D01*
X0021825Y0047603D01*
X0021531Y0047552D01*
X0021236Y0047508D01*
X0020940Y0047472D01*
X0020643Y0047443D01*
X0020345Y0047421D01*
X0020047Y0047406D01*
X0019749Y0047399D01*
X0019451Y0047399D01*
X0019153Y0047406D01*
X0018855Y0047421D01*
X0018557Y0047443D01*
X0018260Y0047472D01*
X0017964Y0047508D01*
X0017669Y0047552D01*
X0017375Y0047603D01*
X0017082Y0047661D01*
X0016791Y0047726D01*
X0016502Y0047798D01*
X0016214Y0047877D01*
X0015928Y0047964D01*
X0015645Y0048057D01*
X0015364Y0048157D01*
X0015085Y0048264D01*
X0014810Y0048378D01*
X0014537Y0048498D01*
X0014267Y0048625D01*
X0014000Y0048759D01*
X0013737Y0048899D01*
X0013477Y0049046D01*
X0013221Y0049199D01*
X0012968Y0049358D01*
X0012720Y0049523D01*
X0012475Y0049694D01*
X0012235Y0049871D01*
X0012000Y0050054D01*
X0011769Y0050243D01*
X0011542Y0050437D01*
X0011320Y0050637D01*
X0011104Y0050842D01*
X0010892Y0051052D01*
X0010686Y0051268D01*
X0010485Y0051488D01*
X0010289Y0051713D01*
X0010099Y0051943D01*
X0009915Y0052178D01*
X0009736Y0052417D01*
X0009564Y0052660D01*
X0009397Y0052908D01*
X0009236Y0053159D01*
X0009082Y0053415D01*
X0008934Y0053674D01*
X0008792Y0053936D01*
X0008657Y0054202D01*
X0008528Y0054471D01*
X0008406Y0054743D01*
X0008291Y0055019D01*
X0008182Y0055296D01*
X0008080Y0055577D01*
X0007985Y0055860D01*
X0007985Y0063340D02*
X0008080Y0063623D01*
X0008182Y0063904D01*
X0008291Y0064181D01*
X0008406Y0064457D01*
X0008528Y0064729D01*
X0008657Y0064998D01*
X0008792Y0065264D01*
X0008934Y0065526D01*
X0009082Y0065785D01*
X0009236Y0066041D01*
X0009397Y0066292D01*
X0009564Y0066540D01*
X0009736Y0066783D01*
X0009915Y0067022D01*
X0010099Y0067257D01*
X0010289Y0067487D01*
X0010485Y0067712D01*
X0010686Y0067932D01*
X0010892Y0068148D01*
X0011104Y0068358D01*
X0011320Y0068563D01*
X0011542Y0068763D01*
X0011769Y0068957D01*
X0012000Y0069146D01*
X0012235Y0069329D01*
X0012475Y0069506D01*
X0012720Y0069677D01*
X0012968Y0069842D01*
X0013221Y0070001D01*
X0013477Y0070154D01*
X0013737Y0070301D01*
X0014000Y0070441D01*
X0014267Y0070575D01*
X0014537Y0070702D01*
X0014810Y0070822D01*
X0015085Y0070936D01*
X0015364Y0071043D01*
X0015645Y0071143D01*
X0015928Y0071236D01*
X0016214Y0071323D01*
X0016502Y0071402D01*
X0016791Y0071474D01*
X0017082Y0071539D01*
X0017375Y0071597D01*
X0017669Y0071648D01*
X0017964Y0071692D01*
X0018260Y0071728D01*
X0018557Y0071757D01*
X0018855Y0071779D01*
X0019153Y0071794D01*
X0019451Y0071801D01*
X0019749Y0071801D01*
X0020047Y0071794D01*
X0020345Y0071779D01*
X0020643Y0071757D01*
X0020940Y0071728D01*
X0021236Y0071692D01*
X0021531Y0071648D01*
X0021825Y0071597D01*
X0022118Y0071539D01*
X0022409Y0071474D01*
X0022698Y0071402D01*
X0022986Y0071323D01*
X0023272Y0071236D01*
X0023555Y0071143D01*
X0023836Y0071043D01*
X0024115Y0070936D01*
X0024390Y0070822D01*
X0024663Y0070702D01*
X0024933Y0070575D01*
X0025200Y0070441D01*
X0025463Y0070301D01*
X0025723Y0070154D01*
X0025979Y0070001D01*
X0026232Y0069842D01*
X0026480Y0069677D01*
X0026725Y0069506D01*
X0026965Y0069329D01*
X0027200Y0069146D01*
X0027431Y0068957D01*
X0027658Y0068763D01*
X0027880Y0068563D01*
X0028096Y0068358D01*
X0028308Y0068148D01*
X0028514Y0067932D01*
X0028715Y0067712D01*
X0028911Y0067487D01*
X0029101Y0067257D01*
X0029285Y0067022D01*
X0029464Y0066783D01*
X0029636Y0066540D01*
X0029803Y0066292D01*
X0029964Y0066041D01*
X0030118Y0065785D01*
X0030266Y0065526D01*
X0030408Y0065264D01*
X0030543Y0064998D01*
X0030672Y0064729D01*
X0030794Y0064457D01*
X0030909Y0064181D01*
X0031018Y0063904D01*
X0031120Y0063623D01*
X0031215Y0063340D01*
X0047092Y0055404D02*
X0047092Y0050800D01*
X0047092Y0052335D02*
X0049394Y0052335D01*
X0050161Y0053102D01*
X0050161Y0054637D01*
X0049394Y0055404D01*
X0047092Y0055404D01*
X0048627Y0052335D02*
X0050161Y0050800D01*
X0051696Y0050800D02*
X0054765Y0050800D01*
X0053231Y0050800D02*
X0053231Y0055404D01*
X0051696Y0053869D01*
X0096546Y0032956D02*
X0098848Y0030654D01*
X0098848Y0033723D01*
X0101150Y0032956D02*
X0096546Y0032956D01*
X0097313Y0029119D02*
X0096546Y0028352D01*
X0096546Y0026050D01*
X0101150Y0026050D01*
X0099615Y0026050D02*
X0099615Y0028352D01*
X0098848Y0029119D01*
X0097313Y0029119D01*
X0099615Y0027585D02*
X0101150Y0029119D01*
X0105046Y0028102D02*
X0105813Y0028869D01*
X0107348Y0028869D01*
X0108115Y0028102D01*
X0108115Y0025800D01*
X0108115Y0027335D02*
X0109650Y0028869D01*
X0109650Y0030404D02*
X0109650Y0033473D01*
X0109650Y0031939D02*
X0105046Y0031939D01*
X0106581Y0030404D01*
X0105046Y0028102D02*
X0105046Y0025800D01*
X0109650Y0025800D01*
X0113796Y0025550D02*
X0113796Y0027852D01*
X0114563Y0028619D01*
X0116098Y0028619D01*
X0116865Y0027852D01*
X0116865Y0025550D01*
X0116865Y0027085D02*
X0118400Y0028619D01*
X0118400Y0030154D02*
X0118400Y0033223D01*
X0118400Y0031689D02*
X0113796Y0031689D01*
X0115331Y0030154D01*
X0113796Y0025550D02*
X0118400Y0025550D01*
X0118400Y0034758D02*
X0118400Y0037827D01*
X0118400Y0036292D02*
X0113796Y0036292D01*
X0115331Y0034758D01*
X0109650Y0035775D02*
X0108883Y0035008D01*
X0105813Y0038077D01*
X0108883Y0038077D01*
X0109650Y0037310D01*
X0109650Y0035775D01*
X0108883Y0035008D02*
X0105813Y0035008D01*
X0105046Y0035775D01*
X0105046Y0037310D01*
X0105813Y0038077D01*
X0129592Y0014387D02*
X0129592Y0011317D01*
X0130359Y0010550D01*
X0131894Y0010550D01*
X0132661Y0011317D01*
X0134196Y0011317D02*
X0134963Y0010550D01*
X0136498Y0010550D01*
X0137265Y0011317D01*
X0137265Y0014387D01*
X0136498Y0015154D01*
X0134963Y0015154D01*
X0134196Y0014387D01*
X0134196Y0013619D01*
X0134963Y0012852D01*
X0137265Y0012852D01*
X0132661Y0014387D02*
X0131894Y0015154D01*
X0130359Y0015154D01*
X0129592Y0014387D01*
X0171092Y0015550D02*
X0171092Y0020154D01*
X0173394Y0020154D01*
X0174161Y0019387D01*
X0174161Y0017852D01*
X0173394Y0017085D01*
X0171092Y0017085D01*
X0172627Y0017085D02*
X0174161Y0015550D01*
X0175696Y0016317D02*
X0176463Y0015550D01*
X0177998Y0015550D01*
X0178765Y0016317D01*
X0178765Y0017852D01*
X0177998Y0018619D01*
X0177231Y0018619D01*
X0175696Y0017852D01*
X0175696Y0020154D01*
X0178765Y0020154D01*
X0178765Y0021050D02*
X0175696Y0021050D01*
X0178765Y0024119D01*
X0178765Y0024887D01*
X0177998Y0025654D01*
X0176463Y0025654D01*
X0175696Y0024887D01*
X0174161Y0024887D02*
X0174161Y0023352D01*
X0173394Y0022585D01*
X0171092Y0022585D01*
X0172627Y0022585D02*
X0174161Y0021050D01*
X0171092Y0021050D02*
X0171092Y0025654D01*
X0173394Y0025654D01*
X0174161Y0024887D01*
X0138515Y0077300D02*
X0135446Y0077300D01*
X0136981Y0077300D02*
X0136981Y0081904D01*
X0135446Y0080369D01*
X0133911Y0081137D02*
X0133144Y0081904D01*
X0131609Y0081904D01*
X0130842Y0081137D01*
X0130842Y0078067D01*
X0131609Y0077300D01*
X0133144Y0077300D01*
X0133911Y0078067D01*
X0155800Y0099817D02*
X0156567Y0099050D01*
X0158102Y0099050D01*
X0158869Y0099817D01*
X0158869Y0103654D01*
X0160404Y0102887D02*
X0161171Y0103654D01*
X0162706Y0103654D01*
X0163473Y0102887D01*
X0162706Y0101352D02*
X0161171Y0101352D01*
X0160404Y0102119D01*
X0160404Y0102887D01*
X0161939Y0104421D02*
X0161939Y0098283D01*
X0162706Y0099050D02*
X0161171Y0099050D01*
X0160404Y0099817D01*
X0162706Y0099050D02*
X0163473Y0099817D01*
X0163473Y0100585D01*
X0162706Y0101352D01*
X0165008Y0102119D02*
X0166542Y0103654D01*
X0166542Y0099050D01*
X0165008Y0099050D02*
X0168077Y0099050D01*
X0155800Y0099817D02*
X0155800Y0103654D01*
X0022577Y0173817D02*
X0021810Y0173050D01*
X0020275Y0173050D01*
X0019508Y0173817D01*
X0019508Y0175352D02*
X0021042Y0176119D01*
X0021810Y0176119D01*
X0022577Y0175352D01*
X0022577Y0173817D01*
X0022577Y0177654D02*
X0019508Y0177654D01*
X0019508Y0175352D01*
X0017973Y0173050D02*
X0014904Y0173050D01*
X0016439Y0173050D02*
X0016439Y0177654D01*
X0014904Y0176119D01*
X0013369Y0176887D02*
X0012602Y0177654D01*
X0011067Y0177654D01*
X0010300Y0176887D01*
X0010300Y0173817D01*
X0011067Y0173050D01*
X0012602Y0173050D01*
X0013369Y0173817D01*
X0010900Y0144015D02*
X0010900Y0140946D01*
X0007831Y0144015D01*
X0007063Y0144015D01*
X0006296Y0143248D01*
X0006296Y0141713D01*
X0007063Y0140946D01*
X0007063Y0139411D02*
X0006296Y0138644D01*
X0006296Y0137109D01*
X0007063Y0136342D01*
X0007831Y0136342D01*
X0008598Y0137109D01*
X0008598Y0138644D01*
X0009365Y0139411D01*
X0010133Y0139411D01*
X0010900Y0138644D01*
X0010900Y0137109D01*
X0010133Y0136342D01*
X0010133Y0134807D02*
X0006296Y0134807D01*
X0006296Y0131738D02*
X0010133Y0131738D01*
X0010900Y0132506D01*
X0010900Y0134040D01*
X0010133Y0134807D01*
X0011667Y0137877D02*
X0005529Y0137877D01*
D14*
X0070545Y0184891D02*
X0070545Y0186663D01*
X0070545Y0184891D02*
X0088655Y0184891D01*
X0088655Y0186663D01*
X0083537Y0186663D02*
X0083537Y0194537D01*
X0088655Y0194537D02*
X0088655Y0196309D01*
X0070545Y0196309D01*
X0070545Y0194537D01*
X0100218Y0082350D02*
X0110100Y0082350D01*
X0115100Y0078413D02*
X0115100Y0066287D01*
X0109982Y0062350D02*
X0100218Y0062350D01*
X0095100Y0066287D02*
X0095100Y0078413D01*
X0100100Y0072350D02*
X0100102Y0072491D01*
X0100108Y0072632D01*
X0100118Y0072772D01*
X0100132Y0072912D01*
X0100150Y0073052D01*
X0100171Y0073191D01*
X0100197Y0073330D01*
X0100226Y0073468D01*
X0100260Y0073604D01*
X0100297Y0073740D01*
X0100338Y0073875D01*
X0100383Y0074009D01*
X0100432Y0074141D01*
X0100484Y0074272D01*
X0100540Y0074401D01*
X0100600Y0074528D01*
X0100663Y0074654D01*
X0100729Y0074778D01*
X0100800Y0074901D01*
X0100873Y0075021D01*
X0100950Y0075139D01*
X0101030Y0075255D01*
X0101114Y0075368D01*
X0101200Y0075479D01*
X0101290Y0075588D01*
X0101383Y0075694D01*
X0101478Y0075797D01*
X0101577Y0075898D01*
X0101678Y0075996D01*
X0101782Y0076091D01*
X0101889Y0076183D01*
X0101998Y0076272D01*
X0102110Y0076357D01*
X0102224Y0076440D01*
X0102340Y0076520D01*
X0102459Y0076596D01*
X0102580Y0076668D01*
X0102702Y0076738D01*
X0102827Y0076803D01*
X0102953Y0076866D01*
X0103081Y0076924D01*
X0103211Y0076979D01*
X0103342Y0077031D01*
X0103475Y0077078D01*
X0103609Y0077122D01*
X0103744Y0077163D01*
X0103880Y0077199D01*
X0104017Y0077231D01*
X0104155Y0077260D01*
X0104293Y0077285D01*
X0104433Y0077305D01*
X0104573Y0077322D01*
X0104713Y0077335D01*
X0104854Y0077344D01*
X0104994Y0077349D01*
X0105135Y0077350D01*
X0105276Y0077347D01*
X0105417Y0077340D01*
X0105557Y0077329D01*
X0105697Y0077314D01*
X0105837Y0077295D01*
X0105976Y0077273D01*
X0106114Y0077246D01*
X0106252Y0077216D01*
X0106388Y0077181D01*
X0106524Y0077143D01*
X0106658Y0077101D01*
X0106792Y0077055D01*
X0106924Y0077006D01*
X0107054Y0076952D01*
X0107183Y0076895D01*
X0107310Y0076835D01*
X0107436Y0076771D01*
X0107559Y0076703D01*
X0107681Y0076632D01*
X0107801Y0076558D01*
X0107918Y0076480D01*
X0108033Y0076399D01*
X0108146Y0076315D01*
X0108257Y0076228D01*
X0108365Y0076137D01*
X0108470Y0076044D01*
X0108573Y0075947D01*
X0108673Y0075848D01*
X0108770Y0075746D01*
X0108864Y0075641D01*
X0108955Y0075534D01*
X0109043Y0075424D01*
X0109128Y0075312D01*
X0109210Y0075197D01*
X0109289Y0075080D01*
X0109364Y0074961D01*
X0109436Y0074840D01*
X0109504Y0074717D01*
X0109569Y0074592D01*
X0109631Y0074465D01*
X0109688Y0074336D01*
X0109743Y0074206D01*
X0109793Y0074075D01*
X0109840Y0073942D01*
X0109883Y0073808D01*
X0109922Y0073672D01*
X0109957Y0073536D01*
X0109989Y0073399D01*
X0110016Y0073261D01*
X0110040Y0073122D01*
X0110060Y0072982D01*
X0110076Y0072842D01*
X0110088Y0072702D01*
X0110096Y0072561D01*
X0110100Y0072420D01*
X0110100Y0072280D01*
X0110096Y0072139D01*
X0110088Y0071998D01*
X0110076Y0071858D01*
X0110060Y0071718D01*
X0110040Y0071578D01*
X0110016Y0071439D01*
X0109989Y0071301D01*
X0109957Y0071164D01*
X0109922Y0071028D01*
X0109883Y0070892D01*
X0109840Y0070758D01*
X0109793Y0070625D01*
X0109743Y0070494D01*
X0109688Y0070364D01*
X0109631Y0070235D01*
X0109569Y0070108D01*
X0109504Y0069983D01*
X0109436Y0069860D01*
X0109364Y0069739D01*
X0109289Y0069620D01*
X0109210Y0069503D01*
X0109128Y0069388D01*
X0109043Y0069276D01*
X0108955Y0069166D01*
X0108864Y0069059D01*
X0108770Y0068954D01*
X0108673Y0068852D01*
X0108573Y0068753D01*
X0108470Y0068656D01*
X0108365Y0068563D01*
X0108257Y0068472D01*
X0108146Y0068385D01*
X0108033Y0068301D01*
X0107918Y0068220D01*
X0107801Y0068142D01*
X0107681Y0068068D01*
X0107559Y0067997D01*
X0107436Y0067929D01*
X0107310Y0067865D01*
X0107183Y0067805D01*
X0107054Y0067748D01*
X0106924Y0067694D01*
X0106792Y0067645D01*
X0106658Y0067599D01*
X0106524Y0067557D01*
X0106388Y0067519D01*
X0106252Y0067484D01*
X0106114Y0067454D01*
X0105976Y0067427D01*
X0105837Y0067405D01*
X0105697Y0067386D01*
X0105557Y0067371D01*
X0105417Y0067360D01*
X0105276Y0067353D01*
X0105135Y0067350D01*
X0104994Y0067351D01*
X0104854Y0067356D01*
X0104713Y0067365D01*
X0104573Y0067378D01*
X0104433Y0067395D01*
X0104293Y0067415D01*
X0104155Y0067440D01*
X0104017Y0067469D01*
X0103880Y0067501D01*
X0103744Y0067537D01*
X0103609Y0067578D01*
X0103475Y0067622D01*
X0103342Y0067669D01*
X0103211Y0067721D01*
X0103081Y0067776D01*
X0102953Y0067834D01*
X0102827Y0067897D01*
X0102702Y0067962D01*
X0102580Y0068032D01*
X0102459Y0068104D01*
X0102340Y0068180D01*
X0102224Y0068260D01*
X0102110Y0068343D01*
X0101998Y0068428D01*
X0101889Y0068517D01*
X0101782Y0068609D01*
X0101678Y0068704D01*
X0101577Y0068802D01*
X0101478Y0068903D01*
X0101383Y0069006D01*
X0101290Y0069112D01*
X0101200Y0069221D01*
X0101114Y0069332D01*
X0101030Y0069445D01*
X0100950Y0069561D01*
X0100873Y0069679D01*
X0100800Y0069799D01*
X0100729Y0069922D01*
X0100663Y0070046D01*
X0100600Y0070172D01*
X0100540Y0070299D01*
X0100484Y0070428D01*
X0100432Y0070559D01*
X0100383Y0070691D01*
X0100338Y0070825D01*
X0100297Y0070960D01*
X0100260Y0071096D01*
X0100226Y0071232D01*
X0100197Y0071370D01*
X0100171Y0071509D01*
X0100150Y0071648D01*
X0100132Y0071788D01*
X0100118Y0071928D01*
X0100108Y0072068D01*
X0100102Y0072209D01*
X0100100Y0072350D01*
X0078600Y0066482D02*
X0078600Y0056600D01*
X0074663Y0051600D02*
X0062537Y0051600D01*
X0058600Y0056718D02*
X0058600Y0066482D01*
X0062537Y0071600D02*
X0074663Y0071600D01*
X0063600Y0061600D02*
X0063602Y0061741D01*
X0063608Y0061882D01*
X0063618Y0062022D01*
X0063632Y0062162D01*
X0063650Y0062302D01*
X0063671Y0062441D01*
X0063697Y0062580D01*
X0063726Y0062718D01*
X0063760Y0062854D01*
X0063797Y0062990D01*
X0063838Y0063125D01*
X0063883Y0063259D01*
X0063932Y0063391D01*
X0063984Y0063522D01*
X0064040Y0063651D01*
X0064100Y0063778D01*
X0064163Y0063904D01*
X0064229Y0064028D01*
X0064300Y0064151D01*
X0064373Y0064271D01*
X0064450Y0064389D01*
X0064530Y0064505D01*
X0064614Y0064618D01*
X0064700Y0064729D01*
X0064790Y0064838D01*
X0064883Y0064944D01*
X0064978Y0065047D01*
X0065077Y0065148D01*
X0065178Y0065246D01*
X0065282Y0065341D01*
X0065389Y0065433D01*
X0065498Y0065522D01*
X0065610Y0065607D01*
X0065724Y0065690D01*
X0065840Y0065770D01*
X0065959Y0065846D01*
X0066080Y0065918D01*
X0066202Y0065988D01*
X0066327Y0066053D01*
X0066453Y0066116D01*
X0066581Y0066174D01*
X0066711Y0066229D01*
X0066842Y0066281D01*
X0066975Y0066328D01*
X0067109Y0066372D01*
X0067244Y0066413D01*
X0067380Y0066449D01*
X0067517Y0066481D01*
X0067655Y0066510D01*
X0067793Y0066535D01*
X0067933Y0066555D01*
X0068073Y0066572D01*
X0068213Y0066585D01*
X0068354Y0066594D01*
X0068494Y0066599D01*
X0068635Y0066600D01*
X0068776Y0066597D01*
X0068917Y0066590D01*
X0069057Y0066579D01*
X0069197Y0066564D01*
X0069337Y0066545D01*
X0069476Y0066523D01*
X0069614Y0066496D01*
X0069752Y0066466D01*
X0069888Y0066431D01*
X0070024Y0066393D01*
X0070158Y0066351D01*
X0070292Y0066305D01*
X0070424Y0066256D01*
X0070554Y0066202D01*
X0070683Y0066145D01*
X0070810Y0066085D01*
X0070936Y0066021D01*
X0071059Y0065953D01*
X0071181Y0065882D01*
X0071301Y0065808D01*
X0071418Y0065730D01*
X0071533Y0065649D01*
X0071646Y0065565D01*
X0071757Y0065478D01*
X0071865Y0065387D01*
X0071970Y0065294D01*
X0072073Y0065197D01*
X0072173Y0065098D01*
X0072270Y0064996D01*
X0072364Y0064891D01*
X0072455Y0064784D01*
X0072543Y0064674D01*
X0072628Y0064562D01*
X0072710Y0064447D01*
X0072789Y0064330D01*
X0072864Y0064211D01*
X0072936Y0064090D01*
X0073004Y0063967D01*
X0073069Y0063842D01*
X0073131Y0063715D01*
X0073188Y0063586D01*
X0073243Y0063456D01*
X0073293Y0063325D01*
X0073340Y0063192D01*
X0073383Y0063058D01*
X0073422Y0062922D01*
X0073457Y0062786D01*
X0073489Y0062649D01*
X0073516Y0062511D01*
X0073540Y0062372D01*
X0073560Y0062232D01*
X0073576Y0062092D01*
X0073588Y0061952D01*
X0073596Y0061811D01*
X0073600Y0061670D01*
X0073600Y0061530D01*
X0073596Y0061389D01*
X0073588Y0061248D01*
X0073576Y0061108D01*
X0073560Y0060968D01*
X0073540Y0060828D01*
X0073516Y0060689D01*
X0073489Y0060551D01*
X0073457Y0060414D01*
X0073422Y0060278D01*
X0073383Y0060142D01*
X0073340Y0060008D01*
X0073293Y0059875D01*
X0073243Y0059744D01*
X0073188Y0059614D01*
X0073131Y0059485D01*
X0073069Y0059358D01*
X0073004Y0059233D01*
X0072936Y0059110D01*
X0072864Y0058989D01*
X0072789Y0058870D01*
X0072710Y0058753D01*
X0072628Y0058638D01*
X0072543Y0058526D01*
X0072455Y0058416D01*
X0072364Y0058309D01*
X0072270Y0058204D01*
X0072173Y0058102D01*
X0072073Y0058003D01*
X0071970Y0057906D01*
X0071865Y0057813D01*
X0071757Y0057722D01*
X0071646Y0057635D01*
X0071533Y0057551D01*
X0071418Y0057470D01*
X0071301Y0057392D01*
X0071181Y0057318D01*
X0071059Y0057247D01*
X0070936Y0057179D01*
X0070810Y0057115D01*
X0070683Y0057055D01*
X0070554Y0056998D01*
X0070424Y0056944D01*
X0070292Y0056895D01*
X0070158Y0056849D01*
X0070024Y0056807D01*
X0069888Y0056769D01*
X0069752Y0056734D01*
X0069614Y0056704D01*
X0069476Y0056677D01*
X0069337Y0056655D01*
X0069197Y0056636D01*
X0069057Y0056621D01*
X0068917Y0056610D01*
X0068776Y0056603D01*
X0068635Y0056600D01*
X0068494Y0056601D01*
X0068354Y0056606D01*
X0068213Y0056615D01*
X0068073Y0056628D01*
X0067933Y0056645D01*
X0067793Y0056665D01*
X0067655Y0056690D01*
X0067517Y0056719D01*
X0067380Y0056751D01*
X0067244Y0056787D01*
X0067109Y0056828D01*
X0066975Y0056872D01*
X0066842Y0056919D01*
X0066711Y0056971D01*
X0066581Y0057026D01*
X0066453Y0057084D01*
X0066327Y0057147D01*
X0066202Y0057212D01*
X0066080Y0057282D01*
X0065959Y0057354D01*
X0065840Y0057430D01*
X0065724Y0057510D01*
X0065610Y0057593D01*
X0065498Y0057678D01*
X0065389Y0057767D01*
X0065282Y0057859D01*
X0065178Y0057954D01*
X0065077Y0058052D01*
X0064978Y0058153D01*
X0064883Y0058256D01*
X0064790Y0058362D01*
X0064700Y0058471D01*
X0064614Y0058582D01*
X0064530Y0058695D01*
X0064450Y0058811D01*
X0064373Y0058929D01*
X0064300Y0059049D01*
X0064229Y0059172D01*
X0064163Y0059296D01*
X0064100Y0059422D01*
X0064040Y0059549D01*
X0063984Y0059678D01*
X0063932Y0059809D01*
X0063883Y0059941D01*
X0063838Y0060075D01*
X0063797Y0060210D01*
X0063760Y0060346D01*
X0063726Y0060482D01*
X0063697Y0060620D01*
X0063671Y0060759D01*
X0063650Y0060898D01*
X0063632Y0061038D01*
X0063618Y0061178D01*
X0063608Y0061318D01*
X0063602Y0061459D01*
X0063600Y0061600D01*
X0059600Y0038600D02*
X0051600Y0038600D01*
X0051600Y0037600D01*
X0030600Y0037600D01*
X0030600Y0038600D01*
X0025600Y0038600D01*
X0025600Y0002600D01*
X0085600Y0002600D01*
X0085600Y0038600D01*
X0080600Y0038600D01*
X0080600Y0037600D01*
X0059600Y0037600D01*
X0059600Y0038600D01*
X0023655Y0035663D02*
X0023655Y0033891D01*
X0005545Y0033891D01*
X0005545Y0035663D01*
X0010663Y0035663D02*
X0010663Y0043537D01*
X0005545Y0043537D02*
X0005545Y0045309D01*
X0023655Y0045309D01*
X0023655Y0043537D01*
X0126801Y0030801D02*
X0126801Y0058399D01*
X0153002Y0058399D01*
X0154399Y0057002D01*
X0154399Y0030801D01*
X0126801Y0030801D01*
X0154500Y0059000D02*
X0154502Y0059049D01*
X0154508Y0059097D01*
X0154518Y0059145D01*
X0154532Y0059192D01*
X0154549Y0059238D01*
X0154570Y0059282D01*
X0154595Y0059324D01*
X0154623Y0059364D01*
X0154655Y0059402D01*
X0154689Y0059437D01*
X0154726Y0059469D01*
X0154765Y0059498D01*
X0154807Y0059524D01*
X0154851Y0059546D01*
X0154896Y0059564D01*
X0154943Y0059579D01*
X0154990Y0059590D01*
X0155039Y0059597D01*
X0155088Y0059600D01*
X0155137Y0059599D01*
X0155185Y0059594D01*
X0155234Y0059585D01*
X0155281Y0059572D01*
X0155327Y0059555D01*
X0155371Y0059535D01*
X0155414Y0059511D01*
X0155455Y0059484D01*
X0155493Y0059453D01*
X0155529Y0059420D01*
X0155561Y0059384D01*
X0155591Y0059345D01*
X0155618Y0059304D01*
X0155641Y0059260D01*
X0155660Y0059215D01*
X0155676Y0059169D01*
X0155688Y0059122D01*
X0155696Y0059073D01*
X0155700Y0059024D01*
X0155700Y0058976D01*
X0155696Y0058927D01*
X0155688Y0058878D01*
X0155676Y0058831D01*
X0155660Y0058785D01*
X0155641Y0058740D01*
X0155618Y0058696D01*
X0155591Y0058655D01*
X0155561Y0058616D01*
X0155529Y0058580D01*
X0155493Y0058547D01*
X0155455Y0058516D01*
X0155414Y0058489D01*
X0155371Y0058465D01*
X0155327Y0058445D01*
X0155281Y0058428D01*
X0155234Y0058415D01*
X0155185Y0058406D01*
X0155137Y0058401D01*
X0155088Y0058400D01*
X0155039Y0058403D01*
X0154990Y0058410D01*
X0154943Y0058421D01*
X0154896Y0058436D01*
X0154851Y0058454D01*
X0154807Y0058476D01*
X0154765Y0058502D01*
X0154726Y0058531D01*
X0154689Y0058563D01*
X0154655Y0058598D01*
X0154623Y0058636D01*
X0154595Y0058676D01*
X0154570Y0058718D01*
X0154549Y0058762D01*
X0154532Y0058808D01*
X0154518Y0058855D01*
X0154508Y0058903D01*
X0154502Y0058951D01*
X0154500Y0059000D01*
D15*
X0167600Y0068100D02*
X0167600Y0083100D01*
X0170100Y0085600D01*
X0175100Y0085600D01*
X0177600Y0083100D01*
X0177600Y0068100D01*
X0175100Y0065600D01*
X0170100Y0065600D01*
X0167600Y0068100D01*
X0177600Y0068100D02*
X0180100Y0065600D01*
X0185100Y0065600D01*
X0187600Y0068100D01*
X0187600Y0083100D01*
X0185100Y0085600D01*
X0180100Y0085600D01*
X0177600Y0083100D01*
X0187600Y0083100D02*
X0190100Y0085600D01*
X0195100Y0085600D01*
X0197600Y0083100D01*
X0197600Y0068100D01*
X0195100Y0065600D01*
X0190100Y0065600D01*
X0187600Y0068100D01*
X0189850Y0065600D02*
X0187350Y0063100D01*
X0187350Y0058100D01*
X0189850Y0055600D01*
X0187350Y0053100D01*
X0187350Y0048100D01*
X0189850Y0045600D01*
X0194850Y0045600D01*
X0197350Y0048100D01*
X0197350Y0053100D01*
X0194850Y0055600D01*
X0189850Y0055600D01*
X0194850Y0055600D02*
X0197350Y0058100D01*
X0197350Y0063100D01*
X0194850Y0065600D01*
X0189850Y0065600D01*
X0189850Y0045600D02*
X0187350Y0043100D01*
X0187350Y0038100D01*
X0189850Y0035600D01*
X0187350Y0033100D01*
X0187350Y0028100D01*
X0189850Y0025600D01*
X0194850Y0025600D01*
X0197350Y0028100D01*
X0197350Y0033100D01*
X0194850Y0035600D01*
X0189850Y0035600D01*
X0194850Y0035600D02*
X0197350Y0038100D01*
X0197350Y0043100D01*
X0194850Y0045600D01*
X0152100Y0021850D02*
X0152100Y0016850D01*
X0149600Y0014350D01*
X0144600Y0014350D01*
X0142100Y0016850D01*
X0142100Y0021850D01*
X0144600Y0024350D01*
X0149600Y0024350D01*
X0152100Y0021850D01*
X0158100Y0115600D02*
X0143100Y0115600D01*
X0140600Y0118100D01*
X0140600Y0123100D01*
X0143100Y0125600D01*
X0158100Y0125600D01*
X0160600Y0123100D01*
X0160600Y0118100D01*
X0158100Y0115600D01*
X0158100Y0125600D02*
X0160600Y0128100D01*
X0160600Y0133100D01*
X0158100Y0135600D01*
X0143100Y0135600D01*
X0140600Y0133100D01*
X0140600Y0128100D01*
X0143100Y0125600D01*
X0143100Y0135600D02*
X0140600Y0138100D01*
X0140600Y0143100D01*
X0143100Y0145600D01*
X0158100Y0145600D01*
X0160600Y0143100D01*
X0160600Y0138100D01*
X0158100Y0135600D01*
X0187350Y0134100D02*
X0187350Y0129100D01*
X0189850Y0126600D01*
X0187350Y0124100D01*
X0187350Y0119100D01*
X0189850Y0116600D01*
X0194850Y0116600D01*
X0197350Y0119100D01*
X0197350Y0124100D01*
X0194850Y0126600D01*
X0189850Y0126600D01*
X0194850Y0126600D02*
X0197350Y0129100D01*
X0197350Y0134100D01*
X0194850Y0136600D01*
X0189850Y0136600D01*
X0187350Y0139100D01*
X0187350Y0144100D01*
X0189850Y0146600D01*
X0187350Y0149100D01*
X0187350Y0154100D01*
X0189850Y0156600D01*
X0194850Y0156600D01*
X0197350Y0154100D01*
X0197350Y0149100D01*
X0194850Y0146600D01*
X0197350Y0144100D01*
X0197350Y0139100D01*
X0194850Y0136600D01*
X0189850Y0136600D02*
X0187350Y0134100D01*
X0189850Y0146600D02*
X0194850Y0146600D01*
X0066600Y0163100D02*
X0026600Y0163100D01*
X0026600Y0164100D01*
X0026600Y0190100D01*
X0033100Y0190100D01*
X0026600Y0190100D02*
X0026600Y0199600D01*
X0066600Y0199600D01*
X0066600Y0190100D01*
X0060100Y0190100D01*
X0066600Y0190100D02*
X0066600Y0164100D01*
X0066600Y0163100D01*
X0066600Y0164100D02*
X0026600Y0164100D01*
X0034600Y0169400D02*
X0034602Y0169489D01*
X0034608Y0169578D01*
X0034618Y0169667D01*
X0034632Y0169755D01*
X0034649Y0169842D01*
X0034671Y0169928D01*
X0034697Y0170014D01*
X0034726Y0170098D01*
X0034759Y0170181D01*
X0034795Y0170262D01*
X0034836Y0170342D01*
X0034879Y0170419D01*
X0034926Y0170495D01*
X0034977Y0170568D01*
X0035030Y0170639D01*
X0035087Y0170708D01*
X0035147Y0170774D01*
X0035210Y0170838D01*
X0035275Y0170898D01*
X0035343Y0170956D01*
X0035414Y0171010D01*
X0035487Y0171061D01*
X0035562Y0171109D01*
X0035639Y0171154D01*
X0035718Y0171195D01*
X0035799Y0171232D01*
X0035881Y0171266D01*
X0035965Y0171297D01*
X0036050Y0171323D01*
X0036136Y0171346D01*
X0036223Y0171364D01*
X0036311Y0171379D01*
X0036400Y0171390D01*
X0036489Y0171397D01*
X0036578Y0171400D01*
X0036667Y0171399D01*
X0036756Y0171394D01*
X0036844Y0171385D01*
X0036933Y0171372D01*
X0037020Y0171355D01*
X0037107Y0171335D01*
X0037193Y0171310D01*
X0037277Y0171282D01*
X0037360Y0171250D01*
X0037442Y0171214D01*
X0037522Y0171175D01*
X0037600Y0171132D01*
X0037676Y0171086D01*
X0037750Y0171036D01*
X0037822Y0170983D01*
X0037891Y0170927D01*
X0037958Y0170868D01*
X0038022Y0170806D01*
X0038083Y0170742D01*
X0038142Y0170674D01*
X0038197Y0170604D01*
X0038249Y0170532D01*
X0038298Y0170457D01*
X0038343Y0170381D01*
X0038385Y0170302D01*
X0038423Y0170222D01*
X0038458Y0170140D01*
X0038489Y0170056D01*
X0038517Y0169971D01*
X0038540Y0169885D01*
X0038560Y0169798D01*
X0038576Y0169711D01*
X0038588Y0169622D01*
X0038596Y0169534D01*
X0038600Y0169445D01*
X0038600Y0169355D01*
X0038596Y0169266D01*
X0038588Y0169178D01*
X0038576Y0169089D01*
X0038560Y0169002D01*
X0038540Y0168915D01*
X0038517Y0168829D01*
X0038489Y0168744D01*
X0038458Y0168660D01*
X0038423Y0168578D01*
X0038385Y0168498D01*
X0038343Y0168419D01*
X0038298Y0168343D01*
X0038249Y0168268D01*
X0038197Y0168196D01*
X0038142Y0168126D01*
X0038083Y0168058D01*
X0038022Y0167994D01*
X0037958Y0167932D01*
X0037891Y0167873D01*
X0037822Y0167817D01*
X0037750Y0167764D01*
X0037676Y0167714D01*
X0037600Y0167668D01*
X0037522Y0167625D01*
X0037442Y0167586D01*
X0037360Y0167550D01*
X0037277Y0167518D01*
X0037193Y0167490D01*
X0037107Y0167465D01*
X0037020Y0167445D01*
X0036933Y0167428D01*
X0036844Y0167415D01*
X0036756Y0167406D01*
X0036667Y0167401D01*
X0036578Y0167400D01*
X0036489Y0167403D01*
X0036400Y0167410D01*
X0036311Y0167421D01*
X0036223Y0167436D01*
X0036136Y0167454D01*
X0036050Y0167477D01*
X0035965Y0167503D01*
X0035881Y0167534D01*
X0035799Y0167568D01*
X0035718Y0167605D01*
X0035639Y0167646D01*
X0035562Y0167691D01*
X0035487Y0167739D01*
X0035414Y0167790D01*
X0035343Y0167844D01*
X0035275Y0167902D01*
X0035210Y0167962D01*
X0035147Y0168026D01*
X0035087Y0168092D01*
X0035030Y0168161D01*
X0034977Y0168232D01*
X0034926Y0168305D01*
X0034879Y0168381D01*
X0034836Y0168458D01*
X0034795Y0168538D01*
X0034759Y0168619D01*
X0034726Y0168702D01*
X0034697Y0168786D01*
X0034671Y0168872D01*
X0034649Y0168958D01*
X0034632Y0169045D01*
X0034618Y0169133D01*
X0034608Y0169222D01*
X0034602Y0169311D01*
X0034600Y0169400D01*
X0040100Y0190100D02*
X0053100Y0190100D01*
X0054600Y0169400D02*
X0054602Y0169489D01*
X0054608Y0169578D01*
X0054618Y0169667D01*
X0054632Y0169755D01*
X0054649Y0169842D01*
X0054671Y0169928D01*
X0054697Y0170014D01*
X0054726Y0170098D01*
X0054759Y0170181D01*
X0054795Y0170262D01*
X0054836Y0170342D01*
X0054879Y0170419D01*
X0054926Y0170495D01*
X0054977Y0170568D01*
X0055030Y0170639D01*
X0055087Y0170708D01*
X0055147Y0170774D01*
X0055210Y0170838D01*
X0055275Y0170898D01*
X0055343Y0170956D01*
X0055414Y0171010D01*
X0055487Y0171061D01*
X0055562Y0171109D01*
X0055639Y0171154D01*
X0055718Y0171195D01*
X0055799Y0171232D01*
X0055881Y0171266D01*
X0055965Y0171297D01*
X0056050Y0171323D01*
X0056136Y0171346D01*
X0056223Y0171364D01*
X0056311Y0171379D01*
X0056400Y0171390D01*
X0056489Y0171397D01*
X0056578Y0171400D01*
X0056667Y0171399D01*
X0056756Y0171394D01*
X0056844Y0171385D01*
X0056933Y0171372D01*
X0057020Y0171355D01*
X0057107Y0171335D01*
X0057193Y0171310D01*
X0057277Y0171282D01*
X0057360Y0171250D01*
X0057442Y0171214D01*
X0057522Y0171175D01*
X0057600Y0171132D01*
X0057676Y0171086D01*
X0057750Y0171036D01*
X0057822Y0170983D01*
X0057891Y0170927D01*
X0057958Y0170868D01*
X0058022Y0170806D01*
X0058083Y0170742D01*
X0058142Y0170674D01*
X0058197Y0170604D01*
X0058249Y0170532D01*
X0058298Y0170457D01*
X0058343Y0170381D01*
X0058385Y0170302D01*
X0058423Y0170222D01*
X0058458Y0170140D01*
X0058489Y0170056D01*
X0058517Y0169971D01*
X0058540Y0169885D01*
X0058560Y0169798D01*
X0058576Y0169711D01*
X0058588Y0169622D01*
X0058596Y0169534D01*
X0058600Y0169445D01*
X0058600Y0169355D01*
X0058596Y0169266D01*
X0058588Y0169178D01*
X0058576Y0169089D01*
X0058560Y0169002D01*
X0058540Y0168915D01*
X0058517Y0168829D01*
X0058489Y0168744D01*
X0058458Y0168660D01*
X0058423Y0168578D01*
X0058385Y0168498D01*
X0058343Y0168419D01*
X0058298Y0168343D01*
X0058249Y0168268D01*
X0058197Y0168196D01*
X0058142Y0168126D01*
X0058083Y0168058D01*
X0058022Y0167994D01*
X0057958Y0167932D01*
X0057891Y0167873D01*
X0057822Y0167817D01*
X0057750Y0167764D01*
X0057676Y0167714D01*
X0057600Y0167668D01*
X0057522Y0167625D01*
X0057442Y0167586D01*
X0057360Y0167550D01*
X0057277Y0167518D01*
X0057193Y0167490D01*
X0057107Y0167465D01*
X0057020Y0167445D01*
X0056933Y0167428D01*
X0056844Y0167415D01*
X0056756Y0167406D01*
X0056667Y0167401D01*
X0056578Y0167400D01*
X0056489Y0167403D01*
X0056400Y0167410D01*
X0056311Y0167421D01*
X0056223Y0167436D01*
X0056136Y0167454D01*
X0056050Y0167477D01*
X0055965Y0167503D01*
X0055881Y0167534D01*
X0055799Y0167568D01*
X0055718Y0167605D01*
X0055639Y0167646D01*
X0055562Y0167691D01*
X0055487Y0167739D01*
X0055414Y0167790D01*
X0055343Y0167844D01*
X0055275Y0167902D01*
X0055210Y0167962D01*
X0055147Y0168026D01*
X0055087Y0168092D01*
X0055030Y0168161D01*
X0054977Y0168232D01*
X0054926Y0168305D01*
X0054879Y0168381D01*
X0054836Y0168458D01*
X0054795Y0168538D01*
X0054759Y0168619D01*
X0054726Y0168702D01*
X0054697Y0168786D01*
X0054671Y0168872D01*
X0054649Y0168958D01*
X0054632Y0169045D01*
X0054618Y0169133D01*
X0054608Y0169222D01*
X0054602Y0169311D01*
X0054600Y0169400D01*
X0040100Y0143600D02*
X0035100Y0143600D01*
X0032600Y0141100D01*
X0032600Y0136100D01*
X0035100Y0133600D01*
X0040100Y0133600D01*
X0042600Y0136100D01*
X0042600Y0141100D01*
X0040100Y0143600D01*
X0040100Y0133600D02*
X0042600Y0131100D01*
X0042600Y0126100D01*
X0040100Y0123600D01*
X0042600Y0121100D01*
X0042600Y0116100D01*
X0040100Y0113600D01*
X0042600Y0111100D01*
X0042600Y0106100D01*
X0040100Y0103600D01*
X0042600Y0101100D01*
X0042600Y0096100D01*
X0040100Y0093600D01*
X0035100Y0093600D01*
X0032600Y0096100D01*
X0032600Y0101100D01*
X0035100Y0103600D01*
X0032600Y0106100D01*
X0032600Y0111100D01*
X0035100Y0113600D01*
X0040100Y0113600D01*
X0035100Y0113600D02*
X0032600Y0116100D01*
X0032600Y0121100D01*
X0035100Y0123600D01*
X0032600Y0126100D01*
X0032600Y0131100D01*
X0035100Y0133600D01*
X0035100Y0123600D02*
X0040100Y0123600D01*
X0040100Y0103600D02*
X0035100Y0103600D01*
D16*
X0074301Y0167450D02*
X0086899Y0167450D01*
X0086899Y0173750D02*
X0074301Y0173750D01*
D17*
X0080600Y0170600D03*
D18*
X0080403Y0170600D03*
D19*
X0033740Y0044253D02*
X0032089Y0044253D01*
X0032089Y0040950D01*
X0032089Y0042051D02*
X0033740Y0042051D01*
X0034290Y0042601D01*
X0034290Y0043702D01*
X0033740Y0044253D01*
X0030607Y0043702D02*
X0030057Y0044253D01*
X0028956Y0044253D01*
X0028405Y0043702D01*
X0028405Y0043152D01*
X0028956Y0042601D01*
X0030057Y0042601D01*
X0030607Y0042051D01*
X0030607Y0041500D01*
X0030057Y0040950D01*
X0028956Y0040950D01*
X0028405Y0041500D01*
X0027051Y0040950D02*
X0025950Y0040950D01*
X0026500Y0040950D02*
X0026500Y0044253D01*
X0025950Y0044253D02*
X0027051Y0044253D01*
D20*
X0153988Y0020191D03*
X0158712Y0020191D03*
X0160238Y0020191D03*
X0164962Y0020191D03*
X0166488Y0020191D03*
X0171212Y0020191D03*
D21*
X0168850Y0020191D03*
X0162600Y0020191D03*
X0156350Y0020191D03*
D22*
X0157399Y0057703D02*
X0158650Y0057703D01*
X0158900Y0057954D01*
X0158900Y0058454D01*
X0158650Y0058704D01*
X0157399Y0058704D01*
X0157649Y0059177D02*
X0157399Y0059427D01*
X0157399Y0059927D01*
X0157649Y0060178D01*
X0157899Y0060178D01*
X0158149Y0059927D01*
X0158400Y0060178D01*
X0158650Y0060178D01*
X0158900Y0059927D01*
X0158900Y0059427D01*
X0158650Y0059177D01*
X0158149Y0059677D02*
X0158149Y0059927D01*
X0113650Y0073204D02*
X0113400Y0072953D01*
X0113650Y0073204D02*
X0113650Y0073704D01*
X0113400Y0073954D01*
X0113150Y0073954D01*
X0112899Y0073704D01*
X0112899Y0073204D01*
X0112649Y0072953D01*
X0112399Y0072953D01*
X0112149Y0073204D01*
X0112149Y0073704D01*
X0112399Y0073954D01*
X0112649Y0074427D02*
X0112149Y0074927D01*
X0113650Y0074927D01*
X0113650Y0074427D02*
X0113650Y0075428D01*
X0068927Y0054051D02*
X0068177Y0053301D01*
X0069178Y0053301D01*
X0068927Y0054051D02*
X0068927Y0052550D01*
X0067704Y0052800D02*
X0067454Y0052550D01*
X0066954Y0052550D01*
X0066703Y0052800D01*
X0066954Y0053301D02*
X0067454Y0053301D01*
X0067704Y0053050D01*
X0067704Y0052800D01*
X0066954Y0053301D02*
X0066703Y0053551D01*
X0066703Y0053801D01*
X0066954Y0054051D01*
X0067454Y0054051D01*
X0067704Y0053801D01*
D23*
X0117051Y0069450D02*
X0117051Y0075750D01*
X0129649Y0075750D02*
X0129649Y0069450D01*
D24*
X0134250Y0104507D03*
X0134643Y0104507D03*
X0135037Y0104507D03*
X0135431Y0104507D03*
X0133462Y0104901D03*
X0131100Y0105689D03*
D25*
X0131494Y0105492D03*
X0148817Y0104311D03*
D26*
X0148423Y0102933D03*
X0132281Y0105295D03*
X0131887Y0105295D03*
D27*
X0132675Y0105098D03*
X0133069Y0105098D03*
X0133856Y0104704D03*
D28*
X0135824Y0104311D03*
D29*
X0136218Y0104507D03*
X0136612Y0104507D03*
X0137006Y0104507D03*
X0137399Y0104507D03*
X0137793Y0104507D03*
X0138187Y0104507D03*
D30*
X0138580Y0104507D03*
D31*
X0138974Y0103130D03*
X0146454Y0111004D03*
X0146061Y0111397D03*
X0145667Y0111791D03*
X0145273Y0112185D03*
X0144486Y0112578D03*
X0144092Y0112972D03*
X0143305Y0113366D03*
X0142911Y0113366D03*
X0141730Y0113366D03*
X0146848Y0110610D03*
X0147242Y0110216D03*
X0147635Y0109429D03*
D32*
X0140549Y0108641D03*
D33*
X0140943Y0107263D03*
X0141730Y0104507D03*
X0145667Y0102933D03*
D34*
X0141336Y0106673D03*
D35*
X0144880Y0112381D03*
X0143698Y0113169D03*
X0142517Y0113563D03*
X0142124Y0113563D03*
D36*
X0142124Y0104114D03*
X0144880Y0102933D03*
D37*
X0144486Y0103130D03*
X0144092Y0103130D03*
X0142911Y0103523D03*
X0142517Y0103917D03*
D38*
X0143305Y0103326D03*
X0143698Y0103326D03*
D39*
X0145273Y0103130D03*
D40*
X0146061Y0102933D03*
D41*
X0146454Y0102933D03*
D42*
X0146848Y0102933D03*
D43*
X0147242Y0102933D03*
D44*
X0147635Y0102933D03*
D45*
X0148423Y0108051D03*
X0148029Y0108838D03*
D46*
X0148029Y0102933D03*
D47*
X0149210Y0104311D03*
M02*
