G75*
%MOIN*%
%OFA0B0*%
%FSLAX25Y25*%
%IPPOS*%
%LPD*%
%AMOC8*
5,1,8,0,0,1.08239X$1,22.5*
%
%ADD10C,0.00000*%
%ADD11C,0.06000*%
%ADD12R,0.06600X0.06600*%
%ADD13OC8,0.06600*%
%ADD14OC8,0.06000*%
%ADD15C,0.07050*%
%ADD16C,0.06000*%
%ADD17C,0.13000*%
%ADD18C,0.07600*%
%ADD19R,0.05543X0.05543*%
%ADD20C,0.05543*%
%ADD21C,0.05937*%
%ADD22R,0.11811X0.00787*%
%ADD23R,0.14173X0.00787*%
%ADD24R,0.13386X0.00787*%
%ADD25R,0.12598X0.00787*%
%ADD26R,0.11024X0.00787*%
%ADD27R,0.10236X0.00787*%
%ADD28R,0.08661X0.00787*%
%ADD29R,0.03150X0.00787*%
%ADD30R,0.17323X0.00787*%
%ADD31R,0.25984X0.00787*%
%ADD32R,0.29921X0.00787*%
%ADD33R,0.02362X0.00787*%
%ADD34R,0.27559X0.00787*%
%ADD35R,0.28346X0.00787*%
%ADD36R,0.29134X0.00787*%
%ADD37R,0.26772X0.00787*%
%ADD38R,0.24409X0.00787*%
%ADD39R,0.22835X0.00787*%
%ADD40R,0.21260X0.00787*%
%ADD41R,0.19685X0.00787*%
%ADD42R,0.18110X0.00787*%
%ADD43R,0.03937X0.00787*%
%ADD44R,0.14961X0.00787*%
%ADD45R,0.09449X0.00787*%
%ADD46R,0.03562X0.03562*%
%ADD47C,0.02400*%
%ADD48C,0.01600*%
%ADD49C,0.03200*%
%ADD50R,0.04724X0.04724*%
%ADD51C,0.03562*%
%ADD52C,0.05315*%
%ADD53C,0.05000*%
%ADD54C,0.01200*%
D10*
X0002600Y0002600D02*
X0002600Y0199450D01*
X0199450Y0199450D01*
X0199450Y0002600D01*
X0002600Y0002600D01*
X0008112Y0014411D02*
X0008114Y0014569D01*
X0008120Y0014727D01*
X0008130Y0014885D01*
X0008144Y0015043D01*
X0008162Y0015200D01*
X0008183Y0015357D01*
X0008209Y0015513D01*
X0008239Y0015669D01*
X0008272Y0015824D01*
X0008310Y0015977D01*
X0008351Y0016130D01*
X0008396Y0016282D01*
X0008445Y0016433D01*
X0008498Y0016582D01*
X0008554Y0016730D01*
X0008614Y0016876D01*
X0008678Y0017021D01*
X0008746Y0017164D01*
X0008817Y0017306D01*
X0008891Y0017446D01*
X0008969Y0017583D01*
X0009051Y0017719D01*
X0009135Y0017853D01*
X0009224Y0017984D01*
X0009315Y0018113D01*
X0009410Y0018240D01*
X0009507Y0018365D01*
X0009608Y0018487D01*
X0009712Y0018606D01*
X0009819Y0018723D01*
X0009929Y0018837D01*
X0010042Y0018948D01*
X0010157Y0019057D01*
X0010275Y0019162D01*
X0010396Y0019264D01*
X0010519Y0019364D01*
X0010645Y0019460D01*
X0010773Y0019553D01*
X0010903Y0019643D01*
X0011036Y0019729D01*
X0011171Y0019813D01*
X0011307Y0019892D01*
X0011446Y0019969D01*
X0011587Y0020041D01*
X0011729Y0020111D01*
X0011873Y0020176D01*
X0012019Y0020238D01*
X0012166Y0020296D01*
X0012315Y0020351D01*
X0012465Y0020402D01*
X0012616Y0020449D01*
X0012768Y0020492D01*
X0012921Y0020531D01*
X0013076Y0020567D01*
X0013231Y0020598D01*
X0013387Y0020626D01*
X0013543Y0020650D01*
X0013700Y0020670D01*
X0013858Y0020686D01*
X0014015Y0020698D01*
X0014174Y0020706D01*
X0014332Y0020710D01*
X0014490Y0020710D01*
X0014648Y0020706D01*
X0014807Y0020698D01*
X0014964Y0020686D01*
X0015122Y0020670D01*
X0015279Y0020650D01*
X0015435Y0020626D01*
X0015591Y0020598D01*
X0015746Y0020567D01*
X0015901Y0020531D01*
X0016054Y0020492D01*
X0016206Y0020449D01*
X0016357Y0020402D01*
X0016507Y0020351D01*
X0016656Y0020296D01*
X0016803Y0020238D01*
X0016949Y0020176D01*
X0017093Y0020111D01*
X0017235Y0020041D01*
X0017376Y0019969D01*
X0017515Y0019892D01*
X0017651Y0019813D01*
X0017786Y0019729D01*
X0017919Y0019643D01*
X0018049Y0019553D01*
X0018177Y0019460D01*
X0018303Y0019364D01*
X0018426Y0019264D01*
X0018547Y0019162D01*
X0018665Y0019057D01*
X0018780Y0018948D01*
X0018893Y0018837D01*
X0019003Y0018723D01*
X0019110Y0018606D01*
X0019214Y0018487D01*
X0019315Y0018365D01*
X0019412Y0018240D01*
X0019507Y0018113D01*
X0019598Y0017984D01*
X0019687Y0017853D01*
X0019771Y0017719D01*
X0019853Y0017583D01*
X0019931Y0017446D01*
X0020005Y0017306D01*
X0020076Y0017164D01*
X0020144Y0017021D01*
X0020208Y0016876D01*
X0020268Y0016730D01*
X0020324Y0016582D01*
X0020377Y0016433D01*
X0020426Y0016282D01*
X0020471Y0016130D01*
X0020512Y0015977D01*
X0020550Y0015824D01*
X0020583Y0015669D01*
X0020613Y0015513D01*
X0020639Y0015357D01*
X0020660Y0015200D01*
X0020678Y0015043D01*
X0020692Y0014885D01*
X0020702Y0014727D01*
X0020708Y0014569D01*
X0020710Y0014411D01*
X0020708Y0014253D01*
X0020702Y0014095D01*
X0020692Y0013937D01*
X0020678Y0013779D01*
X0020660Y0013622D01*
X0020639Y0013465D01*
X0020613Y0013309D01*
X0020583Y0013153D01*
X0020550Y0012998D01*
X0020512Y0012845D01*
X0020471Y0012692D01*
X0020426Y0012540D01*
X0020377Y0012389D01*
X0020324Y0012240D01*
X0020268Y0012092D01*
X0020208Y0011946D01*
X0020144Y0011801D01*
X0020076Y0011658D01*
X0020005Y0011516D01*
X0019931Y0011376D01*
X0019853Y0011239D01*
X0019771Y0011103D01*
X0019687Y0010969D01*
X0019598Y0010838D01*
X0019507Y0010709D01*
X0019412Y0010582D01*
X0019315Y0010457D01*
X0019214Y0010335D01*
X0019110Y0010216D01*
X0019003Y0010099D01*
X0018893Y0009985D01*
X0018780Y0009874D01*
X0018665Y0009765D01*
X0018547Y0009660D01*
X0018426Y0009558D01*
X0018303Y0009458D01*
X0018177Y0009362D01*
X0018049Y0009269D01*
X0017919Y0009179D01*
X0017786Y0009093D01*
X0017651Y0009009D01*
X0017515Y0008930D01*
X0017376Y0008853D01*
X0017235Y0008781D01*
X0017093Y0008711D01*
X0016949Y0008646D01*
X0016803Y0008584D01*
X0016656Y0008526D01*
X0016507Y0008471D01*
X0016357Y0008420D01*
X0016206Y0008373D01*
X0016054Y0008330D01*
X0015901Y0008291D01*
X0015746Y0008255D01*
X0015591Y0008224D01*
X0015435Y0008196D01*
X0015279Y0008172D01*
X0015122Y0008152D01*
X0014964Y0008136D01*
X0014807Y0008124D01*
X0014648Y0008116D01*
X0014490Y0008112D01*
X0014332Y0008112D01*
X0014174Y0008116D01*
X0014015Y0008124D01*
X0013858Y0008136D01*
X0013700Y0008152D01*
X0013543Y0008172D01*
X0013387Y0008196D01*
X0013231Y0008224D01*
X0013076Y0008255D01*
X0012921Y0008291D01*
X0012768Y0008330D01*
X0012616Y0008373D01*
X0012465Y0008420D01*
X0012315Y0008471D01*
X0012166Y0008526D01*
X0012019Y0008584D01*
X0011873Y0008646D01*
X0011729Y0008711D01*
X0011587Y0008781D01*
X0011446Y0008853D01*
X0011307Y0008930D01*
X0011171Y0009009D01*
X0011036Y0009093D01*
X0010903Y0009179D01*
X0010773Y0009269D01*
X0010645Y0009362D01*
X0010519Y0009458D01*
X0010396Y0009558D01*
X0010275Y0009660D01*
X0010157Y0009765D01*
X0010042Y0009874D01*
X0009929Y0009985D01*
X0009819Y0010099D01*
X0009712Y0010216D01*
X0009608Y0010335D01*
X0009507Y0010457D01*
X0009410Y0010582D01*
X0009315Y0010709D01*
X0009224Y0010838D01*
X0009135Y0010969D01*
X0009051Y0011103D01*
X0008969Y0011239D01*
X0008891Y0011376D01*
X0008817Y0011516D01*
X0008746Y0011658D01*
X0008678Y0011801D01*
X0008614Y0011946D01*
X0008554Y0012092D01*
X0008498Y0012240D01*
X0008445Y0012389D01*
X0008396Y0012540D01*
X0008351Y0012692D01*
X0008310Y0012845D01*
X0008272Y0012998D01*
X0008239Y0013153D01*
X0008209Y0013309D01*
X0008183Y0013465D01*
X0008162Y0013622D01*
X0008144Y0013779D01*
X0008130Y0013937D01*
X0008120Y0014095D01*
X0008114Y0014253D01*
X0008112Y0014411D01*
X0099868Y0096356D02*
X0099870Y0096514D01*
X0099876Y0096672D01*
X0099886Y0096830D01*
X0099900Y0096988D01*
X0099918Y0097145D01*
X0099939Y0097302D01*
X0099965Y0097458D01*
X0099995Y0097614D01*
X0100028Y0097769D01*
X0100066Y0097922D01*
X0100107Y0098075D01*
X0100152Y0098227D01*
X0100201Y0098378D01*
X0100254Y0098527D01*
X0100310Y0098675D01*
X0100370Y0098821D01*
X0100434Y0098966D01*
X0100502Y0099109D01*
X0100573Y0099251D01*
X0100647Y0099391D01*
X0100725Y0099528D01*
X0100807Y0099664D01*
X0100891Y0099798D01*
X0100980Y0099929D01*
X0101071Y0100058D01*
X0101166Y0100185D01*
X0101263Y0100310D01*
X0101364Y0100432D01*
X0101468Y0100551D01*
X0101575Y0100668D01*
X0101685Y0100782D01*
X0101798Y0100893D01*
X0101913Y0101002D01*
X0102031Y0101107D01*
X0102152Y0101209D01*
X0102275Y0101309D01*
X0102401Y0101405D01*
X0102529Y0101498D01*
X0102659Y0101588D01*
X0102792Y0101674D01*
X0102927Y0101758D01*
X0103063Y0101837D01*
X0103202Y0101914D01*
X0103343Y0101986D01*
X0103485Y0102056D01*
X0103629Y0102121D01*
X0103775Y0102183D01*
X0103922Y0102241D01*
X0104071Y0102296D01*
X0104221Y0102347D01*
X0104372Y0102394D01*
X0104524Y0102437D01*
X0104677Y0102476D01*
X0104832Y0102512D01*
X0104987Y0102543D01*
X0105143Y0102571D01*
X0105299Y0102595D01*
X0105456Y0102615D01*
X0105614Y0102631D01*
X0105771Y0102643D01*
X0105930Y0102651D01*
X0106088Y0102655D01*
X0106246Y0102655D01*
X0106404Y0102651D01*
X0106563Y0102643D01*
X0106720Y0102631D01*
X0106878Y0102615D01*
X0107035Y0102595D01*
X0107191Y0102571D01*
X0107347Y0102543D01*
X0107502Y0102512D01*
X0107657Y0102476D01*
X0107810Y0102437D01*
X0107962Y0102394D01*
X0108113Y0102347D01*
X0108263Y0102296D01*
X0108412Y0102241D01*
X0108559Y0102183D01*
X0108705Y0102121D01*
X0108849Y0102056D01*
X0108991Y0101986D01*
X0109132Y0101914D01*
X0109271Y0101837D01*
X0109407Y0101758D01*
X0109542Y0101674D01*
X0109675Y0101588D01*
X0109805Y0101498D01*
X0109933Y0101405D01*
X0110059Y0101309D01*
X0110182Y0101209D01*
X0110303Y0101107D01*
X0110421Y0101002D01*
X0110536Y0100893D01*
X0110649Y0100782D01*
X0110759Y0100668D01*
X0110866Y0100551D01*
X0110970Y0100432D01*
X0111071Y0100310D01*
X0111168Y0100185D01*
X0111263Y0100058D01*
X0111354Y0099929D01*
X0111443Y0099798D01*
X0111527Y0099664D01*
X0111609Y0099528D01*
X0111687Y0099391D01*
X0111761Y0099251D01*
X0111832Y0099109D01*
X0111900Y0098966D01*
X0111964Y0098821D01*
X0112024Y0098675D01*
X0112080Y0098527D01*
X0112133Y0098378D01*
X0112182Y0098227D01*
X0112227Y0098075D01*
X0112268Y0097922D01*
X0112306Y0097769D01*
X0112339Y0097614D01*
X0112369Y0097458D01*
X0112395Y0097302D01*
X0112416Y0097145D01*
X0112434Y0096988D01*
X0112448Y0096830D01*
X0112458Y0096672D01*
X0112464Y0096514D01*
X0112466Y0096356D01*
X0112464Y0096198D01*
X0112458Y0096040D01*
X0112448Y0095882D01*
X0112434Y0095724D01*
X0112416Y0095567D01*
X0112395Y0095410D01*
X0112369Y0095254D01*
X0112339Y0095098D01*
X0112306Y0094943D01*
X0112268Y0094790D01*
X0112227Y0094637D01*
X0112182Y0094485D01*
X0112133Y0094334D01*
X0112080Y0094185D01*
X0112024Y0094037D01*
X0111964Y0093891D01*
X0111900Y0093746D01*
X0111832Y0093603D01*
X0111761Y0093461D01*
X0111687Y0093321D01*
X0111609Y0093184D01*
X0111527Y0093048D01*
X0111443Y0092914D01*
X0111354Y0092783D01*
X0111263Y0092654D01*
X0111168Y0092527D01*
X0111071Y0092402D01*
X0110970Y0092280D01*
X0110866Y0092161D01*
X0110759Y0092044D01*
X0110649Y0091930D01*
X0110536Y0091819D01*
X0110421Y0091710D01*
X0110303Y0091605D01*
X0110182Y0091503D01*
X0110059Y0091403D01*
X0109933Y0091307D01*
X0109805Y0091214D01*
X0109675Y0091124D01*
X0109542Y0091038D01*
X0109407Y0090954D01*
X0109271Y0090875D01*
X0109132Y0090798D01*
X0108991Y0090726D01*
X0108849Y0090656D01*
X0108705Y0090591D01*
X0108559Y0090529D01*
X0108412Y0090471D01*
X0108263Y0090416D01*
X0108113Y0090365D01*
X0107962Y0090318D01*
X0107810Y0090275D01*
X0107657Y0090236D01*
X0107502Y0090200D01*
X0107347Y0090169D01*
X0107191Y0090141D01*
X0107035Y0090117D01*
X0106878Y0090097D01*
X0106720Y0090081D01*
X0106563Y0090069D01*
X0106404Y0090061D01*
X0106246Y0090057D01*
X0106088Y0090057D01*
X0105930Y0090061D01*
X0105771Y0090069D01*
X0105614Y0090081D01*
X0105456Y0090097D01*
X0105299Y0090117D01*
X0105143Y0090141D01*
X0104987Y0090169D01*
X0104832Y0090200D01*
X0104677Y0090236D01*
X0104524Y0090275D01*
X0104372Y0090318D01*
X0104221Y0090365D01*
X0104071Y0090416D01*
X0103922Y0090471D01*
X0103775Y0090529D01*
X0103629Y0090591D01*
X0103485Y0090656D01*
X0103343Y0090726D01*
X0103202Y0090798D01*
X0103063Y0090875D01*
X0102927Y0090954D01*
X0102792Y0091038D01*
X0102659Y0091124D01*
X0102529Y0091214D01*
X0102401Y0091307D01*
X0102275Y0091403D01*
X0102152Y0091503D01*
X0102031Y0091605D01*
X0101913Y0091710D01*
X0101798Y0091819D01*
X0101685Y0091930D01*
X0101575Y0092044D01*
X0101468Y0092161D01*
X0101364Y0092280D01*
X0101263Y0092402D01*
X0101166Y0092527D01*
X0101071Y0092654D01*
X0100980Y0092783D01*
X0100891Y0092914D01*
X0100807Y0093048D01*
X0100725Y0093184D01*
X0100647Y0093321D01*
X0100573Y0093461D01*
X0100502Y0093603D01*
X0100434Y0093746D01*
X0100370Y0093891D01*
X0100310Y0094037D01*
X0100254Y0094185D01*
X0100201Y0094334D01*
X0100152Y0094485D01*
X0100107Y0094637D01*
X0100066Y0094790D01*
X0100028Y0094943D01*
X0099995Y0095098D01*
X0099965Y0095254D01*
X0099939Y0095410D01*
X0099918Y0095567D01*
X0099900Y0095724D01*
X0099886Y0095882D01*
X0099876Y0096040D01*
X0099870Y0096198D01*
X0099868Y0096356D01*
X0181364Y0096356D02*
X0181366Y0096514D01*
X0181372Y0096672D01*
X0181382Y0096830D01*
X0181396Y0096988D01*
X0181414Y0097145D01*
X0181435Y0097302D01*
X0181461Y0097458D01*
X0181491Y0097614D01*
X0181524Y0097769D01*
X0181562Y0097922D01*
X0181603Y0098075D01*
X0181648Y0098227D01*
X0181697Y0098378D01*
X0181750Y0098527D01*
X0181806Y0098675D01*
X0181866Y0098821D01*
X0181930Y0098966D01*
X0181998Y0099109D01*
X0182069Y0099251D01*
X0182143Y0099391D01*
X0182221Y0099528D01*
X0182303Y0099664D01*
X0182387Y0099798D01*
X0182476Y0099929D01*
X0182567Y0100058D01*
X0182662Y0100185D01*
X0182759Y0100310D01*
X0182860Y0100432D01*
X0182964Y0100551D01*
X0183071Y0100668D01*
X0183181Y0100782D01*
X0183294Y0100893D01*
X0183409Y0101002D01*
X0183527Y0101107D01*
X0183648Y0101209D01*
X0183771Y0101309D01*
X0183897Y0101405D01*
X0184025Y0101498D01*
X0184155Y0101588D01*
X0184288Y0101674D01*
X0184423Y0101758D01*
X0184559Y0101837D01*
X0184698Y0101914D01*
X0184839Y0101986D01*
X0184981Y0102056D01*
X0185125Y0102121D01*
X0185271Y0102183D01*
X0185418Y0102241D01*
X0185567Y0102296D01*
X0185717Y0102347D01*
X0185868Y0102394D01*
X0186020Y0102437D01*
X0186173Y0102476D01*
X0186328Y0102512D01*
X0186483Y0102543D01*
X0186639Y0102571D01*
X0186795Y0102595D01*
X0186952Y0102615D01*
X0187110Y0102631D01*
X0187267Y0102643D01*
X0187426Y0102651D01*
X0187584Y0102655D01*
X0187742Y0102655D01*
X0187900Y0102651D01*
X0188059Y0102643D01*
X0188216Y0102631D01*
X0188374Y0102615D01*
X0188531Y0102595D01*
X0188687Y0102571D01*
X0188843Y0102543D01*
X0188998Y0102512D01*
X0189153Y0102476D01*
X0189306Y0102437D01*
X0189458Y0102394D01*
X0189609Y0102347D01*
X0189759Y0102296D01*
X0189908Y0102241D01*
X0190055Y0102183D01*
X0190201Y0102121D01*
X0190345Y0102056D01*
X0190487Y0101986D01*
X0190628Y0101914D01*
X0190767Y0101837D01*
X0190903Y0101758D01*
X0191038Y0101674D01*
X0191171Y0101588D01*
X0191301Y0101498D01*
X0191429Y0101405D01*
X0191555Y0101309D01*
X0191678Y0101209D01*
X0191799Y0101107D01*
X0191917Y0101002D01*
X0192032Y0100893D01*
X0192145Y0100782D01*
X0192255Y0100668D01*
X0192362Y0100551D01*
X0192466Y0100432D01*
X0192567Y0100310D01*
X0192664Y0100185D01*
X0192759Y0100058D01*
X0192850Y0099929D01*
X0192939Y0099798D01*
X0193023Y0099664D01*
X0193105Y0099528D01*
X0193183Y0099391D01*
X0193257Y0099251D01*
X0193328Y0099109D01*
X0193396Y0098966D01*
X0193460Y0098821D01*
X0193520Y0098675D01*
X0193576Y0098527D01*
X0193629Y0098378D01*
X0193678Y0098227D01*
X0193723Y0098075D01*
X0193764Y0097922D01*
X0193802Y0097769D01*
X0193835Y0097614D01*
X0193865Y0097458D01*
X0193891Y0097302D01*
X0193912Y0097145D01*
X0193930Y0096988D01*
X0193944Y0096830D01*
X0193954Y0096672D01*
X0193960Y0096514D01*
X0193962Y0096356D01*
X0193960Y0096198D01*
X0193954Y0096040D01*
X0193944Y0095882D01*
X0193930Y0095724D01*
X0193912Y0095567D01*
X0193891Y0095410D01*
X0193865Y0095254D01*
X0193835Y0095098D01*
X0193802Y0094943D01*
X0193764Y0094790D01*
X0193723Y0094637D01*
X0193678Y0094485D01*
X0193629Y0094334D01*
X0193576Y0094185D01*
X0193520Y0094037D01*
X0193460Y0093891D01*
X0193396Y0093746D01*
X0193328Y0093603D01*
X0193257Y0093461D01*
X0193183Y0093321D01*
X0193105Y0093184D01*
X0193023Y0093048D01*
X0192939Y0092914D01*
X0192850Y0092783D01*
X0192759Y0092654D01*
X0192664Y0092527D01*
X0192567Y0092402D01*
X0192466Y0092280D01*
X0192362Y0092161D01*
X0192255Y0092044D01*
X0192145Y0091930D01*
X0192032Y0091819D01*
X0191917Y0091710D01*
X0191799Y0091605D01*
X0191678Y0091503D01*
X0191555Y0091403D01*
X0191429Y0091307D01*
X0191301Y0091214D01*
X0191171Y0091124D01*
X0191038Y0091038D01*
X0190903Y0090954D01*
X0190767Y0090875D01*
X0190628Y0090798D01*
X0190487Y0090726D01*
X0190345Y0090656D01*
X0190201Y0090591D01*
X0190055Y0090529D01*
X0189908Y0090471D01*
X0189759Y0090416D01*
X0189609Y0090365D01*
X0189458Y0090318D01*
X0189306Y0090275D01*
X0189153Y0090236D01*
X0188998Y0090200D01*
X0188843Y0090169D01*
X0188687Y0090141D01*
X0188531Y0090117D01*
X0188374Y0090097D01*
X0188216Y0090081D01*
X0188059Y0090069D01*
X0187900Y0090061D01*
X0187742Y0090057D01*
X0187584Y0090057D01*
X0187426Y0090061D01*
X0187267Y0090069D01*
X0187110Y0090081D01*
X0186952Y0090097D01*
X0186795Y0090117D01*
X0186639Y0090141D01*
X0186483Y0090169D01*
X0186328Y0090200D01*
X0186173Y0090236D01*
X0186020Y0090275D01*
X0185868Y0090318D01*
X0185717Y0090365D01*
X0185567Y0090416D01*
X0185418Y0090471D01*
X0185271Y0090529D01*
X0185125Y0090591D01*
X0184981Y0090656D01*
X0184839Y0090726D01*
X0184698Y0090798D01*
X0184559Y0090875D01*
X0184423Y0090954D01*
X0184288Y0091038D01*
X0184155Y0091124D01*
X0184025Y0091214D01*
X0183897Y0091307D01*
X0183771Y0091403D01*
X0183648Y0091503D01*
X0183527Y0091605D01*
X0183409Y0091710D01*
X0183294Y0091819D01*
X0183181Y0091930D01*
X0183071Y0092044D01*
X0182964Y0092161D01*
X0182860Y0092280D01*
X0182759Y0092402D01*
X0182662Y0092527D01*
X0182567Y0092654D01*
X0182476Y0092783D01*
X0182387Y0092914D01*
X0182303Y0093048D01*
X0182221Y0093184D01*
X0182143Y0093321D01*
X0182069Y0093461D01*
X0181998Y0093603D01*
X0181930Y0093746D01*
X0181866Y0093891D01*
X0181806Y0094037D01*
X0181750Y0094185D01*
X0181697Y0094334D01*
X0181648Y0094485D01*
X0181603Y0094637D01*
X0181562Y0094790D01*
X0181524Y0094943D01*
X0181491Y0095098D01*
X0181461Y0095254D01*
X0181435Y0095410D01*
X0181414Y0095567D01*
X0181396Y0095724D01*
X0181382Y0095882D01*
X0181372Y0096040D01*
X0181366Y0096198D01*
X0181364Y0096356D01*
X0181340Y0014411D02*
X0181342Y0014569D01*
X0181348Y0014727D01*
X0181358Y0014885D01*
X0181372Y0015043D01*
X0181390Y0015200D01*
X0181411Y0015357D01*
X0181437Y0015513D01*
X0181467Y0015669D01*
X0181500Y0015824D01*
X0181538Y0015977D01*
X0181579Y0016130D01*
X0181624Y0016282D01*
X0181673Y0016433D01*
X0181726Y0016582D01*
X0181782Y0016730D01*
X0181842Y0016876D01*
X0181906Y0017021D01*
X0181974Y0017164D01*
X0182045Y0017306D01*
X0182119Y0017446D01*
X0182197Y0017583D01*
X0182279Y0017719D01*
X0182363Y0017853D01*
X0182452Y0017984D01*
X0182543Y0018113D01*
X0182638Y0018240D01*
X0182735Y0018365D01*
X0182836Y0018487D01*
X0182940Y0018606D01*
X0183047Y0018723D01*
X0183157Y0018837D01*
X0183270Y0018948D01*
X0183385Y0019057D01*
X0183503Y0019162D01*
X0183624Y0019264D01*
X0183747Y0019364D01*
X0183873Y0019460D01*
X0184001Y0019553D01*
X0184131Y0019643D01*
X0184264Y0019729D01*
X0184399Y0019813D01*
X0184535Y0019892D01*
X0184674Y0019969D01*
X0184815Y0020041D01*
X0184957Y0020111D01*
X0185101Y0020176D01*
X0185247Y0020238D01*
X0185394Y0020296D01*
X0185543Y0020351D01*
X0185693Y0020402D01*
X0185844Y0020449D01*
X0185996Y0020492D01*
X0186149Y0020531D01*
X0186304Y0020567D01*
X0186459Y0020598D01*
X0186615Y0020626D01*
X0186771Y0020650D01*
X0186928Y0020670D01*
X0187086Y0020686D01*
X0187243Y0020698D01*
X0187402Y0020706D01*
X0187560Y0020710D01*
X0187718Y0020710D01*
X0187876Y0020706D01*
X0188035Y0020698D01*
X0188192Y0020686D01*
X0188350Y0020670D01*
X0188507Y0020650D01*
X0188663Y0020626D01*
X0188819Y0020598D01*
X0188974Y0020567D01*
X0189129Y0020531D01*
X0189282Y0020492D01*
X0189434Y0020449D01*
X0189585Y0020402D01*
X0189735Y0020351D01*
X0189884Y0020296D01*
X0190031Y0020238D01*
X0190177Y0020176D01*
X0190321Y0020111D01*
X0190463Y0020041D01*
X0190604Y0019969D01*
X0190743Y0019892D01*
X0190879Y0019813D01*
X0191014Y0019729D01*
X0191147Y0019643D01*
X0191277Y0019553D01*
X0191405Y0019460D01*
X0191531Y0019364D01*
X0191654Y0019264D01*
X0191775Y0019162D01*
X0191893Y0019057D01*
X0192008Y0018948D01*
X0192121Y0018837D01*
X0192231Y0018723D01*
X0192338Y0018606D01*
X0192442Y0018487D01*
X0192543Y0018365D01*
X0192640Y0018240D01*
X0192735Y0018113D01*
X0192826Y0017984D01*
X0192915Y0017853D01*
X0192999Y0017719D01*
X0193081Y0017583D01*
X0193159Y0017446D01*
X0193233Y0017306D01*
X0193304Y0017164D01*
X0193372Y0017021D01*
X0193436Y0016876D01*
X0193496Y0016730D01*
X0193552Y0016582D01*
X0193605Y0016433D01*
X0193654Y0016282D01*
X0193699Y0016130D01*
X0193740Y0015977D01*
X0193778Y0015824D01*
X0193811Y0015669D01*
X0193841Y0015513D01*
X0193867Y0015357D01*
X0193888Y0015200D01*
X0193906Y0015043D01*
X0193920Y0014885D01*
X0193930Y0014727D01*
X0193936Y0014569D01*
X0193938Y0014411D01*
X0193936Y0014253D01*
X0193930Y0014095D01*
X0193920Y0013937D01*
X0193906Y0013779D01*
X0193888Y0013622D01*
X0193867Y0013465D01*
X0193841Y0013309D01*
X0193811Y0013153D01*
X0193778Y0012998D01*
X0193740Y0012845D01*
X0193699Y0012692D01*
X0193654Y0012540D01*
X0193605Y0012389D01*
X0193552Y0012240D01*
X0193496Y0012092D01*
X0193436Y0011946D01*
X0193372Y0011801D01*
X0193304Y0011658D01*
X0193233Y0011516D01*
X0193159Y0011376D01*
X0193081Y0011239D01*
X0192999Y0011103D01*
X0192915Y0010969D01*
X0192826Y0010838D01*
X0192735Y0010709D01*
X0192640Y0010582D01*
X0192543Y0010457D01*
X0192442Y0010335D01*
X0192338Y0010216D01*
X0192231Y0010099D01*
X0192121Y0009985D01*
X0192008Y0009874D01*
X0191893Y0009765D01*
X0191775Y0009660D01*
X0191654Y0009558D01*
X0191531Y0009458D01*
X0191405Y0009362D01*
X0191277Y0009269D01*
X0191147Y0009179D01*
X0191014Y0009093D01*
X0190879Y0009009D01*
X0190743Y0008930D01*
X0190604Y0008853D01*
X0190463Y0008781D01*
X0190321Y0008711D01*
X0190177Y0008646D01*
X0190031Y0008584D01*
X0189884Y0008526D01*
X0189735Y0008471D01*
X0189585Y0008420D01*
X0189434Y0008373D01*
X0189282Y0008330D01*
X0189129Y0008291D01*
X0188974Y0008255D01*
X0188819Y0008224D01*
X0188663Y0008196D01*
X0188507Y0008172D01*
X0188350Y0008152D01*
X0188192Y0008136D01*
X0188035Y0008124D01*
X0187876Y0008116D01*
X0187718Y0008112D01*
X0187560Y0008112D01*
X0187402Y0008116D01*
X0187243Y0008124D01*
X0187086Y0008136D01*
X0186928Y0008152D01*
X0186771Y0008172D01*
X0186615Y0008196D01*
X0186459Y0008224D01*
X0186304Y0008255D01*
X0186149Y0008291D01*
X0185996Y0008330D01*
X0185844Y0008373D01*
X0185693Y0008420D01*
X0185543Y0008471D01*
X0185394Y0008526D01*
X0185247Y0008584D01*
X0185101Y0008646D01*
X0184957Y0008711D01*
X0184815Y0008781D01*
X0184674Y0008853D01*
X0184535Y0008930D01*
X0184399Y0009009D01*
X0184264Y0009093D01*
X0184131Y0009179D01*
X0184001Y0009269D01*
X0183873Y0009362D01*
X0183747Y0009458D01*
X0183624Y0009558D01*
X0183503Y0009660D01*
X0183385Y0009765D01*
X0183270Y0009874D01*
X0183157Y0009985D01*
X0183047Y0010099D01*
X0182940Y0010216D01*
X0182836Y0010335D01*
X0182735Y0010457D01*
X0182638Y0010582D01*
X0182543Y0010709D01*
X0182452Y0010838D01*
X0182363Y0010969D01*
X0182279Y0011103D01*
X0182197Y0011239D01*
X0182119Y0011376D01*
X0182045Y0011516D01*
X0181974Y0011658D01*
X0181906Y0011801D01*
X0181842Y0011946D01*
X0181782Y0012092D01*
X0181726Y0012240D01*
X0181673Y0012389D01*
X0181624Y0012540D01*
X0181579Y0012692D01*
X0181538Y0012845D01*
X0181500Y0012998D01*
X0181467Y0013153D01*
X0181437Y0013309D01*
X0181411Y0013465D01*
X0181390Y0013622D01*
X0181372Y0013779D01*
X0181358Y0013937D01*
X0181348Y0014095D01*
X0181342Y0014253D01*
X0181340Y0014411D01*
X0181364Y0187694D02*
X0181366Y0187852D01*
X0181372Y0188010D01*
X0181382Y0188168D01*
X0181396Y0188326D01*
X0181414Y0188483D01*
X0181435Y0188640D01*
X0181461Y0188796D01*
X0181491Y0188952D01*
X0181524Y0189107D01*
X0181562Y0189260D01*
X0181603Y0189413D01*
X0181648Y0189565D01*
X0181697Y0189716D01*
X0181750Y0189865D01*
X0181806Y0190013D01*
X0181866Y0190159D01*
X0181930Y0190304D01*
X0181998Y0190447D01*
X0182069Y0190589D01*
X0182143Y0190729D01*
X0182221Y0190866D01*
X0182303Y0191002D01*
X0182387Y0191136D01*
X0182476Y0191267D01*
X0182567Y0191396D01*
X0182662Y0191523D01*
X0182759Y0191648D01*
X0182860Y0191770D01*
X0182964Y0191889D01*
X0183071Y0192006D01*
X0183181Y0192120D01*
X0183294Y0192231D01*
X0183409Y0192340D01*
X0183527Y0192445D01*
X0183648Y0192547D01*
X0183771Y0192647D01*
X0183897Y0192743D01*
X0184025Y0192836D01*
X0184155Y0192926D01*
X0184288Y0193012D01*
X0184423Y0193096D01*
X0184559Y0193175D01*
X0184698Y0193252D01*
X0184839Y0193324D01*
X0184981Y0193394D01*
X0185125Y0193459D01*
X0185271Y0193521D01*
X0185418Y0193579D01*
X0185567Y0193634D01*
X0185717Y0193685D01*
X0185868Y0193732D01*
X0186020Y0193775D01*
X0186173Y0193814D01*
X0186328Y0193850D01*
X0186483Y0193881D01*
X0186639Y0193909D01*
X0186795Y0193933D01*
X0186952Y0193953D01*
X0187110Y0193969D01*
X0187267Y0193981D01*
X0187426Y0193989D01*
X0187584Y0193993D01*
X0187742Y0193993D01*
X0187900Y0193989D01*
X0188059Y0193981D01*
X0188216Y0193969D01*
X0188374Y0193953D01*
X0188531Y0193933D01*
X0188687Y0193909D01*
X0188843Y0193881D01*
X0188998Y0193850D01*
X0189153Y0193814D01*
X0189306Y0193775D01*
X0189458Y0193732D01*
X0189609Y0193685D01*
X0189759Y0193634D01*
X0189908Y0193579D01*
X0190055Y0193521D01*
X0190201Y0193459D01*
X0190345Y0193394D01*
X0190487Y0193324D01*
X0190628Y0193252D01*
X0190767Y0193175D01*
X0190903Y0193096D01*
X0191038Y0193012D01*
X0191171Y0192926D01*
X0191301Y0192836D01*
X0191429Y0192743D01*
X0191555Y0192647D01*
X0191678Y0192547D01*
X0191799Y0192445D01*
X0191917Y0192340D01*
X0192032Y0192231D01*
X0192145Y0192120D01*
X0192255Y0192006D01*
X0192362Y0191889D01*
X0192466Y0191770D01*
X0192567Y0191648D01*
X0192664Y0191523D01*
X0192759Y0191396D01*
X0192850Y0191267D01*
X0192939Y0191136D01*
X0193023Y0191002D01*
X0193105Y0190866D01*
X0193183Y0190729D01*
X0193257Y0190589D01*
X0193328Y0190447D01*
X0193396Y0190304D01*
X0193460Y0190159D01*
X0193520Y0190013D01*
X0193576Y0189865D01*
X0193629Y0189716D01*
X0193678Y0189565D01*
X0193723Y0189413D01*
X0193764Y0189260D01*
X0193802Y0189107D01*
X0193835Y0188952D01*
X0193865Y0188796D01*
X0193891Y0188640D01*
X0193912Y0188483D01*
X0193930Y0188326D01*
X0193944Y0188168D01*
X0193954Y0188010D01*
X0193960Y0187852D01*
X0193962Y0187694D01*
X0193960Y0187536D01*
X0193954Y0187378D01*
X0193944Y0187220D01*
X0193930Y0187062D01*
X0193912Y0186905D01*
X0193891Y0186748D01*
X0193865Y0186592D01*
X0193835Y0186436D01*
X0193802Y0186281D01*
X0193764Y0186128D01*
X0193723Y0185975D01*
X0193678Y0185823D01*
X0193629Y0185672D01*
X0193576Y0185523D01*
X0193520Y0185375D01*
X0193460Y0185229D01*
X0193396Y0185084D01*
X0193328Y0184941D01*
X0193257Y0184799D01*
X0193183Y0184659D01*
X0193105Y0184522D01*
X0193023Y0184386D01*
X0192939Y0184252D01*
X0192850Y0184121D01*
X0192759Y0183992D01*
X0192664Y0183865D01*
X0192567Y0183740D01*
X0192466Y0183618D01*
X0192362Y0183499D01*
X0192255Y0183382D01*
X0192145Y0183268D01*
X0192032Y0183157D01*
X0191917Y0183048D01*
X0191799Y0182943D01*
X0191678Y0182841D01*
X0191555Y0182741D01*
X0191429Y0182645D01*
X0191301Y0182552D01*
X0191171Y0182462D01*
X0191038Y0182376D01*
X0190903Y0182292D01*
X0190767Y0182213D01*
X0190628Y0182136D01*
X0190487Y0182064D01*
X0190345Y0181994D01*
X0190201Y0181929D01*
X0190055Y0181867D01*
X0189908Y0181809D01*
X0189759Y0181754D01*
X0189609Y0181703D01*
X0189458Y0181656D01*
X0189306Y0181613D01*
X0189153Y0181574D01*
X0188998Y0181538D01*
X0188843Y0181507D01*
X0188687Y0181479D01*
X0188531Y0181455D01*
X0188374Y0181435D01*
X0188216Y0181419D01*
X0188059Y0181407D01*
X0187900Y0181399D01*
X0187742Y0181395D01*
X0187584Y0181395D01*
X0187426Y0181399D01*
X0187267Y0181407D01*
X0187110Y0181419D01*
X0186952Y0181435D01*
X0186795Y0181455D01*
X0186639Y0181479D01*
X0186483Y0181507D01*
X0186328Y0181538D01*
X0186173Y0181574D01*
X0186020Y0181613D01*
X0185868Y0181656D01*
X0185717Y0181703D01*
X0185567Y0181754D01*
X0185418Y0181809D01*
X0185271Y0181867D01*
X0185125Y0181929D01*
X0184981Y0181994D01*
X0184839Y0182064D01*
X0184698Y0182136D01*
X0184559Y0182213D01*
X0184423Y0182292D01*
X0184288Y0182376D01*
X0184155Y0182462D01*
X0184025Y0182552D01*
X0183897Y0182645D01*
X0183771Y0182741D01*
X0183648Y0182841D01*
X0183527Y0182943D01*
X0183409Y0183048D01*
X0183294Y0183157D01*
X0183181Y0183268D01*
X0183071Y0183382D01*
X0182964Y0183499D01*
X0182860Y0183618D01*
X0182759Y0183740D01*
X0182662Y0183865D01*
X0182567Y0183992D01*
X0182476Y0184121D01*
X0182387Y0184252D01*
X0182303Y0184386D01*
X0182221Y0184522D01*
X0182143Y0184659D01*
X0182069Y0184799D01*
X0181998Y0184941D01*
X0181930Y0185084D01*
X0181866Y0185229D01*
X0181806Y0185375D01*
X0181750Y0185523D01*
X0181697Y0185672D01*
X0181648Y0185823D01*
X0181603Y0185975D01*
X0181562Y0186128D01*
X0181524Y0186281D01*
X0181491Y0186436D01*
X0181461Y0186592D01*
X0181435Y0186748D01*
X0181414Y0186905D01*
X0181396Y0187062D01*
X0181382Y0187220D01*
X0181372Y0187378D01*
X0181366Y0187536D01*
X0181364Y0187694D01*
X0099868Y0187694D02*
X0099870Y0187852D01*
X0099876Y0188010D01*
X0099886Y0188168D01*
X0099900Y0188326D01*
X0099918Y0188483D01*
X0099939Y0188640D01*
X0099965Y0188796D01*
X0099995Y0188952D01*
X0100028Y0189107D01*
X0100066Y0189260D01*
X0100107Y0189413D01*
X0100152Y0189565D01*
X0100201Y0189716D01*
X0100254Y0189865D01*
X0100310Y0190013D01*
X0100370Y0190159D01*
X0100434Y0190304D01*
X0100502Y0190447D01*
X0100573Y0190589D01*
X0100647Y0190729D01*
X0100725Y0190866D01*
X0100807Y0191002D01*
X0100891Y0191136D01*
X0100980Y0191267D01*
X0101071Y0191396D01*
X0101166Y0191523D01*
X0101263Y0191648D01*
X0101364Y0191770D01*
X0101468Y0191889D01*
X0101575Y0192006D01*
X0101685Y0192120D01*
X0101798Y0192231D01*
X0101913Y0192340D01*
X0102031Y0192445D01*
X0102152Y0192547D01*
X0102275Y0192647D01*
X0102401Y0192743D01*
X0102529Y0192836D01*
X0102659Y0192926D01*
X0102792Y0193012D01*
X0102927Y0193096D01*
X0103063Y0193175D01*
X0103202Y0193252D01*
X0103343Y0193324D01*
X0103485Y0193394D01*
X0103629Y0193459D01*
X0103775Y0193521D01*
X0103922Y0193579D01*
X0104071Y0193634D01*
X0104221Y0193685D01*
X0104372Y0193732D01*
X0104524Y0193775D01*
X0104677Y0193814D01*
X0104832Y0193850D01*
X0104987Y0193881D01*
X0105143Y0193909D01*
X0105299Y0193933D01*
X0105456Y0193953D01*
X0105614Y0193969D01*
X0105771Y0193981D01*
X0105930Y0193989D01*
X0106088Y0193993D01*
X0106246Y0193993D01*
X0106404Y0193989D01*
X0106563Y0193981D01*
X0106720Y0193969D01*
X0106878Y0193953D01*
X0107035Y0193933D01*
X0107191Y0193909D01*
X0107347Y0193881D01*
X0107502Y0193850D01*
X0107657Y0193814D01*
X0107810Y0193775D01*
X0107962Y0193732D01*
X0108113Y0193685D01*
X0108263Y0193634D01*
X0108412Y0193579D01*
X0108559Y0193521D01*
X0108705Y0193459D01*
X0108849Y0193394D01*
X0108991Y0193324D01*
X0109132Y0193252D01*
X0109271Y0193175D01*
X0109407Y0193096D01*
X0109542Y0193012D01*
X0109675Y0192926D01*
X0109805Y0192836D01*
X0109933Y0192743D01*
X0110059Y0192647D01*
X0110182Y0192547D01*
X0110303Y0192445D01*
X0110421Y0192340D01*
X0110536Y0192231D01*
X0110649Y0192120D01*
X0110759Y0192006D01*
X0110866Y0191889D01*
X0110970Y0191770D01*
X0111071Y0191648D01*
X0111168Y0191523D01*
X0111263Y0191396D01*
X0111354Y0191267D01*
X0111443Y0191136D01*
X0111527Y0191002D01*
X0111609Y0190866D01*
X0111687Y0190729D01*
X0111761Y0190589D01*
X0111832Y0190447D01*
X0111900Y0190304D01*
X0111964Y0190159D01*
X0112024Y0190013D01*
X0112080Y0189865D01*
X0112133Y0189716D01*
X0112182Y0189565D01*
X0112227Y0189413D01*
X0112268Y0189260D01*
X0112306Y0189107D01*
X0112339Y0188952D01*
X0112369Y0188796D01*
X0112395Y0188640D01*
X0112416Y0188483D01*
X0112434Y0188326D01*
X0112448Y0188168D01*
X0112458Y0188010D01*
X0112464Y0187852D01*
X0112466Y0187694D01*
X0112464Y0187536D01*
X0112458Y0187378D01*
X0112448Y0187220D01*
X0112434Y0187062D01*
X0112416Y0186905D01*
X0112395Y0186748D01*
X0112369Y0186592D01*
X0112339Y0186436D01*
X0112306Y0186281D01*
X0112268Y0186128D01*
X0112227Y0185975D01*
X0112182Y0185823D01*
X0112133Y0185672D01*
X0112080Y0185523D01*
X0112024Y0185375D01*
X0111964Y0185229D01*
X0111900Y0185084D01*
X0111832Y0184941D01*
X0111761Y0184799D01*
X0111687Y0184659D01*
X0111609Y0184522D01*
X0111527Y0184386D01*
X0111443Y0184252D01*
X0111354Y0184121D01*
X0111263Y0183992D01*
X0111168Y0183865D01*
X0111071Y0183740D01*
X0110970Y0183618D01*
X0110866Y0183499D01*
X0110759Y0183382D01*
X0110649Y0183268D01*
X0110536Y0183157D01*
X0110421Y0183048D01*
X0110303Y0182943D01*
X0110182Y0182841D01*
X0110059Y0182741D01*
X0109933Y0182645D01*
X0109805Y0182552D01*
X0109675Y0182462D01*
X0109542Y0182376D01*
X0109407Y0182292D01*
X0109271Y0182213D01*
X0109132Y0182136D01*
X0108991Y0182064D01*
X0108849Y0181994D01*
X0108705Y0181929D01*
X0108559Y0181867D01*
X0108412Y0181809D01*
X0108263Y0181754D01*
X0108113Y0181703D01*
X0107962Y0181656D01*
X0107810Y0181613D01*
X0107657Y0181574D01*
X0107502Y0181538D01*
X0107347Y0181507D01*
X0107191Y0181479D01*
X0107035Y0181455D01*
X0106878Y0181435D01*
X0106720Y0181419D01*
X0106563Y0181407D01*
X0106404Y0181399D01*
X0106246Y0181395D01*
X0106088Y0181395D01*
X0105930Y0181399D01*
X0105771Y0181407D01*
X0105614Y0181419D01*
X0105456Y0181435D01*
X0105299Y0181455D01*
X0105143Y0181479D01*
X0104987Y0181507D01*
X0104832Y0181538D01*
X0104677Y0181574D01*
X0104524Y0181613D01*
X0104372Y0181656D01*
X0104221Y0181703D01*
X0104071Y0181754D01*
X0103922Y0181809D01*
X0103775Y0181867D01*
X0103629Y0181929D01*
X0103485Y0181994D01*
X0103343Y0182064D01*
X0103202Y0182136D01*
X0103063Y0182213D01*
X0102927Y0182292D01*
X0102792Y0182376D01*
X0102659Y0182462D01*
X0102529Y0182552D01*
X0102401Y0182645D01*
X0102275Y0182741D01*
X0102152Y0182841D01*
X0102031Y0182943D01*
X0101913Y0183048D01*
X0101798Y0183157D01*
X0101685Y0183268D01*
X0101575Y0183382D01*
X0101468Y0183499D01*
X0101364Y0183618D01*
X0101263Y0183740D01*
X0101166Y0183865D01*
X0101071Y0183992D01*
X0100980Y0184121D01*
X0100891Y0184252D01*
X0100807Y0184386D01*
X0100725Y0184522D01*
X0100647Y0184659D01*
X0100573Y0184799D01*
X0100502Y0184941D01*
X0100434Y0185084D01*
X0100370Y0185229D01*
X0100310Y0185375D01*
X0100254Y0185523D01*
X0100201Y0185672D01*
X0100152Y0185823D01*
X0100107Y0185975D01*
X0100066Y0186128D01*
X0100028Y0186281D01*
X0099995Y0186436D01*
X0099965Y0186592D01*
X0099939Y0186748D01*
X0099918Y0186905D01*
X0099900Y0187062D01*
X0099886Y0187220D01*
X0099876Y0187378D01*
X0099870Y0187536D01*
X0099868Y0187694D01*
X0008112Y0187639D02*
X0008114Y0187797D01*
X0008120Y0187955D01*
X0008130Y0188113D01*
X0008144Y0188271D01*
X0008162Y0188428D01*
X0008183Y0188585D01*
X0008209Y0188741D01*
X0008239Y0188897D01*
X0008272Y0189052D01*
X0008310Y0189205D01*
X0008351Y0189358D01*
X0008396Y0189510D01*
X0008445Y0189661D01*
X0008498Y0189810D01*
X0008554Y0189958D01*
X0008614Y0190104D01*
X0008678Y0190249D01*
X0008746Y0190392D01*
X0008817Y0190534D01*
X0008891Y0190674D01*
X0008969Y0190811D01*
X0009051Y0190947D01*
X0009135Y0191081D01*
X0009224Y0191212D01*
X0009315Y0191341D01*
X0009410Y0191468D01*
X0009507Y0191593D01*
X0009608Y0191715D01*
X0009712Y0191834D01*
X0009819Y0191951D01*
X0009929Y0192065D01*
X0010042Y0192176D01*
X0010157Y0192285D01*
X0010275Y0192390D01*
X0010396Y0192492D01*
X0010519Y0192592D01*
X0010645Y0192688D01*
X0010773Y0192781D01*
X0010903Y0192871D01*
X0011036Y0192957D01*
X0011171Y0193041D01*
X0011307Y0193120D01*
X0011446Y0193197D01*
X0011587Y0193269D01*
X0011729Y0193339D01*
X0011873Y0193404D01*
X0012019Y0193466D01*
X0012166Y0193524D01*
X0012315Y0193579D01*
X0012465Y0193630D01*
X0012616Y0193677D01*
X0012768Y0193720D01*
X0012921Y0193759D01*
X0013076Y0193795D01*
X0013231Y0193826D01*
X0013387Y0193854D01*
X0013543Y0193878D01*
X0013700Y0193898D01*
X0013858Y0193914D01*
X0014015Y0193926D01*
X0014174Y0193934D01*
X0014332Y0193938D01*
X0014490Y0193938D01*
X0014648Y0193934D01*
X0014807Y0193926D01*
X0014964Y0193914D01*
X0015122Y0193898D01*
X0015279Y0193878D01*
X0015435Y0193854D01*
X0015591Y0193826D01*
X0015746Y0193795D01*
X0015901Y0193759D01*
X0016054Y0193720D01*
X0016206Y0193677D01*
X0016357Y0193630D01*
X0016507Y0193579D01*
X0016656Y0193524D01*
X0016803Y0193466D01*
X0016949Y0193404D01*
X0017093Y0193339D01*
X0017235Y0193269D01*
X0017376Y0193197D01*
X0017515Y0193120D01*
X0017651Y0193041D01*
X0017786Y0192957D01*
X0017919Y0192871D01*
X0018049Y0192781D01*
X0018177Y0192688D01*
X0018303Y0192592D01*
X0018426Y0192492D01*
X0018547Y0192390D01*
X0018665Y0192285D01*
X0018780Y0192176D01*
X0018893Y0192065D01*
X0019003Y0191951D01*
X0019110Y0191834D01*
X0019214Y0191715D01*
X0019315Y0191593D01*
X0019412Y0191468D01*
X0019507Y0191341D01*
X0019598Y0191212D01*
X0019687Y0191081D01*
X0019771Y0190947D01*
X0019853Y0190811D01*
X0019931Y0190674D01*
X0020005Y0190534D01*
X0020076Y0190392D01*
X0020144Y0190249D01*
X0020208Y0190104D01*
X0020268Y0189958D01*
X0020324Y0189810D01*
X0020377Y0189661D01*
X0020426Y0189510D01*
X0020471Y0189358D01*
X0020512Y0189205D01*
X0020550Y0189052D01*
X0020583Y0188897D01*
X0020613Y0188741D01*
X0020639Y0188585D01*
X0020660Y0188428D01*
X0020678Y0188271D01*
X0020692Y0188113D01*
X0020702Y0187955D01*
X0020708Y0187797D01*
X0020710Y0187639D01*
X0020708Y0187481D01*
X0020702Y0187323D01*
X0020692Y0187165D01*
X0020678Y0187007D01*
X0020660Y0186850D01*
X0020639Y0186693D01*
X0020613Y0186537D01*
X0020583Y0186381D01*
X0020550Y0186226D01*
X0020512Y0186073D01*
X0020471Y0185920D01*
X0020426Y0185768D01*
X0020377Y0185617D01*
X0020324Y0185468D01*
X0020268Y0185320D01*
X0020208Y0185174D01*
X0020144Y0185029D01*
X0020076Y0184886D01*
X0020005Y0184744D01*
X0019931Y0184604D01*
X0019853Y0184467D01*
X0019771Y0184331D01*
X0019687Y0184197D01*
X0019598Y0184066D01*
X0019507Y0183937D01*
X0019412Y0183810D01*
X0019315Y0183685D01*
X0019214Y0183563D01*
X0019110Y0183444D01*
X0019003Y0183327D01*
X0018893Y0183213D01*
X0018780Y0183102D01*
X0018665Y0182993D01*
X0018547Y0182888D01*
X0018426Y0182786D01*
X0018303Y0182686D01*
X0018177Y0182590D01*
X0018049Y0182497D01*
X0017919Y0182407D01*
X0017786Y0182321D01*
X0017651Y0182237D01*
X0017515Y0182158D01*
X0017376Y0182081D01*
X0017235Y0182009D01*
X0017093Y0181939D01*
X0016949Y0181874D01*
X0016803Y0181812D01*
X0016656Y0181754D01*
X0016507Y0181699D01*
X0016357Y0181648D01*
X0016206Y0181601D01*
X0016054Y0181558D01*
X0015901Y0181519D01*
X0015746Y0181483D01*
X0015591Y0181452D01*
X0015435Y0181424D01*
X0015279Y0181400D01*
X0015122Y0181380D01*
X0014964Y0181364D01*
X0014807Y0181352D01*
X0014648Y0181344D01*
X0014490Y0181340D01*
X0014332Y0181340D01*
X0014174Y0181344D01*
X0014015Y0181352D01*
X0013858Y0181364D01*
X0013700Y0181380D01*
X0013543Y0181400D01*
X0013387Y0181424D01*
X0013231Y0181452D01*
X0013076Y0181483D01*
X0012921Y0181519D01*
X0012768Y0181558D01*
X0012616Y0181601D01*
X0012465Y0181648D01*
X0012315Y0181699D01*
X0012166Y0181754D01*
X0012019Y0181812D01*
X0011873Y0181874D01*
X0011729Y0181939D01*
X0011587Y0182009D01*
X0011446Y0182081D01*
X0011307Y0182158D01*
X0011171Y0182237D01*
X0011036Y0182321D01*
X0010903Y0182407D01*
X0010773Y0182497D01*
X0010645Y0182590D01*
X0010519Y0182686D01*
X0010396Y0182786D01*
X0010275Y0182888D01*
X0010157Y0182993D01*
X0010042Y0183102D01*
X0009929Y0183213D01*
X0009819Y0183327D01*
X0009712Y0183444D01*
X0009608Y0183563D01*
X0009507Y0183685D01*
X0009410Y0183810D01*
X0009315Y0183937D01*
X0009224Y0184066D01*
X0009135Y0184197D01*
X0009051Y0184331D01*
X0008969Y0184467D01*
X0008891Y0184604D01*
X0008817Y0184744D01*
X0008746Y0184886D01*
X0008678Y0185029D01*
X0008614Y0185174D01*
X0008554Y0185320D01*
X0008498Y0185468D01*
X0008445Y0185617D01*
X0008396Y0185768D01*
X0008351Y0185920D01*
X0008310Y0186073D01*
X0008272Y0186226D01*
X0008239Y0186381D01*
X0008209Y0186537D01*
X0008183Y0186693D01*
X0008162Y0186850D01*
X0008144Y0187007D01*
X0008130Y0187165D01*
X0008120Y0187323D01*
X0008114Y0187481D01*
X0008112Y0187639D01*
D11*
X0034600Y0138600D02*
X0040600Y0138600D01*
X0040600Y0128600D02*
X0034600Y0128600D01*
X0034600Y0118600D02*
X0040600Y0118600D01*
X0040600Y0108600D02*
X0034600Y0108600D01*
X0034600Y0098600D02*
X0040600Y0098600D01*
X0189350Y0121600D02*
X0195350Y0121600D01*
X0195350Y0131600D02*
X0189350Y0131600D01*
X0189350Y0141600D02*
X0195350Y0141600D01*
X0195350Y0151600D02*
X0189350Y0151600D01*
X0189350Y0060600D02*
X0195350Y0060600D01*
X0195350Y0050600D02*
X0189350Y0050600D01*
X0189350Y0040600D02*
X0195350Y0040600D01*
X0195350Y0030600D02*
X0189350Y0030600D01*
D12*
X0045600Y0015600D03*
D13*
X0045600Y0025600D03*
X0055600Y0025600D03*
X0055600Y0015600D03*
X0065600Y0015600D03*
X0065600Y0025600D03*
D14*
X0147100Y0019350D03*
X0172600Y0070600D03*
X0172600Y0080600D03*
X0182600Y0080600D03*
X0182600Y0070600D03*
X0192600Y0070600D03*
X0192600Y0080600D03*
X0155600Y0120600D03*
X0155600Y0130600D03*
X0155600Y0140600D03*
X0145600Y0140600D03*
X0145600Y0130600D03*
X0145600Y0120600D03*
D15*
X0056600Y0179575D02*
X0056600Y0186625D01*
X0036600Y0186625D02*
X0036600Y0179575D01*
D16*
X0027600Y0146100D03*
X0047600Y0146100D03*
X0047600Y0089100D03*
X0037600Y0089100D03*
X0027600Y0089100D03*
D17*
X0011600Y0118600D03*
X0063600Y0118600D03*
D18*
X0123600Y0121600D03*
X0123600Y0111600D03*
X0123600Y0101600D03*
X0123600Y0131600D03*
X0123600Y0141600D03*
X0123600Y0151600D03*
X0123600Y0161600D03*
X0123600Y0171600D03*
X0173600Y0171600D03*
X0173600Y0161600D03*
X0173600Y0151600D03*
X0173600Y0141600D03*
X0173600Y0131600D03*
X0173600Y0121600D03*
X0173600Y0111600D03*
X0173600Y0101600D03*
D19*
X0063600Y0081100D03*
X0053600Y0081100D03*
X0053600Y0154100D03*
X0063600Y0154100D03*
D20*
X0021600Y0154100D03*
X0011600Y0154100D03*
X0011600Y0081100D03*
X0021600Y0081100D03*
D21*
X0132072Y0189072D03*
X0142072Y0189072D03*
X0152072Y0189072D03*
X0162072Y0189072D03*
D22*
X0093527Y0123100D03*
X0091952Y0127824D03*
X0091165Y0129399D03*
X0091165Y0130187D03*
X0091165Y0130974D03*
X0091165Y0131761D03*
D23*
X0093133Y0123887D03*
X0090771Y0158533D03*
D24*
X0088015Y0157746D03*
X0092740Y0125462D03*
X0092740Y0124675D03*
D25*
X0092346Y0126250D03*
X0092346Y0127037D03*
X0091559Y0128612D03*
D26*
X0090771Y0132549D03*
D27*
X0091165Y0133336D03*
X0091165Y0134124D03*
X0091165Y0134911D03*
X0091165Y0135698D03*
X0091165Y0136486D03*
X0091165Y0137273D03*
D28*
X0091165Y0138061D03*
D29*
X0088409Y0138848D03*
X0103370Y0154596D03*
X0104157Y0153809D03*
X0104944Y0153021D03*
X0105732Y0152234D03*
X0106519Y0151446D03*
X0107307Y0149872D03*
X0108094Y0149084D03*
X0108881Y0147509D03*
X0108881Y0146722D03*
X0108881Y0144360D03*
X0102582Y0155383D03*
X0101007Y0156171D03*
D30*
X0099433Y0141998D03*
D31*
X0096677Y0142785D03*
X0091165Y0144360D03*
X0088015Y0152234D03*
D32*
X0095496Y0143572D03*
D33*
X0106913Y0150659D03*
X0108488Y0148297D03*
X0109275Y0145935D03*
X0109275Y0145147D03*
D34*
X0090378Y0145147D03*
X0088015Y0150659D03*
D35*
X0088409Y0149872D03*
X0088409Y0149084D03*
X0089196Y0146722D03*
X0089984Y0145935D03*
D36*
X0088803Y0147509D03*
X0088803Y0148297D03*
D37*
X0088409Y0151446D03*
D38*
X0088015Y0153021D03*
D39*
X0088015Y0153809D03*
D40*
X0088015Y0154596D03*
D41*
X0088015Y0155383D03*
D42*
X0088015Y0156171D03*
D43*
X0098252Y0157746D03*
X0099826Y0156958D03*
D44*
X0088015Y0156958D03*
D45*
X0090771Y0159320D03*
D46*
X0182600Y0172600D03*
D47*
X0182600Y0113600D01*
X0180600Y0111600D01*
X0173600Y0111600D01*
X0065600Y0015600D02*
X0060600Y0020600D01*
X0060600Y0030600D02*
X0060600Y0037600D01*
D48*
X0065975Y0042975D01*
X0066100Y0042850D01*
X0140850Y0042850D01*
X0143850Y0038600D02*
X0091600Y0038600D01*
X0090600Y0039600D01*
X0089600Y0035350D02*
X0086100Y0038850D01*
X0089600Y0035350D02*
X0147850Y0035350D01*
X0175100Y0053850D02*
X0187600Y0066350D01*
X0187600Y0075600D01*
X0192600Y0080600D01*
X0182600Y0080600D02*
X0182600Y0081350D01*
X0177350Y0086600D01*
X0154850Y0075350D02*
X0141100Y0089100D01*
X0141100Y0094350D01*
X0139850Y0095600D01*
X0119850Y0095600D01*
X0110350Y0086100D01*
X0101100Y0086100D01*
X0088600Y0098600D01*
X0037600Y0098600D01*
X0037600Y0089100D02*
X0044100Y0082600D01*
X0046600Y0082600D01*
X0048100Y0081100D01*
X0053600Y0081100D01*
X0052350Y0102600D02*
X0097850Y0102600D01*
X0100100Y0104850D01*
X0117850Y0104850D01*
X0119600Y0106600D01*
X0117350Y0116600D02*
X0108600Y0107850D01*
X0053850Y0107850D01*
X0043100Y0118600D01*
X0037600Y0118600D01*
X0037600Y0108600D02*
X0046350Y0108600D01*
X0052350Y0102600D01*
X0037600Y0128600D02*
X0024600Y0128600D01*
X0021600Y0125600D01*
X0021600Y0081100D01*
X0060600Y0030600D02*
X0060600Y0020600D01*
X0097600Y0055100D02*
X0097600Y0056100D01*
X0110100Y0049850D02*
X0175850Y0049850D01*
X0175100Y0053850D02*
X0114600Y0053850D01*
X0119850Y0080350D02*
X0121100Y0080350D01*
X0143350Y0080600D02*
X0144100Y0081350D01*
X0143350Y0080600D02*
X0143350Y0079850D01*
X0151600Y0083600D02*
X0144350Y0090850D01*
X0144350Y0099350D01*
X0137100Y0106600D01*
X0136850Y0116600D02*
X0148350Y0105100D01*
X0148350Y0092350D01*
X0080100Y0119850D02*
X0061350Y0138600D01*
X0037600Y0138600D01*
D49*
X0037600Y0138600D01*
X0037600Y0144200D01*
X0041041Y0144200D01*
X0041911Y0144062D01*
X0042441Y0143890D01*
X0042410Y0143950D01*
X0042138Y0144789D01*
X0042000Y0145659D01*
X0042000Y0146100D01*
X0047600Y0146100D01*
X0047600Y0146100D01*
X0047600Y0151700D01*
X0048041Y0151700D01*
X0048228Y0151670D01*
X0048228Y0154100D01*
X0053600Y0154100D01*
X0058972Y0154100D01*
X0063600Y0154100D01*
X0063600Y0154100D01*
X0063600Y0159472D01*
X0060572Y0159472D01*
X0060070Y0159372D01*
X0059597Y0159176D01*
X0059171Y0158891D01*
X0058809Y0158529D01*
X0058600Y0158217D01*
X0058391Y0158529D01*
X0058029Y0158891D01*
X0057603Y0159176D01*
X0057130Y0159372D01*
X0056628Y0159472D01*
X0053600Y0159472D01*
X0050572Y0159472D01*
X0050070Y0159372D01*
X0049597Y0159176D01*
X0049171Y0158891D01*
X0048809Y0158529D01*
X0048524Y0158103D01*
X0048328Y0157630D01*
X0048228Y0157128D01*
X0048228Y0154100D01*
X0053600Y0154100D01*
X0053600Y0154100D01*
X0053600Y0154100D01*
X0053600Y0159472D01*
X0053600Y0154100D01*
X0063600Y0154100D01*
X0068972Y0154100D01*
X0068972Y0157128D01*
X0068872Y0157630D01*
X0068676Y0158103D01*
X0068391Y0158529D01*
X0068029Y0158891D01*
X0067603Y0159176D01*
X0067130Y0159372D01*
X0066628Y0159472D01*
X0063600Y0159472D01*
X0063600Y0154100D01*
X0063600Y0154100D01*
X0063600Y0154100D01*
X0068972Y0154100D01*
X0068972Y0151072D01*
X0068872Y0150570D01*
X0068676Y0150097D01*
X0068391Y0149671D01*
X0068029Y0149309D01*
X0067603Y0149024D01*
X0067130Y0148828D01*
X0066628Y0148728D01*
X0063600Y0148728D01*
X0063600Y0154100D01*
X0063600Y0154100D01*
X0063600Y0148728D01*
X0060572Y0148728D01*
X0060070Y0148828D01*
X0059597Y0149024D01*
X0059171Y0149309D01*
X0058809Y0149671D01*
X0058600Y0149983D01*
X0058391Y0149671D01*
X0058029Y0149309D01*
X0057603Y0149024D01*
X0057130Y0148828D01*
X0056628Y0148728D01*
X0053600Y0148728D01*
X0053600Y0154100D01*
X0053600Y0154100D01*
X0053600Y0154100D01*
X0053600Y0148728D01*
X0052546Y0148728D01*
X0052790Y0148250D01*
X0053062Y0147411D01*
X0053200Y0146541D01*
X0053200Y0146100D01*
X0047600Y0146100D01*
X0047600Y0146100D01*
X0047600Y0146100D01*
X0047600Y0151700D01*
X0047159Y0151700D01*
X0046289Y0151562D01*
X0045450Y0151290D01*
X0044665Y0150890D01*
X0043952Y0150371D01*
X0043329Y0149748D01*
X0042810Y0149035D01*
X0042410Y0148250D01*
X0042138Y0147411D01*
X0042000Y0146541D01*
X0042000Y0146100D01*
X0047600Y0146100D01*
X0053200Y0146100D01*
X0053200Y0145659D01*
X0053062Y0144789D01*
X0052790Y0143950D01*
X0052390Y0143165D01*
X0051871Y0142452D01*
X0051248Y0141829D01*
X0050535Y0141310D01*
X0049750Y0140910D01*
X0048911Y0140638D01*
X0048041Y0140500D01*
X0047600Y0140500D01*
X0047600Y0146100D01*
X0047600Y0146100D01*
X0047600Y0140500D01*
X0047159Y0140500D01*
X0046289Y0140638D01*
X0045759Y0140810D01*
X0045790Y0140750D01*
X0046062Y0139911D01*
X0046200Y0139041D01*
X0046200Y0138600D01*
X0037600Y0138600D01*
X0037600Y0138600D01*
X0037600Y0144200D01*
X0034159Y0144200D01*
X0033479Y0144092D01*
X0033800Y0144867D01*
X0033800Y0147333D01*
X0032856Y0149612D01*
X0031112Y0151356D01*
X0028833Y0152300D01*
X0027318Y0152300D01*
X0027572Y0152912D01*
X0027572Y0155288D01*
X0026663Y0157483D01*
X0024983Y0159163D01*
X0022788Y0160072D01*
X0020412Y0160072D01*
X0018217Y0159163D01*
X0016600Y0157545D01*
X0014983Y0159163D01*
X0012788Y0160072D01*
X0010412Y0160072D01*
X0008217Y0159163D01*
X0006537Y0157483D01*
X0005800Y0155702D01*
X0005800Y0183606D01*
X0006358Y0182258D01*
X0009030Y0179586D01*
X0012522Y0178140D01*
X0016301Y0178140D01*
X0019792Y0179586D01*
X0022464Y0182258D01*
X0023910Y0185750D01*
X0023910Y0189529D01*
X0022464Y0193020D01*
X0019792Y0195692D01*
X0018445Y0196250D01*
X0102000Y0196250D01*
X0100786Y0195748D01*
X0098114Y0193075D01*
X0096668Y0189584D01*
X0096668Y0185805D01*
X0098114Y0182314D01*
X0100786Y0179641D01*
X0104277Y0178195D01*
X0108056Y0178195D01*
X0108189Y0178250D01*
X0106239Y0176300D01*
X0097466Y0176300D01*
X0097134Y0176162D01*
X0095601Y0176162D01*
X0094425Y0175675D01*
X0093525Y0174775D01*
X0093038Y0173599D01*
X0093038Y0172066D01*
X0092900Y0171734D01*
X0092900Y0169466D01*
X0093038Y0169134D01*
X0093038Y0167601D01*
X0093525Y0166425D01*
X0094425Y0165525D01*
X0095601Y0165038D01*
X0097134Y0165038D01*
X0097466Y0164900D01*
X0109734Y0164900D01*
X0111829Y0165768D01*
X0116600Y0170539D01*
X0116600Y0170208D01*
X0117666Y0167635D01*
X0118701Y0166600D01*
X0117666Y0165565D01*
X0116600Y0162992D01*
X0116600Y0160208D01*
X0117666Y0157635D01*
X0118701Y0156600D01*
X0117666Y0155565D01*
X0116600Y0152992D01*
X0116600Y0150208D01*
X0117666Y0147635D01*
X0118701Y0146600D01*
X0117666Y0145565D01*
X0116600Y0142992D01*
X0116600Y0140208D01*
X0117666Y0137635D01*
X0118701Y0136600D01*
X0117666Y0135565D01*
X0116600Y0132992D01*
X0116600Y0130208D01*
X0117666Y0127635D01*
X0118701Y0126600D01*
X0117666Y0125565D01*
X0116600Y0122992D01*
X0116600Y0120600D01*
X0116554Y0120600D01*
X0115084Y0119991D01*
X0106943Y0111850D01*
X0070568Y0111850D01*
X0071823Y0113105D01*
X0073300Y0116671D01*
X0073300Y0120529D01*
X0071823Y0124095D01*
X0069095Y0126823D01*
X0065529Y0128300D01*
X0061671Y0128300D01*
X0058105Y0126823D01*
X0055377Y0124095D01*
X0053900Y0120529D01*
X0053900Y0116671D01*
X0055377Y0113105D01*
X0056632Y0111850D01*
X0055507Y0111850D01*
X0046288Y0121069D01*
X0045856Y0122112D01*
X0044368Y0123600D01*
X0045856Y0125088D01*
X0046800Y0127367D01*
X0046800Y0129833D01*
X0045856Y0132112D01*
X0044112Y0133856D01*
X0043785Y0133992D01*
X0044248Y0134329D01*
X0044871Y0134952D01*
X0045390Y0135665D01*
X0045790Y0136450D01*
X0046062Y0137289D01*
X0046200Y0138159D01*
X0046200Y0138600D01*
X0037600Y0138600D01*
X0037600Y0138600D01*
X0029000Y0138600D01*
X0029000Y0139041D01*
X0029138Y0139911D01*
X0029181Y0140044D01*
X0028833Y0139900D01*
X0026367Y0139900D01*
X0024088Y0140844D01*
X0022344Y0142588D01*
X0021400Y0144867D01*
X0021400Y0147333D01*
X0021729Y0148128D01*
X0020412Y0148128D01*
X0018217Y0149037D01*
X0016600Y0150655D01*
X0014983Y0149037D01*
X0012788Y0148128D01*
X0010412Y0148128D01*
X0008217Y0149037D01*
X0006537Y0150717D01*
X0005800Y0152498D01*
X0005800Y0126518D01*
X0006105Y0126823D01*
X0009671Y0128300D01*
X0013529Y0128300D01*
X0017095Y0126823D01*
X0017600Y0126318D01*
X0017600Y0126396D01*
X0018209Y0127866D01*
X0019334Y0128991D01*
X0022334Y0131991D01*
X0023804Y0132600D01*
X0029832Y0132600D01*
X0031088Y0133856D01*
X0031415Y0133992D01*
X0030952Y0134329D01*
X0030329Y0134952D01*
X0029810Y0135665D01*
X0029410Y0136450D01*
X0029138Y0137289D01*
X0029000Y0138159D01*
X0029000Y0138600D01*
X0037600Y0138600D01*
X0037600Y0140136D02*
X0037600Y0140136D01*
X0037600Y0143334D02*
X0037600Y0143334D01*
X0033800Y0146533D02*
X0042000Y0146533D01*
X0043316Y0149732D02*
X0032737Y0149732D01*
X0027572Y0152930D02*
X0048228Y0152930D01*
X0047600Y0149732D02*
X0047600Y0149732D01*
X0047600Y0146533D02*
X0047600Y0146533D01*
X0047600Y0143334D02*
X0047600Y0143334D01*
X0045989Y0140136D02*
X0079519Y0140136D01*
X0079899Y0139979D02*
X0081572Y0139979D01*
X0081872Y0139679D01*
X0083048Y0139191D01*
X0083215Y0139191D01*
X0082847Y0138303D01*
X0082847Y0135055D01*
X0082547Y0134755D01*
X0082059Y0133579D01*
X0082059Y0127582D01*
X0082547Y0126405D01*
X0082847Y0126105D01*
X0082847Y0122857D01*
X0083334Y0121681D01*
X0084234Y0120781D01*
X0085410Y0120294D01*
X0085509Y0120294D01*
X0085809Y0119993D01*
X0086985Y0119506D01*
X0100069Y0119506D01*
X0101245Y0119993D01*
X0102033Y0120781D01*
X0102933Y0121681D01*
X0103420Y0122857D01*
X0103420Y0124918D01*
X0102933Y0126094D01*
X0102633Y0126394D01*
X0102633Y0126492D01*
X0102145Y0127669D01*
X0101845Y0127969D01*
X0101845Y0128067D01*
X0101358Y0129243D01*
X0101058Y0129544D01*
X0101058Y0129642D01*
X0100571Y0130818D01*
X0100270Y0131118D01*
X0100270Y0132792D01*
X0099783Y0133968D01*
X0099483Y0134268D01*
X0099483Y0138303D01*
X0099441Y0138404D01*
X0108731Y0138404D01*
X0109907Y0138891D01*
X0110207Y0139191D01*
X0110305Y0139191D01*
X0111482Y0139679D01*
X0112269Y0140466D01*
X0113169Y0141366D01*
X0113656Y0142542D01*
X0113656Y0148540D01*
X0113169Y0149716D01*
X0112869Y0150016D01*
X0112869Y0150114D01*
X0112382Y0151291D01*
X0111594Y0152078D01*
X0111294Y0152378D01*
X0111294Y0152477D01*
X0110807Y0153653D01*
X0110020Y0154440D01*
X0109232Y0155228D01*
X0108445Y0156015D01*
X0107657Y0156802D01*
X0106870Y0157590D01*
X0105970Y0158490D01*
X0104794Y0158977D01*
X0104695Y0158977D01*
X0104508Y0159165D01*
X0103608Y0160065D01*
X0102431Y0160552D01*
X0102333Y0160552D01*
X0102033Y0160852D01*
X0100857Y0161339D01*
X0099971Y0161339D01*
X0099671Y0161640D01*
X0098494Y0162127D01*
X0097609Y0162127D01*
X0097308Y0162427D01*
X0096132Y0162914D01*
X0085410Y0162914D01*
X0084234Y0162427D01*
X0083934Y0162127D01*
X0083048Y0162127D01*
X0081872Y0161640D01*
X0081572Y0161339D01*
X0080686Y0161339D01*
X0079510Y0160852D01*
X0078610Y0159952D01*
X0078422Y0159765D01*
X0078324Y0159765D01*
X0077148Y0159277D01*
X0076247Y0158377D01*
X0075460Y0157590D01*
X0074673Y0156802D01*
X0073885Y0156015D01*
X0073098Y0155228D01*
X0073098Y0155228D01*
X0072310Y0154440D01*
X0071823Y0153264D01*
X0071823Y0153166D01*
X0071523Y0152865D01*
X0071036Y0151689D01*
X0071036Y0146479D01*
X0071523Y0145303D01*
X0072423Y0144403D01*
X0073211Y0143616D01*
X0073998Y0142828D01*
X0074785Y0142041D01*
X0075962Y0141554D01*
X0076060Y0141554D01*
X0076360Y0141253D01*
X0077536Y0140766D01*
X0078422Y0140766D01*
X0078722Y0140466D01*
X0079899Y0139979D01*
X0082847Y0136937D02*
X0045948Y0136937D01*
X0044229Y0133739D02*
X0082126Y0133739D01*
X0082059Y0130540D02*
X0046507Y0130540D01*
X0046790Y0127342D02*
X0059358Y0127342D01*
X0055426Y0124143D02*
X0044912Y0124143D01*
X0046412Y0120945D02*
X0054072Y0120945D01*
X0053900Y0117746D02*
X0049610Y0117746D01*
X0052809Y0114548D02*
X0054779Y0114548D01*
X0067842Y0127342D02*
X0082159Y0127342D01*
X0082847Y0124143D02*
X0071774Y0124143D01*
X0073128Y0120945D02*
X0084070Y0120945D01*
X0073300Y0117746D02*
X0112840Y0117746D01*
X0109641Y0114548D02*
X0072421Y0114548D01*
X0086943Y0094600D02*
X0050523Y0094600D01*
X0051112Y0094356D01*
X0052856Y0092612D01*
X0053800Y0090333D01*
X0053800Y0087867D01*
X0053222Y0086472D01*
X0053600Y0086472D01*
X0053600Y0081100D01*
X0053600Y0081100D01*
X0053600Y0086472D01*
X0056628Y0086472D01*
X0057130Y0086372D01*
X0057603Y0086176D01*
X0058029Y0085891D01*
X0058391Y0085529D01*
X0058600Y0085217D01*
X0058809Y0085529D01*
X0059171Y0085891D01*
X0059597Y0086176D01*
X0060070Y0086372D01*
X0060572Y0086472D01*
X0063600Y0086472D01*
X0063600Y0081100D01*
X0063600Y0081100D01*
X0063600Y0086472D01*
X0066628Y0086472D01*
X0067130Y0086372D01*
X0067603Y0086176D01*
X0068029Y0085891D01*
X0068391Y0085529D01*
X0068676Y0085103D01*
X0068872Y0084630D01*
X0068972Y0084128D01*
X0068972Y0081100D01*
X0063600Y0081100D01*
X0063600Y0081100D01*
X0068972Y0081100D01*
X0068972Y0078072D01*
X0068872Y0077570D01*
X0068676Y0077097D01*
X0068391Y0076671D01*
X0068029Y0076309D01*
X0067603Y0076024D01*
X0067130Y0075828D01*
X0066628Y0075728D01*
X0063600Y0075728D01*
X0063600Y0081100D01*
X0063600Y0081100D01*
X0063600Y0081100D01*
X0058228Y0081100D01*
X0053600Y0081100D01*
X0053600Y0081100D01*
X0053600Y0075728D01*
X0056628Y0075728D01*
X0057130Y0075828D01*
X0057603Y0076024D01*
X0058029Y0076309D01*
X0058391Y0076671D01*
X0058600Y0076983D01*
X0058809Y0076671D01*
X0059171Y0076309D01*
X0059597Y0076024D01*
X0060070Y0075828D01*
X0060572Y0075728D01*
X0063600Y0075728D01*
X0063600Y0081100D01*
X0053600Y0081100D01*
X0053600Y0081100D01*
X0053600Y0081100D01*
X0048228Y0081100D01*
X0048228Y0078072D01*
X0048328Y0077570D01*
X0048524Y0077097D01*
X0048809Y0076671D01*
X0049171Y0076309D01*
X0049597Y0076024D01*
X0050070Y0075828D01*
X0050572Y0075728D01*
X0053600Y0075728D01*
X0053600Y0081100D01*
X0048228Y0081100D01*
X0048228Y0082900D01*
X0046367Y0082900D01*
X0044088Y0083844D01*
X0042344Y0085588D01*
X0042208Y0085915D01*
X0041871Y0085452D01*
X0041248Y0084829D01*
X0040618Y0084371D01*
X0041919Y0083069D01*
X0051588Y0073400D01*
X0117362Y0073400D01*
X0121618Y0077657D01*
X0121538Y0077851D01*
X0121538Y0083849D01*
X0122025Y0085025D01*
X0122925Y0085925D01*
X0124101Y0086412D01*
X0130099Y0086412D01*
X0131275Y0085925D01*
X0132175Y0085025D01*
X0132662Y0083849D01*
X0132662Y0077851D01*
X0132175Y0076675D01*
X0131650Y0076150D01*
X0131650Y0075145D01*
X0130919Y0073381D01*
X0129569Y0072031D01*
X0122069Y0064531D01*
X0120305Y0063800D01*
X0048645Y0063800D01*
X0046881Y0064531D01*
X0045531Y0065881D01*
X0035862Y0075550D01*
X0023806Y0075550D01*
X0022788Y0075128D01*
X0020412Y0075128D01*
X0018217Y0076037D01*
X0016600Y0077655D01*
X0014983Y0076037D01*
X0012788Y0075128D01*
X0010412Y0075128D01*
X0008217Y0076037D01*
X0006537Y0077717D01*
X0005800Y0079498D01*
X0005800Y0018445D01*
X0006358Y0019792D01*
X0009030Y0022464D01*
X0012522Y0023910D01*
X0016301Y0023910D01*
X0019792Y0022464D01*
X0022464Y0019792D01*
X0023910Y0016301D01*
X0023910Y0012522D01*
X0022464Y0009030D01*
X0019792Y0006358D01*
X0018445Y0005800D01*
X0183606Y0005800D01*
X0182258Y0006358D01*
X0179586Y0009030D01*
X0178140Y0012522D01*
X0178140Y0016301D01*
X0179586Y0019792D01*
X0182258Y0022464D01*
X0185750Y0023910D01*
X0189529Y0023910D01*
X0193020Y0022464D01*
X0195692Y0019792D01*
X0196250Y0018445D01*
X0196250Y0024400D01*
X0188117Y0024400D01*
X0185838Y0025344D01*
X0184094Y0027088D01*
X0183150Y0029367D01*
X0183150Y0031833D01*
X0184094Y0034112D01*
X0185582Y0035600D01*
X0184094Y0037088D01*
X0183150Y0039367D01*
X0183150Y0041833D01*
X0184094Y0044112D01*
X0185838Y0045856D01*
X0186165Y0045992D01*
X0185702Y0046329D01*
X0185079Y0046952D01*
X0184560Y0047665D01*
X0184160Y0048450D01*
X0183888Y0049289D01*
X0183750Y0050159D01*
X0183750Y0050600D01*
X0192350Y0050600D01*
X0192350Y0050600D01*
X0183750Y0050600D01*
X0183750Y0051041D01*
X0183888Y0051911D01*
X0184160Y0052750D01*
X0184560Y0053535D01*
X0185079Y0054248D01*
X0185702Y0054871D01*
X0186165Y0055208D01*
X0185838Y0055344D01*
X0184094Y0057088D01*
X0184065Y0057158D01*
X0179826Y0052919D01*
X0180073Y0052672D01*
X0180831Y0050841D01*
X0180831Y0048859D01*
X0180073Y0047028D01*
X0178672Y0045627D01*
X0176841Y0044869D01*
X0174859Y0044869D01*
X0173028Y0045627D01*
X0172806Y0045850D01*
X0144894Y0045850D01*
X0145073Y0045672D01*
X0145831Y0043841D01*
X0145831Y0043171D01*
X0146672Y0042823D01*
X0148073Y0041422D01*
X0148524Y0040331D01*
X0148841Y0040331D01*
X0150672Y0039573D01*
X0152073Y0038172D01*
X0152831Y0036341D01*
X0152831Y0034359D01*
X0152073Y0032528D01*
X0150672Y0031127D01*
X0148841Y0030369D01*
X0146859Y0030369D01*
X0145028Y0031127D01*
X0144806Y0031350D01*
X0088804Y0031350D01*
X0087334Y0031959D01*
X0085424Y0033869D01*
X0085109Y0033869D01*
X0083278Y0034627D01*
X0081877Y0036028D01*
X0081119Y0037859D01*
X0081119Y0038850D01*
X0067507Y0038850D01*
X0065581Y0036924D01*
X0065581Y0036609D01*
X0065000Y0035206D01*
X0065000Y0031500D01*
X0065600Y0031500D01*
X0065600Y0025600D01*
X0065600Y0025600D01*
X0071500Y0025600D01*
X0071500Y0028044D01*
X0068044Y0031500D01*
X0065600Y0031500D01*
X0065600Y0025600D01*
X0065600Y0025600D01*
X0071500Y0025600D01*
X0071500Y0023156D01*
X0069368Y0021024D01*
X0072100Y0018292D01*
X0072100Y0012908D01*
X0068292Y0009100D01*
X0062908Y0009100D01*
X0060600Y0011408D01*
X0058292Y0009100D01*
X0052908Y0009100D01*
X0051567Y0010441D01*
X0050713Y0009587D01*
X0049537Y0009100D01*
X0041663Y0009100D01*
X0040487Y0009587D01*
X0039587Y0010487D01*
X0039100Y0011663D01*
X0039100Y0019537D01*
X0039587Y0020713D01*
X0040441Y0021567D01*
X0039100Y0022908D01*
X0039100Y0028292D01*
X0042908Y0032100D01*
X0048292Y0032100D01*
X0050600Y0029792D01*
X0052908Y0032100D01*
X0056200Y0032100D01*
X0056200Y0035206D01*
X0055619Y0036609D01*
X0055619Y0038591D01*
X0056377Y0040422D01*
X0057778Y0041823D01*
X0059609Y0042581D01*
X0059924Y0042581D01*
X0062584Y0045241D01*
X0062584Y0045241D01*
X0063709Y0046366D01*
X0065179Y0046975D01*
X0066771Y0046975D01*
X0067072Y0046850D01*
X0106056Y0046850D01*
X0105877Y0047028D01*
X0105119Y0048859D01*
X0105119Y0050841D01*
X0105877Y0052672D01*
X0107278Y0054073D01*
X0109109Y0054831D01*
X0109619Y0054831D01*
X0109619Y0054841D01*
X0110377Y0056672D01*
X0111778Y0058073D01*
X0113609Y0058831D01*
X0115591Y0058831D01*
X0117422Y0058073D01*
X0117644Y0057850D01*
X0173443Y0057850D01*
X0180593Y0065000D01*
X0180280Y0065000D01*
X0178024Y0067256D01*
X0175168Y0064400D01*
X0170032Y0064400D01*
X0166400Y0068032D01*
X0166400Y0073168D01*
X0168832Y0075600D01*
X0166400Y0078032D01*
X0166400Y0083168D01*
X0170032Y0086800D01*
X0175168Y0086800D01*
X0178024Y0083944D01*
X0180280Y0086200D01*
X0182600Y0086200D01*
X0182600Y0080600D01*
X0182600Y0080600D01*
X0182600Y0086200D01*
X0184920Y0086200D01*
X0187176Y0083944D01*
X0190032Y0086800D01*
X0195168Y0086800D01*
X0196250Y0085718D01*
X0196250Y0092265D01*
X0195716Y0090975D01*
X0193044Y0088303D01*
X0189552Y0086857D01*
X0185773Y0086857D01*
X0182282Y0088303D01*
X0179610Y0090975D01*
X0178164Y0094466D01*
X0178164Y0097113D01*
X0177829Y0096778D01*
X0177163Y0096267D01*
X0176437Y0095848D01*
X0175662Y0095527D01*
X0174851Y0095310D01*
X0174019Y0095200D01*
X0173600Y0095200D01*
X0173600Y0101600D01*
X0173600Y0101600D01*
X0173600Y0101600D01*
X0167200Y0101600D01*
X0167200Y0102019D01*
X0167310Y0102851D01*
X0167527Y0103662D01*
X0167848Y0104437D01*
X0168267Y0105163D01*
X0168778Y0105829D01*
X0169125Y0106176D01*
X0167666Y0107635D01*
X0166600Y0110208D01*
X0166600Y0112992D01*
X0167666Y0115565D01*
X0168701Y0116600D01*
X0167666Y0117635D01*
X0166600Y0120208D01*
X0166600Y0122992D01*
X0167666Y0125565D01*
X0168701Y0126600D01*
X0167666Y0127635D01*
X0166600Y0130208D01*
X0166600Y0132992D01*
X0167666Y0135565D01*
X0168701Y0136600D01*
X0167666Y0137635D01*
X0166600Y0140208D01*
X0166600Y0142992D01*
X0167666Y0145565D01*
X0168701Y0146600D01*
X0167666Y0147635D01*
X0166600Y0150208D01*
X0166600Y0152992D01*
X0167666Y0155565D01*
X0169125Y0157024D01*
X0168778Y0157371D01*
X0168267Y0158037D01*
X0167848Y0158763D01*
X0167527Y0159538D01*
X0167310Y0160349D01*
X0167200Y0161181D01*
X0167200Y0161600D01*
X0173600Y0161600D01*
X0173600Y0161600D01*
X0167200Y0161600D01*
X0167200Y0162019D01*
X0167310Y0162851D01*
X0167527Y0163662D01*
X0167848Y0164437D01*
X0168267Y0165163D01*
X0168778Y0165829D01*
X0169125Y0166176D01*
X0167666Y0167635D01*
X0166600Y0170208D01*
X0166600Y0172992D01*
X0167666Y0175565D01*
X0167900Y0175799D01*
X0167900Y0187022D01*
X0167302Y0185578D01*
X0165567Y0183843D01*
X0163299Y0182904D01*
X0160845Y0182904D01*
X0158578Y0183843D01*
X0156843Y0185578D01*
X0156688Y0185952D01*
X0156320Y0185445D01*
X0155700Y0184825D01*
X0154991Y0184310D01*
X0154210Y0183912D01*
X0153376Y0183641D01*
X0152511Y0183504D01*
X0152072Y0183504D01*
X0152072Y0189072D01*
X0152072Y0189072D01*
X0152072Y0183504D01*
X0151634Y0183504D01*
X0150768Y0183641D01*
X0149935Y0183912D01*
X0149154Y0184310D01*
X0148445Y0184825D01*
X0147825Y0185445D01*
X0147457Y0185952D01*
X0147302Y0185578D01*
X0145567Y0183843D01*
X0143299Y0182904D01*
X0140845Y0182904D01*
X0138578Y0183843D01*
X0137072Y0185349D01*
X0135567Y0183843D01*
X0133299Y0182904D01*
X0130845Y0182904D01*
X0128578Y0183843D01*
X0127300Y0185121D01*
X0127300Y0182466D01*
X0126432Y0180371D01*
X0124829Y0178768D01*
X0124661Y0178600D01*
X0124992Y0178600D01*
X0127565Y0177534D01*
X0129534Y0175565D01*
X0130600Y0172992D01*
X0130600Y0170208D01*
X0129534Y0167635D01*
X0128499Y0166600D01*
X0129534Y0165565D01*
X0130600Y0162992D01*
X0130600Y0160208D01*
X0129534Y0157635D01*
X0128499Y0156600D01*
X0129534Y0155565D01*
X0130600Y0152992D01*
X0130600Y0150208D01*
X0129534Y0147635D01*
X0128499Y0146600D01*
X0129534Y0145565D01*
X0130600Y0142992D01*
X0130600Y0140208D01*
X0129534Y0137635D01*
X0128499Y0136600D01*
X0129534Y0135565D01*
X0130600Y0132992D01*
X0130600Y0130208D01*
X0129534Y0127635D01*
X0128499Y0126600D01*
X0129534Y0125565D01*
X0130600Y0122992D01*
X0130600Y0120400D01*
X0135572Y0120400D01*
X0136054Y0120600D01*
X0137646Y0120600D01*
X0139116Y0119991D01*
X0139400Y0119707D01*
X0139400Y0123168D01*
X0141832Y0125600D01*
X0139400Y0128032D01*
X0139400Y0133168D01*
X0141832Y0135600D01*
X0139400Y0138032D01*
X0139400Y0143168D01*
X0143032Y0146800D01*
X0148168Y0146800D01*
X0150600Y0144368D01*
X0153032Y0146800D01*
X0158168Y0146800D01*
X0161800Y0143168D01*
X0161800Y0138032D01*
X0159368Y0135600D01*
X0161800Y0133168D01*
X0161800Y0128032D01*
X0159368Y0125600D01*
X0161800Y0123168D01*
X0161800Y0118032D01*
X0158168Y0114400D01*
X0153032Y0114400D01*
X0150600Y0116832D01*
X0148168Y0114400D01*
X0144707Y0114400D01*
X0150616Y0108491D01*
X0151741Y0107366D01*
X0152350Y0105896D01*
X0152350Y0095394D01*
X0152573Y0095172D01*
X0153331Y0093341D01*
X0153331Y0091359D01*
X0152573Y0089528D01*
X0151951Y0088906D01*
X0152276Y0088581D01*
X0152591Y0088581D01*
X0154422Y0087823D01*
X0155823Y0086422D01*
X0156581Y0084591D01*
X0156581Y0082609D01*
X0155823Y0080778D01*
X0155451Y0080406D01*
X0155526Y0080331D01*
X0155841Y0080331D01*
X0157672Y0079573D01*
X0159073Y0078172D01*
X0159831Y0076341D01*
X0159831Y0074359D01*
X0159073Y0072528D01*
X0157672Y0071127D01*
X0155841Y0070369D01*
X0153859Y0070369D01*
X0152028Y0071127D01*
X0150627Y0072528D01*
X0149869Y0074359D01*
X0149869Y0074674D01*
X0137709Y0086834D01*
X0137100Y0088304D01*
X0137100Y0091600D01*
X0121507Y0091600D01*
X0112616Y0082709D01*
X0111146Y0082100D01*
X0100304Y0082100D01*
X0098834Y0082709D01*
X0097709Y0083834D01*
X0086943Y0094600D01*
X0089385Y0092158D02*
X0053044Y0092158D01*
X0053800Y0088960D02*
X0092583Y0088960D01*
X0095782Y0085761D02*
X0068159Y0085761D01*
X0068972Y0082563D02*
X0099187Y0082563D01*
X0112263Y0082563D02*
X0121538Y0082563D01*
X0121538Y0079364D02*
X0068972Y0079364D01*
X0067815Y0076166D02*
X0120128Y0076166D01*
X0126850Y0076100D02*
X0126850Y0080600D01*
X0127100Y0080850D01*
X0122761Y0085761D02*
X0115668Y0085761D01*
X0118867Y0088960D02*
X0137100Y0088960D01*
X0138782Y0085761D02*
X0131439Y0085761D01*
X0132662Y0082563D02*
X0141980Y0082563D01*
X0145179Y0079364D02*
X0132662Y0079364D01*
X0131666Y0076166D02*
X0148377Y0076166D01*
X0150445Y0072967D02*
X0130505Y0072967D01*
X0127307Y0069769D02*
X0166400Y0069769D01*
X0166400Y0072967D02*
X0159255Y0072967D01*
X0159831Y0076166D02*
X0168266Y0076166D01*
X0166400Y0079364D02*
X0157880Y0079364D01*
X0156562Y0082563D02*
X0166400Y0082563D01*
X0168993Y0085761D02*
X0156096Y0085761D01*
X0152004Y0088960D02*
X0181625Y0088960D01*
X0179120Y0092158D02*
X0153331Y0092158D01*
X0152387Y0095357D02*
X0172172Y0095357D01*
X0172349Y0095310D02*
X0173181Y0095200D01*
X0173600Y0095200D01*
X0173600Y0101600D01*
X0167200Y0101600D01*
X0167200Y0101181D01*
X0167310Y0100349D01*
X0167527Y0099538D01*
X0167848Y0098763D01*
X0168267Y0098037D01*
X0168778Y0097371D01*
X0169371Y0096778D01*
X0170037Y0096267D01*
X0170763Y0095848D01*
X0171538Y0095527D01*
X0172349Y0095310D01*
X0173600Y0095357D02*
X0173600Y0095357D01*
X0175028Y0095357D02*
X0178164Y0095357D01*
X0173600Y0098555D02*
X0173600Y0098555D01*
X0167968Y0098555D02*
X0152350Y0098555D01*
X0152350Y0101754D02*
X0167200Y0101754D01*
X0168145Y0104952D02*
X0152350Y0104952D01*
X0150956Y0108151D02*
X0167452Y0108151D01*
X0166600Y0111349D02*
X0147757Y0111349D01*
X0148316Y0114548D02*
X0152884Y0114548D01*
X0158316Y0114548D02*
X0167244Y0114548D01*
X0167619Y0117746D02*
X0161515Y0117746D01*
X0161800Y0120945D02*
X0166600Y0120945D01*
X0167077Y0124143D02*
X0160825Y0124143D01*
X0161110Y0127342D02*
X0167959Y0127342D01*
X0166600Y0130540D02*
X0161800Y0130540D01*
X0161229Y0133739D02*
X0166909Y0133739D01*
X0168363Y0136937D02*
X0160706Y0136937D01*
X0161800Y0140136D02*
X0166630Y0140136D01*
X0166742Y0143334D02*
X0161634Y0143334D01*
X0158435Y0146533D02*
X0168634Y0146533D01*
X0166797Y0149732D02*
X0130403Y0149732D01*
X0130600Y0152930D02*
X0166600Y0152930D01*
X0168229Y0156129D02*
X0128971Y0156129D01*
X0130235Y0159327D02*
X0167614Y0159327D01*
X0167267Y0162526D02*
X0130600Y0162526D01*
X0129375Y0165724D02*
X0168698Y0165724D01*
X0167132Y0168923D02*
X0130068Y0168923D01*
X0130600Y0172121D02*
X0166600Y0172121D01*
X0167564Y0175320D02*
X0129636Y0175320D01*
X0125190Y0178518D02*
X0167900Y0178518D01*
X0167900Y0181717D02*
X0126990Y0181717D01*
X0127300Y0184915D02*
X0127506Y0184915D01*
X0136639Y0184915D02*
X0137506Y0184915D01*
X0146639Y0184915D02*
X0148355Y0184915D01*
X0152072Y0184915D02*
X0152072Y0184915D01*
X0152072Y0188114D02*
X0152072Y0188114D01*
X0155790Y0184915D02*
X0157506Y0184915D01*
X0166639Y0184915D02*
X0167900Y0184915D01*
X0152765Y0146533D02*
X0148435Y0146533D01*
X0142765Y0146533D02*
X0128566Y0146533D01*
X0130458Y0143334D02*
X0139566Y0143334D01*
X0139400Y0140136D02*
X0130570Y0140136D01*
X0128837Y0136937D02*
X0140494Y0136937D01*
X0139971Y0133739D02*
X0130291Y0133739D01*
X0130600Y0130540D02*
X0139400Y0130540D01*
X0140090Y0127342D02*
X0129241Y0127342D01*
X0130123Y0124143D02*
X0140375Y0124143D01*
X0139400Y0120945D02*
X0130600Y0120945D01*
X0117959Y0127342D02*
X0102281Y0127342D01*
X0100686Y0130540D02*
X0116600Y0130540D01*
X0116909Y0133739D02*
X0099878Y0133739D01*
X0099483Y0136937D02*
X0118363Y0136937D01*
X0116630Y0140136D02*
X0111939Y0140136D01*
X0113656Y0143334D02*
X0116742Y0143334D01*
X0118634Y0146533D02*
X0113656Y0146533D01*
X0113153Y0149732D02*
X0116797Y0149732D01*
X0116600Y0152930D02*
X0111106Y0152930D01*
X0110020Y0154440D02*
X0110020Y0154440D01*
X0109232Y0155228D02*
X0109232Y0155228D01*
X0108445Y0156015D02*
X0108445Y0156015D01*
X0108331Y0156129D02*
X0118229Y0156129D01*
X0116965Y0159327D02*
X0104345Y0159327D01*
X0097070Y0162526D02*
X0116600Y0162526D01*
X0117825Y0165724D02*
X0111723Y0165724D01*
X0114984Y0168923D02*
X0117132Y0168923D01*
X0103498Y0178518D02*
X0063325Y0178518D01*
X0063325Y0178237D02*
X0062301Y0175766D01*
X0060409Y0173874D01*
X0057938Y0172850D01*
X0055262Y0172850D01*
X0052791Y0173874D01*
X0050899Y0175766D01*
X0049875Y0178237D01*
X0049875Y0187963D01*
X0050899Y0190434D01*
X0052791Y0192326D01*
X0055262Y0193350D01*
X0057938Y0193350D01*
X0060409Y0192326D01*
X0062301Y0190434D01*
X0063325Y0187963D01*
X0063325Y0178237D01*
X0063325Y0181717D02*
X0098711Y0181717D01*
X0097036Y0184915D02*
X0063325Y0184915D01*
X0063262Y0188114D02*
X0096668Y0188114D01*
X0097384Y0191312D02*
X0061423Y0191312D01*
X0051777Y0191312D02*
X0040569Y0191312D01*
X0040590Y0191297D02*
X0039810Y0191864D01*
X0038951Y0192301D01*
X0038034Y0192599D01*
X0037082Y0192750D01*
X0036600Y0192750D01*
X0036600Y0183100D01*
X0036600Y0183100D01*
X0042725Y0183100D01*
X0042725Y0187107D01*
X0042574Y0188059D01*
X0042276Y0188976D01*
X0041839Y0189835D01*
X0041272Y0190615D01*
X0040590Y0191297D01*
X0042557Y0188114D02*
X0049938Y0188114D01*
X0049875Y0184915D02*
X0042725Y0184915D01*
X0042725Y0183100D02*
X0036600Y0183100D01*
X0036600Y0183100D01*
X0036600Y0183100D01*
X0030475Y0183100D01*
X0030475Y0187107D01*
X0030626Y0188059D01*
X0030924Y0188976D01*
X0031361Y0189835D01*
X0031928Y0190615D01*
X0032610Y0191297D01*
X0033390Y0191864D01*
X0034249Y0192301D01*
X0035166Y0192599D01*
X0036118Y0192750D01*
X0036600Y0192750D01*
X0036600Y0183100D01*
X0036600Y0173450D01*
X0037082Y0173450D01*
X0038034Y0173601D01*
X0038951Y0173899D01*
X0039810Y0174336D01*
X0040590Y0174903D01*
X0041272Y0175585D01*
X0041839Y0176365D01*
X0042276Y0177224D01*
X0042574Y0178141D01*
X0042725Y0179093D01*
X0042725Y0183100D01*
X0042725Y0181717D02*
X0049875Y0181717D01*
X0049875Y0178518D02*
X0042634Y0178518D01*
X0041007Y0175320D02*
X0051345Y0175320D01*
X0061855Y0175320D02*
X0094070Y0175320D01*
X0093038Y0172121D02*
X0005800Y0172121D01*
X0005800Y0175320D02*
X0032193Y0175320D01*
X0031928Y0175585D02*
X0032610Y0174903D01*
X0033390Y0174336D01*
X0034249Y0173899D01*
X0035166Y0173601D01*
X0036118Y0173450D01*
X0036600Y0173450D01*
X0036600Y0183100D01*
X0036600Y0183100D01*
X0030475Y0183100D01*
X0030475Y0179093D01*
X0030626Y0178141D01*
X0030924Y0177224D01*
X0031361Y0176365D01*
X0031928Y0175585D01*
X0030566Y0178518D02*
X0017213Y0178518D01*
X0021922Y0181717D02*
X0030475Y0181717D01*
X0030475Y0184915D02*
X0023564Y0184915D01*
X0023910Y0188114D02*
X0030643Y0188114D01*
X0032631Y0191312D02*
X0023172Y0191312D01*
X0020974Y0194511D02*
X0099549Y0194511D01*
X0093038Y0168923D02*
X0005800Y0168923D01*
X0005800Y0165724D02*
X0094226Y0165724D01*
X0084472Y0162526D02*
X0005800Y0162526D01*
X0005800Y0159327D02*
X0008615Y0159327D01*
X0005977Y0156129D02*
X0005800Y0156129D01*
X0005800Y0149732D02*
X0007523Y0149732D01*
X0005800Y0146533D02*
X0021400Y0146533D01*
X0022035Y0143334D02*
X0005800Y0143334D01*
X0005800Y0140136D02*
X0025797Y0140136D01*
X0029252Y0136937D02*
X0005800Y0136937D01*
X0005800Y0133739D02*
X0030971Y0133739D01*
X0020884Y0130540D02*
X0005800Y0130540D01*
X0005800Y0127342D02*
X0007358Y0127342D01*
X0015842Y0127342D02*
X0017992Y0127342D01*
X0017523Y0149732D02*
X0015677Y0149732D01*
X0014585Y0159327D02*
X0018615Y0159327D01*
X0024585Y0159327D02*
X0049962Y0159327D01*
X0048228Y0156129D02*
X0027223Y0156129D01*
X0036600Y0175320D02*
X0036600Y0175320D01*
X0036600Y0178518D02*
X0036600Y0178518D01*
X0036600Y0181717D02*
X0036600Y0181717D01*
X0036600Y0184915D02*
X0036600Y0184915D01*
X0036600Y0188114D02*
X0036600Y0188114D01*
X0036600Y0191312D02*
X0036600Y0191312D01*
X0011609Y0178518D02*
X0005800Y0178518D01*
X0005800Y0181717D02*
X0006900Y0181717D01*
X0052476Y0143334D02*
X0073492Y0143334D01*
X0071036Y0146533D02*
X0053200Y0146533D01*
X0053600Y0149732D02*
X0053600Y0149732D01*
X0053600Y0152930D02*
X0053600Y0152930D01*
X0053600Y0156129D02*
X0053600Y0156129D01*
X0053600Y0159327D02*
X0053600Y0159327D01*
X0057238Y0159327D02*
X0059962Y0159327D01*
X0063600Y0159327D02*
X0063600Y0159327D01*
X0063600Y0156129D02*
X0063600Y0156129D01*
X0063600Y0152930D02*
X0063600Y0152930D01*
X0063600Y0149732D02*
X0063600Y0149732D01*
X0068432Y0149732D02*
X0071036Y0149732D01*
X0071588Y0152930D02*
X0068972Y0152930D01*
X0068972Y0156129D02*
X0073999Y0156129D01*
X0077267Y0159327D02*
X0067238Y0159327D01*
X0058768Y0149732D02*
X0058432Y0149732D01*
X0102197Y0120945D02*
X0116600Y0120945D01*
X0117077Y0124143D02*
X0103420Y0124143D01*
X0080100Y0090100D02*
X0080100Y0086850D01*
X0079350Y0086100D01*
X0063600Y0085761D02*
X0063600Y0085761D01*
X0063600Y0082563D02*
X0063600Y0082563D01*
X0063600Y0079364D02*
X0063600Y0079364D01*
X0063600Y0076166D02*
X0063600Y0076166D01*
X0059385Y0076166D02*
X0057815Y0076166D01*
X0053600Y0076166D02*
X0053600Y0076166D01*
X0053600Y0079364D02*
X0053600Y0079364D01*
X0053600Y0082563D02*
X0053600Y0082563D01*
X0053600Y0085761D02*
X0053600Y0085761D01*
X0058159Y0085761D02*
X0059041Y0085761D01*
X0049385Y0076166D02*
X0048822Y0076166D01*
X0048228Y0079364D02*
X0045624Y0079364D01*
X0048228Y0082563D02*
X0042425Y0082563D01*
X0042272Y0085761D02*
X0042096Y0085761D01*
X0037850Y0080350D02*
X0022350Y0080350D01*
X0021600Y0081100D01*
X0018089Y0076166D02*
X0015111Y0076166D01*
X0008089Y0076166D02*
X0005800Y0076166D01*
X0005800Y0072967D02*
X0038445Y0072967D01*
X0041643Y0069769D02*
X0005800Y0069769D01*
X0005800Y0066570D02*
X0044842Y0066570D01*
X0049600Y0068600D02*
X0119350Y0068600D01*
X0126850Y0076100D01*
X0124108Y0066570D02*
X0167862Y0066570D01*
X0175766Y0060173D02*
X0005800Y0060173D01*
X0005800Y0056975D02*
X0110680Y0056975D01*
X0106982Y0053776D02*
X0005800Y0053776D01*
X0005800Y0050578D02*
X0105119Y0050578D01*
X0105732Y0047379D02*
X0005800Y0047379D01*
X0005800Y0044181D02*
X0061524Y0044181D01*
X0056938Y0040982D02*
X0005800Y0040982D01*
X0005800Y0037784D02*
X0055619Y0037784D01*
X0056200Y0034585D02*
X0005800Y0034585D01*
X0005800Y0031387D02*
X0042194Y0031387D01*
X0039100Y0028188D02*
X0005800Y0028188D01*
X0005800Y0024990D02*
X0039100Y0024990D01*
X0040217Y0021791D02*
X0020465Y0021791D01*
X0022961Y0018593D02*
X0039100Y0018593D01*
X0039100Y0015394D02*
X0023910Y0015394D01*
X0023775Y0012196D02*
X0039100Y0012196D01*
X0022431Y0008997D02*
X0179619Y0008997D01*
X0178275Y0012196D02*
X0071388Y0012196D01*
X0072100Y0015394D02*
X0142288Y0015394D01*
X0140900Y0016782D02*
X0144532Y0013150D01*
X0149668Y0013150D01*
X0153300Y0016782D01*
X0153300Y0021918D01*
X0149668Y0025550D01*
X0144532Y0025550D01*
X0140900Y0021918D01*
X0140900Y0016782D01*
X0140900Y0018593D02*
X0071800Y0018593D01*
X0070135Y0021791D02*
X0140900Y0021791D01*
X0143971Y0024990D02*
X0071500Y0024990D01*
X0071356Y0028188D02*
X0183638Y0028188D01*
X0183150Y0031387D02*
X0150931Y0031387D01*
X0152831Y0034585D02*
X0184567Y0034585D01*
X0183806Y0037784D02*
X0152233Y0037784D01*
X0148255Y0040982D02*
X0183150Y0040982D01*
X0184163Y0044181D02*
X0145690Y0044181D01*
X0150229Y0024990D02*
X0186693Y0024990D01*
X0181585Y0021791D02*
X0153300Y0021791D01*
X0153300Y0018593D02*
X0179090Y0018593D01*
X0178140Y0015394D02*
X0151912Y0015394D01*
X0180218Y0047379D02*
X0184768Y0047379D01*
X0183750Y0050578D02*
X0180831Y0050578D01*
X0180683Y0053776D02*
X0184736Y0053776D01*
X0184207Y0056975D02*
X0183882Y0056975D01*
X0178965Y0063372D02*
X0005800Y0063372D01*
X0005800Y0079364D02*
X0005855Y0079364D01*
X0037850Y0080350D02*
X0049600Y0068600D01*
X0066440Y0037784D02*
X0081150Y0037784D01*
X0083380Y0034585D02*
X0065000Y0034585D01*
X0065600Y0031387D02*
X0065600Y0031387D01*
X0068157Y0031387D02*
X0088716Y0031387D01*
X0065600Y0028188D02*
X0065600Y0028188D01*
X0052194Y0031387D02*
X0049006Y0031387D01*
X0008357Y0021791D02*
X0005800Y0021791D01*
X0005800Y0018593D02*
X0005861Y0018593D01*
X0177338Y0066570D02*
X0178710Y0066570D01*
X0182600Y0070600D02*
X0182600Y0076200D01*
X0182600Y0080600D01*
X0182600Y0070600D01*
X0182600Y0070600D01*
X0182600Y0072967D02*
X0182600Y0072967D01*
X0182600Y0076166D02*
X0182600Y0076166D01*
X0182600Y0079364D02*
X0182600Y0079364D01*
X0182600Y0080600D02*
X0182600Y0080600D01*
X0182600Y0082563D02*
X0182600Y0082563D01*
X0182600Y0085761D02*
X0182600Y0085761D01*
X0185358Y0085761D02*
X0188993Y0085761D01*
X0193701Y0088960D02*
X0196250Y0088960D01*
X0196206Y0092158D02*
X0196250Y0092158D01*
X0196207Y0085761D02*
X0196250Y0085761D01*
X0179842Y0085761D02*
X0176207Y0085761D01*
X0193693Y0021791D02*
X0196250Y0021791D01*
X0196189Y0018593D02*
X0196250Y0018593D01*
D50*
X0127100Y0080850D03*
X0098600Y0170600D03*
D51*
X0148350Y0092350D03*
X0151600Y0083600D03*
X0154850Y0075350D03*
X0143350Y0079850D03*
X0121100Y0080350D03*
X0097600Y0056100D03*
X0110100Y0049850D03*
X0114600Y0053850D03*
X0090600Y0039600D03*
X0086100Y0038850D03*
X0060600Y0037600D03*
X0123100Y0020350D03*
X0143850Y0038600D03*
X0147850Y0035350D03*
X0140850Y0042850D03*
X0175850Y0049850D03*
D52*
X0080100Y0090100D03*
X0080100Y0119850D03*
D53*
X0098600Y0170600D02*
X0108600Y0170600D01*
X0121600Y0183600D01*
X0121600Y0190600D01*
X0126600Y0195600D01*
X0169600Y0195600D01*
X0173600Y0191600D01*
X0173600Y0171600D01*
D54*
X0136850Y0116600D02*
X0117350Y0116600D01*
X0119600Y0106600D02*
X0137100Y0106600D01*
M02*
