G75*
%MOIN*%
%OFA0B0*%
%FSLAX25Y25*%
%IPPOS*%
%LPD*%
%AMOC8*
5,1,8,0,0,1.08239X$1,22.5*
%
%ADD10C,0.00000*%
%ADD11R,0.05118X0.05906*%
%ADD12R,0.11811X0.05512*%
%ADD13R,0.05512X0.11811*%
%ADD14R,0.05000X0.05787*%
%ADD15C,0.06000*%
%ADD16R,0.09000X0.11000*%
%ADD17R,0.06600X0.06600*%
%ADD18OC8,0.06600*%
%ADD19OC8,0.06000*%
%ADD20R,0.04724X0.04724*%
%ADD21C,0.07050*%
%ADD22R,0.05118X0.06299*%
%ADD23R,0.06299X0.05118*%
%ADD24R,0.03000X0.06000*%
%ADD25R,0.06000X0.03000*%
%ADD26C,0.06000*%
%ADD27C,0.13000*%
%ADD28C,0.07600*%
%ADD29R,0.05906X0.00394*%
%ADD30R,0.07087X0.00394*%
%ADD31R,0.06693X0.00394*%
%ADD32R,0.06299X0.00394*%
%ADD33R,0.05512X0.00394*%
%ADD34R,0.05118X0.00394*%
%ADD35R,0.04331X0.00394*%
%ADD36R,0.01575X0.00394*%
%ADD37R,0.08661X0.00394*%
%ADD38R,0.12992X0.00394*%
%ADD39R,0.14961X0.00394*%
%ADD40R,0.01181X0.00394*%
%ADD41R,0.13780X0.00394*%
%ADD42R,0.14173X0.00394*%
%ADD43R,0.14567X0.00394*%
%ADD44R,0.13386X0.00394*%
%ADD45R,0.12205X0.00394*%
%ADD46R,0.11417X0.00394*%
%ADD47R,0.10630X0.00394*%
%ADD48R,0.09843X0.00394*%
%ADD49R,0.09055X0.00394*%
%ADD50R,0.01969X0.00394*%
%ADD51R,0.07480X0.00394*%
%ADD52R,0.04724X0.00394*%
%ADD53R,0.05543X0.05543*%
%ADD54C,0.05543*%
%ADD55C,0.05937*%
%ADD56R,0.02200X0.05000*%
%ADD57R,0.05000X0.02200*%
%ADD58R,0.02756X0.07874*%
%ADD59C,0.01600*%
%ADD60C,0.02400*%
%ADD61R,0.03562X0.03562*%
%ADD62C,0.03200*%
%ADD63C,0.05000*%
%ADD64C,0.03562*%
%ADD65C,0.05315*%
%ADD66C,0.01200*%
D10*
X0002600Y0002600D02*
X0002600Y0199450D01*
X0199450Y0199450D01*
X0199450Y0002600D01*
X0002600Y0002600D01*
X0008112Y0014411D02*
X0008114Y0014569D01*
X0008120Y0014727D01*
X0008130Y0014885D01*
X0008144Y0015043D01*
X0008162Y0015200D01*
X0008183Y0015357D01*
X0008209Y0015513D01*
X0008239Y0015669D01*
X0008272Y0015824D01*
X0008310Y0015977D01*
X0008351Y0016130D01*
X0008396Y0016282D01*
X0008445Y0016433D01*
X0008498Y0016582D01*
X0008554Y0016730D01*
X0008614Y0016876D01*
X0008678Y0017021D01*
X0008746Y0017164D01*
X0008817Y0017306D01*
X0008891Y0017446D01*
X0008969Y0017583D01*
X0009051Y0017719D01*
X0009135Y0017853D01*
X0009224Y0017984D01*
X0009315Y0018113D01*
X0009410Y0018240D01*
X0009507Y0018365D01*
X0009608Y0018487D01*
X0009712Y0018606D01*
X0009819Y0018723D01*
X0009929Y0018837D01*
X0010042Y0018948D01*
X0010157Y0019057D01*
X0010275Y0019162D01*
X0010396Y0019264D01*
X0010519Y0019364D01*
X0010645Y0019460D01*
X0010773Y0019553D01*
X0010903Y0019643D01*
X0011036Y0019729D01*
X0011171Y0019813D01*
X0011307Y0019892D01*
X0011446Y0019969D01*
X0011587Y0020041D01*
X0011729Y0020111D01*
X0011873Y0020176D01*
X0012019Y0020238D01*
X0012166Y0020296D01*
X0012315Y0020351D01*
X0012465Y0020402D01*
X0012616Y0020449D01*
X0012768Y0020492D01*
X0012921Y0020531D01*
X0013076Y0020567D01*
X0013231Y0020598D01*
X0013387Y0020626D01*
X0013543Y0020650D01*
X0013700Y0020670D01*
X0013858Y0020686D01*
X0014015Y0020698D01*
X0014174Y0020706D01*
X0014332Y0020710D01*
X0014490Y0020710D01*
X0014648Y0020706D01*
X0014807Y0020698D01*
X0014964Y0020686D01*
X0015122Y0020670D01*
X0015279Y0020650D01*
X0015435Y0020626D01*
X0015591Y0020598D01*
X0015746Y0020567D01*
X0015901Y0020531D01*
X0016054Y0020492D01*
X0016206Y0020449D01*
X0016357Y0020402D01*
X0016507Y0020351D01*
X0016656Y0020296D01*
X0016803Y0020238D01*
X0016949Y0020176D01*
X0017093Y0020111D01*
X0017235Y0020041D01*
X0017376Y0019969D01*
X0017515Y0019892D01*
X0017651Y0019813D01*
X0017786Y0019729D01*
X0017919Y0019643D01*
X0018049Y0019553D01*
X0018177Y0019460D01*
X0018303Y0019364D01*
X0018426Y0019264D01*
X0018547Y0019162D01*
X0018665Y0019057D01*
X0018780Y0018948D01*
X0018893Y0018837D01*
X0019003Y0018723D01*
X0019110Y0018606D01*
X0019214Y0018487D01*
X0019315Y0018365D01*
X0019412Y0018240D01*
X0019507Y0018113D01*
X0019598Y0017984D01*
X0019687Y0017853D01*
X0019771Y0017719D01*
X0019853Y0017583D01*
X0019931Y0017446D01*
X0020005Y0017306D01*
X0020076Y0017164D01*
X0020144Y0017021D01*
X0020208Y0016876D01*
X0020268Y0016730D01*
X0020324Y0016582D01*
X0020377Y0016433D01*
X0020426Y0016282D01*
X0020471Y0016130D01*
X0020512Y0015977D01*
X0020550Y0015824D01*
X0020583Y0015669D01*
X0020613Y0015513D01*
X0020639Y0015357D01*
X0020660Y0015200D01*
X0020678Y0015043D01*
X0020692Y0014885D01*
X0020702Y0014727D01*
X0020708Y0014569D01*
X0020710Y0014411D01*
X0020708Y0014253D01*
X0020702Y0014095D01*
X0020692Y0013937D01*
X0020678Y0013779D01*
X0020660Y0013622D01*
X0020639Y0013465D01*
X0020613Y0013309D01*
X0020583Y0013153D01*
X0020550Y0012998D01*
X0020512Y0012845D01*
X0020471Y0012692D01*
X0020426Y0012540D01*
X0020377Y0012389D01*
X0020324Y0012240D01*
X0020268Y0012092D01*
X0020208Y0011946D01*
X0020144Y0011801D01*
X0020076Y0011658D01*
X0020005Y0011516D01*
X0019931Y0011376D01*
X0019853Y0011239D01*
X0019771Y0011103D01*
X0019687Y0010969D01*
X0019598Y0010838D01*
X0019507Y0010709D01*
X0019412Y0010582D01*
X0019315Y0010457D01*
X0019214Y0010335D01*
X0019110Y0010216D01*
X0019003Y0010099D01*
X0018893Y0009985D01*
X0018780Y0009874D01*
X0018665Y0009765D01*
X0018547Y0009660D01*
X0018426Y0009558D01*
X0018303Y0009458D01*
X0018177Y0009362D01*
X0018049Y0009269D01*
X0017919Y0009179D01*
X0017786Y0009093D01*
X0017651Y0009009D01*
X0017515Y0008930D01*
X0017376Y0008853D01*
X0017235Y0008781D01*
X0017093Y0008711D01*
X0016949Y0008646D01*
X0016803Y0008584D01*
X0016656Y0008526D01*
X0016507Y0008471D01*
X0016357Y0008420D01*
X0016206Y0008373D01*
X0016054Y0008330D01*
X0015901Y0008291D01*
X0015746Y0008255D01*
X0015591Y0008224D01*
X0015435Y0008196D01*
X0015279Y0008172D01*
X0015122Y0008152D01*
X0014964Y0008136D01*
X0014807Y0008124D01*
X0014648Y0008116D01*
X0014490Y0008112D01*
X0014332Y0008112D01*
X0014174Y0008116D01*
X0014015Y0008124D01*
X0013858Y0008136D01*
X0013700Y0008152D01*
X0013543Y0008172D01*
X0013387Y0008196D01*
X0013231Y0008224D01*
X0013076Y0008255D01*
X0012921Y0008291D01*
X0012768Y0008330D01*
X0012616Y0008373D01*
X0012465Y0008420D01*
X0012315Y0008471D01*
X0012166Y0008526D01*
X0012019Y0008584D01*
X0011873Y0008646D01*
X0011729Y0008711D01*
X0011587Y0008781D01*
X0011446Y0008853D01*
X0011307Y0008930D01*
X0011171Y0009009D01*
X0011036Y0009093D01*
X0010903Y0009179D01*
X0010773Y0009269D01*
X0010645Y0009362D01*
X0010519Y0009458D01*
X0010396Y0009558D01*
X0010275Y0009660D01*
X0010157Y0009765D01*
X0010042Y0009874D01*
X0009929Y0009985D01*
X0009819Y0010099D01*
X0009712Y0010216D01*
X0009608Y0010335D01*
X0009507Y0010457D01*
X0009410Y0010582D01*
X0009315Y0010709D01*
X0009224Y0010838D01*
X0009135Y0010969D01*
X0009051Y0011103D01*
X0008969Y0011239D01*
X0008891Y0011376D01*
X0008817Y0011516D01*
X0008746Y0011658D01*
X0008678Y0011801D01*
X0008614Y0011946D01*
X0008554Y0012092D01*
X0008498Y0012240D01*
X0008445Y0012389D01*
X0008396Y0012540D01*
X0008351Y0012692D01*
X0008310Y0012845D01*
X0008272Y0012998D01*
X0008239Y0013153D01*
X0008209Y0013309D01*
X0008183Y0013465D01*
X0008162Y0013622D01*
X0008144Y0013779D01*
X0008130Y0013937D01*
X0008120Y0014095D01*
X0008114Y0014253D01*
X0008112Y0014411D01*
X0099868Y0096356D02*
X0099870Y0096514D01*
X0099876Y0096672D01*
X0099886Y0096830D01*
X0099900Y0096988D01*
X0099918Y0097145D01*
X0099939Y0097302D01*
X0099965Y0097458D01*
X0099995Y0097614D01*
X0100028Y0097769D01*
X0100066Y0097922D01*
X0100107Y0098075D01*
X0100152Y0098227D01*
X0100201Y0098378D01*
X0100254Y0098527D01*
X0100310Y0098675D01*
X0100370Y0098821D01*
X0100434Y0098966D01*
X0100502Y0099109D01*
X0100573Y0099251D01*
X0100647Y0099391D01*
X0100725Y0099528D01*
X0100807Y0099664D01*
X0100891Y0099798D01*
X0100980Y0099929D01*
X0101071Y0100058D01*
X0101166Y0100185D01*
X0101263Y0100310D01*
X0101364Y0100432D01*
X0101468Y0100551D01*
X0101575Y0100668D01*
X0101685Y0100782D01*
X0101798Y0100893D01*
X0101913Y0101002D01*
X0102031Y0101107D01*
X0102152Y0101209D01*
X0102275Y0101309D01*
X0102401Y0101405D01*
X0102529Y0101498D01*
X0102659Y0101588D01*
X0102792Y0101674D01*
X0102927Y0101758D01*
X0103063Y0101837D01*
X0103202Y0101914D01*
X0103343Y0101986D01*
X0103485Y0102056D01*
X0103629Y0102121D01*
X0103775Y0102183D01*
X0103922Y0102241D01*
X0104071Y0102296D01*
X0104221Y0102347D01*
X0104372Y0102394D01*
X0104524Y0102437D01*
X0104677Y0102476D01*
X0104832Y0102512D01*
X0104987Y0102543D01*
X0105143Y0102571D01*
X0105299Y0102595D01*
X0105456Y0102615D01*
X0105614Y0102631D01*
X0105771Y0102643D01*
X0105930Y0102651D01*
X0106088Y0102655D01*
X0106246Y0102655D01*
X0106404Y0102651D01*
X0106563Y0102643D01*
X0106720Y0102631D01*
X0106878Y0102615D01*
X0107035Y0102595D01*
X0107191Y0102571D01*
X0107347Y0102543D01*
X0107502Y0102512D01*
X0107657Y0102476D01*
X0107810Y0102437D01*
X0107962Y0102394D01*
X0108113Y0102347D01*
X0108263Y0102296D01*
X0108412Y0102241D01*
X0108559Y0102183D01*
X0108705Y0102121D01*
X0108849Y0102056D01*
X0108991Y0101986D01*
X0109132Y0101914D01*
X0109271Y0101837D01*
X0109407Y0101758D01*
X0109542Y0101674D01*
X0109675Y0101588D01*
X0109805Y0101498D01*
X0109933Y0101405D01*
X0110059Y0101309D01*
X0110182Y0101209D01*
X0110303Y0101107D01*
X0110421Y0101002D01*
X0110536Y0100893D01*
X0110649Y0100782D01*
X0110759Y0100668D01*
X0110866Y0100551D01*
X0110970Y0100432D01*
X0111071Y0100310D01*
X0111168Y0100185D01*
X0111263Y0100058D01*
X0111354Y0099929D01*
X0111443Y0099798D01*
X0111527Y0099664D01*
X0111609Y0099528D01*
X0111687Y0099391D01*
X0111761Y0099251D01*
X0111832Y0099109D01*
X0111900Y0098966D01*
X0111964Y0098821D01*
X0112024Y0098675D01*
X0112080Y0098527D01*
X0112133Y0098378D01*
X0112182Y0098227D01*
X0112227Y0098075D01*
X0112268Y0097922D01*
X0112306Y0097769D01*
X0112339Y0097614D01*
X0112369Y0097458D01*
X0112395Y0097302D01*
X0112416Y0097145D01*
X0112434Y0096988D01*
X0112448Y0096830D01*
X0112458Y0096672D01*
X0112464Y0096514D01*
X0112466Y0096356D01*
X0112464Y0096198D01*
X0112458Y0096040D01*
X0112448Y0095882D01*
X0112434Y0095724D01*
X0112416Y0095567D01*
X0112395Y0095410D01*
X0112369Y0095254D01*
X0112339Y0095098D01*
X0112306Y0094943D01*
X0112268Y0094790D01*
X0112227Y0094637D01*
X0112182Y0094485D01*
X0112133Y0094334D01*
X0112080Y0094185D01*
X0112024Y0094037D01*
X0111964Y0093891D01*
X0111900Y0093746D01*
X0111832Y0093603D01*
X0111761Y0093461D01*
X0111687Y0093321D01*
X0111609Y0093184D01*
X0111527Y0093048D01*
X0111443Y0092914D01*
X0111354Y0092783D01*
X0111263Y0092654D01*
X0111168Y0092527D01*
X0111071Y0092402D01*
X0110970Y0092280D01*
X0110866Y0092161D01*
X0110759Y0092044D01*
X0110649Y0091930D01*
X0110536Y0091819D01*
X0110421Y0091710D01*
X0110303Y0091605D01*
X0110182Y0091503D01*
X0110059Y0091403D01*
X0109933Y0091307D01*
X0109805Y0091214D01*
X0109675Y0091124D01*
X0109542Y0091038D01*
X0109407Y0090954D01*
X0109271Y0090875D01*
X0109132Y0090798D01*
X0108991Y0090726D01*
X0108849Y0090656D01*
X0108705Y0090591D01*
X0108559Y0090529D01*
X0108412Y0090471D01*
X0108263Y0090416D01*
X0108113Y0090365D01*
X0107962Y0090318D01*
X0107810Y0090275D01*
X0107657Y0090236D01*
X0107502Y0090200D01*
X0107347Y0090169D01*
X0107191Y0090141D01*
X0107035Y0090117D01*
X0106878Y0090097D01*
X0106720Y0090081D01*
X0106563Y0090069D01*
X0106404Y0090061D01*
X0106246Y0090057D01*
X0106088Y0090057D01*
X0105930Y0090061D01*
X0105771Y0090069D01*
X0105614Y0090081D01*
X0105456Y0090097D01*
X0105299Y0090117D01*
X0105143Y0090141D01*
X0104987Y0090169D01*
X0104832Y0090200D01*
X0104677Y0090236D01*
X0104524Y0090275D01*
X0104372Y0090318D01*
X0104221Y0090365D01*
X0104071Y0090416D01*
X0103922Y0090471D01*
X0103775Y0090529D01*
X0103629Y0090591D01*
X0103485Y0090656D01*
X0103343Y0090726D01*
X0103202Y0090798D01*
X0103063Y0090875D01*
X0102927Y0090954D01*
X0102792Y0091038D01*
X0102659Y0091124D01*
X0102529Y0091214D01*
X0102401Y0091307D01*
X0102275Y0091403D01*
X0102152Y0091503D01*
X0102031Y0091605D01*
X0101913Y0091710D01*
X0101798Y0091819D01*
X0101685Y0091930D01*
X0101575Y0092044D01*
X0101468Y0092161D01*
X0101364Y0092280D01*
X0101263Y0092402D01*
X0101166Y0092527D01*
X0101071Y0092654D01*
X0100980Y0092783D01*
X0100891Y0092914D01*
X0100807Y0093048D01*
X0100725Y0093184D01*
X0100647Y0093321D01*
X0100573Y0093461D01*
X0100502Y0093603D01*
X0100434Y0093746D01*
X0100370Y0093891D01*
X0100310Y0094037D01*
X0100254Y0094185D01*
X0100201Y0094334D01*
X0100152Y0094485D01*
X0100107Y0094637D01*
X0100066Y0094790D01*
X0100028Y0094943D01*
X0099995Y0095098D01*
X0099965Y0095254D01*
X0099939Y0095410D01*
X0099918Y0095567D01*
X0099900Y0095724D01*
X0099886Y0095882D01*
X0099876Y0096040D01*
X0099870Y0096198D01*
X0099868Y0096356D01*
X0181364Y0096356D02*
X0181366Y0096514D01*
X0181372Y0096672D01*
X0181382Y0096830D01*
X0181396Y0096988D01*
X0181414Y0097145D01*
X0181435Y0097302D01*
X0181461Y0097458D01*
X0181491Y0097614D01*
X0181524Y0097769D01*
X0181562Y0097922D01*
X0181603Y0098075D01*
X0181648Y0098227D01*
X0181697Y0098378D01*
X0181750Y0098527D01*
X0181806Y0098675D01*
X0181866Y0098821D01*
X0181930Y0098966D01*
X0181998Y0099109D01*
X0182069Y0099251D01*
X0182143Y0099391D01*
X0182221Y0099528D01*
X0182303Y0099664D01*
X0182387Y0099798D01*
X0182476Y0099929D01*
X0182567Y0100058D01*
X0182662Y0100185D01*
X0182759Y0100310D01*
X0182860Y0100432D01*
X0182964Y0100551D01*
X0183071Y0100668D01*
X0183181Y0100782D01*
X0183294Y0100893D01*
X0183409Y0101002D01*
X0183527Y0101107D01*
X0183648Y0101209D01*
X0183771Y0101309D01*
X0183897Y0101405D01*
X0184025Y0101498D01*
X0184155Y0101588D01*
X0184288Y0101674D01*
X0184423Y0101758D01*
X0184559Y0101837D01*
X0184698Y0101914D01*
X0184839Y0101986D01*
X0184981Y0102056D01*
X0185125Y0102121D01*
X0185271Y0102183D01*
X0185418Y0102241D01*
X0185567Y0102296D01*
X0185717Y0102347D01*
X0185868Y0102394D01*
X0186020Y0102437D01*
X0186173Y0102476D01*
X0186328Y0102512D01*
X0186483Y0102543D01*
X0186639Y0102571D01*
X0186795Y0102595D01*
X0186952Y0102615D01*
X0187110Y0102631D01*
X0187267Y0102643D01*
X0187426Y0102651D01*
X0187584Y0102655D01*
X0187742Y0102655D01*
X0187900Y0102651D01*
X0188059Y0102643D01*
X0188216Y0102631D01*
X0188374Y0102615D01*
X0188531Y0102595D01*
X0188687Y0102571D01*
X0188843Y0102543D01*
X0188998Y0102512D01*
X0189153Y0102476D01*
X0189306Y0102437D01*
X0189458Y0102394D01*
X0189609Y0102347D01*
X0189759Y0102296D01*
X0189908Y0102241D01*
X0190055Y0102183D01*
X0190201Y0102121D01*
X0190345Y0102056D01*
X0190487Y0101986D01*
X0190628Y0101914D01*
X0190767Y0101837D01*
X0190903Y0101758D01*
X0191038Y0101674D01*
X0191171Y0101588D01*
X0191301Y0101498D01*
X0191429Y0101405D01*
X0191555Y0101309D01*
X0191678Y0101209D01*
X0191799Y0101107D01*
X0191917Y0101002D01*
X0192032Y0100893D01*
X0192145Y0100782D01*
X0192255Y0100668D01*
X0192362Y0100551D01*
X0192466Y0100432D01*
X0192567Y0100310D01*
X0192664Y0100185D01*
X0192759Y0100058D01*
X0192850Y0099929D01*
X0192939Y0099798D01*
X0193023Y0099664D01*
X0193105Y0099528D01*
X0193183Y0099391D01*
X0193257Y0099251D01*
X0193328Y0099109D01*
X0193396Y0098966D01*
X0193460Y0098821D01*
X0193520Y0098675D01*
X0193576Y0098527D01*
X0193629Y0098378D01*
X0193678Y0098227D01*
X0193723Y0098075D01*
X0193764Y0097922D01*
X0193802Y0097769D01*
X0193835Y0097614D01*
X0193865Y0097458D01*
X0193891Y0097302D01*
X0193912Y0097145D01*
X0193930Y0096988D01*
X0193944Y0096830D01*
X0193954Y0096672D01*
X0193960Y0096514D01*
X0193962Y0096356D01*
X0193960Y0096198D01*
X0193954Y0096040D01*
X0193944Y0095882D01*
X0193930Y0095724D01*
X0193912Y0095567D01*
X0193891Y0095410D01*
X0193865Y0095254D01*
X0193835Y0095098D01*
X0193802Y0094943D01*
X0193764Y0094790D01*
X0193723Y0094637D01*
X0193678Y0094485D01*
X0193629Y0094334D01*
X0193576Y0094185D01*
X0193520Y0094037D01*
X0193460Y0093891D01*
X0193396Y0093746D01*
X0193328Y0093603D01*
X0193257Y0093461D01*
X0193183Y0093321D01*
X0193105Y0093184D01*
X0193023Y0093048D01*
X0192939Y0092914D01*
X0192850Y0092783D01*
X0192759Y0092654D01*
X0192664Y0092527D01*
X0192567Y0092402D01*
X0192466Y0092280D01*
X0192362Y0092161D01*
X0192255Y0092044D01*
X0192145Y0091930D01*
X0192032Y0091819D01*
X0191917Y0091710D01*
X0191799Y0091605D01*
X0191678Y0091503D01*
X0191555Y0091403D01*
X0191429Y0091307D01*
X0191301Y0091214D01*
X0191171Y0091124D01*
X0191038Y0091038D01*
X0190903Y0090954D01*
X0190767Y0090875D01*
X0190628Y0090798D01*
X0190487Y0090726D01*
X0190345Y0090656D01*
X0190201Y0090591D01*
X0190055Y0090529D01*
X0189908Y0090471D01*
X0189759Y0090416D01*
X0189609Y0090365D01*
X0189458Y0090318D01*
X0189306Y0090275D01*
X0189153Y0090236D01*
X0188998Y0090200D01*
X0188843Y0090169D01*
X0188687Y0090141D01*
X0188531Y0090117D01*
X0188374Y0090097D01*
X0188216Y0090081D01*
X0188059Y0090069D01*
X0187900Y0090061D01*
X0187742Y0090057D01*
X0187584Y0090057D01*
X0187426Y0090061D01*
X0187267Y0090069D01*
X0187110Y0090081D01*
X0186952Y0090097D01*
X0186795Y0090117D01*
X0186639Y0090141D01*
X0186483Y0090169D01*
X0186328Y0090200D01*
X0186173Y0090236D01*
X0186020Y0090275D01*
X0185868Y0090318D01*
X0185717Y0090365D01*
X0185567Y0090416D01*
X0185418Y0090471D01*
X0185271Y0090529D01*
X0185125Y0090591D01*
X0184981Y0090656D01*
X0184839Y0090726D01*
X0184698Y0090798D01*
X0184559Y0090875D01*
X0184423Y0090954D01*
X0184288Y0091038D01*
X0184155Y0091124D01*
X0184025Y0091214D01*
X0183897Y0091307D01*
X0183771Y0091403D01*
X0183648Y0091503D01*
X0183527Y0091605D01*
X0183409Y0091710D01*
X0183294Y0091819D01*
X0183181Y0091930D01*
X0183071Y0092044D01*
X0182964Y0092161D01*
X0182860Y0092280D01*
X0182759Y0092402D01*
X0182662Y0092527D01*
X0182567Y0092654D01*
X0182476Y0092783D01*
X0182387Y0092914D01*
X0182303Y0093048D01*
X0182221Y0093184D01*
X0182143Y0093321D01*
X0182069Y0093461D01*
X0181998Y0093603D01*
X0181930Y0093746D01*
X0181866Y0093891D01*
X0181806Y0094037D01*
X0181750Y0094185D01*
X0181697Y0094334D01*
X0181648Y0094485D01*
X0181603Y0094637D01*
X0181562Y0094790D01*
X0181524Y0094943D01*
X0181491Y0095098D01*
X0181461Y0095254D01*
X0181435Y0095410D01*
X0181414Y0095567D01*
X0181396Y0095724D01*
X0181382Y0095882D01*
X0181372Y0096040D01*
X0181366Y0096198D01*
X0181364Y0096356D01*
X0181340Y0014411D02*
X0181342Y0014569D01*
X0181348Y0014727D01*
X0181358Y0014885D01*
X0181372Y0015043D01*
X0181390Y0015200D01*
X0181411Y0015357D01*
X0181437Y0015513D01*
X0181467Y0015669D01*
X0181500Y0015824D01*
X0181538Y0015977D01*
X0181579Y0016130D01*
X0181624Y0016282D01*
X0181673Y0016433D01*
X0181726Y0016582D01*
X0181782Y0016730D01*
X0181842Y0016876D01*
X0181906Y0017021D01*
X0181974Y0017164D01*
X0182045Y0017306D01*
X0182119Y0017446D01*
X0182197Y0017583D01*
X0182279Y0017719D01*
X0182363Y0017853D01*
X0182452Y0017984D01*
X0182543Y0018113D01*
X0182638Y0018240D01*
X0182735Y0018365D01*
X0182836Y0018487D01*
X0182940Y0018606D01*
X0183047Y0018723D01*
X0183157Y0018837D01*
X0183270Y0018948D01*
X0183385Y0019057D01*
X0183503Y0019162D01*
X0183624Y0019264D01*
X0183747Y0019364D01*
X0183873Y0019460D01*
X0184001Y0019553D01*
X0184131Y0019643D01*
X0184264Y0019729D01*
X0184399Y0019813D01*
X0184535Y0019892D01*
X0184674Y0019969D01*
X0184815Y0020041D01*
X0184957Y0020111D01*
X0185101Y0020176D01*
X0185247Y0020238D01*
X0185394Y0020296D01*
X0185543Y0020351D01*
X0185693Y0020402D01*
X0185844Y0020449D01*
X0185996Y0020492D01*
X0186149Y0020531D01*
X0186304Y0020567D01*
X0186459Y0020598D01*
X0186615Y0020626D01*
X0186771Y0020650D01*
X0186928Y0020670D01*
X0187086Y0020686D01*
X0187243Y0020698D01*
X0187402Y0020706D01*
X0187560Y0020710D01*
X0187718Y0020710D01*
X0187876Y0020706D01*
X0188035Y0020698D01*
X0188192Y0020686D01*
X0188350Y0020670D01*
X0188507Y0020650D01*
X0188663Y0020626D01*
X0188819Y0020598D01*
X0188974Y0020567D01*
X0189129Y0020531D01*
X0189282Y0020492D01*
X0189434Y0020449D01*
X0189585Y0020402D01*
X0189735Y0020351D01*
X0189884Y0020296D01*
X0190031Y0020238D01*
X0190177Y0020176D01*
X0190321Y0020111D01*
X0190463Y0020041D01*
X0190604Y0019969D01*
X0190743Y0019892D01*
X0190879Y0019813D01*
X0191014Y0019729D01*
X0191147Y0019643D01*
X0191277Y0019553D01*
X0191405Y0019460D01*
X0191531Y0019364D01*
X0191654Y0019264D01*
X0191775Y0019162D01*
X0191893Y0019057D01*
X0192008Y0018948D01*
X0192121Y0018837D01*
X0192231Y0018723D01*
X0192338Y0018606D01*
X0192442Y0018487D01*
X0192543Y0018365D01*
X0192640Y0018240D01*
X0192735Y0018113D01*
X0192826Y0017984D01*
X0192915Y0017853D01*
X0192999Y0017719D01*
X0193081Y0017583D01*
X0193159Y0017446D01*
X0193233Y0017306D01*
X0193304Y0017164D01*
X0193372Y0017021D01*
X0193436Y0016876D01*
X0193496Y0016730D01*
X0193552Y0016582D01*
X0193605Y0016433D01*
X0193654Y0016282D01*
X0193699Y0016130D01*
X0193740Y0015977D01*
X0193778Y0015824D01*
X0193811Y0015669D01*
X0193841Y0015513D01*
X0193867Y0015357D01*
X0193888Y0015200D01*
X0193906Y0015043D01*
X0193920Y0014885D01*
X0193930Y0014727D01*
X0193936Y0014569D01*
X0193938Y0014411D01*
X0193936Y0014253D01*
X0193930Y0014095D01*
X0193920Y0013937D01*
X0193906Y0013779D01*
X0193888Y0013622D01*
X0193867Y0013465D01*
X0193841Y0013309D01*
X0193811Y0013153D01*
X0193778Y0012998D01*
X0193740Y0012845D01*
X0193699Y0012692D01*
X0193654Y0012540D01*
X0193605Y0012389D01*
X0193552Y0012240D01*
X0193496Y0012092D01*
X0193436Y0011946D01*
X0193372Y0011801D01*
X0193304Y0011658D01*
X0193233Y0011516D01*
X0193159Y0011376D01*
X0193081Y0011239D01*
X0192999Y0011103D01*
X0192915Y0010969D01*
X0192826Y0010838D01*
X0192735Y0010709D01*
X0192640Y0010582D01*
X0192543Y0010457D01*
X0192442Y0010335D01*
X0192338Y0010216D01*
X0192231Y0010099D01*
X0192121Y0009985D01*
X0192008Y0009874D01*
X0191893Y0009765D01*
X0191775Y0009660D01*
X0191654Y0009558D01*
X0191531Y0009458D01*
X0191405Y0009362D01*
X0191277Y0009269D01*
X0191147Y0009179D01*
X0191014Y0009093D01*
X0190879Y0009009D01*
X0190743Y0008930D01*
X0190604Y0008853D01*
X0190463Y0008781D01*
X0190321Y0008711D01*
X0190177Y0008646D01*
X0190031Y0008584D01*
X0189884Y0008526D01*
X0189735Y0008471D01*
X0189585Y0008420D01*
X0189434Y0008373D01*
X0189282Y0008330D01*
X0189129Y0008291D01*
X0188974Y0008255D01*
X0188819Y0008224D01*
X0188663Y0008196D01*
X0188507Y0008172D01*
X0188350Y0008152D01*
X0188192Y0008136D01*
X0188035Y0008124D01*
X0187876Y0008116D01*
X0187718Y0008112D01*
X0187560Y0008112D01*
X0187402Y0008116D01*
X0187243Y0008124D01*
X0187086Y0008136D01*
X0186928Y0008152D01*
X0186771Y0008172D01*
X0186615Y0008196D01*
X0186459Y0008224D01*
X0186304Y0008255D01*
X0186149Y0008291D01*
X0185996Y0008330D01*
X0185844Y0008373D01*
X0185693Y0008420D01*
X0185543Y0008471D01*
X0185394Y0008526D01*
X0185247Y0008584D01*
X0185101Y0008646D01*
X0184957Y0008711D01*
X0184815Y0008781D01*
X0184674Y0008853D01*
X0184535Y0008930D01*
X0184399Y0009009D01*
X0184264Y0009093D01*
X0184131Y0009179D01*
X0184001Y0009269D01*
X0183873Y0009362D01*
X0183747Y0009458D01*
X0183624Y0009558D01*
X0183503Y0009660D01*
X0183385Y0009765D01*
X0183270Y0009874D01*
X0183157Y0009985D01*
X0183047Y0010099D01*
X0182940Y0010216D01*
X0182836Y0010335D01*
X0182735Y0010457D01*
X0182638Y0010582D01*
X0182543Y0010709D01*
X0182452Y0010838D01*
X0182363Y0010969D01*
X0182279Y0011103D01*
X0182197Y0011239D01*
X0182119Y0011376D01*
X0182045Y0011516D01*
X0181974Y0011658D01*
X0181906Y0011801D01*
X0181842Y0011946D01*
X0181782Y0012092D01*
X0181726Y0012240D01*
X0181673Y0012389D01*
X0181624Y0012540D01*
X0181579Y0012692D01*
X0181538Y0012845D01*
X0181500Y0012998D01*
X0181467Y0013153D01*
X0181437Y0013309D01*
X0181411Y0013465D01*
X0181390Y0013622D01*
X0181372Y0013779D01*
X0181358Y0013937D01*
X0181348Y0014095D01*
X0181342Y0014253D01*
X0181340Y0014411D01*
X0181364Y0187694D02*
X0181366Y0187852D01*
X0181372Y0188010D01*
X0181382Y0188168D01*
X0181396Y0188326D01*
X0181414Y0188483D01*
X0181435Y0188640D01*
X0181461Y0188796D01*
X0181491Y0188952D01*
X0181524Y0189107D01*
X0181562Y0189260D01*
X0181603Y0189413D01*
X0181648Y0189565D01*
X0181697Y0189716D01*
X0181750Y0189865D01*
X0181806Y0190013D01*
X0181866Y0190159D01*
X0181930Y0190304D01*
X0181998Y0190447D01*
X0182069Y0190589D01*
X0182143Y0190729D01*
X0182221Y0190866D01*
X0182303Y0191002D01*
X0182387Y0191136D01*
X0182476Y0191267D01*
X0182567Y0191396D01*
X0182662Y0191523D01*
X0182759Y0191648D01*
X0182860Y0191770D01*
X0182964Y0191889D01*
X0183071Y0192006D01*
X0183181Y0192120D01*
X0183294Y0192231D01*
X0183409Y0192340D01*
X0183527Y0192445D01*
X0183648Y0192547D01*
X0183771Y0192647D01*
X0183897Y0192743D01*
X0184025Y0192836D01*
X0184155Y0192926D01*
X0184288Y0193012D01*
X0184423Y0193096D01*
X0184559Y0193175D01*
X0184698Y0193252D01*
X0184839Y0193324D01*
X0184981Y0193394D01*
X0185125Y0193459D01*
X0185271Y0193521D01*
X0185418Y0193579D01*
X0185567Y0193634D01*
X0185717Y0193685D01*
X0185868Y0193732D01*
X0186020Y0193775D01*
X0186173Y0193814D01*
X0186328Y0193850D01*
X0186483Y0193881D01*
X0186639Y0193909D01*
X0186795Y0193933D01*
X0186952Y0193953D01*
X0187110Y0193969D01*
X0187267Y0193981D01*
X0187426Y0193989D01*
X0187584Y0193993D01*
X0187742Y0193993D01*
X0187900Y0193989D01*
X0188059Y0193981D01*
X0188216Y0193969D01*
X0188374Y0193953D01*
X0188531Y0193933D01*
X0188687Y0193909D01*
X0188843Y0193881D01*
X0188998Y0193850D01*
X0189153Y0193814D01*
X0189306Y0193775D01*
X0189458Y0193732D01*
X0189609Y0193685D01*
X0189759Y0193634D01*
X0189908Y0193579D01*
X0190055Y0193521D01*
X0190201Y0193459D01*
X0190345Y0193394D01*
X0190487Y0193324D01*
X0190628Y0193252D01*
X0190767Y0193175D01*
X0190903Y0193096D01*
X0191038Y0193012D01*
X0191171Y0192926D01*
X0191301Y0192836D01*
X0191429Y0192743D01*
X0191555Y0192647D01*
X0191678Y0192547D01*
X0191799Y0192445D01*
X0191917Y0192340D01*
X0192032Y0192231D01*
X0192145Y0192120D01*
X0192255Y0192006D01*
X0192362Y0191889D01*
X0192466Y0191770D01*
X0192567Y0191648D01*
X0192664Y0191523D01*
X0192759Y0191396D01*
X0192850Y0191267D01*
X0192939Y0191136D01*
X0193023Y0191002D01*
X0193105Y0190866D01*
X0193183Y0190729D01*
X0193257Y0190589D01*
X0193328Y0190447D01*
X0193396Y0190304D01*
X0193460Y0190159D01*
X0193520Y0190013D01*
X0193576Y0189865D01*
X0193629Y0189716D01*
X0193678Y0189565D01*
X0193723Y0189413D01*
X0193764Y0189260D01*
X0193802Y0189107D01*
X0193835Y0188952D01*
X0193865Y0188796D01*
X0193891Y0188640D01*
X0193912Y0188483D01*
X0193930Y0188326D01*
X0193944Y0188168D01*
X0193954Y0188010D01*
X0193960Y0187852D01*
X0193962Y0187694D01*
X0193960Y0187536D01*
X0193954Y0187378D01*
X0193944Y0187220D01*
X0193930Y0187062D01*
X0193912Y0186905D01*
X0193891Y0186748D01*
X0193865Y0186592D01*
X0193835Y0186436D01*
X0193802Y0186281D01*
X0193764Y0186128D01*
X0193723Y0185975D01*
X0193678Y0185823D01*
X0193629Y0185672D01*
X0193576Y0185523D01*
X0193520Y0185375D01*
X0193460Y0185229D01*
X0193396Y0185084D01*
X0193328Y0184941D01*
X0193257Y0184799D01*
X0193183Y0184659D01*
X0193105Y0184522D01*
X0193023Y0184386D01*
X0192939Y0184252D01*
X0192850Y0184121D01*
X0192759Y0183992D01*
X0192664Y0183865D01*
X0192567Y0183740D01*
X0192466Y0183618D01*
X0192362Y0183499D01*
X0192255Y0183382D01*
X0192145Y0183268D01*
X0192032Y0183157D01*
X0191917Y0183048D01*
X0191799Y0182943D01*
X0191678Y0182841D01*
X0191555Y0182741D01*
X0191429Y0182645D01*
X0191301Y0182552D01*
X0191171Y0182462D01*
X0191038Y0182376D01*
X0190903Y0182292D01*
X0190767Y0182213D01*
X0190628Y0182136D01*
X0190487Y0182064D01*
X0190345Y0181994D01*
X0190201Y0181929D01*
X0190055Y0181867D01*
X0189908Y0181809D01*
X0189759Y0181754D01*
X0189609Y0181703D01*
X0189458Y0181656D01*
X0189306Y0181613D01*
X0189153Y0181574D01*
X0188998Y0181538D01*
X0188843Y0181507D01*
X0188687Y0181479D01*
X0188531Y0181455D01*
X0188374Y0181435D01*
X0188216Y0181419D01*
X0188059Y0181407D01*
X0187900Y0181399D01*
X0187742Y0181395D01*
X0187584Y0181395D01*
X0187426Y0181399D01*
X0187267Y0181407D01*
X0187110Y0181419D01*
X0186952Y0181435D01*
X0186795Y0181455D01*
X0186639Y0181479D01*
X0186483Y0181507D01*
X0186328Y0181538D01*
X0186173Y0181574D01*
X0186020Y0181613D01*
X0185868Y0181656D01*
X0185717Y0181703D01*
X0185567Y0181754D01*
X0185418Y0181809D01*
X0185271Y0181867D01*
X0185125Y0181929D01*
X0184981Y0181994D01*
X0184839Y0182064D01*
X0184698Y0182136D01*
X0184559Y0182213D01*
X0184423Y0182292D01*
X0184288Y0182376D01*
X0184155Y0182462D01*
X0184025Y0182552D01*
X0183897Y0182645D01*
X0183771Y0182741D01*
X0183648Y0182841D01*
X0183527Y0182943D01*
X0183409Y0183048D01*
X0183294Y0183157D01*
X0183181Y0183268D01*
X0183071Y0183382D01*
X0182964Y0183499D01*
X0182860Y0183618D01*
X0182759Y0183740D01*
X0182662Y0183865D01*
X0182567Y0183992D01*
X0182476Y0184121D01*
X0182387Y0184252D01*
X0182303Y0184386D01*
X0182221Y0184522D01*
X0182143Y0184659D01*
X0182069Y0184799D01*
X0181998Y0184941D01*
X0181930Y0185084D01*
X0181866Y0185229D01*
X0181806Y0185375D01*
X0181750Y0185523D01*
X0181697Y0185672D01*
X0181648Y0185823D01*
X0181603Y0185975D01*
X0181562Y0186128D01*
X0181524Y0186281D01*
X0181491Y0186436D01*
X0181461Y0186592D01*
X0181435Y0186748D01*
X0181414Y0186905D01*
X0181396Y0187062D01*
X0181382Y0187220D01*
X0181372Y0187378D01*
X0181366Y0187536D01*
X0181364Y0187694D01*
X0099868Y0187694D02*
X0099870Y0187852D01*
X0099876Y0188010D01*
X0099886Y0188168D01*
X0099900Y0188326D01*
X0099918Y0188483D01*
X0099939Y0188640D01*
X0099965Y0188796D01*
X0099995Y0188952D01*
X0100028Y0189107D01*
X0100066Y0189260D01*
X0100107Y0189413D01*
X0100152Y0189565D01*
X0100201Y0189716D01*
X0100254Y0189865D01*
X0100310Y0190013D01*
X0100370Y0190159D01*
X0100434Y0190304D01*
X0100502Y0190447D01*
X0100573Y0190589D01*
X0100647Y0190729D01*
X0100725Y0190866D01*
X0100807Y0191002D01*
X0100891Y0191136D01*
X0100980Y0191267D01*
X0101071Y0191396D01*
X0101166Y0191523D01*
X0101263Y0191648D01*
X0101364Y0191770D01*
X0101468Y0191889D01*
X0101575Y0192006D01*
X0101685Y0192120D01*
X0101798Y0192231D01*
X0101913Y0192340D01*
X0102031Y0192445D01*
X0102152Y0192547D01*
X0102275Y0192647D01*
X0102401Y0192743D01*
X0102529Y0192836D01*
X0102659Y0192926D01*
X0102792Y0193012D01*
X0102927Y0193096D01*
X0103063Y0193175D01*
X0103202Y0193252D01*
X0103343Y0193324D01*
X0103485Y0193394D01*
X0103629Y0193459D01*
X0103775Y0193521D01*
X0103922Y0193579D01*
X0104071Y0193634D01*
X0104221Y0193685D01*
X0104372Y0193732D01*
X0104524Y0193775D01*
X0104677Y0193814D01*
X0104832Y0193850D01*
X0104987Y0193881D01*
X0105143Y0193909D01*
X0105299Y0193933D01*
X0105456Y0193953D01*
X0105614Y0193969D01*
X0105771Y0193981D01*
X0105930Y0193989D01*
X0106088Y0193993D01*
X0106246Y0193993D01*
X0106404Y0193989D01*
X0106563Y0193981D01*
X0106720Y0193969D01*
X0106878Y0193953D01*
X0107035Y0193933D01*
X0107191Y0193909D01*
X0107347Y0193881D01*
X0107502Y0193850D01*
X0107657Y0193814D01*
X0107810Y0193775D01*
X0107962Y0193732D01*
X0108113Y0193685D01*
X0108263Y0193634D01*
X0108412Y0193579D01*
X0108559Y0193521D01*
X0108705Y0193459D01*
X0108849Y0193394D01*
X0108991Y0193324D01*
X0109132Y0193252D01*
X0109271Y0193175D01*
X0109407Y0193096D01*
X0109542Y0193012D01*
X0109675Y0192926D01*
X0109805Y0192836D01*
X0109933Y0192743D01*
X0110059Y0192647D01*
X0110182Y0192547D01*
X0110303Y0192445D01*
X0110421Y0192340D01*
X0110536Y0192231D01*
X0110649Y0192120D01*
X0110759Y0192006D01*
X0110866Y0191889D01*
X0110970Y0191770D01*
X0111071Y0191648D01*
X0111168Y0191523D01*
X0111263Y0191396D01*
X0111354Y0191267D01*
X0111443Y0191136D01*
X0111527Y0191002D01*
X0111609Y0190866D01*
X0111687Y0190729D01*
X0111761Y0190589D01*
X0111832Y0190447D01*
X0111900Y0190304D01*
X0111964Y0190159D01*
X0112024Y0190013D01*
X0112080Y0189865D01*
X0112133Y0189716D01*
X0112182Y0189565D01*
X0112227Y0189413D01*
X0112268Y0189260D01*
X0112306Y0189107D01*
X0112339Y0188952D01*
X0112369Y0188796D01*
X0112395Y0188640D01*
X0112416Y0188483D01*
X0112434Y0188326D01*
X0112448Y0188168D01*
X0112458Y0188010D01*
X0112464Y0187852D01*
X0112466Y0187694D01*
X0112464Y0187536D01*
X0112458Y0187378D01*
X0112448Y0187220D01*
X0112434Y0187062D01*
X0112416Y0186905D01*
X0112395Y0186748D01*
X0112369Y0186592D01*
X0112339Y0186436D01*
X0112306Y0186281D01*
X0112268Y0186128D01*
X0112227Y0185975D01*
X0112182Y0185823D01*
X0112133Y0185672D01*
X0112080Y0185523D01*
X0112024Y0185375D01*
X0111964Y0185229D01*
X0111900Y0185084D01*
X0111832Y0184941D01*
X0111761Y0184799D01*
X0111687Y0184659D01*
X0111609Y0184522D01*
X0111527Y0184386D01*
X0111443Y0184252D01*
X0111354Y0184121D01*
X0111263Y0183992D01*
X0111168Y0183865D01*
X0111071Y0183740D01*
X0110970Y0183618D01*
X0110866Y0183499D01*
X0110759Y0183382D01*
X0110649Y0183268D01*
X0110536Y0183157D01*
X0110421Y0183048D01*
X0110303Y0182943D01*
X0110182Y0182841D01*
X0110059Y0182741D01*
X0109933Y0182645D01*
X0109805Y0182552D01*
X0109675Y0182462D01*
X0109542Y0182376D01*
X0109407Y0182292D01*
X0109271Y0182213D01*
X0109132Y0182136D01*
X0108991Y0182064D01*
X0108849Y0181994D01*
X0108705Y0181929D01*
X0108559Y0181867D01*
X0108412Y0181809D01*
X0108263Y0181754D01*
X0108113Y0181703D01*
X0107962Y0181656D01*
X0107810Y0181613D01*
X0107657Y0181574D01*
X0107502Y0181538D01*
X0107347Y0181507D01*
X0107191Y0181479D01*
X0107035Y0181455D01*
X0106878Y0181435D01*
X0106720Y0181419D01*
X0106563Y0181407D01*
X0106404Y0181399D01*
X0106246Y0181395D01*
X0106088Y0181395D01*
X0105930Y0181399D01*
X0105771Y0181407D01*
X0105614Y0181419D01*
X0105456Y0181435D01*
X0105299Y0181455D01*
X0105143Y0181479D01*
X0104987Y0181507D01*
X0104832Y0181538D01*
X0104677Y0181574D01*
X0104524Y0181613D01*
X0104372Y0181656D01*
X0104221Y0181703D01*
X0104071Y0181754D01*
X0103922Y0181809D01*
X0103775Y0181867D01*
X0103629Y0181929D01*
X0103485Y0181994D01*
X0103343Y0182064D01*
X0103202Y0182136D01*
X0103063Y0182213D01*
X0102927Y0182292D01*
X0102792Y0182376D01*
X0102659Y0182462D01*
X0102529Y0182552D01*
X0102401Y0182645D01*
X0102275Y0182741D01*
X0102152Y0182841D01*
X0102031Y0182943D01*
X0101913Y0183048D01*
X0101798Y0183157D01*
X0101685Y0183268D01*
X0101575Y0183382D01*
X0101468Y0183499D01*
X0101364Y0183618D01*
X0101263Y0183740D01*
X0101166Y0183865D01*
X0101071Y0183992D01*
X0100980Y0184121D01*
X0100891Y0184252D01*
X0100807Y0184386D01*
X0100725Y0184522D01*
X0100647Y0184659D01*
X0100573Y0184799D01*
X0100502Y0184941D01*
X0100434Y0185084D01*
X0100370Y0185229D01*
X0100310Y0185375D01*
X0100254Y0185523D01*
X0100201Y0185672D01*
X0100152Y0185823D01*
X0100107Y0185975D01*
X0100066Y0186128D01*
X0100028Y0186281D01*
X0099995Y0186436D01*
X0099965Y0186592D01*
X0099939Y0186748D01*
X0099918Y0186905D01*
X0099900Y0187062D01*
X0099886Y0187220D01*
X0099876Y0187378D01*
X0099870Y0187536D01*
X0099868Y0187694D01*
X0008112Y0187639D02*
X0008114Y0187797D01*
X0008120Y0187955D01*
X0008130Y0188113D01*
X0008144Y0188271D01*
X0008162Y0188428D01*
X0008183Y0188585D01*
X0008209Y0188741D01*
X0008239Y0188897D01*
X0008272Y0189052D01*
X0008310Y0189205D01*
X0008351Y0189358D01*
X0008396Y0189510D01*
X0008445Y0189661D01*
X0008498Y0189810D01*
X0008554Y0189958D01*
X0008614Y0190104D01*
X0008678Y0190249D01*
X0008746Y0190392D01*
X0008817Y0190534D01*
X0008891Y0190674D01*
X0008969Y0190811D01*
X0009051Y0190947D01*
X0009135Y0191081D01*
X0009224Y0191212D01*
X0009315Y0191341D01*
X0009410Y0191468D01*
X0009507Y0191593D01*
X0009608Y0191715D01*
X0009712Y0191834D01*
X0009819Y0191951D01*
X0009929Y0192065D01*
X0010042Y0192176D01*
X0010157Y0192285D01*
X0010275Y0192390D01*
X0010396Y0192492D01*
X0010519Y0192592D01*
X0010645Y0192688D01*
X0010773Y0192781D01*
X0010903Y0192871D01*
X0011036Y0192957D01*
X0011171Y0193041D01*
X0011307Y0193120D01*
X0011446Y0193197D01*
X0011587Y0193269D01*
X0011729Y0193339D01*
X0011873Y0193404D01*
X0012019Y0193466D01*
X0012166Y0193524D01*
X0012315Y0193579D01*
X0012465Y0193630D01*
X0012616Y0193677D01*
X0012768Y0193720D01*
X0012921Y0193759D01*
X0013076Y0193795D01*
X0013231Y0193826D01*
X0013387Y0193854D01*
X0013543Y0193878D01*
X0013700Y0193898D01*
X0013858Y0193914D01*
X0014015Y0193926D01*
X0014174Y0193934D01*
X0014332Y0193938D01*
X0014490Y0193938D01*
X0014648Y0193934D01*
X0014807Y0193926D01*
X0014964Y0193914D01*
X0015122Y0193898D01*
X0015279Y0193878D01*
X0015435Y0193854D01*
X0015591Y0193826D01*
X0015746Y0193795D01*
X0015901Y0193759D01*
X0016054Y0193720D01*
X0016206Y0193677D01*
X0016357Y0193630D01*
X0016507Y0193579D01*
X0016656Y0193524D01*
X0016803Y0193466D01*
X0016949Y0193404D01*
X0017093Y0193339D01*
X0017235Y0193269D01*
X0017376Y0193197D01*
X0017515Y0193120D01*
X0017651Y0193041D01*
X0017786Y0192957D01*
X0017919Y0192871D01*
X0018049Y0192781D01*
X0018177Y0192688D01*
X0018303Y0192592D01*
X0018426Y0192492D01*
X0018547Y0192390D01*
X0018665Y0192285D01*
X0018780Y0192176D01*
X0018893Y0192065D01*
X0019003Y0191951D01*
X0019110Y0191834D01*
X0019214Y0191715D01*
X0019315Y0191593D01*
X0019412Y0191468D01*
X0019507Y0191341D01*
X0019598Y0191212D01*
X0019687Y0191081D01*
X0019771Y0190947D01*
X0019853Y0190811D01*
X0019931Y0190674D01*
X0020005Y0190534D01*
X0020076Y0190392D01*
X0020144Y0190249D01*
X0020208Y0190104D01*
X0020268Y0189958D01*
X0020324Y0189810D01*
X0020377Y0189661D01*
X0020426Y0189510D01*
X0020471Y0189358D01*
X0020512Y0189205D01*
X0020550Y0189052D01*
X0020583Y0188897D01*
X0020613Y0188741D01*
X0020639Y0188585D01*
X0020660Y0188428D01*
X0020678Y0188271D01*
X0020692Y0188113D01*
X0020702Y0187955D01*
X0020708Y0187797D01*
X0020710Y0187639D01*
X0020708Y0187481D01*
X0020702Y0187323D01*
X0020692Y0187165D01*
X0020678Y0187007D01*
X0020660Y0186850D01*
X0020639Y0186693D01*
X0020613Y0186537D01*
X0020583Y0186381D01*
X0020550Y0186226D01*
X0020512Y0186073D01*
X0020471Y0185920D01*
X0020426Y0185768D01*
X0020377Y0185617D01*
X0020324Y0185468D01*
X0020268Y0185320D01*
X0020208Y0185174D01*
X0020144Y0185029D01*
X0020076Y0184886D01*
X0020005Y0184744D01*
X0019931Y0184604D01*
X0019853Y0184467D01*
X0019771Y0184331D01*
X0019687Y0184197D01*
X0019598Y0184066D01*
X0019507Y0183937D01*
X0019412Y0183810D01*
X0019315Y0183685D01*
X0019214Y0183563D01*
X0019110Y0183444D01*
X0019003Y0183327D01*
X0018893Y0183213D01*
X0018780Y0183102D01*
X0018665Y0182993D01*
X0018547Y0182888D01*
X0018426Y0182786D01*
X0018303Y0182686D01*
X0018177Y0182590D01*
X0018049Y0182497D01*
X0017919Y0182407D01*
X0017786Y0182321D01*
X0017651Y0182237D01*
X0017515Y0182158D01*
X0017376Y0182081D01*
X0017235Y0182009D01*
X0017093Y0181939D01*
X0016949Y0181874D01*
X0016803Y0181812D01*
X0016656Y0181754D01*
X0016507Y0181699D01*
X0016357Y0181648D01*
X0016206Y0181601D01*
X0016054Y0181558D01*
X0015901Y0181519D01*
X0015746Y0181483D01*
X0015591Y0181452D01*
X0015435Y0181424D01*
X0015279Y0181400D01*
X0015122Y0181380D01*
X0014964Y0181364D01*
X0014807Y0181352D01*
X0014648Y0181344D01*
X0014490Y0181340D01*
X0014332Y0181340D01*
X0014174Y0181344D01*
X0014015Y0181352D01*
X0013858Y0181364D01*
X0013700Y0181380D01*
X0013543Y0181400D01*
X0013387Y0181424D01*
X0013231Y0181452D01*
X0013076Y0181483D01*
X0012921Y0181519D01*
X0012768Y0181558D01*
X0012616Y0181601D01*
X0012465Y0181648D01*
X0012315Y0181699D01*
X0012166Y0181754D01*
X0012019Y0181812D01*
X0011873Y0181874D01*
X0011729Y0181939D01*
X0011587Y0182009D01*
X0011446Y0182081D01*
X0011307Y0182158D01*
X0011171Y0182237D01*
X0011036Y0182321D01*
X0010903Y0182407D01*
X0010773Y0182497D01*
X0010645Y0182590D01*
X0010519Y0182686D01*
X0010396Y0182786D01*
X0010275Y0182888D01*
X0010157Y0182993D01*
X0010042Y0183102D01*
X0009929Y0183213D01*
X0009819Y0183327D01*
X0009712Y0183444D01*
X0009608Y0183563D01*
X0009507Y0183685D01*
X0009410Y0183810D01*
X0009315Y0183937D01*
X0009224Y0184066D01*
X0009135Y0184197D01*
X0009051Y0184331D01*
X0008969Y0184467D01*
X0008891Y0184604D01*
X0008817Y0184744D01*
X0008746Y0184886D01*
X0008678Y0185029D01*
X0008614Y0185174D01*
X0008554Y0185320D01*
X0008498Y0185468D01*
X0008445Y0185617D01*
X0008396Y0185768D01*
X0008351Y0185920D01*
X0008310Y0186073D01*
X0008272Y0186226D01*
X0008239Y0186381D01*
X0008209Y0186537D01*
X0008183Y0186693D01*
X0008162Y0186850D01*
X0008144Y0187007D01*
X0008130Y0187165D01*
X0008120Y0187323D01*
X0008114Y0187481D01*
X0008112Y0187639D01*
D11*
X0011360Y0167850D03*
X0018840Y0167850D03*
X0038860Y0068600D03*
X0046340Y0068600D03*
X0129860Y0020350D03*
X0137340Y0020350D03*
X0135860Y0071850D03*
X0143340Y0071850D03*
D12*
X0029049Y0059600D03*
X0010151Y0059600D03*
D13*
X0153600Y0154151D03*
X0153600Y0173049D03*
D14*
X0088065Y0190600D03*
X0071135Y0190600D03*
X0023065Y0039600D03*
X0006135Y0039600D03*
D15*
X0034600Y0098600D02*
X0040600Y0098600D01*
X0040600Y0108600D02*
X0034600Y0108600D01*
X0034600Y0118600D02*
X0040600Y0118600D01*
X0040600Y0128600D02*
X0034600Y0128600D01*
X0034600Y0138600D02*
X0040600Y0138600D01*
X0189350Y0141600D02*
X0195350Y0141600D01*
X0195350Y0131600D02*
X0189350Y0131600D01*
X0189350Y0121600D02*
X0195350Y0121600D01*
X0195350Y0151600D02*
X0189350Y0151600D01*
X0189350Y0060600D02*
X0195350Y0060600D01*
X0195350Y0050600D02*
X0189350Y0050600D01*
X0189350Y0040600D02*
X0195350Y0040600D01*
X0195350Y0030600D02*
X0189350Y0030600D01*
D16*
X0088655Y0170600D03*
X0072545Y0170600D03*
D17*
X0045600Y0015600D03*
D18*
X0045600Y0025600D03*
X0055600Y0025600D03*
X0055600Y0015600D03*
X0065600Y0015600D03*
X0065600Y0025600D03*
D19*
X0147100Y0019350D03*
X0172600Y0070600D03*
X0172600Y0080600D03*
X0182600Y0080600D03*
X0182600Y0070600D03*
X0192600Y0070600D03*
X0192600Y0080600D03*
X0155600Y0120600D03*
X0155600Y0130600D03*
X0155600Y0140600D03*
X0145600Y0140600D03*
X0145600Y0130600D03*
X0145600Y0120600D03*
D20*
X0127100Y0080850D03*
X0156350Y0023734D03*
X0162600Y0023734D03*
X0168850Y0023734D03*
X0168850Y0015466D03*
X0162600Y0015466D03*
X0156350Y0015466D03*
X0098600Y0170600D03*
D21*
X0056600Y0179575D02*
X0056600Y0186625D01*
X0036600Y0186625D02*
X0036600Y0179575D01*
D22*
X0076360Y0147600D03*
X0083840Y0147600D03*
X0083840Y0138850D03*
X0076360Y0138850D03*
X0061840Y0104350D03*
X0054360Y0104350D03*
X0054360Y0096100D03*
X0061840Y0096100D03*
X0058340Y0045600D03*
X0050860Y0045600D03*
X0173110Y0040600D03*
X0180590Y0040600D03*
X0180340Y0030600D03*
X0172860Y0030600D03*
X0140840Y0178350D03*
X0133360Y0178350D03*
D23*
X0134600Y0167340D03*
X0134600Y0159860D03*
X0115350Y0020590D03*
X0115350Y0013110D03*
X0107350Y0013110D03*
X0107350Y0020590D03*
X0099350Y0020590D03*
X0099350Y0013110D03*
D24*
X0097600Y0062350D03*
X0112600Y0062350D03*
X0112600Y0082350D03*
X0097600Y0082350D03*
D25*
X0078600Y0069100D03*
X0078600Y0054100D03*
X0058600Y0054100D03*
X0058600Y0069100D03*
D26*
X0047600Y0089100D03*
X0037600Y0089100D03*
X0027600Y0089100D03*
X0027600Y0146100D03*
X0047600Y0146100D03*
D27*
X0063600Y0118600D03*
X0011600Y0118600D03*
D28*
X0123600Y0121600D03*
X0123600Y0111600D03*
X0123600Y0101600D03*
X0123600Y0131600D03*
X0123600Y0141600D03*
X0123600Y0151600D03*
X0123600Y0161600D03*
X0123600Y0171600D03*
X0173600Y0171600D03*
X0173600Y0161600D03*
X0173600Y0151600D03*
X0173600Y0141600D03*
X0173600Y0131600D03*
X0173600Y0121600D03*
X0173600Y0111600D03*
X0173600Y0101600D03*
D29*
X0107193Y0136000D03*
X0107193Y0136393D03*
X0107193Y0136787D03*
X0107193Y0137181D03*
X0106799Y0135212D03*
X0106011Y0132850D03*
D30*
X0106208Y0133244D03*
X0107389Y0150567D03*
D31*
X0108767Y0150173D03*
X0106405Y0134031D03*
X0106405Y0133637D03*
D32*
X0106602Y0134425D03*
X0106602Y0134819D03*
X0106996Y0135606D03*
D33*
X0107389Y0137574D03*
D34*
X0107193Y0137968D03*
X0107193Y0138362D03*
X0107193Y0138756D03*
X0107193Y0139149D03*
X0107193Y0139543D03*
X0107193Y0139937D03*
D35*
X0107193Y0140330D03*
D36*
X0108570Y0140724D03*
X0102271Y0149385D03*
X0101484Y0148992D03*
X0101090Y0148598D03*
X0100696Y0148204D03*
X0100303Y0147811D03*
X0099909Y0147417D03*
X0099515Y0147023D03*
X0099122Y0146236D03*
X0098728Y0145842D03*
X0098334Y0145055D03*
X0098334Y0144661D03*
X0098334Y0143480D03*
D37*
X0103059Y0142299D03*
D38*
X0104437Y0142693D03*
X0107193Y0143480D03*
X0108767Y0147417D03*
D39*
X0105027Y0143086D03*
D40*
X0099319Y0146630D03*
X0098531Y0145448D03*
X0098137Y0144267D03*
X0098137Y0143874D03*
D41*
X0107586Y0143874D03*
X0108767Y0146630D03*
D42*
X0108570Y0146236D03*
X0108570Y0145842D03*
X0108177Y0144661D03*
X0107783Y0144267D03*
D43*
X0108374Y0145055D03*
X0108374Y0145448D03*
D44*
X0108570Y0147023D03*
D45*
X0108767Y0147811D03*
D46*
X0108767Y0148204D03*
D47*
X0108767Y0148598D03*
D48*
X0108767Y0148992D03*
D49*
X0108767Y0149385D03*
D50*
X0103649Y0150173D03*
X0102862Y0149779D03*
D51*
X0108767Y0149779D03*
D52*
X0107389Y0150960D03*
D53*
X0063600Y0154100D03*
X0053600Y0154100D03*
X0053600Y0081100D03*
X0063600Y0081100D03*
D54*
X0021600Y0081100D03*
X0011600Y0081100D03*
X0011600Y0154100D03*
X0021600Y0154100D03*
D55*
X0132072Y0189072D03*
X0142072Y0189072D03*
X0152072Y0189072D03*
X0162072Y0189072D03*
D56*
X0151624Y0061500D03*
X0148474Y0061500D03*
X0145324Y0061500D03*
X0142175Y0061500D03*
X0139025Y0061500D03*
X0135876Y0061500D03*
X0132726Y0061500D03*
X0129576Y0061500D03*
X0129576Y0027700D03*
X0132726Y0027700D03*
X0135876Y0027700D03*
X0139025Y0027700D03*
X0142175Y0027700D03*
X0145324Y0027700D03*
X0148474Y0027700D03*
X0151624Y0027700D03*
D57*
X0157500Y0033576D03*
X0157500Y0036726D03*
X0157500Y0039876D03*
X0157500Y0043025D03*
X0157500Y0046175D03*
X0157500Y0049324D03*
X0157500Y0052474D03*
X0157500Y0055624D03*
X0123700Y0055624D03*
X0123700Y0052474D03*
X0123700Y0049324D03*
X0123700Y0046175D03*
X0123700Y0043025D03*
X0123700Y0039876D03*
X0123700Y0036726D03*
X0123700Y0033576D03*
D58*
X0123350Y0072600D03*
X0127287Y0072600D03*
X0119413Y0072600D03*
D59*
X0119350Y0072537D01*
X0119350Y0068100D01*
X0125950Y0061500D01*
X0129576Y0061500D01*
X0132726Y0061500D02*
X0132726Y0065224D01*
X0131350Y0066600D01*
X0129850Y0066600D01*
X0127350Y0069100D01*
X0127350Y0072537D01*
X0127287Y0072600D01*
X0123350Y0072600D02*
X0123350Y0076350D01*
X0121850Y0077850D01*
X0121850Y0079600D01*
X0121100Y0080350D01*
X0116600Y0079350D02*
X0116600Y0087350D01*
X0123600Y0094350D01*
X0123600Y0101600D01*
X0115850Y0103850D02*
X0123600Y0111600D01*
X0115850Y0103850D02*
X0115850Y0092600D01*
X0106850Y0083600D01*
X0106850Y0080100D01*
X0101850Y0075100D01*
X0101850Y0046600D01*
X0105425Y0043025D01*
X0123700Y0043025D01*
X0123700Y0046175D02*
X0107775Y0046175D01*
X0105350Y0048600D01*
X0105350Y0068100D01*
X0116600Y0079350D01*
X0112600Y0062350D02*
X0119326Y0055624D01*
X0123700Y0055624D01*
X0123700Y0052474D02*
X0115976Y0052474D01*
X0114600Y0053850D01*
X0115574Y0049324D02*
X0110100Y0049850D01*
X0115574Y0049324D02*
X0123700Y0049324D01*
X0132726Y0042226D02*
X0139350Y0048850D01*
X0139350Y0054850D01*
X0137350Y0054850D01*
X0135876Y0056324D01*
X0135876Y0061500D01*
X0135876Y0071834D01*
X0135860Y0071850D01*
X0140100Y0066600D02*
X0139025Y0065525D01*
X0139025Y0061500D01*
X0135876Y0061500D02*
X0135850Y0061474D01*
X0140100Y0066600D02*
X0143350Y0066600D01*
X0143340Y0066610D01*
X0143340Y0071850D01*
X0143340Y0078840D01*
X0143350Y0078850D01*
X0143350Y0079850D01*
X0151600Y0083600D02*
X0151600Y0061524D01*
X0151624Y0061500D01*
X0148474Y0061500D02*
X0148350Y0061624D01*
X0148350Y0092350D01*
X0154850Y0075350D02*
X0157600Y0072600D01*
X0157600Y0055724D01*
X0157500Y0055624D01*
X0157626Y0052600D02*
X0157500Y0052474D01*
X0157626Y0052600D02*
X0162600Y0052600D01*
X0173110Y0042090D01*
X0173110Y0040600D01*
X0167350Y0042100D02*
X0167350Y0035100D01*
X0171850Y0030600D01*
X0172860Y0030600D01*
X0168850Y0026350D02*
X0168850Y0023734D01*
X0168850Y0026350D02*
X0166350Y0028850D01*
X0166350Y0031850D01*
X0161474Y0036726D01*
X0157500Y0036726D01*
X0157500Y0039876D02*
X0152376Y0039876D01*
X0147850Y0035350D01*
X0143850Y0038600D02*
X0148275Y0043025D01*
X0157500Y0043025D01*
X0157500Y0046175D02*
X0144175Y0046175D01*
X0140850Y0042850D01*
X0132726Y0042226D02*
X0132726Y0027700D01*
X0129576Y0027700D02*
X0127476Y0025600D01*
X0084600Y0025600D01*
X0069600Y0010600D01*
X0060600Y0010600D01*
X0055600Y0015600D01*
X0050600Y0020600D02*
X0071100Y0020600D01*
X0078850Y0028350D01*
X0118474Y0028350D01*
X0123700Y0033576D01*
X0123676Y0033600D01*
X0123574Y0036600D02*
X0123700Y0036726D01*
X0123576Y0036850D01*
X0119600Y0036850D01*
X0113850Y0031100D01*
X0061100Y0031100D01*
X0055600Y0025600D01*
X0050600Y0020600D02*
X0045600Y0015600D01*
X0042100Y0006850D02*
X0008350Y0040600D01*
X0007135Y0040600D01*
X0006135Y0039600D01*
X0024151Y0045600D02*
X0010151Y0059600D01*
X0024151Y0045600D02*
X0050860Y0045600D01*
X0058600Y0069100D02*
X0078600Y0069100D01*
X0058600Y0069100D02*
X0058600Y0076100D01*
X0053600Y0081100D01*
X0052350Y0087350D02*
X0044600Y0079600D01*
X0022350Y0079600D01*
X0021600Y0080350D01*
X0027600Y0089100D02*
X0027600Y0105600D01*
X0030600Y0108600D01*
X0037600Y0108600D01*
X0043100Y0108600D01*
X0047350Y0104350D01*
X0054360Y0104350D01*
X0060850Y0104850D02*
X0061350Y0104850D01*
X0061600Y0104600D01*
X0061600Y0104350D01*
X0061850Y0104100D01*
X0061850Y0103850D01*
X0060850Y0104850D01*
X0061600Y0104600D02*
X0061600Y0107350D01*
X0056600Y0112350D01*
X0055100Y0112350D01*
X0038850Y0128600D01*
X0037600Y0128600D01*
X0038100Y0128100D01*
X0045600Y0128100D01*
X0056350Y0138850D01*
X0076360Y0138850D01*
X0076360Y0147600D01*
X0080350Y0143350D02*
X0082850Y0145850D01*
X0082850Y0146360D01*
X0083840Y0147600D01*
X0125563Y0189072D01*
X0132072Y0189072D01*
X0136600Y0184350D02*
X0124600Y0184350D01*
X0089600Y0149350D01*
X0089600Y0144610D01*
X0083840Y0138850D01*
X0090600Y0132090D01*
X0090600Y0039600D01*
X0086100Y0038850D02*
X0086100Y0041600D01*
X0087850Y0043350D01*
X0087850Y0125850D01*
X0080100Y0133600D01*
X0080100Y0134100D01*
X0093600Y0146600D02*
X0093600Y0046350D01*
X0100100Y0039850D01*
X0123674Y0039850D01*
X0123700Y0039876D01*
X0129576Y0027700D02*
X0129476Y0027600D01*
X0129860Y0020350D02*
X0129850Y0020340D01*
X0123110Y0020340D01*
X0123100Y0020350D01*
X0115350Y0020590D02*
X0107350Y0020590D01*
X0099350Y0020590D01*
X0085840Y0020590D01*
X0072100Y0006850D01*
X0042100Y0006850D01*
X0097600Y0056100D02*
X0097600Y0062350D01*
X0061840Y0091340D02*
X0057850Y0087350D01*
X0052350Y0087350D01*
X0047600Y0089100D02*
X0047600Y0094600D01*
X0046475Y0095725D01*
X0046850Y0096100D01*
X0054360Y0096100D01*
X0046475Y0095725D02*
X0043600Y0098600D01*
X0037600Y0098600D01*
X0037600Y0118600D02*
X0032600Y0118600D01*
X0027600Y0123600D01*
X0027600Y0146100D01*
X0061840Y0104350D02*
X0061840Y0096100D01*
X0061840Y0091340D01*
X0093600Y0146600D02*
X0118600Y0171600D01*
X0123600Y0171600D01*
X0130350Y0178350D01*
X0133360Y0178350D01*
X0136600Y0184350D02*
X0141322Y0189072D01*
X0142072Y0189072D01*
X0149850Y0182850D02*
X0155850Y0182850D01*
X0162072Y0189072D01*
X0149850Y0182850D02*
X0145350Y0178350D01*
X0140840Y0178350D01*
X0140411Y0167340D02*
X0134600Y0167340D01*
X0134600Y0161600D02*
X0132860Y0161600D01*
X0134600Y0159860D01*
X0134600Y0161600D02*
X0134600Y0155600D01*
X0145600Y0144600D01*
X0145600Y0140600D01*
X0138600Y0144600D02*
X0138600Y0132600D01*
X0140600Y0130600D01*
X0145600Y0130600D01*
X0145600Y0120600D02*
X0140600Y0120600D01*
X0134600Y0126600D01*
X0134600Y0139600D01*
X0132600Y0141600D01*
X0123600Y0141600D01*
X0123600Y0131600D02*
X0123600Y0121600D01*
X0138600Y0144600D02*
X0131600Y0151600D01*
X0123600Y0151600D01*
X0123600Y0161600D02*
X0132860Y0161600D01*
X0140411Y0167340D02*
X0152688Y0155063D01*
X0153600Y0154151D01*
X0155600Y0140600D02*
X0155600Y0130600D01*
X0155600Y0120600D01*
X0166350Y0111600D02*
X0167100Y0110850D01*
X0167100Y0095600D01*
X0172600Y0090100D01*
X0172600Y0080600D01*
X0172600Y0075350D01*
X0172850Y0075600D01*
X0196350Y0075600D01*
X0197600Y0074350D01*
X0197600Y0067850D01*
X0192600Y0062850D01*
X0192350Y0060600D01*
X0192600Y0070600D02*
X0191850Y0070600D01*
X0179350Y0058100D01*
X0178100Y0052100D01*
X0175850Y0049850D01*
X0180590Y0040600D02*
X0192350Y0040600D01*
X0192350Y0030600D02*
X0180340Y0030600D01*
X0167350Y0042100D02*
X0160100Y0049350D01*
X0157526Y0049350D01*
X0157500Y0049324D01*
X0145350Y0061526D02*
X0145324Y0061500D01*
X0145350Y0061526D02*
X0145350Y0065350D01*
X0144100Y0066600D01*
X0143350Y0066600D01*
X0142175Y0061500D02*
X0142100Y0061425D01*
X0142100Y0056350D01*
X0140600Y0054850D01*
X0139350Y0054850D01*
X0157500Y0033576D02*
X0157500Y0031700D01*
X0162600Y0026600D01*
X0162600Y0023734D01*
X0156350Y0023734D02*
X0152384Y0027700D01*
X0151624Y0027700D01*
X0148474Y0027700D02*
X0148474Y0020724D01*
X0147100Y0019350D01*
X0142175Y0016425D02*
X0141100Y0015350D01*
X0131350Y0015350D01*
X0129850Y0016850D01*
X0129850Y0020340D01*
X0137340Y0020350D02*
X0139025Y0017915D01*
X0139025Y0027700D01*
X0142175Y0027700D02*
X0142175Y0016425D01*
X0150850Y0013100D02*
X0115360Y0013100D01*
X0115350Y0013110D01*
X0119850Y0007850D02*
X0108350Y0007850D01*
X0107350Y0008850D01*
X0107350Y0013110D01*
X0099350Y0013110D02*
X0099350Y0009350D01*
X0103350Y0005350D01*
X0121350Y0005350D01*
X0123100Y0007100D01*
X0164100Y0007100D01*
X0168850Y0011850D01*
X0168850Y0015466D01*
X0162600Y0015466D02*
X0162600Y0012350D01*
X0160100Y0009850D01*
X0121850Y0009850D01*
X0119850Y0007850D01*
X0150850Y0013100D02*
X0153216Y0015466D01*
X0156350Y0015466D01*
X0172600Y0070600D02*
X0172600Y0075350D01*
D60*
X0173600Y0111600D02*
X0166350Y0111600D01*
X0161850Y0111600D01*
X0135850Y0085600D01*
X0131850Y0085600D01*
X0127100Y0080850D01*
X0135850Y0071860D01*
X0135860Y0071850D01*
X0160600Y0111600D02*
X0155600Y0116600D01*
X0155600Y0120600D01*
X0160600Y0111600D02*
X0161850Y0111600D01*
X0182600Y0172600D02*
X0166128Y0189072D01*
X0162072Y0189072D01*
X0036600Y0183100D02*
X0021350Y0167850D01*
X0018840Y0167850D01*
X0011600Y0167610D02*
X0011360Y0167850D01*
X0011600Y0167610D02*
X0011600Y0154100D01*
X0010151Y0059600D02*
X0006135Y0055584D01*
X0006135Y0039600D01*
X0023065Y0039600D02*
X0037065Y0025600D01*
X0045600Y0025600D01*
X0060600Y0037600D02*
X0060600Y0043340D01*
X0058340Y0045600D01*
X0058340Y0053840D01*
X0058600Y0054100D01*
X0078600Y0054100D01*
D61*
X0182600Y0172600D03*
D62*
X0088655Y0170600D02*
X0088600Y0170545D01*
X0088600Y0163600D01*
X0086600Y0161600D01*
X0047600Y0161600D01*
X0040100Y0154100D01*
X0021600Y0154100D01*
X0011600Y0154100D01*
X0080100Y0119850D02*
X0080100Y0090100D01*
X0053600Y0081100D02*
X0053600Y0075860D01*
X0046340Y0068600D01*
X0046340Y0065340D01*
X0040600Y0059600D01*
X0029049Y0059600D01*
X0027600Y0068600D02*
X0038860Y0068600D01*
X0027600Y0068600D02*
X0021600Y0074600D01*
X0021600Y0080350D01*
X0021600Y0081100D01*
X0011600Y0081100D01*
X0011600Y0061049D01*
X0010151Y0059600D01*
D63*
X0072545Y0170600D02*
X0072600Y0170655D01*
X0072600Y0176600D01*
X0077600Y0181600D01*
X0083600Y0181600D01*
X0088065Y0186065D01*
X0088065Y0190600D01*
X0071135Y0190600D02*
X0063635Y0183100D01*
X0056600Y0183100D01*
X0088655Y0170600D02*
X0098600Y0170600D01*
X0152688Y0155063D02*
X0162063Y0155063D01*
X0168600Y0161600D01*
X0173600Y0161600D01*
X0173600Y0151600D02*
X0192350Y0151600D01*
X0192350Y0141600D02*
X0173600Y0141600D01*
X0173600Y0131600D02*
X0192350Y0131600D01*
X0192350Y0121600D02*
X0173600Y0121600D01*
X0173600Y0171600D02*
X0155049Y0171600D01*
X0153600Y0173049D01*
D64*
X0148350Y0092350D03*
X0151600Y0083600D03*
X0154850Y0075350D03*
X0143350Y0079850D03*
X0121100Y0080350D03*
X0097600Y0056100D03*
X0110100Y0049850D03*
X0114600Y0053850D03*
X0090600Y0039600D03*
X0086100Y0038850D03*
X0060600Y0037600D03*
X0123100Y0020350D03*
X0143850Y0038600D03*
X0147850Y0035350D03*
X0140850Y0042850D03*
X0175850Y0049850D03*
D65*
X0080100Y0090100D03*
X0080100Y0119850D03*
D66*
X0080100Y0134100D02*
X0080100Y0142850D01*
X0080350Y0143100D01*
X0080350Y0143350D01*
M02*
